<?xml version="1.0" encoding="UTF-8"?>
<!DOCTYPE svg PUBLIC "-//W3C//DTD SVG 1.1//EN" "http://www.w3.org/Graphics/SVG/1.1/DTD/svg11.dtd">
<!-- Creator: CorelDRAW 2019 (64-Bit) -->
<svg xmlns="http://www.w3.org/2000/svg" xml:space="preserve" width="0.488622in" height="0.5025in" version="1.1" style="shape-rendering:geometricPrecision; text-rendering:geometricPrecision; image-rendering:optimizeQuality; fill-rule:evenodd; clip-rule:evenodd"
viewBox="0 0 488.62 502.5"
 xmlns:xlink="http://www.w3.org/1999/xlink"
 xmlns:xodm="http://www.corel.com/coreldraw/odm/2003">
 <defs>
  <style type="text/css">
   <![CDATA[
    .fil3 {fill:#030000}
    .fil1 {fill:#33DC76}
    .fil2 {fill:#3A9960}
    .fil0 {fill:black;fill-rule:nonzero}
   ]]>
  </style>
 </defs>
 <g id="Layer_x0020_1">
  <metadata id="CorelCorpID_0Corel-Layer"/>
  <g id="Layer_x0020_x0020_x0020_1">
   <g id="_1108079311200">
    <g id="Group">
     <path id="Vector_2" class="fil0" d="M240.25 497.13c131.32,0 237.78,-108.24 237.78,-241.76 0,-133.53 -106.46,-241.77 -237.78,-241.77 -131.33,0 -237.78,108.24 -237.78,241.77 0,133.52 106.45,241.76 237.78,241.76z"/>
     <g id="Group_2">
      <polygon id="Vector_3" class="fil1" points="182.77,10.09 186.41,9.67 190.08,9.34 193.8,9.12 197.55,8.99 201.33,8.96 205.13,9.01 208.96,9.16 212.8,9.39 216.65,9.7 220.51,10.09 224.37,10.57 228.24,11.11 232.09,11.74 235.93,12.44 239.76,13.2 243.57,14.04 247.35,14.94 251.1,15.89 254.81,16.91 258.49,17.99 262.12,19.11 265.7,20.3 269.23,21.53 272.7,22.82 276.11,24.14 279.44,25.51 282.71,26.92 285.9,28.36 289.01,29.84 292.04,31.36 294.96,32.9 297.8,34.48 299.27,35.33 300.72,36.17 302.17,37.03 303.6,37.89 305.02,38.76 306.43,39.64 307.82,40.52 309.21,41.41 310.58,42.3 311.94,43.2 313.29,44.1 314.63,45.02 315.95,45.94 317.26,46.85 318.56,47.78 319.84,48.72 321.1,49.66 322.36,50.6 323.6,51.55 324.83,52.5 326.05,53.46 327.24,54.43 328.43,55.4 329.6,56.37 330.76,57.34 331.9,58.32 333.03,59.31 334.14,60.3 335.23,61.29 336.31,62.29 337.38,63.3 338.43,64.3 339.63,65.45 340.78,66.57 341.88,67.66 342.95,68.72 343.98,69.75 344.98,70.76 345.94,71.74 346.87,72.7 347.78,73.65 348.67,74.58 349.52,75.5 350.36,76.42 351.19,77.32 351.98,78.22 352.78,79.12 353.56,80.02 354.32,80.92 355.09,81.83 355.84,82.76 356.59,83.69 357.36,84.63 358.11,85.59 358.87,86.57 359.65,87.58 360.42,88.6 361.21,89.66 362.02,90.74 362.84,91.86 363.68,93.01 364.54,94.2 365.42,95.43 366.32,96.7 366.56,97.05 366.79,97.38 367,97.72 367.22,98.05 367.43,98.39 367.64,98.73 367.85,99.08 368.06,99.44 369.48,102.28 373,106.36 376.43,110.52 379.76,114.76 383,119.07 386.13,123.45 389.17,127.91 392.11,132.44 394.93,137.04 397.65,141.72 400.26,146.45 402.75,151.26 405.13,156.14 407.39,161.08 409.53,166.09 411.54,171.16 413.43,176.29 415.19,181.48 416.82,186.74 418.32,192.06 419.68,197.43 420.91,202.86 421.99,208.35 422.93,213.9 423.74,219.5 424.38,225.14 424.89,230.85 425.23,236.61 425.43,242.41 425.47,248.27 425.34,254.16 425.07,260.11 424.61,266.11 423.85,273.39 422.87,280.61 421.65,287.75 420.21,294.82 418.56,301.81 416.7,308.72 414.62,315.53 412.34,322.25 409.85,328.88 407.17,335.4 404.3,341.8 401.24,348.1 397.99,354.28 394.56,360.35 390.95,366.28 387.17,372.08 383.22,377.75 379.1,383.28 374.83,388.67 370.4,393.9 365.81,398.98 361.07,403.91 356.19,408.67 351.18,413.26 346.01,417.69 340.72,421.94 335.31,426.01 329.76,429.9 324.1,433.59 318.31,437.09 312.43,440.4 306.43,443.5 305.2,444.1 304.01,444.69 302.81,445.26 301.61,445.82 300.43,446.37 299.24,446.92 298.06,447.45 296.87,447.98 295.69,448.49 294.51,449 293.33,449.49 292.15,449.99 290.96,450.46 289.76,450.94 288.57,451.42 287.37,451.89 286.16,452.33 284.95,452.79 283.73,453.24 282.5,453.68 281.26,454.11 280.01,454.55 278.75,454.98 277.49,455.41 276.21,455.82 274.91,456.24 273.6,456.67 272.27,457.08 270.93,457.49 269.57,457.91 268.2,458.32 266.81,458.73 264.07,459.5 261.28,460.23 258.45,460.92 255.59,461.56 252.69,462.16 249.76,462.7 246.79,463.21 243.8,463.67 240.78,464.08 237.74,464.44 234.68,464.77 231.59,465.05 228.49,465.28 225.38,465.46 222.25,465.6 219.11,465.7 215.96,465.74 212.81,465.75 209.65,465.7 206.49,465.61 203.33,465.47 200.17,465.29 197.02,465.06 193.88,464.78 190.74,464.46 187.62,464.09 184.51,463.67 181.42,463.21 178.34,462.7 175.28,462.14 172.25,461.53 169.24,460.88 165.6,460.03 162.02,459.13 158.48,458.17 155.01,457.17 151.59,456.11 148.22,455.01 144.9,453.85 141.63,452.65 138.41,451.4 135.23,450.11 132.09,448.76 129.01,447.37 125.96,445.93 122.97,444.44 120,442.91 117.08,441.33 114.19,439.7 111.34,438.03 108.53,436.31 105.75,434.56 103,432.75 100.28,430.9 97.59,429.01 94.93,427.07 92.3,425.1 89.69,423.08 87.11,421.01 84.56,418.91 82.02,416.76 79.5,414.57 77.01,412.35 74.53,410.07 74.07,409.65 73.62,409.22 73.16,408.79 72.7,408.34 72.24,407.91 71.78,407.46 71.32,407.01 70.87,406.57 70.41,406.11 69.96,405.67 69.51,405.22 69.07,404.77 68.62,404.31 68.19,403.87 67.75,403.43 67.33,403 66.69,402.31 66.01,401.58 65.3,400.81 64.57,400 63.81,399.14 63.04,398.25 62.24,397.33 61.43,396.37 60.61,395.39 59.77,394.39 58.93,393.35 58.07,392.31 57.21,391.25 56.35,390.18 55.49,389.1 54.63,388 53.77,386.92 52.93,385.81 52.08,384.72 51.26,383.64 50.44,382.56 49.65,381.5 48.86,380.44 48.11,379.41 47.37,378.4 46.65,377.4 45.98,376.44 45.33,375.5 44.7,374.6 44.11,373.72 43.57,372.89 43.06,372.1 42.74,371.59 42.43,371.09 42.12,370.58 41.82,370.08 41.52,369.58 41.22,369.08 40.92,368.57 40.62,368.08 40.3,367.59 39.99,367.1 39.67,366.63 39.33,366.14 38.99,365.67 38.63,365.2 38.25,364.75 37.86,364.29 35.06,361.52 34.09,360.22 33.17,358.98 32.3,357.8 31.46,356.68 30.65,355.59 29.86,354.53 29.08,353.47 28.31,352.43 27.54,351.36 26.76,350.28 25.98,349.15 25.17,347.97 24.33,346.73 23.46,345.43 22.54,344.02 21.59,342.52 8.02,318.82 15.62,343.41 16.24,344.93 16.84,346.39 17.42,347.81 17.97,349.19 18.52,350.53 19.04,351.83 19.55,353.09 20.05,354.33 20.54,355.54 21.03,356.73 21.51,357.9 21.99,359.05 22.47,360.18 22.96,361.31 23.45,362.44 23.94,363.56 24.44,364.68 24.96,365.8 25.5,366.94 26.05,368.08 26.62,369.24 27.21,370.42 27.81,371.61 28.46,372.84 29.12,374.09 29.82,375.37 30.55,376.69 31.32,378.04 32.12,379.44 32.96,380.89 33.85,382.38 34.78,383.92 35.05,384.37 35.33,384.87 35.63,385.39 35.95,385.94 36.27,386.51 36.59,387.1 36.93,387.69 37.27,388.27 37.61,388.85 37.95,389.41 38.28,389.96 38.61,390.47 38.94,390.94 39.25,391.38 39.56,391.76 39.84,392.09 40.17,392.2 40.7,392.56 41.39,393.15 42.23,393.91 43.19,394.83 44.22,395.88 45.33,397.02 46.46,398.2 47.6,399.41 48.72,400.61 49.8,401.77 50.8,402.84 51.69,403.82 52.47,404.64 53.09,405.29 53.52,405.73 54.43,406.63 55.35,407.52 56.28,408.4 57.21,409.29 58.14,410.17 59.08,411.05 60.02,411.92 60.97,412.8 61.92,413.67 62.89,414.53 63.86,415.4 64.84,416.26 65.84,417.11 66.85,417.96 67.87,418.81 68.9,419.65 72.31,422.37 75.76,425.02 79.24,427.6 82.75,430.13 86.29,432.59 89.87,434.98 93.48,437.31 97.12,439.58 100.8,441.77 104.52,443.9 108.27,445.96 112.05,447.95 115.88,449.88 119.74,451.73 123.64,453.51 127.57,455.22 131.55,456.86 135.57,458.43 139.63,459.93 143.72,461.35 147.85,462.7 152.03,463.97 156.25,465.17 160.52,466.28 164.82,467.33 169.17,468.3 173.56,469.18 177.99,469.99 182.47,470.72 186.99,471.37 191.56,471.95 196.18,472.43 200.53,472.81 204.91,473.1 209.3,473.31 213.72,473.44 218.15,473.48 222.58,473.44 227.04,473.31 231.49,473.11 235.95,472.83 240.41,472.45 244.87,472 249.32,471.48 253.76,470.87 258.19,470.19 262.61,469.42 267.01,468.59 271.38,467.66 275.74,466.66 280.07,465.59 284.37,464.44 288.63,463.22 292.86,461.91 297.06,460.54 301.2,459.09 305.3,457.57 309.36,455.97 313.37,454.3 317.32,452.56 321.21,450.74 325.05,448.85 328.81,446.9 332.52,444.87 334.02,444.03 335.5,443.19 336.97,442.34 338.43,441.5 339.87,440.65 341.31,439.81 342.72,438.96 344.13,438.11 345.53,437.26 346.92,436.41 348.29,435.54 349.66,434.69 351.02,433.81 352.37,432.94 353.71,432.06 355.04,431.18 356.36,430.29 357.68,429.39 358.99,428.48 360.3,427.57 361.59,426.65 362.89,425.71 364.17,424.77 365.45,423.81 366.74,422.84 368.01,421.87 369.28,420.88 370.55,419.88 371.81,418.87 373.08,417.84 374.34,416.8 375.6,415.74 377.25,414.34 378.9,412.91 380.56,411.44 382.23,409.94 383.91,408.41 385.58,406.85 387.26,405.26 388.94,403.65 390.61,402 392.28,400.34 393.95,398.65 395.61,396.94 397.26,395.22 398.9,393.47 400.52,391.7 402.14,389.92 403.74,388.13 405.33,386.31 406.89,384.5 408.43,382.66 409.96,380.82 411.46,378.96 412.93,377.1 414.38,375.23 415.8,373.37 417.19,371.5 418.55,369.62 419.87,367.74 421.16,365.86 422.41,363.99 423.63,362.13 424.8,360.26 426.35,357.75 427.87,355.24 429.36,352.75 430.83,350.24 432.28,347.74 433.7,345.23 435.1,342.71 436.48,340.19 437.83,337.65 439.15,335.1 440.44,332.54 441.72,329.96 442.96,327.37 444.19,324.76 445.38,322.12 446.55,319.46 447.69,316.78 448.81,314.07 449.89,311.33 450.95,308.56 451.98,305.75 452.98,302.92 453.96,300.04 454.92,297.13 455.84,294.18 456.72,291.19 457.59,288.15 458.43,285.06 459.23,281.93 460,278.75 460.75,275.52 461.46,272.23 462.16,268.81 462.81,265.4 463.42,261.99 463.98,258.59 464.5,255.19 464.96,251.79 465.38,248.4 465.76,245.01 466.09,241.63 466.37,238.25 466.61,234.87 466.81,231.51 466.96,228.15 467.07,224.8 467.13,221.45 467.16,218.12 467.14,214.79 467.07,211.46 466.96,208.15 466.82,204.84 466.63,201.54 466.4,198.26 466.12,194.97 465.81,191.71 465.46,188.45 465.06,185.19 464.63,181.96 464.15,178.72 463.64,175.5 463.08,172.3 462.49,169.1 461.86,165.92 461.33,163.41 460.79,160.94 460.22,158.49 459.64,156.07 459.04,153.68 458.41,151.31 457.78,148.97 457.11,146.65 456.43,144.35 455.73,142.07 455.01,139.81 454.27,137.57 453.51,135.35 452.73,133.14 451.93,130.95 451.12,128.76 450.27,126.59 449.41,124.43 448.53,122.28 447.63,120.13 446.7,117.99 445.76,115.86 444.8,113.73 443.81,111.59 442.8,109.47 441.77,107.35 440.73,105.22 439.65,103.09 438.57,100.96 437.45,98.82 436.32,96.67 435.17,94.52 434.9,94.06 434.59,93.54 434.24,92.97 433.85,92.36 433.45,91.73 433.03,91.07 432.62,90.41 432.21,89.74 431.83,89.09 431.47,88.45 431.16,87.85 430.9,87.28 430.69,86.77 430.57,86.31 430.52,85.92 430.56,85.6 410.12,63.72 409.64,63.24 409.12,62.72 408.54,62.19 407.94,61.63 407.29,61.03 406.61,60.42 405.9,59.79 405.16,59.14 404.39,58.47 403.6,57.79 402.8,57.1 401.96,56.4 401.13,55.69 400.28,54.98 399.41,54.28 398.54,53.56 397.68,52.85 396.81,52.15 395.94,51.45 395.07,50.77 394.22,50.09 393.39,49.43 392.56,48.79 391.76,48.17 390.96,47.56 390.2,46.98 389.46,46.43 388.74,45.9 388.07,45.4 387.42,44.94 386.81,44.51 386.24,44.12 384.58,42.99 382.92,41.87 381.24,40.76 379.55,39.66 377.86,38.56 376.15,37.46 374.44,36.38 372.72,35.3 370.98,34.24 369.26,33.18 367.5,32.13 365.75,31.1 363.99,30.09 362.22,29.07 360.44,28.09 358.65,27.1 356.85,26.14 355.04,25.19 353.23,24.26 351.41,23.35 349.57,22.45 347.74,21.57 345.89,20.72 344.03,19.88 342.17,19.06 340.29,18.26 338.41,17.49 336.52,16.74 334.61,16.01 332.71,15.3 330.8,14.63 328.87,13.97 327.08,13.39 325.31,12.8 323.53,12.24 321.77,11.69 320.01,11.15 318.25,10.62 316.5,10.1 314.76,9.59 313.01,9.1 311.28,8.62 309.54,8.15 307.81,7.69 306.09,7.25 304.35,6.82 302.63,6.39 300.91,5.99 299.19,5.59 297.47,5.21 295.74,4.85 294.03,4.49 292.31,4.15 290.59,3.81 288.87,3.5 287.15,3.2 285.43,2.9 283.7,2.63 281.97,2.36 280.24,2.11 278.51,1.87 276.78,1.65 275.03,1.44 273.29,1.24 262.25,0.35 261.41,0.3 260.57,0.26 259.72,0.22 258.88,0.18 258.02,0.15 257.18,0.12 256.33,0.1 255.48,0.07 254.63,0.06 253.77,0.04 252.91,0.02 252.05,0.02 251.19,0.01 250.33,0 249.46,0 248.6,0.01 247.73,0.02 246.86,0.03 245.99,0.04 245.12,0.06 244.24,0.07 243.36,0.1 242.48,0.13 241.59,0.16 240.71,0.19 239.82,0.23 238.93,0.26 238.04,0.31 237.15,0.36 236.24,0.41 235.35,0.46 234.44,0.52 233.35,0.59 232.25,0.67 231.15,0.76 230.04,0.84 228.92,0.93 227.81,1.02 226.68,1.13 225.55,1.23 224.43,1.33 223.29,1.44 222.15,1.56 221.02,1.69 219.88,1.81 218.75,1.94 217.61,2.08 216.47,2.23 215.33,2.37 214.21,2.53 213.07,2.68 211.95,2.85 210.82,3.01 209.7,3.19 208.59,3.36 207.48,3.55 206.38,3.74 205.28,3.94 204.19,4.14 203.11,4.35 202.04,4.56 200.96,4.79 199.9,5.01 198.86,5.25 198.28,5.37 197.53,5.53 196.61,5.72 195.57,5.93 194.42,6.18 193.2,6.44 191.93,6.74 190.64,7.05 189.35,7.39 188.1,7.73 186.91,8.11 185.8,8.48 184.81,8.87 183.96,9.27 183.27,9.68 "/>
      <polygon id="Vector_4" class="fil2" points="39.81,392.1 41.2,394.35 42.65,396.61 44.14,398.88 45.7,401.15 47.31,403.41 48.96,405.67 50.67,407.94 52.41,410.19 54.2,412.43 56.03,414.67 57.89,416.9 59.8,419.11 61.74,421.31 63.7,423.5 65.7,425.65 67.72,427.8 69.76,429.92 71.83,432.02 73.93,434.08 76.03,436.13 78.15,438.14 80.28,440.12 82.43,442.06 84.59,443.97 86.75,445.84 88.91,447.68 91.07,449.47 93.24,451.22 95.41,452.92 97.56,454.58 99.71,456.19 101.85,457.75 104.2,459.4 106.57,461.05 108.97,462.68 111.42,464.3 113.89,465.89 116.4,467.46 118.94,469.02 121.52,470.56 124.13,472.07 126.78,473.56 129.46,475.02 132.19,476.46 134.95,477.87 137.74,479.24 140.57,480.6 143.44,481.92 146.35,483.2 149.3,484.46 152.28,485.69 155.3,486.87 158.37,488.02 161.47,489.13 164.61,490.21 167.8,491.24 171.02,492.23 174.29,493.18 177.59,494.08 180.94,494.94 184.33,495.76 187.76,496.53 191.24,497.24 194.77,497.92 195.76,498.1 196.77,498.28 197.79,498.48 198.81,498.67 199.85,498.86 200.9,499.05 201.95,499.24 203.01,499.44 204.07,499.63 205.15,499.83 206.23,500.02 207.31,500.2 208.41,500.38 209.51,500.56 210.62,500.73 211.73,500.9 224.86,502.22 228.57,502.35 232.24,502.45 235.88,502.5 239.47,502.5 243.04,502.46 246.56,502.37 250.06,502.23 253.53,502.05 256.96,501.81 260.39,501.54 263.78,501.22 267.16,500.85 270.52,500.42 273.86,499.96 277.19,499.44 280.51,498.89 283.82,498.28 287.13,497.62 290.42,496.92 293.72,496.17 297.02,495.37 300.31,494.52 303.61,493.63 306.92,492.68 310.24,491.69 313.57,490.65 316.91,489.56 320.27,488.42 323.64,487.24 327.03,486 330.44,484.72 333.88,483.38 336.91,482.16 339.95,480.86 342.98,479.49 346.01,478.06 349.04,476.57 352.07,475.01 355.09,473.4 358.1,471.72 361.1,470 364.08,468.21 367.06,466.38 370.02,464.5 372.95,462.56 375.87,460.59 378.76,458.56 381.64,456.51 384.49,454.41 387.3,452.26 390.09,450.09 392.85,447.89 395.58,445.64 398.28,443.37 400.93,441.07 403.55,438.75 406.13,436.4 408.66,434.03 411.15,431.65 413.6,429.23 416,426.81 418.35,424.37 420.64,421.93 422.89,419.47 423.39,418.92 423.87,418.37 424.35,417.83 424.83,417.3 425.3,416.78 425.76,416.24 426.23,415.72 426.69,415.2 427.14,414.67 427.6,414.14 428.06,413.6 428.51,413.06 428.97,412.51 429.43,411.95 429.89,411.38 430.36,410.8 431.22,409.72 432.06,408.68 432.86,407.67 433.63,406.69 434.37,405.74 435.09,404.81 435.8,403.91 436.46,403.02 437.12,402.17 437.76,401.31 438.38,400.47 438.99,399.65 439.59,398.82 440.18,398 440.76,397.19 441.34,396.37 441.92,395.54 442.48,394.71 443.06,393.87 443.63,393.02 444.21,392.15 444.8,391.26 445.39,390.36 446,389.43 446.61,388.47 447.24,387.48 447.89,386.47 448.56,385.41 449.25,384.32 449.95,383.19 450.68,382.02 451.44,380.8 454.61,375.56 457.63,370.23 460.51,364.82 463.26,359.33 465.86,353.79 468.32,348.16 470.64,342.46 472.83,336.71 474.87,330.91 476.77,325.05 478.53,319.14 480.15,313.19 481.63,307.2 482.96,301.17 484.16,295.11 485.22,289.03 486.13,282.93 486.9,276.8 487.53,270.66 488.01,264.5 488.36,258.35 488.56,252.19 488.62,246.03 488.54,239.88 488.32,233.73 487.95,227.61 487.44,221.5 486.8,215.41 486.01,209.35 485.06,203.32 483.99,197.33 482.77,191.37 482.1,188.43 481.4,185.48 480.67,182.56 479.89,179.65 479.09,176.74 478.23,173.85 477.35,170.97 476.43,168.11 475.48,165.26 474.49,162.42 473.47,159.59 472.41,156.78 471.33,153.99 470.2,151.2 469.05,148.44 467.87,145.68 466.64,142.95 465.39,140.22 464.11,137.52 462.8,134.82 461.46,132.15 460.09,129.49 458.69,126.85 457.26,124.23 455.8,121.62 454.32,119.03 452.81,116.45 451.27,113.9 449.7,111.37 448.11,108.85 446.49,106.35 444.84,103.87 444.41,103.26 443.97,102.7 443.55,102.18 443.12,101.67 442.71,101.17 442.29,100.65 441.87,100.08 441.46,99.47 430.53,85.61 430.49,85.93 430.53,86.32 430.67,86.78 430.87,87.3 431.13,87.86 431.44,88.46 431.8,89.1 432.18,89.75 432.59,90.43 433,91.09 433.42,91.74 433.83,92.37 434.21,92.98 434.56,93.55 434.87,94.07 435.14,94.53 436.29,96.68 437.43,98.83 438.54,100.96 439.63,103.1 440.7,105.23 441.74,107.36 442.78,109.48 443.78,111.61 444.77,113.74 445.73,115.87 446.67,118 447.6,120.14 448.5,122.29 449.38,124.43 450.24,126.6 451.08,128.78 451.9,130.95 452.7,133.15 453.48,135.35 454.24,137.58 454.98,139.83 455.7,142.09 456.4,144.36 457.08,146.66 457.75,148.98 458.39,151.32 459.01,153.69 459.61,156.08 460.19,158.51 460.76,160.95 461.3,163.43 461.83,165.93 462.46,169.12 463.05,172.31 463.61,175.52 464.12,178.74 464.6,181.97 465.03,185.21 465.43,188.45 465.78,191.71 466.09,194.99 466.37,198.27 466.6,201.56 466.79,204.85 466.94,208.16 467.04,211.47 467.11,214.8 467.13,218.13 467.11,221.47 467.04,224.81 466.93,228.16 466.78,231.52 466.58,234.89 466.34,238.26 466.05,241.64 465.73,245.02 465.35,248.41 464.93,251.8 464.46,255.2 463.95,258.6 463.39,262 462.79,265.42 462.13,268.83 461.43,272.24 460.72,275.53 459.98,278.76 459.19,281.94 458.39,285.07 457.56,288.15 456.7,291.2 455.8,294.19 454.88,297.14 453.93,300.05 452.96,302.93 451.95,305.77 450.92,308.57 449.86,311.34 448.78,314.08 447.66,316.79 446.52,319.47 445.35,322.13 444.16,324.76 442.94,327.38 441.69,329.98 440.42,332.55 439.12,335.11 437.8,337.66 436.45,340.2 435.07,342.72 433.68,345.24 432.25,347.74 430.8,350.26 429.33,352.76 427.84,355.26 426.32,357.76 424.78,360.27 423.6,362.13 422.39,364 421.13,365.88 419.84,367.75 418.52,369.63 417.16,371.5 415.77,373.38 414.35,375.25 412.91,377.12 411.43,378.97 409.93,380.83 408.41,382.67 406.86,384.5 405.3,386.33 403.71,388.13 402.11,389.93 400.5,391.71 398.87,393.48 397.23,395.23 395.57,396.95 393.92,398.66 392.25,400.35 390.58,402.01 388.9,403.66 387.23,405.27 385.56,406.86 383.88,408.41 382.2,409.95 380.54,411.44 378.87,412.91 377.22,414.35 375.57,415.75 374.31,416.81 373.06,417.85 371.79,418.88 370.52,419.89 369.26,420.89 367.98,421.88 366.71,422.86 365.43,423.82 364.14,424.78 362.85,425.72 361.56,426.65 360.26,427.58 358.96,428.49 357.65,429.4 356.33,430.3 355.01,431.19 353.67,432.08 352.34,432.96 350.99,433.83 349.63,434.69 348.26,435.56 346.89,436.42 345.5,437.27 344.1,438.13 342.7,438.97 341.28,439.82 339.85,440.67 338.4,441.5 336.94,442.35 335.47,443.19 333.99,444.04 332.49,444.89 328.79,446.91 325.02,448.87 321.18,450.76 317.28,452.57 313.33,454.31 309.33,455.98 305.28,457.57 301.17,459.1 297.02,460.55 292.83,461.93 288.6,463.23 284.34,464.45 280.04,465.6 275.71,466.68 271.35,467.67 266.98,468.59 262.58,469.44 258.17,470.2 253.73,470.88 249.29,471.49 244.84,472.02 240.38,472.46 235.92,472.83 231.46,473.12 227,473.33 222.56,473.45 218.12,473.49 213.69,473.45 209.27,473.33 204.88,473.11 200.5,472.82 196.15,472.45 191.54,471.96 186.96,471.38 182.44,470.74 177.96,470 173.53,469.19 169.13,468.3 164.78,467.34 160.48,466.3 156.22,465.17 152,463.98 147.83,462.7 143.69,461.36 139.59,459.93 135.54,458.44 131.52,456.87 127.55,455.24 123.61,453.52 119.71,451.74 115.85,449.89 112.02,447.97 108.24,445.97 104.49,443.91 100.77,441.78 97.09,439.59 93.45,437.32 89.83,435 86.26,432.59 82.71,430.14 79.2,427.61 75.73,425.02 72.28,422.38 68.87,419.66 67.84,418.81 66.81,417.97 65.81,417.12 64.81,416.26 63.83,415.41 62.86,414.55 61.89,413.68 60.94,412.81 59.99,411.94 59.04,411.06 58.11,410.18 57.18,409.3 56.26,408.41 55.33,407.53 54.41,406.63 53.48,405.74 53.06,405.3 52.44,404.65 51.67,403.83 50.77,402.85 49.76,401.78 48.69,400.63 47.57,399.42 46.43,398.21 45.3,397.02 44.19,395.89 43.15,394.85 42.2,393.92 41.36,393.15 40.67,392.57 40.14,392.21 "/>
      <polygon id="Vector_5" class="fil2" points="182.76,10.08 182.2,10.02 181.49,10.04 180.63,10.15 179.64,10.34 178.52,10.59 177.29,10.93 175.96,11.32 174.54,11.77 173.03,12.28 171.45,12.82 169.81,13.42 168.12,14.05 166.39,14.71 164.63,15.39 162.85,16.1 161.06,16.83 159.27,17.56 157.5,18.3 155.74,19.04 154.02,19.77 152.34,20.51 150.71,21.21 149.15,21.9 147.65,22.56 146.25,23.19 144.94,23.79 143.74,24.34 142.65,24.85 141.67,25.3 140.84,25.7 140.16,26.04 139.63,26.31 138.54,26.87 137.42,27.47 136.27,28.08 135.1,28.71 133.91,29.36 132.7,30.02 131.48,30.71 130.25,31.4 129,32.11 127.74,32.84 126.48,33.57 125.2,34.32 123.92,35.08 122.65,35.84 121.37,36.62 120.1,37.4 118.83,38.2 117.57,38.99 116.32,39.79 115.08,40.59 113.86,41.4 112.65,42.2 111.45,43.02 110.28,43.82 109.13,44.63 108,45.44 106.9,46.24 105.82,47.04 104.78,47.82 103.77,48.61 102.79,49.4 101.85,50.17 73.02,75.48 70.5,77.96 67.99,80.56 65.5,83.26 63.01,86.07 60.54,88.98 58.08,91.98 55.65,95.07 53.24,98.23 50.87,101.48 48.52,104.78 46.2,108.16 43.93,111.59 41.69,115.06 39.49,118.59 37.34,122.15 35.24,125.74 33.19,129.36 31.19,133 29.26,136.66 27.37,140.32 25.56,143.99 23.81,147.65 22.13,151.3 20.53,154.94 18.99,158.55 17.54,162.14 16.17,165.69 14.88,169.21 13.68,172.68 12.57,176.1 11.55,179.46 10.62,182.76 4.15,210.11 4.06,210.55 3.99,210.98 3.92,211.41 3.86,211.84 3.81,212.27 3.76,212.7 3.72,213.13 3.67,213.55 3.63,213.98 3.59,214.41 3.54,214.84 3.48,215.27 3.41,215.7 3.34,216.14 3.25,216.57 3.16,217.01 3.09,217.3 3.02,217.62 2.95,217.95 2.88,218.3 2.81,218.67 2.74,219.05 2.67,219.45 2.59,219.86 2.52,220.29 2.44,220.74 2.37,221.19 2.3,221.65 2.23,222.13 2.15,222.62 2.08,223.11 2.01,223.61 0.65,236.66 0.62,237.12 0.61,237.57 0.59,238 0.58,238.41 0.57,238.79 0.57,239.16 0.58,239.5 0.59,239.81 0.61,240.65 0.63,241.52 0.63,242.43 0.62,243.35 0.6,244.3 0.57,245.25 0.53,246.21 0.49,247.18 0.44,248.15 0.39,249.11 0.34,250.07 0.28,251.02 0.23,251.93 0.17,252.84 0.12,253.72 0.07,254.56 0.03,255.37 0.01,256.2 -0,257.06 0.01,257.93 0.03,258.82 0.06,259.72 0.09,260.63 0.13,261.54 0.18,262.46 0.23,263.36 0.28,264.27 0.33,265.16 0.37,266.04 0.41,266.89 0.44,267.73 0.47,268.54 0.5,269.73 0.57,271 0.64,272.33 0.73,273.73 0.84,275.18 0.96,276.7 1.09,278.26 1.24,279.87 1.41,281.51 1.59,283.19 1.79,284.9 1.99,286.65 2.21,288.39 2.44,290.17 2.69,291.94 2.93,293.72 3.2,295.51 3.47,297.29 3.75,299.06 4.04,300.8 4.34,302.54 4.65,304.24 4.96,305.93 5.28,307.57 5.6,309.17 5.93,310.72 6.27,312.22 6.61,313.68 6.96,315.06 7.3,316.39 7.65,317.64 8,318.81 21.57,342.5 22.54,344.01 23.44,345.42 24.31,346.72 25.15,347.96 25.96,349.14 26.76,350.27 27.53,351.35 28.3,352.42 29.07,353.47 29.84,354.52 30.64,355.58 31.45,356.67 32.3,357.79 33.17,358.97 34.08,360.21 35.04,361.52 37.85,364.28 37.6,363.65 37.33,363 37.04,362.31 36.71,361.61 36.37,360.87 36.01,360.11 35.62,359.31 35.22,358.5 34.81,357.65 34.37,356.79 33.93,355.9 33.46,354.98 32.98,354.05 32.5,353.09 32,352.1 31.5,351.1 30.98,350.07 30.46,349.02 29.93,347.95 29.4,346.86 28.86,345.75 28.32,344.62 27.78,343.46 27.24,342.3 26.7,341.11 26.15,339.91 25.62,338.69 25.09,337.44 24.56,336.19 24.04,334.91 23.52,333.62 23.01,332.31 20.44,325.19 18.14,317.98 16.11,310.72 14.33,303.38 12.82,296 11.58,288.56 10.59,281.09 9.87,273.58 9.4,266.07 9.19,258.54 9.22,251 9.52,243.48 10.06,235.95 10.85,228.46 11.89,221 13.18,213.57 14.71,206.19 16.49,198.88 18.52,191.62 20.77,184.43 23.28,177.33 26.02,170.31 28.99,163.4 32.2,156.59 35.65,149.9 39.33,143.32 43.24,136.89 47.39,130.59 51.76,124.43 56.36,118.45 61.19,112.61 66.24,106.96 67.02,106.13 67.8,105.3 68.56,104.5 69.31,103.7 70.06,102.92 70.8,102.14 71.54,101.38 72.27,100.63 73,99.87 73.74,99.12 74.48,98.37 75.21,97.62 75.95,96.87 76.7,96.11 77.45,95.36 78.22,94.59 78.97,93.86 79.78,93.13 80.63,92.4 81.5,91.68 82.37,90.96 83.24,90.26 84.08,89.56 84.87,88.88 85.72,88.13 86.51,87.46 87.26,86.82 88,86.2 88.76,85.55 89.58,84.85 90.49,84.07 91.53,83.17 92.15,82.63 92.81,82.08 93.52,81.5 94.27,80.91 95.06,80.29 95.89,79.67 96.75,79.03 97.64,78.39 98.56,77.72 99.5,77.06 100.46,76.39 101.44,75.71 102.43,75.03 103.44,74.35 104.45,73.67 105.47,73 106.49,72.33 107.51,71.66 108.53,71 109.53,70.36 110.54,69.73 111.53,69.11 112.5,68.5 113.45,67.91 114.38,67.34 115.28,66.79 116.16,66.26 117,65.76 117.81,65.28 118.59,64.83 119.32,64.41 120,64.02 123.19,62.26 126.4,60.57 129.63,58.92 132.89,57.33 136.17,55.8 139.47,54.33 142.8,52.91 146.16,51.56 149.53,50.26 152.93,49.02 156.35,47.83 159.79,46.72 163.26,45.65 166.74,44.65 170.24,43.72 173.76,42.84 177.31,42.03 180.87,41.28 184.46,40.6 188.07,39.98 191.69,39.42 195.33,38.93 198.99,38.5 202.67,38.14 206.37,37.85 210.08,37.62 213.81,37.46 217.56,37.37 221.33,37.35 225.11,37.4 228.9,37.52 232.72,37.7 237.38,38.03 242.02,38.46 246.64,38.99 251.22,39.63 255.78,40.38 260.3,41.22 264.8,42.16 269.26,43.2 273.68,44.33 278.07,45.58 282.41,46.92 286.73,48.35 291,49.87 295.22,51.5 299.41,53.22 303.56,55.02 307.66,56.93 311.71,58.92 315.72,61 319.68,63.18 323.59,65.44 327.45,67.78 331.26,70.22 335.01,72.75 338.71,75.35 342.35,78.04 345.94,80.82 349.47,83.68 352.94,86.61 356.35,89.63 359.7,92.73 362.98,95.91 363.41,96.33 363.82,96.76 364.22,97.17 364.6,97.57 364.98,97.97 365.36,98.36 365.74,98.75 366.11,99.14 366.48,99.52 366.87,99.91 367.26,100.3 367.67,100.68 368.08,101.07 368.53,101.47 368.98,101.87 369.47,102.27 368.06,99.43 367.84,99.07 367.63,98.72 367.42,98.38 367.21,98.04 367,97.71 366.78,97.37 366.55,97.04 366.31,96.69 365.41,95.42 364.52,94.2 363.66,93 362.82,91.86 362.01,90.74 361.2,89.66 360.41,88.6 359.63,87.57 358.87,86.57 358.1,85.59 357.34,84.63 356.59,83.68 355.83,82.75 355.07,81.83 354.31,80.91 353.54,80.02 352.77,79.11 351.98,78.22 351.17,77.31 350.35,76.41 349.52,75.5 348.66,74.57 347.77,73.64 346.87,72.69 345.93,71.73 344.97,70.75 343.97,69.74 342.94,68.71 341.87,67.65 340.77,66.57 339.62,65.44 338.42,64.29 337.37,63.29 336.31,62.28 335.22,61.29 334.13,60.3 333.02,59.3 331.89,58.32 330.74,57.33 329.59,56.36 328.42,55.39 327.24,54.42 326.04,53.45 324.82,52.5 323.59,51.54 322.35,50.59 321.1,49.65 319.82,48.71 318.54,47.78 317.25,46.85 315.94,45.93 314.62,45.01 313.28,44.09 311.93,43.19 310.57,42.3 309.2,41.4 307.81,40.51 306.42,39.63 305.01,38.75 303.59,37.89 302.15,37.02 300.71,36.16 299.26,35.32 297.79,34.47 294.95,32.9 292.02,31.35 289,29.84 285.9,28.35 282.7,26.91 279.44,25.5 276.09,24.13 272.69,22.81 269.22,21.52 265.69,20.29 262.11,19.11 258.48,17.98 254.8,16.9 251.09,15.89 247.34,14.92 243.56,14.03 239.75,13.2 235.93,12.43 232.09,11.73 228.23,11.11 224.37,10.56 220.51,10.08 216.65,9.69 212.79,9.38 208.95,9.15 205.12,9 201.31,8.95 197.54,8.98 193.79,9.11 190.07,9.33 186.4,9.66 "/>
     </g>
    </g>
    <g id="Group_3">
     <polygon id="Vector_6" class="fil1" points="35.87,261.06 36.22,263.24 36.76,265.15 37.5,266.83 38.43,268.28 39.51,269.5 40.75,270.52 42.13,271.33 43.65,271.96 45.28,272.42 47.02,272.71 48.85,272.86 50.76,272.86 52.74,272.72 54.78,272.48 56.86,272.13 58.98,271.69 61.11,271.16 63.25,270.57 65.4,269.91 67.52,269.2 69.61,268.46 71.66,267.69 73.66,266.91 75.6,266.13 77.45,265.36 79.22,264.61 80.88,263.89 82.43,263.22 83.85,262.61 85.13,262.06 86.26,261.59 87.23,261.22 87.26,262.39 87.27,263.75 87.27,265.28 87.25,266.95 87.21,268.78 87.17,270.73 87.11,272.8 87.04,274.98 86.96,277.25 86.86,279.61 86.76,282.04 86.64,284.51 86.51,287.05 86.37,289.61 86.23,292.19 86.08,294.79 85.92,297.39 85.75,299.97 85.58,302.52 85.4,305.03 85.21,307.5 85.02,309.9 84.83,312.23 84.63,314.47 84.43,316.61 84.22,318.64 84.02,320.55 83.81,322.32 83.6,323.95 83.39,325.42 83.19,326.72 82.97,327.83 82.76,328.82 82.54,329.79 82.31,330.73 82.06,331.66 81.81,332.56 81.54,333.44 81.27,334.3 80.98,335.15 80.69,335.97 80.39,336.79 80.08,337.58 79.76,338.37 79.43,339.14 79.09,339.89 78.74,340.65 78.39,341.39 78.03,342.12 77.66,342.84 77.28,343.56 76.9,344.27 76.51,344.98 76.11,345.68 75.71,346.39 75.3,347.09 74.89,347.78 74.46,348.48 74.04,349.19 73.61,349.9 73.18,350.61 72.74,351.32 72.29,352.04 71.85,352.78 71.47,353.41 71.08,354.07 70.7,354.78 70.3,355.52 69.92,356.3 69.53,357.11 69.14,357.94 68.76,358.8 68.39,359.68 68.02,360.57 67.66,361.5 67.31,362.44 66.98,363.39 66.65,364.35 66.35,365.34 66.06,366.32 65.79,367.31 65.54,368.31 65.31,369.3 65.11,370.29 64.93,371.28 64.78,372.27 64.66,373.26 64.56,374.22 64.5,375.18 64.47,376.13 64.48,377.06 64.52,377.97 64.6,378.85 64.72,379.72 64.88,380.56 65.09,381.38 65.61,381.95 66.18,382.52 66.78,383.09 67.41,383.65 68.07,384.2 68.78,384.75 69.5,385.28 70.26,385.81 71.04,386.33 71.84,386.83 72.68,387.33 73.52,387.8 74.4,388.27 75.3,388.71 76.22,389.14 77.15,389.56 78.1,389.94 79.07,390.31 80.04,390.67 81.04,391 82.04,391.3 83.05,391.59 84.07,391.85 85.1,392.07 86.14,392.28 87.18,392.45 88.22,392.6 89.27,392.71 90.31,392.79 91.36,392.84 92.4,392.86 93.44,392.84 95.75,392.69 97.72,392.39 99.39,391.94 100.76,391.36 101.89,390.65 102.76,389.8 103.41,388.84 103.86,387.76 104.13,386.55 104.24,385.23 104.21,383.8 104.07,382.27 103.82,380.64 103.51,378.92 103.14,377.09 102.73,375.18 102.32,373.19 101.91,371.11 101.53,368.96 101.2,366.74 100.94,364.44 100.78,362.08 100.73,359.67 100.82,357.19 101.06,354.67 101.48,352.09 102.09,349.47 102.93,346.8 103.99,344.1 105.33,341.37 106.94,338.61 108.85,335.82 109.38,335.12 109.91,334.43 110.44,333.76 110.97,333.1 111.5,332.44 112.05,331.8 112.59,331.15 113.14,330.52 113.69,329.89 114.25,329.26 114.81,328.64 115.37,328.02 115.94,327.39 116.5,326.77 117.08,326.14 117.66,325.51 118.24,324.88 118.83,324.24 119.42,323.59 120.01,322.94 120.61,322.28 121.22,321.61 121.83,320.93 122.45,320.23 123.06,319.52 123.69,318.79 124.31,318.06 124.95,317.3 125.59,316.52 126.24,315.73 126.89,314.92 127.55,314.09 128.35,314.1 129.21,314.13 130.12,314.16 131.07,314.2 132.07,314.25 133.1,314.3 134.17,314.35 135.26,314.42 136.38,314.49 137.52,314.55 138.68,314.62 139.85,314.69 141.04,314.76 142.24,314.83 143.43,314.89 144.62,314.95 145.81,315.01 147,315.07 148.17,315.12 149.32,315.16 150.46,315.2 151.57,315.23 152.66,315.25 153.71,315.26 154.73,315.26 155.71,315.25 156.65,315.24 157.54,315.19 158.38,315.15 159.17,315.09 159.9,315.01 160.57,314.93 161.41,314.78 162.26,314.63 163.12,314.47 163.98,314.3 164.84,314.12 165.7,313.93 166.56,313.73 167.42,313.53 168.28,313.33 169.15,313.12 170.02,312.9 170.88,312.69 171.75,312.46 172.61,312.24 173.48,312.02 174.35,311.8 175.21,311.58 176.08,311.37 176.94,311.15 177.8,310.94 178.66,310.74 179.52,310.54 180.37,310.34 181.23,310.15 182.08,309.97 182.93,309.8 183.78,309.63 184.61,309.49 185.45,309.35 186.29,309.22 187.12,309.11 187.94,309.01 188.03,309.29 188.16,309.76 188.31,310.41 188.48,311.21 188.67,312.17 188.88,313.26 189.11,314.48 189.35,315.81 189.61,317.25 189.88,318.77 190.16,320.38 190.45,322.05 190.74,323.76 191.04,325.53 191.33,327.32 191.63,329.13 191.93,330.94 192.23,332.76 192.51,334.55 192.8,336.31 193.06,338.03 193.31,339.69 193.56,341.29 193.79,342.81 194,344.24 194.19,345.57 194.36,346.79 194.5,347.87 194.62,348.82 194.72,349.63 194.78,350.26 194.81,350.72 194.86,352.28 194.84,353.81 194.77,355.33 194.66,356.82 194.51,358.3 194.31,359.76 194.07,361.2 193.8,362.64 193.51,364.06 193.17,365.47 192.81,366.87 192.44,368.26 192.04,369.65 191.63,371.04 191.2,372.43 190.76,373.81 190.31,375.19 189.86,376.58 189.41,377.98 188.96,379.37 188.52,380.78 188.08,382.2 187.65,383.62 187.24,385.06 186.85,386.52 186.48,387.99 186.13,389.48 185.8,390.99 185.51,392.52 185.25,394.07 185.03,395.64 184.84,397.24 186.39,397.96 187.85,398.67 189.22,399.35 190.52,400.02 191.76,400.68 192.94,401.3 194.06,401.89 195.14,402.46 196.19,403 197.2,403.5 198.19,403.96 199.17,404.39 200.13,404.77 201.1,405.1 202.07,405.38 203.06,405.62 204.07,405.8 205.11,405.92 206.19,405.98 207.31,405.98 208.48,405.92 209.72,405.79 211.01,405.59 212.38,405.31 213.83,404.96 215.38,404.53 217.01,404.02 218.76,403.43 220.61,402.74 222.57,401.97 224.67,401.11 226.9,400.14 226.94,399.69 226.96,399.1 226.96,398.41 226.94,397.59 226.89,396.69 226.83,395.69 226.74,394.6 226.65,393.42 226.54,392.18 226.41,390.86 226.26,389.48 226.12,388.05 225.96,386.58 225.8,385.06 225.63,383.52 225.45,381.94 225.28,380.35 225.09,378.74 224.91,377.14 224.73,375.52 224.56,373.93 224.38,372.35 224.22,370.78 224.06,369.26 223.91,367.76 223.77,366.31 223.63,364.91 223.52,363.56 223.42,362.28 223.34,361.08 223.27,359.95 223.22,358.91 223.17,357.47 223.12,356.03 223.08,354.58 223.05,353.13 223.04,351.68 223.02,350.24 223.02,348.78 223.04,347.32 223.05,345.87 223.07,344.41 223.11,342.95 223.15,341.48 223.2,340.02 223.25,338.56 223.32,337.09 223.4,335.63 223.48,334.17 223.57,332.7 223.66,331.23 223.77,329.76 223.88,328.3 224,326.83 224.13,325.37 224.27,323.91 224.41,322.44 224.56,320.98 224.72,319.52 224.89,318.06 225.07,316.6 225.25,315.15 225.44,313.69 225.63,312.24 226.52,312.55 227.43,312.92 228.38,313.33 229.35,313.8 230.33,314.33 231.34,314.9 232.35,315.53 233.37,316.19 234.38,316.89 235.39,317.64 236.4,318.42 237.39,319.23 238.37,320.08 239.32,320.96 240.26,321.86 241.16,322.79 242.02,323.74 242.85,324.71 243.64,325.7 244.37,326.7 245.06,327.72 245.69,328.74 246.25,329.78 246.75,330.82 247.19,331.87 247.54,332.91 247.81,333.96 248.01,335 248.12,336.03 248.13,337.05 248.06,338.06 247.88,339.06 247.47,339.06 246.81,339.06 245.95,339.05 244.9,339.05 243.71,339.06 242.42,339.06 241.06,339.09 239.67,339.13 238.28,339.17 236.94,339.24 235.66,339.32 234.51,339.43 233.5,339.56 232.68,339.72 232.08,339.92 231.74,340.13 231.62,340.35 231.48,340.77 231.31,341.35 231.15,342.12 230.96,343.02 230.78,344.07 230.61,345.23 230.44,346.51 230.3,347.89 230.17,349.34 230.07,350.87 230.02,352.45 230,354.07 230.02,355.73 230.09,357.41 230.23,359.07 230.43,360.73 230.7,362.37 231.05,363.97 231.48,365.52 232,367 232.6,368.4 233.31,369.71 234.13,370.91 235.06,372 236.11,372.94 237.28,373.74 238.57,374.39 240.01,374.86 241.58,375.15 243.3,375.23 245.18,375.09 246.98,374.78 248.76,374.29 250.54,373.63 252.3,372.82 254.02,371.86 255.74,370.77 257.41,369.56 259.06,368.23 260.67,366.79 262.25,365.27 263.78,363.65 265.26,361.96 266.7,360.22 268.08,358.42 269.4,356.57 270.68,354.69 271.88,352.78 273.03,350.87 274.09,348.94 275.1,347.02 276.02,345.13 276.87,343.26 277.63,341.43 278.3,339.64 278.89,337.91 279.38,336.26 279.77,334.67 280.07,333.17 280.26,331.77 280.35,330.48 280.33,329.31 280.19,328.28 279.97,327.45 279.65,326.64 279.22,325.82 278.71,325.02 278.13,324.2 277.47,323.39 276.74,322.59 275.96,321.76 275.13,320.94 274.26,320.1 273.35,319.26 272.43,318.4 271.49,317.52 270.54,316.63 269.58,315.72 268.64,314.79 267.71,313.84 266.8,312.87 265.93,311.87 265.09,310.85 264.31,309.79 263.57,308.7 262.91,307.59 262.31,306.43 261.79,305.24 261.36,304.02 261.02,302.74 260.79,301.43 260.67,300.08 260.66,298.68 260.79,297.23 261.05,295.74 261.2,295.09 261.36,294.46 261.54,293.83 261.73,293.2 261.93,292.56 262.15,291.93 262.37,291.31 262.61,290.68 262.85,290.06 263.11,289.43 263.36,288.8 263.63,288.18 263.89,287.55 264.16,286.92 264.43,286.28 264.7,285.65 264.97,285.02 265.24,284.38 265.51,283.74 265.77,283.09 266.03,282.44 266.28,281.79 266.53,281.13 266.77,280.47 267,279.8 267.22,279.13 267.43,278.45 267.62,277.76 267.8,277.07 267.96,276.37 268.12,275.66 268.26,274.95 266.7,274.7 265.15,274.48 263.6,274.3 262.03,274.16 260.47,274.04 258.91,273.93 257.33,273.85 255.76,273.78 254.19,273.72 252.63,273.66 251.06,273.61 249.5,273.56 247.94,273.49 246.39,273.43 244.85,273.34 243.31,273.24 241.78,273.13 240.26,272.98 238.76,272.81 237.26,272.6 235.78,272.37 234.31,272.08 232.85,271.76 231.41,271.38 230,270.96 228.59,270.48 227.2,269.94 225.84,269.33 224.49,268.67 223.17,267.93 221.88,267.11 220.59,266.22 219.69,265.52 218.82,264.77 217.97,263.98 217.16,263.16 216.39,262.31 215.65,261.42 214.93,260.5 214.24,259.55 213.57,258.57 212.93,257.56 212.3,256.54 211.7,255.48 211.11,254.41 210.55,253.32 209.99,252.21 209.45,251.09 208.93,249.95 208.41,248.8 207.89,247.64 207.39,246.47 206.89,245.29 206.39,244.11 205.89,242.93 205.4,241.73 204.9,240.54 204.4,239.36 203.89,238.18 203.38,236.99 202.86,235.82 202.33,234.66 201.78,233.5 201.22,232.36 200.76,231.46 200.23,230.46 199.66,229.41 199.06,228.3 198.44,227.14 197.83,225.93 197.22,224.69 196.65,223.43 196.11,222.15 195.64,220.86 195.24,219.57 194.93,218.29 194.71,217.02 194.61,215.78 194.64,214.57 194.81,213.4 195.44,210.73 196.07,208.24 196.71,205.93 197.35,203.78 197.98,201.81 198.59,199.98 199.19,198.31 199.74,196.77 200.26,195.37 200.74,194.09 201.15,192.93 201.52,191.87 201.81,190.92 202.02,190.06 202.15,189.28 202.19,188.59 202.13,187.96 201.97,187.39 201.7,186.88 201.3,186.41 200.78,185.98 200.12,185.59 199.31,185.21 198.37,184.85 197.26,184.5 195.98,184.15 194.54,183.79 192.91,183.42 191.1,183.02 189.09,182.59 186.88,182.11 184.47,181.59 182.07,181.1 179.71,180.64 177.39,180.22 175.11,179.85 172.87,179.53 170.65,179.25 168.47,179.02 166.32,178.83 164.2,178.7 162.11,178.62 160.04,178.59 158,178.61 155.97,178.67 153.97,178.81 151.99,178.99 150.02,179.23 148.07,179.53 146.14,179.89 144.22,180.3 142.31,180.78 140.41,181.32 138.51,181.92 136.62,182.59 134.74,183.32 132.86,184.11 130.98,184.98 129.1,185.91 127.22,186.92 125.33,187.98 123.44,189.13 121.55,190.34 119.65,191.63 118.8,192.26 117.94,192.93 117.09,193.65 116.24,194.43 115.39,195.25 114.54,196.12 113.7,197.03 112.85,197.98 112.02,198.97 111.19,199.98 110.37,201.04 109.56,202.11 108.76,203.22 107.97,204.34 107.19,205.47 106.42,206.63 105.67,207.8 104.93,208.98 104.2,210.17 103.5,211.35 102.81,212.55 102.15,213.74 101.49,214.92 100.87,216.1 100.26,217.27 99.68,218.42 99.12,219.56 98.59,220.67 98.09,221.76 97.6,222.84 97.15,223.88 96.73,224.9 96.12,226.44 95.55,227.95 95,229.45 94.5,230.92 94.02,232.37 93.55,233.79 93.12,235.19 92.69,236.56 92.26,237.91 91.86,239.24 91.45,240.54 91.03,241.81 90.62,243.06 90.19,244.28 89.75,245.48 89.3,246.64 88.81,247.78 88.31,248.89 87.77,249.97 87.2,251.02 86.6,252.05 85.95,253.04 85.26,254 84.51,254.93 83.72,255.83 82.86,256.7 81.94,257.54 80.96,258.34 79.91,259.11 78.79,259.85 77.59,260.55 76.3,261.22 74.2,262.25 72.24,263.16 70.42,263.97 68.74,264.68 67.18,265.29 65.75,265.8 64.43,266.24 63.21,266.59 62.09,266.87 61.07,267.07 60.14,267.2 59.29,267.28 58.5,267.29 57.78,267.24 57.13,267.14 56.53,267 55.97,266.81 55.45,266.59 54.97,266.33 54.51,266.05 54.07,265.74 53.65,265.42 53.22,265.07 52.8,264.72 52.37,264.36 51.93,264 51.46,263.65 50.97,263.29 50.45,262.95 49.87,262.63 49.26,262.33 48.59,262.06 47.82,261.79 47.04,261.57 46.25,261.4 45.46,261.25 44.66,261.15 43.85,261.06 43.04,261.01 42.23,260.97 41.42,260.96 40.61,260.96 39.8,260.97 39,260.99 38.21,261.01 37.42,261.03 36.64,261.05 "/>
     <polygon id="Vector_7" class="fil1" points="296.03,121.86 295.05,121.44 294.08,121 293.14,120.54 292.22,120.07 291.31,119.6 290.42,119.11 289.54,118.61 288.67,118.11 287.81,117.6 286.96,117.09 286.1,116.59 285.25,116.07 284.4,115.57 283.55,115.06 282.7,114.56 281.83,114.07 280.96,113.59 280.07,113.13 279.18,112.67 278.26,112.22 277.33,111.8 276.37,111.39 275.4,111.01 274.41,110.64 273.38,110.3 272.32,109.98 271.24,109.69 270.13,109.43 268.98,109.19 267.79,108.99 266.57,108.83 265.3,108.7 265.93,109.06 266.66,109.38 267.46,109.7 268.36,110.02 269.33,110.33 270.36,110.65 271.45,110.99 272.59,111.36 273.78,111.75 275.01,112.19 276.27,112.66 277.55,113.19 278.84,113.79 280.15,114.45 281.46,115.19 282.76,116 282.82,116.53 282.94,116.63 283.07,116.47 283.16,116.17 283.17,115.89 283.06,115.77 282.8,115.96 282.32,116.59 281.91,117.09 281.61,117.24 281.43,117.16 281.33,116.96 281.35,116.76 281.45,116.68 281.65,116.85 281.93,117.37 282.51,117.47 283.12,117.6 283.75,117.76 284.4,117.95 285.07,118.16 285.75,118.39 286.44,118.65 287.15,118.93 287.85,119.22 288.57,119.54 289.3,119.86 290.02,120.2 290.74,120.56 291.45,120.93 292.17,121.3 292.87,121.69 293.57,122.07 294.26,122.48 294.94,122.88 295.59,123.28 296.24,123.68 296.85,124.09 297.45,124.49 298.03,124.89 298.57,125.28 299.1,125.67 299.59,126.05 300.04,126.41 300.47,126.78 300.85,127.12 301.2,127.45 301.51,127.76 314,134.59 314,137.27 314.17,139.7 314.5,141.86 315,143.79 315.64,145.5 316.44,147 317.37,148.31 318.42,149.44 319.59,150.39 320.88,151.2 322.27,151.88 323.76,152.42 325.33,152.85 326.99,153.18 328.72,153.42 330.52,153.6 332.38,153.72 334.28,153.8 336.23,153.84 338.21,153.87 340.22,153.9 342.25,153.94 344.29,154.01 346.34,154.11 348.37,154.26 350.4,154.49 352.41,154.8 354.39,155.19 356.33,155.7 358.24,156.33 360.08,157.09 361.88,158.01 362.51,158.38 363.14,158.8 363.76,159.24 364.37,159.7 364.96,160.21 365.53,160.74 366.09,161.29 366.64,161.87 367.16,162.48 367.66,163.12 368.14,163.78 368.6,164.46 369.04,165.17 369.45,165.89 369.83,166.65 370.19,167.42 370.51,168.21 370.81,169.02 371.08,169.85 371.31,170.7 371.51,171.57 371.68,172.45 371.81,173.36 371.9,174.27 371.95,175.2 371.97,176.14 371.94,177.1 371.86,178.07 371.75,179.06 371.59,180.05 371.39,181.05 371.14,182.06 370.62,183.73 369.97,185.34 369.23,186.89 368.37,188.38 367.43,189.8 366.41,191.15 365.31,192.42 364.14,193.63 362.91,194.74 361.64,195.78 360.33,196.72 358.98,197.57 357.61,198.34 356.22,199 354.82,199.56 353.43,200.01 352.3,200.32 351.2,200.57 350.14,200.77 349.11,200.92 348.09,201.02 347.13,201.08 346.18,201.09 345.26,201.06 344.37,200.98 343.49,200.87 342.66,200.72 341.83,200.53 341.03,200.31 340.26,200.05 339.49,199.76 338.74,199.44 338.03,199.1 337.31,198.72 336.62,198.32 335.94,197.89 335.27,197.45 334.61,196.98 333.97,196.5 333.34,195.99 332.71,195.47 332.09,194.94 331.48,194.39 330.87,193.84 330.27,193.28 329.67,192.7 329.07,192.12 328.48,191.54 328.01,191.08 327.53,190.61 327.03,190.14 326.51,189.64 325.98,189.13 325.43,188.61 324.86,188.09 324.29,187.56 323.7,187.02 323.1,186.48 322.49,185.93 321.88,185.37 321.25,184.82 320.62,184.27 319.98,183.71 319.34,183.16 318.69,182.61 318.04,182.07 317.39,181.53 316.74,180.99 316.09,180.47 315.44,179.95 314.78,179.44 314.14,178.94 313.5,178.46 312.86,177.99 312.23,177.54 311.61,177.1 310.99,176.67 310.39,176.27 309.79,175.89 309.21,175.53 307.41,174.47 305.62,173.48 303.85,172.58 302.09,171.75 300.35,170.99 298.61,170.31 296.89,169.69 295.18,169.15 293.48,168.68 291.77,168.27 290.08,167.93 288.4,167.67 286.72,167.46 285.04,167.31 283.37,167.23 281.7,167.2 280.03,167.24 278.36,167.33 276.69,167.48 275.02,167.69 273.34,167.95 271.66,168.26 269.98,168.63 268.3,169.06 266.59,169.52 264.9,170.04 263.19,170.6 261.46,171.21 259.74,171.86 258,172.56 256.24,173.3 254.48,174.08 252.89,174.81 251.43,175.52 250.09,176.2 248.86,176.85 247.74,177.47 246.72,178.07 245.78,178.63 244.93,179.17 244.15,179.68 243.44,180.16 242.8,180.61 242.2,181.03 241.67,181.42 241.17,181.78 240.7,182.1 240.26,182.4 239.84,182.66 239.44,182.9 239.04,183.1 238.63,183.26 238.22,183.39 237.81,183.49 237.36,183.56 236.88,183.59 236.37,183.59 235.81,183.56 235.21,183.47 234.55,183.37 233.83,183.22 233.03,183.04 232.16,182.82 231.2,182.56 228.63,181.95 226.19,181.52 223.85,181.28 221.64,181.21 219.54,181.3 217.55,181.56 215.67,181.97 213.9,182.52 212.23,183.21 210.66,184.02 209.19,184.95 207.83,186 206.56,187.15 205.38,188.39 204.3,189.72 203.31,191.13 202.41,192.62 201.6,194.17 200.86,195.77 200.22,197.43 199.65,199.11 199.17,200.84 198.76,202.59 198.43,204.35 198.17,206.12 197.98,207.9 197.85,209.67 197.8,211.43 197.82,213.16 197.89,214.85 198.03,216.51 198.23,218.12 198.36,218.96 198.51,219.79 198.69,220.6 198.88,221.41 199.09,222.21 199.32,223 199.56,223.79 199.83,224.56 200.09,225.34 200.39,226.1 200.69,226.86 201,227.61 201.31,228.36 201.64,229.1 201.98,229.85 202.32,230.58 202.67,231.31 203.02,232.04 203.38,232.77 203.74,233.5 204.1,234.22 204.46,234.94 204.82,235.67 205.18,236.39 205.54,237.12 205.89,237.84 206.24,238.57 206.57,239.3 206.91,240.02 207.23,240.75 207.54,241.49 207.85,242.23 208.58,244.04 209.28,245.73 209.95,247.31 210.61,248.81 211.27,250.21 211.94,251.55 212.64,252.81 213.36,254.01 214.14,255.17 214.96,256.28 215.86,257.37 216.84,258.43 217.91,259.48 219.08,260.53 220.37,261.59 221.78,262.66 222.46,263.15 223.15,263.63 223.85,264.1 224.56,264.57 225.27,265.02 226,265.46 226.73,265.9 227.46,266.31 228.21,266.73 228.97,267.13 229.73,267.52 230.51,267.9 231.29,268.26 232.08,268.62 232.87,268.97 233.69,269.3 234.5,269.62 235.32,269.93 236.15,270.22 237,270.5 237.85,270.78 238.71,271.04 239.58,271.28 240.45,271.51 241.34,271.73 242.24,271.93 243.15,272.12 244.06,272.3 244.98,272.46 245.91,272.61 246.85,272.75 247.8,272.86 249.66,273.04 251.49,273.14 253.31,273.15 255.11,273.09 256.89,272.95 258.65,272.73 260.39,272.45 262.11,272.09 263.8,271.66 265.46,271.17 267.09,270.61 268.69,270 270.26,269.31 271.79,268.57 273.29,267.78 274.74,266.93 276.15,266.03 277.52,265.08 278.85,264.07 280.14,263.03 281.37,261.94 282.56,260.8 283.69,259.63 284.77,258.42 285.79,257.17 286.76,255.89 287.67,254.57 288.51,253.22 289.3,251.85 290.03,250.44 290.69,249.02 291.28,247.57 290.18,246.86 289.16,246.25 288.21,245.72 287.32,245.24 286.5,244.81 285.72,244.39 285,243.98 284.32,243.55 283.68,243.07 283.08,242.55 282.5,241.95 281.95,241.25 281.43,240.44 280.91,239.5 280.4,238.41 279.9,237.15 280.56,237.45 281.21,237.77 281.85,238.09 282.46,238.43 283.08,238.76 283.69,239.1 284.28,239.45 284.87,239.8 285.46,240.15 286.04,240.51 286.62,240.87 287.2,241.23 287.77,241.59 288.35,241.95 288.93,242.31 289.52,242.66 290.11,243.02 290.7,243.37 291.31,243.71 291.93,244.06 292.54,244.4 293.18,244.73 293.83,245.06 294.49,245.37 295.17,245.69 295.86,245.99 296.57,246.28 297.31,246.56 298.06,246.83 298.84,247.1 299.63,247.35 300.46,247.58 301.09,247.74 301.75,247.89 302.46,248.02 303.2,248.13 303.98,248.24 304.78,248.33 305.62,248.41 306.47,248.47 307.35,248.52 308.24,248.55 309.14,248.57 310.06,248.58 310.98,248.57 311.91,248.55 312.83,248.51 313.75,248.46 314.67,248.39 315.59,248.31 316.49,248.22 317.37,248.11 318.24,247.98 319.09,247.84 319.91,247.69 320.72,247.51 321.48,247.33 322.22,247.13 322.92,246.92 323.57,246.68 324.19,246.44 324.76,246.18 325.28,245.9 325.75,245.61 325.37,245.2 324.98,244.81 324.6,244.43 324.22,244.07 323.86,243.7 323.5,243.33 323.17,242.96 322.86,242.56 322.57,242.15 322.32,241.7 322.09,241.22 321.91,240.69 321.77,240.12 321.67,239.49 321.62,238.8 321.62,238.04 321.67,237.29 321.78,236.56 321.92,235.84 322.11,235.16 322.35,234.5 322.62,233.87 322.93,233.28 323.27,232.73 323.64,232.22 324.04,231.77 324.47,231.35 324.92,231 325.39,230.69 325.88,230.46 326.39,230.29 326.91,230.17 327.74,230.15 328.65,230.28 329.65,230.54 330.7,230.91 331.8,231.39 332.93,231.94 334.09,232.55 335.27,233.2 336.44,233.88 337.6,234.56 338.73,235.23 339.83,235.86 340.87,236.46 341.85,236.98 342.75,237.41 343.56,237.75 344.72,238.14 345.94,238.49 347.18,238.79 348.46,239.06 349.78,239.28 351.12,239.46 352.48,239.6 353.87,239.7 355.27,239.77 356.69,239.8 358.12,239.8 359.55,239.75 360.98,239.68 362.42,239.57 363.85,239.44 365.28,239.26 366.69,239.07 368.09,238.84 369.47,238.58 370.83,238.3 372.17,238 373.48,237.66 374.75,237.3 375.99,236.92 377.19,236.52 378.35,236.09 379.46,235.64 380.53,235.18 381.54,234.69 382.5,234.19 383.39,233.68 384.22,233.14 382.95,233.2 381.72,233.3 380.56,233.43 379.41,233.57 378.28,233.72 377.17,233.89 376.06,234.04 374.94,234.2 373.8,234.34 372.63,234.45 371.43,234.54 370.17,234.6 368.87,234.62 367.5,234.59 366.05,234.51 364.51,234.37 365.29,232.89 365.97,231.59 366.58,230.45 367.14,229.46 367.66,228.6 368.16,227.83 368.66,227.16 369.17,226.54 369.71,225.97 370.3,225.42 370.95,224.87 371.69,224.31 372.53,223.71 373.48,223.06 374.57,222.33 375.81,221.5 376.64,220.94 377.48,220.36 378.34,219.76 379.2,219.14 380.09,218.49 380.96,217.83 381.84,217.16 382.7,216.46 383.56,215.76 384.41,215.04 385.24,214.32 386.04,213.59 386.82,212.84 387.57,212.1 388.28,211.35 388.95,210.6 390.71,208.42 392.25,206.2 393.57,203.94 394.69,201.65 395.62,199.33 396.36,197 396.91,194.65 397.29,192.28 397.51,189.92 397.56,187.56 397.47,185.2 397.24,182.86 396.87,180.54 396.38,178.24 395.76,175.98 395.04,173.75 394.22,171.56 393.3,169.42 392.3,167.33 391.21,165.3 390.04,163.35 388.83,161.45 387.56,159.63 386.24,157.9 384.87,156.25 383.48,154.69 382.07,153.23 380.63,151.88 379.19,150.65 377.75,149.52 376.32,148.5 374.91,147.63 373.53,146.86 372.17,146.17 370.83,145.53 369.5,144.96 368.18,144.46 366.88,144.01 365.58,143.61 364.3,143.27 363.02,142.96 361.74,142.7 360.48,142.49 359.21,142.3 357.95,142.16 356.69,142.04 355.42,141.94 354.15,141.87 352.88,141.83 351.61,141.79 350.33,141.78 349.03,141.76 347.73,141.76 346.41,141.76 345.09,141.76 343.75,141.75 342.39,141.74 341.02,141.72 339.63,141.68 338.22,141.63 336.8,141.56 335.34,141.45 333.86,141.33 332.36,141.18 331.66,140.8 331.11,140.35 330.67,139.82 330.32,139.24 330.04,138.59 329.78,137.9 329.52,137.18 329.22,136.42 328.87,135.65 328.41,134.86 327.84,134.06 327.1,133.28 326.19,132.5 325.04,131.75 323.66,131.02 321.99,130.34 321.47,130.15 321.08,130 320.78,129.9 320.51,129.83 320.24,129.79 319.93,129.76 319.55,129.76 319.02,129.76 318.53,129.77 318.24,129.78 318.08,129.79 318,129.81 317.92,129.84 317.8,129.88 317.57,129.93 317.15,130 316.87,130.06 316.81,130.12 316.86,130.18 316.93,130.23 316.91,130.27 316.7,130.3 316.2,130.31 315.3,130.3 315.4,129.22 315.59,128.24 315.86,127.35 316.18,126.54 316.54,125.77 316.9,125.02 317.26,124.28 317.59,123.52 317.87,122.71 318.08,121.85 318.19,120.91 318.2,119.87 318.06,118.7 317.77,117.39 317.3,115.91 316.64,114.25 316.31,113.54 315.95,112.82 315.55,112.1 315.1,111.39 314.63,110.7 314.11,110.02 313.55,109.36 312.94,108.73 312.29,108.14 311.59,107.59 310.85,107.07 310.06,106.62 309.22,106.22 308.33,105.87 307.39,105.6 306.39,105.39 306.5,106.76 306.58,108.08 306.65,109.35 306.71,110.56 306.75,111.73 306.78,112.85 306.8,113.93 306.83,114.96 306.85,115.94 306.88,116.88 306.92,117.78 306.97,118.63 307.03,119.44 307.11,120.22 307.2,120.95 307.33,121.65 307.48,122.31 307.66,122.94 307.87,123.53 308.12,124.08 308.41,124.61 308.74,125.09 309.11,125.55 309.54,125.98 310.02,126.38 310.55,126.74 311.15,127.09 311.8,127.4 312.52,127.69 313.31,127.96 314.18,128.2 315.12,128.42 315.1,132.57 314.37,132.37 313.61,132.11 312.82,131.8 312.01,131.44 311.18,131.06 310.33,130.64 309.49,130.2 308.65,129.74 307.8,129.28 306.97,128.8 306.16,128.33 305.37,127.87 304.62,127.43 303.89,127 303.2,126.59 302.57,126.22 301.42,125.53 300.4,124.83 299.5,124.13 298.71,123.43 298.04,122.72 297.46,122.02 296.98,121.3 296.58,120.58 296.26,119.85 296.02,119.13 295.84,118.38 295.72,117.63 295.65,116.88 295.61,116.1 295.63,115.33 295.66,114.53 295.72,113.73 295.8,112.91 295.88,112.08 295.96,111.23 296.04,110.37 296.09,109.49 296.13,108.6 296.14,107.69 296.11,106.75 296.05,105.8 295.93,104.83 295.76,103.83 295.52,102.82 295.2,101.78 294.82,100.72 294.35,99.64 293.96,98.87 293.55,98.13 293.11,97.41 292.63,96.72 292.11,96.05 291.55,95.41 290.94,94.81 290.29,94.24 289.59,93.7 288.84,93.21 288.04,92.76 287.17,92.35 286.25,92 285.27,91.69 284.22,91.43 283.11,91.23 283.36,94.11 283.67,96.74 284.03,99.12 284.42,101.26 284.86,103.2 285.32,104.93 285.82,106.47 286.35,107.84 286.89,109.04 287.44,110.09 288.02,111.02 288.6,111.8 289.19,112.48 289.78,113.07 290.37,113.57 290.95,114 291.52,114.36 292.07,114.69 292.61,114.98 293.12,115.26 293.61,115.52 294.06,115.8 294.48,116.09 294.86,116.42 295.2,116.8 295.5,117.24 295.73,117.75 295.92,118.34 296.04,119.04 296.11,119.85 296.11,120.79 "/>
     <polygon id="Vector_8" class="fil1" points="140.78,316.56 140.76,317.35 140.74,318.13 140.73,318.92 140.73,319.7 140.74,320.47 140.76,321.24 140.78,322.01 140.79,322.77 140.81,323.53 140.83,324.3 140.85,325.05 140.87,325.8 140.89,326.56 140.9,327.31 140.9,328.07 140.9,328.82 140.89,329.57 140.87,330.33 140.84,331.09 140.8,331.85 140.76,332.61 140.69,333.37 140.61,334.14 140.52,334.91 140.4,335.69 140.27,336.46 140.13,337.25 139.96,338.03 139.76,338.83 139.55,339.63 139.31,340.43 139.05,341.25 138.63,342.35 138.13,343.45 137.55,344.55 136.91,345.65 136.21,346.75 135.46,347.85 134.69,348.95 133.89,350.04 133.08,351.13 132.26,352.24 131.45,353.32 130.66,354.41 129.89,355.5 129.17,356.59 128.5,357.67 127.87,358.76 127.33,359.83 126.86,360.9 126.48,361.96 126.2,363.03 126.03,364.09 125.98,365.15 126.07,366.2 126.3,367.24 126.68,368.28 127.22,369.31 127.93,370.34 128.83,371.37 129.92,372.37 131.21,373.39 132.72,374.39 134.46,375.39 134.95,375.63 135.5,375.89 136.09,376.14 136.72,376.39 137.39,376.63 138.09,376.87 138.82,377.09 139.58,377.32 140.36,377.53 141.16,377.73 141.98,377.93 142.82,378.11 143.67,378.28 144.53,378.43 145.4,378.58 146.27,378.7 147.13,378.81 147.99,378.9 148.85,378.98 149.7,379.04 150.54,379.07 151.35,379.09 152.15,379.07 152.92,379.05 153.68,378.99 154.4,378.91 155.08,378.81 155.74,378.67 156.35,378.52 156.93,378.32 157.46,378.1 157.94,377.85 158.22,377.33 158.45,376.74 158.64,376.08 158.79,375.36 158.91,374.57 159,373.74 159.06,372.85 159.09,371.91 159.12,370.92 159.12,369.9 159.11,368.83 159.09,367.72 159.07,366.57 159.06,365.41 159.03,364.22 159.01,362.99 159,361.74 159,360.48 159.03,359.21 159.07,357.92 159.13,356.62 159.22,355.33 159.34,354.02 159.49,352.72 159.69,351.43 159.92,350.14 160.19,348.87 160.52,347.6 160.89,346.35 161.32,345.13 161.81,343.92 162.36,342.75 162.85,341.81 163.33,340.91 163.83,340.03 164.33,339.17 164.83,338.33 165.33,337.52 165.84,336.72 166.35,335.93 166.86,335.15 167.37,334.39 167.88,333.63 168.39,332.86 168.89,332.11 169.4,331.35 169.9,330.59 170.39,329.82 170.87,329.05 171.36,328.25 171.84,327.46 172.31,326.63 172.76,325.8 173.21,324.93 173.66,324.05 174.09,323.14 174.51,322.2 174.91,321.22 175.3,320.22 175.69,319.17 176.05,318.09 176.4,316.96 176.74,315.79 177.05,314.58 175.93,314.57 174.82,314.59 173.72,314.65 172.62,314.72 171.53,314.81 170.45,314.92 169.37,315.05 168.31,315.18 167.24,315.33 166.18,315.5 165.13,315.67 164.09,315.83 163.05,316 162.01,316.19 160.98,316.35 159.95,316.52 158.71,316.7 157.48,316.85 156.27,316.97 155.08,317.07 153.91,317.14 152.74,317.18 151.57,317.2 150.41,317.19 149.25,317.17 148.07,317.13 146.91,317.07 145.72,316.99 144.51,316.9 143.3,316.79 142.05,316.67 "/>
     <polygon id="Vector_9" class="fil1" points="387.64,242.08 385.92,242.17 384.23,242.27 382.57,242.4 380.94,242.54 379.33,242.68 377.75,242.83 376.18,242.98 374.63,243.12 373.1,243.26 371.57,243.37 370.06,243.48 368.55,243.56 367.04,243.61 365.54,243.64 364.02,243.64 362.51,243.59 360.98,243.5 359.45,243.37 357.9,243.18 356.34,242.94 354.76,242.65 353.16,242.29 351.53,241.85 349.87,241.35 348.19,240.78 346.47,240.12 344.72,239.38 342.93,238.56 341.1,237.63 339.22,236.62 337.31,235.5 335.33,234.28 334.36,233.69 333.35,233.17 332.34,232.72 331.32,232.35 330.31,232.08 329.33,231.92 328.39,231.88 327.48,231.97 326.65,232.21 325.89,232.6 325.21,233.17 324.62,233.91 324.15,234.85 323.8,235.99 323.59,237.35 323.52,238.94 323.59,239.87 323.78,240.76 324.09,241.59 324.51,242.38 325.03,243.13 325.65,243.82 326.36,244.47 327.16,245.07 328.04,245.64 328.99,246.16 330,246.65 331.08,247.1 332.21,247.5 333.39,247.88 334.61,248.22 335.87,248.53 337.15,248.81 338.46,249.06 339.79,249.27 341.13,249.46 342.48,249.63 343.82,249.77 345.15,249.89 346.47,249.98 347.77,250.05 349.04,250.11 350.29,250.14 351.49,250.17 352.65,250.17 353.76,250.16 354.8,250.14 355.79,250.11 356.78,250.06 357.78,250 358.81,249.93 359.85,249.85 360.92,249.76 362,249.65 363.09,249.52 364.19,249.39 365.31,249.24 366.43,249.07 367.54,248.9 368.67,248.72 369.79,248.52 370.9,248.3 372.01,248.07 373.11,247.84 374.2,247.58 375.28,247.31 376.34,247.03 377.38,246.74 378.41,246.43 379.4,246.1 380.38,245.77 381.32,245.41 382.24,245.05 383.13,244.67 383.98,244.27 384.8,243.87 385.57,243.44 386.31,243 386.99,242.55 "/>
     <polygon id="Vector_10" class="fil1" points="269.64,135.33 270.97,135.52 272.27,135.7 273.54,135.87 274.78,136.03 275.99,136.17 277.18,136.3 278.33,136.42 279.46,136.52 280.56,136.6 281.64,136.66 282.69,136.7 283.72,136.7 284.72,136.69 285.7,136.64 286.67,136.57 287.6,136.46 288.52,136.32 289.42,136.15 290.3,135.93 291.16,135.67 292,135.38 292.83,135.04 293.63,134.67 294.43,134.24 295.21,133.76 295.97,133.23 296.72,132.65 297.47,132.02 298.2,131.33 298.91,130.58 299.61,129.78 300.31,128.91 299.09,128.42 297.95,127.94 296.86,127.47 295.81,127.03 294.78,126.63 293.78,126.26 292.78,125.94 291.77,125.68 290.76,125.48 289.71,125.35 288.62,125.3 287.49,125.33 286.29,125.46 285.02,125.68 283.67,126.01 282.23,126.46 281.26,126.81 280.29,127.19 279.33,127.6 278.38,128.05 277.45,128.52 276.55,129.02 275.67,129.55 274.81,130.1 274,130.68 273.22,131.29 272.49,131.91 271.81,132.56 271.18,133.22 270.6,133.91 270.09,134.61 "/>
     <polygon id="Vector_11" class="fil1" points="249.5,123.06 250,123.71 250.54,124.3 251.11,124.83 251.71,125.31 252.35,125.74 253.01,126.11 253.69,126.43 254.4,126.71 255.13,126.94 255.87,127.11 256.64,127.25 257.42,127.34 258.21,127.39 259.02,127.4 259.84,127.37 260.65,127.3 261.48,127.2 262.31,127.06 263.15,126.89 263.98,126.69 264.81,126.46 265.63,126.2 266.45,125.91 267.26,125.6 268.06,125.26 268.83,124.91 269.61,124.52 270.36,124.12 271.09,123.71 271.81,123.28 272.5,122.83 273.16,122.37 279.09,117.26 279.14,117.22 279.19,117.17 279.25,117.11 279.31,117.06 279.37,117 279.43,116.94 279.5,116.88 279.56,116.82 278.19,116.47 276.97,116.15 275.85,115.87 274.83,115.62 273.88,115.42 273,115.26 272.14,115.15 271.3,115.09 270.46,115.08 269.61,115.14 268.71,115.24 267.75,115.42 266.72,115.66 265.58,115.97 264.34,116.36 262.95,116.81 262.33,117.04 261.6,117.31 260.76,117.62 259.84,117.99 258.87,118.39 257.85,118.81 256.81,119.25 255.76,119.71 254.73,120.17 253.73,120.63 252.79,121.09 251.91,121.54 251.13,121.96 250.45,122.37 249.91,122.72 "/>
     <polygon id="Vector_12" class="fil1" points="273.43,107.41 273.29,106.42 273.13,105.4 272.95,104.37 272.77,103.34 272.57,102.3 272.35,101.26 272.12,100.21 271.85,99.17 271.58,98.14 271.28,97.12 270.96,96.12 270.61,95.13 270.24,94.17 269.83,93.23 269.4,92.31 268.94,91.43 268.45,90.59 267.92,89.79 267.35,89.02 266.75,88.31 266.11,87.63 265.44,87.02 264.72,86.46 263.96,85.95 263.15,85.52 262.3,85.14 261.41,84.84 260.47,84.61 259.48,84.45 258.43,84.37 257.34,84.38 256.19,84.48 256.34,85.26 256.54,86.11 256.77,87 257.04,87.94 257.33,88.91 257.65,89.9 258,90.9 258.36,91.9 258.73,92.89 259.11,93.86 259.51,94.8 259.9,95.69 260.29,96.54 260.68,97.32 261.05,98.03 261.41,98.65 261.98,99.57 262.55,100.41 263.11,101.17 263.67,101.87 264.25,102.51 264.83,103.1 265.45,103.64 266.1,104.13 266.8,104.6 267.54,105.04 268.33,105.44 269.19,105.84 270.12,106.23 271.14,106.62 272.24,107.02 "/>
     <polygon id="Vector_13" class="fil1" points="233.48,110.26 233.87,110.83 234.31,111.37 234.79,111.85 235.31,112.3 235.87,112.71 236.47,113.08 237.1,113.4 237.77,113.69 238.46,113.93 239.19,114.13 239.95,114.31 240.72,114.43 241.52,114.52 242.35,114.56 243.2,114.58 244.07,114.55 244.94,114.49 245.84,114.39 246.75,114.24 247.67,114.07 248.6,113.85 249.53,113.6 250.47,113.31 251.42,112.99 252.37,112.63 253.31,112.24 254.25,111.82 255.19,111.35 256.12,110.85 257.05,110.33 257.96,109.76 258.87,109.17 258.93,109.13 259,109.08 259.06,109.04 259.12,108.99 259.18,108.94 259.24,108.9 259.3,108.86 259.35,108.82 260.36,108.07 259.39,107.71 258.5,107.33 257.66,106.93 256.86,106.53 256.08,106.13 255.32,105.74 254.55,105.37 253.77,105.03 252.96,104.73 252.11,104.47 251.21,104.27 250.23,104.13 249.17,104.08 248.02,104.09 246.75,104.2 245.37,104.42 244.58,104.58 243.77,104.78 242.94,105.03 242.1,105.31 241.26,105.62 240.41,105.97 239.57,106.33 238.75,106.73 237.95,107.14 237.17,107.57 236.44,108.01 235.74,108.45 235.09,108.91 234.49,109.36 233.94,109.81 "/>
     <polygon id="Vector_14" class="fil3" points="292.62,206.57 292.35,207.83 292.3,208.96 292.44,209.98 292.77,210.87 293.24,211.63 293.84,212.28 294.54,212.81 295.31,213.22 296.14,213.52 297,213.72 297.85,213.79 298.69,213.76 299.48,213.63 300.2,213.4 300.82,213.06 301.32,212.62 301.86,211.87 302.15,211.11 302.22,210.37 302.1,209.63 301.79,208.93 301.32,208.27 300.72,207.66 300.01,207.11 299.2,206.65 298.31,206.27 297.37,205.99 296.4,205.83 295.42,205.8 294.45,205.9 293.51,206.15 "/>
    </g>
   </g>
  </g>
 </g>
</svg>
