<?xml version="1.0" encoding="UTF-8"?>
<!DOCTYPE svg PUBLIC "-//W3C//DTD SVG 1.1//EN" "http://www.w3.org/Graphics/SVG/1.1/DTD/svg11.dtd">
<!-- Creator: CorelDRAW 2019 (64-Bit) -->
<svg xmlns="http://www.w3.org/2000/svg" xml:space="preserve" width="0.861634in" height="0.889583in" version="1.1" style="shape-rendering:geometricPrecision; text-rendering:geometricPrecision; image-rendering:optimizeQuality; fill-rule:evenodd; clip-rule:evenodd"
viewBox="0 0 861.63 889.58"
 xmlns:xlink="http://www.w3.org/1999/xlink"
 xmlns:xodm="http://www.corel.com/coreldraw/odm/2003">
 <defs>
  <style type="text/css">
   <![CDATA[
    .fil1 {fill:#E4A788}
    .fil0 {fill:#FFECE2;fill-rule:nonzero;fill-opacity:0.701961}
   ]]>
  </style>
 </defs>
 <g id="Layer_x0020_1">
  <metadata id="CorelCorpID_0Corel-Layer"/>
  <g id="_2426447392832">
   <path id="Ellipse_x0020_11" class="fil0" d="M593.75 296.87c0,-163.96 -132.91,-296.87 -296.87,-296.87 -163.96,0 -296.87,132.91 -296.87,296.87 0,163.96 132.91,296.87 296.87,296.87 163.96,0 296.87,-132.91 296.87,-296.87z"/>
   <path id="Union_6" class="fil1" d="M333.33 250l281.25 0c23.01,0 41.67,18.65 41.67,41.67l0 287.71c-59.06,17.29 -103.89,67.39 -112.92,128.96l-210 0c-23.01,0 -41.67,-18.65 -41.67,-41.67l0 -375c0,-23.02 18.66,-41.67 41.67,-41.67zm208.35 479.16l-208.35 0c-34.52,0 -62.5,-28.02 -62.5,-62.5l0 -375c0,-34.48 27.98,-62.5 62.5,-62.5l281.25 0c34.52,0 62.5,28.02 62.5,62.5l0 283.12c8.01,-1.25 16.21,-1.88 24.56,-1.88 88.35,0 159.99,70.94 159.99,158.33 0,87.5 -71.63,158.33 -159.99,158.33 -88.35,0 -159.98,-70.83 -159.98,-158.33 0,-0.73 0,-1.35 0.01,-2.08zm-187.51 -364.58c0,-5.73 4.67,-10.42 10.42,-10.42l229.16 0c5.75,0 10.42,4.69 10.42,10.42 0,5.73 -4.67,10.42 -10.42,10.42l-229.16 0c-5.75,0 -10.42,-4.69 -10.42,-10.42zm0 114.58c0,-5.73 4.67,-10.42 10.42,-10.42l229.16 0c5.75,0 10.42,4.69 10.42,10.42 0,5.73 -4.67,10.42 -10.42,10.42l-229.16 0c-5.75,0 -10.42,-4.69 -10.42,-10.42zm10.42 104.16c-5.75,0 -10.42,4.69 -10.42,10.42 0,5.73 4.67,10.42 10.42,10.42l155.51 0c5.75,0 10.42,-4.69 10.42,-10.42 0,-5.73 -4.67,-10.42 -10.42,-10.42l-155.51 0zm337.06 8.33c-78.18,0 -141.23,62.71 -141.23,139.58 0,76.98 63.05,139.58 141.23,139.58 78.18,0 141.24,-62.6 141.24,-139.58 0,-76.87 -63.05,-139.58 -141.24,-139.58zm71.75 85.42c3.76,3.65 3.92,9.58 0.35,13.33l-89.79 94.69c-1.76,1.77 -4.23,2.92 -6.8,2.92 -2.57,0 -5.03,-1.15 -6.8,-2.92l-40.81 -43.13c-3.56,-3.75 -3.39,-9.68 0.35,-13.23 3.76,-3.54 9.7,-3.44 13.26,0.42l34 35.83 82.99 -87.5c3.56,-3.75 9.49,-3.96 13.25,-0.42z"/>
  </g>
 </g>
</svg>
