<?xml version="1.0" encoding="UTF-8"?>
<!DOCTYPE svg PUBLIC "-//W3C//DTD SVG 1.1//EN" "http://www.w3.org/Graphics/SVG/1.1/DTD/svg11.dtd">
<!-- Creator: CorelDRAW 2019 (64-Bit) -->
<svg xmlns="http://www.w3.org/2000/svg" xml:space="preserve" width="0.645134in" height="0.655102in" version="1.1" style="shape-rendering:geometricPrecision; text-rendering:geometricPrecision; image-rendering:optimizeQuality; fill-rule:evenodd; clip-rule:evenodd"
viewBox="0 0 645.13 655.1"
 xmlns:xlink="http://www.w3.org/1999/xlink"
 xmlns:xodm="http://www.corel.com/coreldraw/odm/2003">
 <defs>
  <style type="text/css">
   <![CDATA[
    .fil1 {fill:#61AB00;fill-rule:nonzero}
    .fil0 {fill:#61AB00;fill-rule:nonzero;fill-opacity:0.176471}
   ]]>
  </style>
 </defs>
 <g id="Layer_x0020_1">
  <metadata id="CorelCorpID_0Corel-Layer"/>
  <g id="_2463823602352">
   <path id="Ellipse_x0020_24" class="fil0" d="M479.17 239.58c0,-132.32 -107.26,-239.58 -239.58,-239.58 -132.32,0 -239.58,107.26 -239.58,239.58 0,132.32 107.26,239.58 239.58,239.58 132.32,0 239.58,-107.26 239.58,-239.58z"/>
   <path id="Vector_60" class="fil1" d="M504.61 264.58c1.48,-2.08 2.66,-4.37 3.48,-6.87 3.72,0.73 7.26,2.08 10.39,4.17 6.28,4.27 13.65,6.67 21.22,6.88 2.4,-0.11 4.78,-0.31 7.13,-0.73 9.92,-1.67 18.75,-7.19 24.56,-15.42 3.11,-4.89 8.15,-8.33 13.87,-9.27 5.72,-1.04 11.6,0.41 16.2,3.96 8.27,5.73 18.48,7.92 28.37,6.15l-3.15 -17.81c-5.7,1.04 -11.59,-0.42 -16.19,-3.96 -17.25,-11.77 -40.76,-7.71 -52.94,9.27 -3.11,5 -8.15,8.33 -13.87,9.37 -2.6,0.52 -5.3,0.42 -7.87,-0.21 5.33,-1.46 10.28,-4.06 14.44,-7.7 7.74,-6.35 12.61,-15.63 13.54,-25.63 0.25,-5.83 2.91,-11.25 7.37,-15 4.44,-3.75 10.26,-5.42 16.02,-4.69 10.03,0.94 20.01,-2.29 27.63,-8.85l-11.63 -13.85c-4.5,3.65 -10.27,5.31 -16.02,4.69 -20.83,-1.56 -39.13,13.75 -41.18,34.58 -0.24,5.73 -2.91,11.15 -7.35,14.9 -4.45,3.75 -10.26,5.41 -16.01,4.69 -5.63,-0.42 -11.29,0.31 -16.61,2.19 -2.49,-4.27 -6.11,-7.81 -10.49,-10.21l40.37 -80.63c1.4,-2.81 1.24,-6.15 -0.42,-8.85 -1.66,-2.6 -4.57,-4.27 -7.71,-4.27 -6.36,0.11 -12.47,-2.39 -16.91,-6.98 -5.43,-5 -11.85,-8.3 -18.59,-9.89l-19.22 0c-6.74,1.6 -13.17,4.89 -18.59,9.89 -4.48,4.48 -10.57,7.08 -16.93,7.08 -6.36,0 -12.46,-2.61 -16.94,-7.08 -5.43,-5 -11.85,-8.3 -18.6,-9.89l-19.24 0c-6.74,1.6 -13.17,4.89 -18.6,9.89 -4.46,4.58 -10.57,7.08 -16.95,6.98 -3.12,0 -6.04,1.67 -7.68,4.38 -1.65,2.6 -1.8,5.94 -0.41,8.75l40.32 80.63c-6.83,3.65 -11.76,10.1 -13.5,17.6 -1.74,7.61 -0.13,15.52 4.42,21.77 -82.77,22.19 -140.37,97.19 -140.52,182.92l0 162.5c0.03,24.9 20.23,45.1 45.15,45.1l325 0c24.92,0 45.1,-20.2 45.13,-45.1l0 -162.5c-0.15,-85.73 -57.74,-160.73 -140.52,-182.92zm-129.18 -126.04c4.49,-4.48 10.58,-7.09 16.95,-7.09 6.36,0 12.46,2.61 16.94,7.09 15.94,14.69 40.47,14.69 56.42,0 4.48,-4.48 10.56,-7.09 16.93,-7.09 6.34,0 12.44,2.61 16.92,7.09 4.31,3.85 9.27,6.87 14.65,8.85l-37.18 74.37 -79.13 0 -37.18 -74.37c5.39,-1.98 10.35,-5 14.68,-8.85zm16.93 119.37c-5,0 -9.03,-4.06 -9.03,-9.06 0,-5 4.03,-9.06 9.03,-9.06l90.27 0c4.99,0 9.03,4.06 9.03,9.06 0,5 -4.04,9.06 -9.03,9.06l-90.27 0zm234.72 352.08c0,14.9 -12.13,27.08 -27.08,27.08l-325 0c-14.97,0 -27.08,-12.19 -27.08,-27.08l0 -162.5c0.09,-94.69 76.83,-171.46 171.53,-171.56l36.1 0c94.69,0.11 171.43,76.87 171.53,171.56l0 162.5z"/>
   <polygon id="Vector_61" class="fil1" points="376.95,513.33 485.28,405 498.05,417.71 389.71,526.04 "/>
   <path id="Vector_62" class="fil1" d="M473.6 474.58c-14.96,0 -27.08,12.08 -27.08,27.08 0,14.9 12.13,27.09 27.08,27.09 14.96,0 27.08,-12.19 27.08,-27.09 0,-15 -12.12,-27.08 -27.08,-27.08zm0 36.04c-4.99,0 -9.02,-3.96 -9.02,-8.96 0,-5 4.03,-9.06 9.02,-9.06 4.99,0 9.03,4.06 9.03,9.06 0,5 -4.04,8.96 -9.03,8.96z"/>
   <path id="Vector_63" class="fil1" d="M401.39 456.56c14.95,0 27.09,-12.19 27.09,-27.08 0,-15 -12.14,-27.19 -27.09,-27.19 -14.97,0 -27.08,12.19 -27.08,27.19 0,14.89 12.11,27.08 27.08,27.08zm0 -36.15c4.98,0 9.02,4.06 9.02,9.06 0,4.89 -4.04,8.96 -9.02,8.96 -4.99,0 -9.03,-4.06 -9.03,-8.96 0,-5 4.04,-9.06 9.03,-9.06z"/>
   <path id="Vector_64" class="fil1" d="M437.5 339.17c-69.81,0 -126.4,56.56 -126.4,126.35 0,69.79 56.58,126.35 126.4,126.35 69.8,0 126.39,-56.56 126.39,-126.35 -0.07,-69.79 -56.61,-126.25 -126.39,-126.35zm0 234.69c-59.83,0 -108.33,-48.44 -108.33,-108.33 0,-59.79 48.5,-108.33 108.33,-108.33 59.82,0 108.33,48.54 108.33,108.33 -0.07,59.79 -48.54,108.33 -108.33,108.33z"/>
  </g>
 </g>
</svg>
