<?xml version="1.0" encoding="UTF-8"?>
<!DOCTYPE svg PUBLIC "-//W3C//DTD SVG 1.1//EN" "http://www.w3.org/Graphics/SVG/1.1/DTD/svg11.dtd">
<!-- Creator: CorelDRAW 2019 (64-Bit) -->
<svg xmlns="http://www.w3.org/2000/svg" xml:space="preserve" width="0.749996in" height="0.653209in" version="1.1" style="shape-rendering:geometricPrecision; text-rendering:geometricPrecision; image-rendering:optimizeQuality; fill-rule:evenodd; clip-rule:evenodd"
viewBox="0 0 749.99 653.21"
 xmlns:xlink="http://www.w3.org/1999/xlink"
 xmlns:xodm="http://www.corel.com/coreldraw/odm/2003">
 <defs>
  <style type="text/css">
   <![CDATA[
    .fil1 {fill:#E4A788;fill-rule:nonzero}
    .fil0 {fill:#FFECE2;fill-rule:nonzero;fill-opacity:0.878431}
   ]]>
  </style>
 </defs>
 <g id="Layer_x0020_1">
  <metadata id="CorelCorpID_0Corel-Layer"/>
  <g id="_2426404940176">
   <path id="Ellipse_x0020_32_5" class="fil0" d="M481.01 240.5c0,-132.83 -107.68,-240.5 -240.5,-240.5 -132.83,0 -240.5,107.68 -240.5,240.5 0,132.83 107.68,240.5 240.5,240.5 132.83,0 240.5,-107.68 240.5,-240.5z"/>
   <path id="Vector_66" class="fil1" d="M479.16 285.71c-54.84,0 -99.3,44.48 -99.3,99.27 0,54.9 44.46,99.37 99.3,99.37 54.84,0 99.3,-44.48 99.3,-99.37 -0.06,-54.79 -44.48,-99.16 -99.3,-99.27zm0 180.52c-44.87,0 -81.25,-36.35 -81.25,-81.25 0,-44.79 36.38,-81.25 81.25,-81.25 44.87,0 81.25,36.46 81.25,81.25 -0.05,44.9 -36.39,81.25 -81.25,81.25z"/>
   <path id="Vector_67" class="fil1" d="M722.91 240.61l-487.5 0c-14.94,0 -27.06,12.08 -27.08,27.08l0 234.69c0.02,14.89 12.14,27.08 27.08,27.08l487.5 0c14.95,0 27.06,-12.19 27.09,-27.08l0 -234.69c-0.02,-15 -12.14,-27.08 -27.09,-27.08zm0 18.02c4.99,0 9.02,4.06 9.03,9.06l0 53.54c-32.71,-4.17 -58.47,-29.9 -62.63,-62.61l53.6 0zm-496.53 9.06c0.01,-5 4.04,-9.06 9.03,-9.06l53.61 0c-4.17,32.71 -29.93,58.44 -62.64,62.61l0 -53.54zm9.03 243.75c-4.99,0 -9.02,-4.06 -9.03,-9.06l0 -53.65c32.71,4.17 58.47,30 62.64,62.71l-53.61 0zm71.76 0c-4.34,-42.71 -38.1,-76.46 -80.79,-80.83l0 -91.15c42.69,-4.38 76.45,-38.13 80.79,-80.83l343.98 0c4.35,42.71 38.11,76.46 80.79,80.83l0 91.15c-42.68,4.37 -76.44,38.12 -80.79,80.83l-343.98 0zm424.77 -9.06c-0.01,5 -4.04,9.06 -9.03,9.06l-53.6 0c4.17,-32.71 29.93,-58.54 62.63,-62.71l0 53.65z"/>
   <polygon id="Vector_68" class="fil1" points="488.19,339.88 470.14,339.88 470.14,376.02 434.02,376.02 434.02,394.04 470.14,394.04 470.14,430.19 488.19,430.19 488.19,394.04 524.3,394.04 524.3,376.02 488.19,376.02 "/>
   <path id="Vector_69" class="fil1" d="M422.34 171.02l-11.68 -11.67 140.71 0c4.99,0 9.02,3.96 9.03,8.96l0 18.12 18.06 0 0 -18.12c-0.02,-14.9 -12.14,-27.09 -27.09,-27.09l-140.71 0 11.68 -11.67 -12.77 -12.71 -33.47 33.44 33.47 33.44 12.77 -12.7z"/>
   <path id="Vector_70" class="fil1" d="M535.97 599.04l11.68 11.67 -140.71 0c-4.99,0 -9.02,-4.06 -9.03,-9.06l0 -18.02 -18.05 0 0 18.02c0.01,15 12.13,27.09 27.08,27.09l140.71 0 -11.68 11.67 12.77 12.81 33.46 -33.44 -33.46 -33.54 -12.77 12.81z"/>
   <polygon id="Vector_71" class="fil1" points="379.86,547.48 397.91,547.48 397.91,565.6 379.86,565.6 "/>
   <polygon id="Vector_72" class="fil1" points="560.41,204.46 578.46,204.46 578.46,222.48 560.41,222.48 "/>
  </g>
 </g>
</svg>
