<?xml version="1.0" encoding="UTF-8"?>
<!DOCTYPE svg PUBLIC "-//W3C//DTD SVG 1.1//EN" "http://www.w3.org/Graphics/SVG/1.1/DTD/svg11.dtd">
<!-- Creator: CorelDRAW 2019 (64-Bit) -->
<svg xmlns="http://www.w3.org/2000/svg" xml:space="preserve" width="0.802083in" height="0.656252in" version="1.1" style="shape-rendering:geometricPrecision; text-rendering:geometricPrecision; image-rendering:optimizeQuality; fill-rule:evenodd; clip-rule:evenodd"
viewBox="0 0 811.57 664.01"
 xmlns:xlink="http://www.w3.org/1999/xlink"
 xmlns:xodm="http://www.corel.com/coreldraw/odm/2003">
 <defs>
  <style type="text/css">
   <![CDATA[
    .str0 {stroke:#FF6B82;stroke-width:18.97;stroke-miterlimit:2.61313}
    .fil2 {fill:none;fill-rule:nonzero}
    .fil0 {fill:#FDE7E8;fill-rule:nonzero}
    .fil1 {fill:#FF5670;fill-rule:nonzero}
   ]]>
  </style>
 </defs>
 <g id="Layer_x0020_1">
  <metadata id="CorelCorpID_0Corel-Layer"/>
  <g id="_2426360317168">
   <circle id="Ellipse_x0020_20" class="fil0" cx="231.88" cy="231.88" r="231.88"/>
   <path id="Vector_73" class="fil1" d="M757.81 190.14l-18.66 0c-4.85,0 -8.86,-3.9 -8.86,-8.75 0,-4.85 4.01,-8.86 8.86,-8.86l18.66 0c4.85,0 8.75,4.01 8.75,8.86 0,4.85 -3.9,8.75 -8.75,8.75z"/>
   <path id="Vector_74" class="fil1" d="M686.35 190.14l-18.66 0c-4.85,0 -8.75,-3.9 -8.75,-8.75 0,-4.85 3.9,-8.86 8.75,-8.86l18.66 0c4.85,0 8.86,4.01 8.86,8.86 0,4.85 -4.01,8.75 -8.86,8.75z"/>
   <path id="Vector_75" class="fil1" d="M615 190.14l-18.66 0c-4.85,0 -8.75,-3.9 -8.75,-8.75 0,-4.85 3.9,-8.86 8.75,-8.86l18.66 0c4.85,0 8.86,4.01 8.86,8.86 0,4.85 -4.01,8.75 -8.86,8.75z"/>
   <path id="Vector_76" class="fil1" d="M326.63 594.76l-38.37 0c-4.85,0 -8.85,-3.9 -8.85,-8.75l0 -153.56c0,-4.85 4,-8.86 8.85,-8.86l38.37 0c4.85,0 8.86,4 8.86,8.86l0 153.56c0,4.85 -4.01,8.75 -8.86,8.75zm-29.62 -17.6l20.87 0 0 -135.96 -20.87 0 0 135.96z"/>
   <path id="Vector_77" class="fil1" d="M407.89 594.76l-38.36 0c-4.96,0 -8.86,-3.9 -8.86,-8.85l0 -114.15c0,-4.85 3.9,-8.75 8.86,-8.75l38.36 0c4.85,0 8.75,3.9 8.75,8.75l0 114.15c0,4.95 -3.9,8.85 -8.75,8.85zm-29.61 -17.6l20.87 0 0 -96.65 -20.87 0 0 96.65z"/>
   <path id="Vector_78" class="fil1" d="M489.15 594.76l-38.47 0c-4.85,0 -8.75,-3.9 -8.75,-8.75l0 -217.43c0,-4.85 3.9,-8.75 8.75,-8.75l38.47 0c4.85,0 8.75,3.9 8.75,8.75l0 217.43c0,4.85 -3.9,8.75 -8.75,8.75zm-29.62 -17.6l20.87 0 0 -199.84 -20.87 0 0 199.84z"/>
   <path id="Vector_79" class="fil1" d="M570.41 594.76l-38.47 0c-4.85,0 -8.75,-3.9 -8.75,-8.75l0 -161.47c0,-4.85 3.9,-8.75 8.75,-8.75l38.47 0c4.85,0 8.75,3.9 8.75,8.75l0 161.47c0,4.85 -3.9,8.75 -8.75,8.75zm-29.62 -17.6l20.77 0 0 -143.76 -20.77 0 0 143.76z"/>
   <path id="Vector_80" class="fil1" d="M667.59 442.78c-48.7,0 -88.32,-39.63 -88.32,-88.32 0,-48.69 39.63,-88.32 88.32,-88.32 48.7,0 88.32,39.63 88.32,88.32 0,48.7 -39.63,88.32 -88.32,88.32zm0 -159.15c-39,0 -70.72,31.83 -70.72,70.83 0,39 31.73,70.72 70.72,70.72 39,0 70.83,-31.73 70.83,-70.72 0,-39 -31.83,-70.83 -70.83,-70.83z"/>
   <path id="Vector_81" class="fil1" d="M667.59 403.89c-16.02,0 -29.09,-13.07 -29.09,-29.09 0,-4.85 3.9,-8.75 8.75,-8.75 4.85,0 8.75,3.9 8.75,8.75 0,6.32 5.27,11.59 11.6,11.59 6.43,0 11.59,-5.27 11.59,-11.59 0,-6.43 -5.16,-11.6 -11.59,-11.6 -16.02,0 -29.09,-13.07 -29.09,-29.09 0,-16.13 13.07,-29.09 29.09,-29.09 16.02,0 29.09,12.97 29.09,29.09 0,4.85 -3.9,8.75 -8.75,8.75 -4.85,0 -8.75,-3.9 -8.75,-8.75 0,-6.43 -5.16,-11.6 -11.59,-11.6 -6.33,0 -11.6,5.17 -11.6,11.6 0,6.32 5.27,11.59 11.6,11.59 16.02,0 29.09,13.07 29.09,29.09 0,16.02 -13.07,29.09 -29.09,29.09z"/>
   <path id="Vector_82" class="fil1" d="M667.59 322.52c-4.85,0 -8.75,-3.9 -8.75,-8.75l0 -11.49c0,-4.85 3.9,-8.75 8.75,-8.75 4.85,0 8.75,3.9 8.75,8.75l0 11.49c0,4.85 -3.9,8.75 -8.75,8.75z"/>
   <path id="Vector_83" class="fil1" d="M667.59 415.37c-4.85,0 -8.75,-3.9 -8.75,-8.75l0 -11.49c0,-4.85 3.9,-8.75 8.75,-8.75 4.85,0 8.75,3.9 8.75,8.75l0 11.49c0,4.85 -3.9,8.75 -8.75,8.75z"/>
   <path class="fil2 str0" d="M263.5 135.96l516.45 0c12.22,0 22.13,9.91 22.13,22.13l0.01 474.3c-0.01,12.22 -9.92,22.13 -22.14,22.13l-516.45 0c-12.23,0 -22.14,-9.91 -22.14,-22.13l0 -474.3c0,-12.22 9.91,-22.13 22.13,-22.13z"/>
   <line id="Line_x0020_39" class="fil2 str0" x1="242.42" y1="232.93" x2="801.03" y2= "232.93" />
  </g>
 </g>
</svg>
