<?xml version="1.0" encoding="UTF-8"?>
<!DOCTYPE svg PUBLIC "-//W3C//DTD SVG 1.1//EN" "http://www.w3.org/Graphics/SVG/1.1/DTD/svg11.dtd">
<!-- Creator: CorelDRAW 2019 (64-Bit) -->
<svg xmlns="http://www.w3.org/2000/svg" xml:space="preserve" width="0.666661in" height="0.666646in" version="1.1" style="shape-rendering:geometricPrecision; text-rendering:geometricPrecision; image-rendering:optimizeQuality; fill-rule:evenodd; clip-rule:evenodd"
viewBox="0 0 666.66 666.65"
 xmlns:xlink="http://www.w3.org/1999/xlink"
 xmlns:xodm="http://www.corel.com/coreldraw/odm/2003">
 <defs>
  <style type="text/css">
   <![CDATA[
    .fil1 {fill:#55BC7E}
    .fil2 {fill:#55BC7E;fill-rule:nonzero}
    .fil0 {fill:#DFF3E8;fill-rule:nonzero;fill-opacity:0.878431}
   ]]>
  </style>
 </defs>
 <g id="Layer_x0020_1">
  <metadata id="CorelCorpID_0Corel-Layer"/>
  <g id="_2426457244976">
   <path id="Ellipse_x0020_18" class="fil0" d="M481.01 240.5c0,-132.83 -107.68,-240.5 -240.5,-240.5 -132.83,0 -240.5,107.68 -240.5,240.5 0,132.83 107.68,240.5 240.5,240.5 132.83,0 240.5,-107.68 240.5,-240.5z"/>
   <g>
    <path id="Union_7" class="fil1" d="M436.38 129.04c16.31,16.35 47.97,41.87 87.24,64.48 39.33,22.71 85.64,42.08 131.28,46.98 4.29,0.52 7.54,4.17 7.54,8.44l0 71.77c0,4.59 -3.78,8.44 -8.44,8.44 -4.67,0 -8.44,-3.85 -8.44,-8.44l0 -64.27c-46.31,-6.46 -92.04,-26.15 -130.39,-48.33 -36.22,-20.83 -66.37,-44.17 -84.81,-61.35 -18.44,17.19 -48.59,40.52 -84.81,61.35 -38.33,22.19 -84.06,41.87 -130.37,48.33l0 64.27c0,4.59 -3.78,8.44 -8.44,8.44 -4.66,0 -8.44,-3.85 -8.44,-8.44l0 -71.77c0,-4.27 3.25,-7.92 7.54,-8.44 45.65,-4.89 91.95,-24.27 131.28,-46.98 39.3,-22.71 70.97,-48.23 87.27,-64.48 0,0 0,0 0,0l11.98 0zm0 0c-0.01,0 -0.03,0 -0.04,0 -2.89,-2.92 -7.33,-3.23 -10.61,-1.04l10.65 1.04zm-225.41 250.73c0,-4.69 -3.78,-8.44 -8.44,-8.44 -4.65,0 -8.44,3.75 -8.44,8.44 0,65.21 50.91,210.63 233.06,286.25 1.05,0.42 2.15,0.62 3.23,0.62 1.08,0 2.18,-0.2 3.24,-0.62 182.13,-75.63 233.05,-221.04 233.05,-286.25 0,-4.69 -3.78,-8.44 -8.44,-8.44 -4.67,0 -8.44,3.75 -8.44,8.44 0,58.13 -46.41,196.04 -219.42,269.27 -173.01,-73.23 -219.41,-211.15 -219.41,-269.27z"/>
   </g>
   <path id="Vector_65" class="fil2" d="M413.5 337.59l33.76 0c13.96,0 25.31,11.35 25.31,25.31 0,4.58 3.77,8.44 8.44,8.44 4.67,0 8.44,-3.85 8.44,-8.44 0,-23.33 -18.93,-42.29 -42.19,-42.29 -4.67,0 -8.44,-3.75 -8.44,-8.44l0 -16.87c0,-4.59 -3.78,-8.44 -8.45,-8.44 -4.67,0 -8.44,3.85 -8.44,8.44l0 16.87c0,4.69 -3.77,8.44 -8.44,8.44 -23.26,0 -42.19,18.96 -42.19,42.29 0,23.23 18.93,42.19 42.19,42.19l33.76 0c13.96,0 25.31,11.35 25.31,25.31 0,13.96 -11.35,25.31 -25.31,25.31l-33.76 0c-13.96,0 -25.31,-11.35 -25.31,-25.31 0,-4.69 -3.77,-8.44 -8.44,-8.44 -4.67,0 -8.44,3.75 -8.44,8.44 0,23.23 18.93,42.19 42.19,42.19 4.67,0 8.44,3.75 8.44,8.44l0 16.87c0,4.58 3.77,8.44 8.44,8.44 4.67,0 8.45,-3.85 8.45,-8.44l0 -16.87c0,-4.69 3.77,-8.44 8.44,-8.44 23.26,0 42.19,-18.96 42.19,-42.19 0,-23.33 -18.93,-42.19 -42.19,-42.19l-33.76 0c-13.96,0 -25.31,-11.35 -25.31,-25.31 0,-13.96 11.35,-25.31 25.31,-25.31z"/>
  </g>
 </g>
</svg>
