<?xml version="1.0" encoding="UTF-8"?>
<!DOCTYPE svg PUBLIC "-//W3C//DTD SVG 1.1//EN" "http://www.w3.org/Graphics/SVG/1.1/DTD/svg11.dtd">
<!-- Creator: CorelDRAW 2019 (64-Bit) -->
<svg xmlns="http://www.w3.org/2000/svg" xml:space="preserve" width="0.174165in" height="0.204949in" version="1.1" style="shape-rendering:geometricPrecision; text-rendering:geometricPrecision; image-rendering:optimizeQuality; fill-rule:evenodd; clip-rule:evenodd"
viewBox="0 0 174.17 204.95"
 xmlns:xlink="http://www.w3.org/1999/xlink"
 xmlns:xodm="http://www.corel.com/coreldraw/odm/2003">
 <defs>
  <style type="text/css">
   <![CDATA[
    .fil0 {fill:#E4A788;fill-rule:nonzero}
   ]]>
  </style>
 </defs>
 <g id="Layer_x0020_1">
  <metadata id="CorelCorpID_0Corel-Layer"/>
  <g id="_2462111021584">
   <path id="Vector_182" class="fil0" d="M174.17 24.79c0,-14.03 -21.87,-24.79 -50.8,-24.79 -28.93,0 -50.79,10.76 -50.79,24.79 0,0.47 0,0.7 0,1.17 0,0.24 0,0.71 0,0.94l0 39.77c0,2.57 2.11,4.68 4.7,4.68 2.59,0 4.71,-2.11 4.71,-4.68l0 -2.11c8.94,6.31 23.99,10.05 41.39,10.05 17.41,0 32.46,-3.98 41.39,-10.05l0 10.52c0,6.56 -15.76,15.44 -41.39,15.44l-2.35 0c-2.59,0 -4.94,0 -7.53,-0.47 -2.58,-0.23 -4.94,1.41 -5.41,3.98 -0.24,2.57 1.41,4.92 4,5.39 2.34,0.23 4.7,0.47 7.28,0.47l3.77 0c17.4,0 32.45,-3.98 41.39,-10.06l0 10.52c0,6.55 -15.76,15.44 -41.39,15.44l-2.11 0c-2.59,0 -4.94,0 -7.53,-0.47 -2.58,-0.24 -4.94,1.4 -5.41,3.97 -0.24,2.57 1.41,4.92 4,5.39 2.34,0.23 4.7,0.47 7.28,0.47l3.77 0c17.4,0 32.45,-3.98 41.39,-10.06l0 10.53c0,6.56 -15.76,15.44 -41.39,15.44l-2.11 0c-2.59,0 -4.94,0 -7.53,-0.47 -2.58,-0.23 -4.94,1.41 -5.41,3.98 -0.24,2.57 1.41,4.91 4,5.37 2.34,0.24 4.7,0.47 7.28,0.47l3.77 0c17.4,0 32.45,-3.98 41.39,-10.05l0 10.52c0,6.55 -15.76,15.44 -41.39,15.44l-2.11 0c-2.59,0 -4.94,0 -7.53,-0.47 -2.58,-0.23 -4.94,1.41 -5.41,3.98 -0.24,2.57 1.41,4.92 4,5.39 2.34,0.23 4.7,0.46 7.28,0.46l3.77 0c28.92,0 50.79,-10.76 50.79,-24.79l0 -123.98c0,-0.23 0,-0.7 0,-0.94 0.24,-0.47 0.24,-0.7 0.24,-1.17zm-50.8 -15.44c25.63,0 41.39,8.89 41.39,15.44 0,6.56 -15.76,15.44 -41.39,15.44 -25.63,0 -41.39,-8.89 -41.39,-15.44 0,-6.55 15.76,-15.44 41.39,-15.44zm0 55.91c-25.63,0 -41.39,-8.88 -41.39,-15.44l0 -10.29c8.94,6.31 23.99,10.05 41.39,10.05 17.41,0 32.46,-3.97 41.39,-10.05l0 10.29c0,6.31 -15.76,15.44 -41.39,15.44z"/>
   <path id="Vector_183" class="fil0" d="M50.79 80.51c-28.92,0 -50.79,10.68 -50.79,24.61 0,0.46 0,0.69 0,1.16 0,0.23 0,0.7 0,0.93l0 73.14c0,13.93 21.87,24.6 50.79,24.6 28.93,0 50.8,-10.68 50.8,-24.6l0 -73.14c0,-0.23 0,-0.7 0,-0.93 0,-0.47 0,-0.7 0,-1.16 0,-14.17 -21.87,-24.61 -50.8,-24.61zm41.4 74.52c0,6.5 -15.76,15.32 -41.4,15.32 -25.63,0 -41.39,-8.82 -41.39,-15.32l0 -10.68c8.94,6.27 23.99,9.98 41.39,9.98 17.41,0 32.46,-3.94 41.4,-9.98l0 10.68zm0 -25.07c0,6.5 -15.76,15.32 -41.4,15.32 -25.63,0 -41.39,-8.82 -41.39,-15.32l0 -10.21c8.94,6.26 23.99,9.98 41.39,9.98 17.41,0 32.46,-3.95 41.4,-9.98l0 10.21zm-41.4 -40.16c25.63,0 41.4,8.81 41.4,15.32 0,6.5 -15.76,15.31 -41.4,15.31 -25.63,0 -41.39,-8.81 -41.39,-15.31 0,-6.51 15.76,-15.32 41.39,-15.32zm0 105.63c-25.63,0 -41.39,-8.82 -41.39,-15.32l0 -10.45c8.94,6.27 23.99,9.99 41.39,9.99 17.41,0 32.46,-3.94 41.4,-9.99l0 10.45c0,6.5 -15.76,15.32 -41.4,15.32z"/>
  </g>
 </g>
</svg>
