<?xml version="1.0" encoding="UTF-8"?>
<!DOCTYPE svg PUBLIC "-//W3C//DTD SVG 1.1//EN" "http://www.w3.org/Graphics/SVG/1.1/DTD/svg11.dtd">
<!-- Creator: CorelDRAW 2019 (64-Bit) -->
<svg xmlns="http://www.w3.org/2000/svg" xml:space="preserve" width="1.89793in" height="0.439583in" version="1.1" style="shape-rendering:geometricPrecision; text-rendering:geometricPrecision; image-rendering:optimizeQuality; fill-rule:evenodd; clip-rule:evenodd"
viewBox="0 0 1897.93 439.58"
 xmlns:xlink="http://www.w3.org/1999/xlink"
 xmlns:xodm="http://www.corel.com/coreldraw/odm/2003">
 <defs>
  <style type="text/css">
   <![CDATA[
    .fil1 {fill:none}
    .fil0 {fill:#9C9C9C;fill-opacity:0.850980}
   ]]>
  </style>
 </defs>
 <g id="Layer_x0020_1">
  <metadata id="CorelCorpID_0Corel-Layer"/>
  <g id="_2461337434288">
   <g>
    <path id="Vector_13" class="fil0" d="M180.6 328.71c-11.48,5.31 -29.91,8.85 -47.43,8.85 -51.61,0 -79.66,-32.08 -79.66,-74.48 0,-47.61 32.37,-75.94 80.32,-75.94 19.09,0 35.5,4.37 46.54,9.48l8.8 -31.15c-8.66,-4.58 -28.65,-10.42 -56.91,-10.42 -71.08,0 -119.7,45.42 -119.7,109.79 0,62.92 43.7,105.21 114.41,105.21 28.5,0 50.79,-5.83 60.56,-10.73l-6.94 -30.63z"/>
    <path id="Vector_14" class="fil0" d="M268.99 370.06c42.44,0 82.94,-27.18 82.94,-80.52 0,-44.17 -32.07,-76.87 -80.25,-76.87 -49.98,0 -83.76,32.5 -83.76,80.1 0,47.29 35.8,77.29 80.77,77.29l0.3 0zm0.3 -28.23c-23.95,0 -41.39,-20 -41.39,-50.1 0,-26.04 13.12,-50.73 42.2,-50.73 28.72,0 41.18,25.83 41.18,50 0,32.7 -18.57,50.83 -41.62,50.83l-0.37 0zm95.61 24.58l38.93 0 0 -86.77c0,-3.96 0.52,-8.44 1.72,-11.46 4.25,-11.46 15.51,-23.65 32.59,-23.65 22.45,0 31.77,16.98 31.77,40.73l0 81.15 38.93 0 0 -86.04c0,-51.67 -31.17,-67.61 -57.27,-67.61 -27.52,0 -44.61,16.35 -50.95,27.81l-0.97 0 -1.94 -24.17 -34.09 0c0.75,12.92 1.2,27.92 1.2,45.31l0.07 104.68zm237.32 3.65c42.44,0 82.94,-27.18 82.94,-80.52 0,-44.17 -32.07,-76.87 -80.25,-76.87 -50.05,0 -83.69,32.5 -83.69,80.1 0,47.29 35.73,77.29 80.7,77.29l0.3 0zm0.37 -28.23c-23.94,0 -41.39,-20 -41.39,-50.1 0,-26.04 13.13,-50.73 42.21,-50.73 28.72,0 41.1,25.83 41.1,50 0,32.7 -18.57,50.83 -41.62,50.83l-0.3 0zm218.23 -9.37c-10.67,4.48 -22.16,6.77 -33.79,6.67 -27.3,0 -49.67,-17.29 -49.67,-48.12 -0.15,-27.4 18.65,-48.02 49.52,-48.02 15.29,0 25.44,3.23 32.36,6.67l7.17 -29.27c-10,-4.37 -25.44,-7.71 -40.94,-7.71 -56.01,0 -88.08,35.42 -88.08,80.42 0,45.62 31.91,76.98 81.82,76.98 21.03,0 38.41,-4.48 47.13,-8.65l-5.52 -28.96zm87.41 37.6c42.44,0 82.94,-27.18 82.94,-80.52 0,-44.17 -32.07,-76.87 -80.25,-76.87 -50.04,0 -83.76,32.5 -83.76,80.1 0,47.29 35.8,77.29 80.78,77.29l0.29 0zm0.37 -28.23c-23.94,0 -41.39,-20 -41.39,-50.1 0,-26.04 13.12,-50.73 42.22,-50.73 28.71,0 41.17,25.83 41.17,50 0,32.7 -18.57,50.83 -41.68,50.83l-0.3 0zm253.37 24.58l38.93 0 0 -88.02c0,-4.37 0.3,-8.13 1.72,-11.56 4.39,-10.73 15.65,-22.18 32.29,-22.18 22.89,0 32.07,17.08 32.07,40.73l0 81.04 38.93 0 0 -86.15c0,-51.67 -30.95,-67.6 -56.53,-67.6 -9.77,0 -19.31,2.71 -27.37,7.08 -8.27,4.37 -15.37,10.73 -20.51,18.65l-0.59 0 0 -92.6 -38.93 0 0 220.62zm205.92 0l0 -150 -38.93 0 0 150 38.93 0zm-19.46 -173.23c14.24,0 22.9,-10 22.9,-21.87 -0.16,-11.98 -8.8,-21.67 -22.75,-21.67 -14.02,0 -22.89,9.89 -22.89,21.67 0,11.87 8.65,21.87 22.44,21.87l0.3 0zm46.17 173.23l38.93 0 0 -220.62 -38.93 0 0 220.62zm68.69 0l38.94 0 0 -220.62 -38.94 0 0 220.62zm104.56 0l0 -150 -38.93 0 0 150 38.93 0zm-19.46 -173.23c14.24,0 22.89,-10 22.89,-21.87 -0.16,-11.98 -8.73,-21.67 -22.75,-21.67 -14.02,0 -22.9,9.89 -22.9,21.67 0,11.87 8.65,21.87 22.45,21.87l0.3 0zm49.22 234.9l38.94 0 0 -79.38 0.59 0c8.66,13.54 26.48,21.35 46.92,21.35 36.68,0 73.68,-26.98 73.68,-81.35 0,-47.5 -32.37,-76.04 -67.65,-76.04 -25.81,0 -44.91,10.42 -56.99,28.33l-0.59 0 -1.94 -24.69 -34.16 0c0.74,14.58 1.19,31.35 1.19,50.63l0 161.15zm38.87 -144.79c0,-2.92 0.67,-6.15 1.33,-8.96 4.33,-18.23 20.29,-31.04 38.64,-31.04 27,0 41.54,22.08 41.54,47.6 0,30.42 -16.62,49.27 -42.65,49.27 -19.32,0 -34.24,-13.85 -38.04,-29.48 -0.59,-3.23 -0.81,-6.35 -0.81,-9.58l0 -17.81zm127.83 75.73c12.23,6.46 29.39,11.15 49.3,11.15 42.58,0 63.54,-21.15 63.54,-47.4 -0.15,-23.23 -13.2,-36.87 -42.37,-45.83 -20.06,-6.15 -28.34,-10.73 -28.34,-20.63 0,-9.69 7.98,-15.94 21.93,-15.94 14.77,0 28.42,5.83 34.83,9.27l7.68 -27.4c-9.17,-5.21 -24.98,-9.48 -42.66,-9.48 -36.99,0 -59.52,21.15 -59.52,47.61 -0.15,18.65 13.21,35.1 44.3,44.06 19.61,5.83 26.26,10.62 26.26,21.04 0,9.48 -7.39,16.77 -25.44,16.77 -14.54,0 -32.52,-6.25 -41.61,-11.98l-7.91 28.75zm-759.56 7.29l38.56 0 0 -84.48c5.74,1.35 13.13,1.77 21.26,1.77 29.53,0 53.7,-7.29 69.65,-22.6 12.01,-11.15 18.13,-27.92 18.13,-47.19 0,-20.11 -8.66,-36.46 -21.18,-46.46 -13.35,-11.04 -34.01,-17.5 -63.18,-17.5 -28.56,0 -48.78,2.09 -63.4,4.27l0.15 212.19zm38.64 -184.58c4.33,-0.94 12.83,-1.88 24.99,-1.88 27.15,0 45.49,10.94 45.49,35 0,24.48 -18.72,38.33 -48.77,38.33 -9.11,0 -16.19,-0.63 -21.71,-2.19l0 -69.27z"/>
    <path id="Vector_15" class="fil0" d="M1177.19 1c-52.65,18.65 -66.53,37.08 -94.95,60.41 -80.62,21.67 -151.26,-13.12 -212.7,-41.67 29.08,21.35 57.8,66.77 69.96,131.25 46.46,-14.27 102.4,-52.5 151.63,-88.33 27.59,-12.5 57.87,-30.94 86.07,-61.67l0 0z"/>
   </g>
   <rect class="fil1" x="-0" width="1897.93" height="439.58"/>
  </g>
 </g>
</svg>
