<?xml version="1.0" encoding="UTF-8"?>
<!DOCTYPE svg PUBLIC "-//W3C//DTD SVG 1.1//EN" "http://www.w3.org/Graphics/SVG/1.1/DTD/svg11.dtd">
<!-- Creator: CorelDRAW 2019 (64-Bit) -->
<svg xmlns="http://www.w3.org/2000/svg" xml:space="preserve" width="2.69792in" height="2.69792in" version="1.1" style="shape-rendering:geometricPrecision; text-rendering:geometricPrecision; image-rendering:optimizeQuality; fill-rule:evenodd; clip-rule:evenodd"
viewBox="0 0 2697.91 2697.91"
 xmlns:xlink="http://www.w3.org/1999/xlink"
 xmlns:xodm="http://www.corel.com/coreldraw/odm/2003">
 <defs>
  <style type="text/css">
   <![CDATA[
    .fil0 {fill:#E7A98A}
   ]]>
  </style>
 </defs>
 <g id="Layer_x0020_1">
  <metadata id="CorelCorpID_0Corel-Layer"/>
  <path id="Union" class="fil0" d="M22.48 0l-22.48 0 0 22.48c12.37,0 22.48,-10.11 22.48,-22.48zm202.34 22.48c12.37,0 22.49,-10.11 22.49,-22.48l-44.97 0c0,12.37 10.11,22.48 22.48,22.48zm247.31 -22.48c0,12.37 -10.11,22.48 -22.48,22.48 -12.37,0 -22.49,-10.11 -22.49,-22.48l44.97 0zm202.34 22.48c12.37,0 22.48,-10.11 22.48,-22.48l-44.96 0c0,12.37 10.11,22.48 22.48,22.48zm247.31 -22.48c0,12.37 -10.12,22.48 -22.49,22.48 -12.37,0 -22.48,-10.11 -22.48,-22.48l44.97 0zm202.35 22.48c12.36,0 22.48,-10.11 22.48,-22.48l-44.97 0c0,12.37 10.13,22.48 22.49,22.48zm247.3 -22.48c0,12.37 -10.11,22.48 -22.48,22.48 -12.37,0 -22.48,-10.11 -22.48,-22.48l44.96 0zm202.35 22.48c12.36,0 22.49,-10.11 22.49,-22.48l-44.97 0c0,12.37 10.11,22.48 22.48,22.48zm247.26 -22.48c0,12.37 -10.06,22.48 -22.43,22.48 -12.36,0 -22.49,-10.11 -22.49,-22.48l44.92 0zm202.39 22.48c12.4,0 22.5,-10.11 22.5,-22.48l-45 0c0,12.37 10.11,22.48 22.5,22.48zm247.29 -22.48c0,12.37 -10.11,22.48 -22.5,22.48 -12.3,0 -22.5,-10.11 -22.5,-22.48l45 0zm202.39 22.48c12.29,0 22.4,-10.11 22.4,-22.48l-44.9 0c0,12.37 10.11,22.48 22.5,22.48zm224.79 -22.48l0 22.48c-12.39,0 -22.5,-10.11 -22.5,-22.48l22.5 0zm-2675.43 224.82c0,-12.36 -10.11,-22.48 -22.48,-22.48l0 44.97c12.37,0 22.48,-10.13 22.48,-22.49zm224.83 0c0,12.42 -10.07,22.49 -22.49,22.49 -12.41,0 -22.48,-10.07 -22.48,-22.49 0,-12.41 10.06,-22.48 22.48,-22.48 12.42,0 22.49,10.06 22.49,22.48zm202.34 22.49c12.42,0 22.48,-10.07 22.48,-22.49 0,-12.41 -10.06,-22.48 -22.48,-22.48 -12.42,0 -22.49,10.06 -22.49,22.48 0,12.42 10.07,22.49 22.49,22.49zm247.3 -22.49c0,12.42 -10.06,22.49 -22.48,22.49 -12.42,0 -22.48,-10.07 -22.48,-22.49 0,-12.41 10.06,-22.48 22.48,-22.48 12.42,0 22.48,10.06 22.48,22.48zm202.34 22.49c12.42,0 22.49,-10.07 22.49,-22.49 0,-12.41 -10.07,-22.48 -22.49,-22.48 -12.42,0 -22.48,10.06 -22.48,22.48 0,12.42 10.06,22.49 22.48,22.49zm247.31 -22.49c0,12.42 -10.06,22.49 -22.48,22.49 -12.42,0 -22.49,-10.07 -22.49,-22.49 0,-12.41 10.07,-22.48 22.49,-22.48 12.42,0 22.48,10.06 22.48,22.48zm202.35 22.49c12.42,0 22.48,-10.07 22.48,-22.49 0,-12.41 -10.06,-22.48 -22.48,-22.48 -12.42,0 -22.48,10.06 -22.48,22.48 0,12.42 10.06,22.49 22.48,22.49zm247.31 -22.49c0,12.42 -10.07,22.49 -22.49,22.49 -12.42,0 -22.48,-10.07 -22.48,-22.49 0,-12.41 10.06,-22.48 22.48,-22.48 12.42,0 22.49,10.06 22.49,22.48zm202.34 22.49c12.42,0 22.43,-10.07 22.43,-22.49 0,-12.41 -10.01,-22.48 -22.43,-22.48 -12.41,0 -22.49,10.06 -22.49,22.48 0,12.42 10.07,22.49 22.49,22.49zm247.32 -22.49c0,12.42 -10.1,22.49 -22.5,22.49 -12.39,0 -22.5,-10.07 -22.5,-22.49 0,-12.41 10.11,-22.48 22.5,-22.48 12.4,0 22.5,10.06 22.5,22.48zm202.29 22.49c12.5,0 22.5,-10.07 22.5,-22.49 0,-12.41 -10,-22.48 -22.5,-22.48 -12.4,0 -22.5,10.06 -22.5,22.48 0,12.42 10.1,22.49 22.5,22.49zm247.29 -22.49c0,12.42 -10,22.49 -22.4,22.49 -12.5,0 -22.5,-10.07 -22.5,-22.49 0,-12.41 10,-22.48 22.5,-22.48 12.4,0 22.4,10.06 22.4,22.48zm179.89 0c0,12.37 10.11,22.49 22.5,22.49l0 -44.97c-12.39,0 -22.5,10.11 -22.5,22.48zm-2675.41 202.35c12.37,0 22.48,10.12 22.48,22.49 0,12.37 -10.11,22.48 -22.48,22.48l0 -44.97zm224.82 44.97c12.42,0 22.49,-10.06 22.49,-22.48 0,-12.42 -10.07,-22.49 -22.49,-22.49 -12.41,0 -22.48,10.07 -22.48,22.49 0,12.42 10.06,22.48 22.48,22.48zm247.31 -22.48c0,12.42 -10.06,22.48 -22.48,22.48 -12.42,0 -22.49,-10.06 -22.49,-22.48 0,-12.42 10.07,-22.49 22.49,-22.49 12.42,0 22.48,10.07 22.48,22.49zm202.34 22.48c12.42,0 22.48,-10.06 22.48,-22.48 0,-12.42 -10.06,-22.49 -22.48,-22.49 -12.42,0 -22.48,10.07 -22.48,22.49 0,12.42 10.06,22.48 22.48,22.48zm247.31 -22.48c0,12.42 -10.07,22.48 -22.49,22.48 -12.42,0 -22.48,-10.06 -22.48,-22.48 0,-12.42 10.06,-22.49 22.48,-22.49 12.42,0 22.49,10.07 22.49,22.49zm202.35 22.48c12.42,0 22.48,-10.06 22.48,-22.48 0,-12.42 -10.06,-22.49 -22.48,-22.49 -12.42,0 -22.49,10.07 -22.49,22.49 0,12.42 10.07,22.48 22.49,22.48zm247.3 -22.48c0,12.42 -10.06,22.48 -22.48,22.48 -12.42,0 -22.48,-10.06 -22.48,-22.48 0,-12.42 10.06,-22.49 22.48,-22.49 12.42,0 22.48,10.07 22.48,22.49zm202.35 22.48c12.42,0 22.49,-10.06 22.49,-22.48 0,-12.42 -10.07,-22.49 -22.49,-22.49 -12.42,0 -22.48,10.07 -22.48,22.49 0,12.42 10.06,22.48 22.48,22.48zm247.26 -22.48c0,12.42 -10.01,22.48 -22.43,22.48 -12.41,0 -22.49,-10.06 -22.49,-22.48 0,-12.42 10.07,-22.49 22.49,-22.49 12.42,0 22.43,10.07 22.43,22.49zm202.39 22.48c12.4,0 22.5,-10.06 22.5,-22.48 0,-12.42 -10.1,-22.49 -22.5,-22.49 -12.39,0 -22.5,10.07 -22.5,22.49 0,12.42 10.11,22.48 22.5,22.48zm247.29 -22.48c0,12.42 -10,22.48 -22.5,22.48 -12.4,0 -22.5,-10.06 -22.5,-22.48 0,-12.42 10.1,-22.49 22.5,-22.49 12.5,0 22.5,10.07 22.5,22.49zm202.39 22.48c12.4,0 22.4,-10.06 22.4,-22.48 0,-12.42 -10,-22.49 -22.4,-22.49 -12.5,0 -22.5,10.07 -22.5,22.49 0,12.42 10,22.48 22.5,22.48zm224.79 0c-12.39,0 -22.5,-10.11 -22.5,-22.48 0,-12.37 10.11,-22.49 22.5,-22.49l0 44.97zm-2675.43 202.34c0,-12.37 -10.11,-22.48 -22.48,-22.48l0 44.96c12.37,0 22.48,-10.11 22.48,-22.48zm224.83 0c0,12.42 -10.07,22.48 -22.49,22.48 -12.41,0 -22.48,-10.06 -22.48,-22.48 0,-12.42 10.06,-22.48 22.48,-22.48 12.42,0 22.49,10.06 22.49,22.48zm202.34 22.48c12.42,0 22.48,-10.06 22.48,-22.48 0,-12.42 -10.06,-22.48 -22.48,-22.48 -12.42,0 -22.49,10.06 -22.49,22.48 0,12.42 10.07,22.48 22.49,22.48zm247.3 -22.48c0,12.42 -10.06,22.48 -22.48,22.48 -12.42,0 -22.48,-10.06 -22.48,-22.48 0,-12.42 10.06,-22.48 22.48,-22.48 12.42,0 22.48,10.06 22.48,22.48zm202.34 22.48c12.42,0 22.49,-10.06 22.49,-22.48 0,-12.42 -10.07,-22.48 -22.49,-22.48 -12.42,0 -22.48,10.06 -22.48,22.48 0,12.42 10.06,22.48 22.48,22.48zm247.31 -22.48c0,12.42 -10.06,22.48 -22.48,22.48 -12.42,0 -22.49,-10.06 -22.49,-22.48 0,-12.42 10.07,-22.48 22.49,-22.48 12.42,0 22.48,10.06 22.48,22.48zm202.35 22.48c12.42,0 22.48,-10.06 22.48,-22.48 0,-12.42 -10.06,-22.48 -22.48,-22.48 -12.42,0 -22.48,10.06 -22.48,22.48 0,12.42 10.06,22.48 22.48,22.48zm247.31 -22.48c0,12.42 -10.07,22.48 -22.49,22.48 -12.42,0 -22.48,-10.06 -22.48,-22.48 0,-12.42 10.06,-22.48 22.48,-22.48 12.42,0 22.49,10.06 22.49,22.48zm202.34 22.48c12.42,0 22.43,-10.06 22.43,-22.48 0,-12.42 -10.01,-22.48 -22.43,-22.48 -12.41,0 -22.49,10.06 -22.49,22.48 0,12.42 10.07,22.48 22.49,22.48zm247.32 -22.48c0,12.42 -10.1,22.48 -22.5,22.48 -12.39,0 -22.5,-10.06 -22.5,-22.48 0,-12.42 10.11,-22.48 22.5,-22.48 12.4,0 22.5,10.06 22.5,22.48zm202.29 22.48c12.5,0 22.5,-10.06 22.5,-22.48 0,-12.42 -10,-22.48 -22.5,-22.48 -12.4,0 -22.5,10.06 -22.5,22.48 0,12.42 10.1,22.48 22.5,22.48zm247.29 -22.48c0,12.42 -10,22.48 -22.4,22.48 -12.5,0 -22.5,-10.06 -22.5,-22.48 0,-12.42 10,-22.48 22.5,-22.48 12.4,0 22.4,10.06 22.4,22.48zm179.89 0c0,12.37 10.11,22.48 22.5,22.48l0 -44.96c-12.39,0 -22.5,10.11 -22.5,22.48zm-2675.41 202.34c12.37,0 22.48,10.11 22.48,22.48 0,12.37 -10.11,22.49 -22.48,22.49l0 -44.97zm224.82 44.97c12.42,0 22.49,-10.07 22.49,-22.49 0,-12.42 -10.07,-22.48 -22.49,-22.48 -12.41,0 -22.48,10.06 -22.48,22.48 0,12.42 10.06,22.49 22.48,22.49zm247.31 -22.49c0,12.42 -10.06,22.49 -22.48,22.49 -12.42,0 -22.49,-10.07 -22.49,-22.49 0,-12.42 10.07,-22.48 22.49,-22.48 12.42,0 22.48,10.06 22.48,22.48zm202.34 22.49c12.42,0 22.48,-10.07 22.48,-22.49 0,-12.42 -10.06,-22.48 -22.48,-22.48 -12.42,0 -22.48,10.06 -22.48,22.48 0,12.42 10.06,22.49 22.48,22.49zm247.31 -22.49c0,12.42 -10.07,22.49 -22.49,22.49 -12.42,0 -22.48,-10.07 -22.48,-22.49 0,-12.42 10.06,-22.48 22.48,-22.48 12.42,0 22.49,10.06 22.49,22.48zm202.35 22.49c12.42,0 22.48,-10.07 22.48,-22.49 0,-12.42 -10.06,-22.48 -22.48,-22.48 -12.42,0 -22.49,10.06 -22.49,22.48 0,12.42 10.07,22.49 22.49,22.49zm247.3 -22.49c0,12.42 -10.06,22.49 -22.48,22.49 -12.42,0 -22.48,-10.07 -22.48,-22.49 0,-12.42 10.06,-22.48 22.48,-22.48 12.42,0 22.48,10.06 22.48,22.48zm202.35 22.49c12.42,0 22.49,-10.07 22.49,-22.49 0,-12.42 -10.07,-22.48 -22.49,-22.48 -12.42,0 -22.48,10.06 -22.48,22.48 0,12.42 10.06,22.49 22.48,22.49zm247.26 -22.49c0,12.42 -10.01,22.49 -22.43,22.49 -12.41,0 -22.49,-10.07 -22.49,-22.49 0,-12.42 10.07,-22.48 22.49,-22.48 12.42,0 22.43,10.06 22.43,22.48zm202.39 22.49c12.4,0 22.5,-10.07 22.5,-22.49 0,-12.42 -10.1,-22.48 -22.5,-22.48 -12.39,0 -22.5,10.06 -22.5,22.48 0,12.42 10.11,22.49 22.5,22.49zm247.29 -22.49c0,12.42 -10,22.49 -22.5,22.49 -12.4,0 -22.5,-10.07 -22.5,-22.49 0,-12.42 10.1,-22.48 22.5,-22.48 12.5,0 22.5,10.06 22.5,22.48zm202.39 22.49c12.4,0 22.4,-10.07 22.4,-22.49 0,-12.42 -10,-22.48 -22.4,-22.48 -12.5,0 -22.5,10.06 -22.5,22.48 0,12.42 10,22.49 22.5,22.49zm224.79 0c-12.39,0 -22.5,-10.12 -22.5,-22.49 0,-12.37 10.11,-22.48 22.5,-22.48l0 44.97zm-2675.43 202.35c0,-12.37 -10.11,-22.49 -22.48,-22.49l0 44.97c12.37,0 22.48,-10.11 22.48,-22.48zm224.83 0c0,12.42 -10.07,22.48 -22.49,22.48 -12.41,0 -22.48,-10.06 -22.48,-22.48 0,-12.42 10.06,-22.49 22.48,-22.49 12.42,0 22.49,10.07 22.49,22.49zm202.34 22.48c12.42,0 22.48,-10.06 22.48,-22.48 0,-12.42 -10.06,-22.49 -22.48,-22.49 -12.42,0 -22.49,10.07 -22.49,22.49 0,12.42 10.07,22.48 22.49,22.48zm247.3 -22.48c0,12.42 -10.06,22.48 -22.48,22.48 -12.42,0 -22.48,-10.06 -22.48,-22.48 0,-12.42 10.06,-22.49 22.48,-22.49 12.42,0 22.48,10.07 22.48,22.49zm202.34 22.48c12.42,0 22.49,-10.06 22.49,-22.48 0,-12.42 -10.07,-22.49 -22.49,-22.49 -12.42,0 -22.48,10.07 -22.48,22.49 0,12.42 10.06,22.48 22.48,22.48zm247.31 -22.48c0,12.42 -10.06,22.48 -22.48,22.48 -12.42,0 -22.49,-10.06 -22.49,-22.48 0,-12.42 10.07,-22.49 22.49,-22.49 12.42,0 22.48,10.07 22.48,22.49zm202.35 22.48c12.42,0 22.48,-10.06 22.48,-22.48 0,-12.42 -10.06,-22.49 -22.48,-22.49 -12.42,0 -22.48,10.07 -22.48,22.49 0,12.42 10.06,22.48 22.48,22.48zm247.31 -22.48c0,12.42 -10.07,22.48 -22.49,22.48 -12.42,0 -22.48,-10.06 -22.48,-22.48 0,-12.42 10.06,-22.49 22.48,-22.49 12.42,0 22.49,10.07 22.49,22.49zm202.34 22.48c12.42,0 22.43,-10.06 22.43,-22.48 0,-12.42 -10.01,-22.49 -22.43,-22.49 -12.41,0 -22.49,10.07 -22.49,22.49 0,12.42 10.07,22.48 22.49,22.48zm247.32 -22.48c0,12.42 -10.1,22.48 -22.5,22.48 -12.39,0 -22.5,-10.06 -22.5,-22.48 0,-12.42 10.11,-22.49 22.5,-22.49 12.4,0 22.5,10.07 22.5,22.49zm202.29 22.48c12.5,0 22.5,-10.06 22.5,-22.48 0,-12.42 -10,-22.49 -22.5,-22.49 -12.4,0 -22.5,10.07 -22.5,22.49 0,12.42 10.1,22.48 22.5,22.48zm247.29 -22.48c0,12.42 -10,22.48 -22.4,22.48 -12.5,0 -22.5,-10.06 -22.5,-22.48 0,-12.42 10,-22.49 22.5,-22.49 12.4,0 22.4,10.07 22.4,22.49zm179.89 0c0,12.36 10.11,22.48 22.5,22.48l0 -44.97c-12.39,0 -22.5,10.13 -22.5,22.49zm-2675.41 202.34c12.37,0 22.48,10.11 22.48,22.48 0,12.36 -10.11,22.48 -22.48,22.48l0 -44.96zm224.82 44.96c12.42,0 22.49,-10.06 22.49,-22.48 0,-12.42 -10.07,-22.48 -22.49,-22.48 -12.41,0 -22.48,10.06 -22.48,22.48 0,12.42 10.06,22.48 22.48,22.48zm247.31 -22.48c0,12.42 -10.06,22.48 -22.48,22.48 -12.42,0 -22.49,-10.06 -22.49,-22.48 0,-12.42 10.07,-22.48 22.49,-22.48 12.42,0 22.48,10.06 22.48,22.48zm202.34 22.48c12.42,0 22.48,-10.06 22.48,-22.48 0,-12.42 -10.06,-22.48 -22.48,-22.48 -12.42,0 -22.48,10.06 -22.48,22.48 0,12.42 10.06,22.48 22.48,22.48zm247.31 -22.48c0,12.42 -10.07,22.48 -22.49,22.48 -12.42,0 -22.48,-10.06 -22.48,-22.48 0,-12.42 10.06,-22.48 22.48,-22.48 12.42,0 22.49,10.06 22.49,22.48zm202.35 22.48c12.42,0 22.48,-10.06 22.48,-22.48 0,-12.42 -10.06,-22.48 -22.48,-22.48 -12.42,0 -22.49,10.06 -22.49,22.48 0,12.42 10.07,22.48 22.49,22.48zm247.3 -22.48c0,12.42 -10.06,22.48 -22.48,22.48 -12.42,0 -22.48,-10.06 -22.48,-22.48 0,-12.42 10.06,-22.48 22.48,-22.48 12.42,0 22.48,10.06 22.48,22.48zm202.35 22.48c12.42,0 22.49,-10.06 22.49,-22.48 0,-12.42 -10.07,-22.48 -22.49,-22.48 -12.42,0 -22.48,10.06 -22.48,22.48 0,12.42 10.06,22.48 22.48,22.48zm247.26 -22.48c0,12.42 -10.01,22.48 -22.43,22.48 -12.41,0 -22.49,-10.06 -22.49,-22.48 0,-12.42 10.07,-22.48 22.49,-22.48 12.42,0 22.43,10.06 22.43,22.48zm202.39 22.48c12.4,0 22.5,-10.06 22.5,-22.48 0,-12.42 -10.1,-22.48 -22.5,-22.48 -12.39,0 -22.5,10.06 -22.5,22.48 0,12.42 10.11,22.48 22.5,22.48zm247.29 -22.48c0,12.42 -10,22.48 -22.5,22.48 -12.4,0 -22.5,-10.06 -22.5,-22.48 0,-12.42 10.1,-22.48 22.5,-22.48 12.5,0 22.5,10.06 22.5,22.48zm202.39 22.48c12.4,0 22.4,-10.06 22.4,-22.48 0,-12.42 -10,-22.48 -22.4,-22.48 -12.5,0 -22.5,10.06 -22.5,22.48 0,12.42 10,22.48 22.5,22.48zm224.79 0c-12.39,0 -22.5,-10.11 -22.5,-22.48 0,-12.37 10.11,-22.48 22.5,-22.48l0 44.96zm-2675.43 202.35c0,-12.37 -10.11,-22.48 -22.48,-22.48l0 44.97c12.37,0 22.48,-10.13 22.48,-22.49zm224.83 0c0,12.42 -10.07,22.49 -22.49,22.49 -12.41,0 -22.48,-10.07 -22.48,-22.49 0,-12.42 10.06,-22.48 22.48,-22.48 12.42,0 22.49,10.06 22.49,22.48zm202.34 22.49c12.42,0 22.48,-10.07 22.48,-22.49 0,-12.42 -10.06,-22.48 -22.48,-22.48 -12.42,0 -22.49,10.06 -22.49,22.48 0,12.42 10.07,22.49 22.49,22.49zm247.3 -22.49c0,12.42 -10.06,22.49 -22.48,22.49 -12.42,0 -22.48,-10.07 -22.48,-22.49 0,-12.42 10.06,-22.48 22.48,-22.48 12.42,0 22.48,10.06 22.48,22.48zm202.34 22.49c12.42,0 22.49,-10.07 22.49,-22.49 0,-12.42 -10.07,-22.48 -22.49,-22.48 -12.42,0 -22.48,10.06 -22.48,22.48 0,12.42 10.06,22.49 22.48,22.49zm247.31 -22.49c0,12.42 -10.06,22.49 -22.48,22.49 -12.42,0 -22.49,-10.07 -22.49,-22.49 0,-12.42 10.07,-22.48 22.49,-22.48 12.42,0 22.48,10.06 22.48,22.48zm202.35 22.49c12.42,0 22.48,-10.07 22.48,-22.49 0,-12.42 -10.06,-22.48 -22.48,-22.48 -12.42,0 -22.48,10.06 -22.48,22.48 0,12.42 10.06,22.49 22.48,22.49zm247.31 -22.49c0,12.42 -10.07,22.49 -22.49,22.49 -12.42,0 -22.48,-10.07 -22.48,-22.49 0,-12.42 10.06,-22.48 22.48,-22.48 12.42,0 22.49,10.06 22.49,22.48zm202.34 22.49c12.42,0 22.43,-10.07 22.43,-22.49 0,-12.42 -10.01,-22.48 -22.43,-22.48 -12.41,0 -22.49,10.06 -22.49,22.48 0,12.42 10.07,22.49 22.49,22.49zm247.32 -22.49c0,12.42 -10.1,22.49 -22.5,22.49 -12.39,0 -22.5,-10.07 -22.5,-22.49 0,-12.42 10.11,-22.48 22.5,-22.48 12.4,0 22.5,10.06 22.5,22.48zm202.29 22.49c12.5,0 22.5,-10.07 22.5,-22.49 0,-12.42 -10,-22.48 -22.5,-22.48 -12.4,0 -22.5,10.06 -22.5,22.48 0,12.42 10.1,22.49 22.5,22.49zm247.29 -22.49c0,12.42 -10,22.49 -22.4,22.49 -12.5,0 -22.5,-10.07 -22.5,-22.49 0,-12.42 10,-22.48 22.5,-22.48 12.4,0 22.4,10.06 22.4,22.48zm179.89 0c0,12.36 10.11,22.49 22.5,22.49l0 -44.97c-12.39,0 -22.5,10.11 -22.5,22.48zm-2675.41 202.34c12.37,0 22.48,10.13 22.48,22.49 0,12.37 -10.11,22.48 -22.48,22.48l0 -44.97zm224.82 44.97c12.42,0 22.49,-10.06 22.49,-22.48 0,-12.41 -10.07,-22.49 -22.49,-22.49 -12.41,0 -22.48,10.07 -22.48,22.49 0,12.42 10.06,22.48 22.48,22.48zm247.31 -22.48c0,12.42 -10.06,22.48 -22.48,22.48 -12.42,0 -22.49,-10.06 -22.49,-22.48 0,-12.41 10.07,-22.49 22.49,-22.49 12.42,0 22.48,10.07 22.48,22.49zm202.34 22.48c12.42,0 22.48,-10.06 22.48,-22.48 0,-12.41 -10.06,-22.49 -22.48,-22.49 -12.42,0 -22.48,10.07 -22.48,22.49 0,12.42 10.06,22.48 22.48,22.48zm247.31 -22.48c0,12.42 -10.07,22.48 -22.49,22.48 -12.42,0 -22.48,-10.06 -22.48,-22.48 0,-12.41 10.06,-22.49 22.48,-22.49 12.42,0 22.49,10.07 22.49,22.49zm202.35 22.48c12.42,0 22.48,-10.06 22.48,-22.48 0,-12.41 -10.06,-22.49 -22.48,-22.49 -12.42,0 -22.49,10.07 -22.49,22.49 0,12.42 10.07,22.48 22.49,22.48zm247.3 -22.48c0,12.42 -10.06,22.48 -22.48,22.48 -12.42,0 -22.48,-10.06 -22.48,-22.48 0,-12.41 10.06,-22.49 22.48,-22.49 12.42,0 22.48,10.07 22.48,22.49zm202.35 22.48c12.42,0 22.49,-10.06 22.49,-22.48 0,-12.41 -10.07,-22.49 -22.49,-22.49 -12.42,0 -22.48,10.07 -22.48,22.49 0,12.42 10.06,22.48 22.48,22.48zm247.26 -22.48c0,12.42 -10.01,22.48 -22.43,22.48 -12.41,0 -22.49,-10.06 -22.49,-22.48 0,-12.41 10.07,-22.49 22.49,-22.49 12.42,0 22.43,10.07 22.43,22.49zm202.39 22.48c12.4,0 22.5,-10.06 22.5,-22.48 0,-12.41 -10.1,-22.49 -22.5,-22.49 -12.39,0 -22.5,10.07 -22.5,22.49 0,12.42 10.11,22.48 22.5,22.48zm247.29 -22.48c0,12.42 -10,22.48 -22.5,22.48 -12.4,0 -22.5,-10.06 -22.5,-22.48 0,-12.41 10.1,-22.49 22.5,-22.49 12.5,0 22.5,10.07 22.5,22.49zm202.39 22.48c12.4,0 22.4,-10.06 22.4,-22.48 0,-12.41 -10,-22.49 -22.4,-22.49 -12.5,0 -22.5,10.07 -22.5,22.49 0,12.42 10,22.48 22.5,22.48zm224.79 0c-12.39,0 -22.5,-10.11 -22.5,-22.48 0,-12.36 10.11,-22.49 22.5,-22.49l0 44.97zm-2675.43 202.34c0,-12.36 -10.11,-22.48 -22.48,-22.48l0 44.96c12.37,0 22.48,-10.11 22.48,-22.48zm224.83 0c0,12.42 -10.07,22.48 -22.49,22.48 -12.41,0 -22.48,-10.06 -22.48,-22.48 0,-12.41 10.06,-22.48 22.48,-22.48 12.42,0 22.49,10.06 22.49,22.48zm202.34 22.48c12.42,0 22.48,-10.06 22.48,-22.48 0,-12.41 -10.06,-22.48 -22.48,-22.48 -12.42,0 -22.49,10.06 -22.49,22.48 0,12.42 10.07,22.48 22.49,22.48zm247.3 -22.48c0,12.42 -10.06,22.48 -22.48,22.48 -12.42,0 -22.48,-10.06 -22.48,-22.48 0,-12.41 10.06,-22.48 22.48,-22.48 12.42,0 22.48,10.06 22.48,22.48zm202.34 22.48c12.42,0 22.49,-10.06 22.49,-22.48 0,-12.41 -10.07,-22.48 -22.49,-22.48 -12.42,0 -22.48,10.06 -22.48,22.48 0,12.42 10.06,22.48 22.48,22.48zm247.31 -22.48c0,12.42 -10.06,22.48 -22.48,22.48 -12.42,0 -22.49,-10.06 -22.49,-22.48 0,-12.41 10.07,-22.48 22.49,-22.48 12.42,0 22.48,10.06 22.48,22.48zm202.35 22.48c12.42,0 22.48,-10.06 22.48,-22.48 0,-12.41 -10.06,-22.48 -22.48,-22.48 -12.42,0 -22.48,10.06 -22.48,22.48 0,12.42 10.06,22.48 22.48,22.48zm247.31 -22.48c0,12.42 -10.07,22.48 -22.49,22.48 -12.42,0 -22.48,-10.06 -22.48,-22.48 0,-12.41 10.06,-22.48 22.48,-22.48 12.42,0 22.49,10.06 22.49,22.48zm202.34 22.48c12.42,0 22.43,-10.06 22.43,-22.48 0,-12.41 -10.01,-22.48 -22.43,-22.48 -12.41,0 -22.49,10.06 -22.49,22.48 0,12.42 10.07,22.48 22.49,22.48zm247.32 -22.48c0,12.42 -10.1,22.48 -22.5,22.48 -12.39,0 -22.5,-10.06 -22.5,-22.48 0,-12.41 10.11,-22.48 22.5,-22.48 12.4,0 22.5,10.06 22.5,22.48zm202.29 22.48c12.5,0 22.5,-10.06 22.5,-22.48 0,-12.41 -10,-22.48 -22.5,-22.48 -12.4,0 -22.5,10.06 -22.5,22.48 0,12.42 10.1,22.48 22.5,22.48zm247.29 -22.48c0,12.42 -10,22.48 -22.4,22.48 -12.5,0 -22.5,-10.06 -22.5,-22.48 0,-12.41 10,-22.48 22.5,-22.48 12.4,0 22.4,10.06 22.4,22.48zm179.89 0c0,12.37 10.11,22.48 22.5,22.48l0 -44.96c-12.39,0 -22.5,10.11 -22.5,22.48zm-2675.41 202.35c12.37,0 22.48,10.11 22.48,22.48 0,12.37 -10.11,22.49 -22.48,22.49l0 -44.97zm224.82 44.97c12.42,0 22.49,-10.07 22.49,-22.49 0,-12.41 -10.07,-22.48 -22.49,-22.48 -12.41,0 -22.48,10.06 -22.48,22.48 0,12.42 10.06,22.49 22.48,22.49zm247.31 -22.49c0,12.42 -10.06,22.49 -22.48,22.49 -12.42,0 -22.49,-10.07 -22.49,-22.49 0,-12.41 10.07,-22.48 22.49,-22.48 12.42,0 22.48,10.06 22.48,22.48zm202.34 22.49c12.42,0 22.48,-10.07 22.48,-22.49 0,-12.41 -10.06,-22.48 -22.48,-22.48 -12.42,0 -22.48,10.06 -22.48,22.48 0,12.42 10.06,22.49 22.48,22.49zm247.31 -22.49c0,12.42 -10.07,22.49 -22.49,22.49 -12.42,0 -22.48,-10.07 -22.48,-22.49 0,-12.41 10.06,-22.48 22.48,-22.48 12.42,0 22.49,10.06 22.49,22.48zm202.35 22.49c12.42,0 22.48,-10.07 22.48,-22.49 0,-12.41 -10.06,-22.48 -22.48,-22.48 -12.42,0 -22.49,10.06 -22.49,22.48 0,12.42 10.07,22.49 22.49,22.49zm247.3 -22.49c0,12.42 -10.06,22.49 -22.48,22.49 -12.42,0 -22.48,-10.07 -22.48,-22.49 0,-12.41 10.06,-22.48 22.48,-22.48 12.42,0 22.48,10.06 22.48,22.48zm202.35 22.49c12.42,0 22.49,-10.07 22.49,-22.49 0,-12.41 -10.07,-22.48 -22.49,-22.48 -12.42,0 -22.48,10.06 -22.48,22.48 0,12.42 10.06,22.49 22.48,22.49zm247.26 -22.49c0,12.42 -10.01,22.49 -22.43,22.49 -12.41,0 -22.49,-10.07 -22.49,-22.49 0,-12.41 10.07,-22.48 22.49,-22.48 12.42,0 22.43,10.06 22.43,22.48zm202.39 22.49c12.4,0 22.5,-10.07 22.5,-22.49 0,-12.41 -10.1,-22.48 -22.5,-22.48 -12.39,0 -22.5,10.06 -22.5,22.48 0,12.42 10.11,22.49 22.5,22.49zm247.29 -22.49c0,12.42 -10,22.49 -22.5,22.49 -12.4,0 -22.5,-10.07 -22.5,-22.49 0,-12.41 10.1,-22.48 22.5,-22.48 12.5,0 22.5,10.06 22.5,22.48zm202.39 22.49c12.4,0 22.4,-10.07 22.4,-22.49 0,-12.41 -10,-22.48 -22.4,-22.48 -12.5,0 -22.5,10.06 -22.5,22.48 0,12.42 10,22.49 22.5,22.49zm224.79 0c-12.39,0 -22.5,-10.13 -22.5,-22.49 0,-12.36 10.11,-22.48 22.5,-22.48l0 44.97zm-2675.43 202.34c0,-12.36 -10.11,-22.49 -22.48,-22.49l0 44.97c12.37,0 22.48,-10.11 22.48,-22.48zm224.83 0c0,12.42 -10.07,22.48 -22.49,22.48 -12.41,0 -22.48,-10.06 -22.48,-22.48 0,-12.42 10.06,-22.49 22.48,-22.49 12.42,0 22.49,10.07 22.49,22.49zm202.34 22.48c12.42,0 22.48,-10.06 22.48,-22.48 0,-12.42 -10.06,-22.49 -22.48,-22.49 -12.42,0 -22.49,10.07 -22.49,22.49 0,12.42 10.07,22.48 22.49,22.48zm247.3 -22.48c0,12.42 -10.06,22.48 -22.48,22.48 -12.42,0 -22.48,-10.06 -22.48,-22.48 0,-12.42 10.06,-22.49 22.48,-22.49 12.42,0 22.48,10.07 22.48,22.49zm202.34 22.48c12.42,0 22.49,-10.06 22.49,-22.48 0,-12.42 -10.07,-22.49 -22.49,-22.49 -12.42,0 -22.48,10.07 -22.48,22.49 0,12.42 10.06,22.48 22.48,22.48zm247.31 -22.48c0,12.42 -10.06,22.48 -22.48,22.48 -12.42,0 -22.49,-10.06 -22.49,-22.48 0,-12.42 10.07,-22.49 22.49,-22.49 12.42,0 22.48,10.07 22.48,22.49zm202.35 22.48c12.42,0 22.48,-10.06 22.48,-22.48 0,-12.42 -10.06,-22.49 -22.48,-22.49 -12.42,0 -22.48,10.07 -22.48,22.49 0,12.42 10.06,22.48 22.48,22.48zm247.31 -22.48c0,12.42 -10.07,22.48 -22.49,22.48 -12.42,0 -22.48,-10.06 -22.48,-22.48 0,-12.42 10.06,-22.49 22.48,-22.49 12.42,0 22.49,10.07 22.49,22.49zm202.34 22.48c12.42,0 22.43,-10.06 22.43,-22.48 0,-12.42 -10.01,-22.49 -22.43,-22.49 -12.41,0 -22.49,10.07 -22.49,22.49 0,12.42 10.07,22.48 22.49,22.48zm247.32 -22.48c0,12.42 -10.1,22.48 -22.5,22.48 -12.39,0 -22.5,-10.06 -22.5,-22.48 0,-12.42 10.11,-22.49 22.5,-22.49 12.4,0 22.5,10.07 22.5,22.49zm202.29 22.48c12.5,0 22.5,-10.06 22.5,-22.48 0,-12.42 -10,-22.49 -22.5,-22.49 -12.4,0 -22.5,10.07 -22.5,22.49 0,12.42 10.1,22.48 22.5,22.48zm247.29 -22.48c0,12.42 -10,22.48 -22.4,22.48 -12.5,0 -22.5,-10.06 -22.5,-22.48 0,-12.42 10,-22.49 22.5,-22.49 12.4,0 22.4,10.07 22.4,22.49zm179.89 0c0,12.37 10.11,22.48 22.5,22.48l0 -44.97c-12.39,0 -22.5,10.13 -22.5,22.49zm-2675.41 224.82l0 -22.48c12.37,0 22.48,10.12 22.48,22.48l-22.48 0zm224.82 -22.48c-12.36,0 -22.48,10.12 -22.48,22.48l44.97 0c0,-12.36 -10.13,-22.48 -22.49,-22.48zm202.35 22.48c0,-12.36 10.12,-22.48 22.49,-22.48 12.37,0 22.48,10.12 22.48,22.48l-44.97 0zm247.31 -22.48c-12.37,0 -22.48,10.12 -22.48,22.48l44.96 0c0,-12.36 -10.11,-22.48 -22.48,-22.48zm202.34 22.48c0,-12.36 10.11,-22.48 22.48,-22.48 12.37,0 22.49,10.12 22.49,22.48l-44.97 0zm247.31 -22.48c-12.37,0 -22.49,10.12 -22.49,22.48l44.97 0c0,-12.36 -10.11,-22.48 -22.48,-22.48zm202.34 22.48c0,-12.36 10.11,-22.48 22.48,-22.48 12.36,0 22.48,10.12 22.48,22.48l-44.96 0zm247.3 -22.48c-12.37,0 -22.48,10.12 -22.48,22.48l44.97 0c0,-12.36 -10.13,-22.48 -22.49,-22.48zm202.34 22.48c0,-12.36 10.13,-22.48 22.49,-22.48 12.37,0 22.43,10.12 22.43,22.48l-44.92 0zm247.31 -22.48c-12.39,0 -22.5,10.12 -22.5,22.48l45 0c0,-12.36 -10.1,-22.48 -22.5,-22.48zm202.29 22.48c0,-12.36 10.2,-22.48 22.5,-22.48 12.39,0 22.5,10.12 22.5,22.48l-45 0zm247.39 -22.48c-12.39,0 -22.5,10.12 -22.5,22.48l44.9 0c0,-12.36 -10.11,-22.48 -22.4,-22.48zm202.29 22.48c0,-12.36 10.11,-22.48 22.5,-22.48l0 22.48 -22.5 0z"/>
 </g>
</svg>
