<?xml version="1.0" encoding="UTF-8"?>
<!DOCTYPE svg PUBLIC "-//W3C//DTD SVG 1.1//EN" "http://www.w3.org/Graphics/SVG/1.1/DTD/svg11.dtd">
<!-- Creator: CorelDRAW 2019 (64-Bit) -->
<svg xmlns="http://www.w3.org/2000/svg" xml:space="preserve" width="1.61453in" height="0.5025in" version="1.1" style="shape-rendering:geometricPrecision; text-rendering:geometricPrecision; image-rendering:optimizeQuality; fill-rule:evenodd; clip-rule:evenodd"
viewBox="0 0 1617.59 503.45"
 xmlns:xlink="http://www.w3.org/1999/xlink"
 xmlns:xodm="http://www.corel.com/coreldraw/odm/2003">
 <defs>
  <style type="text/css">
   <![CDATA[
    .str0 {stroke:#231F20;stroke-width:6.12;stroke-linecap:round;stroke-linejoin:round;stroke-miterlimit:2.61313}
    .fil6 {fill:none;fill-rule:nonzero}
    .fil3 {fill:#030000}
    .fil5 {fill:#231F20}
    .fil1 {fill:#33DC76}
    .fil2 {fill:#3A9960}
    .fil0 {fill:black;fill-rule:nonzero}
    .fil4 {fill:#231F20;fill-rule:nonzero}
   ]]>
  </style>
 </defs>
 <g id="Layer_x0020_1">
  <metadata id="CorelCorpID_0Corel-Layer"/>
  <g id="_00-Logo">
   <g id="Layer_x0020_x0020_x0020_1">
    <g id="_1108079311200">
     <g id="Group">
      <path id="Vector_2" class="fil0" d="M240.71 498.08c131.57,0 238.23,-108.44 238.23,-242.22 0,-133.78 -106.66,-242.23 -238.23,-242.23 -131.58,0 -238.23,108.45 -238.23,242.23 0,133.78 106.65,242.22 238.23,242.22z"/>
      <g id="Group_2">
       <polygon id="Vector_3" class="fil1" points="183.12,10.11 186.76,9.69 190.44,9.36 194.17,9.14 197.92,9.01 201.71,8.97 205.52,9.03 209.36,9.17 213.2,9.4 217.06,9.72 220.93,10.11 224.8,10.59 228.67,11.14 232.53,11.76 236.38,12.46 240.21,13.23 244.03,14.06 247.82,14.97 251.57,15.92 255.3,16.94 258.98,18.02 262.62,19.15 266.2,20.34 269.74,21.57 273.21,22.86 276.63,24.19 279.97,25.56 283.25,26.97 286.44,28.42 289.56,29.9 292.59,31.42 295.52,32.96 298.36,34.55 299.84,35.39 301.29,36.24 302.74,37.1 304.18,37.97 305.6,38.83 307.01,39.71 308.41,40.59 309.79,41.49 311.17,42.38 312.53,43.28 313.89,44.19 315.22,45.1 316.55,46.02 317.86,46.94 319.16,47.87 320.44,48.81 321.71,49.75 322.97,50.69 324.22,51.64 325.45,52.6 326.67,53.56 327.86,54.53 329.06,55.5 330.23,56.47 331.39,57.45 332.53,58.43 333.66,59.42 334.78,60.42 335.86,61.41 336.95,62.41 338.02,63.42 339.07,64.42 340.27,65.58 341.42,66.7 342.53,67.79 343.6,68.85 344.63,69.88 345.63,70.89 346.6,71.87 347.53,72.84 348.44,73.79 349.33,74.72 350.19,75.65 351.02,76.56 351.85,77.47 352.65,78.37 353.44,79.27 354.23,80.18 354.99,81.07 355.76,81.99 356.52,82.91 357.27,83.85 358.04,84.79 358.79,85.76 359.55,86.74 360.33,87.74 361.1,88.77 361.9,89.83 362.7,90.92 363.53,92.04 364.37,93.19 365.23,94.38 366.11,95.61 367.01,96.88 367.26,97.23 367.49,97.56 367.7,97.91 367.92,98.24 368.12,98.58 368.34,98.92 368.55,99.27 368.76,99.63 370.18,102.47 373.71,106.56 377.15,110.73 380.48,114.98 383.73,119.3 386.87,123.69 389.91,128.15 392.85,132.69 395.68,137.3 398.4,141.99 401.02,146.73 403.52,151.55 405.89,156.44 408.16,161.39 410.3,166.4 412.32,171.48 414.22,176.62 415.98,181.83 417.61,187.1 419.11,192.42 420.48,197.8 421.7,203.25 422.79,208.75 423.73,214.3 424.54,219.91 425.19,225.57 425.69,231.29 426.04,237.05 426.23,242.87 426.28,248.74 426.15,254.64 425.87,260.61 425.42,266.61 424.66,273.91 423.67,281.14 422.45,288.3 421.01,295.38 419.35,302.38 417.49,309.3 415.41,316.13 413.12,322.86 410.63,329.5 407.95,336.03 405.07,342.45 402,348.76 398.75,354.96 395.31,361.03 391.69,366.98 387.91,372.78 383.95,378.47 379.82,384.01 375.54,389.41 371.1,394.65 366.5,399.74 361.76,404.68 356.87,409.44 351.84,414.05 346.67,418.48 341.37,422.74 335.94,426.82 330.39,430.71 324.72,434.42 318.92,437.92 313.02,441.24 307.01,444.34 305.78,444.94 304.58,445.53 303.39,446.1 302.19,446.67 301,447.22 299.81,447.76 298.62,448.3 297.44,448.83 296.25,449.34 295.07,449.85 293.89,450.34 292.7,450.84 291.51,451.32 290.31,451.8 289.11,452.28 287.91,452.74 286.7,453.19 285.49,453.65 284.27,454.1 283.04,454.54 281.79,454.98 280.54,455.41 279.28,455.84 278.01,456.27 276.73,456.69 275.43,457.11 274.12,457.54 272.78,457.95 271.45,458.36 270.09,458.77 268.71,459.19 267.31,459.6 264.57,460.38 261.77,461.1 258.94,461.79 256.08,462.43 253.17,463.03 250.23,463.58 247.26,464.09 244.27,464.54 241.24,464.96 238.19,465.33 235.13,465.65 232.03,465.93 228.93,466.16 225.81,466.35 222.67,466.49 219.52,466.58 216.37,466.62 213.21,466.63 210.05,466.58 206.88,466.49 203.72,466.35 200.55,466.17 197.4,465.94 194.25,465.66 191.11,465.34 187.97,464.97 184.86,464.55 181.76,464.09 178.68,463.57 175.62,463.02 172.58,462.41 169.56,461.76 165.92,460.9 162.32,460 158.78,459.04 155.31,458.03 151.87,456.98 148.5,455.87 145.18,454.71 141.89,453.51 138.67,452.26 135.49,450.96 132.34,449.61 129.25,448.21 126.2,446.77 123.2,445.28 120.23,443.75 117.3,442.17 114.41,440.54 111.55,438.86 108.74,437.14 105.95,435.38 103.2,433.57 100.47,431.72 97.77,429.83 95.11,427.88 92.47,425.9 89.86,423.88 87.28,421.81 84.72,419.7 82.18,417.55 79.65,415.36 77.16,413.13 74.67,410.85 74.22,410.43 73.76,409.99 73.3,409.56 72.84,409.12 72.37,408.68 71.92,408.23 71.46,407.78 71,407.34 70.54,406.88 70.09,406.43 69.64,405.98 69.2,405.54 68.75,405.08 68.31,404.64 67.88,404.19 67.45,403.76 66.81,403.07 66.13,402.34 65.42,401.57 64.69,400.75 63.93,399.89 63.15,399 62.36,398.08 61.55,397.12 60.72,396.14 59.88,395.13 59.04,394.1 58.18,393.06 57.32,391.99 56.46,390.92 55.59,389.84 54.73,388.74 53.87,387.65 53.03,386.55 52.18,385.45 51.35,384.37 50.54,383.29 49.74,382.22 48.95,381.17 48.2,380.12 47.46,379.12 46.74,378.12 46.06,377.15 45.41,376.21 44.79,375.31 44.2,374.43 43.65,373.59 43.14,372.8 42.82,372.3 42.51,371.79 42.2,371.29 41.9,370.78 41.6,370.28 41.3,369.78 40.99,369.27 40.7,368.78 40.38,368.28 40.06,367.8 39.74,367.32 39.41,366.83 39.06,366.36 38.7,365.9 38.32,365.44 37.93,364.98 35.12,362.21 34.15,360.9 33.24,359.66 32.36,358.48 31.52,357.35 30.7,356.26 29.91,355.2 29.14,354.14 28.36,353.1 27.59,352.03 26.81,350.94 26.03,349.81 25.21,348.63 24.37,347.39 23.5,346.08 22.59,344.67 21.63,343.17 8.03,319.42 15.65,344.06 16.27,345.58 16.87,347.05 17.45,348.47 18.01,349.85 18.55,351.19 19.08,352.49 19.59,353.76 20.09,355 20.58,356.22 21.07,357.4 21.55,358.58 22.03,359.73 22.52,360.86 23,361.99 23.49,363.12 23.99,364.25 24.49,365.37 25.01,366.49 25.54,367.63 26.1,368.78 26.67,369.94 27.26,371.12 27.87,372.32 28.51,373.55 29.18,374.8 29.88,376.09 30.61,377.4 31.38,378.76 32.18,380.16 33.03,381.61 33.91,383.1 34.85,384.65 35.11,385.1 35.4,385.6 35.7,386.12 36.02,386.67 36.34,387.24 36.66,387.83 37,388.42 37.34,389.01 37.68,389.59 38.02,390.15 38.35,390.7 38.69,391.21 39.01,391.69 39.32,392.12 39.63,392.5 39.91,392.83 40.25,392.94 40.78,393.3 41.47,393.89 42.31,394.65 43.27,395.58 44.31,396.63 45.41,397.77 46.55,398.96 47.69,400.17 48.81,401.37 49.89,402.53 50.89,403.61 51.79,404.58 52.57,405.41 53.19,406.06 53.62,406.5 54.54,407.4 55.46,408.29 56.39,409.18 57.32,410.06 58.25,410.95 59.19,411.83 60.13,412.7 61.08,413.59 62.04,414.45 63.01,415.32 63.98,416.19 64.97,417.05 65.96,417.9 66.98,418.75 68,419.61 69.03,420.45 72.45,423.17 75.9,425.82 79.39,428.41 82.9,430.95 86.45,433.41 90.04,435.81 93.65,438.14 97.31,440.41 100.99,442.61 104.71,444.74 108.47,446.81 112.26,448.8 116.1,450.73 119.96,452.59 123.87,454.37 127.82,456.08 131.8,457.73 135.83,459.3 139.89,460.8 143.99,462.22 148.13,463.57 152.32,464.85 156.55,466.05 160.82,467.16 165.13,468.21 169.49,469.18 173.88,470.07 178.33,470.88 182.81,471.62 187.35,472.27 191.93,472.84 196.55,473.33 200.91,473.7 205.29,474 209.7,474.21 214.12,474.33 218.56,474.38 223,474.33 227.47,474.21 231.93,474.01 236.4,473.72 240.87,473.35 245.33,472.9 249.79,472.38 254.24,471.76 258.68,471.08 263.11,470.31 267.51,469.47 271.9,468.54 276.26,467.55 280.6,466.47 284.91,465.32 289.18,464.09 293.41,462.79 297.62,461.41 301.77,459.96 305.88,458.43 309.94,456.83 313.96,455.16 317.92,453.41 321.82,451.6 325.66,449.71 329.44,447.75 333.15,445.72 334.65,444.87 336.14,444.03 337.61,443.18 339.07,442.33 340.52,441.49 341.95,440.64 343.37,439.8 344.78,438.94 346.18,438.09 347.58,437.24 348.95,436.37 350.32,435.51 351.68,434.64 353.03,433.76 354.38,432.88 355.71,431.99 357.03,431.11 358.36,430.2 359.67,429.29 360.98,428.38 362.28,427.45 363.57,426.52 364.86,425.57 366.15,424.62 367.43,423.64 368.71,422.67 369.98,421.68 371.25,420.68 372.52,419.66 373.79,418.63 375.05,417.59 376.31,416.53 377.96,415.12 379.62,413.69 381.28,412.22 382.96,410.71 384.63,409.18 386.31,407.62 388,406.02 389.67,404.41 391.35,402.77 393.02,401.1 394.7,399.41 396.36,397.7 398.01,395.97 399.65,394.22 401.28,392.45 402.9,390.66 404.51,388.86 406.1,387.05 407.66,385.23 409.21,383.39 410.73,381.54 412.24,379.68 413.72,377.82 415.16,375.94 416.59,374.07 417.98,372.2 419.34,370.32 420.67,368.44 421.96,366.56 423.21,364.68 424.43,362.81 425.61,360.94 427.15,358.43 428.68,355.92 430.18,353.42 431.65,350.9 433.1,348.4 434.53,345.89 435.93,343.36 437.31,340.83 438.66,338.29 439.98,335.73 441.28,333.17 442.55,330.59 443.8,327.99 445.03,325.38 446.22,322.73 447.39,320.07 448.54,317.38 449.66,314.66 450.75,311.92 451.8,309.14 452.84,306.33 453.84,303.49 454.82,300.61 455.78,297.69 456.7,294.74 457.59,291.74 458.45,288.69 459.29,285.6 460.1,282.46 460.88,279.28 461.63,276.04 462.34,272.75 463.04,269.32 463.69,265.9 464.3,262.49 464.86,259.08 465.38,255.67 465.84,252.26 466.26,248.87 466.64,245.48 466.97,242.09 467.25,238.7 467.5,235.32 467.69,231.95 467.85,228.59 467.96,225.23 468.02,221.87 468.05,218.53 468.02,215.19 467.96,211.86 467.85,208.55 467.7,205.23 467.51,201.93 467.28,198.63 467.01,195.34 466.69,192.07 466.34,188.81 465.94,185.54 465.51,182.3 465.03,179.06 464.52,175.84 463.96,172.63 463.36,169.42 462.73,166.24 462.21,163.72 461.66,161.24 461.1,158.79 460.51,156.37 459.91,153.97 459.28,151.6 458.64,149.25 457.98,146.93 457.3,144.63 456.6,142.34 455.87,140.08 455.13,137.83 454.37,135.61 453.59,133.39 452.79,131.2 451.97,129 451.13,126.83 450.26,124.67 449.38,122.51 448.48,120.36 447.55,118.22 446.6,116.08 445.64,113.94 444.65,111.81 443.64,109.68 442.61,107.55 441.56,105.42 440.49,103.29 439.4,101.15 438.28,99.01 437.15,96.86 435.99,94.7 435.73,94.24 435.41,93.72 435.06,93.15 434.68,92.54 434.27,91.91 433.85,91.25 433.44,90.58 433.03,89.91 432.65,89.26 432.29,88.62 431.97,88.02 431.72,87.45 431.51,86.94 431.38,86.47 431.34,86.08 431.38,85.76 410.9,63.84 410.41,63.36 409.89,62.84 409.32,62.31 408.71,61.74 408.06,61.15 407.39,60.54 406.67,59.9 405.93,59.25 405.16,58.58 404.37,57.9 403.56,57.21 402.73,56.51 401.89,55.8 401.03,55.08 400.17,54.38 399.3,53.66 398.43,52.95 397.56,52.25 396.69,51.55 395.82,50.86 394.97,50.18 394.14,49.52 393.31,48.88 392.5,48.26 391.71,47.65 390.94,47.07 390.2,46.51 389.48,45.99 388.8,45.49 388.16,45.02 387.54,44.59 386.98,44.21 385.31,43.07 383.64,41.95 381.96,40.84 380.27,39.73 378.57,38.63 376.87,37.54 375.15,36.45 373.43,35.37 371.69,34.31 369.96,33.24 368.2,32.19 366.45,31.16 364.68,30.14 362.9,29.13 361.12,28.14 359.33,27.15 357.53,26.19 355.72,25.24 353.9,24.31 352.07,23.39 350.23,22.5 348.4,21.62 346.55,20.76 344.68,19.92 342.81,19.1 340.93,18.3 339.05,17.52 337.15,16.77 335.25,16.04 333.34,15.33 331.42,14.65 329.49,14 327.7,13.41 325.92,12.83 324.14,12.27 322.38,11.71 320.62,11.17 318.86,10.64 317.1,10.12 315.35,9.61 313.61,9.12 311.87,8.64 310.13,8.16 308.39,7.7 306.67,7.26 304.93,6.83 303.2,6.41 301.48,6 299.75,5.6 298.03,5.22 296.3,4.86 294.58,4.5 292.86,4.15 291.14,3.82 289.41,3.5 287.69,3.2 285.97,2.91 284.23,2.63 282.51,2.36 280.77,2.11 279.04,1.88 277.3,1.66 275.55,1.45 273.81,1.25 262.75,0.35 261.91,0.3 261.06,0.26 260.21,0.22 259.37,0.18 258.51,0.15 257.67,0.12 256.82,0.1 255.96,0.07 255.11,0.06 254.25,0.04 253.39,0.02 252.53,0.02 251.67,0.01 250.81,0 249.94,0 249.07,0.01 248.2,0.02 247.33,0.03 246.45,0.04 245.58,0.06 244.7,0.07 243.82,0.1 242.94,0.13 242.05,0.16 241.17,0.19 240.28,0.23 239.38,0.26 238.49,0.31 237.6,0.36 236.69,0.41 235.79,0.47 234.89,0.52 233.79,0.6 232.69,0.67 231.59,0.76 230.47,0.84 229.36,0.93 228.24,1.03 227.11,1.13 225.98,1.23 224.85,1.34 223.71,1.45 222.57,1.57 221.44,1.69 220.3,1.82 219.16,1.95 218.02,2.09 216.88,2.23 215.74,2.38 214.61,2.53 213.47,2.68 212.35,2.85 211.22,3.02 210.1,3.19 208.98,3.37 207.87,3.56 206.77,3.75 205.67,3.94 204.58,4.15 203.49,4.36 202.42,4.57 201.34,4.8 200.28,5.02 199.24,5.26 198.66,5.38 197.9,5.54 196.99,5.73 195.94,5.94 194.79,6.19 193.57,6.46 192.29,6.75 191,7.06 189.71,7.4 188.46,7.75 187.26,8.12 186.16,8.49 185.16,8.89 184.31,9.29 183.62,9.7 "/>
       <polygon id="Vector_4" class="fil2" points="39.89,392.85 41.28,395.1 42.73,397.37 44.23,399.63 45.79,401.91 47.4,404.17 49.05,406.44 50.77,408.71 52.51,410.96 54.31,413.21 56.14,415.46 58,417.69 59.91,419.91 61.85,422.11 63.82,424.3 65.82,426.46 67.85,428.61 69.9,430.73 71.97,432.83 74.07,434.91 76.17,436.95 78.3,438.97 80.44,440.95 82.59,442.9 84.75,444.81 86.91,446.69 89.08,448.53 91.25,450.32 93.42,452.08 95.59,453.78 97.74,455.44 99.9,457.05 102.04,458.62 104.39,460.27 106.77,461.92 109.18,463.56 111.63,465.18 114.11,466.78 116.62,468.35 119.17,469.91 121.75,471.45 124.37,472.96 127.02,474.45 129.71,475.92 132.44,477.36 135.2,478.77 138.01,480.15 140.84,481.51 143.71,482.83 146.62,484.12 149.58,485.38 152.57,486.61 155.6,487.79 158.67,488.94 161.77,490.06 164.92,491.14 168.11,492.17 171.34,493.16 174.62,494.11 177.93,495.02 181.28,495.88 184.68,496.7 188.12,497.47 191.61,498.19 195.14,498.86 196.13,499.04 197.14,499.23 198.17,499.42 199.19,499.61 200.23,499.8 201.28,500 202.33,500.19 203.39,500.39 204.46,500.58 205.54,500.77 206.62,500.96 207.71,501.15 208.8,501.33 209.91,501.51 211.02,501.68 212.13,501.85 225.28,503.17 229.01,503.31 232.68,503.4 236.33,503.45 239.92,503.45 243.5,503.41 247.02,503.32 250.53,503.18 254.01,503 257.45,502.77 260.88,502.49 264.28,502.17 267.67,501.8 271.03,501.37 274.38,500.91 277.71,500.39 281.04,499.83 284.36,499.22 287.67,498.56 290.97,497.86 294.27,497.11 297.58,496.31 300.88,495.46 304.19,494.56 307.5,493.61 310.82,492.62 314.16,491.58 317.51,490.48 320.87,489.35 324.25,488.16 327.65,486.92 331.07,485.64 334.51,484.3 337.55,483.07 340.59,481.77 343.63,480.4 346.67,478.97 349.71,477.47 352.74,475.91 355.77,474.3 358.78,472.61 361.79,470.89 364.77,469.1 367.75,467.26 370.72,465.38 373.66,463.44 376.58,461.46 379.48,459.43 382.37,457.37 385.22,455.27 388.04,453.12 390.83,450.94 393.6,448.73 396.33,446.49 399.03,444.21 401.69,441.91 404.31,439.58 406.9,437.23 409.44,434.85 411.93,432.47 414.38,430.05 416.79,427.62 419.14,425.18 421.44,422.73 423.69,420.27 424.19,419.72 424.68,419.17 425.16,418.63 425.64,418.09 426.11,417.57 426.57,417.03 427.04,416.51 427.49,415.98 427.95,415.46 428.41,414.92 428.87,414.38 429.32,413.84 429.78,413.29 430.24,412.73 430.7,412.16 431.18,411.58 432.04,410.5 432.87,409.45 433.68,408.44 434.46,407.46 435.2,406.51 435.92,405.57 436.62,404.68 437.29,403.79 437.95,402.93 438.59,402.07 439.21,401.23 439.82,400.4 440.43,399.58 441.02,398.76 441.6,397.94 442.18,397.12 442.76,396.29 443.32,395.46 443.9,394.62 444.47,393.76 445.05,392.89 445.64,392.01 446.24,391.1 446.84,390.17 447.46,389.2 448.09,388.22 448.74,387.2 449.41,386.14 450.1,385.05 450.81,383.92 451.54,382.74 452.3,381.52 455.47,376.27 458.5,370.93 461.38,365.51 464.13,360.02 466.74,354.46 469.21,348.82 471.53,343.11 473.72,337.35 475.77,331.53 477.68,325.66 479.44,319.74 481.06,313.78 482.54,307.78 483.88,301.74 485.08,295.67 486.14,289.58 487.05,283.47 487.82,277.32 488.45,271.17 488.94,265.01 489.28,258.84 489.49,252.67 489.55,246.5 489.47,240.33 489.25,234.18 488.88,228.04 488.37,221.92 487.72,215.82 486.93,209.75 485.98,203.71 484.91,197.7 483.68,191.73 483.02,188.78 482.31,185.84 481.58,182.91 480.8,179.99 479.99,177.08 479.14,174.18 478.26,171.3 477.34,168.43 476.38,165.57 475.39,162.73 474.37,159.9 473.31,157.08 472.22,154.28 471.1,151.49 469.94,148.72 468.75,145.96 467.53,143.22 466.28,140.49 464.99,137.78 463.68,135.08 462.33,132.4 460.97,129.74 459.56,127.09 458.13,124.46 456.67,121.85 455.18,119.25 453.67,116.67 452.12,114.12 450.55,111.58 448.96,109.05 447.33,106.55 445.68,104.07 445.25,103.45 444.81,102.89 444.39,102.37 443.96,101.86 443.55,101.36 443.13,100.84 442.71,100.27 442.29,99.66 431.35,85.78 431.31,86.09 431.35,86.48 431.48,86.94 431.68,87.46 431.95,88.03 432.26,88.63 432.62,89.27 433,89.92 433.41,90.6 433.82,91.26 434.24,91.91 434.65,92.55 435.03,93.16 435.39,93.73 435.7,94.25 435.96,94.71 437.12,96.86 438.25,99.01 439.37,101.16 440.46,103.29 441.54,105.43 442.58,107.56 443.62,109.69 444.62,111.82 445.61,113.95 446.58,116.09 447.52,118.23 448.45,120.37 449.35,122.52 450.23,124.67 451.1,126.84 451.94,129.02 452.75,131.2 453.56,133.4 454.34,135.61 455.11,137.84 455.85,140.09 456.56,142.36 457.26,144.63 457.95,146.94 458.62,149.27 459.25,151.61 459.88,153.98 460.48,156.38 461.06,158.81 461.63,161.25 462.18,163.74 462.71,166.25 463.34,169.44 463.93,172.64 464.49,175.85 465,179.08 465.48,182.31 465.91,185.56 466.31,188.81 466.67,192.08 466.98,195.36 467.25,198.64 467.48,201.94 467.68,205.24 467.82,208.55 467.93,211.87 467.99,215.2 468.01,218.54 467.99,221.89 467.93,225.24 467.82,228.59 467.66,231.96 467.46,235.34 467.23,238.72 466.93,242.1 466.61,245.48 466.24,248.88 465.81,252.28 465.34,255.68 464.83,259.09 464.27,262.5 463.66,265.92 463.01,269.34 462.3,272.76 461.59,276.05 460.85,279.29 460.06,282.48 459.26,285.62 458.43,288.7 457.56,291.75 456.67,294.75 455.74,297.71 454.79,300.62 453.82,303.5 452.81,306.35 451.78,309.16 450.72,311.93 449.63,314.67 448.51,317.39 447.37,320.08 446.19,322.74 445,325.38 443.78,328 442.53,330.6 441.25,333.18 439.95,335.75 438.63,338.3 437.28,340.85 435.9,343.37 434.5,345.89 433.07,348.4 431.62,350.92 430.14,353.43 428.65,355.93 427.13,358.44 425.58,360.95 424.4,362.82 423.19,364.69 421.93,366.57 420.63,368.45 419.31,370.33 417.95,372.21 416.56,374.09 415.14,375.96 413.69,377.83 412.21,379.69 410.71,381.55 409.18,383.39 407.63,385.23 406.07,387.06 404.48,388.87 402.88,390.67 401.26,392.46 399.63,394.22 397.98,395.98 396.32,397.71 394.67,399.42 393,401.11 391.32,402.77 389.64,404.42 387.96,406.04 386.29,407.63 384.61,409.19 382.93,410.73 381.26,412.22 379.59,413.7 377.94,415.14 376.29,416.54 375.02,417.6 373.76,418.64 372.49,419.67 371.22,420.69 369.96,421.69 368.68,422.68 367.4,423.66 366.12,424.62 364.83,425.58 363.54,426.53 362.25,427.46 360.95,428.39 359.64,429.3 358.33,430.21 357.01,431.11 355.68,432.01 354.34,432.9 353.01,433.78 351.65,434.65 350.3,435.52 348.92,436.38 347.55,437.24 346.16,438.1 344.75,438.96 343.35,439.8 341.93,440.66 340.49,441.5 339.04,442.34 337.58,443.19 336.11,444.03 334.63,444.88 333.12,445.73 329.41,447.76 325.63,449.72 321.79,451.61 317.88,453.43 313.92,455.18 309.92,456.85 305.85,458.44 301.74,459.97 297.58,461.42 293.39,462.8 289.15,464.11 284.88,465.33 280.57,466.49 276.23,467.56 271.87,468.56 267.49,469.48 263.08,470.33 258.65,471.09 254.21,471.77 249.76,472.39 245.3,472.91 240.84,473.36 236.36,473.73 231.9,474.02 227.43,474.22 222.98,474.35 218.53,474.39 214.09,474.35 209.67,474.22 205.27,474.01 200.88,473.72 196.52,473.34 191.9,472.85 187.32,472.28 182.79,471.63 178.29,470.89 173.86,470.08 169.45,469.19 165.1,468.22 160.78,467.18 156.52,466.06 152.29,464.86 148.11,463.58 143.96,462.23 139.86,460.81 135.79,459.31 131.77,457.74 127.79,456.1 123.84,454.38 119.94,452.6 116.07,450.74 112.24,448.82 108.45,446.81 104.69,444.75 100.96,442.62 97.27,440.42 93.63,438.15 90,435.82 86.43,433.41 82.87,430.95 79.35,428.42 75.88,425.83 72.42,423.18 69,420.46 67.97,419.61 66.94,418.76 65.94,417.91 64.94,417.05 63.96,416.19 62.98,415.33 62.01,414.47 61.06,413.59 60.11,412.72 59.16,411.84 58.22,410.95 57.29,410.08 56.36,409.19 55.43,408.3 54.51,407.4 53.59,406.51 53.16,406.07 52.54,405.42 51.76,404.6 50.86,403.62 49.86,402.54 48.78,401.39 47.66,400.18 46.52,398.97 45.39,397.77 44.28,396.64 43.24,395.6 42.28,394.67 41.44,393.9 40.75,393.32 40.22,392.96 "/>
       <polygon id="Vector_5" class="fil2" points="183.11,10.1 182.55,10.04 181.84,10.06 180.98,10.17 179.98,10.36 178.86,10.61 177.63,10.95 176.29,11.34 174.87,11.79 173.36,12.3 171.77,12.85 170.13,13.45 168.44,14.08 166.71,14.74 164.94,15.42 163.16,16.13 161.36,16.86 159.57,17.59 157.79,18.33 156.04,19.08 154.32,19.81 152.63,20.55 151,21.25 149.43,21.94 147.93,22.61 146.53,23.24 145.22,23.83 144.01,24.39 142.92,24.9 141.94,25.35 141.11,25.75 140.42,26.08 139.9,26.36 138.8,26.92 137.68,27.52 136.53,28.13 135.35,28.76 134.16,29.41 132.96,30.08 131.73,30.77 130.49,31.46 129.24,32.18 127.98,32.9 126.72,33.64 125.44,34.39 124.16,35.15 122.88,35.91 121.6,36.69 120.33,37.47 119.06,38.27 117.8,39.07 116.54,39.86 115.3,40.67 114.07,41.48 112.86,42.28 111.66,43.1 110.49,43.91 109.33,44.71 108.2,45.52 107.1,46.33 106.02,47.12 104.98,47.91 103.96,48.71 102.99,49.49 102.04,50.26 73.15,75.62 70.64,78.11 68.12,80.71 65.62,83.42 63.13,86.23 60.65,89.15 58.19,92.15 55.76,95.25 53.35,98.42 50.97,101.67 48.62,104.98 46.29,108.36 44.01,111.8 41.76,115.28 39.57,118.81 37.41,122.38 35.31,125.98 33.25,129.61 31.25,133.26 29.31,136.92 27.43,140.58 25.61,144.26 23.85,147.93 22.18,151.58 20.57,155.23 19.03,158.85 17.57,162.45 16.2,166 14.91,169.53 13.7,173.01 12.59,176.43 11.57,179.8 10.64,183.11 4.15,210.51 4.06,210.95 4,211.38 3.92,211.81 3.87,212.24 3.81,212.67 3.77,213.1 3.72,213.53 3.68,213.96 3.64,214.39 3.59,214.82 3.54,215.25 3.49,215.68 3.42,216.11 3.35,216.55 3.26,216.99 3.16,217.42 3.09,217.72 3.03,218.03 2.95,218.37 2.88,218.71 2.82,219.08 2.75,219.47 2.67,219.86 2.59,220.28 2.52,220.71 2.45,221.15 2.38,221.6 2.3,222.07 2.23,222.55 2.16,223.04 2.09,223.53 2.01,224.04 0.65,237.11 0.62,237.57 0.61,238.03 0.6,238.45 0.58,238.86 0.58,239.24 0.58,239.61 0.58,239.95 0.59,240.26 0.62,241.11 0.63,241.98 0.63,242.89 0.62,243.82 0.6,244.76 0.57,245.71 0.53,246.68 0.49,247.65 0.45,248.62 0.39,249.58 0.34,250.55 0.28,251.49 0.23,252.41 0.17,253.32 0.12,254.2 0.07,255.05 0.03,255.86 0.01,256.68 -0,257.54 0.01,258.42 0.03,259.31 0.06,260.21 0.09,261.12 0.13,262.04 0.18,262.95 0.23,263.86 0.28,264.77 0.33,265.66 0.37,266.54 0.41,267.4 0.45,268.24 0.47,269.05 0.5,270.24 0.57,271.51 0.64,272.85 0.73,274.25 0.84,275.7 0.96,277.22 1.1,278.79 1.25,280.4 1.42,282.04 1.59,283.73 1.79,285.44 2,287.19 2.21,288.94 2.45,290.72 2.69,292.5 2.94,294.28 3.2,296.07 3.48,297.85 3.76,299.62 4.05,301.37 4.35,303.12 4.65,304.82 4.97,306.51 5.29,308.15 5.61,309.75 5.94,311.31 6.28,312.82 6.62,314.27 6.97,315.66 7.32,316.99 7.67,318.24 8.02,319.42 21.62,343.15 22.58,344.66 23.49,346.07 24.36,347.38 25.2,348.62 26.01,349.8 26.81,350.93 27.58,352.02 28.35,353.09 29.12,354.14 29.9,355.19 30.7,356.25 31.51,357.34 32.36,358.47 33.23,359.65 34.14,360.89 35.11,362.2 37.92,364.97 37.67,364.34 37.4,363.68 37.11,363 36.78,362.29 36.44,361.55 36.08,360.79 35.69,360 35.29,359.18 34.87,358.33 34.44,357.46 33.99,356.58 33.53,355.66 33.05,354.72 32.56,353.76 32.06,352.77 31.56,351.76 31.04,350.73 30.52,349.69 29.99,348.61 29.46,347.52 28.92,346.41 28.38,345.28 27.83,344.12 27.29,342.95 26.75,341.76 26.2,340.55 25.67,339.33 25.14,338.08 24.6,336.82 24.08,335.54 23.57,334.25 23.06,332.94 20.48,325.81 18.18,318.59 16.14,311.31 14.36,303.95 12.85,296.56 11.6,289.1 10.61,281.62 9.89,274.1 9.42,266.57 9.2,259.03 9.24,251.48 9.53,243.94 10.07,236.4 10.87,228.9 11.91,221.42 13.2,213.98 14.74,206.58 16.52,199.25 18.55,191.98 20.81,184.78 23.32,177.67 26.07,170.64 29.05,163.71 32.27,156.89 35.72,150.18 39.41,143.59 43.33,137.15 47.48,130.83 51.86,124.67 56.47,118.67 61.3,112.83 66.37,107.17 67.15,106.33 67.93,105.5 68.69,104.69 69.45,103.89 70.19,103.11 70.94,102.34 71.67,101.57 72.41,100.82 73.14,100.06 73.88,99.31 74.62,98.56 75.36,97.81 76.1,97.06 76.85,96.3 77.6,95.54 78.36,94.77 79.12,94.04 79.93,93.31 80.78,92.58 81.66,91.85 82.53,91.14 83.4,90.43 84.24,89.73 85.03,89.05 85.89,88.29 86.68,87.62 87.42,86.98 88.16,86.36 88.93,85.71 89.75,85.02 90.66,84.23 91.71,83.32 92.32,82.79 92.99,82.23 93.7,81.65 94.45,81.06 95.24,80.44 96.07,79.82 96.93,79.18 97.82,78.54 98.74,77.87 99.68,77.21 100.65,76.53 101.63,75.85 102.63,75.17 103.63,74.5 104.65,73.81 105.67,73.13 106.69,72.47 107.72,71.8 108.74,71.14 109.74,70.49 110.74,69.86 111.74,69.24 112.71,68.63 113.66,68.04 114.59,67.47 115.5,66.91 116.38,66.39 117.22,65.88 118.03,65.4 118.81,64.95 119.55,64.53 120.23,64.14 123.42,62.38 126.64,60.68 129.88,59.03 133.14,57.44 136.43,55.91 139.74,54.43 143.07,53.01 146.44,51.65 149.81,50.35 153.22,49.11 156.64,47.92 160.09,46.81 163.57,45.74 167.05,44.74 170.56,43.8 174.09,42.92 177.65,42.11 181.22,41.36 184.81,40.68 188.42,40.05 192.06,39.5 195.7,39 199.37,38.58 203.05,38.21 206.76,37.92 210.48,37.69 214.22,37.54 217.97,37.44 221.75,37.43 225.54,37.47 229.34,37.59 233.16,37.78 237.83,38.1 242.48,38.53 247.11,39.07 251.7,39.71 256.27,40.45 260.8,41.29 265.3,42.24 269.77,43.28 274.2,44.42 278.59,45.67 282.95,47.01 287.27,48.44 291.55,49.97 295.78,51.6 299.98,53.32 304.13,55.13 308.24,57.03 312.3,59.03 316.32,61.12 320.28,63.3 324.2,65.56 328.07,67.91 331.88,70.35 335.64,72.89 339.35,75.49 343,78.19 346.59,80.97 350.13,83.84 353.61,86.77 357.02,89.8 360.38,92.9 363.66,96.09 364.09,96.52 364.51,96.94 364.91,97.35 365.29,97.75 365.68,98.15 366.05,98.55 366.43,98.94 366.8,99.33 367.18,99.71 367.56,100.1 367.96,100.49 368.37,100.87 368.78,101.27 369.23,101.66 369.68,102.06 370.17,102.47 368.75,99.62 368.54,99.26 368.32,98.91 368.12,98.57 367.91,98.23 367.69,97.9 367.47,97.56 367.24,97.22 367.01,96.88 366.1,95.6 365.21,94.38 364.35,93.18 363.51,92.03 362.69,90.91 361.89,89.83 361.09,88.77 360.32,87.74 359.55,86.73 358.78,85.75 358.02,84.79 357.26,83.84 356.51,82.9 355.74,81.98 354.98,81.07 354.21,80.17 353.44,79.26 352.65,78.36 351.84,77.46 351.02,76.55 350.18,75.64 349.32,74.72 348.43,73.78 347.52,72.83 346.58,71.86 345.62,70.88 344.62,69.88 343.59,68.84 342.51,67.78 341.41,66.69 340.26,65.57 339.06,64.41 338.01,63.41 336.95,62.4 335.86,61.4 334.76,60.41 333.65,59.41 332.52,58.43 331.37,57.44 330.22,56.47 329.04,55.49 327.86,54.52 326.66,53.55 325.43,52.6 324.21,51.64 322.96,50.69 321.71,49.75 320.43,48.8 319.15,47.87 317.85,46.94 316.54,46.02 315.21,45.09 313.88,44.18 312.52,43.27 311.16,42.38 309.79,41.48 308.4,40.58 307,39.71 305.59,38.83 304.16,37.96 302.73,37.09 301.28,36.23 299.82,35.39 298.35,34.54 295.51,32.96 292.57,31.41 289.55,29.9 286.44,28.41 283.24,26.96 279.97,25.55 276.62,24.18 273.21,22.85 269.73,21.56 266.2,20.33 262.61,19.15 258.97,18.01 255.28,16.93 251.57,15.92 247.81,14.95 244.02,14.05 240.21,13.22 236.37,12.45 232.53,11.75 228.66,11.13 224.79,10.58 220.93,10.1 217.06,9.71 213.19,9.4 209.34,9.17 205.51,9.02 201.7,8.97 197.91,9 194.16,9.13 190.43,9.35 186.75,9.68 "/>
      </g>
     </g>
     <g id="Group_3">
      <polygon id="Vector_6" class="fil1" points="35.94,261.55 36.29,263.74 36.83,265.66 37.58,267.34 38.5,268.78 39.59,270.01 40.83,271.03 42.21,271.85 43.73,272.48 45.37,272.94 47.1,273.23 48.94,273.38 50.86,273.38 52.84,273.24 54.88,273 56.97,272.65 59.09,272.2 61.23,271.68 63.37,271.08 65.52,270.42 67.64,269.72 69.75,268.97 71.8,268.2 73.8,267.42 75.74,266.63 77.6,265.87 79.37,265.12 81.03,264.39 82.59,263.72 84.01,263.1 85.29,262.56 86.42,262.09 87.39,261.71 87.42,262.89 87.43,264.25 87.43,265.78 87.41,267.46 87.38,269.29 87.33,271.25 87.28,273.32 87.2,275.5 87.12,277.78 87.02,280.14 86.92,282.57 86.8,285.05 86.68,287.59 86.54,290.16 86.39,292.75 86.24,295.35 86.08,297.95 85.91,300.54 85.74,303.09 85.56,305.61 85.37,308.08 85.18,310.49 84.99,312.82 84.79,315.06 84.59,317.21 84.38,319.25 84.18,321.16 83.97,322.93 83.76,324.56 83.54,326.04 83.34,327.34 83.13,328.45 82.92,329.45 82.7,330.42 82.46,331.36 82.22,332.29 81.96,333.19 81.7,334.07 81.42,334.94 81.14,335.78 80.85,336.61 80.54,337.43 80.23,338.22 79.91,339.02 79.58,339.78 79.24,340.54 78.89,341.3 78.54,342.04 78.18,342.77 77.81,343.49 77.43,344.21 77.05,344.92 76.66,345.63 76.25,346.34 75.85,347.04 75.45,347.74 75.04,348.44 74.61,349.14 74.18,349.85 73.75,350.56 73.32,351.27 72.88,351.99 72.43,352.71 71.98,353.44 71.6,354.08 71.21,354.75 70.83,355.46 70.44,356.2 70.05,356.97 69.66,357.78 69.27,358.62 68.89,359.48 68.52,360.36 68.15,361.26 67.79,362.19 67.43,363.12 67.1,364.08 66.78,365.05 66.47,366.03 66.19,367.01 65.92,368.01 65.67,369.01 65.44,370 65.23,370.99 65.06,371.99 64.9,372.98 64.78,373.96 64.68,374.93 64.63,375.89 64.59,376.84 64.6,377.77 64.64,378.69 64.72,379.57 64.84,380.44 65,381.28 65.21,382.1 65.73,382.68 66.31,383.25 66.91,383.82 67.54,384.38 68.2,384.93 68.91,385.48 69.63,386.01 70.39,386.55 71.17,387.06 71.98,387.57 72.81,388.06 73.66,388.54 74.54,389 75.45,389.45 76.36,389.88 77.3,390.29 78.25,390.68 79.22,391.05 80.2,391.41 81.19,391.74 82.19,392.05 83.21,392.33 84.23,392.59 85.26,392.82 86.31,393.02 87.34,393.2 88.39,393.34 89.44,393.45 90.49,393.54 91.53,393.59 92.58,393.61 93.62,393.59 95.93,393.43 97.91,393.13 99.57,392.68 100.95,392.1 102.08,391.39 102.95,390.54 103.61,389.58 104.06,388.49 104.32,387.28 104.44,385.96 104.41,384.53 104.26,383 104.02,381.36 103.71,379.64 103.33,377.81 102.92,375.89 102.52,373.89 102.1,371.81 101.72,369.66 101.39,367.43 101.14,365.14 100.97,362.77 100.92,360.35 101.01,357.87 101.25,355.34 101.67,352.76 102.28,350.13 103.12,347.46 104.19,344.75 105.53,342.02 107.14,339.25 109.06,336.46 109.59,335.75 110.11,335.07 110.65,334.4 111.18,333.73 111.72,333.07 112.26,332.42 112.8,331.78 113.35,331.15 113.91,330.51 114.46,329.89 115.02,329.26 115.58,328.64 116.16,328.01 116.72,327.39 117.3,326.76 117.88,326.13 118.46,325.5 119.05,324.85 119.64,324.21 120.24,323.56 120.84,322.89 121.45,322.22 122.06,321.53 122.68,320.84 123.3,320.13 123.93,319.4 124.55,318.66 125.19,317.9 125.83,317.12 126.48,316.33 127.13,315.51 127.79,314.68 128.59,314.69 129.45,314.72 130.37,314.76 131.32,314.8 132.32,314.85 133.35,314.9 134.42,314.95 135.52,315.01 136.64,315.08 137.78,315.15 138.94,315.21 140.12,315.29 141.31,315.35 142.51,315.42 143.7,315.49 144.9,315.55 146.09,315.61 147.27,315.66 148.45,315.72 149.61,315.75 150.74,315.8 151.86,315.83 152.95,315.85 154,315.86 155.02,315.86 156.01,315.85 156.94,315.83 157.84,315.79 158.68,315.75 159.47,315.69 160.2,315.61 160.88,315.52 161.72,315.38 162.57,315.22 163.43,315.06 164.29,314.9 165.15,314.72 166.01,314.52 166.87,314.33 167.74,314.13 168.6,313.92 169.47,313.71 170.34,313.49 171.21,313.28 172.07,313.06 172.94,312.84 173.81,312.62 174.68,312.39 175.54,312.17 176.41,311.96 177.27,311.74 178.14,311.53 179,311.33 179.86,311.12 180.71,310.93 181.57,310.74 182.42,310.56 183.28,310.39 184.12,310.22 184.96,310.08 185.8,309.94 186.64,309.81 187.47,309.7 188.3,309.59 188.39,309.88 188.51,310.35 188.67,311 188.83,311.8 189.03,312.76 189.24,313.86 189.47,315.08 189.71,316.41 189.97,317.85 190.24,319.38 190.52,320.99 190.81,322.66 191.11,324.37 191.4,326.14 191.7,327.94 191.99,329.75 192.29,331.57 192.59,333.39 192.88,335.19 193.16,336.95 193.42,338.67 193.68,340.34 193.92,341.94 194.16,343.46 194.37,344.89 194.55,346.23 194.73,347.44 194.87,348.53 194.99,349.48 195.09,350.29 195.15,350.92 195.18,351.39 195.23,352.94 195.21,354.49 195.14,356 195.03,357.5 194.88,358.98 194.68,360.44 194.44,361.89 194.17,363.33 193.87,364.75 193.54,366.16 193.18,367.56 192.81,368.96 192.4,370.35 191.99,371.74 191.56,373.13 191.12,374.52 190.67,375.9 190.22,377.3 189.77,378.69 189.32,380.09 188.87,381.5 188.44,382.92 188.01,384.35 187.6,385.79 187.2,387.25 186.83,388.72 186.48,390.21 186.16,391.73 185.86,393.26 185.6,394.81 185.38,396.39 185.19,398 186.75,398.72 188.2,399.43 189.58,400.11 190.88,400.78 192.13,401.44 193.31,402.06 194.43,402.66 195.51,403.22 196.56,403.76 197.57,404.26 198.57,404.73 199.55,405.15 200.51,405.54 201.48,405.87 202.46,406.15 203.45,406.39 204.46,406.57 205.5,406.69 206.58,406.75 207.71,406.75 208.88,406.69 210.11,406.56 211.41,406.36 212.78,406.08 214.24,405.73 215.79,405.3 217.42,404.79 219.17,404.19 221.03,403.5 223,402.73 225.1,401.87 227.33,400.9 227.37,400.44 227.39,399.86 227.39,399.16 227.37,398.35 227.32,397.44 227.26,396.44 227.17,395.35 227.08,394.17 226.96,392.92 226.84,391.6 226.69,390.22 226.55,388.79 226.39,387.31 226.22,385.79 226.05,384.25 225.88,382.67 225.7,381.07 225.51,379.46 225.34,377.85 225.15,376.24 224.98,374.64 224.81,373.05 224.64,371.49 224.48,369.96 224.33,368.46 224.19,367.01 224.06,365.6 223.95,364.25 223.84,362.97 223.76,361.76 223.69,360.64 223.64,359.59 223.59,358.15 223.55,356.7 223.5,355.25 223.47,353.8 223.46,352.35 223.45,350.9 223.45,349.44 223.46,347.98 223.47,346.52 223.5,345.06 223.53,343.6 223.57,342.13 223.62,340.66 223.68,339.2 223.75,337.73 223.82,336.26 223.9,334.8 223.99,333.33 224.09,331.86 224.19,330.39 224.31,328.92 224.42,327.45 224.56,325.98 224.7,324.52 224.83,323.05 224.99,321.59 225.15,320.13 225.32,318.66 225.49,317.2 225.68,315.74 225.87,314.29 226.06,312.83 226.95,313.14 227.86,313.51 228.81,313.92 229.79,314.4 230.77,314.92 231.78,315.5 232.79,316.13 233.81,316.79 234.83,317.49 235.84,318.24 236.85,319.02 237.84,319.83 238.82,320.69 239.78,321.57 240.72,322.47 241.61,323.4 242.48,324.35 243.31,325.32 244.1,326.32 244.83,327.32 245.52,328.34 246.15,329.37 246.72,330.41 247.22,331.45 247.65,332.5 248.01,333.54 248.28,334.59 248.48,335.63 248.59,336.66 248.6,337.69 248.53,338.7 248.35,339.71 247.94,339.7 247.28,339.7 246.42,339.69 245.37,339.69 244.17,339.7 242.88,339.71 241.52,339.73 240.12,339.77 238.73,339.82 237.39,339.88 236.11,339.96 234.95,340.08 233.94,340.21 233.12,340.36 232.52,340.56 232.18,340.77 232.06,341 231.92,341.41 231.75,342 231.58,342.77 231.4,343.67 231.22,344.72 231.05,345.89 230.88,347.17 230.74,348.55 230.61,350 230.51,351.54 230.45,353.12 230.43,354.75 230.45,356.4 230.53,358.08 230.66,359.76 230.87,361.42 231.14,363.06 231.49,364.66 231.92,366.21 232.44,367.69 233.04,369.1 233.76,370.41 234.58,371.61 235.51,372.7 236.55,373.65 237.73,374.45 239.02,375.1 240.46,375.57 242.04,375.86 243.76,375.94 245.65,375.8 247.45,375.49 249.24,375 251.01,374.34 252.77,373.53 254.51,372.57 256.22,371.47 257.9,370.26 259.55,368.93 261.16,367.49 262.75,365.96 264.28,364.34 265.76,362.65 267.2,360.9 268.59,359.1 269.91,357.24 271.19,355.36 272.4,353.45 273.55,351.53 274.61,349.6 275.62,347.68 276.54,345.78 277.39,343.91 278.15,342.07 278.83,340.28 279.41,338.55 279.91,336.89 280.3,335.3 280.6,333.8 280.8,332.4 280.88,331.11 280.86,329.94 280.72,328.9 280.5,328.07 280.18,327.26 279.75,326.44 279.24,325.63 278.65,324.82 277.99,324.01 277.26,323.2 276.48,322.37 275.66,321.55 274.78,320.71 273.87,319.86 272.95,319 272,318.12 271.05,317.23 270.09,316.32 269.15,315.39 268.22,314.44 267.31,313.46 266.43,312.46 265.59,311.44 264.81,310.37 264.07,309.29 263.4,308.17 262.81,307.01 262.29,305.82 261.86,304.59 261.52,303.32 261.28,302 261.16,300.65 261.16,299.25 261.28,297.8 261.55,296.3 261.69,295.65 261.86,295.02 262.03,294.38 262.22,293.75 262.43,293.12 262.65,292.49 262.87,291.86 263.1,291.23 263.35,290.61 263.61,289.97 263.86,289.35 264.13,288.73 264.39,288.1 264.66,287.47 264.93,286.83 265.2,286.2 265.47,285.56 265.75,284.92 266.01,284.27 266.28,283.63 266.54,282.98 266.79,282.33 267.04,281.67 267.27,281 267.5,280.33 267.72,279.66 267.93,278.98 268.13,278.29 268.31,277.59 268.47,276.89 268.63,276.18 268.76,275.47 267.21,275.22 265.66,275 264.1,274.82 262.53,274.68 260.96,274.55 259.4,274.45 257.82,274.37 256.25,274.3 254.67,274.24 253.1,274.18 251.54,274.13 249.97,274.07 248.41,274.01 246.86,273.94 245.31,273.86 243.77,273.76 242.24,273.64 240.72,273.5 239.21,273.32 237.71,273.12 236.22,272.88 234.75,272.6 233.3,272.27 231.85,271.9 230.43,271.47 229.02,270.99 227.64,270.46 226.27,269.85 224.92,269.18 223.59,268.44 222.3,267.62 221.01,266.73 220.11,266.02 219.23,265.27 218.39,264.48 217.57,263.66 216.8,262.81 216.05,261.91 215.34,260.99 214.64,260.04 213.98,259.06 213.33,258.05 212.71,257.02 212.1,255.97 211.51,254.9 210.95,253.8 210.39,252.69 209.85,251.57 209.32,250.42 208.8,249.27 208.28,248.11 207.78,246.94 207.28,245.76 206.78,244.57 206.28,243.39 205.79,242.19 205.29,241 204.79,239.81 204.28,238.63 203.76,237.44 203.24,236.27 202.71,235.11 202.16,233.95 201.61,232.8 201.14,231.9 200.61,230.9 200.04,229.85 199.44,228.73 198.82,227.57 198.2,226.36 197.6,225.12 197.02,223.86 196.49,222.57 196.01,221.28 195.61,219.99 195.29,218.71 195.08,217.44 194.98,216.19 195.01,214.97 195.18,213.8 195.81,211.13 196.45,208.63 197.09,206.32 197.73,204.17 198.36,202.19 198.97,200.36 199.57,198.69 200.12,197.14 200.64,195.74 201.12,194.45 201.53,193.3 201.9,192.24 202.19,191.28 202.4,190.42 202.53,189.64 202.58,188.94 202.51,188.31 202.36,187.75 202.08,187.23 201.68,186.77 201.16,186.34 200.5,185.94 199.69,185.56 198.74,185.2 197.63,184.85 196.36,184.5 194.91,184.14 193.28,183.77 191.46,183.36 189.45,182.93 187.24,182.46 184.82,181.94 182.41,181.44 180.05,180.98 177.73,180.57 175.44,180.19 173.2,179.87 170.98,179.59 168.79,179.36 166.63,179.17 164.52,179.04 162.41,178.96 160.34,178.93 158.3,178.94 156.27,179.01 154.26,179.15 152.28,179.33 150.3,179.57 148.36,179.87 146.41,180.23 144.49,180.64 142.58,181.12 140.68,181.66 138.77,182.27 136.88,182.93 135,183.67 133.11,184.46 131.23,185.33 129.34,186.27 127.47,187.27 125.57,188.34 123.68,189.48 121.78,190.7 119.87,191.99 119.02,192.62 118.16,193.29 117.31,194.02 116.46,194.8 115.61,195.62 114.76,196.49 113.92,197.41 113.07,198.36 112.24,199.35 111.4,200.36 110.58,201.42 109.77,202.49 108.97,203.6 108.17,204.73 107.39,205.86 106.62,207.02 105.87,208.19 105.13,209.37 104.4,210.56 103.69,211.75 103.01,212.95 102.34,214.14 101.68,215.33 101.06,216.51 100.45,217.68 99.87,218.83 99.31,219.98 98.78,221.09 98.27,222.18 97.79,223.26 97.33,224.31 96.91,225.33 96.3,226.87 95.73,228.38 95.18,229.88 94.68,231.36 94.19,232.81 93.73,234.23 93.29,235.64 92.86,237.01 92.44,238.36 92.03,239.69 91.62,241 91.2,242.27 90.79,243.52 90.36,244.74 89.92,245.94 89.46,247.11 88.98,248.25 88.47,249.36 87.94,250.44 87.37,251.5 86.76,252.53 86.12,253.52 85.42,254.48 84.67,255.42 83.88,256.32 83.02,257.18 82.1,258.02 81.12,258.83 80.06,259.6 78.94,260.35 77.73,261.05 76.45,261.72 74.34,262.75 72.38,263.66 70.55,264.47 68.87,265.18 67.31,265.79 65.88,266.31 64.55,266.74 63.33,267.1 62.21,267.38 61.19,267.58 60.25,267.71 59.4,267.79 58.61,267.79 57.89,267.74 57.24,267.65 56.64,267.5 56.08,267.32 55.56,267.1 55.08,266.84 54.62,266.55 54.18,266.25 53.75,265.92 53.33,265.57 52.9,265.22 52.47,264.86 52.03,264.5 51.56,264.15 51.07,263.79 50.54,263.45 49.97,263.13 49.35,262.83 48.69,262.55 47.91,262.29 47.13,262.07 46.34,261.89 45.55,261.75 44.75,261.64 43.93,261.56 43.12,261.5 42.31,261.47 41.5,261.46 40.69,261.46 39.88,261.46 39.07,261.48 38.29,261.5 37.49,261.52 36.71,261.55 "/>
      <polygon id="Vector_7" class="fil1" points="296.59,122.09 295.61,121.67 294.64,121.23 293.7,120.77 292.77,120.3 291.87,119.83 290.97,119.34 290.09,118.84 289.22,118.34 288.36,117.83 287.5,117.31 286.64,116.81 285.79,116.29 284.94,115.79 284.09,115.28 283.24,114.78 282.36,114.29 281.49,113.81 280.6,113.34 279.71,112.88 278.78,112.44 277.85,112.02 276.9,111.6 275.92,111.22 274.93,110.85 273.9,110.51 272.84,110.19 271.76,109.9 270.64,109.64 269.49,109.4 268.3,109.2 267.07,109.03 265.8,108.9 266.43,109.26 267.16,109.59 267.97,109.91 268.87,110.22 269.84,110.54 270.87,110.86 271.97,111.2 273.11,111.57 274.3,111.96 275.53,112.4 276.79,112.88 278.08,113.41 279.37,114.01 280.68,114.67 281.99,115.41 283.3,116.22 283.36,116.75 283.48,116.85 283.6,116.69 283.69,116.39 283.71,116.11 283.6,115.99 283.33,116.18 282.85,116.81 282.44,117.31 282.15,117.46 281.96,117.38 281.87,117.18 281.88,116.98 281.99,116.9 282.18,117.07 282.46,117.59 283.05,117.7 283.66,117.83 284.29,117.99 284.94,118.17 285.62,118.38 286.29,118.62 286.99,118.87 287.69,119.15 288.4,119.45 289.12,119.76 289.84,120.09 290.57,120.43 291.29,120.79 292.01,121.15 292.72,121.53 293.43,121.92 294.13,122.31 294.81,122.71 295.5,123.11 296.15,123.51 296.8,123.92 297.42,124.32 298.02,124.72 298.59,125.12 299.14,125.52 299.67,125.9 300.15,126.29 300.61,126.65 301.04,127.02 301.42,127.36 301.78,127.69 302.08,128.01 314.6,134.85 314.59,137.53 314.76,139.96 315.1,142.13 315.6,144.06 316.24,145.78 317.04,147.28 317.97,148.59 319.02,149.72 320.2,150.68 321.49,151.49 322.88,152.17 324.37,152.71 325.95,153.14 327.61,153.47 329.35,153.71 331.15,153.89 333.01,154.01 334.92,154.09 336.87,154.13 338.85,154.16 340.87,154.19 342.9,154.23 344.94,154.3 347,154.4 349.03,154.56 351.07,154.79 353.08,155.09 355.07,155.49 357.01,156 358.92,156.62 360.77,157.39 362.56,158.31 363.2,158.68 363.83,159.1 364.45,159.54 365.06,160.01 365.65,160.51 366.22,161.04 366.78,161.59 367.33,162.18 367.85,162.79 368.36,163.43 368.84,164.09 369.3,164.77 369.74,165.48 370.15,166.2 370.53,166.96 370.89,167.74 371.21,168.53 371.51,169.34 371.79,170.17 372.02,171.02 372.22,171.9 372.38,172.78 372.51,173.69 372.6,174.6 372.66,175.53 372.67,176.48 372.65,177.44 372.57,178.41 372.46,179.39 372.3,180.39 372.09,181.39 371.84,182.4 371.32,184.08 370.67,185.69 369.93,187.24 369.07,188.74 368.13,190.16 367.1,191.51 366,192.79 364.83,193.99 363.6,195.11 362.33,196.15 361.01,197.09 359.66,197.95 358.28,198.71 356.89,199.37 355.5,199.93 354.1,200.39 352.97,200.7 351.87,200.95 350.8,201.15 349.77,201.3 348.75,201.4 347.78,201.46 346.84,201.47 345.91,201.44 345.02,201.36 344.14,201.25 343.31,201.1 342.48,200.91 341.68,200.69 340.9,200.43 340.13,200.14 339.39,199.82 338.67,199.48 337.95,199.09 337.26,198.69 336.57,198.27 335.91,197.83 335.25,197.35 334.6,196.87 333.97,196.36 333.34,195.84 332.72,195.31 332.11,194.76 331.5,194.21 330.89,193.65 330.3,193.06 329.69,192.49 329.1,191.9 328.63,191.44 328.15,190.98 327.65,190.5 327.13,190 326.59,189.49 326.05,188.97 325.48,188.44 324.9,187.92 324.31,187.38 323.71,186.83 323.1,186.28 322.49,185.73 321.86,185.17 321.23,184.62 320.58,184.06 319.94,183.51 319.29,182.95 318.65,182.41 317.99,181.87 317.34,181.34 316.69,180.81 316.04,180.29 315.38,179.79 314.74,179.28 314.09,178.8 313.46,178.33 312.82,177.88 312.2,177.43 311.58,177.01 310.98,176.61 310.37,176.23 309.79,175.86 307.99,174.8 306.2,173.81 304.43,172.91 302.66,172.07 300.92,171.32 299.18,170.63 297.46,170.01 295.74,169.47 294.03,169 292.32,168.59 290.63,168.25 288.95,167.98 287.26,167.77 285.58,167.63 283.91,167.55 282.23,167.52 280.56,167.56 278.89,167.65 277.22,167.8 275.54,168.01 273.86,168.27 272.18,168.58 270.49,168.95 268.8,169.38 267.1,169.84 265.4,170.36 263.69,170.92 261.96,171.53 260.23,172.18 258.49,172.88 256.73,173.62 254.96,174.41 253.37,175.14 251.91,175.85 250.57,176.53 249.33,177.18 248.21,177.81 247.18,178.4 246.24,178.97 245.39,179.51 244.61,180.02 243.9,180.5 243.26,180.95 242.66,181.37 242.12,181.76 241.62,182.12 241.16,182.45 240.72,182.74 240.3,183.01 239.89,183.24 239.49,183.45 239.09,183.61 238.68,183.74 238.26,183.84 237.81,183.91 237.33,183.94 236.82,183.94 236.26,183.9 235.66,183.82 234.99,183.71 234.27,183.57 233.47,183.39 232.6,183.17 231.64,182.91 229.06,182.29 226.62,181.86 224.28,181.62 222.06,181.55 219.95,181.65 217.96,181.9 216.08,182.31 214.3,182.87 212.63,183.56 211.06,184.37 209.59,185.3 208.22,186.35 206.95,187.5 205.77,188.75 204.68,190.08 203.69,191.5 202.79,192.99 201.98,194.54 201.24,196.14 200.6,197.8 200.03,199.49 199.55,201.22 199.14,202.97 198.81,204.74 198.54,206.51 198.35,208.3 198.23,210.07 198.18,211.83 198.19,213.56 198.27,215.26 198.41,216.92 198.6,218.53 198.73,219.37 198.89,220.2 199.06,221.02 199.25,221.83 199.47,222.63 199.7,223.43 199.94,224.21 200.21,224.99 200.47,225.77 200.77,226.53 201.07,227.29 201.38,228.05 201.7,228.8 202.02,229.54 202.36,230.29 202.71,231.02 203.05,231.75 203.41,232.48 203.77,233.21 204.13,233.94 204.49,234.67 204.85,235.39 205.21,236.12 205.57,236.84 205.93,237.57 206.28,238.29 206.63,239.02 206.97,239.75 207.3,240.48 207.63,241.21 207.94,241.95 208.24,242.69 208.98,244.5 209.68,246.19 210.35,247.78 211.01,249.28 211.67,250.69 212.35,252.02 213.04,253.29 213.77,254.49 214.54,255.65 215.37,256.77 216.27,257.85 217.25,258.92 218.32,259.98 219.49,261.03 220.78,262.09 222.2,263.16 222.89,263.64 223.57,264.13 224.27,264.6 224.98,265.07 225.69,265.53 226.42,265.97 227.16,266.41 227.89,266.82 228.64,267.24 229.41,267.64 230.17,268.03 230.94,268.41 231.73,268.77 232.52,269.13 233.32,269.48 234.13,269.81 234.94,270.13 235.77,270.44 236.6,270.73 237.45,271.02 238.3,271.29 239.16,271.55 240.03,271.79 240.91,272.02 241.8,272.24 242.7,272.44 243.61,272.64 244.52,272.81 245.44,272.98 246.38,273.13 247.32,273.27 248.27,273.38 250.13,273.56 251.97,273.66 253.79,273.67 255.59,273.6 257.38,273.47 259.14,273.25 260.89,272.97 262.61,272.61 264.3,272.18 265.96,271.68 267.6,271.13 269.2,270.51 270.77,269.83 272.31,269.08 273.81,268.28 275.26,267.44 276.67,266.53 278.05,265.58 279.38,264.58 280.67,263.53 281.9,262.43 283.09,261.29 284.23,260.12 285.31,258.91 286.33,257.65 287.3,256.37 288.21,255.05 289.06,253.7 289.85,252.32 290.58,250.92 291.24,249.49 291.83,248.04 290.73,247.33 289.71,246.72 288.76,246.19 287.87,245.71 287.04,245.27 286.27,244.85 285.54,244.44 284.86,244.01 284.22,243.53 283.62,243.01 283.04,242.41 282.49,241.71 281.96,240.89 281.44,239.95 280.93,238.86 280.43,237.6 281.09,237.9 281.75,238.22 282.38,238.54 283,238.88 283.62,239.21 284.23,239.56 284.82,239.9 285.41,240.26 286,240.61 286.59,240.96 287.16,241.32 287.74,241.69 288.32,242.04 288.9,242.41 289.48,242.77 290.06,243.12 290.66,243.48 291.26,243.83 291.86,244.17 292.48,244.52 293.09,244.86 293.73,245.19 294.38,245.52 295.05,245.84 295.73,246.15 296.42,246.45 297.14,246.75 297.87,247.03 298.63,247.3 299.41,247.57 300.2,247.82 301.03,248.05 301.66,248.21 302.32,248.36 303.04,248.49 303.78,248.6 304.56,248.71 305.36,248.8 306.2,248.88 307.05,248.94 307.93,248.99 308.82,249.02 309.72,249.04 310.65,249.05 311.57,249.04 312.5,249.02 313.43,248.98 314.35,248.93 315.27,248.86 316.18,248.79 317.09,248.69 317.98,248.58 318.85,248.45 319.7,248.31 320.52,248.15 321.32,247.98 322.09,247.8 322.83,247.6 323.53,247.39 324.19,247.15 324.8,246.91 325.38,246.64 325.89,246.36 326.37,246.08 325.98,245.67 325.6,245.27 325.21,244.9 324.84,244.53 324.47,244.17 324.12,243.79 323.79,243.42 323.47,243.02 323.18,242.61 322.93,242.16 322.71,241.68 322.52,241.15 322.38,240.58 322.28,239.95 322.23,239.25 322.23,238.49 322.28,237.74 322.39,237 322.53,236.29 322.72,235.6 322.96,234.94 323.23,234.31 323.54,233.73 323.88,233.17 324.25,232.66 324.65,232.21 325.08,231.79 325.53,231.44 326.01,231.13 326.5,230.89 327.01,230.72 327.53,230.61 328.36,230.59 329.28,230.72 330.27,230.98 331.32,231.35 332.42,231.83 333.56,232.38 334.73,232.99 335.91,233.64 337.08,234.32 338.24,235.01 339.37,235.67 340.47,236.31 341.52,236.91 342.49,237.43 343.4,237.86 344.21,238.2 345.38,238.59 346.59,238.94 347.84,239.24 349.13,239.51 350.44,239.73 351.79,239.91 353.15,240.06 354.54,240.15 355.95,240.22 357.37,240.26 358.8,240.25 360.23,240.21 361.67,240.13 363.1,240.02 364.54,239.89 365.97,239.72 367.38,239.52 368.79,239.29 370.17,239.03 371.53,238.75 372.87,238.45 374.18,238.11 375.46,237.75 376.7,237.37 377.91,236.96 379.06,236.53 380.18,236.09 381.25,235.62 382.26,235.14 383.22,234.63 384.11,234.12 384.94,233.58 383.68,233.65 382.45,233.75 381.28,233.88 380.12,234.02 379,234.17 377.88,234.33 376.77,234.49 375.65,234.65 374.5,234.79 373.34,234.9 372.13,234.99 370.88,235.05 369.57,235.06 368.19,235.04 366.75,234.95 365.2,234.81 365.98,233.33 366.67,232.03 367.28,230.89 367.84,229.9 368.36,229.03 368.86,228.27 369.36,227.59 369.87,226.97 370.41,226.4 371,225.85 371.65,225.3 372.39,224.74 373.23,224.13 374.19,223.48 375.28,222.75 376.53,221.92 377.35,221.36 378.2,220.78 379.06,220.18 379.92,219.56 380.81,218.91 381.68,218.25 382.56,217.57 383.43,216.87 384.29,216.17 385.14,215.45 385.97,214.73 386.78,213.99 387.55,213.25 388.3,212.5 389.02,211.75 389.69,211 391.45,208.82 393,206.59 394.32,204.33 395.44,202.04 396.37,199.71 397.11,197.37 397.66,195.02 398.04,192.65 398.26,190.28 398.32,187.91 398.23,185.55 397.99,183.21 397.62,180.88 397.13,178.58 396.51,176.31 395.79,174.08 394.96,171.88 394.04,169.74 393.04,167.65 391.95,165.62 390.78,163.66 389.57,161.75 388.29,159.93 386.97,158.2 385.6,156.55 384.21,154.99 382.79,153.52 381.36,152.17 379.91,150.93 378.47,149.8 377.03,148.79 375.62,147.91 374.24,147.14 372.87,146.44 371.53,145.81 370.2,145.24 368.88,144.73 367.58,144.28 366.27,143.88 364.99,143.54 363.71,143.23 362.43,142.98 361.16,142.76 359.89,142.57 358.63,142.43 357.36,142.31 356.09,142.21 354.82,142.14 353.55,142.1 352.27,142.06 350.99,142.05 349.69,142.03 348.39,142.03 347.07,142.02 345.74,142.02 344.4,142.02 343.04,142 341.67,141.99 340.27,141.95 338.86,141.89 337.43,141.83 335.98,141.72 334.49,141.59 332.99,141.44 332.29,141.07 331.73,140.61 331.3,140.08 330.95,139.5 330.67,138.86 330.41,138.16 330.14,137.44 329.85,136.68 329.49,135.9 329.04,135.11 328.46,134.32 327.72,133.53 326.8,132.75 325.66,132 324.27,131.27 322.6,130.59 322.08,130.39 321.69,130.25 321.39,130.15 321.12,130.08 320.85,130.04 320.54,130.01 320.15,130 319.62,130.01 319.13,130.02 318.84,130.02 318.68,130.04 318.6,130.06 318.52,130.08 318.41,130.13 318.17,130.18 317.75,130.25 317.47,130.3 317.41,130.36 317.46,130.42 317.53,130.48 317.51,130.51 317.3,130.54 316.8,130.56 315.9,130.54 316,129.46 316.19,128.48 316.46,127.6 316.78,126.78 317.14,126.01 317.5,125.25 317.87,124.51 318.19,123.75 318.47,122.95 318.68,122.09 318.79,121.14 318.8,120.09 318.66,118.93 318.37,117.61 317.9,116.13 317.24,114.47 316.91,113.75 316.55,113.03 316.15,112.31 315.7,111.6 315.22,110.91 314.7,110.22 314.14,109.57 313.54,108.94 312.88,108.35 312.19,107.79 311.44,107.28 310.65,106.82 309.81,106.42 308.91,106.07 307.97,105.8 306.97,105.59 307.08,106.97 307.16,108.28 307.23,109.55 307.29,110.77 307.33,111.94 307.37,113.06 307.38,114.15 307.42,115.18 307.44,116.16 307.46,117.1 307.5,118 307.55,118.86 307.61,119.67 307.69,120.45 307.79,121.18 307.91,121.88 308.06,122.55 308.24,123.17 308.45,123.76 308.71,124.32 308.99,124.84 309.32,125.33 309.7,125.79 310.13,126.22 310.6,126.62 311.14,126.98 311.74,127.33 312.39,127.64 313.12,127.94 313.91,128.2 314.77,128.44 315.72,128.66 315.7,132.83 314.97,132.62 314.2,132.36 313.41,132.05 312.6,131.69 311.77,131.31 310.92,130.89 310.08,130.45 309.23,129.99 308.39,129.52 307.55,129.05 306.74,128.57 305.95,128.11 305.2,127.67 304.47,127.24 303.78,126.83 303.15,126.46 301.99,125.77 300.97,125.07 300.06,124.37 299.28,123.66 298.6,122.96 298.02,122.25 297.54,121.53 297.14,120.81 296.83,120.08 296.58,119.35 296.4,118.6 296.28,117.85 296.21,117.1 296.17,116.32 296.19,115.55 296.22,114.75 296.29,113.94 296.36,113.12 296.44,112.29 296.52,111.44 296.6,110.58 296.65,109.7 296.7,108.8 296.7,107.89 296.67,106.95 296.61,106 296.49,105.03 296.32,104.03 296.08,103.01 295.76,101.98 295.38,100.92 294.9,99.83 294.52,99.06 294.11,98.32 293.66,97.6 293.18,96.9 292.66,96.23 292.1,95.59 291.49,94.99 290.84,94.41 290.14,93.88 289.39,93.39 288.58,92.94 287.71,92.53 286.79,92.18 285.81,91.86 284.76,91.61 283.64,91.41 283.9,94.29 284.21,96.92 284.57,99.31 284.96,101.46 285.4,103.4 285.86,105.13 286.36,106.67 286.89,108.04 287.43,109.25 287.99,110.3 288.57,111.23 289.15,112.02 289.74,112.69 290.33,113.29 290.92,113.78 291.5,114.21 292.07,114.58 292.62,114.91 293.16,115.2 293.68,115.47 294.16,115.74 294.62,116.01 295.04,116.31 295.42,116.64 295.76,117.02 296.06,117.46 296.29,117.97 296.48,118.57 296.6,119.27 296.67,120.08 296.67,121.02 "/>
      <polygon id="Vector_8" class="fil1" points="141.04,317.16 141.02,317.95 141.01,318.74 141,319.52 141,320.31 141.01,321.08 141.02,321.85 141.04,322.62 141.05,323.38 141.08,324.14 141.1,324.91 141.12,325.66 141.14,326.42 141.15,327.18 141.16,327.93 141.16,328.69 141.16,329.45 141.16,330.2 141.14,330.96 141.11,331.72 141.07,332.48 141.02,333.24 140.96,334 140.88,334.78 140.79,335.55 140.67,336.32 140.54,337.1 140.39,337.89 140.22,338.67 140.03,339.47 139.82,340.27 139.58,341.08 139.31,341.9 138.89,343 138.39,344.1 137.81,345.2 137.17,346.3 136.47,347.41 135.72,348.51 134.95,349.61 134.15,350.7 133.33,351.8 132.51,352.9 131.7,353.99 130.91,355.09 130.14,356.17 129.41,357.26 128.74,358.35 128.12,359.44 127.57,360.51 127.1,361.59 126.72,362.65 126.44,363.72 126.27,364.78 126.22,365.84 126.31,366.89 126.53,367.94 126.92,368.98 127.46,370.02 128.17,371.04 129.07,372.07 130.16,373.08 131.46,374.09 132.97,375.1 134.71,376.1 135.21,376.35 135.76,376.6 136.35,376.85 136.98,377.1 137.65,377.34 138.35,377.58 139.09,377.81 139.84,378.03 140.62,378.25 141.43,378.45 142.25,378.64 143.09,378.82 143.95,379 144.81,379.15 145.67,379.3 146.55,379.42 147.41,379.53 148.27,379.62 149.13,379.69 149.98,379.75 150.82,379.79 151.64,379.81 152.43,379.79 153.21,379.77 153.97,379.71 154.69,379.63 155.38,379.53 156.04,379.39 156.65,379.23 157.23,379.04 157.76,378.82 158.24,378.57 158.52,378.05 158.75,377.45 158.94,376.79 159.09,376.07 159.21,375.28 159.3,374.45 159.36,373.56 159.4,372.62 159.42,371.62 159.42,370.6 159.41,369.53 159.4,368.41 159.38,367.27 159.36,366.11 159.33,364.91 159.31,363.68 159.3,362.43 159.31,361.17 159.33,359.89 159.37,358.6 159.43,357.3 159.52,356 159.64,354.69 159.79,353.39 159.99,352.09 160.22,350.8 160.49,349.53 160.82,348.26 161.2,347.01 161.63,345.78 162.12,344.57 162.67,343.4 163.16,342.46 163.64,341.55 164.14,340.67 164.64,339.81 165.15,338.97 165.64,338.16 166.16,337.35 166.67,336.57 167.18,335.79 167.69,335.02 168.2,334.26 168.71,333.49 169.21,332.74 169.72,331.98 170.22,331.22 170.71,330.45 171.2,329.68 171.68,328.87 172.16,328.08 172.63,327.25 173.09,326.41 173.54,325.55 173.99,324.66 174.42,323.75 174.84,322.81 175.24,321.83 175.64,320.82 176.02,319.78 176.38,318.69 176.73,317.57 177.07,316.39 177.38,315.18 176.27,315.17 175.15,315.19 174.05,315.24 172.95,315.31 171.86,315.4 170.78,315.51 169.7,315.64 168.63,315.78 167.56,315.93 166.5,316.09 165.44,316.26 164.4,316.43 163.36,316.6 162.32,316.78 161.28,316.95 160.26,317.12 159.01,317.3 157.77,317.46 156.57,317.57 155.38,317.67 154.2,317.74 153.03,317.78 151.86,317.8 150.69,317.79 149.53,317.77 148.36,317.73 147.18,317.67 145.99,317.59 144.79,317.5 143.57,317.39 142.32,317.27 "/>
      <polygon id="Vector_9" class="fil1" points="388.38,242.54 386.65,242.63 384.96,242.73 383.3,242.86 381.66,243 380.05,243.14 378.47,243.29 376.89,243.44 375.34,243.58 373.81,243.72 372.28,243.84 370.76,243.94 369.25,244.02 367.74,244.08 366.23,244.1 364.71,244.1 363.2,244.05 361.67,243.97 360.13,243.83 358.58,243.64 357.01,243.41 355.43,243.11 353.83,242.75 352.19,242.31 350.53,241.81 348.85,241.24 347.13,240.58 345.37,239.83 343.58,239.01 341.75,238.08 339.87,237.07 337.95,235.95 335.97,234.72 334.99,234.13 333.99,233.61 332.97,233.16 331.95,232.79 330.94,232.52 329.96,232.36 329.01,232.32 328.11,232.41 327.27,232.65 326.5,233.04 325.83,233.62 325.23,234.36 324.76,235.29 324.42,236.44 324.2,237.8 324.13,239.39 324.2,240.32 324.4,241.21 324.7,242.05 325.12,242.84 325.64,243.59 326.27,244.29 326.98,244.93 327.78,245.54 328.66,246.1 329.61,246.63 330.63,247.11 331.71,247.57 332.84,247.97 334.02,248.35 335.25,248.7 336.5,249 337.79,249.28 339.1,249.53 340.44,249.74 341.78,249.94 343.13,250.1 344.47,250.24 345.8,250.36 347.13,250.46 348.43,250.53 349.71,250.58 350.96,250.62 352.15,250.64 353.32,250.64 354.43,250.64 355.48,250.62 356.47,250.58 357.45,250.53 358.46,250.48 359.49,250.4 360.54,250.32 361.61,250.23 362.69,250.12 363.78,249.99 364.88,249.86 366,249.71 367.12,249.55 368.24,249.37 369.36,249.19 370.49,248.99 371.6,248.77 372.71,248.54 373.82,248.31 374.91,248.05 375.99,247.78 377.06,247.5 378.09,247.2 379.12,246.89 380.12,246.56 381.1,246.23 382.05,245.88 382.97,245.51 383.86,245.13 384.71,244.73 385.53,244.33 386.31,243.9 387.04,243.46 387.73,243.01 "/>
      <polygon id="Vector_10" class="fil1" points="270.15,135.59 271.48,135.78 272.78,135.96 274.06,136.12 275.3,136.29 276.52,136.43 277.7,136.56 278.86,136.68 279.99,136.78 281.09,136.86 282.18,136.92 283.23,136.96 284.25,136.96 285.26,136.95 286.24,136.9 287.21,136.83 288.14,136.72 289.07,136.58 289.97,136.4 290.85,136.19 291.71,135.93 292.55,135.64 293.39,135.3 294.19,134.92 294.99,134.49 295.77,134.01 296.53,133.48 297.28,132.9 298.03,132.27 298.76,131.58 299.48,130.83 300.18,130.02 300.88,129.16 299.66,128.66 298.52,128.18 297.42,127.71 296.37,127.27 295.34,126.87 294.34,126.5 293.34,126.18 292.32,125.92 291.31,125.72 290.26,125.58 289.17,125.54 288.03,125.56 286.83,125.69 285.56,125.92 284.21,126.25 282.76,126.7 281.79,127.05 280.82,127.43 279.86,127.84 278.91,128.29 277.98,128.76 277.07,129.26 276.19,129.79 275.34,130.35 274.52,130.92 273.74,131.54 273.01,132.16 272.32,132.81 271.69,133.48 271.12,134.16 270.6,134.87 "/>
      <polygon id="Vector_11" class="fil1" points="249.98,123.29 250.48,123.94 251.02,124.53 251.59,125.07 252.19,125.55 252.83,125.98 253.49,126.35 254.17,126.67 254.88,126.95 255.61,127.18 256.36,127.36 257.13,127.49 257.91,127.58 258.7,127.63 259.51,127.64 260.33,127.61 261.15,127.54 261.98,127.44 262.81,127.3 263.64,127.13 264.48,126.93 265.31,126.7 266.13,126.44 266.95,126.15 267.77,125.84 268.56,125.5 269.34,125.14 270.12,124.76 270.87,124.36 271.6,123.94 272.32,123.51 273.01,123.06 273.68,122.6 279.62,117.49 279.67,117.44 279.72,117.39 279.78,117.33 279.84,117.28 279.9,117.22 279.96,117.16 280.03,117.1 280.09,117.04 278.72,116.69 277.49,116.37 276.38,116.09 275.35,115.84 274.4,115.64 273.51,115.48 272.65,115.37 271.81,115.31 270.97,115.3 270.12,115.36 269.22,115.46 268.26,115.64 267.22,115.88 266.09,116.19 264.84,116.58 263.45,117.04 262.83,117.26 262.09,117.53 261.25,117.85 260.33,118.22 259.36,118.61 258.34,119.03 257.29,119.48 256.24,119.94 255.22,120.4 254.21,120.86 253.27,121.32 252.39,121.77 251.6,122.2 250.93,122.6 250.38,122.96 "/>
      <polygon id="Vector_12" class="fil1" points="273.95,107.62 273.81,106.62 273.64,105.6 273.47,104.57 273.28,103.53 273.08,102.49 272.87,101.45 272.63,100.4 272.37,99.36 272.1,98.33 271.79,97.31 271.47,96.3 271.13,95.31 270.75,94.35 270.34,93.41 269.91,92.49 269.45,91.61 268.96,90.76 268.43,89.96 267.86,89.19 267.26,88.47 266.62,87.8 265.94,87.18 265.22,86.62 264.46,86.12 263.65,85.68 262.8,85.3 261.91,85 260.96,84.77 259.97,84.61 258.92,84.53 257.83,84.54 256.68,84.64 256.83,85.42 257.02,86.27 257.26,87.16 257.52,88.11 257.82,89.08 258.14,90.07 258.49,91.07 258.85,92.07 259.22,93.07 259.6,94.04 260,94.98 260.39,95.87 260.78,96.72 261.17,97.5 261.55,98.22 261.91,98.84 262.48,99.76 263.05,100.6 263.61,101.37 264.17,102.06 264.75,102.7 265.34,103.29 265.96,103.83 266.61,104.33 267.3,104.8 268.04,105.23 268.84,105.64 269.7,106.04 270.63,106.43 271.66,106.82 272.76,107.22 "/>
      <polygon id="Vector_13" class="fil1" points="233.93,110.47 234.31,111.04 234.76,111.58 235.24,112.06 235.76,112.52 236.32,112.92 236.92,113.29 237.55,113.62 238.22,113.9 238.92,114.15 239.65,114.35 240.4,114.52 241.18,114.64 241.98,114.73 242.81,114.78 243.66,114.8 244.53,114.77 245.41,114.71 246.31,114.6 247.22,114.46 248.14,114.28 249.07,114.07 250,113.82 250.95,113.53 251.9,113.21 252.85,112.85 253.79,112.45 254.73,112.03 255.68,111.57 256.61,111.06 257.54,110.54 258.45,109.97 259.36,109.37 259.42,109.33 259.49,109.29 259.55,109.24 259.61,109.2 259.67,109.15 259.74,109.11 259.79,109.07 259.85,109.03 260.85,108.28 259.89,107.92 258.99,107.53 258.15,107.13 257.35,106.73 256.56,106.33 255.8,105.94 255.03,105.57 254.25,105.23 253.44,104.93 252.59,104.67 251.68,104.47 250.71,104.33 249.65,104.28 248.49,104.29 247.22,104.4 245.83,104.62 245.04,104.78 244.23,104.98 243.4,105.23 242.56,105.51 241.71,105.82 240.87,106.17 240.03,106.54 239.2,106.93 238.4,107.34 237.62,107.77 236.89,108.22 236.19,108.66 235.54,109.12 234.93,109.57 234.39,110.02 "/>
      <polygon id="Vector_14" class="fil3" points="293.18,206.96 292.9,208.22 292.85,209.36 293,210.38 293.32,211.27 293.8,212.03 294.4,212.68 295.1,213.21 295.87,213.62 296.7,213.93 297.56,214.12 298.42,214.2 299.25,214.17 300.04,214.04 300.77,213.8 301.39,213.46 301.89,213.03 302.43,212.27 302.73,211.51 302.8,210.76 302.67,210.03 302.36,209.32 301.89,208.66 301.29,208.06 300.58,207.51 299.76,207.04 298.88,206.66 297.93,206.38 296.96,206.22 295.98,206.19 295.01,206.29 294.06,206.54 "/>
     </g>
    </g>
   </g>
   <g id="Group_4">
    <path id="Vector_15" class="fil4" d="M1414.17 336.88l2.32 -17.26c8.25,10.05 23.49,20.76 45.49,20.76 25.81,0 57.75,-12.67 57.75,-47.65 0,-52.89 -86.1,-47.43 -86.1,-70.6 0,-7.87 8.67,-11.8 15.02,-11.8 15.23,0 27.92,9.4 27.92,26.01l39.14 0 0 -56.4 -37.45 0 -2.11 18.8c-8.67,-16.83 -27.29,-22.95 -45.49,-22.95 -21.37,0 -51.83,15.08 -51.83,48.31 0,57.27 83.57,49.84 83.57,67.55 0,9.4 -10.79,11.14 -18.4,11.14 -9.1,-0.43 -27.51,-3.49 -27.51,-22.51l-40.4 0 0 56.61 38.08 0zm-134.56 -120.44l14.39 48.52 -28.56 0 14.17 -48.52zm93.52 90.93l-15.23 0 -38.51 -127.65 -83.56 0 0 29.07 8.88 0 -29.41 98.58 -14.8 0 0 29.51 69.18 0 0 -29.51 -16.92 0 4.65 -15.3 44.64 0 4.65 15.3 -20.73 0 0 29.51 87.16 0 0 -29.51zm-257.05 -98.58c12.7,0 19.89,6.78 19.89,20.11 0,11.81 -8.25,18.15 -20.94,18.15l-9.74 0 0 -38.26 10.79 0zm-67.91 0.22l12.27 0 0 97.92 -12.27 0 0 29.95 70.24 0 0 -29.73 -13.12 0 0 -34.76c19.47,0 21.8,5.03 21.8,25.36 0,26.23 13.75,41.75 42.31,41.75 24.12,0 31.73,-17.27 31.73,-36.07l0 -12.46 -14.59 0 0 7.44c0,4.59 -1.69,7.21 -5.08,7.21 -4.02,0 -5.29,-5.68 -5.29,-15.3 0,-16.17 -13.54,-29.73 -28.56,-31.91 17.99,-2.62 31.52,-15.08 31.52,-32.57 0,-25.57 -9.73,-46.34 -60.29,-46.34l-70.66 0 0 29.51zm-79.34 96.61c-13.97,0 -24.12,-18.57 -24.12,-48.09 0,-27.98 9.1,-47.65 22.43,-47.43 16.71,0 23.91,21.86 23.91,48.96 0,27.76 -8.46,46.56 -22.22,46.56zm0 35.19c49.09,0 76.59,-31.04 76.59,-81.75 0,-50.49 -24.76,-83.72 -78.07,-83.72 -45.07,0 -76.37,33.44 -76.37,81.97 0,56.39 32.37,83.5 77.85,83.5zm-130.96 -3.93l43.59 0 0 -56.17 8.67 0 0 -24.05 -72.14 0 0 24.05 13.32 0 0 9.4c-3.18,5.9 -8.46,10.93 -20.95,10.93 -18.83,0 -29.83,-18.36 -29.83,-41.31 0,-22.52 12.28,-42.19 29.83,-42.19 12.9,0 24.12,10.28 24.76,28.64l38.93 0 0 -66.24 -32.37 0 -4.65 16.18c-3.39,-3.49 -10.79,-18.8 -42.53,-18.8 -33.85,0 -66.85,33.67 -66.85,82.63 0,48.52 30.25,79.13 68.34,79.13 16.71,0 30.25,-7.87 35.11,-16.18l6.77 13.99zm-244.14 -127.66l13.75 0 0 97.5 -13.75 0 0 30.16 131.17 0 0 -50.72 -37.66 0 0 20.99 -34.69 0 0 -36.72 41.25 0 0 -29.95 -41.25 0 0 -31.04 34.9 0 0 20.11 37.66 0 0 -49.62 -131.17 0 0 29.29 -0.21 0z"/>
    <path id="Vector_16" class="fil5" d="M945.77 128.56c19.26,8.96 74.9,12.67 109.38,55.08 18.2,22.29 29.83,60.33 14.81,94.43 -5.5,-66.89 -41.68,-104.92 -124.19,-149.52z"/>
    <path id="Vector_17" class="fil4" d="M1046.69 368.57c0,0.21 0,0.44 0,0.65 0,0.45 0,0.66 -0.22,1.32 0,0.44 -0.21,0.88 -0.21,1.53 -0.22,0.44 -0.22,0.87 -0.43,1.31 -0.21,0.44 -0.21,0.88 -0.43,1.1 -0.21,0.22 -0.41,0.44 -0.63,0.44 -0.21,0 -0.42,0 -0.42,0 -0.21,0 -0.42,-0.22 -0.64,-0.22 -0.21,0 -0.42,-0.22 -0.63,-0.22 -0.21,0 -0.64,0 -0.84,0 -0.64,0 -1.27,0.22 -2.11,0.66 -0.64,0.44 -1.48,1.09 -2.11,1.96 -0.64,0.88 -1.28,1.76 -1.69,2.84 -0.43,1.1 -0.85,2.19 -1.06,3.5l-2.33 11.8c0,0.22 -0.21,0.44 -0.21,0.44 -0.21,0.21 -0.42,0.21 -0.64,0.44 -0.21,0 -0.63,0.21 -1.06,0.21 -0.42,0 -1.06,0 -1.69,0 -0.64,0 -1.27,0 -1.69,0 -0.43,0 -0.85,-0.21 -1.06,-0.21 -0.21,0 -0.43,-0.22 -0.43,-0.44 0,-0.22 0,-0.22 0,-0.44l5.08 -26.23c0,-0.22 0.22,-0.44 0.22,-0.44 0.21,-0.22 0.42,-0.22 0.63,-0.44 0.21,0 0.64,-0.22 1.06,-0.22 0.42,0 0.84,0 1.48,0 0.64,0 1.06,0 1.48,0 0.42,0 0.63,0.22 0.85,0.22 0.21,0 0.42,0.22 0.42,0.44 0,0.21 0,0.21 0,0.44l-0.85 4.15c0.43,-0.88 1.06,-1.53 1.49,-2.41 0.63,-0.65 1.27,-1.31 1.9,-1.75 0.64,-0.44 1.27,-0.88 2.12,-1.31 0.64,-0.22 1.48,-0.43 2.11,-0.43 0.21,0 0.64,0 0.85,0 0.21,0 0.63,0 0.84,0.21 0.21,0 0.43,0.22 0.63,0.22 0.22,0 0.43,0.22 0.43,0.22 -0.21,0.22 -0.21,0.44 -0.21,0.66zm-31.1 9.62c0,-0.87 0,-1.53 -0.21,-2.19 -0.22,-0.66 -0.42,-1.09 -0.85,-1.53 -0.42,-0.44 -0.84,-0.88 -1.48,-1.1 -0.63,-0.21 -1.27,-0.44 -2.11,-0.44 -0.84,0 -1.69,0.22 -2.54,0.66 -0.85,0.44 -1.48,0.88 -2.12,1.53 -0.63,0.65 -1.05,1.31 -1.48,2.19 -0.43,0.87 -0.84,1.75 -1.06,2.62 -0.21,0.88 -0.42,1.97 -0.63,2.84 -0.21,0.88 -0.21,1.97 -0.21,2.84 0,0.87 0,1.53 0.21,2.19 0.21,0.66 0.42,1.09 0.85,1.53 0.41,0.44 0.84,0.88 1.48,1.09 0.64,0.22 1.27,0.44 2.11,0.44 0.85,0 1.69,-0.22 2.54,-0.65 0.84,-0.44 1.48,-0.88 2.11,-1.53 0.64,-0.65 1.06,-1.31 1.48,-2.19 0.42,-0.87 0.84,-1.75 1.06,-2.62 0.21,-0.88 0.41,-1.97 0.63,-2.84 0.21,-1.1 0.21,-1.97 0.21,-2.84zm7.4 -0.44c0,1.31 -0.21,2.84 -0.42,4.37 -0.21,1.53 -0.63,2.84 -1.27,4.37 -0.63,1.31 -1.27,2.84 -2.11,3.93 -0.84,1.31 -1.9,2.41 -3.17,3.28 -1.27,0.87 -2.55,1.75 -4.02,2.18 -1.48,0.66 -3.38,0.88 -5.29,0.88 -1.9,0 -3.59,-0.22 -4.86,-0.65 -1.48,-0.44 -2.54,-1.1 -3.39,-1.97 -0.85,-0.87 -1.69,-1.97 -2.11,-3.28 -0.43,-1.31 -0.63,-2.84 -0.63,-4.37 0,-1.31 0.21,-2.84 0.42,-4.37 0.21,-1.53 0.63,-2.84 1.27,-4.37 0.63,-1.31 1.27,-2.84 2.11,-3.94 0.84,-1.31 1.9,-2.4 3.17,-3.27 1.28,-0.87 2.54,-1.76 4.24,-2.19 1.48,-0.65 3.38,-0.88 5.29,-0.88 1.91,0 3.6,0.22 4.87,0.66 1.48,0.44 2.54,1.09 3.38,1.97 0.84,0.88 1.69,1.96 2.11,3.27 0.21,1.1 0.42,2.63 0.42,4.37zm-23.27 -20.77c0,0.22 0,0.22 0,0.66 0,0.22 0,0.65 -0.21,0.88 0,0.44 0,0.65 -0.22,1.09 0,0.44 -0.21,0.66 -0.21,0.88 0,0.22 -0.21,0.65 -0.42,0.65 -0.21,0.22 -0.21,0.22 -0.42,0.22 -0.21,0 -0.21,0 -0.42,0 -0.22,0 -0.42,-0.22 -0.64,-0.22 -0.21,0 -0.42,-0.21 -0.84,-0.21 -0.21,0 -0.63,0 -0.85,0 -0.63,0 -1.05,0 -1.48,0.21 -0.43,0.22 -0.85,0.44 -1.06,0.88 -0.43,0.44 -0.63,0.87 -0.85,1.53 -0.21,0.65 -0.42,1.31 -0.64,2.19l-0.42 2.19 4.45 0c0.22,0 0.42,0 0.64,0.22 0,0.22 0.21,0.44 0.21,0.88 0,0.21 0,0.43 0,0.66 0,0.21 0,0.65 -0.21,1.09 0,0.43 -0.22,0.66 -0.22,1.09 -0.21,0.44 -0.21,0.65 -0.42,0.88 -0.21,0.21 -0.21,0.44 -0.42,0.65 -0.21,0.22 -0.42,0.22 -0.63,0.22l-4.66 0 -4.44 22.95c-0.42,1.53 -0.84,3.06 -1.27,4.37 -0.63,1.32 -1.27,2.19 -2.11,3.06 -0.85,0.87 -1.9,1.53 -2.96,1.96 -1.05,0.45 -2.54,0.66 -4.02,0.66 -1.06,0 -1.91,0 -2.54,-0.21 -0.64,-0.22 -1.06,-0.22 -1.28,-0.45 0,0 -0.21,-0.21 -0.21,-0.43 0,-0.22 0,-0.44 0,-0.65 0,-0.22 0,-0.22 0,-0.66 0,-0.21 0,-0.65 0.21,-0.87 0,-0.22 0.22,-0.66 0.22,-1.09 0,-0.44 0.21,-0.66 0.21,-0.88 0,-0.22 0.21,-0.44 0.42,-0.65 0.21,-0.22 0.21,-0.22 0.43,-0.22 0.21,0 0.21,0 0.42,0 0.21,0 0.21,0 0.42,0 0.21,0 0.21,0 0.43,0 0.21,0 0.42,0 0.63,0 0.64,0 1.06,0 1.48,-0.21 0.42,-0.22 0.84,-0.44 1.05,-0.88 0.42,-0.44 0.64,-0.88 0.84,-1.53 0.22,-0.65 0.43,-1.31 0.64,-2.19l4.23 -22.08 -3.18 0c-0.21,0 -0.42,0 -0.42,-0.22 -0.21,-0.21 -0.21,-0.44 -0.21,-0.87 0,-0.22 0,-0.44 0,-0.65 0,-0.22 0,-0.66 0.21,-1.09 0,-0.44 0.22,-0.65 0.22,-1.09 0,-0.45 0.21,-0.66 0.42,-0.88 0.21,-0.21 0.42,-0.43 0.42,-0.65 0.21,-0.22 0.42,-0.22 0.63,-0.22l3.18 0 0.64 -2.84c0.21,-1.53 0.84,-3.06 1.27,-4.37 0.63,-1.31 1.27,-2.41 2.11,-3.06 0.84,-0.87 1.9,-1.53 2.96,-1.97 1.05,-0.44 2.54,-0.66 4.02,-0.66 0.42,0 1.05,0 1.48,0 0.42,0 0.84,0.22 1.27,0.22 0.43,0 0.85,0.22 1.06,0.22 0.21,0.22 0.42,0.22 0.63,0.44 0.22,0 0.22,0.22 0.22,0.44 0.21,0.22 0.21,0.44 0.21,0.65zm-37.65 13.12c0,0.22 0,0.65 0,1.09 0,0.44 -0.22,0.88 -0.22,1.31 -0.21,0.43 -0.21,0.87 -0.42,1.31 -0.21,0.44 -0.42,0.44 -0.63,0.44 -0.21,0 -0.64,0 -0.84,-0.22 -0.43,-0.22 -0.64,-0.44 -1.28,-0.66 -0.42,-0.21 -1.05,-0.44 -1.69,-0.65 -0.63,-0.22 -1.27,-0.22 -2.32,-0.22 -0.64,0 -1.27,0 -1.69,0.22 -0.42,0.21 -0.84,0.44 -1.27,0.65 -0.42,0.22 -0.63,0.66 -0.85,1.1 -0.21,0.44 -0.21,0.87 -0.21,1.31 0,0.66 0.21,1.1 0.64,1.53 0.42,0.43 1.06,0.87 1.9,1.09 0.64,0.44 1.48,0.66 2.33,1.09 0.84,0.44 1.69,0.88 2.32,1.53 0.64,0.65 1.27,1.31 1.69,2.19 0.43,0.87 0.64,1.97 0.64,3.06 0,1.53 -0.21,2.84 -0.84,4.15 -0.64,1.31 -1.27,2.41 -2.33,3.28 -1.05,0.87 -2.32,1.53 -3.81,2.18 -1.48,0.44 -3.18,0.88 -5.08,0.88 -0.84,0 -1.69,0 -2.54,-0.22 -0.85,-0.22 -1.48,-0.22 -2.11,-0.43 -0.64,-0.22 -1.27,-0.44 -1.69,-0.66 -0.43,-0.22 -0.86,-0.44 -1.06,-0.65 -0.21,-0.22 -0.21,-0.22 -0.43,-0.43 0,-0.22 0,-0.45 0,-0.66 0,-0.22 0,-0.44 0,-0.65 0,-0.22 0,-0.66 0.22,-0.88 0,-0.44 0.21,-0.65 0.21,-1.09 0,-0.44 0.21,-0.66 0.21,-0.87 0.22,-0.22 0.22,-0.44 0.43,-0.66 0.21,-0.22 0.21,-0.22 0.43,-0.22 0.21,0 0.63,0.22 0.84,0.44 0.42,0.21 0.63,0.44 1.27,0.87 0.42,0.22 1.05,0.44 1.9,0.88 0.84,0.21 1.69,0.44 2.75,0.44 0.85,0 1.48,0 1.9,-0.22 0.64,-0.21 1.06,-0.43 1.48,-0.87 0.43,-0.44 0.64,-0.65 0.85,-1.09 0.21,-0.44 0.21,-0.88 0.21,-1.31 0,-0.66 -0.21,-1.32 -0.64,-1.76 -0.43,-0.44 -1.06,-0.88 -1.69,-1.09 -0.64,-0.44 -1.48,-0.66 -2.33,-1.1 -0.84,-0.44 -1.48,-0.87 -2.32,-1.53 -0.64,-0.65 -1.27,-1.31 -1.69,-2.18 -0.42,-0.88 -0.64,-1.96 -0.64,-3.06 0,-1.31 0.22,-2.62 0.85,-3.94 0.42,-1.09 1.27,-2.19 2.33,-3.06 1.05,-0.88 2.11,-1.53 3.59,-1.97 1.48,-0.43 2.97,-0.65 4.66,-0.65 0.85,0 1.48,0 2.32,0.22 0.85,0 1.49,0.22 1.91,0.43 0.64,0.22 1.05,0.44 1.48,0.66 0.42,0.22 0.84,0.44 1.05,0.66 0.22,-0.88 0.22,-0.43 0.22,0zm-30.05 5.03c0,-0.88 -0.21,-1.53 -0.85,-1.97 -0.63,-0.44 -1.48,-0.88 -2.54,-0.88 -0.85,0 -1.69,0.22 -2.54,0.44 -0.84,0.44 -1.48,0.87 -1.91,1.31 -0.63,0.66 -1.05,1.31 -1.48,2.19 -0.42,0.87 -0.64,1.75 -1.06,2.63l2.33 0c1.48,0 2.75,0 3.81,-0.22 1.06,-0.22 1.91,-0.44 2.54,-0.88 0.64,-0.43 1.06,-0.87 1.27,-1.31 0.43,-0.22 0.43,-0.66 0.43,-1.31zm7.19 -0.44c0,1.31 -0.21,2.62 -0.84,3.71 -0.64,1.09 -1.48,2.19 -2.75,2.84 -1.27,0.88 -2.96,1.53 -4.87,1.97 -1.9,0.44 -4.45,0.66 -7.19,0.66l-2.54 0c0,0.44 -0.21,0.87 -0.21,1.31 0,0.44 0,0.88 0,1.31 0,1.53 0.42,2.84 1.27,3.49 0.84,0.88 2.11,1.1 3.81,1.1 1.27,0 2.33,0 3.38,-0.22 1.06,-0.22 1.91,-0.44 2.54,-0.65 0.84,-0.22 1.27,-0.44 1.9,-0.66 0.43,-0.22 0.85,-0.22 1.06,-0.22 0.21,0 0.43,0 0.43,0.22 0,0.22 0.21,0.43 0.21,0.66 0,0.43 0,0.65 0,1.09 0,0.43 -0.21,0.87 -0.21,1.32 0,0.43 -0.22,0.87 -0.43,1.09 -0.21,0.43 -0.42,0.66 -0.64,0.87 -0.21,0.22 -0.63,0.44 -1.27,0.66 -0.63,0.22 -1.27,0.44 -2.11,0.65 -0.85,0.22 -1.9,0.44 -2.96,0.44 -1.06,0.22 -2.11,0.22 -3.18,0.22 -1.9,0 -3.38,-0.22 -4.65,-0.66 -1.27,-0.43 -2.54,-0.87 -3.38,-1.75 -0.85,-0.87 -1.49,-1.75 -2.12,-3.06 -0.42,-1.31 -0.64,-2.62 -0.64,-4.37 0,-1.31 0.21,-2.62 0.42,-4.15 0.21,-1.53 0.64,-3.06 1.06,-4.37 0.63,-1.53 1.27,-2.84 2.11,-4.15 0.85,-1.31 1.9,-2.41 2.96,-3.49 1.27,-1.1 2.54,-1.76 4.02,-2.41 1.48,-0.66 3.38,-0.87 5.29,-0.87 1.69,0 3.17,0.21 4.44,0.65 1.27,0.44 2.33,0.87 2.96,1.76 0.85,0.65 1.49,1.52 1.69,2.4 0.22,0.66 0.43,1.75 0.43,2.63zm-35.54 0.44c0,-0.88 -0.21,-1.53 -0.84,-1.97 -0.64,-0.44 -1.49,-0.88 -2.54,-0.88 -0.84,0 -1.69,0.22 -2.54,0.44 -0.85,0.44 -1.48,0.87 -1.9,1.31 -0.64,0.66 -1.06,1.31 -1.48,2.19 -0.42,0.87 -0.63,1.75 -1.05,2.63l2.32 0c1.48,0 2.75,0 3.81,-0.22 1.05,-0.22 1.9,-0.44 2.54,-0.88 0.63,-0.43 1.05,-0.87 1.27,-1.31 0.21,-0.22 0.42,-0.66 0.42,-1.31zm6.98 -0.44c0,1.31 -0.21,2.62 -0.85,3.71 -0.63,1.09 -1.48,2.19 -2.75,2.84 -1.27,0.88 -2.96,1.53 -4.87,1.97 -1.9,0.44 -4.45,0.66 -7.19,0.66l-2.54 0c0,0.44 -0.21,0.87 -0.21,1.31 0,0.44 0,0.88 0,1.31 0,1.53 0.42,2.84 1.27,3.49 0.84,0.88 2.11,1.1 3.81,1.1 1.27,0 2.32,0 3.38,-0.22 1.06,-0.22 1.9,-0.44 2.54,-0.65 0.84,-0.22 1.27,-0.44 1.9,-0.66 0.43,-0.22 0.85,-0.22 1.06,-0.22 0.21,0 0.43,0 0.43,0.22 0,0.22 0.21,0.43 0.21,0.66 0,0.43 0,0.65 0,1.09 0,0.43 -0.21,0.87 -0.21,1.32 0,0.43 -0.22,0.87 -0.43,1.09 -0.21,0.43 -0.42,0.66 -0.64,0.87 -0.21,0.22 -0.63,0.44 -1.27,0.66 -0.63,0.22 -1.27,0.44 -2.11,0.65 -0.85,0.22 -1.9,0.44 -2.96,0.44 -1.06,0.22 -2.11,0.22 -3.18,0.22 -1.9,0 -3.38,-0.22 -4.65,-0.66 -1.27,-0.43 -2.54,-0.87 -3.38,-1.75 -0.85,-0.87 -1.48,-1.75 -2.12,-3.06 -0.42,-1.31 -0.64,-2.62 -0.64,-4.37 0,-1.31 0.21,-2.62 0.43,-4.15 0.21,-1.53 0.63,-3.06 1.05,-4.37 0.63,-1.53 1.27,-2.84 2.11,-4.15 0.84,-1.31 1.91,-2.41 2.96,-3.49 1.27,-1.1 2.54,-1.76 4.02,-2.41 1.48,-0.66 3.38,-0.87 5.29,-0.87 1.69,0 3.17,0.21 4.44,0.65 1.27,0.44 2.33,0.87 2.96,1.76 0.86,0.65 1.49,1.52 1.7,2.4 0.21,0.66 0.42,1.75 0.42,2.63zm-24.33 -15.3c0,0.22 0,0.44 0,0.65 0,0.22 0,0.66 -0.22,1.09 0,0.44 -0.21,0.66 -0.21,1.1 0,0.44 -0.21,0.88 -0.42,1.09 -0.21,0.44 -0.21,0.66 -0.42,0.88 -0.22,0.22 -0.42,0.22 -0.64,0.22l-12.06 0 -1.9 10.28 11.21 0c0.21,0 0.42,0.22 0.63,0.22 0.21,0.22 0.21,0.43 0.21,0.87 0,0.22 0,0.44 0,0.66 0,0.22 0,0.65 -0.21,1.09 0,0.44 -0.21,0.66 -0.21,1.1 0,0.44 -0.21,0.66 -0.42,1.1 -0.21,0.21 -0.21,0.65 -0.42,0.87 -0.22,0.22 -0.42,0.22 -0.64,0.22l-11.21 0 -2.75 14.21c0,0.22 -0.21,0.44 -0.21,0.66 -0.21,0.21 -0.42,0.21 -0.64,0.44 -0.21,0 -0.63,0.21 -1.27,0.21 -0.41,0 -1.05,0 -1.9,0 -0.64,0 -1.27,0 -1.91,0 -0.42,0 -0.84,-0.21 -1.05,-0.21 -0.21,0 -0.42,-0.22 -0.64,-0.44 0,-0.22 -0.21,-0.44 0,-0.66l6.56 -34.32c0.21,-0.88 0.43,-1.53 1.06,-1.97 0.43,-0.43 1.06,-0.65 1.7,-0.65l17.13 0c0.42,0 0.42,0 0.63,0.22 0.22,0.43 0.22,0.66 0.22,1.09zm-41.05 9.4c0,0.22 0,0.66 -0.21,0.88 0,0.43 -0.21,0.65 -0.21,0.87 -0.64,2.19 -1.48,4.15 -2.33,6.34 -0.84,2.19 -1.69,4.15 -2.75,6.34 -1.06,1.97 -2.11,4.15 -3.18,6.12 -1.06,1.96 -2.33,3.93 -3.59,5.68 -0.21,0.22 -0.43,0.44 -0.64,0.66 -0.22,0.21 -0.64,0.21 -1.06,0.44 -0.43,0 -0.85,0.21 -1.27,0.21 -0.42,0 -1.05,0 -1.69,0 -0.84,0 -1.48,0 -1.9,0 -0.42,0 -0.84,-0.21 -1.27,-0.21 -0.22,-0.22 -0.43,-0.22 -0.64,-0.44 -0.21,-0.22 -0.21,-0.44 -0.21,-0.88l-1.27 -16.18 -6.99 15.96c-0.21,0.44 -0.42,0.66 -0.42,0.88 -0.21,0.22 -0.42,0.43 -0.84,0.43 -0.43,0 -0.86,0.22 -1.49,0.22 -0.64,0 -1.27,0 -2.33,0 -0.85,0 -1.69,0 -2.12,0 -0.63,0 -1.05,-0.22 -1.27,-0.22 -0.21,-0.21 -0.42,-0.21 -0.63,-0.43 -0.22,-0.22 -0.22,-0.44 -0.22,-0.88l-2.11 -23.6c0,-0.22 0,-0.44 0,-0.66 0,-0.22 0,-0.44 0,-0.65 0,-0.45 0,-0.66 0.22,-0.88 0,-0.21 0.21,-0.43 0.41,-0.65 0.22,-0.22 0.64,-0.22 1.06,-0.44 0.42,0 1.27,0 2.11,0 0.85,0 1.27,0 1.69,0 0.42,0 0.85,0.22 1.06,0.22 0.22,0 0.42,0.22 0.42,0.44 0,0.22 0.21,0.43 0.21,0.66l1.27 19.23 0 0.44 0.21 -0.44 8.25 -19.23c0,-0.22 0.21,-0.44 0.43,-0.66 0.21,-0.22 0.42,-0.22 0.63,-0.44 0.21,0 0.64,-0.22 1.06,-0.22 0.43,0 1.06,0 1.69,0 0.64,0 1.27,0 1.69,0 0.43,0 0.85,0.22 1.06,0.22 0.21,0 0.43,0.22 0.43,0.44 0,0.22 0.21,0.22 0.21,0.43l1.49 19.25 0 0.21 0.21 -0.21c0.64,-1.32 1.48,-2.63 2.11,-4.15 0.64,-1.53 1.49,-3.06 2.12,-4.81 0.64,-1.75 1.27,-3.28 1.91,-5.03 0.64,-1.75 1.06,-3.49 1.69,-5.03 0,-0.22 0.21,-0.44 0.21,-0.66 0.21,-0.22 0.43,-0.22 0.63,-0.44 0.22,0 0.64,-0.22 1.27,-0.22 0.42,0 1.06,0 1.91,0 0.63,0 1.27,0 1.69,0 0.42,0 0.84,0 1.05,0.22 0.21,0 0.43,0.22 0.43,0.22 -0.22,0.22 -0.22,0.44 -0.22,0.65zm-52.89 9.4c0,-0.87 0,-1.53 -0.21,-2.19 -0.21,-0.66 -0.42,-1.09 -0.85,-1.53 -0.42,-0.44 -0.84,-0.88 -1.48,-1.1 -0.63,-0.21 -1.27,-0.44 -2.11,-0.44 -0.85,0 -1.69,0.22 -2.54,0.66 -0.85,0.44 -1.48,0.88 -2.12,1.53 -0.63,0.65 -1.05,1.31 -1.48,2.19 -0.41,0.87 -0.84,1.75 -1.05,2.62 -0.22,0.88 -0.42,1.97 -0.64,2.84 -0.21,0.88 -0.21,1.97 -0.21,2.84 0,0.87 0,1.53 0.21,2.19 0.22,0.66 0.42,1.09 0.85,1.53 0.43,0.44 0.84,0.88 1.48,1.09 0.63,0.22 1.27,0.44 2.11,0.44 0.85,0 1.69,-0.22 2.54,-0.65 0.85,-0.44 1.49,-0.88 2.12,-1.53 0.64,-0.65 1.06,-1.31 1.48,-2.19 0.42,-0.87 0.84,-1.75 1.05,-2.62 0.22,-0.88 0.43,-1.97 0.64,-2.84 0.21,-1.1 0.21,-1.97 0.21,-2.84zm7.4 -0.44c0,1.31 -0.21,2.84 -0.42,4.37 -0.21,1.53 -0.63,2.84 -1.27,4.37 -0.63,1.31 -1.27,2.84 -2.11,3.93 -0.85,1.31 -1.9,2.41 -3.17,3.28 -1.28,0.87 -2.55,1.75 -4.02,2.18 -1.48,0.66 -3.38,0.88 -5.29,0.88 -1.91,0 -3.6,-0.22 -4.87,-0.65 -1.48,-0.44 -2.54,-1.1 -3.38,-1.97 -0.85,-0.87 -1.69,-1.97 -2.12,-3.28 -0.42,-1.31 -0.63,-2.84 -0.63,-4.37 0,-1.31 0.21,-2.84 0.42,-4.37 0.21,-1.53 0.64,-2.84 1.27,-4.37 0.63,-1.31 1.27,-2.84 2.12,-3.94 0.84,-1.31 1.9,-2.4 3.17,-3.27 1.27,-0.87 2.54,-1.76 4.23,-2.19 1.49,-0.65 3.39,-0.88 5.29,-0.88 1.91,0 3.6,0.22 4.87,0.66 1.48,0.44 2.54,1.09 3.38,1.97 0.84,0.88 1.69,1.96 2.11,3.27 0.21,1.1 0.42,2.63 0.42,4.37zm-31.1 13.12c0,0.22 0,0.44 0,0.66 0,0.21 0,0.65 -0.21,1.1 0,0.43 -0.22,0.87 -0.22,1.09 0,0.43 -0.21,0.87 -0.42,1.09 -0.21,0.44 -0.21,0.65 -0.42,0.88 -0.21,0.21 -0.42,0.21 -0.63,0.21l-16.93 0c-0.22,0 -0.64,0 -0.85,-0.21 -0.21,0 -0.42,-0.22 -0.64,-0.44 -0.21,-0.22 -0.21,-0.44 -0.42,-0.66 0,-0.21 0,-0.66 0,-1.09l6.77 -34.32c0,-0.21 0.21,-0.44 0.21,-0.44 0.21,-0.21 0.42,-0.21 0.64,-0.43 0.21,0 0.63,-0.22 1.27,-0.22 0.42,0 1.05,0 1.91,0 0.63,0 1.26,0 1.69,0 0.43,0 0.84,0.22 1.06,0.22 0.21,0 0.42,0.22 0.42,0.43 0,0.22 0,0.44 0,0.44l-5.92 30.61 11.63 0c0.21,0 0.43,0 0.63,0.21 0.22,0.22 0.43,0.44 0.43,0.88zm-27.71 -0.65c0,0.21 0,0.65 0,1.09 0,0.43 -0.22,0.87 -0.22,1.53 -0.21,0.44 -0.21,0.88 -0.42,1.53 -0.21,0.43 -0.42,0.87 -0.64,1.09 -0.21,0.22 -0.63,0.66 -1.27,0.66 -0.63,0.21 -1.26,0.21 -2.32,0.21 -0.64,0 -1.27,0 -1.69,-0.21 -0.42,0 -0.85,-0.22 -1.06,-0.44 -0.21,-0.22 -0.42,-0.44 -0.63,-0.88 -0.22,-0.43 -0.22,-0.88 -0.22,-1.31 0,-0.22 0,-0.66 0,-1.1 0,-0.43 0.22,-0.87 0.22,-1.53 0.21,-0.44 0.21,-0.88 0.42,-1.53 0.21,-0.44 0.42,-0.87 0.85,-1.1 0.21,-0.21 0.63,-0.66 1.27,-0.66 0.63,-0.21 1.27,-0.21 2.32,-0.21 0.64,0 1.27,0 1.91,0.21 0.42,0.22 0.84,0.22 1.06,0.66 0.21,0.22 0.42,0.44 0.63,0.88 -0.21,0.22 -0.21,0.66 -0.21,1.1zm-15.45 0c0,0.21 0,0.65 0,1.09 0,0.43 -0.21,0.87 -0.21,1.53 -0.21,0.44 -0.21,0.88 -0.42,1.53 -0.21,0.43 -0.42,0.87 -0.64,1.09 -0.21,0.22 -0.63,0.66 -1.27,0.66 -0.63,0.21 -1.27,0.21 -2.32,0.21 -0.64,0 -1.28,0 -1.69,-0.21 -0.42,0 -0.85,-0.22 -1.06,-0.44 -0.21,-0.22 -0.42,-0.44 -0.64,-0.88 -0.21,-0.43 -0.21,-0.88 -0.21,-1.31 0,-0.22 0,-0.66 0,-1.1 0,-0.43 0.21,-0.87 0.21,-1.53 0.22,-0.44 0.22,-0.88 0.43,-1.53 0.21,-0.44 0.42,-0.87 0.85,-1.1 0.21,-0.21 0.63,-0.66 1.27,-0.66 0.63,-0.21 1.27,-0.21 2.32,-0.21 0.64,0 1.27,0 1.91,0.21 0.42,0.22 0.84,0.22 1.05,0.66 0.21,0.22 0.42,0.44 0.64,0.88 -0.22,0.22 -0.22,0.66 -0.22,1.1zm-15.44 0c0,0.21 0,0.65 0,1.09 0,0.43 -0.21,0.87 -0.21,1.53 -0.21,0.44 -0.21,0.88 -0.43,1.53 -0.21,0.43 -0.41,0.87 -0.63,1.09 -0.21,0.22 -0.63,0.66 -1.27,0.66 -0.63,0.21 -1.27,0.21 -2.33,0.21 -0.63,0 -1.27,0 -1.69,-0.21 -0.42,0 -0.84,-0.22 -1.05,-0.44 -0.22,-0.22 -0.42,-0.44 -0.64,-0.88 -0.21,-0.43 -0.21,-0.88 -0.21,-1.31 0,-0.22 0,-0.66 0,-1.1 0,-0.43 0.21,-0.87 0.21,-1.53 0.22,-0.44 0.22,-0.88 0.42,-1.53 0.22,-0.44 0.43,-0.87 0.85,-1.1 0.21,-0.21 0.64,-0.66 1.27,-0.66 0.64,-0.21 1.27,-0.21 2.33,-0.21 0.63,0 1.27,0 1.9,0.21 0.43,0.22 0.84,0.22 1.06,0.66 0.21,0.22 0.42,0.44 0.64,0.88 -0.22,0.22 -0.22,0.66 -0.22,1.1z"/>
    <path id="Vector_18" class="fil4" d="M1364.45 368.57c0,0.22 0,0.44 0,0.66 0,0.44 0,0.65 -0.21,1.31 0,0.44 -0.22,0.88 -0.22,1.53 -0.21,0.43 -0.21,0.87 -0.42,1.31 -0.21,0.44 -0.21,0.87 -0.42,1.09 -0.21,0.22 -0.43,0.44 -0.64,0.44 -0.22,0 -0.43,0 -0.43,0 -0.21,0 -0.42,-0.22 -0.64,-0.22 -0.21,0 -0.43,-0.22 -0.63,-0.22 -0.22,0 -0.64,0 -0.85,0 -0.64,0 -1.27,0.22 -2.11,0.66 -0.64,0.44 -1.48,1.1 -2.11,1.96 -0.64,0.88 -1.27,1.76 -1.7,2.84 -0.42,1.1 -0.84,2.19 -1.05,3.5l-2.33 11.8c0,0.22 -0.21,0.44 -0.21,0.44 -0.21,0.22 -0.42,0.22 -0.64,0.44 -0.21,0 -0.63,0.22 -1.05,0.22 -0.43,0 -1.06,0 -1.69,0 -0.64,0 -1.27,0 -1.7,0 -0.42,0 -0.84,-0.22 -1.05,-0.22 -0.22,0 -0.43,-0.22 -0.43,-0.44 0,-0.22 0,-0.22 0,-0.44l5.08 -26.23c0,-0.22 0.22,-0.44 0.22,-0.44 0.21,-0.22 0.42,-0.22 0.63,-0.44 0.21,0 0.64,-0.22 1.06,-0.22 0.42,0 0.84,0 1.48,0 0.63,0 1.05,0 1.48,0 0.43,0 0.64,0.22 0.85,0.22 0.21,0 0.42,0.22 0.42,0.44 0,0.22 0,0.22 0,0.44l-0.84 4.15c0.42,-0.88 1.06,-1.53 1.48,-2.41 0.63,-0.65 1.27,-1.31 1.9,-1.75 0.64,-0.44 1.27,-0.88 2.12,-1.31 0.64,-0.21 1.48,-0.43 2.11,-0.43 0.21,0 0.64,0 0.84,0 0.22,0 0.64,0 0.85,0.22 0.21,0 0.42,0.21 0.64,0.21 0.21,0 0.42,0.22 0.42,0.22 -0.22,0.22 -0.21,0.44 -0.21,0.66zm-30.25 6.56c0,-0.88 -0.21,-1.53 -0.85,-1.97 -0.63,-0.44 -1.48,-0.88 -2.54,-0.88 -0.84,0 -1.69,0.22 -2.54,0.44 -0.84,0.44 -1.48,0.87 -1.9,1.31 -0.64,0.66 -1.06,1.31 -1.48,2.19 -0.42,0.86 -0.63,1.75 -1.06,2.62l2.33 0c1.48,0 2.75,0 3.81,-0.22 1.06,-0.22 1.91,-0.44 2.54,-0.88 0.64,-0.43 1.06,-0.87 1.28,-1.31 0.42,-0.21 0.42,-0.65 0.42,-1.31zm7.19 -0.44c0,1.31 -0.21,2.62 -0.84,3.72 -0.64,1.09 -1.49,2.19 -2.75,2.84 -1.27,0.88 -2.96,1.53 -4.86,1.97 -1.91,0.44 -4.45,0.66 -7.19,0.66l-2.54 0c0,0.44 -0.21,0.87 -0.21,1.31 0,0.44 0,0.88 0,1.31 0,1.53 0.43,2.84 1.27,3.49 0.85,0.88 2.11,1.1 3.81,1.1 1.27,0 2.32,0 3.38,-0.22 1.05,-0.22 1.9,-0.44 2.54,-0.65 0.84,-0.22 1.27,-0.44 1.91,-0.65 0.42,-0.22 0.84,-0.22 1.05,-0.22 0.22,0 0.42,0 0.42,0.22 0,0.22 0.22,0.43 0.22,0.65 0,0.43 0,0.65 0,1.09 0,0.44 -0.22,0.88 -0.22,1.31 0,0.43 -0.21,0.87 -0.42,1.09 -0.21,0.44 -0.42,0.66 -0.63,0.87 -0.21,0.22 -0.64,0.44 -1.27,0.66 -0.64,0.22 -1.27,0.44 -2.12,0.66 -0.85,0.22 -1.91,0.44 -2.97,0.44 -1.05,0.21 -2.11,0.21 -3.17,0.21 -1.91,0 -3.38,-0.21 -4.65,-0.65 -1.27,-0.44 -2.54,-0.88 -3.39,-1.75 -0.84,-0.88 -1.48,-1.76 -2.11,-3.06 -0.42,-1.31 -0.63,-2.62 -0.63,-4.37 0,-1.31 0.21,-2.63 0.42,-4.15 0.21,-1.53 0.63,-3.07 1.06,-4.38 0.64,-1.53 1.27,-2.84 2.11,-4.15 0.84,-1.31 1.91,-2.4 2.96,-3.49 1.27,-1.1 2.55,-1.75 4.02,-2.41 1.48,-0.65 3.38,-0.87 5.29,-0.87 1.69,0 3.18,0.22 4.45,0.65 1.27,0.44 2.32,0.88 2.96,1.76 0.84,0.65 1.48,1.53 1.69,2.41 0.21,0.65 0.42,1.75 0.42,2.62zm-27.29 -13.56c0,0.22 0,0.44 0,0.66 0,0.22 0,0.66 -0.21,0.88 0,0.44 -0.21,0.66 -0.21,1.1 0,0.43 -0.21,0.65 -0.43,1.09 -0.21,0.22 -0.21,0.43 -0.42,0.66 -0.21,0.21 -0.42,0.21 -0.42,0.21 -0.22,0 -0.64,-0.21 -1.05,-0.44 -0.43,-0.21 -0.85,-0.43 -1.49,-0.87 -0.64,-0.22 -1.27,-0.65 -2.11,-0.88 -0.84,-0.21 -1.69,-0.43 -2.54,-0.43 -1.06,0 -1.91,0.22 -2.54,0.43 -0.64,0.22 -1.27,0.66 -1.7,1.1 -0.43,0.44 -0.85,1.09 -1.06,1.53 -0.21,0.66 -0.42,1.1 -0.42,1.75 0,0.66 0.22,1.32 0.42,1.97 0.43,0.44 0.85,1.1 1.27,1.53 0.64,0.43 1.27,0.87 1.91,1.31 0.63,0.44 1.48,0.87 2.11,1.31 0.84,0.44 1.48,0.88 2.11,1.53 0.63,0.66 1.27,1.09 1.9,1.97 0.64,0.65 1.06,1.53 1.27,2.62 0.42,0.88 0.42,1.97 0.42,3.28 0,1.75 -0.42,3.49 -1.06,5.03 -0.64,1.52 -1.69,2.84 -2.96,4.15 -1.27,1.09 -2.96,1.96 -4.87,2.62 -1.91,0.66 -4.02,1.1 -6.14,1.1 -1.27,0 -2.33,0 -3.38,-0.22 -1.06,-0.22 -1.91,-0.44 -2.75,-0.66 -0.84,-0.22 -1.48,-0.65 -1.9,-0.88 -0.64,-0.21 -1.06,-0.65 -1.27,-0.87 -0.22,-0.22 -0.43,-0.65 -0.43,-1.31 0,-0.21 0,-0.43 0,-0.65 0,-0.22 0,-0.66 0.21,-1.1 0,-0.43 0.22,-0.66 0.22,-1.09 0,-0.44 0.21,-0.66 0.42,-1.09 0.21,-0.22 0.21,-0.66 0.42,-0.88 0.21,-0.22 0.42,-0.22 0.42,-0.22 0.43,0 0.63,0.22 1.06,0.44 0.42,0.22 1.06,0.66 1.69,1.09 0.64,0.44 1.48,0.66 2.33,1.09 0.85,0.22 1.91,0.44 3.18,0.44 1.06,0 2.12,-0.21 2.96,-0.44 0.84,-0.21 1.48,-0.65 2.11,-1.09 0.64,-0.43 1.05,-1.09 1.27,-1.75 0.21,-0.66 0.42,-1.32 0.42,-2.18 0,-0.66 -0.21,-1.32 -0.42,-1.97 -0.42,-0.66 -0.85,-1.09 -1.27,-1.53 -0.64,-0.44 -1.27,-0.88 -1.91,-1.31 -0.63,-0.43 -1.48,-0.87 -2.11,-1.31 -0.63,-0.44 -1.48,-0.87 -2.12,-1.53 -0.63,-0.44 -1.27,-1.09 -1.9,-1.97 -0.64,-0.65 -1.06,-1.52 -1.27,-2.62 -0.43,-0.88 -0.43,-1.97 -0.43,-3.28 0,-1.75 0.43,-3.28 1.06,-4.8 0.64,-1.53 1.69,-2.84 2.75,-3.72 1.27,-1.1 2.75,-1.97 4.23,-2.41 1.69,-0.65 3.6,-0.88 5.5,-0.88 0.85,0 1.91,0 2.75,0.22 0.85,0.21 1.69,0.43 2.32,0.65 0.64,0.22 1.28,0.44 1.69,0.66 0.42,0.21 0.85,0.44 1.06,0.65 0.21,0.22 0.42,0.44 0.42,0.66 0.85,0 0.85,0.22 0.85,0.65zm-46.34 33.88c0,0.22 -0.21,0.44 -0.21,0.44 -0.21,0.22 -0.42,0.22 -0.64,0.44 -0.21,0 -0.63,0.22 -1.06,0.22 -0.42,0 -1.06,0 -1.69,0 -0.64,0 -1.27,0 -1.69,0 -0.43,0 -0.85,-0.22 -1.06,-0.22 -0.22,0 -0.43,-0.22 -0.43,-0.44 0,-0.22 -0.21,-0.22 0,-0.44l7.19 -38.47c0,-0.22 0.22,-0.44 0.22,-0.44 0.21,-0.22 0.42,-0.22 0.63,-0.44 0.21,0 0.64,-0.21 1.06,-0.21 0.42,0 1.05,0 1.69,0 0.64,0 1.27,0 1.69,0 0.42,0 0.84,0.21 1.06,0.21 0.21,0 0.42,0.22 0.42,0.44 0,0.22 0,0.44 0,0.44l-7.2 38.47zm-17.77 -18.36c-0.64,-1.09 -1.48,-1.75 -2.11,-2.4 -0.84,-0.43 -1.7,-0.87 -2.75,-0.87 -0.84,0 -1.48,0.21 -2.11,0.65 -0.64,0.44 -1.27,0.88 -1.69,1.53 -0.42,0.66 -1.06,1.31 -1.27,2.18 -0.42,0.88 -0.64,1.75 -1.06,2.63 -0.21,0.86 -0.42,1.96 -0.63,2.84 -0.21,0.87 -0.21,1.76 -0.21,2.62 0,0.66 0,1.1 0.21,1.76 0,0.44 0.21,1.09 0.42,1.31 0.21,0.44 0.64,0.66 0.85,0.88 0.42,0.21 0.85,0.44 1.48,0.44 0.85,0 1.69,-0.22 2.54,-0.88 0.84,-0.44 1.69,-1.31 2.54,-2.19 0.85,-0.88 1.49,-1.97 1.91,-3.06 0.63,-1.09 1.06,-2.41 1.27,-3.71l0.64 -3.72zm3.59 18.36c0,0.44 -0.42,0.66 -0.85,0.88 -0.42,0.22 -1.27,0.22 -2.54,0.22 -0.64,0 -1.05,0 -1.48,0 -0.43,0 -0.63,0 -0.84,-0.22 -0.21,0 -0.43,-0.22 -0.43,-0.44 0,-0.22 0,-0.44 0,-0.44l0.84 -4.15c-0.21,0.66 -0.84,1.32 -1.27,1.97 -0.63,0.66 -1.27,1.32 -2.11,1.97 -0.85,0.65 -1.69,1.1 -2.75,1.31 -1.06,0.43 -2.11,0.66 -3.18,0.66 -1.48,0 -2.75,-0.22 -3.81,-0.88 -1.06,-0.66 -1.91,-1.32 -2.33,-2.19 -0.63,-0.88 -1.06,-1.96 -1.27,-3.28 -0.21,-1.09 -0.42,-2.4 -0.42,-3.71 0,-1.31 0.21,-2.63 0.42,-3.94 0.21,-1.53 0.64,-2.84 1.06,-4.37 0.42,-1.53 1.05,-2.84 1.9,-4.15 0.85,-1.31 1.7,-2.62 2.75,-3.5 1.06,-1.09 2.12,-1.75 3.6,-2.4 1.27,-0.66 2.75,-0.87 4.44,-0.87 1.48,0 2.96,0.43 4.23,1.09 1.28,0.66 2.33,1.75 3.18,2.84l0.43 -2.41c0,-0.44 0.42,-0.65 0.84,-0.88 0.42,-0.22 1.27,-0.22 2.54,-0.22 0.64,0 1.06,0 1.49,0 0.42,0 0.64,0.22 0.84,0.22 0.21,0 0.42,0.22 0.42,0.44 0,0.22 0,0.22 0,0.44l-5.71 26.01zm-30.68 0c0,0.22 -0.21,0.44 -0.21,0.44 -0.22,0.22 -0.42,0.22 -0.64,0.44 -0.21,0 -0.63,0.22 -1.05,0.22 -0.42,0 -1.06,0 -1.7,0 -0.63,0 -1.26,0 -1.68,0 -0.43,0 -0.84,-0.22 -1.06,-0.22 -0.21,0 -0.42,-0.22 -0.42,-0.44 0,-0.22 0,-0.22 0,-0.44l5.08 -26.01c0,-0.22 0.21,-0.44 0.21,-0.44 0.21,-0.22 0.42,-0.22 0.63,-0.44 0.22,0 0.64,-0.22 1.06,-0.22 0.42,0 1.05,0 1.69,0 0.64,0 1.27,0 1.69,0 0.42,0 0.84,0.22 1.06,0.22 0.21,0 0.41,0.22 0.41,0.44 0,0.22 0,0.22 0,0.44l-5.07 26.01zm7.4 -34.97c-0.21,0.65 -0.42,1.31 -0.63,1.75 -0.21,0.44 -0.64,0.88 -0.84,1.1 -0.43,0.22 -0.86,0.44 -1.49,0.65 -0.64,0.22 -1.27,0.22 -2.11,0.22 -0.84,0 -1.48,0 -1.91,-0.22 -0.42,-0.21 -0.85,-0.43 -1.05,-0.65 -0.22,-0.22 -0.43,-0.66 -0.43,-1.1 0,-0.43 0,-1.09 0.21,-1.75 0.22,-0.66 0.22,-1.31 0.64,-1.75 0.21,-0.43 0.42,-0.87 0.84,-1.09 0.43,-0.22 0.85,-0.44 1.48,-0.66 0.64,-0.22 1.27,-0.22 2.11,-0.22 0.84,0 1.48,0 1.91,0.22 0.43,0.22 0.85,0.43 1.06,0.66 0.21,0.22 0.43,0.66 0.43,1.09 0,0.44 -0.22,1.09 -0.22,1.75zm-15.23 10.71c0,0.44 0,0.88 -0.21,1.53 -0.21,0.66 -0.21,1.1 -0.42,1.53 -0.22,0.43 -0.42,0.87 -0.64,1.31 -0.21,0.44 -0.63,0.44 -0.84,0.44 -0.21,0 -0.63,-0.22 -0.85,-0.44 -0.21,-0.22 -0.63,-0.44 -1.05,-0.88 -0.42,-0.22 -0.84,-0.66 -1.48,-0.87 -0.63,-0.22 -1.27,-0.44 -2.32,-0.44 -1.06,0 -1.91,0.22 -2.54,0.65 -0.85,0.44 -1.48,1.1 -2.11,1.75 -0.63,0.66 -1.06,1.53 -1.48,2.41 -0.42,0.88 -0.64,1.75 -0.84,2.84 -0.22,0.88 -0.43,1.75 -0.43,2.62 -0.21,0.87 -0.21,1.53 -0.21,2.19 0,1.53 0.42,2.84 1.06,3.49 0.63,0.88 1.69,1.31 3.17,1.31 1.06,0 1.91,-0.22 2.75,-0.44 0.85,-0.22 1.48,-0.66 1.9,-0.88 0.64,-0.43 1.06,-0.66 1.48,-0.87 0.42,-0.22 0.85,-0.44 1.06,-0.44 0.21,0 0.42,0 0.42,0.22 0,0.22 0.21,0.43 0.21,0.87 0,0.44 0,0.66 -0.21,1.31 0,0.44 -0.21,1.1 -0.21,1.53 -0.21,0.44 -0.21,1.1 -0.42,1.53 -0.21,0.44 -0.43,0.88 -0.63,1.1 -0.22,0.22 -0.64,0.43 -1.27,0.87 -0.64,0.22 -1.28,0.66 -1.91,0.88 -0.64,0.22 -1.48,0.44 -2.33,0.65 -0.85,0.22 -1.69,0.22 -2.54,0.22 -3.17,0 -5.7,-0.88 -7.19,-2.62 -1.69,-1.76 -2.33,-4.16 -2.33,-7.43 0,-1.1 0,-2.41 0.42,-3.94 0.21,-1.53 0.64,-2.84 1.06,-4.37 0.42,-1.53 1.06,-2.84 1.91,-4.15 0.84,-1.31 1.68,-2.62 2.96,-3.5 1.05,-1.09 2.54,-1.96 4.02,-2.4 1.48,-0.66 3.18,-0.87 5.08,-0.87 0.85,0 1.48,0 2.12,0.21 0.63,0.22 1.27,0.22 1.9,0.44 0.64,0.22 1.06,0.44 1.69,0.66 0.42,0.22 0.85,0.44 1.06,0.65 0.21,0.22 0.42,0.44 0.42,0.66 -0.21,0.22 -0.21,0.44 -0.21,0.65zm-26.66 3.94c0,0.65 0,1.31 -0.21,1.96 0,0.66 -0.22,1.32 -0.43,2.19l-3.18 16.17c0,0.22 -0.21,0.44 -0.21,0.44 -0.21,0.22 -0.43,0.22 -0.64,0.44 -0.22,0 -0.64,0.22 -1.06,0.22 -0.43,0 -1.05,0 -1.69,0 -0.63,0 -1.27,0 -1.69,0 -0.42,0 -0.85,-0.22 -1.05,-0.22 -0.22,0 -0.43,-0.22 -0.43,-0.44 0,-0.22 0,-0.22 0,-0.44l2.96 -15.73c0,-0.44 0.21,-0.88 0.21,-1.53 0,-0.43 0,-0.87 0,-1.31 0,-0.87 -0.21,-1.53 -0.63,-2.19 -0.42,-0.66 -1.06,-0.87 -1.91,-0.87 -0.84,0 -1.48,0.21 -2.33,0.65 -0.85,0.44 -1.69,1.1 -2.32,1.97 -0.85,0.88 -1.48,1.97 -1.91,3.06 -0.63,1.09 -1.05,2.41 -1.27,3.72l-2.32 11.8c0,0.22 -0.22,0.44 -0.22,0.44 -0.21,0.22 -0.42,0.22 -0.63,0.44 -0.21,0 -0.64,0.22 -1.06,0.22 -0.42,0 -1.06,0 -1.69,0 -0.63,0 -1.27,0 -1.69,0 -0.42,0 -0.84,-0.22 -1.06,-0.22 -0.21,0 -0.42,-0.22 -0.42,-0.44 0,-0.22 0,-0.22 0,-0.44l5.08 -26.23c0,-0.22 0.22,-0.44 0.22,-0.44 0.21,-0.22 0.21,-0.22 0.64,-0.43 0.21,0 0.63,-0.22 1.05,-0.22 0.43,0 0.85,0 1.49,0 0.63,0 1.05,0 1.48,0 0.42,0 0.64,0.22 0.85,0.22 0.21,0 0.42,0.21 0.42,0.43 0,0.22 0,0.22 0,0.44l-0.85 4.37c0.43,-0.65 0.85,-1.31 1.49,-2.19 0.63,-0.66 1.48,-1.31 2.33,-1.97 0.85,-0.66 1.9,-1.09 2.75,-1.31 1.06,-0.44 2.12,-0.44 3.18,-0.44 1.27,0 2.54,0.22 3.38,0.66 0.85,0.43 1.69,0.87 2.12,1.53 0.64,0.66 1.06,1.53 1.27,2.41 0,1.31 0,2.41 0,3.28zm-37.87 1.96c-0.64,-1.09 -1.48,-1.75 -2.11,-2.4 -0.85,-0.43 -1.69,-0.87 -2.75,-0.87 -0.84,0 -1.48,0.21 -2.11,0.65 -0.64,0.44 -1.27,0.88 -1.69,1.53 -0.42,0.66 -1.06,1.31 -1.27,2.18 -0.42,0.88 -0.64,1.75 -1.06,2.63 -0.21,0.86 -0.42,1.96 -0.63,2.84 -0.21,0.87 -0.21,1.76 -0.21,2.62 0,0.66 0,1.1 0.21,1.76 0,0.44 0.21,1.09 0.42,1.31 0.21,0.44 0.63,0.66 0.85,0.88 0.42,0.21 0.84,0.44 1.48,0.44 0.86,0 1.7,-0.22 2.54,-0.88 0.84,-0.44 1.7,-1.31 2.54,-2.19 0.84,-0.88 1.48,-1.97 1.9,-3.06 0.64,-1.09 1.06,-2.41 1.27,-3.71l0.64 -3.72zm3.6 18.36c0,0.44 -0.43,0.66 -0.84,0.88 -0.43,0.22 -1.27,0.22 -2.54,0.22 -0.63,0 -1.05,0 -1.48,0 -0.42,0 -0.64,0 -0.84,-0.22 -0.22,0 -0.42,-0.22 -0.42,-0.44 0,-0.22 0,-0.44 0,-0.44l0.84 -4.15c-0.21,0.66 -0.84,1.32 -1.27,1.97 -0.64,0.66 -1.27,1.32 -2.11,1.97 -0.84,0.65 -1.69,1.1 -2.75,1.31 -1.06,0.43 -2.11,0.66 -3.18,0.66 -1.48,0 -2.75,-0.22 -3.81,-0.88 -1.05,-0.66 -1.9,-1.32 -2.33,-2.19 -0.63,-0.88 -1.05,-1.96 -1.27,-3.28 -0.21,-1.09 -0.42,-2.4 -0.42,-3.71 0,-1.31 0.21,-2.63 0.42,-3.94 0.21,-1.53 0.64,-2.84 1.06,-4.37 0.42,-1.53 1.05,-2.84 1.91,-4.15 0.85,-1.31 1.69,-2.62 2.75,-3.5 1.06,-1.09 2.11,-1.75 3.6,-2.4 1.27,-0.66 2.75,-0.87 4.44,-0.87 1.48,0 2.96,0.43 4.23,1.09 1.27,0.66 2.32,1.75 3.18,2.84l0.41 -2.41c0,-0.44 0.43,-0.65 0.85,-0.88 0.43,-0.22 1.27,-0.22 2.54,-0.22 0.63,0 1.05,0 1.48,0 0.42,0 0.64,0.22 0.84,0.22 0.22,0 0.42,0.22 0.42,0.44 0,0.22 0,0.22 0,0.44l-5.71 26.01zm-26.87 -20.33c0,0.65 0,1.31 -0.21,1.96 0,0.66 -0.21,1.32 -0.42,2.19l-3.18 16.17c0,0.22 -0.21,0.44 -0.21,0.44 -0.21,0.22 -0.42,0.22 -0.64,0.44 -0.21,0 -0.63,0.22 -1.05,0.22 -0.42,0 -1.06,0 -1.69,0 -0.64,0 -1.27,0 -1.69,0 -0.42,0 -0.85,-0.22 -1.06,-0.22 -0.21,0 -0.42,-0.22 -0.42,-0.44 0,-0.22 0,-0.22 0,-0.44l2.96 -15.73c0,-0.44 0.22,-0.88 0.22,-1.53 0,-0.43 0,-0.87 0,-1.31 0,-0.87 -0.22,-1.53 -0.64,-2.19 -0.42,-0.66 -1.05,-0.87 -1.9,-0.87 -0.84,0 -1.48,0.21 -2.33,0.65 -0.85,0.44 -1.69,1.1 -2.33,1.97 -0.84,0.88 -1.48,1.97 -1.9,3.06 -0.63,1.09 -1.06,2.41 -1.27,3.72l-2.33 11.8c0,0.22 -0.21,0.44 -0.21,0.44 -0.21,0.22 -0.42,0.22 -0.64,0.44 -0.21,0 -0.63,0.22 -1.06,0.22 -0.42,0 -1.06,0 -1.69,0 -0.64,0 -1.27,0 -1.7,0 -0.42,0 -0.85,-0.22 -1.05,-0.22 -0.21,0 -0.43,-0.22 -0.43,-0.44 0,-0.22 0,-0.22 0,-0.44l5.08 -26.23c0,-0.22 0.22,-0.44 0.22,-0.44 0.21,-0.22 0.21,-0.22 0.63,-0.43 0.21,0 0.64,-0.22 1.06,-0.22 0.42,0 0.84,0 1.48,0 0.64,0 1.06,0 1.48,0 0.42,0 0.63,0.22 0.85,0.22 0.21,0 0.42,0.21 0.42,0.43 0,0.22 0,0.22 0,0.44l-0.85 4.37c0.43,-0.65 0.85,-1.31 1.49,-2.19 0.63,-0.66 1.48,-1.31 2.32,-1.97 0.84,-0.66 1.91,-1.09 2.75,-1.31 1.06,-0.44 2.12,-0.44 3.17,-0.44 1.27,0 2.54,0.22 3.39,0.66 0.85,0.43 1.69,0.87 2.12,1.53 0.63,0.66 1.05,1.53 1.27,2.41 0,1.31 0,2.41 0,3.28zm-34.27 20.33c0,0.22 -0.21,0.44 -0.21,0.44 -0.21,0.22 -0.43,0.22 -0.64,0.44 -0.21,0 -0.63,0.22 -1.06,0.22 -0.41,0 -1.05,0 -1.69,0 -0.63,0 -1.27,0 -1.69,0 -0.42,0 -0.84,-0.22 -1.05,-0.22 -0.21,0 -0.42,-0.22 -0.42,-0.44 0,-0.22 0,-0.22 0,-0.44l5.08 -26.01c0,-0.22 0.21,-0.44 0.21,-0.44 0.21,-0.22 0.43,-0.22 0.63,-0.44 0.21,0 0.64,-0.22 1.06,-0.22 0.43,0 1.05,0 1.69,0 0.63,0 1.27,0 1.69,0 0.42,0 0.85,0.22 1.05,0.22 0.22,0 0.43,0.22 0.43,0.44 0,0.22 0,0.22 0,0.44l-5.08 26.01zm7.4 -34.97c-0.21,0.65 -0.42,1.31 -0.64,1.75 -0.21,0.44 -0.63,0.88 -0.85,1.1 -0.42,0.22 -0.84,0.44 -1.48,0.65 -0.64,0.22 -1.27,0.22 -2.12,0.22 -0.84,0 -1.48,0 -1.91,-0.22 -0.42,-0.21 -0.84,-0.43 -1.06,-0.65 -0.21,-0.22 -0.41,-0.66 -0.41,-1.1 0,-0.43 0,-1.09 0.21,-1.75 0.21,-0.66 0.21,-1.31 0.64,-1.75 0.21,-0.43 0.42,-0.87 0.85,-1.09 0.42,-0.22 0.84,-0.44 1.48,-0.66 0.64,-0.22 1.27,-0.22 2.11,-0.22 0.85,0 1.48,0 1.91,0.22 0.42,0.22 0.84,0.43 1.05,0.66 0.21,0.22 0.43,0.66 0.43,1.09 0,0.44 -0.22,1.09 -0.22,1.75zm-13.54 -0.66c0,0.22 0,0.44 0,0.66 0,0.22 0,0.65 -0.21,1.09 0,0.44 -0.21,0.66 -0.21,1.1 0,0.44 -0.21,0.88 -0.42,1.1 -0.21,0.44 -0.21,0.65 -0.43,0.87 -0.21,0.22 -0.42,0.22 -0.63,0.22l-12.06 0 -1.91 10.28 11.21 0c0.22,0 0.43,0.22 0.64,0.22 0.21,0.22 0.21,0.43 0.21,0.88 0,0.21 0,0.44 0,0.65 0,0.22 0,0.65 -0.21,1.1 0,0.44 -0.21,0.65 -0.21,1.09 0,0.44 -0.21,0.66 -0.43,1.1 -0.21,0.21 -0.21,0.66 -0.42,0.87 -0.21,0.22 -0.42,0.22 -0.63,0.22l-11.22 0 -2.75 14.2c0,0.22 -0.22,0.44 -0.22,0.66 -0.21,0.22 -0.42,0.22 -0.63,0.44 -0.21,0 -0.64,0.22 -1.27,0.22 -0.42,0 -1.06,0 -1.91,0 -0.63,0 -1.27,0 -1.9,0 -0.42,0 -0.84,-0.22 -1.06,-0.22 -0.21,0 -0.42,-0.22 -0.63,-0.44 0,-0.22 -0.21,-0.44 0,-0.66l6.56 -34.32c0.21,-0.88 0.42,-1.53 1.06,-1.96 0.42,-0.44 1.06,-0.66 1.69,-0.66l17.13 0c0.42,0 0.42,0 0.64,0.22 0.21,0.44 0.21,0.65 0.21,1.09z"/>
    <path id="Vector_19" class="fil4" d="M1478.69 370.1c0,0.22 0,0.66 0,1.1 0,0.44 -0.21,0.88 -0.21,1.31 -0.22,0.44 -0.22,0.88 -0.43,1.31 -0.21,0.43 -0.42,0.43 -0.64,0.43 -0.21,0 -0.63,0 -0.85,-0.21 -0.42,-0.22 -0.63,-0.44 -1.27,-0.66 -0.42,-0.22 -1.05,-0.44 -1.69,-0.66 -0.63,-0.22 -1.27,-0.22 -2.32,-0.22 -0.64,0 -1.27,0 -1.7,0.22 -0.42,0.22 -0.85,0.44 -1.27,0.66 -0.42,0.22 -0.63,0.66 -0.84,1.1 -0.21,0.43 -0.21,0.87 -0.21,1.31 0,0.66 0.21,1.1 0.63,1.53 0.42,0.44 1.06,0.88 1.91,1.09 0.63,0.44 1.49,0.66 2.33,1.1 0.85,0.44 1.69,0.88 2.32,1.53 0.64,0.65 1.27,1.31 1.69,2.19 0.42,0.87 0.64,1.97 0.64,3.06 0,1.53 -0.22,2.84 -0.85,4.15 -0.64,1.31 -1.27,2.41 -2.33,3.28 -1.06,0.88 -2.32,1.53 -3.81,2.19 -1.48,0.44 -3.18,0.88 -5.07,0.88 -0.85,0 -1.69,0 -2.54,-0.22 -0.84,-0.22 -1.48,-0.22 -2.12,-0.44 -0.63,-0.22 -1.27,-0.43 -1.68,-0.66 -0.43,-0.22 -0.85,-0.43 -1.06,-0.66 -0.21,-0.21 -0.21,-0.21 -0.42,-0.43 0,-0.22 0,-0.44 0,-0.66 0,-0.22 0,-0.43 0,-0.66 0,-0.21 0,-0.65 0.21,-0.87 0,-0.44 0.21,-0.65 0.21,-1.09 0,-0.45 0.21,-0.66 0.21,-0.88 0.21,-0.22 0.21,-0.43 0.42,-0.66 0.22,-0.22 0.22,-0.22 0.43,-0.22 0.21,0 0.63,0.22 0.85,0.45 0.41,0.21 0.63,0.43 1.27,0.86 0.42,0.22 1.05,0.45 1.9,0.88 0.84,0.21 1.69,0.43 2.75,0.43 0.84,0 1.48,0 1.9,-0.22 0.64,-0.21 1.06,-0.44 1.48,-0.87 0.42,-0.44 0.64,-0.65 0.84,-1.09 0.21,-0.45 0.21,-0.88 0.21,-1.32 0,-0.65 -0.21,-1.31 -0.63,-1.75 -0.42,-0.44 -1.06,-0.88 -1.69,-1.09 -0.64,-0.44 -1.48,-0.66 -2.33,-1.1 -0.84,-0.44 -1.48,-0.88 -2.32,-1.53 -0.64,-0.65 -1.27,-1.31 -1.7,-2.18 -0.42,-0.88 -0.63,-1.97 -0.63,-3.06 0,-1.31 0.21,-2.63 0.84,-3.94 0.42,-1.1 1.27,-2.19 2.33,-3.06 1.05,-0.87 2.11,-1.53 3.59,-1.97 1.48,-0.44 2.97,-0.65 4.65,-0.65 0.85,0 1.48,0 2.33,0.21 0.84,0 1.48,0.22 1.91,0.44 0.63,0.22 1.05,0.44 1.48,0.66 0.42,0.22 0.84,0.44 1.06,0.65 0,-0.87 0.21,-0.43 0.21,0zm-30.04 5.03c0,-0.88 -0.22,-1.53 -0.85,-1.96 -0.64,-0.44 -1.48,-0.87 -2.54,-0.87 -0.84,0 -1.69,0.21 -2.54,0.43 -0.85,0.44 -1.49,0.88 -1.91,1.32 -0.63,0.65 -1.05,1.31 -1.48,2.19 -0.42,0.87 -0.63,1.75 -1.05,2.62l2.33 0c1.48,0 2.75,0 3.81,-0.21 1.05,-0.22 1.9,-0.44 2.54,-0.88 0.64,-0.44 1.05,-0.87 1.27,-1.31 0.21,-0.22 0.42,-0.66 0.42,-1.32zm6.98 -0.44c0,1.32 -0.21,2.62 -0.84,3.72 -0.64,1.1 -1.49,2.19 -2.75,2.84 -1.27,0.88 -2.96,1.53 -4.87,1.97 -1.9,0.43 -4.44,0.65 -7.19,0.65l-2.54 0c0,0.44 -0.21,0.87 -0.21,1.32 0,0.44 0,0.87 0,1.31 0,1.53 0.42,2.84 1.27,3.49 0.85,0.88 2.12,1.1 3.81,1.1 1.27,0 2.32,0 3.38,-0.22 1.05,-0.22 1.91,-0.44 2.54,-0.65 0.84,-0.22 1.27,-0.43 1.9,-0.66 0.43,-0.22 0.86,-0.22 1.06,-0.22 0.22,0 0.43,0 0.43,0.22 0,0.22 0.21,0.44 0.21,0.66 0,0.43 0,0.65 0,1.09 0,0.44 -0.21,0.88 -0.21,1.31 0,0.43 -0.21,0.87 -0.43,1.09 -0.21,0.44 -0.42,0.66 -0.63,0.88 -0.21,0.21 -0.64,0.44 -1.27,0.65 -0.63,0.22 -1.27,0.45 -2.11,0.66 -0.85,0.22 -1.9,0.44 -2.96,0.44 -1.05,0.22 -2.11,0.22 -3.17,0.22 -1.91,0 -3.39,-0.22 -4.66,-0.66 -1.27,-0.44 -2.54,-0.87 -3.38,-1.75 -0.84,-0.87 -1.48,-1.75 -2.11,-3.06 -0.42,-1.31 -0.63,-2.63 -0.63,-4.37 0,-1.31 0.21,-2.62 0.42,-4.15 0.21,-1.53 0.64,-3.06 1.06,-4.37 0.64,-1.53 1.27,-2.84 2.11,-4.15 0.84,-1.32 1.91,-2.41 2.97,-3.5 1.26,-1.09 2.53,-1.75 4.02,-2.4 1.48,-0.66 3.38,-0.88 5.29,-0.88 1.69,0 3.17,0.22 4.45,0.65 1.27,0.43 2.32,0.87 2.96,1.75 0.84,0.66 1.48,1.53 1.69,2.41 0.21,0.65 0.42,1.75 0.42,2.62zm-26.65 -3.93c0,0.44 0,0.88 -0.22,1.53 -0.21,0.65 -0.21,1.09 -0.42,1.53 -0.21,0.43 -0.42,0.87 -0.64,1.31 -0.21,0.44 -0.63,0.44 -0.84,0.44 -0.21,0 -0.63,-0.22 -0.85,-0.44 -0.21,-0.22 -0.63,-0.44 -1.05,-0.88 -0.42,-0.21 -0.85,-0.65 -1.48,-0.87 -0.63,-0.22 -1.27,-0.44 -2.32,-0.44 -1.06,0 -1.91,0.22 -2.54,0.66 -0.85,0.44 -1.48,1.09 -2.12,1.75 -0.63,0.66 -1.05,1.53 -1.48,2.41 -0.42,0.88 -0.64,1.75 -0.84,2.84 -0.22,0.88 -0.43,1.75 -0.43,2.62 -0.21,0.87 -0.21,1.52 -0.21,2.18 0,1.53 0.42,2.84 1.06,3.49 0.63,0.88 1.69,1.32 3.17,1.32 1.06,0 1.91,-0.22 2.75,-0.43 0.85,-0.22 1.48,-0.66 1.91,-0.88 0.63,-0.43 1.05,-0.65 1.48,-0.87 0.42,-0.22 0.84,-0.44 1.06,-0.44 0.21,0 0.42,0 0.42,0.22 0,0.22 0.21,0.44 0.21,0.88 0,0.44 0,0.65 -0.21,1.31 0,0.44 -0.21,1.1 -0.21,1.53 -0.21,0.43 -0.21,1.09 -0.43,1.52 -0.21,0.44 -0.42,0.88 -0.63,1.1 -0.21,0.22 -0.64,0.44 -1.27,0.88 -0.64,0.21 -1.27,0.66 -1.91,0.87 -0.63,0.22 -1.48,0.44 -2.32,0.66 -0.85,0.22 -1.7,0.22 -2.54,0.22 -3.17,0 -5.71,-0.88 -7.19,-2.62 -1.69,-1.75 -2.32,-4.15 -2.32,-7.43 0,-1.09 0,-2.41 0.42,-3.93 0.21,-1.53 0.64,-2.84 1.06,-4.38 0.42,-1.52 1.06,-2.84 1.91,-4.15 0.85,-1.31 1.69,-2.62 2.96,-3.49 1.05,-1.09 2.54,-1.97 4.02,-2.41 1.48,-0.65 3.18,-0.87 5.08,-0.87 0.85,0 1.48,0 2.11,0.22 0.63,0.22 1.27,0.22 1.9,0.44 0.64,0.21 1.06,0.44 1.69,0.65 0.43,0.22 0.85,0.44 1.06,0.66 0.22,0.22 0.42,0.44 0.42,0.65 -0.21,0.22 -0.21,0.44 -0.21,0.66zm-30.25 24.27c0,0.21 -0.22,0.43 -0.22,0.43 -0.21,0.22 -0.42,0.22 -0.63,0.44 -0.21,0 -0.64,0.22 -1.06,0.22 -0.42,0 -1.05,0 -1.69,0 -0.64,0 -1.27,0 -1.69,0 -0.42,0 -0.84,-0.22 -1.06,-0.22 -0.21,0 -0.42,-0.21 -0.42,-0.44 0,-0.22 0,-0.22 0,-0.43l5.08 -26.01c0,-0.22 0.21,-0.43 0.21,-0.43 0.21,-0.22 0.43,-0.22 0.64,-0.44 0.21,0 0.63,-0.22 1.05,-0.22 0.43,0 1.06,0 1.69,0 0.64,0 1.27,0 1.69,0 0.42,0 0.85,0.22 1.06,0.22 0.21,0 0.42,0.21 0.42,0.44 0,0.21 0,0.21 0,0.43l-5.07 26.01zm7.4 -34.98c-0.21,0.66 -0.41,1.31 -0.63,1.75 -0.21,0.45 -0.64,0.88 -0.84,1.1 -0.42,0.22 -0.85,0.44 -1.48,0.66 -0.63,0.22 -1.27,0.22 -2.11,0.22 -0.85,0 -1.48,0 -1.9,-0.22 -0.42,-0.22 -0.85,-0.44 -1.06,-0.66 -0.21,-0.21 -0.42,-0.65 -0.42,-1.1 0,-0.43 0,-1.09 0.21,-1.75 0.21,-0.65 0.21,-1.31 0.63,-1.75 0.22,-0.43 0.42,-0.87 0.85,-1.09 0.42,-0.22 0.84,-0.44 1.48,-0.65 0.63,-0.22 1.27,-0.22 2.11,-0.22 0.84,0 1.48,0 1.9,0.22 0.42,0.22 0.84,0.44 1.06,0.65 0.21,0.22 0.42,0.66 0.42,1.09 0,0.44 0,1.1 -0.22,1.75zm-14.59 8.74c0,0.22 0,0.44 0,0.88 0,0.22 -0.21,0.66 -0.21,1.09 -0.64,2.19 -1.48,4.15 -2.33,6.34 -0.84,2.19 -1.69,4.15 -2.75,6.34 -1.06,1.97 -2.11,4.15 -3.39,6.12 -1.27,1.97 -2.54,3.93 -3.81,5.68 -0.21,0.22 -0.43,0.45 -0.63,0.66 -0.22,0.22 -0.64,0.22 -1.06,0.44 -0.43,0 -0.85,0.22 -1.27,0.22 -0.42,0 -1.06,0 -1.69,0 -1.05,0 -1.91,0 -2.54,0 -0.64,0 -1.06,-0.22 -1.49,-0.22 -0.42,-0.22 -0.63,-0.22 -0.63,-0.44 0,-0.21 -0.21,-0.44 -0.21,-0.87l-2.96 -23.39c0,-0.22 0,-0.66 0,-0.88 0,-0.22 0,-0.43 0,-0.66 0,-0.43 0,-0.65 0.22,-0.87 0,-0.22 0.21,-0.44 0.41,-0.44 0.22,-0.21 0.64,-0.21 1.06,-0.21 0.42,0 1.06,0 1.91,0 0.84,0 1.27,0 1.69,0 0.42,0 0.84,0.21 1.05,0.21 0.21,0 0.43,0.22 0.43,0.44 0,0.22 0.21,0.44 0.21,0.66l2.12 19.24 0 0.66 0.21 -0.22c1.06,-1.53 1.91,-3.06 2.55,-4.59 0.84,-1.53 1.48,-3.06 2.11,-4.59 0.63,-1.53 1.27,-3.28 1.9,-5.03 0.64,-1.75 1.27,-3.49 1.7,-5.46 0,-0.22 0.21,-0.44 0.21,-0.66 0.21,-0.22 0.42,-0.22 0.64,-0.44 0.21,0 0.63,-0.21 1.27,-0.21 0.42,0 1.05,0 1.69,0 0.63,0 1.27,0 1.69,0 0.42,0 0.85,0 1.05,0.21 0.22,0 0.43,0.22 0.43,0.22 0.42,-0.66 0.42,-0.43 0.42,-0.22z"/>
    <path id="Vector_20" class="fil6 str0" d="M1576.87 177.95c20.74,0 37.65,17.49 37.65,38.92 0,21.42 -16.92,38.91 -37.65,38.91 -20.73,0 -37.66,-17.49 -37.66,-38.91 0,-21.64 16.93,-38.92 37.66,-38.92z"/>
    <path id="Vector_21" class="fil4" d="M1568.82 212.5l5.92 0c0.64,0 1.91,-0.22 3.6,-0.66 0.85,-0.22 1.69,-0.65 2.33,-1.53 0.63,-0.88 0.84,-1.76 0.84,-2.63 0,-1.53 -0.42,-2.62 -1.48,-3.49 -0.84,-0.88 -2.54,-1.31 -5.08,-1.31l-6.13 0 0 9.62zm-13.97 27.32l0 -46.34 23.06 0c4.23,0 7.61,0.43 9.73,1.09 2.33,0.66 4.02,2.19 5.51,4.15 1.48,1.97 2.11,4.59 2.11,7.44 0,2.62 -0.64,4.8 -1.69,6.55 -1.06,1.97 -2.54,3.28 -4.44,4.59 -1.27,0.66 -2.75,1.32 -4.87,1.76 1.7,0.65 2.75,1.09 3.6,1.75 0.42,0.43 1.27,1.09 2.11,2.41 1.06,1.31 1.69,2.18 1.91,2.84l6.76 13.33 -15.66 0 -7.41 -14.21c-0.84,-1.75 -1.69,-3.06 -2.54,-3.49 -1.05,-0.66 -2.11,-1.1 -3.38,-1.1l-1.27 0 0 18.8 -13.54 0 0 0.44z"/>
   </g>
  </g>
 </g>
</svg>
