<?xml version="1.0" encoding="UTF-8"?>
<!DOCTYPE svg PUBLIC "-//W3C//DTD SVG 1.1//EN" "http://www.w3.org/Graphics/SVG/1.1/DTD/svg11.dtd">
<!-- Creator: CorelDRAW 2019 (64-Bit) -->
<svg xmlns="http://www.w3.org/2000/svg" xml:space="preserve" width="0.508531in" height="0.506154in" version="1.1" style="shape-rendering:geometricPrecision; text-rendering:geometricPrecision; image-rendering:optimizeQuality; fill-rule:evenodd; clip-rule:evenodd"
viewBox="0 0 508.53 506.15"
 xmlns:xlink="http://www.w3.org/1999/xlink"
 xmlns:xodm="http://www.corel.com/coreldraw/odm/2003">
 <defs>
  <style type="text/css">
   <![CDATA[
    .fil3 {fill:#030000}
    .fil2 {fill:#61AB00}
    .fil1 {fill:#A4E000}
    .fil0 {fill:black;fill-rule:nonzero}
   ]]>
  </style>
 </defs>
 <g id="Layer_x0020_1">
  <metadata id="CorelCorpID_0Corel-Layer"/>
  <g id="_2426425053568">
   <path id="Vector_36" class="fil0" d="M250.03 500.75c136.68,0 247.47,-109.03 247.47,-243.52 0,-134.5 -110.79,-243.52 -247.47,-243.52 -136.66,0 -247.45,109.03 -247.45,243.52 0,134.49 110.79,243.52 247.45,243.52z"/>
   <polygon id="Vector_37" class="fil1" points="190.21,10.17 193.99,9.74 197.81,9.41 201.68,9.18 205.58,9.06 209.51,9.02 213.48,9.08 217.46,9.22 221.45,9.45 225.47,9.77 229.49,10.17 233.51,10.64 237.52,11.2 241.54,11.83 245.53,12.53 249.52,13.3 253.48,14.13 257.42,15.04 261.31,16 265.18,17.03 269.01,18.12 272.79,19.26 276.51,20.45 280.19,21.69 283.79,22.98 287.34,24.31 290.82,25.69 294.22,27.11 297.54,28.57 300.77,30.06 303.91,31.59 306.97,33.15 309.91,34.73 311.45,35.58 312.95,36.43 314.45,37.3 315.95,38.17 317.42,39.04 318.9,39.92 320.35,40.81 321.79,41.71 323.22,42.61 324.63,43.52 326.04,44.42 327.42,45.34 328.8,46.27 330.16,47.2 331.52,48.13 332.85,49.07 334.17,50.02 335.48,50.97 336.77,51.92 338.05,52.88 339.31,53.85 340.56,54.82 341.8,55.79 343.01,56.78 344.22,57.76 345.4,58.75 346.58,59.74 347.74,60.74 348.87,61.74 350,62.74 351.11,63.75 352.21,64.76 353.45,65.93 354.64,67.05 355.79,68.15 356.9,69.22 357.98,70.26 359.01,71.27 360.02,72.26 360.99,73.23 361.93,74.18 362.85,75.12 363.75,76.05 364.62,76.97 365.48,77.88 366.31,78.79 367.13,79.69 367.95,80.6 368.74,81.51 369.53,82.43 370.32,83.35 371.11,84.29 371.89,85.25 372.69,86.22 373.48,87.2 374.28,88.21 375.09,89.25 375.91,90.31 376.75,91.4 377.6,92.53 378.48,93.69 379.36,94.89 380.29,96.12 381.23,97.4 381.48,97.75 381.72,98.09 381.95,98.43 382.16,98.76 382.38,99.1 382.6,99.45 382.82,99.8 383.05,100.16 384.52,103.02 388.17,107.13 391.74,111.33 395.22,115.59 398.58,119.93 401.85,124.35 405.01,128.84 408.06,133.4 411.01,138.04 413.83,142.74 416.55,147.51 419.14,152.36 421.61,157.27 423.97,162.25 426.19,167.29 428.29,172.4 430.26,177.57 432.09,182.8 433.78,188.1 435.34,193.45 436.76,198.86 438.04,204.34 439.16,209.86 440.14,215.45 440.98,221.09 441.65,226.78 442.17,232.53 442.54,238.32 442.74,244.17 442.78,250.07 442.65,256.01 442.36,262.01 441.89,268.04 441.1,275.38 440.08,282.64 438.81,289.84 437.32,296.96 435.6,304 433.65,310.96 431.5,317.82 429.12,324.59 426.54,331.26 423.74,337.83 420.76,344.29 417.57,350.64 414.19,356.86 410.61,362.97 406.86,368.94 402.93,374.78 398.82,380.5 394.53,386.06 390.08,391.49 385.47,396.76 380.69,401.88 375.77,406.84 370.69,411.64 365.47,416.26 360.09,420.73 354.59,425 348.95,429.1 343.17,433.02 337.29,436.74 331.27,440.27 325.13,443.6 318.9,446.72 317.62,447.32 316.37,447.91 315.13,448.49 313.88,449.06 312.66,449.62 311.41,450.16 310.19,450.7 308.95,451.22 307.73,451.74 306.5,452.26 305.26,452.76 304.03,453.25 302.79,453.74 301.55,454.22 300.31,454.7 299.06,455.16 297.81,455.62 296.54,456.08 295.28,456.53 294,456.97 292.71,457.41 291.4,457.85 290.1,458.28 288.78,458.71 287.45,459.13 286.09,459.56 284.73,459.98 283.35,460.4 281.95,460.82 280.54,461.23 279.11,461.65 277.66,462.06 274.81,462.84 271.9,463.58 268.97,464.26 265.99,464.91 262.97,465.51 259.92,466.06 256.83,466.57 253.72,467.03 250.58,467.45 247.42,467.82 244.23,468.15 241.02,468.43 237.79,468.66 234.54,468.84 231.29,468.98 228.02,469.08 224.75,469.13 221.47,469.13 218.18,469.08 214.88,468.99 211.6,468.85 208.32,468.67 205.04,468.44 201.77,468.15 198.5,467.83 195.25,467.46 192.01,467.04 188.79,466.57 185.59,466.06 182.42,465.5 179.26,464.89 176.12,464.23 172.33,463.37 168.6,462.46 164.92,461.5 161.31,460.49 157.75,459.42 154.25,458.31 150.79,457.15 147.38,455.94 144.03,454.68 140.73,453.37 137.47,452.02 134.26,450.61 131.08,449.17 127.97,447.67 124.88,446.12 121.83,444.53 118.83,442.89 115.87,441.21 112.94,439.48 110.04,437.71 107.19,435.89 104.35,434.03 101.55,432.13 98.79,430.17 96.05,428.19 93.33,426.15 90.64,424.07 87.99,421.95 85.35,419.79 82.73,417.59 80.13,415.34 77.56,413.05 77.08,412.63 76.6,412.19 76.13,411.75 75.65,411.31 75.16,410.87 74.7,410.42 74.22,409.97 73.74,409.52 73.27,409.06 72.8,408.61 72.33,408.16 71.87,407.71 71.4,407.26 70.96,406.81 70.5,406.36 70.06,405.92 69.39,405.23 68.69,404.5 67.95,403.72 67.19,402.9 66.4,402.04 65.59,401.14 64.77,400.21 63.92,399.25 63.06,398.26 62.2,397.25 61.31,396.21 60.42,395.16 59.53,394.09 58.63,393.01 57.74,391.92 56.84,390.82 55.95,389.72 55.07,388.62 54.2,387.52 53.33,386.43 52.49,385.34 51.66,384.27 50.84,383.21 50.05,382.17 49.29,381.14 48.55,380.14 47.83,379.17 47.16,378.23 46.51,377.32 45.91,376.43 45.33,375.6 44.8,374.8 44.47,374.29 44.15,373.78 43.83,373.28 43.52,372.77 43.21,372.26 42.9,371.76 42.58,371.25 42.26,370.76 41.94,370.26 41.61,369.77 41.27,369.28 40.92,368.8 40.56,368.32 40.19,367.86 39.8,367.39 39.4,366.94 36.47,364.15 35.47,362.83 34.52,361.58 33.6,360.4 32.73,359.26 31.89,358.17 31.06,357.1 30.26,356.04 29.46,354.99 28.66,353.92 27.84,352.82 27.02,351.69 26.18,350.5 25.31,349.25 24.4,347.93 23.45,346.52 22.46,345 8.33,321.14 16.25,345.9 16.9,347.43 17.51,348.91 18.11,350.34 18.7,351.73 19.26,353.07 19.8,354.38 20.33,355.65 20.85,356.9 21.37,358.12 21.87,359.32 22.37,360.49 22.87,361.65 23.37,362.8 23.89,363.94 24.4,365.07 24.91,366.2 25.44,367.33 25.97,368.46 26.53,369.6 27.1,370.75 27.69,371.92 28.3,373.11 28.95,374.32 29.6,375.54 30.3,376.8 31.03,378.1 31.79,379.42 32.58,380.79 33.42,382.2 34.3,383.65 35.22,385.15 36.19,386.71 36.47,387.16 36.76,387.66 37.07,388.19 37.4,388.75 37.74,389.32 38.07,389.91 38.42,390.5 38.78,391.09 39.13,391.68 39.48,392.24 39.83,392.79 40.18,393.31 40.51,393.78 40.84,394.22 41.16,394.61 41.45,394.93 41.8,395.04 42.34,395.41 43.07,396 43.95,396.77 44.94,397.7 46.01,398.76 47.16,399.89 48.34,401.1 49.53,402.31 50.7,403.52 51.81,404.69 52.85,405.77 53.79,406.75 54.59,407.58 55.24,408.23 55.69,408.68 56.65,409.58 57.6,410.47 58.56,411.37 59.53,412.26 60.5,413.15 61.47,414.03 62.46,414.92 63.44,415.8 64.44,416.67 65.44,417.54 66.45,418.41 67.48,419.28 68.51,420.14 69.56,421 70.63,421.85 71.7,422.7 75.25,425.43 78.83,428.1 82.46,430.71 86.1,433.25 89.8,435.73 93.52,438.14 97.27,440.48 101.07,442.77 104.9,444.98 108.76,447.12 112.66,449.2 116.6,451.21 120.58,453.14 124.6,455.01 128.66,456.81 132.76,458.53 136.9,460.18 141.08,461.76 145.3,463.27 149.56,464.7 153.86,466.06 158.22,467.33 162.6,468.54 167.04,469.67 171.52,470.72 176.04,471.69 180.61,472.59 185.23,473.41 189.88,474.14 194.6,474.8 199.35,475.37 204.16,475.87 208.69,476.24 213.24,476.54 217.81,476.75 222.4,476.87 227.02,476.92 231.64,476.87 236.27,476.75 240.9,476.55 245.55,476.26 250.19,475.89 254.83,475.43 259.47,474.91 264.08,474.29 268.69,473.6 273.29,472.83 277.87,471.98 282.42,471.06 286.95,470.06 291.47,468.97 295.93,467.82 300.37,466.58 304.78,465.27 309.13,463.88 313.45,462.43 317.73,460.89 321.95,459.28 326.11,457.6 330.23,455.84 334.28,454.02 338.27,452.11 342.19,450.15 346.05,448.1 347.61,447.25 349.15,446.4 350.69,445.56 352.19,444.7 353.71,443.85 355.19,443 356.67,442.15 358.13,441.3 359.59,440.43 361.04,439.58 362.47,438.71 363.89,437.84 365.3,436.97 366.71,436.09 368.1,435.21 369.49,434.31 370.86,433.41 372.24,432.51 373.6,431.59 374.95,430.67 376.31,429.74 377.65,428.8 378.99,427.85 380.33,426.89 381.65,425.92 382.99,424.93 384.31,423.94 385.63,422.93 386.95,421.91 388.27,420.87 389.58,419.82 390.89,418.76 392.6,417.35 394.32,415.9 396.05,414.43 397.79,412.91 399.53,411.37 401.28,409.8 403.02,408.2 404.77,406.58 406.51,404.92 408.24,403.25 409.98,401.55 411.71,399.83 413.42,398.08 415.13,396.33 416.83,394.55 418.51,392.75 420.17,390.95 421.82,389.12 423.45,387.28 425.06,385.44 426.64,383.58 428.21,381.71 429.74,379.84 431.24,377.96 432.72,376.08 434.16,374.19 435.58,372.3 436.95,370.41 438.3,368.52 439.6,366.63 440.87,364.75 442.09,362.87 443.69,360.35 445.28,357.83 446.83,355.31 448.36,352.78 449.87,350.26 451.35,347.74 452.81,345.2 454.24,342.65 455.64,340.1 457.02,337.54 458.37,334.96 459.69,332.36 461,329.75 462.27,327.12 463.51,324.46 464.72,321.78 465.91,319.08 467.07,316.35 468.21,313.59 469.3,310.8 470.38,307.97 471.42,305.12 472.43,302.22 473.42,299.29 474.38,296.31 475.31,293.3 476.22,290.24 477.08,287.13 477.91,283.98 478.72,280.77 479.5,277.52 480.24,274.21 480.96,270.77 481.65,267.33 482.28,263.9 482.86,260.47 483.39,257.04 483.88,253.62 484.32,250.2 484.72,246.79 485.05,243.38 485.35,239.98 485.6,236.58 485.81,233.2 485.96,229.81 486.08,226.43 486.14,223.06 486.16,219.7 486.15,216.34 486.08,213 485.96,209.66 485.82,206.33 485.62,203.01 485.38,199.7 485.09,196.39 484.77,193.1 484.4,189.81 483.98,186.54 483.54,183.28 483.04,180.02 482.51,176.78 481.92,173.55 481.31,170.33 480.65,167.13 480.11,164.6 479.54,162.11 478.95,159.64 478.34,157.21 477.72,154.8 477.07,152.41 476.4,150.05 475.72,147.72 475.01,145.4 474.28,143.11 473.53,140.83 472.76,138.57 471.96,136.33 471.15,134.11 470.32,131.9 469.48,129.7 468.6,127.51 467.71,125.33 466.79,123.16 465.84,121 464.88,118.85 463.9,116.7 462.9,114.55 461.87,112.41 460.83,110.27 459.76,108.13 458.66,105.98 457.55,103.84 456.41,101.69 455.26,99.53 454.08,97.37 452.87,95.21 452.6,94.74 452.28,94.22 451.91,93.64 451.51,93.03 451.09,92.4 450.65,91.74 450.22,91.07 449.8,90.4 449.4,89.74 449.03,89.1 448.71,88.49 448.43,87.92 448.22,87.4 448.09,86.93 448.04,86.54 448.08,86.22 426.81,64.18 426.31,63.7 425.77,63.18 425.17,62.65 424.54,62.07 423.86,61.48 423.16,60.86 422.41,60.22 421.64,59.57 420.85,58.89 420.03,58.21 419.19,57.52 418.32,56.81 417.45,56.1 416.56,55.38 415.66,54.67 414.77,53.95 413.86,53.24 412.95,52.53 412.05,51.83 411.15,51.13 410.27,50.45 409.39,49.79 408.54,49.14 407.69,48.51 406.87,47.9 406.08,47.32 405.3,46.76 404.56,46.23 403.86,45.73 403.19,45.26 402.55,44.83 401.97,44.44 400.24,43.31 398.5,42.18 396.74,41.06 395,39.94 393.23,38.83 391.45,37.74 389.67,36.64 387.88,35.56 386.08,34.48 384.28,33.42 382.45,32.37 380.63,31.33 378.8,30.3 376.95,29.29 375.1,28.29 373.24,27.3 371.37,26.33 369.49,25.37 367.6,24.44 365.71,23.52 363.8,22.61 361.88,21.73 359.97,20.87 358.03,20.02 356.09,19.2 354.13,18.4 352.17,17.62 350.21,16.86 348.23,16.13 346.25,15.42 344.26,14.73 342.25,14.07 340.4,13.48 338.54,12.9 336.69,12.33 334.86,11.78 333.03,11.23 331.19,10.69 329.38,10.17 327.56,9.67 325.75,9.17 323.95,8.68 322.13,8.21 320.33,7.75 318.54,7.3 316.74,6.87 314.95,6.44 313.16,6.03 311.36,5.63 309.57,5.25 307.78,4.88 305.99,4.52 304.19,4.18 302.41,3.84 300.62,3.52 298.83,3.22 297.04,2.92 295.24,2.65 293.45,2.38 291.64,2.13 289.84,1.89 288.03,1.67 286.23,1.46 284.4,1.26 272.92,0.35 272.04,0.3 271.16,0.26 270.29,0.22 269.4,0.19 268.53,0.15 267.64,0.12 266.76,0.09 265.87,0.07 264.99,0.05 264.09,0.03 263.21,0.02 262.31,0.01 261.42,0 260.52,0 259.61,0 258.72,0.01 257.81,0.01 256.9,0.02 256,0.04 255.09,0.05 254.18,0.07 253.26,0.1 252.34,0.13 251.42,0.16 250.5,0.19 249.57,0.23 248.66,0.27 247.72,0.31 246.79,0.36 245.85,0.41 244.92,0.47 243.98,0.52 242.84,0.6 241.69,0.68 240.55,0.76 239.4,0.85 238.24,0.94 237.07,1.04 235.9,1.13 234.73,1.24 233.55,1.35 232.37,1.46 231.2,1.58 230.01,1.7 228.83,1.83 227.64,1.96 226.45,2.1 225.28,2.24 224.1,2.39 222.92,2.54 221.74,2.7 220.57,2.86 219.4,3.03 218.24,3.21 217.07,3.39 215.92,3.57 214.77,3.77 213.63,3.97 212.5,4.17 211.36,4.38 210.25,4.6 209.13,4.82 208.04,5.05 206.95,5.28 206.34,5.41 205.56,5.57 204.6,5.76 203.52,5.98 202.33,6.22 201.06,6.49 199.74,6.79 198.4,7.1 197.06,7.44 195.76,7.79 194.51,8.16 193.36,8.54 192.32,8.94 191.44,9.33 190.72,9.75 "/>
   <polygon id="Vector_38" class="fil2" points="41.45,394.94 42.89,397.21 44.4,399.49 45.96,401.77 47.57,404.06 49.25,406.34 50.97,408.61 52.74,410.89 54.56,413.16 56.42,415.43 58.32,417.68 60.27,419.93 62.25,422.15 64.26,424.37 66.31,426.57 68.39,428.74 70.49,430.9 72.63,433.04 74.77,435.15 76.95,437.23 79.13,439.29 81.34,441.32 83.57,443.31 85.8,445.27 88.04,447.19 90.29,449.08 92.54,450.93 94.79,452.73 97.05,454.5 99.3,456.21 101.54,457.88 103.78,459.5 106.01,461.07 108.45,462.74 110.92,464.39 113.42,466.04 115.97,467.67 118.54,469.27 121.16,470.86 123.8,472.43 126.48,473.97 129.2,475.49 131.96,476.99 134.75,478.46 137.58,479.91 140.45,481.33 143.37,482.72 146.31,484.09 149.29,485.41 152.32,486.71 155.38,487.98 158.49,489.21 161.63,490.41 164.83,491.56 168.05,492.68 171.33,493.76 174.63,494.8 178,495.8 181.4,496.76 184.83,497.67 188.32,498.54 191.85,499.36 195.42,500.13 199.04,500.85 202.71,501.53 203.75,501.72 204.8,501.9 205.85,502.09 206.92,502.29 208,502.48 209.09,502.68 210.19,502.87 211.29,503.07 212.4,503.26 213.52,503.45 214.63,503.64 215.77,503.83 216.9,504.01 218.05,504.19 219.21,504.37 220.36,504.53 234.03,505.86 237.9,506 241.72,506.1 245.49,506.15 249.24,506.15 252.94,506.11 256.61,506.01 260.25,505.87 263.86,505.69 267.45,505.46 271,505.18 274.54,504.85 278.05,504.48 281.54,504.06 285.02,503.59 288.49,503.07 291.95,502.51 295.38,501.89 298.83,501.23 302.26,500.52 305.69,499.77 309.12,498.96 312.55,498.11 315.99,497.2 319.43,496.26 322.88,495.26 326.35,494.21 329.82,493.11 333.32,491.97 336.83,490.77 340.35,489.53 343.9,488.23 347.49,486.89 350.64,485.65 353.8,484.35 356.95,482.97 360.11,481.53 363.27,480.02 366.42,478.46 369.56,476.83 372.69,475.15 375.81,473.41 378.92,471.61 382.02,469.76 385.09,467.87 388.15,465.92 391.19,463.93 394.19,461.89 397.19,459.82 400.15,457.7 403.09,455.55 406,453.36 408.86,451.13 411.71,448.88 414.51,446.59 417.27,444.27 420,441.93 422.67,439.57 425.31,437.18 427.9,434.78 430.45,432.35 432.95,429.91 435.39,427.45 437.78,424.99 440.11,422.52 440.63,421.96 441.14,421.41 441.64,420.87 442.14,420.33 442.63,419.8 443.11,419.26 443.59,418.74 444.07,418.21 444.55,417.68 445.02,417.14 445.5,416.6 445.98,416.06 446.45,415.5 446.92,414.94 447.41,414.37 447.89,413.78 448.8,412.69 449.66,411.64 450.5,410.62 451.3,409.64 452.08,408.68 452.82,407.74 453.55,406.84 454.24,405.95 454.93,405.08 455.6,404.22 456.24,403.37 456.88,402.54 457.51,401.72 458.12,400.89 458.72,400.07 459.32,399.24 459.92,398.41 460.52,397.58 461.11,396.73 461.71,395.87 462.31,395 462.92,394.1 463.54,393.19 464.16,392.25 464.81,391.29 465.46,390.3 466.14,389.27 466.83,388.21 467.55,387.11 468.29,385.97 469.05,384.79 469.84,383.56 473.13,378.28 476.28,372.92 479.28,367.47 482.13,361.95 484.84,356.35 487.4,350.68 489.82,344.95 492.09,339.15 494.22,333.31 496.19,327.41 498.03,321.46 499.72,315.46 501.24,309.43 502.64,303.36 503.88,297.26 504.98,291.13 505.93,284.98 506.74,278.8 507.39,272.62 507.89,266.42 508.26,260.22 508.46,254.02 508.53,247.81 508.44,241.62 508.22,235.43 507.83,229.26 507.31,223.1 506.63,216.97 505.81,210.87 504.83,204.79 503.7,198.76 502.43,192.76 501.74,189.79 501.02,186.83 500.24,183.88 499.44,180.94 498.6,178.02 497.72,175.11 496.8,172.21 495.85,169.33 494.85,166.46 493.83,163.6 492.77,160.75 491.66,157.92 490.53,155.1 489.36,152.3 488.16,149.51 486.92,146.74 485.65,143.98 484.36,141.24 483.03,138.51 481.66,135.8 480.26,133.11 478.84,130.43 477.38,127.77 475.89,125.13 474.38,122.5 472.83,119.89 471.26,117.3 469.65,114.73 468.02,112.17 466.36,109.64 464.67,107.12 462.96,104.62 462.52,104 462.07,103.44 461.62,102.91 461.19,102.4 460.74,101.9 460.31,101.37 459.87,100.81 459.45,100.19 448.08,86.23 448.03,86.55 448.08,86.94 448.22,87.4 448.42,87.92 448.69,88.5 449.02,89.11 449.39,89.75 449.79,90.4 450.22,91.07 450.64,91.75 451.08,92.4 451.5,93.04 451.9,93.65 452.27,94.23 452.59,94.75 452.86,95.22 454.07,97.38 455.24,99.54 456.4,101.7 457.54,103.85 458.65,105.99 459.74,108.14 460.82,110.27 461.86,112.42 462.89,114.56 463.89,116.71 464.87,118.86 465.83,121.01 466.78,123.17 467.69,125.34 468.59,127.51 469.46,129.7 470.31,131.9 471.14,134.12 471.95,136.34 472.74,138.58 473.52,140.84 474.27,143.12 475,145.41 475.7,147.72 476.39,150.06 477.06,152.42 477.7,154.81 478.33,157.22 478.95,159.65 479.53,162.12 480.1,164.61 480.64,167.14 481.3,170.34 481.91,173.56 482.5,176.79 483.03,180.03 483.53,183.29 483.98,186.55 484.39,189.82 484.76,193.1 485.08,196.4 485.37,199.7 485.61,203.01 485.81,206.34 485.96,209.67 486.07,213.01 486.14,216.35 486.16,219.71 486.13,223.07 486.07,226.44 485.95,229.82 485.8,233.2 485.59,236.59 485.34,239.99 485.05,243.39 484.7,246.8 484.31,250.21 483.87,253.63 483.38,257.05 482.85,260.47 482.27,263.9 481.64,267.34 480.96,270.78 480.24,274.22 479.48,277.53 478.72,280.79 477.9,283.99 477.07,287.14 476.2,290.25 475.3,293.31 474.38,296.32 473.41,299.3 472.42,302.23 471.41,305.13 470.37,307.98 469.3,310.81 468.19,313.6 467.06,316.36 465.9,319.09 464.72,321.79 463.5,324.47 462.26,327.12 460.98,329.76 459.69,332.37 458.36,334.97 457.01,337.54 455.63,340.11 454.22,342.67 452.8,345.21 451.34,347.75 449.86,350.27 448.36,352.8 446.83,355.32 445.27,357.84 443.69,360.36 442.08,362.88 440.86,364.76 439.59,366.65 438.29,368.53 436.95,370.42 435.57,372.31 434.16,374.2 432.71,376.09 431.24,377.97 429.73,379.85 428.19,381.72 426.63,383.59 425.05,385.45 423.45,387.3 421.81,389.13 420.16,390.95 418.5,392.76 416.82,394.56 415.12,396.34 413.41,398.1 411.69,399.84 409.98,401.56 408.24,403.26 406.5,404.93 404.76,406.59 403.01,408.21 401.27,409.81 399.52,411.38 397.78,412.92 396.04,414.43 394.31,415.91 392.59,417.36 390.88,418.77 389.57,419.83 388.26,420.88 386.93,421.91 385.62,422.94 384.3,423.95 382.98,424.94 381.64,425.93 380.32,426.9 378.98,427.86 377.64,428.81 376.3,429.75 374.95,430.68 373.59,431.6 372.23,432.52 370.85,433.42 369.48,434.32 368.09,435.21 366.69,436.1 365.29,436.98 363.88,437.85 362.45,438.72 361.03,439.58 359.58,440.44 358.12,441.3 356.66,442.16 355.19,443.01 353.69,443.86 352.19,444.71 350.67,445.56 349.14,446.41 347.6,447.26 346.04,448.11 342.19,450.15 338.26,452.13 334.27,454.02 330.22,455.85 326.1,457.61 321.93,459.29 317.72,460.9 313.45,462.43 309.12,463.89 304.77,465.28 300.36,466.59 295.92,467.82 291.45,468.98 286.95,470.06 282.42,471.07 277.86,471.99 273.29,472.84 268.69,473.61 264.07,474.3 259.45,474.91 254.82,475.45 250.19,475.89 245.54,476.27 240.9,476.56 236.26,476.76 231.63,476.88 227.01,476.93 222.4,476.88 217.8,476.76 213.24,476.55 208.68,476.25 204.16,475.87 199.34,475.38 194.59,474.8 189.88,474.15 185.22,473.42 180.6,472.6 176.03,471.7 171.51,470.73 167.03,469.68 162.59,468.55 158.21,467.35 153.85,466.06 149.55,464.71 145.29,463.28 141.07,461.77 136.9,460.19 132.75,458.54 128.66,456.82 124.59,455.02 120.58,453.15 116.59,451.22 112.66,449.21 108.75,447.13 104.89,444.99 101.06,442.78 97.26,440.49 93.51,438.15 89.79,435.74 86.09,433.26 82.45,430.72 78.83,428.11 75.24,425.44 71.69,422.71 70.61,421.86 69.55,421 68.5,420.15 67.47,419.28 66.45,418.42 65.42,417.55 64.42,416.68 63.42,415.8 62.45,414.93 61.46,414.04 60.49,413.16 59.52,412.26 58.56,411.37 57.59,410.48 56.63,409.59 55.68,408.69 55.23,408.24 54.58,407.59 53.78,406.76 52.84,405.78 51.8,404.69 50.69,403.53 49.52,402.32 48.33,401.1 47.16,399.9 46.01,398.76 44.92,397.71 43.94,396.78 43.06,396.01 42.34,395.42 41.79,395.06 "/>
   <polygon id="Vector_39" class="fil2" points="190.21,10.16 189.62,10.09 188.87,10.12 187.99,10.23 186.95,10.42 185.79,10.68 184.51,11.01 183.12,11.41 181.63,11.86 180.07,12.37 178.42,12.92 176.72,13.52 174.97,14.15 173.16,14.81 171.33,15.51 169.48,16.22 167.61,16.95 165.75,17.69 163.9,18.43 162.08,19.18 160.29,19.92 158.54,20.65 156.84,21.37 155.22,22.06 153.66,22.73 152.21,23.37 150.84,23.96 149.58,24.52 148.45,25.04 147.45,25.49 146.58,25.89 145.87,26.23 145.31,26.5 144.18,27.07 143.01,27.67 141.81,28.29 140.6,28.92 139.37,29.57 138.1,30.25 136.83,30.93 135.55,31.63 134.25,32.35 132.94,33.08 131.62,33.82 130.3,34.57 128.97,35.34 127.64,36.11 126.31,36.89 124.99,37.68 123.66,38.48 122.37,39.28 121.06,40.08 119.77,40.89 118.49,41.7 117.23,42.51 115.99,43.33 114.77,44.14 113.57,44.95 112.4,45.76 111.25,46.57 110.13,47.38 109.04,48.17 107.99,48.97 106.98,49.76 106,50.53 75.99,76.03 73.37,78.53 70.76,81.15 68.16,83.87 65.57,86.7 63,89.63 60.45,92.65 57.92,95.76 55.41,98.95 52.94,102.22 50.49,105.55 48.08,108.94 45.71,112.4 43.39,115.9 41.09,119.45 38.87,123.03 36.68,126.66 34.54,130.3 32.46,133.97 30.45,137.65 28.49,141.34 26.6,145.03 24.78,148.72 23.03,152.4 21.37,156.06 19.76,159.7 18.25,163.32 16.82,166.9 15.48,170.44 14.23,173.94 13.07,177.38 12.02,180.77 11.06,184.09 4.31,211.64 4.22,212.08 4.15,212.51 4.07,212.95 4.02,213.38 3.96,213.81 3.92,214.25 3.87,214.68 3.82,215.1 3.78,215.53 3.73,215.97 3.68,216.4 3.61,216.83 3.55,217.27 3.48,217.71 3.39,218.15 3.28,218.59 3.21,218.88 3.15,219.2 3.07,219.53 3,219.89 2.93,220.26 2.84,220.64 2.77,221.05 2.7,221.46 2.63,221.9 2.54,222.34 2.47,222.79 2.4,223.26 2.31,223.74 2.24,224.23 2.17,224.73 2.09,225.24 0.68,238.38 0.65,238.85 0.63,239.3 0.61,239.73 0.6,240.14 0.59,240.53 0.59,240.9 0.6,241.24 0.61,241.55 0.63,242.4 0.66,243.28 0.66,244.19 0.65,245.12 0.63,246.07 0.59,247.03 0.55,248 0.51,248.97 0.46,249.95 0.41,250.92 0.35,251.89 0.29,252.84 0.23,253.77 0.18,254.68 0.13,255.56 0.07,256.42 0.02,257.23 0.01,258.06 -0,258.92 0.01,259.81 0.02,260.7 0.06,261.61 0.09,262.53 0.13,263.44 0.19,264.36 0.24,265.28 0.29,266.19 0.34,267.08 0.39,267.97 0.43,268.83 0.46,269.68 0.49,270.49 0.52,271.69 0.58,272.96 0.66,274.31 0.76,275.72 0.87,277.18 0.99,278.71 1.13,280.28 1.29,281.9 1.47,283.56 1.66,285.25 1.85,286.97 2.07,288.73 2.3,290.49 2.54,292.27 2.79,294.06 3.05,295.86 3.32,297.66 3.6,299.45 3.91,301.23 4.21,302.99 4.51,304.74 4.83,306.46 5.16,308.15 5.49,309.8 5.82,311.41 6.18,312.97 6.52,314.49 6.87,315.95 7.24,317.35 7.59,318.69 7.96,319.95 8.32,321.13 22.45,344.99 23.45,346.51 24.4,347.93 25.3,349.25 26.18,350.5 27.02,351.68 27.84,352.82 28.65,353.91 29.45,354.98 30.25,356.04 31.06,357.1 31.89,358.17 32.73,359.26 33.6,360.39 34.51,361.58 35.47,362.82 36.47,364.15 39.4,366.93 39.13,366.3 38.84,365.64 38.54,364.95 38.21,364.23 37.84,363.49 37.47,362.72 37.07,361.92 36.66,361.1 36.22,360.25 35.77,359.38 35.3,358.49 34.82,357.56 34.32,356.62 33.82,355.65 33.31,354.66 32.78,353.65 32.24,352.62 31.7,351.56 31.16,350.48 30.59,349.38 30.04,348.27 29.48,347.13 28.91,345.97 28.34,344.79 27.78,343.59 27.22,342.38 26.67,341.14 26.1,339.9 25.56,338.63 25.01,337.34 24.48,336.04 23.95,334.73 21.28,327.55 18.87,320.3 16.76,312.97 14.92,305.58 13.34,298.14 12.05,290.65 11.02,283.13 10.27,275.58 9.78,268 9.55,260.42 9.59,252.82 9.9,245.24 10.47,237.67 11.29,230.13 12.37,222.6 13.72,215.13 15.31,207.7 17.16,200.33 19.26,193.01 21.61,185.78 24.22,178.62 27.07,171.56 30.17,164.59 33.51,157.73 37.1,150.99 40.92,144.37 45,137.88 49.31,131.53 53.87,125.34 58.66,119.31 63.68,113.44 68.94,107.74 69.75,106.9 70.55,106.07 71.34,105.26 72.13,104.46 72.9,103.66 73.68,102.89 74.45,102.12 75.21,101.35 75.98,100.6 76.74,99.84 77.51,99.09 78.27,98.33 79.04,97.58 79.82,96.81 80.6,96.05 81.4,95.28 82.19,94.54 83.03,93.81 83.92,93.07 84.82,92.35 85.73,91.63 86.63,90.91 87.5,90.21 88.32,89.53 89.21,88.77 90.03,88.09 90.81,87.45 91.58,86.83 92.37,86.18 93.23,85.47 94.18,84.68 95.25,83.77 95.9,83.23 96.58,82.67 97.32,82.09 98.11,81.5 98.92,80.88 99.79,80.25 100.69,79.61 101.61,78.96 102.57,78.29 103.55,77.62 104.55,76.94 105.56,76.26 106.6,75.58 107.64,74.9 108.7,74.21 109.76,73.53 110.82,72.85 111.88,72.18 112.95,71.52 114,70.87 115.04,70.24 116.06,69.61 117.07,69 118.06,68.4 119.03,67.83 119.98,67.28 120.88,66.74 121.76,66.24 122.6,65.76 123.42,65.3 124.18,64.88 124.9,64.49 128.21,62.72 131.54,61 134.9,59.35 138.3,57.75 141.72,56.21 145.16,54.72 148.61,53.29 152.1,51.93 155.61,50.62 159.16,49.37 162.71,48.18 166.29,47.05 169.9,45.99 173.52,44.98 177.16,44.04 180.83,43.15 184.53,42.34 188.24,41.58 191.97,40.89 195.72,40.27 199.5,39.71 203.28,39.21 207.09,38.78 210.92,38.42 214.77,38.13 218.63,37.9 222.52,37.74 226.42,37.65 230.33,37.63 234.27,37.67 238.22,37.79 242.19,37.98 247.05,38.31 251.87,38.74 256.68,39.28 261.45,39.92 266.19,40.67 270.9,41.52 275.57,42.46 280.22,43.52 284.82,44.66 289.38,45.91 293.92,47.26 298.4,48.7 302.84,50.24 307.25,51.88 311.6,53.6 315.91,55.42 320.19,57.34 324.4,59.35 328.57,61.45 332.69,63.63 336.76,65.91 340.78,68.28 344.74,70.73 348.64,73.28 352.5,75.9 356.29,78.61 360.03,81.4 363.69,84.28 367.31,87.24 370.85,90.28 374.34,93.4 377.76,96.61 378.21,97.03 378.63,97.46 379.04,97.87 379.45,98.28 379.84,98.68 380.24,99.08 380.62,99.47 381.01,99.86 381.4,100.25 381.8,100.64 382.22,101.03 382.63,101.42 383.07,101.81 383.53,102.21 384.01,102.61 384.51,103.02 383.04,100.15 382.81,99.79 382.59,99.44 382.37,99.1 382.15,98.76 381.93,98.42 381.71,98.08 381.48,97.74 381.23,97.4 380.28,96.12 379.36,94.88 378.47,93.68 377.59,92.52 376.74,91.4 375.9,90.31 375.08,89.24 374.28,88.21 373.48,87.2 372.69,86.21 371.89,85.24 371.1,84.29 370.32,83.35 369.53,82.42 368.74,81.51 367.93,80.6 367.12,79.69 366.31,78.78 365.47,77.87 364.61,76.96 363.74,76.05 362.85,75.12 361.93,74.18 360.99,73.22 360.02,72.26 359.01,71.26 357.98,70.25 356.9,69.21 355.79,68.15 354.63,67.05 353.45,65.92 352.19,64.76 351.11,63.75 350,62.74 348.87,61.73 347.74,60.73 346.57,59.74 345.4,58.74 344.22,57.75 343.01,56.77 341.79,55.79 340.56,54.81 339.31,53.85 338.05,52.88 336.77,51.92 335.48,50.96 334.16,50.01 332.84,49.07 331.51,48.13 330.16,47.19 328.8,46.26 327.42,45.34 326.04,44.42 324.63,43.51 323.22,42.6 321.79,41.7 320.34,40.8 318.9,39.92 317.42,39.04 315.95,38.16 314.45,37.29 312.95,36.43 311.43,35.57 309.91,34.72 306.95,33.14 303.91,31.58 300.77,30.06 297.53,28.56 294.22,27.11 290.81,25.69 287.34,24.31 283.79,22.98 280.17,21.68 276.51,20.44 272.78,19.25 269.01,18.11 265.18,17.03 261.31,16 257.4,15.04 253.48,14.13 249.51,13.3 245.53,12.52 241.53,11.82 237.52,11.19 233.5,10.64 229.48,10.16 225.47,9.76 221.45,9.44 217.46,9.22 213.47,9.07 209.51,9.02 205.58,9.05 201.68,9.18 197.81,9.41 193.99,9.73 "/>
   <polygon id="Vector_40" class="fil1" points="37.34,262.96 37.7,265.15 38.27,267.08 39.04,268.77 40,270.23 41.13,271.46 42.42,272.48 43.85,273.3 45.44,273.94 47.13,274.4 48.94,274.69 50.84,274.84 52.83,274.84 54.9,274.71 57.02,274.46 59.19,274.11 61.39,273.66 63.6,273.14 65.83,272.53 68.06,271.87 70.27,271.16 72.45,270.41 74.58,269.64 76.66,268.85 78.69,268.07 80.61,267.29 82.45,266.53 84.18,265.81 85.79,265.14 87.27,264.51 88.6,263.96 89.78,263.49 90.78,263.11 90.81,264.3 90.82,265.67 90.82,267.21 90.8,268.9 90.77,270.73 90.73,272.7 90.66,274.79 90.59,276.98 90.5,279.27 90.4,281.64 90.29,284.08 90.18,286.58 90.04,289.13 89.9,291.72 89.75,294.32 89.59,296.93 89.42,299.54 89.25,302.15 89.07,304.72 88.89,307.25 88.69,309.73 88.49,312.15 88.29,314.5 88.08,316.75 87.87,318.91 87.66,320.96 87.45,322.88 87.23,324.67 87.01,326.31 86.79,327.78 86.57,329.09 86.35,330.21 86.13,331.21 85.9,332.19 85.66,333.14 85.42,334.06 85.15,334.98 84.87,335.86 84.58,336.73 84.29,337.58 83.99,338.41 83.66,339.24 83.34,340.04 83.01,340.83 82.66,341.6 82.32,342.37 81.96,343.12 81.58,343.87 81.22,344.6 80.83,345.34 80.44,346.06 80.04,346.77 79.63,347.49 79.22,348.19 78.8,348.9 78.37,349.61 77.95,350.31 77.51,351.02 77.06,351.73 76.61,352.44 76.16,353.15 75.71,353.88 75.25,354.6 74.78,355.34 74.39,355.97 73.99,356.65 73.58,357.36 73.18,358.11 72.77,358.89 72.37,359.7 71.97,360.54 71.57,361.4 71.18,362.29 70.79,363.2 70.42,364.13 70.06,365.07 69.71,366.03 69.37,367.01 69.05,367.99 68.76,368.98 68.48,369.98 68.22,370.98 67.98,371.98 67.77,372.99 67.58,373.99 67.42,374.98 67.3,375.97 67.2,376.94 67.13,377.91 67.1,378.86 67.11,379.8 67.16,380.71 67.24,381.61 67.37,382.48 67.53,383.33 67.74,384.15 68.29,384.73 68.89,385.3 69.51,385.87 70.16,386.44 70.85,386.99 71.58,387.54 72.33,388.09 73.13,388.62 73.94,389.13 74.77,389.65 75.65,390.14 76.53,390.62 77.44,391.09 78.37,391.54 79.32,391.97 80.3,392.38 81.29,392.78 82.29,393.15 83.31,393.51 84.34,393.84 85.39,394.15 86.44,394.43 87.5,394.69 88.57,394.92 89.66,395.13 90.74,395.3 91.82,395.45 92.9,395.56 94,395.65 95.08,395.7 96.18,395.72 97.26,395.7 99.66,395.54 101.7,395.24 103.44,394.79 104.87,394.21 106.04,393.49 106.95,392.64 107.63,391.67 108.09,390.57 108.37,389.36 108.49,388.03 108.47,386.59 108.31,385.05 108.06,383.41 107.73,381.67 107.34,379.83 106.92,377.91 106.49,375.9 106.06,373.81 105.68,371.64 105.33,369.4 105.06,367.09 104.9,364.72 104.84,362.28 104.92,359.79 105.18,357.24 105.61,354.65 106.25,352.01 107.13,349.32 108.24,346.6 109.63,343.85 111.3,341.07 113.29,338.26 113.84,337.56 114.38,336.87 114.94,336.19 115.5,335.52 116.05,334.86 116.63,334.21 117.19,333.56 117.75,332.92 118.32,332.29 118.9,331.65 119.49,331.03 120.07,330.4 120.66,329.77 121.25,329.15 121.85,328.51 122.46,327.88 123.06,327.24 123.66,326.6 124.29,325.95 124.9,325.29 125.53,324.62 126.16,323.95 126.8,323.26 127.44,322.56 128.08,321.84 128.74,321.11 129.38,320.37 130.05,319.61 130.72,318.82 131.38,318.03 132.06,317.21 132.75,316.37 133.58,316.38 134.48,316.41 135.42,316.44 136.42,316.49 137.46,316.53 138.52,316.59 139.63,316.64 140.77,316.71 141.94,316.77 143.12,316.84 144.33,316.91 145.55,316.98 146.79,317.04 148.03,317.11 149.28,317.18 150.52,317.24 151.76,317.3 152.99,317.36 154.21,317.41 155.42,317.45 156.59,317.49 157.75,317.52 158.88,317.54 159.98,317.55 161.04,317.56 162.05,317.54 163.03,317.53 163.97,317.49 164.84,317.44 165.66,317.38 166.42,317.3 167.11,317.21 168,317.07 168.88,316.91 169.77,316.75 170.66,316.58 171.55,316.4 172.45,316.21 173.34,316.02 174.24,315.81 175.14,315.6 176.04,315.4 176.95,315.17 177.84,314.96 178.75,314.74 179.66,314.51 180.55,314.29 181.46,314.07 182.35,313.85 183.26,313.63 184.16,313.41 185.05,313.2 185.94,312.99 186.83,312.79 187.73,312.6 188.61,312.4 189.5,312.22 190.38,312.05 191.26,311.89 192.13,311.74 193.01,311.6 193.87,311.47 194.74,311.36 195.6,311.25 195.7,311.54 195.82,312.01 195.98,312.67 196.16,313.48 196.35,314.44 196.58,315.54 196.82,316.77 197.07,318.11 197.34,319.56 197.62,321.09 197.9,322.7 198.21,324.38 198.52,326.12 198.82,327.9 199.13,329.7 199.45,331.52 199.76,333.35 200.06,335.18 200.35,336.98 200.64,338.75 200.92,340.49 201.2,342.17 201.45,343.77 201.69,345.31 201.9,346.75 202.1,348.08 202.28,349.3 202.42,350.4 202.56,351.36 202.66,352.16 202.72,352.8 202.75,353.27 202.79,354.84 202.78,356.39 202.71,357.91 202.59,359.42 202.44,360.91 202.23,362.38 201.99,363.83 201.71,365.27 201.4,366.71 201.04,368.12 200.68,369.54 200.28,370.94 199.86,372.34 199.44,373.73 198.99,375.13 198.53,376.52 198.06,377.92 197.59,379.32 197.12,380.72 196.66,382.13 196.2,383.55 195.74,384.97 195.3,386.41 194.87,387.86 194.47,389.33 194.07,390.81 193.72,392.31 193.37,393.83 193.07,395.37 192.8,396.93 192.57,398.52 192.37,400.13 193.99,400.86 195.51,401.56 196.94,402.25 198.29,402.93 199.58,403.58 200.8,404.21 201.98,404.82 203.09,405.39 204.19,405.93 205.24,406.43 206.27,406.9 207.28,407.32 208.29,407.71 209.29,408.04 210.31,408.33 211.34,408.56 212.4,408.74 213.48,408.87 214.59,408.94 215.76,408.94 216.98,408.87 218.26,408.74 219.61,408.53 221.04,408.26 222.55,407.9 224.16,407.47 225.85,406.96 227.66,406.36 229.59,405.67 231.64,404.89 233.82,404.02 236.14,403.05 236.2,402.59 236.22,402 236.21,401.3 236.19,400.49 236.13,399.57 236.07,398.56 235.99,397.47 235.88,396.28 235.77,395.02 235.63,393.7 235.49,392.31 235.33,390.87 235.16,389.39 235,387.86 234.82,386.3 234.63,384.72 234.45,383.12 234.26,381.5 234.07,379.88 233.9,378.26 233.71,376.65 233.53,375.05 233.35,373.48 233.19,371.94 233.03,370.43 232.88,368.97 232.75,367.56 232.63,366.21 232.53,364.92 232.44,363.71 232.36,362.57 232.31,361.52 232.26,360.06 232.21,358.62 232.18,357.16 232.14,355.7 232.12,354.24 232.11,352.78 232.11,351.31 232.12,349.84 232.14,348.38 232.16,346.91 232.2,345.44 232.24,343.97 232.29,342.49 232.35,341.02 232.42,339.54 232.5,338.06 232.58,336.59 232.68,335.11 232.78,333.64 232.88,332.16 233.01,330.68 233.13,329.21 233.26,327.73 233.4,326.26 233.56,324.78 233.72,323.31 233.88,321.84 234.06,320.37 234.24,318.9 234.42,317.44 234.62,315.97 234.83,314.51 235.75,314.82 236.71,315.19 237.69,315.61 238.7,316.09 239.73,316.62 240.76,317.19 241.81,317.82 242.87,318.49 243.94,319.19 244.99,319.94 246.03,320.73 247.07,321.55 248.08,322.4 249.08,323.29 250.05,324.2 250.99,325.13 251.88,326.09 252.75,327.07 253.56,328.06 254.33,329.08 255.04,330.1 255.69,331.14 256.28,332.18 256.81,333.23 257.26,334.28 257.62,335.33 257.92,336.38 258.12,337.43 258.23,338.47 258.25,339.5 258.16,340.52 257.98,341.52 257.56,341.52 256.87,341.52 255.97,341.52 254.87,341.52 253.64,341.52 252.3,341.53 250.88,341.56 249.44,341.59 247.99,341.64 246.59,341.71 245.27,341.79 244.06,341.9 243.01,342.03 242.16,342.19 241.54,342.38 241.19,342.6 241.06,342.83 240.92,343.25 240.75,343.84 240.56,344.6 240.37,345.52 240.19,346.57 240.01,347.74 239.83,349.03 239.68,350.41 239.55,351.88 239.45,353.42 239.38,355.01 239.36,356.65 239.4,358.32 239.47,360.01 239.61,361.69 239.82,363.36 240.1,365.01 240.47,366.62 240.9,368.17 241.45,369.67 242.08,371.08 242.82,372.39 243.68,373.6 244.64,374.7 245.73,375.65 246.95,376.47 248.29,377.11 249.79,377.58 251.42,377.87 253.22,377.95 255.18,377.82 257.04,377.5 258.9,377 260.75,376.34 262.57,375.52 264.37,374.56 266.16,373.47 267.9,372.24 269.61,370.9 271.29,369.46 272.92,367.92 274.52,366.3 276.07,364.6 277.56,362.84 279,361.02 280.38,359.16 281.71,357.26 282.95,355.34 284.16,353.41 285.27,351.48 286.31,349.55 287.27,347.64 288.14,345.75 288.93,343.91 289.64,342.11 290.25,340.37 290.76,338.69 291.17,337.1 291.48,335.59 291.67,334.19 291.77,332.89 291.75,331.71 291.6,330.66 291.37,329.83 291.04,329.01 290.6,328.19 290.07,327.38 289.45,326.56 288.77,325.75 288.02,324.93 287.21,324.1 286.34,323.27 285.43,322.43 284.5,321.58 283.53,320.71 282.55,319.83 281.56,318.93 280.57,318.02 279.58,317.08 278.62,316.13 277.68,315.15 276.77,314.14 275.9,313.1 275.08,312.04 274.31,310.95 273.61,309.82 273,308.66 272.45,307.46 272.01,306.22 271.66,304.95 271.42,303.62 271.29,302.26 271.29,300.85 271.42,299.4 271.69,297.89 271.84,297.24 272.01,296.6 272.19,295.97 272.4,295.33 272.6,294.69 272.83,294.06 273.06,293.43 273.31,292.79 273.56,292.17 273.82,291.53 274.09,290.9 274.36,290.27 274.64,289.64 274.92,289.01 275.21,288.37 275.49,287.73 275.77,287.09 276.05,286.45 276.33,285.8 276.6,285.15 276.87,284.49 277.13,283.84 277.4,283.17 277.63,282.51 277.87,281.83 278.1,281.16 278.32,280.47 278.52,279.78 278.71,279.08 278.88,278.38 279.04,277.66 279.19,276.94 277.57,276.69 275.95,276.48 274.34,276.3 272.71,276.15 271.08,276.03 269.45,275.92 267.82,275.84 266.19,275.77 264.55,275.7 262.92,275.65 261.29,275.6 259.66,275.54 258.04,275.48 256.42,275.42 254.82,275.33 253.23,275.23 251.63,275.11 250.05,274.97 248.49,274.79 246.92,274.58 245.38,274.34 243.85,274.06 242.34,273.73 240.84,273.36 239.36,272.93 237.9,272.44 236.45,271.9 235.04,271.29 233.64,270.62 232.27,269.88 230.92,269.05 229.59,268.16 228.64,267.44 227.73,266.69 226.85,265.9 226.02,265.07 225.21,264.21 224.44,263.32 223.69,262.39 222.97,261.43 222.27,260.45 221.6,259.43 220.95,258.4 220.33,257.34 219.72,256.26 219.12,255.16 218.55,254.05 217.99,252.91 217.44,251.77 216.9,250.61 216.36,249.44 215.84,248.26 215.32,247.07 214.8,245.88 214.29,244.69 213.77,243.49 213.25,242.29 212.73,241.1 212.21,239.9 211.66,238.72 211.12,237.54 210.57,236.36 210.01,235.2 209.42,234.05 208.94,233.14 208.4,232.14 207.8,231.08 207.18,229.96 206.53,228.79 205.9,227.58 205.26,226.33 204.66,225.06 204.11,223.77 203.61,222.47 203.2,221.17 202.87,219.88 202.64,218.6 202.54,217.35 202.57,216.13 202.76,214.95 203.4,212.26 204.06,209.75 204.73,207.42 205.4,205.27 206.05,203.27 206.69,201.44 207.3,199.75 207.88,198.21 208.42,196.79 208.92,195.5 209.35,194.33 209.73,193.27 210.03,192.31 210.26,191.44 210.4,190.66 210.44,189.96 210.37,189.33 210.21,188.75 209.92,188.24 209.51,187.77 208.96,187.33 208.27,186.94 207.44,186.56 206.45,186.2 205.29,185.85 203.97,185.49 202.47,185.13 200.77,184.75 198.88,184.35 196.8,183.91 194.5,183.44 191.99,182.92 189.49,182.42 187.04,181.95 184.62,181.53 182.25,181.16 179.92,180.83 177.6,180.55 175.34,180.32 173.1,180.14 170.9,180 168.72,179.92 166.56,179.88 164.44,179.9 162.33,179.98 160.25,180.1 158.19,180.29 156.13,180.53 154.11,180.83 152.1,181.2 150.1,181.61 148.11,182.1 146.13,182.64 144.16,183.24 142.2,183.92 140.24,184.65 138.28,185.46 136.32,186.33 134.37,187.26 132.4,188.27 130.45,189.35 128.48,190.51 126.51,191.73 124.52,193.03 123.63,193.65 122.75,194.33 121.87,195.06 120.98,195.84 120.09,196.67 119.22,197.55 118.33,198.47 117.46,199.42 116.59,200.42 115.73,201.44 114.87,202.5 114.03,203.58 113.2,204.69 112.37,205.82 111.56,206.97 110.76,208.13 109.98,209.31 109.21,210.5 108.46,211.7 107.72,212.89 107.01,214.09 106.31,215.29 105.63,216.48 104.98,217.67 104.35,218.84 103.75,220.01 103.16,221.15 102.61,222.28 102.08,223.38 101.58,224.46 101.11,225.51 100.68,226.53 100.04,228.08 99.45,229.61 98.89,231.12 98.35,232.6 97.85,234.06 97.37,235.49 96.92,236.9 96.47,238.29 96.03,239.64 95.6,240.98 95.18,242.29 94.75,243.57 94.32,244.83 93.87,246.06 93.42,247.26 92.94,248.44 92.44,249.58 91.92,250.7 91.35,251.79 90.76,252.84 90.13,253.88 89.46,254.87 88.74,255.84 87.96,256.78 87.13,257.69 86.24,258.56 85.29,259.4 84.27,260.22 83.18,260.99 82,261.74 80.75,262.45 79.42,263.12 77.23,264.15 75.19,265.07 73.3,265.89 71.55,266.6 69.92,267.21 68.44,267.74 67.06,268.18 65.79,268.53 64.63,268.81 63.57,269.01 62.59,269.15 61.71,269.22 60.9,269.23 60.15,269.18 59.47,269.08 58.83,268.94 58.26,268.75 57.72,268.53 57.22,268.27 56.74,267.98 56.28,267.68 55.83,267.34 55.4,267 54.96,266.64 54.51,266.28 54.05,265.92 53.57,265.56 53.05,265.21 52.51,264.86 51.92,264.54 51.27,264.23 50.57,263.96 49.78,263.69 48.97,263.47 48.15,263.29 47.32,263.15 46.49,263.04 45.65,262.96 44.8,262.9 43.96,262.87 43.11,262.86 42.27,262.85 41.44,262.86 40.6,262.88 39.77,262.9 38.95,262.93 38.15,262.95 "/>
   <polygon id="Vector_41" class="fil1" points="308.08,122.74 307.06,122.32 306.06,121.87 305.08,121.42 304.12,120.94 303.17,120.46 302.25,119.97 301.33,119.47 300.42,118.97 299.53,118.46 298.64,117.94 297.76,117.43 296.87,116.91 295.99,116.4 295.1,115.9 294.21,115.39 293.31,114.9 292.4,114.42 291.48,113.94 290.54,113.48 289.59,113.04 288.62,112.61 287.62,112.2 286.61,111.81 285.58,111.44 284.51,111.1 283.42,110.77 282.29,110.49 281.13,110.22 279.93,109.98 278.69,109.78 277.42,109.62 276.1,109.48 276.76,109.84 277.52,110.17 278.35,110.5 279.29,110.81 280.29,111.13 281.37,111.45 282.51,111.8 283.69,112.16 284.93,112.56 286.21,112.99 287.52,113.48 288.85,114.01 290.21,114.61 291.56,115.27 292.92,116.02 294.27,116.84 294.34,117.37 294.47,117.48 294.59,117.31 294.69,117.01 294.69,116.73 294.59,116.61 294.31,116.79 293.82,117.43 293.4,117.94 293.08,118.09 292.88,118 292.79,117.8 292.81,117.6 292.92,117.53 293.12,117.69 293.4,118.22 294.02,118.32 294.66,118.46 295.31,118.61 295.99,118.8 296.67,119.01 297.38,119.25 298.1,119.51 298.84,119.79 299.58,120.08 300.32,120.4 301.07,120.73 301.82,121.07 302.57,121.43 303.32,121.8 304.07,122.18 304.8,122.57 305.53,122.96 306.24,123.36 306.95,123.76 307.63,124.17 308.3,124.58 308.95,124.98 309.56,125.39 310.16,125.79 310.74,126.18 311.28,126.57 311.79,126.96 312.27,127.33 312.71,127.69 313.11,128.04 313.47,128.37 313.79,128.69 326.79,135.57 326.78,138.27 326.95,140.7 327.31,142.88 327.83,144.83 328.5,146.55 329.32,148.07 330.29,149.38 331.38,150.52 332.61,151.49 333.95,152.3 335.4,152.98 336.95,153.51 338.58,153.95 340.31,154.28 342.11,154.53 343.98,154.71 345.91,154.83 347.89,154.91 349.92,154.95 351.99,154.98 354.08,155.01 356.19,155.05 358.31,155.12 360.45,155.22 362.56,155.38 364.67,155.61 366.76,155.92 368.82,156.31 370.84,156.83 372.82,157.46 374.75,158.23 376.61,159.15 377.28,159.53 377.93,159.94 378.57,160.39 379.21,160.86 379.82,161.36 380.41,161.9 381,162.46 381.56,163.04 382.11,163.66 382.63,164.3 383.13,164.96 383.61,165.65 384.06,166.36 384.49,167.1 384.89,167.85 385.26,168.63 385.6,169.43 385.91,170.25 386.19,171.08 386.43,171.94 386.64,172.81 386.81,173.7 386.95,174.61 387.05,175.53 387.1,176.47 387.11,177.42 387.08,178.38 387.01,179.36 386.89,180.35 386.73,181.35 386.51,182.36 386.25,183.38 385.71,185.06 385.04,186.68 384.26,188.24 383.38,189.74 382.39,191.17 381.33,192.53 380.19,193.82 378.97,195.02 377.69,196.15 376.37,197.19 375,198.14 373.59,199.01 372.16,199.77 370.73,200.44 369.28,201 367.82,201.46 366.64,201.77 365.51,202.02 364.39,202.22 363.32,202.38 362.28,202.48 361.26,202.53 360.28,202.55 359.32,202.51 358.39,202.44 357.49,202.33 356.61,202.17 355.75,201.99 354.91,201.76 354.11,201.5 353.31,201.21 352.54,200.88 351.79,200.54 351.05,200.16 350.33,199.75 349.62,199.33 348.92,198.88 348.25,198.41 347.57,197.92 346.91,197.41 346.26,196.89 345.61,196.35 344.98,195.8 344.34,195.24 343.72,194.68 343.09,194.1 342.48,193.51 341.85,192.92 341.37,192.47 340.86,191.99 340.34,191.51 339.81,191.01 339.25,190.51 338.67,189.98 338.09,189.45 337.5,188.92 336.88,188.37 336.26,187.83 335.62,187.27 334.99,186.72 334.33,186.16 333.67,185.6 333.01,185.04 332.34,184.48 331.66,183.93 330.99,183.38 330.31,182.84 329.63,182.3 328.95,181.77 328.28,181.25 327.6,180.74 326.93,180.24 326.26,179.75 325.6,179.28 324.95,178.82 324.3,178.38 323.65,177.96 323.03,177.55 322.4,177.16 321.8,176.8 319.92,175.73 318.07,174.74 316.23,173.83 314.4,172.99 312.58,172.23 310.78,171.54 308.98,170.92 307.19,170.38 305.42,169.9 303.66,169.49 301.9,169.15 300.14,168.88 298.4,168.67 296.66,168.52 294.92,168.44 293.17,168.41 291.43,168.45 289.69,168.54 287.95,168.7 286.22,168.9 284.48,169.17 282.73,169.49 280.98,169.86 279.22,170.28 277.45,170.75 275.69,171.27 273.9,171.83 272.11,172.45 270.31,173.1 268.5,173.81 266.68,174.55 264.84,175.34 263.19,176.08 261.68,176.79 260.28,177.47 259,178.13 257.83,178.75 256.76,179.35 255.79,179.92 254.9,180.47 254.09,180.98 253.35,181.46 252.69,181.92 252.07,182.34 251.51,182.73 250.99,183.09 250.51,183.42 250.04,183.72 249.61,183.99 249.19,184.22 248.77,184.42 248.35,184.59 247.92,184.72 247.49,184.83 247.02,184.89 246.53,184.92 246,184.92 245.42,184.88 244.79,184.8 244.1,184.69 243.35,184.55 242.52,184.36 241.61,184.14 240.61,183.89 237.95,183.27 235.4,182.83 232.97,182.59 230.66,182.52 228.48,182.62 226.42,182.87 224.45,183.29 222.6,183.84 220.87,184.53 219.24,185.35 217.72,186.29 216.29,187.35 214.97,188.5 213.75,189.75 212.62,191.1 211.59,192.52 210.66,194.01 209.81,195.57 209.05,197.19 208.37,198.85 207.79,200.56 207.28,202.29 206.85,204.06 206.51,205.83 206.24,207.62 206.04,209.41 205.92,211.19 205.86,212.96 205.87,214.7 205.96,216.4 206.09,218.08 206.3,219.7 206.44,220.55 206.59,221.38 206.78,222.2 206.98,223.01 207.2,223.82 207.44,224.62 207.69,225.41 207.96,226.19 208.25,226.97 208.55,227.74 208.85,228.51 209.18,229.26 209.52,230.01 209.85,230.76 210.21,231.51 210.56,232.25 210.92,232.99 211.29,233.73 211.66,234.46 212.04,235.19 212.42,235.92 212.79,236.65 213.16,237.38 213.54,238.1 213.9,238.83 214.27,239.57 214.63,240.3 214.99,241.03 215.33,241.76 215.66,242.5 216,243.24 216.31,243.99 217.07,245.8 217.8,247.51 218.5,249.1 219.19,250.61 219.87,252.03 220.57,253.37 221.3,254.64 222.05,255.85 222.85,257.02 223.72,258.14 224.66,259.23 225.68,260.31 226.78,261.36 228.01,262.42 229.34,263.49 230.81,264.56 231.52,265.06 232.24,265.55 232.97,266.02 233.71,266.49 234.45,266.94 235.2,267.39 235.95,267.82 236.73,268.25 237.51,268.66 238.29,269.07 239.09,269.46 239.9,269.84 240.71,270.21 241.53,270.57 242.36,270.92 243.19,271.25 244.05,271.57 244.9,271.88 245.77,272.18 246.66,272.47 247.54,272.74 248.44,273 249.33,273.24 250.25,273.47 251.18,273.7 252.1,273.9 253.04,274.1 254,274.27 254.95,274.44 255.92,274.59 256.9,274.72 257.9,274.84 259.82,275.02 261.73,275.12 263.62,275.13 265.5,275.07 267.35,274.93 269.19,274.71 271,274.42 272.79,274.06 274.54,273.63 276.27,273.14 277.97,272.57 279.63,271.95 281.26,271.27 282.85,270.52 284.42,269.72 285.92,268.86 287.4,267.95 288.82,267 290.21,265.99 291.54,264.93 292.83,263.84 294.06,262.69 295.24,261.51 296.36,260.29 297.42,259.03 298.43,257.74 299.38,256.42 300.27,255.06 301.08,253.67 301.84,252.26 302.52,250.83 303.13,249.37 302,248.65 300.93,248.04 299.95,247.5 299.02,247.02 298.16,246.58 297.35,246.16 296.6,245.74 295.9,245.31 295.24,244.83 294.6,244.31 294.01,243.7 293.43,243 292.88,242.18 292.34,241.23 291.82,240.13 291.29,238.86 291.99,239.17 292.66,239.49 293.32,239.82 293.97,240.15 294.61,240.49 295.24,240.83 295.86,241.18 296.48,241.54 297.08,241.9 297.69,242.25 298.29,242.61 298.9,242.97 299.49,243.34 300.09,243.7 300.69,244.06 301.31,244.42 301.92,244.78 302.54,245.13 303.17,245.48 303.81,245.83 304.45,246.17 305.12,246.51 305.8,246.83 306.49,247.15 307.19,247.47 307.91,247.77 308.66,248.07 309.41,248.35 310.19,248.62 311.01,248.88 311.84,249.14 312.69,249.37 313.35,249.53 314.04,249.68 314.78,249.82 315.56,249.94 316.36,250.04 317.19,250.13 318.06,250.21 318.95,250.27 319.86,250.32 320.79,250.36 321.73,250.38 322.69,250.38 323.64,250.37 324.6,250.35 325.57,250.31 326.53,250.26 327.49,250.19 328.45,250.11 329.37,250.01 330.3,249.91 331.21,249.78 332.09,249.64 332.95,249.48 333.78,249.31 334.57,249.12 335.34,248.92 336.06,248.7 336.75,248.47 337.4,248.23 337.99,247.96 338.53,247.68 339.02,247.39 338.61,246.97 338.22,246.58 337.82,246.2 337.42,245.84 337.05,245.47 336.69,245.1 336.33,244.72 336.01,244.32 335.71,243.9 335.45,243.45 335.21,242.97 335.02,242.44 334.87,241.86 334.77,241.23 334.72,240.53 334.72,239.77 334.77,239.01 334.87,238.27 335.03,237.55 335.23,236.86 335.48,236.2 335.76,235.57 336.07,234.97 336.43,234.42 336.82,233.91 337.24,233.44 337.69,233.03 338.15,232.67 338.64,232.37 339.15,232.13 339.67,231.95 340.23,231.84 341.08,231.82 342.04,231.95 343.07,232.21 344.16,232.59 345.31,233.07 346.5,233.62 347.71,234.23 348.92,234.89 350.14,235.57 351.35,236.26 352.53,236.94 353.66,237.58 354.75,238.17 355.77,238.7 356.71,239.14 357.55,239.47 358.77,239.86 360.03,240.21 361.32,240.52 362.65,240.78 364.03,241.01 365.41,241.19 366.84,241.33 368.28,241.44 369.74,241.51 371.22,241.53 372.69,241.53 374.19,241.49 375.69,241.42 377.17,241.31 378.67,241.17 380.15,241 381.62,240.8 383.08,240.57 384.52,240.31 385.93,240.03 387.32,239.72 388.69,239.38 390.01,239.02 391.3,238.64 392.55,238.23 393.76,237.8 394.91,237.35 396.02,236.88 397.07,236.4 398.07,235.89 399,235.37 399.86,234.83 398.55,234.9 397.28,234.99 396.05,235.12 394.86,235.26 393.69,235.42 392.53,235.58 391.37,235.74 390.21,235.9 389.02,236.03 387.81,236.16 386.55,236.25 385.25,236.3 383.89,236.32 382.47,236.29 380.95,236.21 379.35,236.07 380.16,234.57 380.88,233.27 381.51,232.12 382.09,231.13 382.63,230.25 383.15,229.49 383.67,228.8 384.21,228.18 384.77,227.6 385.38,227.05 386.06,226.5 386.83,225.94 387.69,225.33 388.69,224.68 389.83,223.94 391.11,223.1 391.98,222.55 392.85,221.96 393.74,221.36 394.65,220.73 395.56,220.08 396.48,219.41 397.38,218.73 398.29,218.03 399.19,217.33 400.06,216.6 400.92,215.87 401.76,215.14 402.57,214.39 403.35,213.64 404.09,212.88 404.79,212.13 406.62,209.93 408.23,207.7 409.6,205.42 410.77,203.11 411.73,200.78 412.5,198.42 413.07,196.06 413.47,193.68 413.69,191.29 413.74,188.92 413.65,186.54 413.41,184.18 413.03,181.85 412.52,179.53 411.88,177.25 411.13,175.01 410.27,172.8 409.31,170.64 408.27,168.54 407.13,166.5 405.93,164.53 404.66,162.62 403.34,160.79 401.97,159.04 400.55,157.38 399.1,155.81 397.62,154.35 396.13,152.98 394.63,151.73 393.14,150.6 391.64,149.58 390.17,148.7 388.74,147.92 387.33,147.22 385.92,146.59 384.55,146.01 383.17,145.51 381.82,145.05 380.47,144.65 379.13,144.3 377.8,144 376.48,143.74 375.15,143.52 373.84,143.34 372.53,143.19 371.21,143.07 369.89,142.98 368.58,142.9 367.25,142.85 365.92,142.82 364.59,142.8 363.25,142.79 361.89,142.79 360.52,142.78 359.14,142.78 357.75,142.78 356.34,142.76 354.91,142.74 353.47,142.7 352,142.65 350.51,142.58 349,142.48 347.45,142.35 345.89,142.2 345.16,141.82 344.58,141.36 344.13,140.83 343.78,140.24 343.48,139.59 343.21,138.9 342.93,138.17 342.63,137.4 342.26,136.62 341.79,135.83 341.19,135.03 340.42,134.24 339.47,133.46 338.28,132.7 336.84,131.97 335.1,131.28 334.56,131.09 334.15,130.94 333.84,130.84 333.56,130.77 333.29,130.73 332.97,130.7 332.56,130.7 332.01,130.7 331.5,130.71 331.19,130.72 331.03,130.73 330.95,130.75 330.87,130.78 330.74,130.82 330.5,130.87 330.07,130.94 329.78,131 329.71,131.06 329.76,131.12 329.83,131.17 329.81,131.21 329.6,131.24 329.07,131.25 328.14,131.24 328.24,130.15 328.45,129.17 328.73,128.28 329.06,127.46 329.42,126.68 329.81,125.92 330.17,125.17 330.53,124.4 330.81,123.6 331.03,122.73 331.14,121.79 331.15,120.74 331.01,119.56 330.71,118.24 330.23,116.76 329.54,115.08 329.19,114.36 328.81,113.64 328.4,112.91 327.93,112.2 327.45,111.5 326.9,110.81 326.31,110.15 325.69,109.52 325.01,108.92 324.28,108.37 323.51,107.85 322.69,107.39 321.81,106.98 320.88,106.64 319.9,106.36 318.86,106.15 318.98,107.53 319.07,108.86 319.14,110.13 319.19,111.36 319.24,112.54 319.28,113.67 319.3,114.75 319.32,115.79 319.35,116.78 319.38,117.72 319.42,118.63 319.47,119.49 319.53,120.31 319.61,121.09 319.72,121.83 319.84,122.53 320,123.2 320.19,123.83 320.4,124.42 320.66,124.98 320.97,125.51 321.31,126 321.69,126.46 322.14,126.89 322.64,127.29 323.19,127.66 323.82,128.01 324.5,128.33 325.25,128.62 326.07,128.88 326.98,129.12 327.95,129.35 327.92,133.53 327.17,133.33 326.38,133.06 325.56,132.75 324.72,132.4 323.85,132.01 322.98,131.59 322.09,131.14 321.22,130.68 320.34,130.21 319.48,129.74 318.63,129.26 317.81,128.79 317.02,128.34 316.27,127.91 315.56,127.51 314.9,127.14 313.69,126.44 312.63,125.73 311.69,125.03 310.88,124.32 310.17,123.61 309.57,122.9 309.07,122.18 308.66,121.46 308.33,120.72 308.08,119.98 307.9,119.24 307.76,118.48 307.69,117.72 307.66,116.94 307.66,116.16 307.71,115.36 307.77,114.55 307.84,113.73 307.92,112.89 308.01,112.03 308.09,111.17 308.14,110.28 308.19,109.38 308.19,108.46 308.17,107.52 308.1,106.56 307.98,105.59 307.8,104.58 307.55,103.56 307.23,102.52 306.82,101.45 306.33,100.36 305.93,99.59 305.51,98.85 305.04,98.12 304.54,97.42 304.01,96.75 303.42,96.11 302.79,95.5 302.11,94.92 301.38,94.39 300.6,93.89 299.77,93.43 298.86,93.02 297.9,92.66 296.88,92.35 295.79,92.1 294.63,91.9 294.9,94.79 295.23,97.44 295.59,99.83 296.01,102 296.45,103.95 296.95,105.69 297.45,107.24 298.01,108.62 298.57,109.83 299.16,110.89 299.75,111.81 300.36,112.61 300.97,113.29 301.58,113.88 302.19,114.39 302.8,114.82 303.4,115.19 303.97,115.51 304.53,115.81 305.06,116.09 305.56,116.35 306.04,116.63 306.48,116.93 306.87,117.26 307.23,117.64 307.53,118.09 307.78,118.6 307.97,119.2 308.1,119.9 308.16,120.72 308.16,121.66 "/>
   <polygon id="Vector_42" class="fil1" points="146.51,318.86 146.49,319.66 146.48,320.45 146.47,321.24 146.48,322.02 146.48,322.8 146.49,323.58 146.51,324.35 146.53,325.12 146.55,325.89 146.57,326.65 146.59,327.41 146.61,328.17 146.62,328.93 146.64,329.69 146.64,330.45 146.64,331.21 146.63,331.97 146.61,332.73 146.58,333.5 146.54,334.26 146.49,335.03 146.42,335.8 146.34,336.57 146.24,337.35 146.12,338.13 145.99,338.91 145.83,339.7 145.66,340.49 145.46,341.29 145.24,342.1 144.99,342.91 144.72,343.73 144.28,344.84 143.76,345.95 143.16,347.05 142.49,348.16 141.76,349.27 140.99,350.38 140.19,351.48 139.35,352.59 138.51,353.69 137.66,354.79 136.81,355.89 135.99,356.99 135.2,358.09 134.44,359.18 133.73,360.27 133.09,361.36 132.52,362.44 132.03,363.52 131.63,364.6 131.34,365.67 131.18,366.74 131.12,367.8 131.21,368.86 131.45,369.91 131.84,370.96 132.4,372 133.14,373.04 134.08,374.06 135.22,375.08 136.56,376.1 138.13,377.12 139.94,378.11 140.46,378.37 141.03,378.62 141.64,378.88 142.29,379.12 142.99,379.37 143.72,379.6 144.48,379.84 145.27,380.06 146.08,380.28 146.92,380.48 147.78,380.67 148.64,380.86 149.53,381.03 150.42,381.19 151.32,381.33 152.23,381.45 153.12,381.56 154.03,381.66 154.92,381.73 155.8,381.79 156.66,381.82 157.52,381.84 158.34,381.83 159.16,381.8 159.94,381.75 160.69,381.66 161.4,381.56 162.08,381.43 162.73,381.26 163.33,381.07 163.88,380.85 164.38,380.6 164.66,380.07 164.92,379.47 165.1,378.81 165.26,378.09 165.38,377.3 165.48,376.46 165.54,375.56 165.58,374.62 165.6,373.62 165.61,372.58 165.59,371.51 165.58,370.39 165.56,369.25 165.53,368.07 165.51,366.86 165.49,365.63 165.48,364.38 165.49,363.1 165.51,361.82 165.55,360.52 165.61,359.22 165.71,357.91 165.83,356.6 165.99,355.28 166.19,353.98 166.44,352.68 166.72,351.4 167.06,350.13 167.45,348.87 167.9,347.64 168.4,346.43 168.98,345.24 169.48,344.3 169.99,343.39 170.51,342.5 171.03,341.63 171.55,340.79 172.07,339.97 172.6,339.16 173.13,338.37 173.66,337.59 174.2,336.82 174.73,336.05 175.25,335.29 175.78,334.52 176.3,333.76 176.82,332.99 177.33,332.22 177.84,331.44 178.34,330.64 178.84,329.84 179.33,329.01 179.81,328.16 180.28,327.3 180.74,326.4 181.18,325.49 181.62,324.54 182.04,323.56 182.45,322.54 182.84,321.49 183.23,320.4 183.59,319.27 183.94,318.09 184.26,316.86 183.1,316.86 181.95,316.88 180.8,316.93 179.66,317 178.53,317.1 177.4,317.21 176.28,317.34 175.16,317.47 174.05,317.63 172.96,317.79 171.86,317.96 170.77,318.13 169.69,318.3 168.61,318.48 167.54,318.65 166.48,318.82 165.18,319 163.9,319.16 162.64,319.28 161.4,319.38 160.18,319.44 158.96,319.49 157.75,319.51 156.54,319.5 155.33,319.48 154.11,319.43 152.9,319.37 151.66,319.3 150.4,319.2 149.13,319.1 147.84,318.98 "/>
   <polygon id="Vector_43" class="fil1" points="403.43,243.84 401.63,243.93 399.88,244.03 398.15,244.16 396.45,244.3 394.79,244.44 393.13,244.59 391.51,244.74 389.89,244.89 388.3,245.02 386.71,245.14 385.13,245.25 383.56,245.33 381.99,245.38 380.42,245.42 378.85,245.41 377.27,245.36 375.69,245.27 374.09,245.14 372.48,244.95 370.85,244.71 369.21,244.41 367.54,244.05 365.84,243.61 364.12,243.11 362.37,242.53 360.58,241.87 358.76,241.12 356.89,240.29 354.99,239.36 353.04,238.34 351.04,237.21 349,235.98 347.98,235.39 346.93,234.86 345.87,234.4 344.82,234.04 343.77,233.77 342.75,233.6 341.76,233.56 340.82,233.66 339.95,233.9 339.15,234.3 338.45,234.86 337.84,235.62 337.35,236.56 336.99,237.71 336.77,239.07 336.69,240.67 336.77,241.62 336.97,242.51 337.29,243.35 337.73,244.14 338.27,244.89 338.91,245.59 339.65,246.25 340.49,246.86 341.4,247.42 342.38,247.95 343.45,248.44 344.57,248.89 345.74,249.31 346.97,249.68 348.24,250.03 349.55,250.34 350.88,250.61 352.25,250.86 353.63,251.08 355.03,251.27 356.42,251.44 357.82,251.58 359.21,251.7 360.58,251.8 361.93,251.87 363.26,251.93 364.55,251.96 365.81,251.99 367.01,251.99 368.16,251.98 369.26,251.96 370.28,251.92 371.3,251.88 372.35,251.82 373.42,251.75 374.52,251.66 375.62,251.56 376.75,251.45 377.88,251.33 379.03,251.2 380.19,251.05 381.35,250.89 382.52,250.71 383.69,250.52 384.85,250.32 386.01,250.11 387.16,249.88 388.31,249.64 389.43,249.38 390.56,249.11 391.66,248.82 392.74,248.53 393.82,248.22 394.85,247.89 395.87,247.55 396.85,247.2 397.81,246.83 398.74,246.44 399.62,246.05 400.47,245.64 401.28,245.21 402.04,244.77 402.76,244.31 "/>
   <polygon id="Vector_44" class="fil1" points="280.62,136.32 282.01,136.51 283.36,136.68 284.69,136.86 285.98,137.01 287.24,137.16 288.47,137.29 289.67,137.41 290.84,137.51 291.99,137.59 293.11,137.65 294.21,137.69 295.28,137.7 296.32,137.68 297.34,137.64 298.34,137.56 299.32,137.45 300.28,137.31 301.21,137.13 302.12,136.92 303.02,136.66 303.9,136.37 304.76,136.03 305.6,135.64 306.42,135.21 307.24,134.73 308.04,134.2 308.81,133.61 309.59,132.98 310.34,132.28 311.09,131.53 311.82,130.72 312.54,129.84 311.29,129.35 310.09,128.86 308.95,128.4 307.86,127.95 306.8,127.54 305.75,127.17 304.71,126.85 303.66,126.59 302.6,126.39 301.52,126.26 300.38,126.21 299.21,126.24 297.95,126.37 296.64,126.59 295.24,126.93 293.73,127.38 292.72,127.73 291.71,128.11 290.72,128.53 289.73,128.97 288.76,129.45 287.82,129.95 286.9,130.49 286.01,131.05 285.16,131.63 284.36,132.24 283.59,132.87 282.88,133.52 282.23,134.19 281.62,134.88 281.09,135.59 "/>
   <polygon id="Vector_45" class="fil1" points="259.66,123.95 260.19,124.61 260.75,125.2 261.34,125.74 261.97,126.22 262.62,126.65 263.31,127.03 264.02,127.35 264.76,127.63 265.51,127.86 266.29,128.04 267.09,128.18 267.9,128.27 268.73,128.32 269.56,128.33 270.42,128.29 271.27,128.23 272.13,128.12 273,127.99 273.86,127.81 274.73,127.61 275.59,127.37 276.45,127.12 277.29,126.83 278.13,126.51 278.97,126.17 279.78,125.81 280.58,125.43 281.36,125.03 282.13,124.61 282.87,124.17 283.59,123.72 284.28,123.26 290.45,118.11 290.51,118.07 290.56,118.02 290.62,117.96 290.67,117.91 290.75,117.85 290.81,117.79 290.87,117.73 290.93,117.67 289.52,117.32 288.24,117 287.08,116.71 286.02,116.47 285.04,116.26 284.11,116.1 283.22,115.99 282.35,115.93 281.48,115.92 280.58,115.97 279.66,116.08 278.66,116.26 277.57,116.5 276.4,116.81 275.1,117.2 273.66,117.66 273.01,117.88 272.25,118.16 271.37,118.48 270.42,118.85 269.4,119.24 268.34,119.67 267.26,120.12 266.18,120.58 265.1,121.04 264.06,121.51 263.08,121.98 262.16,122.42 261.35,122.85 260.66,123.25 260.08,123.62 "/>
   <polygon id="Vector_46" class="fil1" points="284.57,108.19 284.42,107.19 284.26,106.16 284.07,105.13 283.88,104.09 283.67,103.04 283.45,101.99 283.19,100.94 282.93,99.89 282.64,98.85 282.33,97.83 282,96.82 281.64,95.82 281.25,94.85 280.83,93.9 280.38,92.98 279.9,92.1 279.38,91.25 278.83,90.44 278.25,89.67 277.62,88.94 276.95,88.27 276.26,87.65 275.51,87.08 274.72,86.58 273.87,86.14 272.99,85.76 272.06,85.46 271.08,85.22 270.05,85.06 268.97,84.99 267.82,85 266.63,85.09 266.79,85.88 266.99,86.73 267.24,87.63 267.51,88.58 267.82,89.55 268.16,90.55 268.51,91.56 268.88,92.57 269.27,93.57 269.68,94.54 270.08,95.48 270.49,96.39 270.9,97.24 271.29,98.03 271.69,98.74 272.06,99.37 272.66,100.29 273.25,101.14 273.83,101.9 274.42,102.61 275.01,103.26 275.62,103.85 276.27,104.39 276.95,104.89 277.66,105.36 278.43,105.79 279.26,106.21 280.16,106.61 281.13,107.01 282.19,107.4 283.33,107.79 "/>
   <polygon id="Vector_47" class="fil1" points="242.99,111.06 243.4,111.64 243.85,112.18 244.35,112.67 244.9,113.12 245.48,113.53 246.1,113.9 246.76,114.23 247.45,114.52 248.18,114.76 248.94,114.97 249.72,115.14 250.53,115.27 251.36,115.35 252.23,115.4 253.1,115.42 254.01,115.38 254.92,115.32 255.85,115.22 256.8,115.08 257.76,114.9 258.73,114.68 259.69,114.43 260.68,114.14 261.66,113.82 262.64,113.46 263.62,113.06 264.6,112.63 265.59,112.17 266.56,111.67 267.52,111.13 268.48,110.57 269.42,109.96 269.48,109.92 269.54,109.88 269.6,109.83 269.68,109.79 269.74,109.74 269.8,109.7 269.86,109.66 269.92,109.62 270.97,108.87 269.95,108.5 269.03,108.12 268.16,107.72 267.32,107.31 266.51,106.9 265.72,106.51 264.92,106.14 264.1,105.8 263.27,105.5 262.38,105.24 261.43,105.04 260.42,104.9 259.32,104.84 258.11,104.86 256.8,104.97 255.35,105.18 254.54,105.34 253.69,105.55 252.83,105.79 251.95,106.08 251.08,106.4 250.19,106.74 249.33,107.11 248.48,107.51 247.64,107.92 246.83,108.35 246.07,108.8 245.34,109.25 244.66,109.7 244.04,110.16 243.48,110.61 "/>
   <polygon id="Vector_48" class="fil3" points="304.55,208.06 304.27,209.34 304.22,210.48 304.37,211.5 304.71,212.39 305.19,213.16 305.82,213.82 306.55,214.35 307.36,214.77 308.22,215.07 309.11,215.26 310,215.34 310.87,215.32 311.69,215.18 312.45,214.95 313.09,214.6 313.61,214.16 314.16,213.41 314.48,212.65 314.55,211.89 314.41,211.15 314.09,210.44 313.61,209.78 312.99,209.16 312.25,208.62 311.4,208.14 310.48,207.77 309.5,207.49 308.49,207.33 307.47,207.29 306.45,207.39 305.48,207.65 "/>
  </g>
 </g>
</svg>
