<?xml version="1.0" encoding="UTF-8"?>
<!DOCTYPE svg PUBLIC "-//W3C//DTD SVG 1.1//EN" "http://www.w3.org/Graphics/SVG/1.1/DTD/svg11.dtd">
<!-- Creator: CorelDRAW 2019 (64-Bit) -->
<svg xmlns="http://www.w3.org/2000/svg" xml:space="preserve" width="6.78394in" height="3.84454in" version="1.1" style="shape-rendering:geometricPrecision; text-rendering:geometricPrecision; image-rendering:optimizeQuality; fill-rule:evenodd; clip-rule:evenodd"
viewBox="0 0 6783.94 3844.53"
 xmlns:xlink="http://www.w3.org/1999/xlink"
 xmlns:xodm="http://www.corel.com/coreldraw/odm/2003">
 <defs>
  <style type="text/css">
   <![CDATA[
    .fil1 {fill:#DFF2E6;fill-rule:nonzero;fill-opacity:0.160784}
    .fil0 {fill:#67C38C;fill-rule:nonzero}
   ]]>
  </style>
 </defs>
 <g id="Layer_x0020_1">
  <metadata id="CorelCorpID_0Corel-Layer"/>
  <g id="_2461203536736">
   <path id="Vector_84" class="fil0" d="M4859.36 3596.82c-45.74,87.14 -95.51,169.61 -148.68,247.71l-4641.82 0c-135.26,-408.76 -78.96,-859.03 238,-1280 548.92,-729.06 922.55,-198.02 1674.02,-659.38 22.38,-13.75 43.78,-28.23 64.56,-43.12 558.08,-396.67 576.82,-1136.15 995.64,-1552.81 116.27,-115.73 260.53,-209.27 451.07,-262.6 605.14,-169.27 1248.68,129.79 1575.14,777.71 335.1,665 458.65,1466.04 -207.92,2772.5z"/>
   <path id="Ellipse_x0020_33_2" class="fil1" d="M6783.94 2203.91c0,-106.43 -86.28,-192.71 -192.71,-192.71 -106.43,0 -192.71,86.28 -192.71,192.71 0,106.43 86.28,192.71 192.71,192.71 106.43,0 192.71,-86.28 192.71,-192.71z"/>
  </g>
 </g>
</svg>
