<?xml version="1.0" encoding="UTF-8"?>
<!DOCTYPE svg PUBLIC "-//W3C//DTD SVG 1.1//EN" "http://www.w3.org/Graphics/SVG/1.1/DTD/svg11.dtd">
<!-- Creator: CorelDRAW 2019 (64-Bit) -->
<svg xmlns="http://www.w3.org/2000/svg" xml:space="preserve" width="2.85023in" height="2.85021in" version="1.1" style="shape-rendering:geometricPrecision; text-rendering:geometricPrecision; image-rendering:optimizeQuality; fill-rule:evenodd; clip-rule:evenodd"
viewBox="0 0 2850.23 2850.2"
 xmlns:xlink="http://www.w3.org/1999/xlink"
 xmlns:xodm="http://www.corel.com/coreldraw/odm/2003">
 <defs>
  <style type="text/css">
   <![CDATA[
    .fil0 {fill:white}
   ]]>
  </style>
 </defs>
 <g id="Layer_x0020_1">
  <metadata id="CorelCorpID_0Corel-Layer"/>
  <path id="Union_8" class="fil0" d="M31.31 31.25c17.23,0 31.32,-14.06 31.32,-31.25l-62.64 0c0,17.19 14.1,31.25 31.31,31.25zm344.54 -31.25c0,17.19 -14.09,31.25 -31.32,31.25 -17.23,0 -31.32,-14.06 -31.32,-31.25l62.65 0zm281.89 31.25c17.23,0 31.32,-14.06 31.32,-31.25l-62.65 0c0,17.19 14.09,31.25 31.32,31.25zm344.53 -31.25c0,17.19 -14.09,31.25 -31.31,31.25 -17.23,0 -31.32,-14.06 -31.32,-31.25l62.64 0zm281.89 31.25c17.23,0 31.32,-14.06 31.32,-31.25l-62.65 0c0,17.19 14.09,31.25 31.32,31.25zm344.53 -31.25c0,17.19 -14.09,31.25 -31.32,31.25 -17.22,0 -31.31,-14.06 -31.31,-31.25l62.63 0zm281.9 31.25c17.23,0 31.32,-14.06 31.32,-31.25l-62.65 0c0,17.19 14.09,31.25 31.32,31.25zm344.53 -31.25c0,17.19 -14.09,31.25 -31.32,31.25 -17.23,0 -31.32,-14.06 -31.32,-31.25l62.65 0zm281.89 31.25c17.22,0 31.31,-14.06 31.31,-31.25l-62.64 0c0,17.19 14.09,31.25 31.32,31.25zm313.21 -31.25l0 31.25c-17.23,0 -31.32,-14.06 -31.32,-31.25l31.32 0zm-2787.59 313.13c0,17.29 -14.02,31.35 -31.32,31.35 -17.29,0 -31.31,-14.06 -31.31,-31.35 0,-17.29 14.02,-31.25 31.31,-31.25 17.3,0 31.32,13.96 31.32,31.25zm281.9 31.35c17.29,0 31.32,-14.06 31.32,-31.35 0,-17.29 -14.03,-31.25 -31.32,-31.25 -17.3,0 -31.32,13.96 -31.32,31.25 0,17.29 14.02,31.35 31.32,31.35zm344.53 -31.35c0,17.29 -14.02,31.35 -31.32,31.35 -17.29,0 -31.32,-14.06 -31.32,-31.35 0,-17.29 14.03,-31.25 31.32,-31.25 17.3,0 31.32,13.96 31.32,31.25zm281.89 31.35c17.3,0 31.31,-14.06 31.31,-31.35 0,-17.29 -14.02,-31.25 -31.31,-31.25 -17.3,0 -31.32,13.96 -31.32,31.25 0,17.29 14.02,31.35 31.32,31.35zm344.53 -31.35c0,17.29 -14.02,31.35 -31.32,31.35 -17.3,0 -31.32,-14.06 -31.32,-31.35 0,-17.29 14.02,-31.25 31.32,-31.25 17.3,0 31.32,13.96 31.32,31.25zm281.89 31.35c17.3,0 31.32,-14.06 31.32,-31.35 0,-17.29 -14.02,-31.25 -31.32,-31.25 -17.29,0 -31.31,13.96 -31.31,31.25 0,17.29 14.02,31.35 31.31,31.35zm344.54 -31.35c0,17.29 -14.03,31.35 -31.32,31.35 -17.3,0 -31.32,-14.06 -31.32,-31.35 0,-17.29 14.02,-31.25 31.32,-31.25 17.29,0 31.32,13.96 31.32,31.25zm281.89 31.35c17.3,0 31.32,-14.06 31.32,-31.35 0,-17.29 -14.02,-31.25 -31.32,-31.25 -17.29,0 -31.32,13.96 -31.32,31.25 0,17.29 14.03,31.35 31.32,31.35zm344.53 -31.35c0,17.29 -14.02,31.35 -31.31,31.35 -17.3,0 -31.32,-14.06 -31.32,-31.35 0,-17.29 14.02,-31.25 31.32,-31.25 17.29,0 31.31,13.96 31.31,31.25zm250.57 0c0,17.29 14.09,31.35 31.32,31.35l0 -62.61c-17.23,0 -31.32,14.06 -31.32,31.25zm-2787.59 344.58c17.3,0 31.32,-14.06 31.32,-31.35 0,-17.29 -14.02,-31.25 -31.32,-31.25 -17.29,0 -31.31,13.96 -31.31,31.25 0,17.29 14.02,31.35 31.31,31.35zm344.54 -31.35c0,17.29 -14.03,31.35 -31.32,31.35 -17.3,0 -31.32,-14.06 -31.32,-31.35 0,-17.29 14.02,-31.25 31.32,-31.25 17.29,0 31.32,13.96 31.32,31.25zm281.89 31.35c17.3,0 31.32,-14.06 31.32,-31.35 0,-17.29 -14.02,-31.25 -31.32,-31.25 -17.29,0 -31.32,13.96 -31.32,31.25 0,17.29 14.03,31.35 31.32,31.35zm344.53 -31.35c0,17.29 -14.02,31.35 -31.31,31.35 -17.3,0 -31.32,-14.06 -31.32,-31.35 0,-17.29 14.02,-31.25 31.32,-31.25 17.3,0 31.31,13.96 31.31,31.25zm281.89 31.35c17.3,0 31.32,-14.06 31.32,-31.35 0,-17.29 -14.02,-31.25 -31.32,-31.25 -17.3,0 -31.32,13.96 -31.32,31.25 0,17.29 14.02,31.35 31.32,31.35zm344.53 -31.35c0,17.29 -14.02,31.35 -31.32,31.35 -17.29,0 -31.31,-14.06 -31.31,-31.35 0,-17.29 14.02,-31.25 31.31,-31.25 17.3,0 31.32,13.96 31.32,31.25zm281.9 31.35c17.29,0 31.32,-14.06 31.32,-31.35 0,-17.29 -14.03,-31.25 -31.32,-31.25 -17.3,0 -31.32,13.96 -31.32,31.25 0,17.29 14.02,31.35 31.32,31.35zm344.53 -31.35c0,17.29 -14.02,31.35 -31.32,31.35 -17.29,0 -31.32,-14.06 -31.32,-31.35 0,-17.29 14.03,-31.25 31.32,-31.25 17.3,0 31.32,13.96 31.32,31.25zm281.89 31.35c17.29,0 31.31,-14.06 31.31,-31.35 0,-17.29 -14.02,-31.25 -31.31,-31.25 -17.3,0 -31.32,13.96 -31.32,31.25 0,17.29 14.02,31.35 31.32,31.35zm313.21 0c-17.23,0 -31.32,-14.06 -31.32,-31.35 0,-17.19 14.09,-31.25 31.32,-31.25l0 62.61zm-2787.59 281.87c0,17.29 -14.02,31.35 -31.32,31.35 -17.29,0 -31.31,-14.06 -31.31,-31.35 0,-17.29 14.02,-31.35 31.31,-31.35 17.3,0 31.32,14.06 31.32,31.35zm281.9 31.35c17.29,0 31.32,-14.06 31.32,-31.35 0,-17.29 -14.03,-31.35 -31.32,-31.35 -17.3,0 -31.32,14.06 -31.32,31.35 0,17.29 14.02,31.35 31.32,31.35zm344.53 -31.35c0,17.29 -14.02,31.35 -31.32,31.35 -17.29,0 -31.32,-14.06 -31.32,-31.35 0,-17.29 14.03,-31.35 31.32,-31.35 17.3,0 31.32,14.06 31.32,31.35zm281.89 31.35c17.3,0 31.31,-14.06 31.31,-31.35 0,-17.29 -14.02,-31.35 -31.31,-31.35 -17.3,0 -31.32,14.06 -31.32,31.35 0,17.29 14.02,31.35 31.32,31.35zm344.53 -31.35c0,17.29 -14.02,31.35 -31.32,31.35 -17.3,0 -31.32,-14.06 -31.32,-31.35 0,-17.29 14.02,-31.35 31.32,-31.35 17.3,0 31.32,14.06 31.32,31.35zm281.89 31.35c17.3,0 31.32,-14.06 31.32,-31.35 0,-17.29 -14.02,-31.35 -31.32,-31.35 -17.29,0 -31.31,14.06 -31.31,31.35 0,17.29 14.02,31.35 31.31,31.35zm344.54 -31.35c0,17.29 -14.03,31.35 -31.32,31.35 -17.3,0 -31.32,-14.06 -31.32,-31.35 0,-17.29 14.02,-31.35 31.32,-31.35 17.29,0 31.32,14.06 31.32,31.35zm281.89 31.35c17.3,0 31.32,-14.06 31.32,-31.35 0,-17.29 -14.02,-31.35 -31.32,-31.35 -17.29,0 -31.32,14.06 -31.32,31.35 0,17.29 14.03,31.35 31.32,31.35zm344.53 -31.35c0,17.29 -14.02,31.35 -31.31,31.35 -17.3,0 -31.32,-14.06 -31.32,-31.35 0,-17.29 14.02,-31.35 31.32,-31.35 17.29,0 31.31,14.06 31.31,31.35zm250.57 0c0,17.29 14.09,31.35 31.32,31.35l0 -62.71c-17.23,0 -31.32,14.17 -31.32,31.35zm-2787.59 344.58c17.3,0 31.32,-14.06 31.32,-31.35 0,-17.29 -14.02,-31.35 -31.32,-31.35 -17.29,0 -31.31,14.06 -31.31,31.35 0,17.29 14.02,31.35 31.31,31.35zm344.54 -31.35c0,17.29 -14.03,31.35 -31.32,31.35 -17.3,0 -31.32,-14.06 -31.32,-31.35 0,-17.29 14.02,-31.35 31.32,-31.35 17.29,0 31.32,14.06 31.32,31.35zm281.89 31.35c17.3,0 31.32,-14.06 31.32,-31.35 0,-17.29 -14.02,-31.35 -31.32,-31.35 -17.29,0 -31.32,14.06 -31.32,31.35 0,17.29 14.03,31.35 31.32,31.35zm344.53 -31.35c0,17.29 -14.02,31.35 -31.31,31.35 -17.3,0 -31.32,-14.06 -31.32,-31.35 0,-17.29 14.02,-31.35 31.32,-31.35 17.3,0 31.31,14.06 31.31,31.35zm281.89 31.35c17.3,0 31.32,-14.06 31.32,-31.35 0,-17.29 -14.02,-31.35 -31.32,-31.35 -17.3,0 -31.32,14.06 -31.32,31.35 0,17.29 14.02,31.35 31.32,31.35zm344.53 -31.35c0,17.29 -14.02,31.35 -31.32,31.35 -17.29,0 -31.31,-14.06 -31.31,-31.35 0,-17.29 14.02,-31.35 31.31,-31.35 17.3,0 31.32,14.06 31.32,31.35zm281.9 31.35c17.29,0 31.32,-14.06 31.32,-31.35 0,-17.29 -14.03,-31.35 -31.32,-31.35 -17.3,0 -31.32,14.06 -31.32,31.35 0,17.29 14.02,31.35 31.32,31.35zm344.53 -31.35c0,17.29 -14.02,31.35 -31.32,31.35 -17.29,0 -31.32,-14.06 -31.32,-31.35 0,-17.29 14.03,-31.35 31.32,-31.35 17.3,0 31.32,14.06 31.32,31.35zm281.89 31.35c17.29,0 31.31,-14.06 31.31,-31.35 0,-17.29 -14.02,-31.35 -31.31,-31.35 -17.3,0 -31.32,14.06 -31.32,31.35 0,17.29 14.02,31.35 31.32,31.35zm313.21 0c-17.23,0 -31.32,-14.17 -31.32,-31.35 0,-17.19 14.09,-31.35 31.32,-31.35l0 62.71zm-2787.59 281.87c0,17.3 -14.02,31.25 -31.32,31.25 -17.29,0 -31.31,-13.96 -31.31,-31.25 0,-17.29 14.02,-31.35 31.31,-31.35 17.3,0 31.32,14.06 31.32,31.35zm281.9 31.25c17.29,0 31.32,-13.96 31.32,-31.25 0,-17.29 -14.03,-31.35 -31.32,-31.35 -17.3,0 -31.32,14.06 -31.32,31.35 0,17.3 14.02,31.25 31.32,31.25zm344.53 -31.25c0,17.3 -14.02,31.25 -31.32,31.25 -17.29,0 -31.32,-13.96 -31.32,-31.25 0,-17.29 14.03,-31.35 31.32,-31.35 17.3,0 31.32,14.06 31.32,31.35zm281.89 31.25c17.3,0 31.31,-13.96 31.31,-31.25 0,-17.29 -14.02,-31.35 -31.31,-31.35 -17.3,0 -31.32,14.06 -31.32,31.35 0,17.3 14.02,31.25 31.32,31.25zm344.53 -31.25c0,17.3 -14.02,31.25 -31.32,31.25 -17.3,0 -31.32,-13.96 -31.32,-31.25 0,-17.29 14.02,-31.35 31.32,-31.35 17.3,0 31.32,14.06 31.32,31.35zm281.89 31.25c17.3,0 31.32,-13.96 31.32,-31.25 0,-17.29 -14.02,-31.35 -31.32,-31.35 -17.29,0 -31.31,14.06 -31.31,31.35 0,17.3 14.02,31.25 31.31,31.25zm344.54 -31.25c0,17.3 -14.03,31.25 -31.32,31.25 -17.3,0 -31.32,-13.96 -31.32,-31.25 0,-17.29 14.02,-31.35 31.32,-31.35 17.29,0 31.32,14.06 31.32,31.35zm281.89 31.25c17.3,0 31.32,-13.96 31.32,-31.25 0,-17.29 -14.02,-31.35 -31.32,-31.35 -17.29,0 -31.32,14.06 -31.32,31.35 0,17.3 14.03,31.25 31.32,31.25zm344.53 -31.25c0,17.3 -14.02,31.25 -31.31,31.25 -17.3,0 -31.32,-13.96 -31.32,-31.25 0,-17.29 14.02,-31.35 31.32,-31.35 17.29,0 31.31,14.06 31.31,31.35zm250.57 0c0,17.19 14.09,31.25 31.32,31.25l0 -62.6c-17.23,0 -31.32,14.06 -31.32,31.35zm-2787.59 344.48c17.3,0 31.32,-13.96 31.32,-31.25 0,-17.29 -14.02,-31.35 -31.32,-31.35 -17.29,0 -31.31,14.06 -31.31,31.35 0,17.29 14.02,31.25 31.31,31.25zm344.54 -31.25c0,17.29 -14.03,31.25 -31.32,31.25 -17.3,0 -31.32,-13.96 -31.32,-31.25 0,-17.29 14.02,-31.35 31.32,-31.35 17.29,0 31.32,14.06 31.32,31.35zm281.89 31.25c17.3,0 31.32,-13.96 31.32,-31.25 0,-17.29 -14.02,-31.35 -31.32,-31.35 -17.29,0 -31.32,14.06 -31.32,31.35 0,17.29 14.03,31.25 31.32,31.25zm344.53 -31.25c0,17.29 -14.02,31.25 -31.31,31.25 -17.3,0 -31.32,-13.96 -31.32,-31.25 0,-17.29 14.02,-31.35 31.32,-31.35 17.3,0 31.31,14.06 31.31,31.35zm281.89 31.25c17.3,0 31.32,-13.96 31.32,-31.25 0,-17.29 -14.02,-31.35 -31.32,-31.35 -17.3,0 -31.32,14.06 -31.32,31.35 0,17.29 14.02,31.25 31.32,31.25zm344.53 -31.25c0,17.29 -14.02,31.25 -31.32,31.25 -17.29,0 -31.31,-13.96 -31.31,-31.25 0,-17.29 14.02,-31.35 31.31,-31.35 17.3,0 31.32,14.06 31.32,31.35zm281.9 31.25c17.29,0 31.32,-13.96 31.32,-31.25 0,-17.29 -14.03,-31.35 -31.32,-31.35 -17.3,0 -31.32,14.06 -31.32,31.35 0,17.29 14.02,31.25 31.32,31.25zm344.53 -31.25c0,17.29 -14.02,31.25 -31.32,31.25 -17.29,0 -31.32,-13.96 -31.32,-31.25 0,-17.29 14.03,-31.35 31.32,-31.35 17.3,0 31.32,14.06 31.32,31.35zm281.89 31.25c17.29,0 31.31,-13.96 31.31,-31.25 0,-17.29 -14.02,-31.35 -31.31,-31.35 -17.3,0 -31.32,14.06 -31.32,31.35 0,17.29 14.02,31.25 31.32,31.25zm313.21 0c-17.23,0 -31.32,-14.06 -31.32,-31.25 0,-17.29 14.09,-31.35 31.32,-31.35l0 62.6zm-2787.59 281.87c0,17.4 -14.02,31.35 -31.32,31.35 -17.29,0 -31.31,-13.96 -31.31,-31.35 0,-17.29 14.02,-31.25 31.31,-31.25 17.3,0 31.32,13.96 31.32,31.25zm281.9 31.35c17.29,0 31.32,-13.96 31.32,-31.35 0,-17.29 -14.03,-31.25 -31.32,-31.25 -17.3,0 -31.32,13.96 -31.32,31.25 0,17.4 14.02,31.35 31.32,31.35zm344.53 -31.35c0,17.4 -14.02,31.35 -31.32,31.35 -17.29,0 -31.32,-13.96 -31.32,-31.35 0,-17.29 14.03,-31.25 31.32,-31.25 17.3,0 31.32,13.96 31.32,31.25zm281.89 31.35c17.3,0 31.31,-13.96 31.31,-31.35 0,-17.29 -14.02,-31.25 -31.31,-31.25 -17.3,0 -31.32,13.96 -31.32,31.25 0,17.4 14.02,31.35 31.32,31.35zm344.53 -31.35c0,17.4 -14.02,31.35 -31.32,31.35 -17.3,0 -31.32,-13.96 -31.32,-31.35 0,-17.29 14.02,-31.25 31.32,-31.25 17.3,0 31.32,13.96 31.32,31.25zm281.89 31.35c17.3,0 31.32,-13.96 31.32,-31.35 0,-17.29 -14.02,-31.25 -31.32,-31.25 -17.29,0 -31.31,13.96 -31.31,31.25 0,17.4 14.02,31.35 31.31,31.35zm344.54 -31.35c0,17.4 -14.03,31.35 -31.32,31.35 -17.3,0 -31.32,-13.96 -31.32,-31.35 0,-17.29 14.02,-31.25 31.32,-31.25 17.29,0 31.32,13.96 31.32,31.25zm281.89 31.35c17.3,0 31.32,-13.96 31.32,-31.35 0,-17.29 -14.02,-31.25 -31.32,-31.25 -17.29,0 -31.32,13.96 -31.32,31.25 0,17.4 14.03,31.35 31.32,31.35zm344.53 -31.35c0,17.4 -14.02,31.35 -31.31,31.35 -17.3,0 -31.32,-13.96 -31.32,-31.35 0,-17.29 14.02,-31.25 31.32,-31.25 17.29,0 31.31,13.96 31.31,31.25zm250.57 0c0,17.3 14.09,31.35 31.32,31.35l0 -62.6c-17.23,0 -31.32,14.06 -31.32,31.25zm-2787.59 344.59c17.3,0 31.32,-14.06 31.32,-31.35 0,-17.29 -14.02,-31.25 -31.32,-31.25 -17.29,0 -31.31,13.96 -31.31,31.25 0,17.29 14.02,31.35 31.31,31.35zm344.54 -31.35c0,17.29 -14.03,31.35 -31.32,31.35 -17.3,0 -31.32,-14.06 -31.32,-31.35 0,-17.29 14.02,-31.25 31.32,-31.25 17.29,0 31.32,13.96 31.32,31.25zm281.89 31.35c17.3,0 31.32,-14.06 31.32,-31.35 0,-17.29 -14.02,-31.25 -31.32,-31.25 -17.29,0 -31.32,13.96 -31.32,31.25 0,17.29 14.03,31.35 31.32,31.35zm344.53 -31.35c0,17.29 -14.02,31.35 -31.31,31.35 -17.3,0 -31.32,-14.06 -31.32,-31.35 0,-17.29 14.02,-31.25 31.32,-31.25 17.3,0 31.31,13.96 31.31,31.25zm281.89 31.35c17.3,0 31.32,-14.06 31.32,-31.35 0,-17.29 -14.02,-31.25 -31.32,-31.25 -17.3,0 -31.32,13.96 -31.32,31.25 0,17.29 14.02,31.35 31.32,31.35zm344.53 -31.35c0,17.29 -14.02,31.35 -31.32,31.35 -17.29,0 -31.31,-14.06 -31.31,-31.35 0,-17.29 14.02,-31.25 31.31,-31.25 17.3,0 31.32,13.96 31.32,31.25zm281.9 31.35c17.29,0 31.32,-14.06 31.32,-31.35 0,-17.29 -14.03,-31.25 -31.32,-31.25 -17.3,0 -31.32,13.96 -31.32,31.25 0,17.29 14.02,31.35 31.32,31.35zm344.53 -31.35c0,17.29 -14.02,31.35 -31.32,31.35 -17.29,0 -31.32,-14.06 -31.32,-31.35 0,-17.29 14.03,-31.25 31.32,-31.25 17.3,0 31.32,13.96 31.32,31.25zm281.89 31.35c17.29,0 31.31,-14.06 31.31,-31.35 0,-17.29 -14.02,-31.25 -31.31,-31.25 -17.3,0 -31.32,13.96 -31.32,31.25 0,17.29 14.02,31.35 31.32,31.35zm313.21 0c-17.23,0 -31.32,-14.06 -31.32,-31.35 0,-17.19 14.09,-31.25 31.32,-31.25l0 62.61zm-2787.59 281.87c0,17.29 -14.02,31.35 -31.32,31.35 -17.29,0 -31.31,-14.06 -31.31,-31.35 0,-17.29 14.02,-31.35 31.31,-31.35 17.3,0 31.32,14.06 31.32,31.35zm281.9 31.35c17.29,0 31.32,-14.06 31.32,-31.35 0,-17.29 -14.03,-31.35 -31.32,-31.35 -17.3,0 -31.32,14.06 -31.32,31.35 0,17.29 14.02,31.35 31.32,31.35zm344.53 -31.35c0,17.29 -14.02,31.35 -31.32,31.35 -17.29,0 -31.32,-14.06 -31.32,-31.35 0,-17.29 14.03,-31.35 31.32,-31.35 17.3,0 31.32,14.06 31.32,31.35zm281.89 31.35c17.3,0 31.31,-14.06 31.31,-31.35 0,-17.29 -14.02,-31.35 -31.31,-31.35 -17.3,0 -31.32,14.06 -31.32,31.35 0,17.29 14.02,31.35 31.32,31.35zm344.53 -31.35c0,17.29 -14.02,31.35 -31.32,31.35 -17.3,0 -31.32,-14.06 -31.32,-31.35 0,-17.29 14.02,-31.35 31.32,-31.35 17.3,0 31.32,14.06 31.32,31.35zm281.89 31.35c17.3,0 31.32,-14.06 31.32,-31.35 0,-17.29 -14.02,-31.35 -31.32,-31.35 -17.29,0 -31.31,14.06 -31.31,31.35 0,17.29 14.02,31.35 31.31,31.35zm344.54 -31.35c0,17.29 -14.03,31.35 -31.32,31.35 -17.3,0 -31.32,-14.06 -31.32,-31.35 0,-17.29 14.02,-31.35 31.32,-31.35 17.29,0 31.32,14.06 31.32,31.35zm281.89 31.35c17.3,0 31.32,-14.06 31.32,-31.35 0,-17.29 -14.02,-31.35 -31.32,-31.35 -17.29,0 -31.32,14.06 -31.32,31.35 0,17.29 14.03,31.35 31.32,31.35zm344.53 -31.35c0,17.29 -14.02,31.35 -31.31,31.35 -17.3,0 -31.32,-14.06 -31.32,-31.35 0,-17.29 14.02,-31.35 31.32,-31.35 17.29,0 31.31,14.06 31.31,31.35zm250.57 0c0,17.29 14.09,31.35 31.32,31.35l0 -62.71c-17.23,0 -31.32,14.17 -31.32,31.35z"/>
 </g>
</svg>
