<?xml version="1.0" encoding="UTF-8"?>
<!DOCTYPE svg PUBLIC "-//W3C//DTD SVG 1.1//EN" "http://www.w3.org/Graphics/SVG/1.1/DTD/svg11.dtd">
<!-- Creator: CorelDRAW 2019 (64-Bit) -->
<svg xmlns="http://www.w3.org/2000/svg" xml:space="preserve" width="1.49729in" height="0.439583in" version="1.1" style="shape-rendering:geometricPrecision; text-rendering:geometricPrecision; image-rendering:optimizeQuality; fill-rule:evenodd; clip-rule:evenodd"
viewBox="0 0 1497.28 439.58"
 xmlns:xlink="http://www.w3.org/1999/xlink"
 xmlns:xodm="http://www.corel.com/coreldraw/odm/2003">
 <defs>
  <style type="text/css">
   <![CDATA[
    .fil1 {fill:none}
    .fil0 {fill:#9C9C9C;fill-opacity:0.850980}
   ]]>
  </style>
 </defs>
 <g id="Layer_x0020_1">
  <metadata id="CorelCorpID_0Corel-Layer"/>
  <g id="_2463847965520">
   <path id="Vector_12" class="fil0" d="M174.96 32.98c-15.52,0.42 -31.25,3.65 -46.15,8.96 -57.71,23.85 -97.81,76.15 -115.94,138.75 -3.13,11.77 -5.63,23.54 -6.87,35.73 0,0.31 -1.04,12.29 0.73,9.06 1.67,-2.81 2.5,-6.98 3.44,-10.21 8.75,-29.48 19.48,-56.25 35.94,-81.67 39.37,-57.5 102.61,-94.58 169.48,-74.06 12.39,4.17 23.44,10.31 34.58,17.5 2.08,1.46 17.61,13.65 14.17,2.61 -2.91,-8.65 -10.21,-16.15 -16.46,-21.98 -21.25,-18.23 -46.98,-25.42 -72.92,-24.69zm488.12 57.5c-9.06,0 -15.94,3.02 -20.73,9.37 -4.9,6.04 -7.19,15.11 -7.19,27.09l0 86.56c-11.15,-12.08 -22.6,-20.83 -34.27,-26.77 -8.02,-3.85 -16.56,-6.35 -25.42,-7.61 -5.83,-0.73 -11.67,-1.15 -17.5,-1.15 -29.27,0 -53.12,10.31 -71.15,30.83 -17.91,20.42 -26.87,48.96 -26.87,85.63 0,17.18 2.29,33.33 6.67,48.12 4.59,14.9 11.25,27.71 20.11,38.75 8.44,10.63 19.06,19.37 31.25,25.42 12.09,5.94 25.11,8.96 39.17,8.96 6.35,0 12.5,-0.63 18.33,-1.67 3.75,-0.63 7.5,-1.56 11.15,-2.71 8.96,-3.02 17.4,-7.4 25,-12.92 7.81,-5.63 15.52,-13.13 23.54,-21.98l0 5.63c0,10.83 2.61,19.06 7.81,24.9 5.11,5.73 12.09,8.75 20.11,8.75 7.81,0 14.69,-2.81 19.79,-8.33 5.21,-5.73 7.71,-14.06 7.71,-25.31l0 -258.13c0,-10.83 -2.29,-19.17 -7.08,-24.89 -5,-5.63 -11.88,-8.54 -20.42,-8.54zm721.04 0c-8.96,0 -15.83,3.02 -20.62,9.37 -4.79,6.04 -7.29,15.11 -7.29,27.09l0 86.56c-11.04,-12.08 -22.5,-20.83 -34.17,-26.77 -7.29,-3.54 -15.83,-6.25 -25.42,-7.61 -5.83,-0.73 -11.77,-1.15 -17.6,-1.15 -29.17,0 -52.92,10.31 -71.04,30.83 -18.02,20.42 -26.98,48.96 -26.98,85.63 0,17.18 2.29,33.33 6.87,48.12 4.58,14.9 11.04,27.71 19.9,38.75 8.44,10.63 19.17,19.37 31.35,25.42 11.98,5.94 25,8.96 39.17,8.96 6.46,0 12.6,-0.63 18.33,-1.67 3.85,-0.63 7.4,-1.56 11.04,-2.71 8.96,-3.02 17.4,-7.4 25,-12.92 7.92,-5.63 15.73,-13.13 23.54,-21.98l0 5.63c0,10.83 2.71,19.06 7.81,24.9 5.42,5.73 12.08,8.75 20.1,8.75 8.23,0 14.9,-2.81 20.11,-8.33 5.1,-5.73 7.81,-14.06 7.81,-25.31l0 -258.13c0,-10.83 -2.5,-19.17 -7.29,-24.89 -5,-5.63 -11.67,-8.54 -20.63,-8.54l0 0zm-1224.16 15.83c-8.13,-0.21 -16.15,1.56 -23.33,5.31 -23.85,11.88 -33.44,40.94 -21.15,64.69 11.98,23.75 41.25,33.23 65.11,21.04 23.85,-11.87 33.44,-40.94 21.25,-64.68 -3.96,-7.71 -9.89,-14.27 -17.29,-18.96 -7.39,-4.58 -15.94,-7.19 -24.58,-7.39zm665.62 70.94c-16.98,0.21 -32.4,3.02 -46.56,8.33 -14.58,5.73 -26.77,13.85 -36.67,24.37 -10,10.63 -17.61,23.33 -22.81,38.13 -5.1,14.79 -7.81,30.94 -7.81,48.23 0,36.77 10.73,65.63 31.77,87.08 19.79,20.31 47.18,30.94 82.08,32.08 2.19,0.21 4.06,0.21 6.15,0.21 16.67,0 31.15,-2.08 43.96,-6.46 12.81,-4.38 23.33,-9.69 31.67,-16.15 8.65,-6.67 14.79,-13.44 18.96,-20.52 4.27,-6.98 6.35,-13.23 6.35,-18.33 0,-5.94 -1.98,-10.63 -5.63,-13.96 -3.75,-3.12 -8.75,-4.89 -14.69,-4.89 -5.73,0 -9.9,1.35 -13.02,3.85 -5.83,5.52 -11.77,10.94 -17.91,16.25 -4.8,4.06 -9.8,7.81 -15.11,11.25 -5.52,3.44 -11.04,6.04 -16.98,7.6 -5.73,1.67 -12.19,2.4 -19.27,2.4 -1.56,0 -3.13,0 -4.48,-0.11 -8.75,-0.62 -16.98,-3.12 -24.37,-7.6 -8.65,-5.11 -15.73,-12.71 -20.83,-22.61 -5.42,-10.21 -8.02,-21.98 -8.23,-35.31l115.42 0c15.31,0 27.29,-2.29 35.94,-6.46 8.33,-4.59 12.6,-14.06 12.6,-28.65 0,-15.94 -4.06,-31.56 -12.29,-46.87 -8.23,-15.21 -20.63,-27.71 -37.08,-37.39 -16.35,-9.69 -36.25,-14.48 -59.17,-14.48l-1.98 0zm236.04 0c-16.98,0.21 -32.7,3.02 -46.67,8.33 -14.48,5.73 -26.77,13.85 -36.87,24.37 -9.69,10.63 -17.4,23.33 -22.5,38.13 -5.21,14.79 -7.81,30.94 -7.81,48.23 0,36.77 10.41,65.63 31.46,87.08 19.89,20.31 47.39,30.94 82.39,32.08 1.88,0.21 3.96,0.21 6.04,0.21 16.46,0 31.15,-2.08 43.96,-6.46 12.81,-4.38 23.33,-9.69 31.77,-16.15 8.44,-6.67 14.69,-13.44 18.85,-20.52 4.27,-6.98 6.35,-13.23 6.35,-18.33 0,-5.94 -1.98,-10.63 -5.73,-13.96 -3.65,-3.12 -8.65,-4.89 -14.69,-4.89 -5.62,0 -9.79,1.35 -12.81,3.85 -7.5,6.77 -13.44,12.29 -18.02,16.25 -4.79,4.06 -9.9,7.81 -15.21,11.25 -5.42,3.44 -11.15,6.04 -16.87,7.6 -5.94,1.67 -12.19,2.4 -19.27,2.4 -1.56,0 -3.02,0 -4.38,-0.11 -8.85,-0.62 -17.08,-3.12 -24.48,-7.6 -8.75,-5.11 -15.63,-12.71 -21.04,-22.61 -5.1,-10.21 -7.81,-21.98 -8.02,-35.31l115.21 0c15.52,0 27.5,-2.29 35.94,-6.46 8.65,-4.59 12.81,-14.06 12.81,-28.65 0,-15.94 -4.17,-31.56 -12.39,-46.87 -8.23,-15.21 -20.52,-27.71 -37.08,-37.39 -16.46,-9.69 -36.15,-14.48 -59.27,-14.48l-1.67 0zm-802.5 0.42c-8.65,0 -15.31,2.81 -20.1,8.33 -4.9,5.31 -7.4,13.65 -7.4,24.89l0 169.06c0,11.46 2.71,20.31 8.23,26.46 5.52,6.25 12.39,9.27 20.94,9.27 8.85,0 15.94,-3.02 21.46,-8.96 5.52,-6.04 8.44,-14.79 8.44,-26.77l0 -73.02c0,-24.17 1.25,-40.31 4.17,-48.96 3.96,-11.04 10.52,-19.58 19.06,-25.83 8.65,-6.04 18.23,-9.27 28.75,-9.27 16.04,0 26.87,5.1 32.29,15.31 5.31,10.31 8.02,25.11 8.02,44.48l0 97.29c0,11.46 2.61,20.31 8.13,26.46 5.63,6.25 12.71,9.27 21.46,9.27 8.54,0 15.62,-3.02 21.04,-9.17 5.31,-5.83 8.13,-14.79 8.13,-26.56l0 -108.75c0,-12.91 -0.52,-23.54 -1.67,-31.67 -1.15,-8.33 -3.65,-16.15 -7.61,-23.33 -6.15,-12.39 -15.1,-21.87 -27.39,-28.54 -12.19,-6.56 -26.15,-10 -41.67,-10 -16.04,0 -30.1,3.23 -42.6,9.48 -12.19,6.46 -23.44,16.35 -33.96,30l0 -7.19c0,-6.87 -1.15,-12.71 -3.65,-17.71 -2.5,-4.9 -5.94,-8.54 -10.1,-11.04 -4.27,-2.39 -8.85,-3.54 -13.96,-3.54zm566.35 40.42l0.11 0c15.31,0 27.71,4.89 37.08,14.79 9.58,9.89 14.9,24.89 16.46,45l-106.98 0c2.08,-19.69 7.81,-34.69 17.18,-44.79 9.38,-10.11 21.35,-15 36.15,-15l0 0zm235.94 0l0.2 0c15.31,0 27.71,4.89 36.98,14.79 9.37,9.89 15,24.89 16.25,45l-106.77 0c1.87,-19.69 7.71,-34.69 17.19,-44.79 9.37,-10.11 21.46,-15 36.15,-15zm-486.67 3.44l0.73 0c10.21,0 19.59,3.02 27.92,8.85 8.85,5.94 15.73,14.48 20.83,25.62 5,11.25 7.71,24.69 7.71,40.31 0,16.67 -2.71,30.52 -7.71,41.56 -5.11,11.04 -11.98,19.17 -20.63,24.48 -8.44,5.31 -17.92,8.02 -28.13,8.02l-0.1 0c-10.31,0 -19.69,-2.92 -28.33,-8.44 -8.75,-5.63 -15.42,-14.06 -20.42,-25 -5,-11.25 -7.5,-24.69 -7.5,-40.63 0,-15 2.3,-28.33 6.88,-39.48 4.79,-11.46 11.35,-20.1 19.89,-26.25 8.44,-6.25 18.13,-9.06 28.85,-9.06zm721.25 0l0.62 0c10.11,0 19.48,3.02 28.02,8.85 8.65,5.94 15.52,14.48 20.73,25.62 5.1,11.25 7.6,24.69 7.6,40.31 0,16.67 -2.5,30.52 -7.6,41.56 -5.21,11.04 -12.08,19.17 -20.52,24.48 -8.44,5.31 -18.23,8.02 -28.23,8.02l-0.2 0c-10.31,0 -19.69,-2.92 -28.23,-8.44 -8.65,-5.63 -15.52,-14.06 -20.52,-25 -4.89,-11.25 -7.39,-24.69 -7.39,-40.63 0,-15 2.29,-28.33 7.08,-39.48 4.58,-11.46 11.25,-20.1 19.68,-26.25 8.54,-6.25 18.13,-9.06 28.96,-9.06zm-1103.33 1.87c-15.31,9.06 -33.33,14.27 -52.39,14.27 -3.96,0 -7.81,-0.21 -11.88,-0.63l0 139.69c0,12.92 3.13,22.6 9.06,29.06 6.04,6.67 13.54,9.89 22.92,9.89 9.48,0 17.4,-3.23 23.23,-9.69 5.94,-6.46 9.06,-16.15 9.06,-29.27l0 -153.33 0 0z"/>
   <rect class="fil1" x="-0" width="1497.28" height="439.58"/>
  </g>
 </g>
</svg>
