<?xml version="1.0" encoding="UTF-8"?>
<!DOCTYPE svg PUBLIC "-//W3C//DTD SVG 1.1//EN" "http://www.w3.org/Graphics/SVG/1.1/DTD/svg11.dtd">
<!-- Creator: CorelDRAW 2019 (64-Bit) -->
<svg xmlns="http://www.w3.org/2000/svg" xml:space="preserve" width="0.893083in" height="2.34957in" version="1.1" style="shape-rendering:geometricPrecision; text-rendering:geometricPrecision; image-rendering:optimizeQuality; fill-rule:evenodd; clip-rule:evenodd"
viewBox="0 0 893.08 2349.56"
 xmlns:xlink="http://www.w3.org/1999/xlink"
 xmlns:xodm="http://www.corel.com/coreldraw/odm/2003">
 <defs>
  <style type="text/css">
   <![CDATA[
    .fil1 {fill:none}
    .fil0 {fill:#55BC7E}
   ]]>
  </style>
   <clipPath id="id0">
    <path d="M-0 0c514.97,142.51 893.08,614.46 893.08,1174.78 0,560.32 -378.11,1032.27 -893.08,1174.78l0 -2349.56z"/>
   </clipPath>
 </defs>
 <g id="Layer_x0020_1">
  <metadata id="CorelCorpID_0Corel-Layer"/>
  <g>
  </g>
  <g style="clip-path:url(#id0)">
   <g>
    <path id="Union_2" class="fil0" d="M-1524.44 -40.31l-20.25 0 0 20.25c11.13,0 20.25,-9.11 20.25,-20.25zm182.26 20.25c11.15,0 20.26,-9.11 20.26,-20.25l-40.51 0c0,11.14 9.11,20.25 20.25,20.25zm222.77 -20.25c0,11.14 -9.11,20.25 -20.25,20.25 -11.14,0 -20.25,-9.11 -20.25,-20.25l40.5 0zm182.26 20.25c11.14,0 20.25,-9.11 20.25,-20.25l-40.5 0c0,11.14 9.11,20.25 20.25,20.25zm222.77 -20.25c0,11.14 -9.11,20.25 -20.25,20.25 -11.14,0 -20.25,-9.11 -20.25,-20.25l40.5 0zm182.26 20.25c11.14,0 20.25,-9.11 20.25,-20.25l-40.5 0c0,11.14 9.11,20.25 20.25,20.25zm222.77 -20.25c0,11.14 -9.11,20.25 -20.25,20.25 -11.14,0 -20.25,-9.11 -20.25,-20.25l40.5 0zm182.26 20.25c11.14,0 20.25,-9.11 20.25,-20.25l-40.5 0c0,11.14 9.11,20.25 20.25,20.25zm222.77 -20.25c0,11.14 -9.11,20.25 -20.25,20.25 -11.14,0 -20.25,-9.11 -20.25,-20.25l40.5 0zm182.26 20.25c11.14,0 20.25,-9.11 20.25,-20.25l-40.5 0c0,11.14 9.11,20.25 20.25,20.25zm222.77 -20.25c0,11.14 -9.11,20.25 -20.25,20.25 -11.14,0 -20.25,-9.11 -20.25,-20.25l40.5 0zm182.26 20.25c11.14,0 20.25,-9.11 20.25,-20.25l-40.5 0c0,11.14 9.11,20.25 20.25,20.25zm202.51 -20.25l0 20.25c-11.14,0 -20.25,-9.11 -20.25,-20.25l20.25 0zm-2409.93 202.51c0,-11.14 -9.11,-20.25 -20.25,-20.25l0 40.5c11.13,0 20.25,-9.1 20.25,-20.25zm202.52 0c0,11.18 -9.07,20.25 -20.26,20.25 -11.18,0 -20.25,-9.06 -20.25,-20.25 0,-11.18 9.07,-20.25 20.25,-20.25 11.19,0 20.26,9.07 20.26,20.25zm182.26 20.25c11.18,0 20.25,-9.06 20.25,-20.25 0,-11.18 -9.06,-20.25 -20.25,-20.25 -11.19,0 -20.25,9.07 -20.25,20.25 0,11.18 9.06,20.25 20.25,20.25zm222.76 -20.25c0,11.18 -9.07,20.25 -20.25,20.25 -11.18,0 -20.25,-9.06 -20.25,-20.25 0,-11.18 9.07,-20.25 20.25,-20.25 11.18,0 20.25,9.07 20.25,20.25zm182.26 20.25c11.18,0 20.25,-9.06 20.25,-20.25 0,-11.18 -9.07,-20.25 -20.25,-20.25 -11.18,0 -20.25,9.07 -20.25,20.25 0,11.18 9.07,20.25 20.25,20.25zm222.77 -20.25c0,11.18 -9.07,20.25 -20.25,20.25 -11.18,0 -20.25,-9.06 -20.25,-20.25 0,-11.18 9.07,-20.25 20.25,-20.25 11.18,0 20.25,9.07 20.25,20.25zm182.26 20.25c11.18,0 20.25,-9.06 20.25,-20.25 0,-11.18 -9.07,-20.25 -20.25,-20.25 -11.18,0 -20.25,9.07 -20.25,20.25 0,11.18 9.07,20.25 20.25,20.25zm222.77 -20.25c0,11.18 -9.07,20.25 -20.25,20.25 -11.18,0 -20.25,-9.06 -20.25,-20.25 0,-11.18 9.07,-20.25 20.25,-20.25 11.18,0 20.25,9.07 20.25,20.25zm182.26 20.25c11.18,0 20.25,-9.06 20.25,-20.25 0,-11.18 -9.07,-20.25 -20.25,-20.25 -11.18,0 -20.25,9.07 -20.25,20.25 0,11.18 9.07,20.25 20.25,20.25zm222.77 -20.25c0,11.18 -9.07,20.25 -20.25,20.25 -11.18,0 -20.25,-9.06 -20.25,-20.25 0,-11.18 9.07,-20.25 20.25,-20.25 11.18,0 20.25,9.07 20.25,20.25zm182.26 20.25c11.18,0 20.25,-9.06 20.25,-20.25 0,-11.18 -9.07,-20.25 -20.25,-20.25 -11.18,0 -20.25,9.07 -20.25,20.25 0,11.18 9.07,20.25 20.25,20.25zm222.77 -20.25c0,11.18 -9.07,20.25 -20.25,20.25 -11.18,0 -20.25,-9.06 -20.25,-20.25 0,-11.18 9.07,-20.25 20.25,-20.25 11.18,0 20.25,9.07 20.25,20.25zm162.01 0c0,11.15 9.11,20.25 20.25,20.25l0 -40.5c-11.14,0 -20.25,9.11 -20.25,20.25zm-2409.92 182.27c11.13,0 20.25,9.1 20.25,20.25 0,11.13 -9.11,20.25 -20.25,20.25l0 -40.5zm202.51 40.5c11.19,0 20.26,-9.07 20.26,-20.25 0,-11.19 -9.07,-20.25 -20.26,-20.25 -11.18,0 -20.25,9.06 -20.25,20.25 0,11.18 9.07,20.25 20.25,20.25zm222.77 -20.25c0,11.18 -9.06,20.25 -20.25,20.25 -11.19,0 -20.25,-9.07 -20.25,-20.25 0,-11.19 9.06,-20.25 20.25,-20.25 11.18,0 20.25,9.06 20.25,20.25zm182.26 20.25c11.18,0 20.25,-9.07 20.25,-20.25 0,-11.19 -9.07,-20.25 -20.25,-20.25 -11.18,0 -20.25,9.06 -20.25,20.25 0,11.18 9.07,20.25 20.25,20.25zm222.77 -20.25c0,11.18 -9.07,20.25 -20.25,20.25 -11.18,0 -20.25,-9.07 -20.25,-20.25 0,-11.19 9.07,-20.25 20.25,-20.25 11.18,0 20.25,9.06 20.25,20.25zm182.26 20.25c11.18,0 20.25,-9.07 20.25,-20.25 0,-11.19 -9.07,-20.25 -20.25,-20.25 -11.18,0 -20.25,9.06 -20.25,20.25 0,11.18 9.07,20.25 20.25,20.25zm222.77 -20.25c0,11.18 -9.07,20.25 -20.25,20.25 -11.18,0 -20.25,-9.07 -20.25,-20.25 0,-11.19 9.07,-20.25 20.25,-20.25 11.18,0 20.25,9.06 20.25,20.25zm182.26 20.25c11.18,0 20.25,-9.07 20.25,-20.25 0,-11.19 -9.07,-20.25 -20.25,-20.25 -11.18,0 -20.25,9.06 -20.25,20.25 0,11.18 9.07,20.25 20.25,20.25zm222.77 -20.25c0,11.18 -9.07,20.25 -20.25,20.25 -11.18,0 -20.25,-9.07 -20.25,-20.25 0,-11.19 9.07,-20.25 20.25,-20.25 11.18,0 20.25,9.06 20.25,20.25zm182.26 20.25c11.18,0 20.25,-9.07 20.25,-20.25 0,-11.19 -9.07,-20.25 -20.25,-20.25 -11.18,0 -20.25,9.06 -20.25,20.25 0,11.18 9.07,20.25 20.25,20.25zm222.77 -20.25c0,11.18 -9.07,20.25 -20.25,20.25 -11.18,0 -20.25,-9.07 -20.25,-20.25 0,-11.19 9.07,-20.25 20.25,-20.25 11.18,0 20.25,9.06 20.25,20.25zm182.26 20.25c11.18,0 20.25,-9.07 20.25,-20.25 0,-11.19 -9.07,-20.25 -20.25,-20.25 -11.18,0 -20.25,9.06 -20.25,20.25 0,11.18 9.07,20.25 20.25,20.25zm202.51 0c-11.14,0 -20.25,-9.12 -20.25,-20.25 0,-11.15 9.11,-20.25 20.25,-20.25l0 40.5zm-2409.93 182.26c0,-11.14 -9.11,-20.25 -20.25,-20.25l0 40.5c11.13,0 20.25,-9.11 20.25,-20.25zm202.52 0c0,11.18 -9.07,20.25 -20.26,20.25 -11.18,0 -20.25,-9.06 -20.25,-20.25 0,-11.19 9.07,-20.25 20.25,-20.25 11.19,0 20.26,9.06 20.26,20.25zm182.26 20.25c11.18,0 20.25,-9.06 20.25,-20.25 0,-11.19 -9.06,-20.25 -20.25,-20.25 -11.19,0 -20.25,9.06 -20.25,20.25 0,11.18 9.06,20.25 20.25,20.25zm222.76 -20.25c0,11.18 -9.07,20.25 -20.25,20.25 -11.18,0 -20.25,-9.06 -20.25,-20.25 0,-11.19 9.07,-20.25 20.25,-20.25 11.18,0 20.25,9.06 20.25,20.25zm182.26 20.25c11.18,0 20.25,-9.06 20.25,-20.25 0,-11.19 -9.07,-20.25 -20.25,-20.25 -11.18,0 -20.25,9.06 -20.25,20.25 0,11.18 9.07,20.25 20.25,20.25zm222.77 -20.25c0,11.18 -9.07,20.25 -20.25,20.25 -11.18,0 -20.25,-9.06 -20.25,-20.25 0,-11.19 9.07,-20.25 20.25,-20.25 11.18,0 20.25,9.06 20.25,20.25zm182.26 20.25c11.18,0 20.25,-9.06 20.25,-20.25 0,-11.19 -9.07,-20.25 -20.25,-20.25 -11.18,0 -20.25,9.06 -20.25,20.25 0,11.18 9.07,20.25 20.25,20.25zm222.77 -20.25c0,11.18 -9.07,20.25 -20.25,20.25 -11.18,0 -20.25,-9.06 -20.25,-20.25 0,-11.19 9.07,-20.25 20.25,-20.25 11.18,0 20.25,9.06 20.25,20.25zm182.26 20.25c11.18,0 20.25,-9.06 20.25,-20.25 0,-11.19 -9.07,-20.25 -20.25,-20.25 -11.18,0 -20.25,9.06 -20.25,20.25 0,11.18 9.07,20.25 20.25,20.25zm222.77 -20.25c0,11.18 -9.07,20.25 -20.25,20.25 -11.18,0 -20.25,-9.06 -20.25,-20.25 0,-11.19 9.07,-20.25 20.25,-20.25 11.18,0 20.25,9.06 20.25,20.25zm182.26 20.25c11.18,0 20.25,-9.06 20.25,-20.25 0,-11.19 -9.07,-20.25 -20.25,-20.25 -11.18,0 -20.25,9.06 -20.25,20.25 0,11.18 9.07,20.25 20.25,20.25zm222.77 -20.25c0,11.18 -9.07,20.25 -20.25,20.25 -11.18,0 -20.25,-9.06 -20.25,-20.25 0,-11.19 9.07,-20.25 20.25,-20.25 11.18,0 20.25,9.06 20.25,20.25zm162.01 0c0,11.13 9.11,20.25 20.25,20.25l0 -40.5c-11.14,0 -20.25,9.11 -20.25,20.25zm-2409.92 182.27c11.13,0 20.25,9.11 20.25,20.25 0,11.13 -9.11,20.25 -20.25,20.25l0 -40.5zm202.51 40.5c11.19,0 20.26,-9.07 20.26,-20.25 0,-11.19 -9.07,-20.25 -20.26,-20.25 -11.18,0 -20.25,9.06 -20.25,20.25 0,11.18 9.07,20.25 20.25,20.25zm222.77 -20.25c0,11.18 -9.06,20.25 -20.25,20.25 -11.19,0 -20.25,-9.07 -20.25,-20.25 0,-11.19 9.06,-20.25 20.25,-20.25 11.18,0 20.25,9.06 20.25,20.25zm182.26 20.25c11.18,0 20.25,-9.07 20.25,-20.25 0,-11.19 -9.07,-20.25 -20.25,-20.25 -11.18,0 -20.25,9.06 -20.25,20.25 0,11.18 9.07,20.25 20.25,20.25zm222.77 -20.25c0,11.18 -9.07,20.25 -20.25,20.25 -11.18,0 -20.25,-9.07 -20.25,-20.25 0,-11.19 9.07,-20.25 20.25,-20.25 11.18,0 20.25,9.06 20.25,20.25zm182.26 20.25c11.18,0 20.25,-9.07 20.25,-20.25 0,-11.19 -9.07,-20.25 -20.25,-20.25 -11.18,0 -20.25,9.06 -20.25,20.25 0,11.18 9.07,20.25 20.25,20.25zm222.77 -20.25c0,11.18 -9.07,20.25 -20.25,20.25 -11.18,0 -20.25,-9.07 -20.25,-20.25 0,-11.19 9.07,-20.25 20.25,-20.25 11.18,0 20.25,9.06 20.25,20.25zm182.26 20.25c11.18,0 20.25,-9.07 20.25,-20.25 0,-11.19 -9.07,-20.25 -20.25,-20.25 -11.18,0 -20.25,9.06 -20.25,20.25 0,11.18 9.07,20.25 20.25,20.25zm222.77 -20.25c0,11.18 -9.07,20.25 -20.25,20.25 -11.18,0 -20.25,-9.07 -20.25,-20.25 0,-11.19 9.07,-20.25 20.25,-20.25 11.18,0 20.25,9.06 20.25,20.25zm182.26 20.25c11.18,0 20.25,-9.07 20.25,-20.25 0,-11.19 -9.07,-20.25 -20.25,-20.25 -11.18,0 -20.25,9.06 -20.25,20.25 0,11.18 9.07,20.25 20.25,20.25zm222.77 -20.25c0,11.18 -9.07,20.25 -20.25,20.25 -11.18,0 -20.25,-9.07 -20.25,-20.25 0,-11.19 9.07,-20.25 20.25,-20.25 11.18,0 20.25,9.06 20.25,20.25zm182.26 20.25c11.18,0 20.25,-9.07 20.25,-20.25 0,-11.19 -9.07,-20.25 -20.25,-20.25 -11.18,0 -20.25,9.06 -20.25,20.25 0,11.18 9.07,20.25 20.25,20.25zm202.51 0c-11.14,0 -20.25,-9.11 -20.25,-20.25 0,-11.15 9.11,-20.25 20.25,-20.25l0 40.5zm-2409.93 182.26c0,-11.14 -9.11,-20.25 -20.25,-20.25l0 40.5c11.13,0 20.25,-9.11 20.25,-20.25zm202.52 0c0,11.18 -9.07,20.25 -20.26,20.25 -11.18,0 -20.25,-9.06 -20.25,-20.25 0,-11.19 9.07,-20.25 20.25,-20.25 11.19,0 20.26,9.06 20.26,20.25zm182.26 20.25c11.18,0 20.25,-9.06 20.25,-20.25 0,-11.19 -9.06,-20.25 -20.25,-20.25 -11.19,0 -20.25,9.06 -20.25,20.25 0,11.18 9.06,20.25 20.25,20.25zm222.76 -20.25c0,11.18 -9.07,20.25 -20.25,20.25 -11.18,0 -20.25,-9.06 -20.25,-20.25 0,-11.19 9.07,-20.25 20.25,-20.25 11.18,0 20.25,9.06 20.25,20.25zm182.26 20.25c11.18,0 20.25,-9.06 20.25,-20.25 0,-11.19 -9.07,-20.25 -20.25,-20.25 -11.18,0 -20.25,9.06 -20.25,20.25 0,11.18 9.07,20.25 20.25,20.25zm222.77 -20.25c0,11.18 -9.07,20.25 -20.25,20.25 -11.18,0 -20.25,-9.06 -20.25,-20.25 0,-11.19 9.07,-20.25 20.25,-20.25 11.18,0 20.25,9.06 20.25,20.25zm182.26 20.25c11.18,0 20.25,-9.06 20.25,-20.25 0,-11.19 -9.07,-20.25 -20.25,-20.25 -11.18,0 -20.25,9.06 -20.25,20.25 0,11.18 9.07,20.25 20.25,20.25zm222.77 -20.25c0,11.18 -9.07,20.25 -20.25,20.25 -11.18,0 -20.25,-9.06 -20.25,-20.25 0,-11.19 9.07,-20.25 20.25,-20.25 11.18,0 20.25,9.06 20.25,20.25zm182.26 20.25c11.18,0 20.25,-9.06 20.25,-20.25 0,-11.19 -9.07,-20.25 -20.25,-20.25 -11.18,0 -20.25,9.06 -20.25,20.25 0,11.18 9.07,20.25 20.25,20.25zm222.77 -20.25c0,11.18 -9.07,20.25 -20.25,20.25 -11.18,0 -20.25,-9.06 -20.25,-20.25 0,-11.19 9.07,-20.25 20.25,-20.25 11.18,0 20.25,9.06 20.25,20.25zm182.26 20.25c11.18,0 20.25,-9.06 20.25,-20.25 0,-11.19 -9.07,-20.25 -20.25,-20.25 -11.18,0 -20.25,9.06 -20.25,20.25 0,11.18 9.07,20.25 20.25,20.25zm222.77 -20.25c0,11.18 -9.07,20.25 -20.25,20.25 -11.18,0 -20.25,-9.06 -20.25,-20.25 0,-11.19 9.07,-20.25 20.25,-20.25 11.18,0 20.25,9.06 20.25,20.25zm162.01 0c0,11.13 9.11,20.25 20.25,20.25l0 -40.5c-11.14,0 -20.25,9.11 -20.25,20.25zm-2409.92 182.26c11.13,0 20.25,9.11 20.25,20.26 0,11.13 -9.11,20.25 -20.25,20.25l0 -40.51zm202.51 40.51c11.19,0 20.26,-9.07 20.26,-20.25 0,-11.19 -9.07,-20.26 -20.26,-20.26 -11.18,0 -20.25,9.07 -20.25,20.26 0,11.18 9.07,20.25 20.25,20.25zm222.77 -20.25c0,11.18 -9.06,20.25 -20.25,20.25 -11.19,0 -20.25,-9.07 -20.25,-20.25 0,-11.19 9.06,-20.26 20.25,-20.26 11.18,0 20.25,9.07 20.25,20.26zm182.26 20.25c11.18,0 20.25,-9.07 20.25,-20.25 0,-11.19 -9.07,-20.26 -20.25,-20.26 -11.18,0 -20.25,9.07 -20.25,20.26 0,11.18 9.07,20.25 20.25,20.25zm222.77 -20.25c0,11.18 -9.07,20.25 -20.25,20.25 -11.18,0 -20.25,-9.07 -20.25,-20.25 0,-11.19 9.07,-20.26 20.25,-20.26 11.18,0 20.25,9.07 20.25,20.26zm182.26 20.25c11.18,0 20.25,-9.07 20.25,-20.25 0,-11.19 -9.07,-20.26 -20.25,-20.26 -11.18,0 -20.25,9.07 -20.25,20.26 0,11.18 9.07,20.25 20.25,20.25zm222.77 -20.25c0,11.18 -9.07,20.25 -20.25,20.25 -11.18,0 -20.25,-9.07 -20.25,-20.25 0,-11.19 9.07,-20.26 20.25,-20.26 11.18,0 20.25,9.07 20.25,20.26zm182.26 20.25c11.18,0 20.25,-9.07 20.25,-20.25 0,-11.19 -9.07,-20.26 -20.25,-20.26 -11.18,0 -20.25,9.07 -20.25,20.26 0,11.18 9.07,20.25 20.25,20.25zm222.77 -20.25c0,11.18 -9.07,20.25 -20.25,20.25 -11.18,0 -20.25,-9.07 -20.25,-20.25 0,-11.19 9.07,-20.26 20.25,-20.26 11.18,0 20.25,9.07 20.25,20.26zm182.26 20.25c11.18,0 20.25,-9.07 20.25,-20.25 0,-11.19 -9.07,-20.26 -20.25,-20.26 -11.18,0 -20.25,9.07 -20.25,20.26 0,11.18 9.07,20.25 20.25,20.25zm222.77 -20.25c0,11.18 -9.07,20.25 -20.25,20.25 -11.18,0 -20.25,-9.07 -20.25,-20.25 0,-11.19 9.07,-20.26 20.25,-20.26 11.18,0 20.25,9.07 20.25,20.26zm182.26 20.25c11.18,0 20.25,-9.07 20.25,-20.25 0,-11.19 -9.07,-20.26 -20.25,-20.26 -11.18,0 -20.25,9.07 -20.25,20.26 0,11.18 9.07,20.25 20.25,20.25zm202.51 0c-11.14,0 -20.25,-9.11 -20.25,-20.25 0,-11.15 9.11,-20.26 20.25,-20.26l0 40.51zm-2409.93 182.26c0,-11.14 -9.11,-20.25 -20.25,-20.25l0 40.5c11.13,0 20.25,-9.11 20.25,-20.25zm202.52 0c0,11.18 -9.07,20.25 -20.26,20.25 -11.18,0 -20.25,-9.06 -20.25,-20.25 0,-11.19 9.07,-20.25 20.25,-20.25 11.19,0 20.26,9.06 20.26,20.25zm182.26 20.25c11.18,0 20.25,-9.06 20.25,-20.25 0,-11.19 -9.06,-20.25 -20.25,-20.25 -11.19,0 -20.25,9.06 -20.25,20.25 0,11.18 9.06,20.25 20.25,20.25zm222.76 -20.25c0,11.18 -9.07,20.25 -20.25,20.25 -11.18,0 -20.25,-9.06 -20.25,-20.25 0,-11.19 9.07,-20.25 20.25,-20.25 11.18,0 20.25,9.06 20.25,20.25zm182.26 20.25c11.18,0 20.25,-9.06 20.25,-20.25 0,-11.19 -9.07,-20.25 -20.25,-20.25 -11.18,0 -20.25,9.06 -20.25,20.25 0,11.18 9.07,20.25 20.25,20.25zm222.77 -20.25c0,11.18 -9.07,20.25 -20.25,20.25 -11.18,0 -20.25,-9.06 -20.25,-20.25 0,-11.19 9.07,-20.25 20.25,-20.25 11.18,0 20.25,9.06 20.25,20.25zm182.26 20.25c11.18,0 20.25,-9.06 20.25,-20.25 0,-11.19 -9.07,-20.25 -20.25,-20.25 -11.18,0 -20.25,9.06 -20.25,20.25 0,11.18 9.07,20.25 20.25,20.25zm222.77 -20.25c0,11.18 -9.07,20.25 -20.25,20.25 -11.18,0 -20.25,-9.06 -20.25,-20.25 0,-11.19 9.07,-20.25 20.25,-20.25 11.18,0 20.25,9.06 20.25,20.25zm182.26 20.25c11.18,0 20.25,-9.06 20.25,-20.25 0,-11.19 -9.07,-20.25 -20.25,-20.25 -11.18,0 -20.25,9.06 -20.25,20.25 0,11.18 9.07,20.25 20.25,20.25zm222.77 -20.25c0,11.18 -9.07,20.25 -20.25,20.25 -11.18,0 -20.25,-9.06 -20.25,-20.25 0,-11.19 9.07,-20.25 20.25,-20.25 11.18,0 20.25,9.06 20.25,20.25zm182.26 20.25c11.18,0 20.25,-9.06 20.25,-20.25 0,-11.19 -9.07,-20.25 -20.25,-20.25 -11.18,0 -20.25,9.06 -20.25,20.25 0,11.18 9.07,20.25 20.25,20.25zm222.77 -20.25c0,11.18 -9.07,20.25 -20.25,20.25 -11.18,0 -20.25,-9.06 -20.25,-20.25 0,-11.19 9.07,-20.25 20.25,-20.25 11.18,0 20.25,9.06 20.25,20.25zm162.01 0c0,11.13 9.11,20.25 20.25,20.25l0 -40.5c-11.14,0 -20.25,9.11 -20.25,20.25zm-2409.92 182.26c11.13,0 20.25,9.11 20.25,20.26 0,11.13 -9.11,20.25 -20.25,20.25l0 -40.51zm202.51 40.51c11.19,0 20.26,-9.07 20.26,-20.25 0,-11.19 -9.07,-20.26 -20.26,-20.26 -11.18,0 -20.25,9.07 -20.25,20.26 0,11.18 9.07,20.25 20.25,20.25zm222.77 -20.25c0,11.18 -9.06,20.25 -20.25,20.25 -11.19,0 -20.25,-9.07 -20.25,-20.25 0,-11.19 9.06,-20.26 20.25,-20.26 11.18,0 20.25,9.07 20.25,20.26zm182.26 20.25c11.18,0 20.25,-9.07 20.25,-20.25 0,-11.19 -9.07,-20.26 -20.25,-20.26 -11.18,0 -20.25,9.07 -20.25,20.26 0,11.18 9.07,20.25 20.25,20.25zm222.77 -20.25c0,11.18 -9.07,20.25 -20.25,20.25 -11.18,0 -20.25,-9.07 -20.25,-20.25 0,-11.19 9.07,-20.26 20.25,-20.26 11.18,0 20.25,9.07 20.25,20.26zm182.26 20.25c11.18,0 20.25,-9.07 20.25,-20.25 0,-11.19 -9.07,-20.26 -20.25,-20.26 -11.18,0 -20.25,9.07 -20.25,20.26 0,11.18 9.07,20.25 20.25,20.25zm222.77 -20.25c0,11.18 -9.07,20.25 -20.25,20.25 -11.18,0 -20.25,-9.07 -20.25,-20.25 0,-11.19 9.07,-20.26 20.25,-20.26 11.18,0 20.25,9.07 20.25,20.26zm182.26 20.25c11.18,0 20.25,-9.07 20.25,-20.25 0,-11.19 -9.07,-20.26 -20.25,-20.26 -11.18,0 -20.25,9.07 -20.25,20.26 0,11.18 9.07,20.25 20.25,20.25zm222.77 -20.25c0,11.18 -9.07,20.25 -20.25,20.25 -11.18,0 -20.25,-9.07 -20.25,-20.25 0,-11.19 9.07,-20.26 20.25,-20.26 11.18,0 20.25,9.07 20.25,20.26zm182.26 20.25c11.18,0 20.25,-9.07 20.25,-20.25 0,-11.19 -9.07,-20.26 -20.25,-20.26 -11.18,0 -20.25,9.07 -20.25,20.26 0,11.18 9.07,20.25 20.25,20.25zm222.77 -20.25c0,11.18 -9.07,20.25 -20.25,20.25 -11.18,0 -20.25,-9.07 -20.25,-20.25 0,-11.19 9.07,-20.26 20.25,-20.26 11.18,0 20.25,9.07 20.25,20.26zm182.26 20.25c11.18,0 20.25,-9.07 20.25,-20.25 0,-11.19 -9.07,-20.26 -20.25,-20.26 -11.18,0 -20.25,9.07 -20.25,20.26 0,11.18 9.07,20.25 20.25,20.25zm202.51 0c-11.14,0 -20.25,-9.11 -20.25,-20.25 0,-11.15 9.11,-20.26 20.25,-20.26l0 40.51zm-2409.93 182.26c0,-11.14 -9.11,-20.25 -20.25,-20.25l0 40.5c11.13,0 20.25,-9.11 20.25,-20.25zm202.52 0c0,11.18 -9.07,20.25 -20.26,20.25 -11.18,0 -20.25,-9.06 -20.25,-20.25 0,-11.19 9.07,-20.25 20.25,-20.25 11.19,0 20.26,9.06 20.26,20.25zm182.26 20.25c11.18,0 20.25,-9.06 20.25,-20.25 0,-11.19 -9.06,-20.25 -20.25,-20.25 -11.19,0 -20.25,9.06 -20.25,20.25 0,11.18 9.06,20.25 20.25,20.25zm222.76 -20.25c0,11.18 -9.07,20.25 -20.25,20.25 -11.18,0 -20.25,-9.06 -20.25,-20.25 0,-11.19 9.07,-20.25 20.25,-20.25 11.18,0 20.25,9.06 20.25,20.25zm182.26 20.25c11.18,0 20.25,-9.06 20.25,-20.25 0,-11.19 -9.07,-20.25 -20.25,-20.25 -11.18,0 -20.25,9.06 -20.25,20.25 0,11.18 9.07,20.25 20.25,20.25zm222.77 -20.25c0,11.18 -9.07,20.25 -20.25,20.25 -11.18,0 -20.25,-9.06 -20.25,-20.25 0,-11.19 9.07,-20.25 20.25,-20.25 11.18,0 20.25,9.06 20.25,20.25zm182.26 20.25c11.18,0 20.25,-9.06 20.25,-20.25 0,-11.19 -9.07,-20.25 -20.25,-20.25 -11.18,0 -20.25,9.06 -20.25,20.25 0,11.18 9.07,20.25 20.25,20.25zm222.77 -20.25c0,11.18 -9.07,20.25 -20.25,20.25 -11.18,0 -20.25,-9.06 -20.25,-20.25 0,-11.19 9.07,-20.25 20.25,-20.25 11.18,0 20.25,9.06 20.25,20.25zm182.26 20.25c11.18,0 20.25,-9.06 20.25,-20.25 0,-11.19 -9.07,-20.25 -20.25,-20.25 -11.18,0 -20.25,9.06 -20.25,20.25 0,11.18 9.07,20.25 20.25,20.25zm222.77 -20.25c0,11.18 -9.07,20.25 -20.25,20.25 -11.18,0 -20.25,-9.06 -20.25,-20.25 0,-11.19 9.07,-20.25 20.25,-20.25 11.18,0 20.25,9.06 20.25,20.25zm182.26 20.25c11.18,0 20.25,-9.06 20.25,-20.25 0,-11.19 -9.07,-20.25 -20.25,-20.25 -11.18,0 -20.25,9.06 -20.25,20.25 0,11.18 9.07,20.25 20.25,20.25zm222.77 -20.25c0,11.18 -9.07,20.25 -20.25,20.25 -11.18,0 -20.25,-9.06 -20.25,-20.25 0,-11.19 9.07,-20.25 20.25,-20.25 11.18,0 20.25,9.06 20.25,20.25zm162.01 0c0,11.13 9.11,20.25 20.25,20.25l0 -40.5c-11.14,0 -20.25,9.11 -20.25,20.25zm-2409.92 182.26c11.13,0 20.25,9.11 20.25,20.26 0,11.13 -9.11,20.25 -20.25,20.25l0 -40.51zm202.51 40.51c11.19,0 20.26,-9.07 20.26,-20.25 0,-11.19 -9.07,-20.26 -20.26,-20.26 -11.18,0 -20.25,9.07 -20.25,20.26 0,11.18 9.07,20.25 20.25,20.25zm222.77 -20.25c0,11.18 -9.06,20.25 -20.25,20.25 -11.19,0 -20.25,-9.07 -20.25,-20.25 0,-11.19 9.06,-20.26 20.25,-20.26 11.18,0 20.25,9.07 20.25,20.26zm182.26 20.25c11.18,0 20.25,-9.07 20.25,-20.25 0,-11.19 -9.07,-20.26 -20.25,-20.26 -11.18,0 -20.25,9.07 -20.25,20.26 0,11.18 9.07,20.25 20.25,20.25zm222.77 -20.25c0,11.18 -9.07,20.25 -20.25,20.25 -11.18,0 -20.25,-9.07 -20.25,-20.25 0,-11.19 9.07,-20.26 20.25,-20.26 11.18,0 20.25,9.07 20.25,20.26zm182.26 20.25c11.18,0 20.25,-9.07 20.25,-20.25 0,-11.19 -9.07,-20.26 -20.25,-20.26 -11.18,0 -20.25,9.07 -20.25,20.26 0,11.18 9.07,20.25 20.25,20.25zm222.77 -20.25c0,11.18 -9.07,20.25 -20.25,20.25 -11.18,0 -20.25,-9.07 -20.25,-20.25 0,-11.19 9.07,-20.26 20.25,-20.26 11.18,0 20.25,9.07 20.25,20.26zm182.26 20.25c11.18,0 20.25,-9.07 20.25,-20.25 0,-11.19 -9.07,-20.26 -20.25,-20.26 -11.18,0 -20.25,9.07 -20.25,20.26 0,11.18 9.07,20.25 20.25,20.25zm222.77 -20.25c0,11.18 -9.07,20.25 -20.25,20.25 -11.18,0 -20.25,-9.07 -20.25,-20.25 0,-11.19 9.07,-20.26 20.25,-20.26 11.18,0 20.25,9.07 20.25,20.26zm182.26 20.25c11.18,0 20.25,-9.07 20.25,-20.25 0,-11.19 -9.07,-20.26 -20.25,-20.26 -11.18,0 -20.25,9.07 -20.25,20.26 0,11.18 9.07,20.25 20.25,20.25zm222.77 -20.25c0,11.18 -9.07,20.25 -20.25,20.25 -11.18,0 -20.25,-9.07 -20.25,-20.25 0,-11.19 9.07,-20.26 20.25,-20.26 11.18,0 20.25,9.07 20.25,20.26zm182.26 20.25c11.18,0 20.25,-9.07 20.25,-20.25 0,-11.19 -9.07,-20.26 -20.25,-20.26 -11.18,0 -20.25,9.07 -20.25,20.26 0,11.18 9.07,20.25 20.25,20.25zm202.51 0c-11.14,0 -20.25,-9.11 -20.25,-20.25 0,-11.15 9.11,-20.26 20.25,-20.26l0 40.51zm-2409.93 182.26c0,-11.13 -9.11,-20.25 -20.25,-20.25l0 40.5c11.13,0 20.25,-9.11 20.25,-20.25zm202.52 0c0,11.19 -9.07,20.25 -20.26,20.25 -11.18,0 -20.25,-9.06 -20.25,-20.25 0,-11.18 9.07,-20.25 20.25,-20.25 11.19,0 20.26,9.06 20.26,20.25zm182.26 20.25c11.18,0 20.25,-9.06 20.25,-20.25 0,-11.18 -9.06,-20.25 -20.25,-20.25 -11.19,0 -20.25,9.06 -20.25,20.25 0,11.19 9.06,20.25 20.25,20.25zm222.76 -20.25c0,11.19 -9.07,20.25 -20.25,20.25 -11.18,0 -20.25,-9.06 -20.25,-20.25 0,-11.18 9.07,-20.25 20.25,-20.25 11.18,0 20.25,9.06 20.25,20.25zm182.26 20.25c11.18,0 20.25,-9.06 20.25,-20.25 0,-11.18 -9.07,-20.25 -20.25,-20.25 -11.18,0 -20.25,9.06 -20.25,20.25 0,11.19 9.07,20.25 20.25,20.25zm222.77 -20.25c0,11.19 -9.07,20.25 -20.25,20.25 -11.18,0 -20.25,-9.06 -20.25,-20.25 0,-11.18 9.07,-20.25 20.25,-20.25 11.18,0 20.25,9.06 20.25,20.25zm182.26 20.25c11.18,0 20.25,-9.06 20.25,-20.25 0,-11.18 -9.07,-20.25 -20.25,-20.25 -11.18,0 -20.25,9.06 -20.25,20.25 0,11.19 9.07,20.25 20.25,20.25zm222.77 -20.25c0,11.19 -9.07,20.25 -20.25,20.25 -11.18,0 -20.25,-9.06 -20.25,-20.25 0,-11.18 9.07,-20.25 20.25,-20.25 11.18,0 20.25,9.06 20.25,20.25zm182.26 20.25c11.18,0 20.25,-9.06 20.25,-20.25 0,-11.18 -9.07,-20.25 -20.25,-20.25 -11.18,0 -20.25,9.06 -20.25,20.25 0,11.19 9.07,20.25 20.25,20.25zm222.77 -20.25c0,11.19 -9.07,20.25 -20.25,20.25 -11.18,0 -20.25,-9.06 -20.25,-20.25 0,-11.18 9.07,-20.25 20.25,-20.25 11.18,0 20.25,9.06 20.25,20.25zm182.26 20.25c11.18,0 20.25,-9.06 20.25,-20.25 0,-11.18 -9.07,-20.25 -20.25,-20.25 -11.18,0 -20.25,9.06 -20.25,20.25 0,11.19 9.07,20.25 20.25,20.25zm222.77 -20.25c0,11.19 -9.07,20.25 -20.25,20.25 -11.18,0 -20.25,-9.06 -20.25,-20.25 0,-11.18 9.07,-20.25 20.25,-20.25 11.18,0 20.25,9.06 20.25,20.25zm162.01 0c0,11.14 9.11,20.25 20.25,20.25l0 -40.5c-11.14,0 -20.25,9.11 -20.25,20.25zm-2409.92 202.51l0 -20.25c11.13,0 20.25,9.11 20.25,20.25l-20.25 0zm202.51 -20.25c-11.13,0 -20.25,9.11 -20.25,20.25l40.51 0c0,-11.13 -9.12,-20.25 -20.26,-20.25zm182.27 20.25c0,-11.13 9.11,-20.25 20.25,-20.25 11.13,0 20.25,9.11 20.25,20.25l-40.5 0zm222.76 -20.25c-11.14,0 -20.25,9.11 -20.25,20.25l40.5 0c0,-11.13 -9.11,-20.25 -20.25,-20.25zm182.26 20.25c0,-11.13 9.11,-20.25 20.25,-20.25 11.14,0 20.25,9.11 20.25,20.25l-40.5 0zm222.77 -20.25c-11.14,0 -20.25,9.11 -20.25,20.25l40.5 0c0,-11.13 -9.11,-20.25 -20.25,-20.25zm182.26 20.25c0,-11.13 9.11,-20.25 20.25,-20.25 11.14,0 20.25,9.11 20.25,20.25l-40.5 0zm222.77 -20.25c-11.14,0 -20.25,9.11 -20.25,20.25l40.5 0c0,-11.13 -9.11,-20.25 -20.25,-20.25zm182.26 20.25c0,-11.13 9.11,-20.25 20.25,-20.25 11.14,0 20.25,9.11 20.25,20.25l-40.5 0zm222.77 -20.25c-11.14,0 -20.25,9.11 -20.25,20.25l40.5 0c0,-11.13 -9.11,-20.25 -20.25,-20.25zm182.26 20.25c0,-11.13 9.11,-20.25 20.25,-20.25 11.14,0 20.25,9.11 20.25,20.25l-40.5 0zm222.77 -20.25c-11.14,0 -20.25,9.11 -20.25,20.25l40.5 0c0,-11.13 -9.11,-20.25 -20.25,-20.25zm182.26 20.25c0,-11.13 9.11,-20.25 20.25,-20.25l0 20.25 -20.25 0z"/>
   </g>
  </g>
  <path class="fil1" d="M-0 0c514.97,142.51 893.08,614.46 893.08,1174.78 0,560.32 -378.11,1032.27 -893.08,1174.78l0 -2349.56z"/>
 </g>
</svg>
