<?xml version="1.0" encoding="UTF-8"?>
<!DOCTYPE svg PUBLIC "-//W3C//DTD SVG 1.1//EN" "http://www.w3.org/Graphics/SVG/1.1/DTD/svg11.dtd">
<!-- Creator: CorelDRAW 2019 (64-Bit) -->
<svg xmlns="http://www.w3.org/2000/svg" xml:space="preserve" width="0.572917in" height="0.520795in" version="1.1" style="shape-rendering:geometricPrecision; text-rendering:geometricPrecision; image-rendering:optimizeQuality; fill-rule:evenodd; clip-rule:evenodd"
viewBox="0 0 572.92 520.8"
 xmlns:xlink="http://www.w3.org/1999/xlink"
 xmlns:xodm="http://www.corel.com/coreldraw/odm/2003">
 <defs>
  <style type="text/css">
   <![CDATA[
    .fil1 {fill:#55BC7E;fill-rule:nonzero}
    .fil0 {fill:#D3EEDF;fill-rule:nonzero;fill-opacity:0.878431}
   ]]>
  </style>
 </defs>
 <g id="Layer_x0020_1">
  <metadata id="CorelCorpID_0Corel-Layer"/>
  <g id="_2313162954752">
   <path id="Ellipse_x0020_24_3" class="fil0" d="M382.42 191.21c0,-105.6 -85.61,-191.21 -191.21,-191.21 -105.6,0 -191.21,85.61 -191.21,191.21 0,105.6 85.61,191.21 191.21,191.21 105.6,0 191.21,-85.61 191.21,-191.21z"/>
   <path id="Vector_35" class="fil1" d="M541.72 355.69l-2.17 0c-6.62,0 -12.98,2.08 -18.34,5.94l-9.41 6.88c-5.81,-7.92 -15.13,-12.82 -25.11,-12.82l-2.17 0c-6.62,0 -12.98,2.08 -18.34,5.94l-67.47 49.06 -11.52 0c-3.8,0 -6.87,3.13 -6.87,6.87 0,3.85 3.07,6.88 6.87,6.88l68.79 0c1.45,0 2.86,-0.42 4.04,-1.25l69.27 -50.42c3.01,-2.19 6.55,-3.33 10.26,-3.33l2.17 0c9.61,0 17.44,7.81 17.44,17.5 0,4.58 -1.81,8.96 -5.11,12.29l-66.19 66.15c-9.09,9.17 -21.18,14.17 -34.04,14.17l-135.43 0c-1.35,0 -2.69,0.42 -3.81,1.15l-41.27 27.5c-3.17,2.08 -4.02,6.35 -1.91,9.58 1.31,1.98 3.5,3.02 5.73,3.02 1.3,0 2.63,-0.42 3.81,-1.15l39.53 -26.35 133.34 0c16.54,0 32.08,-6.46 43.77,-18.13l66.19 -66.25c5.88,-5.83 9.13,-13.65 9.13,-21.98 0,-17.29 -13.99,-31.25 -31.2,-31.25zm-87.98 55l-31.65 0 52.17 -37.92c3.01,-2.19 6.56,-3.33 10.26,-3.33l2.17 0c5.56,0 10.65,2.81 13.92,7.19l-46.87 34.06z"/>
   <path id="Vector_36" class="fil1" d="M335.61 390.07c9.48,0 17.19,7.71 17.19,17.19 0,9.48 -7.71,17.19 -17.19,17.19l-51.59 0c-3.8,0 -6.89,3.12 -6.89,6.87 0,3.85 3.08,6.98 6.89,6.98l51.59 0c17.06,0 30.95,-13.96 30.95,-31.04 0,-16.98 -13.89,-30.94 -30.95,-30.94l-65.35 0c-1.28,0 -2.52,0.42 -3.61,1.04l-89.43 55c-3.23,1.98 -4.24,6.25 -2.25,9.48 1.29,2.08 3.55,3.33 5.87,3.33 1.23,0 2.47,-0.42 3.59,-1.04l87.77 -54.06 63.41 0z"/>
   <path id="Vector_37" class="fil1" d="M373.43 176.84l27.51 0c11.38,0 20.64,9.27 20.64,20.63 0,3.85 3.08,6.87 6.89,6.87 3.8,0 6.87,-3.02 6.87,-6.87 0,-18.96 -15.43,-34.37 -34.4,-34.37l-6.87 0 0 -20.63c0,-3.85 -3.07,-6.87 -6.89,-6.87 -3.8,0 -6.87,3.02 -6.87,6.87l0 20.63 -6.87 0c-18.97,0 -34.4,15.42 -34.4,34.37 0,18.96 15.43,34.37 34.4,34.37l27.51 0c11.38,0 20.64,9.27 20.64,20.73 0,11.35 -9.26,20.63 -20.64,20.63l-27.51 0c-11.39,0 -20.64,-9.27 -20.64,-20.63 0,-3.85 -3.08,-6.98 -6.89,-6.98 -3.8,0 -6.87,3.13 -6.87,6.98 0,18.96 15.43,34.38 34.4,34.38l6.87 0 0 20.62c0,3.75 3.07,6.88 6.87,6.88 3.81,0 6.89,-3.13 6.89,-6.88l0 -20.62 6.87 0c18.97,0 34.4,-15.42 34.4,-34.38 0,-19.06 -15.43,-34.48 -34.4,-34.48l-27.51 0c-11.39,0 -20.64,-9.27 -20.64,-20.63 0,-11.35 9.25,-20.63 20.64,-20.63z"/>
   <path id="Vector_38" class="fil1" d="M387.19 355.69c29.92,0 58.1,-9.89 81.54,-28.65 2.96,-2.39 3.44,-6.67 1.07,-9.69 -2.39,-2.92 -6.71,-3.44 -9.68,-1.04 -20.96,16.77 -46.18,25.63 -72.94,25.63 -64.48,0 -116.94,-52.5 -116.94,-116.98 0,-64.48 52.46,-116.87 116.94,-116.87 64.48,0 116.94,52.39 116.94,116.87 0,26.77 -8.85,51.98 -25.63,73.02 -2.37,2.92 -1.89,7.29 1.07,9.58 2.98,2.4 7.3,1.98 9.67,-1.04 18.75,-23.44 28.65,-51.56 28.65,-81.56 0,-72.08 -58.63,-130.63 -130.7,-130.63 -72.08,0 -130.7,58.54 -130.7,130.63 0,72.08 58.62,130.73 130.7,130.73z"/>
  </g>
 </g>
</svg>
