<?xml version="1.0" encoding="UTF-8"?>
<!DOCTYPE svg PUBLIC "-//W3C//DTD SVG 1.1//EN" "http://www.w3.org/Graphics/SVG/1.1/DTD/svg11.dtd">
<!-- Creator: CorelDRAW 2019 (64-Bit) -->
<svg xmlns="http://www.w3.org/2000/svg" xml:space="preserve" width="0.521799in" height="0.529925in" version="1.1" style="shape-rendering:geometricPrecision; text-rendering:geometricPrecision; image-rendering:optimizeQuality; fill-rule:evenodd; clip-rule:evenodd"
viewBox="0 0 521.8 529.92"
 xmlns:xlink="http://www.w3.org/1999/xlink"
 xmlns:xodm="http://www.corel.com/coreldraw/odm/2003">
 <defs>
  <style type="text/css">
   <![CDATA[
    .fil1 {fill:#55BC7E;fill-rule:nonzero}
    .fil0 {fill:#D3EEDF;fill-rule:nonzero;fill-opacity:0.878431}
   ]]>
  </style>
 </defs>
 <g id="Layer_x0020_1">
  <metadata id="CorelCorpID_0Corel-Layer"/>
  <g id="_2313006842784">
   <path id="Ellipse_x0020_24" class="fil0" d="M387.56 193.78c0,-107.02 -86.76,-193.78 -193.78,-193.78 -107.02,0 -193.78,86.76 -193.78,193.78 0,107.02 86.76,193.78 193.78,193.78 107.02,0 193.78,-86.76 193.78,-193.78z"/>
   <path id="Vector_22" class="fil1" d="M408.14 213.99c1.19,-1.67 2.14,-3.54 2.81,-5.52 3,0.52 5.87,1.67 8.39,3.44 5.08,3.44 11.04,5.31 17.17,5.42 1.94,0 3.86,-0.11 5.77,-0.52 8.02,-1.35 15.17,-5.83 19.87,-12.5 2.52,-3.96 6.58,-6.67 11.21,-7.5 4.63,-0.83 9.39,0.42 13.1,3.23 6.7,4.69 14.95,6.46 22.96,5l-2.55 -14.38c-4.62,0.73 -9.38,-0.41 -13.09,-3.23 -13.95,-9.58 -32.97,-6.25 -42.81,7.5 -2.51,3.96 -6.58,6.67 -11.22,7.5 -2.11,0.42 -4.28,0.42 -6.37,-0.1 4.32,-1.15 8.32,-3.23 11.68,-6.25 6.26,-5.21 10.2,-12.6 10.96,-20.73 0.19,-4.69 2.35,-9.06 5.96,-12.08 3.58,-3.13 8.3,-4.48 12.96,-3.75 8.12,0.73 16.19,-1.87 22.35,-7.18l-9.41 -11.25c-3.64,2.92 -8.3,4.27 -12.96,3.75 -16.84,-1.25 -31.65,11.15 -33.3,28.02 -0.19,4.69 -2.35,9.06 -5.94,12.08 -3.59,3.02 -8.29,4.37 -12.95,3.75 -4.55,-0.31 -9.14,0.21 -13.44,1.77 -2.01,-3.44 -4.95,-6.35 -8.48,-8.23l32.65 -65.21c1.13,-2.29 1.01,-5 -0.33,-7.18 -1.34,-2.08 -3.7,-3.44 -6.24,-3.44 -5.15,0.1 -10.09,-1.98 -13.67,-5.73 -4.3,-3.96 -9.37,-6.59 -14.69,-7.91l-16.25 0c-5.33,1.32 -10.39,3.96 -14.68,7.91 -3.62,3.75 -8.55,5.73 -13.7,5.73 -5.15,0 -10.07,-1.98 -13.68,-5.73 -4.38,-3.99 -9.56,-6.63 -15,-7.91l-15.67 0c-5.43,1.28 -10.61,3.92 -14.99,7.91 -3.61,3.75 -8.55,5.83 -13.71,5.73 -2.53,0 -4.87,1.35 -6.21,3.44 -1.33,2.19 -1.46,4.89 -0.32,7.18l32.61 65.21c-5.53,2.92 -9.51,8.13 -10.93,14.17 -1.41,6.15 -0.11,12.6 3.57,17.6 -66.95,18.02 -113.53,78.65 -113.64,148.02l0 131.35c0.02,20.21 16.35,36.56 36.51,36.56l262.86 0c20.16,0 36.49,-16.35 36.51,-36.56l0 -131.35c-0.13,-69.37 -46.71,-130 -113.66,-148.02zm-104.48 -101.87c3.62,-3.65 8.55,-5.73 13.7,-5.73 5.15,0 10.08,2.08 13.71,5.73 12.89,11.87 32.74,11.87 45.63,0 3.63,-3.65 8.54,-5.73 13.69,-5.73 5.13,0 10.06,2.08 13.68,5.73 3.48,3.02 7.5,5.52 11.85,7.18l-30.07 60.11 -64 0 -30.06 -60.11c4.35,-1.67 8.38,-4.17 11.88,-7.18zm13.68 96.56c-4.03,0 -7.3,-3.33 -7.3,-7.4 0,-3.96 3.27,-7.29 7.3,-7.29l73.02 0c4.03,0 7.3,3.33 7.3,7.29 0,4.06 -3.27,7.4 -7.3,7.4l-73.02 0zm189.85 284.68c0,12.09 -9.81,21.98 -21.91,21.98l-262.86 0c-12.11,0 -21.91,-9.89 -21.91,-21.98l0 -131.35c0.07,-76.66 62.15,-138.64 138.73,-138.75l29.21 0c76.58,0.1 138.65,62.08 138.74,138.75l0 131.35z"/>
   <polygon id="Vector_23" class="fil1" points="304.89,415.24 392.52,327.63 402.84,337.95 315.21,425.55 "/>
   <path id="Vector_24" class="fil1" d="M383.07 383.88c-12.11,0 -21.91,9.79 -21.91,21.87 0,12.08 9.8,21.87 21.91,21.87 12.09,0 21.91,-9.79 21.91,-21.87 0,-12.08 -9.81,-21.87 -21.91,-21.87zm0 29.17c-4.04,0 -7.3,-3.23 -7.3,-7.29 0,-4.06 3.26,-7.29 7.3,-7.29 4.03,0 7.3,3.23 7.3,7.29 0,4.06 -3.27,7.29 -7.3,7.29z"/>
   <path id="Vector_25" class="fil1" d="M324.65 369.3c12.1,0 21.91,-9.79 21.91,-21.98 0,-12.08 -9.8,-21.87 -21.91,-21.87 -12.09,0 -21.91,9.79 -21.91,21.87 0,12.18 9.81,21.98 21.91,21.98zm0 -29.27c4.04,0 7.3,3.33 7.3,7.29 0,4.06 -3.26,7.29 -7.3,7.29 -4.03,0 -7.3,-3.23 -7.3,-7.29 0,-3.96 3.27,-7.29 7.3,-7.29z"/>
   <path id="Vector_26" class="fil1" d="M353.87 274.3c-56.46,0 -102.23,45.83 -102.23,102.29 0,56.46 45.77,102.18 102.23,102.18 56.46,0 102.23,-45.73 102.23,-102.18 -0.06,-56.46 -45.79,-102.19 -102.23,-102.29zm0 189.9c-48.4,0 -87.63,-39.27 -87.63,-87.6 0,-48.44 39.23,-87.61 87.63,-87.61 48.38,0 87.62,39.17 87.62,87.61 -0.05,48.33 -39.26,87.5 -87.62,87.6z"/>
  </g>
 </g>
</svg>
