<?xml version="1.0" encoding="UTF-8"?>
<!DOCTYPE svg PUBLIC "-//W3C//DTD SVG 1.1//EN" "http://www.w3.org/Graphics/SVG/1.1/DTD/svg11.dtd">
<!-- Creator: CorelDRAW 2019 (64-Bit) -->
<svg xmlns="http://www.w3.org/2000/svg" xml:space="preserve" width="0.500008in" height="0.514945in" version="1.1" style="shape-rendering:geometricPrecision; text-rendering:geometricPrecision; image-rendering:optimizeQuality; fill-rule:evenodd; clip-rule:evenodd"
viewBox="0 0 500.01 514.94"
 xmlns:xlink="http://www.w3.org/1999/xlink"
 xmlns:xodm="http://www.corel.com/coreldraw/odm/2003">
 <defs>
  <style type="text/css">
   <![CDATA[
    .fil1 {fill:#55BC7E;fill-rule:nonzero}
    .fil0 {fill:#D3EEDF;fill-rule:nonzero;fill-opacity:0.878431}
   ]]>
  </style>
 </defs>
 <g id="Layer_x0020_1">
  <metadata id="CorelCorpID_0Corel-Layer"/>
  <g id="_2312950606528">
   <path id="Ellipse_x0020_24_5" class="fil0" d="M386.56 193.28c0,-106.74 -86.54,-193.28 -193.28,-193.28 -106.74,0 -193.28,86.54 -193.28,193.28 0,106.74 86.54,193.28 193.28,193.28 106.74,0 193.28,-86.54 193.28,-193.28z"/>
   <path id="Vector_41" class="fil1" d="M277.69 493.7c22.51,13.85 48.44,21.25 74.89,21.25 26.44,0 52.37,-7.39 74.89,-21.25 22.6,-14.69 41.11,-34.9 53.8,-58.65 12.68,-23.85 19.13,-50.42 18.73,-77.4l0 -144.89c0,-1.98 -0.78,-3.85 -2.16,-5.21 -1.39,-1.46 -3.26,-2.19 -5.22,-2.19 -70.91,0 -135.32,-42.5 -135.92,-43.02 -1.22,-0.73 -2.65,-1.25 -4.12,-1.25 -1.47,0 -2.91,0.52 -4.13,1.25 -0.59,0.52 -65.01,43.02 -135.92,43.02 -1.96,0 -3.83,0.73 -5.22,2.19 -1.38,1.35 -2.16,3.23 -2.16,5.21l0 144.89c-0.4,26.98 6.05,53.54 18.73,77.4 12.69,23.75 31.2,43.96 53.8,58.65zm-57.79 -273.65c62.73,-2.19 117.42,-33.23 132.68,-42.61 15.26,9.17 69.94,40.21 132.68,42.61l0 137.6c0.41,24.48 -5.4,48.54 -16.85,70.21 -11.46,21.56 -28.21,39.9 -48.68,53.23 -20.18,12.5 -43.43,19.06 -67.15,19.06 -23.72,0 -46.97,-6.56 -67.15,-19.06 -20.47,-13.33 -37.22,-31.67 -48.68,-53.23 -11.47,-21.67 -17.26,-45.73 -16.85,-70.21l0 -137.6z"/>
   <path id="Vector_42" class="fil1" d="M308.34 441.2l88.45 0c5.87,0 11.49,-2.29 15.64,-6.46 4.15,-4.17 6.48,-9.8 6.48,-15.63l0 -51.56c0,-5.94 -2.32,-11.56 -6.48,-15.63 -4.15,-4.17 -9.77,-6.56 -15.64,-6.56l0 -51.56c0,-11.77 -4.65,-22.91 -12.95,-31.25 -8.29,-8.33 -19.54,-12.92 -31.27,-12.92 -11.73,0 -22.98,4.58 -31.27,12.92 -8.29,8.33 -12.96,19.48 -12.96,31.25l0 51.56c-5.86,0 -11.49,2.4 -15.63,6.56 -4.15,4.06 -6.47,9.69 -6.47,15.63l0 51.56c0,5.83 2.32,11.46 6.47,15.63 4.15,4.17 9.77,6.46 15.63,6.46zm14.74 -147.4c0,-7.81 3.11,-15.31 8.64,-20.83 5.53,-5.52 13.03,-8.65 20.85,-8.65 7.82,0 15.31,3.13 20.84,8.65 5.53,5.52 8.63,13.02 8.63,20.83l0 51.56 -58.97 0 0 -51.56zm-22.1 73.75c0,-1.98 0.77,-3.85 2.16,-5.21 1.38,-1.46 3.26,-2.19 5.2,-2.19l88.45 0c1.96,0 3.83,0.73 5.22,2.19 1.37,1.35 2.15,3.23 2.15,5.21l0 51.56c0,1.98 -0.78,3.85 -2.15,5.21 -1.39,1.35 -3.26,2.19 -5.22,2.19l-88.45 0c-1.94,0 -3.82,-0.83 -5.2,-2.19 -1.39,-1.35 -2.16,-3.23 -2.16,-5.21l0 -51.56z"/>
   <path id="Vector_43" class="fil1" d="M352.58 411.72c1.96,0 3.83,-0.73 5.22,-2.08 1.37,-1.46 2.16,-3.33 2.16,-5.31l0 -14.69c0,-1.98 -0.78,-3.85 -2.16,-5.21 -1.39,-1.35 -3.26,-2.19 -5.22,-2.19 -1.94,0 -3.82,0.83 -5.21,2.19 -1.38,1.35 -2.15,3.23 -2.15,5.21l0 14.69c0,1.98 0.77,3.85 2.15,5.31 1.39,1.35 3.26,2.08 5.21,2.08z"/>
  </g>
 </g>
</svg>
