<?xml version="1.0" encoding="UTF-8"?>
<!DOCTYPE svg PUBLIC "-//W3C//DTD SVG 1.1//EN" "http://www.w3.org/Graphics/SVG/1.1/DTD/svg11.dtd">
<!-- Creator: CorelDRAW 2019 (64-Bit) -->
<svg xmlns="http://www.w3.org/2000/svg" xml:space="preserve" width="0.57165in" height="0.518161in" version="1.1" style="shape-rendering:geometricPrecision; text-rendering:geometricPrecision; image-rendering:optimizeQuality; fill-rule:evenodd; clip-rule:evenodd"
viewBox="0 0 571.65 518.16"
 xmlns:xlink="http://www.w3.org/1999/xlink"
 xmlns:xodm="http://www.corel.com/coreldraw/odm/2003">
 <defs>
  <style type="text/css">
   <![CDATA[
    .fil1 {fill:#55BC7E;fill-rule:nonzero}
    .fil0 {fill:#D3EEDF;fill-rule:nonzero;fill-opacity:0.878431}
   ]]>
  </style>
 </defs>
 <g id="Layer_x0020_1">
  <metadata id="CorelCorpID_0Corel-Layer"/>
  <g id="_2495435647504">
   <path id="Ellipse_x0020_24_2" class="fil0" d="M383.82 191.91c0,-105.99 -85.92,-191.91 -191.91,-191.91 -105.99,0 -191.91,85.92 -191.91,191.91 0,105.99 85.92,191.91 191.91,191.91 105.99,0 191.91,-85.92 191.91,-191.91z"/>
   <path id="Vector_27" class="fil1" d="M571.65 273.89c0,-19.37 -30.09,-34.27 -69.89,-34.27 -39.79,0 -69.89,14.9 -69.89,34.27 0,0.63 0,1.04 0,1.67 0,0.31 0,0.94 0,1.25l0 55c0,3.54 2.92,6.46 6.47,6.46 3.56,0 6.47,-2.92 6.47,-6.46l0 -2.92c12.3,8.75 33.01,13.96 56.95,13.96 23.94,0 44.65,-5.52 56.94,-13.96l0 14.58c0,9.06 -21.68,21.35 -56.94,21.35l-3.23 0c-3.56,0 -6.8,0 -10.35,-0.63 -3.56,-0.31 -6.8,1.98 -7.44,5.52 -0.32,3.54 1.94,6.77 5.5,7.39 3.24,0.31 6.48,0.63 10.03,0.63l5.18 0c23.94,0 44.65,-5.42 56.94,-13.85l0 14.58c0,9.06 -21.68,21.35 -56.94,21.35l-2.91 0c-3.56,0 -6.8,0 -10.35,-0.73 -3.56,-0.31 -6.8,1.98 -7.44,5.52 -0.32,3.54 1.94,6.77 5.5,7.5 3.24,0.31 6.48,0.63 10.03,0.63l5.18 0c23.94,0 44.65,-5.52 56.94,-13.96l0 14.59c0,9.06 -21.68,21.35 -56.94,21.35l-2.91 0c-3.56,0 -6.8,0 -10.35,-0.63 -3.56,-0.31 -6.8,1.87 -7.44,5.52 -0.32,3.54 1.94,6.77 5.5,7.4 3.24,0.31 6.48,0.62 10.03,0.62l5.18 0c23.94,0 44.65,-5.52 56.94,-13.85l0 14.48c0,9.06 -21.68,21.35 -56.94,21.35l-2.91 0c-3.56,0 -6.8,0 -10.35,-0.63 -3.56,-0.31 -6.8,1.98 -7.44,5.52 -0.32,3.54 1.94,6.77 5.5,7.5 3.24,0.31 6.48,0.62 10.03,0.62l5.18 0c39.8,0 69.89,-14.89 69.89,-34.37l0 -171.46c0,-0.31 0,-0.94 0,-1.25 0.33,-0.62 0.33,-1.04 0.33,-1.67zm-69.89 -21.35c35.27,0 56.94,12.29 56.94,21.35 0,9.06 -21.68,21.35 -56.94,21.35 -35.26,0 -56.95,-12.29 -56.95,-21.35 0,-9.06 21.69,-21.35 56.95,-21.35zm0 77.4c-35.26,0 -56.95,-12.3 -56.95,-21.35l0 -14.27c12.3,8.75 33.01,13.96 56.95,13.96 23.94,0 44.65,-5.52 56.94,-13.96l0 14.27c0,8.65 -21.68,21.35 -56.94,21.35z"/>
   <path id="Vector_28" class="fil1" d="M401.78 344.72c-39.8,0 -69.9,14.89 -69.9,34.37 0,0.63 0,0.94 0,1.56 0,0.31 0,1.04 0,1.35l0 101.87c0,19.37 30.09,34.27 69.9,34.27 39.79,0 69.88,-14.9 69.88,-34.27l0 -101.87c0,-0.31 0,-1.04 0,-1.35 0,-0.63 0,-0.94 0,-1.56 0,-19.79 -30.09,-34.37 -69.88,-34.37zm56.94 103.96c0,9.06 -21.68,21.35 -56.94,21.35 -35.27,0 -56.95,-12.29 -56.95,-21.35l0 -14.89c12.29,8.75 33,13.85 56.95,13.85 23.94,0 44.65,-5.52 56.94,-13.85l0 14.89zm0 -35c0,9.06 -21.68,21.35 -56.94,21.35 -35.27,0 -56.95,-12.29 -56.95,-21.35l0 -14.27c12.29,8.75 33,13.96 56.95,13.96 23.94,0 44.65,-5.52 56.94,-13.96l0 14.27zm-56.94 -55.94c35.26,0 56.94,12.29 56.94,21.35 0,9.06 -21.68,21.35 -56.94,21.35 -35.27,0 -56.95,-12.29 -56.95,-21.35 0,-9.06 21.68,-21.35 56.95,-21.35zm0 147.19c-35.27,0 -56.95,-12.3 -56.95,-21.35l0 -14.59c12.29,8.75 33,13.96 56.95,13.96 23.94,0 44.65,-5.52 56.94,-13.96l0 14.59c0,9.06 -21.68,21.35 -56.94,21.35z"/>
   <path class="fil1" d="M364.8 124.43c3.9,0 7.06,3.17 7.06,7.06 0,3.9 -3.17,7.06 -7.06,7.06l-83.68 0c-3.9,0 -7.06,-3.17 -7.06,-7.06 0,-3.9 3.17,-7.06 7.06,-7.06l83.68 0z"/>
   <path class="fil1" d="M482.37 207.33c0,3.9 -3.17,7.06 -7.06,7.06 -3.9,0 -7.06,-3.17 -7.06,-7.06l0 -52.19c0,-4.69 -1.9,-8.98 -4.98,-12.07 -3.03,-3.03 -7.24,-4.93 -11.96,-4.93l-20.11 0c-3.9,0 -7.06,-3.17 -7.06,-7.06 0,-3.9 3.17,-7.06 7.06,-7.06l20.11 0c8.61,0 16.34,3.51 21.95,9.13 5.65,5.67 9.13,13.48 9.13,22l0 52.19z"/>
   <path class="fil1" d="M214.41 124.43c3.9,0 7.06,3.17 7.06,7.06 0,3.9 -3.17,7.06 -7.06,7.06l-23.3 0c-4.65,0 -8.82,2.01 -11.83,5.28 -3.17,3.44 -5.11,8.27 -5.11,13.7l0 198.85c0,5.43 1.94,10.26 5.11,13.7 3.01,3.27 7.19,5.28 11.83,5.28l113.41 0c3.9,0 7.06,3.17 7.06,7.06 0,3.9 -3.17,7.06 -7.06,7.06l-113.41 0c-8.75,0 -16.58,-3.76 -22.2,-9.87 -5.5,-5.96 -8.87,-14.17 -8.87,-23.24l0 -198.85c0,-9.07 3.37,-17.28 8.87,-23.24 5.63,-6.11 13.45,-9.87 22.2,-9.87l23.3 0z"/>
   <path class="fil1" d="M240.89 94.41c0,-3.9 3.17,-7.06 7.06,-7.06 3.9,0 7.06,3.17 7.06,7.06l0 52.19c0,3.9 -3.17,7.06 -7.06,7.06 -3.9,0 -7.06,-3.17 -7.06,-7.06l0 -52.19z"/>
   <path class="fil1" d="M393.76 94.41c0,-3.9 3.17,-7.06 7.06,-7.06 3.9,0 7.06,3.17 7.06,7.06l0 52.19c0,3.9 -3.17,7.06 -7.06,7.06 -3.9,0 -7.06,-3.17 -7.06,-7.06l0 -52.19z"/>
   <path class="fil1" d="M174.59 196.26c-3.9,0 -7.06,-3.17 -7.06,-7.06 0,-3.9 3.17,-7.06 7.06,-7.06l293.73 0c3.9,0 7.06,3.17 7.06,7.06 0,3.9 -3.17,7.06 -7.06,7.06l-293.73 0z"/>
  </g>
 </g>
</svg>
