<?xml version="1.0" encoding="UTF-8"?>
<!DOCTYPE svg PUBLIC "-//W3C//DTD SVG 1.1//EN" "http://www.w3.org/Graphics/SVG/1.1/DTD/svg11.dtd">
<!-- Creator: CorelDRAW 2019 (64-Bit) -->
<svg xmlns="http://www.w3.org/2000/svg" xml:space="preserve" width="7.53981in" height="6.65829in" version="1.1" style="shape-rendering:geometricPrecision; text-rendering:geometricPrecision; image-rendering:optimizeQuality; fill-rule:evenodd; clip-rule:evenodd"
viewBox="0 0 7539.8 6658.29"
 xmlns:xlink="http://www.w3.org/1999/xlink"
 xmlns:xodm="http://www.corel.com/coreldraw/odm/2003">
 <defs>
  <style type="text/css">
   <![CDATA[
    .str0 {stroke:#E4A788;stroke-width:31.25;stroke-linecap:round;stroke-linejoin:round;stroke-miterlimit:2.61313}
    .fil0 {fill:none}
    .fil2 {fill:#E4A788;fill-rule:nonzero}
    .fil3 {fill:#E4A788}
    .fil1 {fill:url(#id1);fill-rule:nonzero}
   ]]>
  </style>
    <clipPath id="id0">
     <path d="M7539.8 4326c-880.55,-133.73 -1555.31,-894 -1555.31,-1811.9 0,-917.89 674.76,-1678.16 1555.31,-1811.9l0 3623.79z"/>
    </clipPath>
  <linearGradient id="id1" gradientUnits="userSpaceOnUse" x1="4653.22" y1="7864.28" x2="1741.13" y2="1392.31">
   <stop offset="0" style="stop-opacity:1; stop-color:#C9EAD7"/>
   <stop offset="0.0117647" style="stop-opacity:1; stop-color:#C9EAD7"/>
   <stop offset="1" style="stop-opacity:0; stop-color:#C9EAD7"/>
  </linearGradient>
 </defs>
 <g id="Layer_x0020_1">
  <metadata id="CorelCorpID_0Corel-Layer"/>
  <g id="_2495480932320">
   <line id="Vector_70" class="fil0 str0" x1="5622.2" y1="144.73" x2="5488.66" y2= "19.98" />
   <line id="Vector_71" class="fil0 str0" x1="5493.03" y1="149.09" x2="5617.82" y2= "15.63" />
   <path id="Vector_72" class="fil1" d="M1457.33 1449.35c1239.94,-1240.02 3046.33,-1179.51 3949.14,-1001.83 1009.48,198.65 1504.06,726.74 1770.11,1041.42 143.22,169.41 264.85,347.67 363.23,530.81l0 2086.39c-132.43,201.74 -311.41,388.63 -540.63,553.43 -1016.56,730.89 -1289.27,-117.21 -2461.87,180.39 -34.9,8.87 -68.85,19.21 -102.19,30.17 -892.91,291.81 -1219.27,1252.77 -1937.94,1627.67 -199.53,104.08 -426.68,167.75 -698.03,159.81 -861.76,-25.19 -1582.62,-679.65 -1745.81,-1661.61 -167.51,-1007.79 -2.47,-2107.44 1403.99,-3546.66z"/>
   <circle id="Ellipse_x0020_8" class="fil2" cx="5060.64" cy="5514.64" r="260.42"/>
   <g>
   </g>
   <g style="clip-path:url(#id0)">
    <g id="_2495480931904">
     <path id="Union_3" class="fil3" d="M5765.56 771.58l-31.2 0 0 31.24c17.17,0 31.2,-14.06 31.2,-31.24zm281.25 31.24c17.17,0 31.2,-14.06 31.2,-31.24l-62.51 0c0,17.19 14.15,31.24 31.31,31.24zm343.64 -31.24c0,17.19 -14.03,31.24 -31.2,31.24 -17.28,0 -31.31,-14.06 -31.31,-31.24l62.51 0zm281.13 31.24c17.28,0 31.31,-14.06 31.31,-31.24l-62.51 0c0,17.19 14.03,31.24 31.2,31.24zm343.76 -31.24c0,17.19 -14.15,31.24 -31.31,31.24 -17.17,0 -31.2,-14.06 -31.2,-31.24l62.51 0zm281.13 31.24c17.16,0 31.2,-14.06 31.2,-31.24l-62.4 0c0,17.19 14.04,31.24 31.2,31.24zm343.65 -31.24c0,17.19 -14.04,31.24 -31.2,31.24 -17.16,0 -31.31,-14.06 -31.31,-31.24l62.51 0zm281.25 31.24c17.17,0 31.2,-14.06 31.2,-31.24l-62.51 0c0,17.19 14.04,31.24 31.31,31.24zm343.64 -31.24c0,17.19 -14.03,31.24 -31.31,31.24 -17.16,0 -31.2,-14.06 -31.2,-31.24l62.51 0zm281.13 31.24c17.17,0 31.31,-14.06 31.31,-31.24l-62.51 0c0,17.19 14.03,31.24 31.2,31.24zm343.65 -31.24c0,17.19 -14.03,31.24 -31.2,31.24 -17.17,0 -31.2,-14.06 -31.2,-31.24l62.39 0zm281.25 31.24c17.17,0 31.2,-14.06 31.2,-31.24l-62.51 0c0,17.19 14.15,31.24 31.31,31.24zm312.44 -31.24l0 31.24c-17.28,0 -31.31,-14.06 -31.31,-31.24l31.31 0zm-3717.92 312.42c0,-17.19 -14.04,-31.25 -31.2,-31.25l0 62.49c17.17,0 31.2,-14.06 31.2,-31.24zm312.44 0c0,17.26 -13.92,31.24 -31.2,31.24 -17.28,0 -31.31,-13.99 -31.31,-31.24 0,-17.26 14.04,-31.25 31.31,-31.25 17.28,0 31.2,13.99 31.2,31.25zm281.25 31.24c17.17,0 31.2,-13.99 31.2,-31.24 0,-17.26 -14.03,-31.25 -31.2,-31.25 -17.28,0 -31.31,13.99 -31.31,31.25 0,17.26 14.04,31.24 31.31,31.24zm343.65 -31.24c0,17.26 -14.04,31.24 -31.31,31.24 -17.17,0 -31.2,-13.99 -31.2,-31.24 0,-17.26 14.03,-31.25 31.2,-31.25 17.28,0 31.31,13.99 31.31,31.25zm281.13 31.24c17.28,0 31.31,-13.99 31.31,-31.24 0,-17.26 -14.04,-31.25 -31.31,-31.25 -17.28,0 -31.2,13.99 -31.2,31.25 0,17.26 13.92,31.24 31.2,31.24zm343.64 -31.24c0,17.26 -13.92,31.24 -31.2,31.24 -17.28,0 -31.2,-13.99 -31.2,-31.24 0,-17.26 13.92,-31.25 31.2,-31.25 17.28,0 31.2,13.99 31.2,31.25zm281.25 31.24c17.28,0 31.2,-13.99 31.2,-31.24 0,-17.26 -13.92,-31.25 -31.2,-31.25 -17.28,0 -31.31,13.99 -31.31,31.25 0,17.26 14.03,31.24 31.31,31.24zm343.65 -31.24c0,17.26 -14.03,31.24 -31.2,31.24 -17.28,0 -31.31,-13.99 -31.31,-31.24 0,-17.26 14.04,-31.25 31.31,-31.25 17.17,0 31.2,13.99 31.2,31.25zm281.13 31.24c17.28,0 31.31,-13.99 31.31,-31.24 0,-17.26 -14.03,-31.25 -31.31,-31.25 -17.16,0 -31.2,13.99 -31.2,31.25 0,17.26 14.04,31.24 31.2,31.24zm343.76 -31.24c0,17.26 -14.04,31.24 -31.31,31.24 -17.28,0 -31.2,-13.99 -31.2,-31.24 0,-17.26 13.92,-31.25 31.2,-31.25 17.28,0 31.31,13.99 31.31,31.25zm281.13 31.24c17.28,0 31.2,-13.99 31.2,-31.24 0,-17.26 -13.92,-31.25 -31.2,-31.25 -17.28,0 -31.2,13.99 -31.2,31.25 0,17.26 13.92,31.24 31.2,31.24zm343.64 -31.24c0,17.26 -13.92,31.24 -31.2,31.24 -17.28,0 -31.31,-13.99 -31.31,-31.24 0,-17.26 14.03,-31.25 31.31,-31.25 17.28,0 31.2,13.99 31.2,31.25zm249.94 0c0,17.19 14.03,31.24 31.31,31.24l0 -62.49c-17.28,0 -31.31,14.06 -31.31,31.25zm-3717.81 281.18c17.17,0 31.2,14.06 31.2,31.25 0,17.19 -14.04,31.24 -31.2,31.24l0 -62.49zm312.45 62.49c17.28,0 31.2,-13.99 31.2,-31.24 0,-17.26 -13.92,-31.25 -31.2,-31.25 -17.28,0 -31.31,13.99 -31.31,31.25 0,17.26 14.04,31.24 31.31,31.24zm343.64 -31.24c0,17.26 -14.03,31.24 -31.2,31.24 -17.28,0 -31.31,-13.99 -31.31,-31.24 0,-17.26 14.04,-31.25 31.31,-31.25 17.17,0 31.2,13.99 31.2,31.25zm281.13 31.24c17.28,0 31.31,-13.99 31.31,-31.24 0,-17.26 -14.04,-31.25 -31.31,-31.25 -17.17,0 -31.2,13.99 -31.2,31.25 0,17.26 14.03,31.24 31.2,31.24zm343.76 -31.24c0,17.26 -14.04,31.24 -31.31,31.24 -17.28,0 -31.2,-13.99 -31.2,-31.24 0,-17.26 13.92,-31.25 31.2,-31.25 17.28,0 31.31,13.99 31.31,31.25zm281.13 31.24c17.28,0 31.2,-13.99 31.2,-31.24 0,-17.26 -13.92,-31.25 -31.2,-31.25 -17.28,0 -31.2,13.99 -31.2,31.25 0,17.26 13.92,31.24 31.2,31.24zm343.65 -31.24c0,17.26 -13.92,31.24 -31.2,31.24 -17.28,0 -31.31,-13.99 -31.31,-31.24 0,-17.26 14.03,-31.25 31.31,-31.25 17.28,0 31.2,13.99 31.2,31.25zm281.25 31.24c17.17,0 31.2,-13.99 31.2,-31.24 0,-17.26 -14.03,-31.25 -31.2,-31.25 -17.28,0 -31.31,13.99 -31.31,31.25 0,17.26 14.04,31.24 31.31,31.24zm343.64 -31.24c0,17.26 -14.03,31.24 -31.31,31.24 -17.16,0 -31.2,-13.99 -31.2,-31.24 0,-17.26 14.04,-31.25 31.2,-31.25 17.28,0 31.31,13.99 31.31,31.25zm281.13 31.24c17.28,0 31.31,-13.99 31.31,-31.24 0,-17.26 -14.04,-31.25 -31.31,-31.25 -17.28,0 -31.2,13.99 -31.2,31.25 0,17.26 13.92,31.24 31.2,31.24zm343.65 -31.24c0,17.26 -13.92,31.24 -31.2,31.24 -17.28,0 -31.2,-13.99 -31.2,-31.24 0,-17.26 13.92,-31.25 31.2,-31.25 17.28,0 31.2,13.99 31.2,31.25zm281.25 31.24c17.28,0 31.2,-13.99 31.2,-31.24 0,-17.26 -13.92,-31.25 -31.2,-31.25 -17.28,0 -31.31,13.99 -31.31,31.25 0,17.26 14.03,31.24 31.31,31.24zm312.44 0c-17.28,0 -31.31,-14.06 -31.31,-31.24 0,-17.19 14.03,-31.25 31.31,-31.25l0 62.49zm-3717.92 281.18c0,-17.19 -14.04,-31.25 -31.2,-31.25l0 62.49c17.17,0 31.2,-14.06 31.2,-31.24zm312.44 0c0,17.26 -13.92,31.24 -31.2,31.24 -17.28,0 -31.31,-13.99 -31.31,-31.24 0,-17.26 14.04,-31.25 31.31,-31.25 17.28,0 31.2,13.99 31.2,31.25zm281.25 31.24c17.17,0 31.2,-13.99 31.2,-31.24 0,-17.26 -14.03,-31.25 -31.2,-31.25 -17.28,0 -31.31,13.99 -31.31,31.25 0,17.26 14.04,31.24 31.31,31.24zm343.65 -31.24c0,17.26 -14.04,31.24 -31.31,31.24 -17.17,0 -31.2,-13.99 -31.2,-31.24 0,-17.26 14.03,-31.25 31.2,-31.25 17.28,0 31.31,13.99 31.31,31.25zm281.13 31.24c17.28,0 31.31,-13.99 31.31,-31.24 0,-17.26 -14.04,-31.25 -31.31,-31.25 -17.28,0 -31.2,13.99 -31.2,31.25 0,17.26 13.92,31.24 31.2,31.24zm343.64 -31.24c0,17.26 -13.92,31.24 -31.2,31.24 -17.28,0 -31.2,-13.99 -31.2,-31.24 0,-17.26 13.92,-31.25 31.2,-31.25 17.28,0 31.2,13.99 31.2,31.25zm281.25 31.24c17.28,0 31.2,-13.99 31.2,-31.24 0,-17.26 -13.92,-31.25 -31.2,-31.25 -17.28,0 -31.31,13.99 -31.31,31.25 0,17.26 14.03,31.24 31.31,31.24zm343.65 -31.24c0,17.26 -14.03,31.24 -31.2,31.24 -17.28,0 -31.31,-13.99 -31.31,-31.24 0,-17.26 14.04,-31.25 31.31,-31.25 17.17,0 31.2,13.99 31.2,31.25zm281.13 31.24c17.28,0 31.31,-13.99 31.31,-31.24 0,-17.26 -14.03,-31.25 -31.31,-31.25 -17.16,0 -31.2,13.99 -31.2,31.25 0,17.26 14.04,31.24 31.2,31.24zm343.76 -31.24c0,17.26 -14.04,31.24 -31.31,31.24 -17.28,0 -31.2,-13.99 -31.2,-31.24 0,-17.26 13.92,-31.25 31.2,-31.25 17.28,0 31.31,13.99 31.31,31.25zm281.13 31.24c17.28,0 31.2,-13.99 31.2,-31.24 0,-17.26 -13.92,-31.25 -31.2,-31.25 -17.28,0 -31.2,13.99 -31.2,31.25 0,17.26 13.92,31.24 31.2,31.24zm343.64 -31.24c0,17.26 -13.92,31.24 -31.2,31.24 -17.28,0 -31.31,-13.99 -31.31,-31.24 0,-17.26 14.03,-31.25 31.31,-31.25 17.28,0 31.2,13.99 31.2,31.25zm249.94 0c0,17.19 14.03,31.24 31.31,31.24l0 -62.49c-17.28,0 -31.31,14.06 -31.31,31.25zm-3717.81 281.18c17.17,0 31.2,14.06 31.2,31.24 0,17.17 -14.04,31.24 -31.2,31.24l0 -62.49zm312.45 62.49c17.28,0 31.2,-13.99 31.2,-31.24 0,-17.26 -13.92,-31.24 -31.2,-31.24 -17.28,0 -31.31,13.98 -31.31,31.24 0,17.26 14.04,31.24 31.31,31.24zm343.64 -31.24c0,17.26 -14.03,31.24 -31.2,31.24 -17.28,0 -31.31,-13.99 -31.31,-31.24 0,-17.26 14.04,-31.24 31.31,-31.24 17.17,0 31.2,13.98 31.2,31.24zm281.13 31.24c17.28,0 31.31,-13.99 31.31,-31.24 0,-17.26 -14.04,-31.24 -31.31,-31.24 -17.17,0 -31.2,13.98 -31.2,31.24 0,17.26 14.03,31.24 31.2,31.24zm343.76 -31.24c0,17.26 -14.04,31.24 -31.31,31.24 -17.28,0 -31.2,-13.99 -31.2,-31.24 0,-17.26 13.92,-31.24 31.2,-31.24 17.28,0 31.31,13.98 31.31,31.24zm281.13 31.24c17.28,0 31.2,-13.99 31.2,-31.24 0,-17.26 -13.92,-31.24 -31.2,-31.24 -17.28,0 -31.2,13.98 -31.2,31.24 0,17.26 13.92,31.24 31.2,31.24zm343.65 -31.24c0,17.26 -13.92,31.24 -31.2,31.24 -17.28,0 -31.31,-13.99 -31.31,-31.24 0,-17.26 14.03,-31.24 31.31,-31.24 17.28,0 31.2,13.98 31.2,31.24zm281.25 31.24c17.17,0 31.2,-13.99 31.2,-31.24 0,-17.26 -14.03,-31.24 -31.2,-31.24 -17.28,0 -31.31,13.98 -31.31,31.24 0,17.26 14.04,31.24 31.31,31.24zm343.64 -31.24c0,17.26 -14.03,31.24 -31.31,31.24 -17.16,0 -31.2,-13.99 -31.2,-31.24 0,-17.26 14.04,-31.24 31.2,-31.24 17.28,0 31.31,13.98 31.31,31.24zm281.13 31.24c17.28,0 31.31,-13.99 31.31,-31.24 0,-17.26 -14.04,-31.24 -31.31,-31.24 -17.28,0 -31.2,13.98 -31.2,31.24 0,17.26 13.92,31.24 31.2,31.24zm343.65 -31.24c0,17.26 -13.92,31.24 -31.2,31.24 -17.28,0 -31.2,-13.99 -31.2,-31.24 0,-17.26 13.92,-31.24 31.2,-31.24 17.28,0 31.2,13.98 31.2,31.24zm281.25 31.24c17.28,0 31.2,-13.99 31.2,-31.24 0,-17.26 -13.92,-31.24 -31.2,-31.24 -17.28,0 -31.31,13.98 -31.31,31.24 0,17.26 14.03,31.24 31.31,31.24zm312.44 0c-17.28,0 -31.31,-14.07 -31.31,-31.24 0,-17.19 14.03,-31.24 31.31,-31.24l0 62.49zm-3717.92 281.18c0,-17.19 -14.04,-31.24 -31.2,-31.24l0 62.49c17.17,0 31.2,-14.07 31.2,-31.24zm312.44 0c0,17.26 -13.92,31.24 -31.2,31.24 -17.28,0 -31.31,-13.99 -31.31,-31.24 0,-17.26 14.04,-31.24 31.31,-31.24 17.28,0 31.2,13.98 31.2,31.24zm281.25 31.24c17.17,0 31.2,-13.99 31.2,-31.24 0,-17.26 -14.03,-31.24 -31.2,-31.24 -17.28,0 -31.31,13.98 -31.31,31.24 0,17.26 14.04,31.24 31.31,31.24zm343.65 -31.24c0,17.26 -14.04,31.24 -31.31,31.24 -17.17,0 -31.2,-13.99 -31.2,-31.24 0,-17.26 14.03,-31.24 31.2,-31.24 17.28,0 31.31,13.98 31.31,31.24zm281.13 31.24c17.28,0 31.31,-13.99 31.31,-31.24 0,-17.26 -14.04,-31.24 -31.31,-31.24 -17.28,0 -31.2,13.98 -31.2,31.24 0,17.26 13.92,31.24 31.2,31.24zm343.64 -31.24c0,17.26 -13.92,31.24 -31.2,31.24 -17.28,0 -31.2,-13.99 -31.2,-31.24 0,-17.26 13.92,-31.24 31.2,-31.24 17.28,0 31.2,13.98 31.2,31.24zm281.25 31.24c17.28,0 31.2,-13.99 31.2,-31.24 0,-17.26 -13.92,-31.24 -31.2,-31.24 -17.28,0 -31.31,13.98 -31.31,31.24 0,17.26 14.03,31.24 31.31,31.24zm343.65 -31.24c0,17.26 -14.03,31.24 -31.2,31.24 -17.28,0 -31.31,-13.99 -31.31,-31.24 0,-17.26 14.04,-31.24 31.31,-31.24 17.17,0 31.2,13.98 31.2,31.24zm281.13 31.24c17.28,0 31.31,-13.99 31.31,-31.24 0,-17.26 -14.03,-31.24 -31.31,-31.24 -17.16,0 -31.2,13.98 -31.2,31.24 0,17.26 14.04,31.24 31.2,31.24zm343.76 -31.24c0,17.26 -14.04,31.24 -31.31,31.24 -17.28,0 -31.2,-13.99 -31.2,-31.24 0,-17.26 13.92,-31.24 31.2,-31.24 17.28,0 31.31,13.98 31.31,31.24zm281.13 31.24c17.28,0 31.2,-13.99 31.2,-31.24 0,-17.26 -13.92,-31.24 -31.2,-31.24 -17.28,0 -31.2,13.98 -31.2,31.24 0,17.26 13.92,31.24 31.2,31.24zm343.64 -31.24c0,17.26 -13.92,31.24 -31.2,31.24 -17.28,0 -31.31,-13.99 -31.31,-31.24 0,-17.26 14.03,-31.24 31.31,-31.24 17.28,0 31.2,13.98 31.2,31.24zm249.94 0c0,17.18 14.03,31.24 31.31,31.24l0 -62.49c-17.28,0 -31.31,14.06 -31.31,31.24zm-3717.81 281.18c17.17,0 31.2,14.05 31.2,31.24 0,17.17 -14.04,31.24 -31.2,31.24l0 -62.48zm312.45 62.48c17.28,0 31.2,-13.98 31.2,-31.24 0,-17.26 -13.92,-31.24 -31.2,-31.24 -17.28,0 -31.31,13.99 -31.31,31.24 0,17.26 14.04,31.24 31.31,31.24zm343.64 -31.24c0,17.26 -14.03,31.24 -31.2,31.24 -17.28,0 -31.31,-13.98 -31.31,-31.24 0,-17.26 14.04,-31.24 31.31,-31.24 17.17,0 31.2,13.99 31.2,31.24zm281.13 31.24c17.28,0 31.31,-13.98 31.31,-31.24 0,-17.26 -14.04,-31.24 -31.31,-31.24 -17.17,0 -31.2,13.99 -31.2,31.24 0,17.26 14.03,31.24 31.2,31.24zm343.76 -31.24c0,17.26 -14.04,31.24 -31.31,31.24 -17.28,0 -31.2,-13.98 -31.2,-31.24 0,-17.26 13.92,-31.24 31.2,-31.24 17.28,0 31.31,13.99 31.31,31.24zm281.13 31.24c17.28,0 31.2,-13.98 31.2,-31.24 0,-17.26 -13.92,-31.24 -31.2,-31.24 -17.28,0 -31.2,13.99 -31.2,31.24 0,17.26 13.92,31.24 31.2,31.24zm343.65 -31.24c0,17.26 -13.92,31.24 -31.2,31.24 -17.28,0 -31.31,-13.98 -31.31,-31.24 0,-17.26 14.03,-31.24 31.31,-31.24 17.28,0 31.2,13.99 31.2,31.24zm281.25 31.24c17.17,0 31.2,-13.98 31.2,-31.24 0,-17.26 -14.03,-31.24 -31.2,-31.24 -17.28,0 -31.31,13.99 -31.31,31.24 0,17.26 14.04,31.24 31.31,31.24zm343.64 -31.24c0,17.26 -14.03,31.24 -31.31,31.24 -17.16,0 -31.2,-13.98 -31.2,-31.24 0,-17.26 14.04,-31.24 31.2,-31.24 17.28,0 31.31,13.99 31.31,31.24zm281.13 31.24c17.28,0 31.31,-13.98 31.31,-31.24 0,-17.26 -14.04,-31.24 -31.31,-31.24 -17.28,0 -31.2,13.99 -31.2,31.24 0,17.26 13.92,31.24 31.2,31.24zm343.65 -31.24c0,17.26 -13.92,31.24 -31.2,31.24 -17.28,0 -31.2,-13.98 -31.2,-31.24 0,-17.26 13.92,-31.24 31.2,-31.24 17.28,0 31.2,13.99 31.2,31.24zm281.25 31.24c17.28,0 31.2,-13.98 31.2,-31.24 0,-17.26 -13.92,-31.24 -31.2,-31.24 -17.28,0 -31.31,13.99 -31.31,31.24 0,17.26 14.03,31.24 31.31,31.24zm312.44 0c-17.28,0 -31.31,-14.07 -31.31,-31.24 0,-17.19 14.03,-31.24 31.31,-31.24l0 62.48zm-3717.92 281.18c0,-17.19 -14.04,-31.24 -31.2,-31.24l0 62.49c17.17,0 31.2,-14.07 31.2,-31.24zm312.44 0c0,17.26 -13.92,31.24 -31.2,31.24 -17.28,0 -31.31,-13.99 -31.31,-31.24 0,-17.26 14.04,-31.24 31.31,-31.24 17.28,0 31.2,13.99 31.2,31.24zm281.25 31.24c17.17,0 31.2,-13.99 31.2,-31.24 0,-17.26 -14.03,-31.24 -31.2,-31.24 -17.28,0 -31.31,13.99 -31.31,31.24 0,17.26 14.04,31.24 31.31,31.24zm343.65 -31.24c0,17.26 -14.04,31.24 -31.31,31.24 -17.17,0 -31.2,-13.99 -31.2,-31.24 0,-17.26 14.03,-31.24 31.2,-31.24 17.28,0 31.31,13.99 31.31,31.24zm281.13 31.24c17.28,0 31.31,-13.99 31.31,-31.24 0,-17.26 -14.04,-31.24 -31.31,-31.24 -17.28,0 -31.2,13.99 -31.2,31.24 0,17.26 13.92,31.24 31.2,31.24zm343.64 -31.24c0,17.26 -13.92,31.24 -31.2,31.24 -17.28,0 -31.2,-13.99 -31.2,-31.24 0,-17.26 13.92,-31.24 31.2,-31.24 17.28,0 31.2,13.99 31.2,31.24zm281.25 31.24c17.28,0 31.2,-13.99 31.2,-31.24 0,-17.26 -13.92,-31.24 -31.2,-31.24 -17.28,0 -31.31,13.99 -31.31,31.24 0,17.26 14.03,31.24 31.31,31.24zm343.65 -31.24c0,17.26 -14.03,31.24 -31.2,31.24 -17.28,0 -31.31,-13.99 -31.31,-31.24 0,-17.26 14.04,-31.24 31.31,-31.24 17.17,0 31.2,13.99 31.2,31.24zm281.13 31.24c17.28,0 31.31,-13.99 31.31,-31.24 0,-17.26 -14.03,-31.24 -31.31,-31.24 -17.16,0 -31.2,13.99 -31.2,31.24 0,17.26 14.04,31.24 31.2,31.24zm343.76 -31.24c0,17.26 -14.04,31.24 -31.31,31.24 -17.28,0 -31.2,-13.99 -31.2,-31.24 0,-17.26 13.92,-31.24 31.2,-31.24 17.28,0 31.31,13.99 31.31,31.24zm281.13 31.24c17.28,0 31.2,-13.99 31.2,-31.24 0,-17.26 -13.92,-31.24 -31.2,-31.24 -17.28,0 -31.2,13.99 -31.2,31.24 0,17.26 13.92,31.24 31.2,31.24zm343.64 -31.24c0,17.26 -13.92,31.24 -31.2,31.24 -17.28,0 -31.31,-13.99 -31.31,-31.24 0,-17.26 14.03,-31.24 31.31,-31.24 17.28,0 31.2,13.99 31.2,31.24zm249.94 0c0,17.18 14.03,31.24 31.31,31.24l0 -62.49c-17.28,0 -31.31,14.06 -31.31,31.24zm-3717.81 281.18c17.17,0 31.2,14.05 31.2,31.24 0,17.18 -14.04,31.24 -31.2,31.24l0 -62.48zm312.45 62.48c17.28,0 31.2,-13.99 31.2,-31.24 0,-17.26 -13.92,-31.24 -31.2,-31.24 -17.28,0 -31.31,13.98 -31.31,31.24 0,17.26 14.04,31.24 31.31,31.24zm343.64 -31.24c0,17.26 -14.03,31.24 -31.2,31.24 -17.28,0 -31.31,-13.99 -31.31,-31.24 0,-17.26 14.04,-31.24 31.31,-31.24 17.17,0 31.2,13.98 31.2,31.24zm281.13 31.24c17.28,0 31.31,-13.99 31.31,-31.24 0,-17.26 -14.04,-31.24 -31.31,-31.24 -17.17,0 -31.2,13.98 -31.2,31.24 0,17.26 14.03,31.24 31.2,31.24zm343.76 -31.24c0,17.26 -14.04,31.24 -31.31,31.24 -17.28,0 -31.2,-13.99 -31.2,-31.24 0,-17.26 13.92,-31.24 31.2,-31.24 17.28,0 31.31,13.98 31.31,31.24zm281.13 31.24c17.28,0 31.2,-13.99 31.2,-31.24 0,-17.26 -13.92,-31.24 -31.2,-31.24 -17.28,0 -31.2,13.98 -31.2,31.24 0,17.26 13.92,31.24 31.2,31.24zm343.65 -31.24c0,17.26 -13.92,31.24 -31.2,31.24 -17.28,0 -31.31,-13.99 -31.31,-31.24 0,-17.26 14.03,-31.24 31.31,-31.24 17.28,0 31.2,13.98 31.2,31.24zm281.25 31.24c17.17,0 31.2,-13.99 31.2,-31.24 0,-17.26 -14.03,-31.24 -31.2,-31.24 -17.28,0 -31.31,13.98 -31.31,31.24 0,17.26 14.04,31.24 31.31,31.24zm343.64 -31.24c0,17.26 -14.03,31.24 -31.31,31.24 -17.16,0 -31.2,-13.99 -31.2,-31.24 0,-17.26 14.04,-31.24 31.2,-31.24 17.28,0 31.31,13.98 31.31,31.24zm281.13 31.24c17.28,0 31.31,-13.99 31.31,-31.24 0,-17.26 -14.04,-31.24 -31.31,-31.24 -17.28,0 -31.2,13.98 -31.2,31.24 0,17.26 13.92,31.24 31.2,31.24zm343.65 -31.24c0,17.26 -13.92,31.24 -31.2,31.24 -17.28,0 -31.2,-13.99 -31.2,-31.24 0,-17.26 13.92,-31.24 31.2,-31.24 17.28,0 31.2,13.98 31.2,31.24zm281.25 31.24c17.28,0 31.2,-13.99 31.2,-31.24 0,-17.26 -13.92,-31.24 -31.2,-31.24 -17.28,0 -31.31,13.98 -31.31,31.24 0,17.26 14.03,31.24 31.31,31.24zm312.44 0c-17.28,0 -31.31,-14.07 -31.31,-31.24 0,-17.19 14.03,-31.24 31.31,-31.24l0 62.48zm-3717.92 281.18c0,-17.19 -14.04,-31.24 -31.2,-31.24l0 62.49c17.17,0 31.2,-14.07 31.2,-31.24zm312.44 0c0,17.26 -13.92,31.24 -31.2,31.24 -17.28,0 -31.31,-13.98 -31.31,-31.24 0,-17.26 14.04,-31.24 31.31,-31.24 17.28,0 31.2,13.99 31.2,31.24zm281.25 31.24c17.17,0 31.2,-13.98 31.2,-31.24 0,-17.26 -14.03,-31.24 -31.2,-31.24 -17.28,0 -31.31,13.99 -31.31,31.24 0,17.26 14.04,31.24 31.31,31.24zm343.65 -31.24c0,17.26 -14.04,31.24 -31.31,31.24 -17.17,0 -31.2,-13.98 -31.2,-31.24 0,-17.26 14.03,-31.24 31.2,-31.24 17.28,0 31.31,13.99 31.31,31.24zm281.13 31.24c17.28,0 31.31,-13.98 31.31,-31.24 0,-17.26 -14.04,-31.24 -31.31,-31.24 -17.28,0 -31.2,13.99 -31.2,31.24 0,17.26 13.92,31.24 31.2,31.24zm343.64 -31.24c0,17.26 -13.92,31.24 -31.2,31.24 -17.28,0 -31.2,-13.98 -31.2,-31.24 0,-17.26 13.92,-31.24 31.2,-31.24 17.28,0 31.2,13.99 31.2,31.24zm281.25 31.24c17.28,0 31.2,-13.98 31.2,-31.24 0,-17.26 -13.92,-31.24 -31.2,-31.24 -17.28,0 -31.31,13.99 -31.31,31.24 0,17.26 14.03,31.24 31.31,31.24zm343.65 -31.24c0,17.26 -14.03,31.24 -31.2,31.24 -17.28,0 -31.31,-13.98 -31.31,-31.24 0,-17.26 14.04,-31.24 31.31,-31.24 17.17,0 31.2,13.99 31.2,31.24zm281.13 31.24c17.28,0 31.31,-13.98 31.31,-31.24 0,-17.26 -14.03,-31.24 -31.31,-31.24 -17.16,0 -31.2,13.99 -31.2,31.24 0,17.26 14.04,31.24 31.2,31.24zm343.76 -31.24c0,17.26 -14.04,31.24 -31.31,31.24 -17.28,0 -31.2,-13.98 -31.2,-31.24 0,-17.26 13.92,-31.24 31.2,-31.24 17.28,0 31.31,13.99 31.31,31.24zm281.13 31.24c17.28,0 31.2,-13.98 31.2,-31.24 0,-17.26 -13.92,-31.24 -31.2,-31.24 -17.28,0 -31.2,13.99 -31.2,31.24 0,17.26 13.92,31.24 31.2,31.24zm343.64 -31.24c0,17.26 -13.92,31.24 -31.2,31.24 -17.28,0 -31.31,-13.98 -31.31,-31.24 0,-17.26 14.03,-31.24 31.31,-31.24 17.28,0 31.2,13.99 31.2,31.24zm249.94 0c0,17.17 14.03,31.24 31.31,31.24l0 -62.49c-17.28,0 -31.31,14.06 -31.31,31.24zm-3717.81 281.18c17.17,0 31.2,14.06 31.2,31.24 0,17.18 -14.04,31.24 -31.2,31.24l0 -62.48zm312.45 62.48c17.28,0 31.2,-13.98 31.2,-31.24 0,-17.26 -13.92,-31.24 -31.2,-31.24 -17.28,0 -31.31,13.98 -31.31,31.24 0,17.26 14.04,31.24 31.31,31.24zm343.64 -31.24c0,17.26 -14.03,31.24 -31.2,31.24 -17.28,0 -31.31,-13.98 -31.31,-31.24 0,-17.26 14.04,-31.24 31.31,-31.24 17.17,0 31.2,13.98 31.2,31.24zm281.13 31.24c17.28,0 31.31,-13.98 31.31,-31.24 0,-17.26 -14.04,-31.24 -31.31,-31.24 -17.17,0 -31.2,13.98 -31.2,31.24 0,17.26 14.03,31.24 31.2,31.24zm343.76 -31.24c0,17.26 -14.04,31.24 -31.31,31.24 -17.28,0 -31.2,-13.98 -31.2,-31.24 0,-17.26 13.92,-31.24 31.2,-31.24 17.28,0 31.31,13.98 31.31,31.24zm281.13 31.24c17.28,0 31.2,-13.98 31.2,-31.24 0,-17.26 -13.92,-31.24 -31.2,-31.24 -17.28,0 -31.2,13.98 -31.2,31.24 0,17.26 13.92,31.24 31.2,31.24zm343.65 -31.24c0,17.26 -13.92,31.24 -31.2,31.24 -17.28,0 -31.31,-13.98 -31.31,-31.24 0,-17.26 14.03,-31.24 31.31,-31.24 17.28,0 31.2,13.98 31.2,31.24zm281.25 31.24c17.17,0 31.2,-13.98 31.2,-31.24 0,-17.26 -14.03,-31.24 -31.2,-31.24 -17.28,0 -31.31,13.98 -31.31,31.24 0,17.26 14.04,31.24 31.31,31.24zm343.64 -31.24c0,17.26 -14.03,31.24 -31.31,31.24 -17.16,0 -31.2,-13.98 -31.2,-31.24 0,-17.26 14.04,-31.24 31.2,-31.24 17.28,0 31.31,13.98 31.31,31.24zm281.13 31.24c17.28,0 31.31,-13.98 31.31,-31.24 0,-17.26 -14.04,-31.24 -31.31,-31.24 -17.28,0 -31.2,13.98 -31.2,31.24 0,17.26 13.92,31.24 31.2,31.24zm343.65 -31.24c0,17.26 -13.92,31.24 -31.2,31.24 -17.28,0 -31.2,-13.98 -31.2,-31.24 0,-17.26 13.92,-31.24 31.2,-31.24 17.28,0 31.2,13.98 31.2,31.24zm281.25 31.24c17.28,0 31.2,-13.98 31.2,-31.24 0,-17.26 -13.92,-31.24 -31.2,-31.24 -17.28,0 -31.31,13.98 -31.31,31.24 0,17.26 14.03,31.24 31.31,31.24zm312.44 0c-17.28,0 -31.31,-14.06 -31.31,-31.24 0,-17.19 14.03,-31.24 31.31,-31.24l0 62.48zm-3717.92 281.18c0,-17.19 -14.04,-31.24 -31.2,-31.24l0 62.49c17.17,0 31.2,-14.07 31.2,-31.25zm312.44 0c0,17.26 -13.92,31.25 -31.2,31.25 -17.28,0 -31.31,-13.99 -31.31,-31.25 0,-17.26 14.04,-31.24 31.31,-31.24 17.28,0 31.2,13.99 31.2,31.24zm281.25 31.25c17.17,0 31.2,-13.99 31.2,-31.25 0,-17.26 -14.03,-31.24 -31.2,-31.24 -17.28,0 -31.31,13.99 -31.31,31.24 0,17.26 14.04,31.25 31.31,31.25zm343.65 -31.25c0,17.26 -14.04,31.25 -31.31,31.25 -17.17,0 -31.2,-13.99 -31.2,-31.25 0,-17.26 14.03,-31.24 31.2,-31.24 17.28,0 31.31,13.99 31.31,31.24zm281.13 31.25c17.28,0 31.31,-13.99 31.31,-31.25 0,-17.26 -14.04,-31.24 -31.31,-31.24 -17.28,0 -31.2,13.99 -31.2,31.24 0,17.26 13.92,31.25 31.2,31.25zm343.64 -31.25c0,17.26 -13.92,31.25 -31.2,31.25 -17.28,0 -31.2,-13.99 -31.2,-31.25 0,-17.26 13.92,-31.24 31.2,-31.24 17.28,0 31.2,13.99 31.2,31.24zm281.25 31.25c17.28,0 31.2,-13.99 31.2,-31.25 0,-17.26 -13.92,-31.24 -31.2,-31.24 -17.28,0 -31.31,13.99 -31.31,31.24 0,17.26 14.03,31.25 31.31,31.25zm343.65 -31.25c0,17.26 -14.03,31.25 -31.2,31.25 -17.28,0 -31.31,-13.99 -31.31,-31.25 0,-17.26 14.04,-31.24 31.31,-31.24 17.17,0 31.2,13.99 31.2,31.24zm281.13 31.25c17.28,0 31.31,-13.99 31.31,-31.25 0,-17.26 -14.03,-31.24 -31.31,-31.24 -17.16,0 -31.2,13.99 -31.2,31.24 0,17.26 14.04,31.25 31.2,31.25zm343.76 -31.25c0,17.26 -14.04,31.25 -31.31,31.25 -17.28,0 -31.2,-13.99 -31.2,-31.25 0,-17.26 13.92,-31.24 31.2,-31.24 17.28,0 31.31,13.99 31.31,31.24zm281.13 31.25c17.28,0 31.2,-13.99 31.2,-31.25 0,-17.26 -13.92,-31.24 -31.2,-31.24 -17.28,0 -31.2,13.99 -31.2,31.24 0,17.26 13.92,31.25 31.2,31.25zm343.64 -31.25c0,17.26 -13.92,31.25 -31.2,31.25 -17.28,0 -31.31,-13.99 -31.31,-31.25 0,-17.26 14.03,-31.24 31.31,-31.24 17.28,0 31.2,13.99 31.2,31.24zm249.94 0c0,17.18 14.03,31.25 31.31,31.25l0 -62.49c-17.28,0 -31.31,14.06 -31.31,31.24zm-3717.81 312.42l0 -31.24c17.17,0 31.2,14.06 31.2,31.24l-31.2 0zm312.45 -31.24c-17.17,0 -31.31,14.06 -31.31,31.24l62.51 0c0,-17.19 -14.03,-31.24 -31.2,-31.24zm281.13 31.24c0,-17.19 14.04,-31.24 31.31,-31.24 17.17,0 31.2,14.06 31.2,31.24l-62.51 0zm343.65 -31.24c-17.17,0 -31.2,14.06 -31.2,31.24l62.51 0c0,-17.19 -14.04,-31.24 -31.31,-31.24zm281.25 31.24c0,-17.19 14.03,-31.24 31.2,-31.24 17.17,0 31.31,14.06 31.31,31.24l-62.51 0zm343.64 -31.24c-17.17,0 -31.2,14.06 -31.2,31.24l62.4 0c0,-17.19 -14.04,-31.24 -31.2,-31.24zm281.13 31.24c0,-17.19 14.15,-31.24 31.31,-31.24 17.17,0 31.2,14.06 31.2,31.24l-62.51 0zm343.76 -31.24c-17.28,0 -31.31,14.06 -31.31,31.24l62.51 0c0,-17.19 -14.03,-31.24 -31.2,-31.24zm281.13 31.24c0,-17.19 14.04,-31.24 31.2,-31.24 17.28,0 31.31,14.06 31.31,31.24l-62.51 0zm343.65 -31.24c-17.17,0 -31.2,14.06 -31.2,31.24l62.51 0c0,-17.19 -14.15,-31.24 -31.31,-31.24zm281.25 31.24c0,-17.19 14.03,-31.24 31.2,-31.24 17.17,0 31.2,14.06 31.2,31.24l-62.39 0zm343.64 -31.24c-17.17,0 -31.31,14.06 -31.31,31.24l62.51 0c0,-17.19 -14.03,-31.24 -31.2,-31.24zm281.13 31.24c0,-17.19 14.03,-31.24 31.31,-31.24l0 31.24 -31.31 0z"/>
    </g>
   </g>
   <path class="fil0" d="M7539.8 4326c-880.55,-133.73 -1555.31,-894 -1555.31,-1811.9 0,-917.89 674.76,-1678.16 1555.31,-1811.9l0 3623.79z"/>
  </g>
 </g>
</svg>
