<?xml version="1.0" encoding="UTF-8"?>
<!DOCTYPE svg PUBLIC "-//W3C//DTD SVG 1.1//EN" "http://www.w3.org/Graphics/SVG/1.1/DTD/svg11.dtd">
<!-- Creator: CorelDRAW 2019 (64-Bit) -->
<svg xmlns="http://www.w3.org/2000/svg" xml:space="preserve" width="0.832457in" height="0.832457in" version="1.1" style="shape-rendering:geometricPrecision; text-rendering:geometricPrecision; image-rendering:optimizeQuality; fill-rule:evenodd; clip-rule:evenodd"
viewBox="0 0 832.46 832.46"
 xmlns:xlink="http://www.w3.org/1999/xlink"
 xmlns:xodm="http://www.corel.com/coreldraw/odm/2003">
 <defs>
  <style type="text/css">
   <![CDATA[
    .fil1 {fill:black}
    .fil4 {fill:#030000}
    .fil2 {fill:#33DC76}
    .fil3 {fill:#3A9960}
    .fil0 {fill:white}
   ]]>
  </style>
 </defs>
 <g id="Layer_x0020_1">
  <metadata id="CorelCorpID_0Corel-Layer"/>
  <g id="_2463867331424">
   <circle class="fil0" cx="416.23" cy="416.23" r="416.23"/>
   <circle class="fil1" cx="416.23" cy="416.23" r="344.87"/>
   <g>
    <polygon id="Vector_86" class="fil2" points="327.12,78.36 332.37,77.74 337.69,77.32 343.08,77.01 348.51,76.8 353.98,76.7 359.48,76.8 365.03,77.01 370.59,77.32 376.16,77.74 381.76,78.36 387.35,78.99 392.93,79.82 398.52,80.66 404.08,81.59 409.62,82.74 415.13,83.89 420.6,85.13 426.03,86.49 431.4,87.84 436.74,89.41 441.98,90.97 447.17,92.63 452.28,94.41 457.3,96.18 462.24,98.05 467.07,99.93 471.8,101.91 476.41,103.89 480.91,105.97 485.29,108.16 489.53,110.34 493.63,112.53 495.76,113.68 497.86,114.82 499.95,116.07 502.03,117.32 504.09,118.47 506.13,119.72 508.15,120.97 510.15,122.22 512.14,123.47 514.11,124.72 516.06,125.97 518,127.22 519.91,128.57 521.81,129.82 523.69,131.18 525.54,132.43 527.37,133.78 529.19,135.13 530.98,136.39 532.77,137.74 534.53,139.09 536.27,140.45 537.98,141.8 539.67,143.16 541.35,144.51 543.01,145.87 544.63,147.32 546.25,148.68 547.83,150.03 549.39,151.49 550.94,152.84 552.45,154.3 554.19,155.87 555.85,157.43 557.45,158.99 559,160.45 560.48,161.91 561.93,163.37 563.33,164.72 564.69,166.07 566,167.43 567.27,168.68 568.52,170.03 569.72,171.28 570.91,172.53 572.08,173.78 573.22,175.03 574.35,176.28 575.46,177.53 576.57,178.89 577.66,180.13 578.76,181.49 579.85,182.74 580.95,184.09 582.06,185.45 583.17,186.91 584.29,188.37 585.43,189.82 586.6,191.39 587.79,192.95 589,194.51 590.25,196.18 591.53,197.95 592.83,199.72 593.17,200.13 593.51,200.66 593.83,201.07 594.13,201.59 594.43,202.01 594.74,202.53 595.05,203.05 595.36,203.47 597.4,207.53 602.5,213.26 607.46,219.09 612.29,225.03 616.98,231.07 621.52,237.11 625.91,243.36 630.16,249.72 634.26,256.18 638.19,262.74 641.96,269.41 645.57,276.18 649.01,282.95 652.29,289.93 655.38,296.91 658.3,303.99 661.03,311.18 663.58,318.47 665.94,325.87 668.11,333.26 670.08,340.87 671.85,348.47 673.43,356.07 674.79,363.89 675.94,371.7 676.89,379.61 677.61,387.63 678.12,395.76 678.4,403.89 678.45,412.01 678.28,420.34 677.87,428.68 677.22,437.01 676.12,447.22 674.69,457.32 672.93,467.32 670.86,477.32 668.46,487.11 665.76,496.7 662.76,506.28 659.45,515.76 655.86,525.03 651.98,534.09 647.82,543.16 643.38,551.91 638.67,560.55 633.72,569.09 628.5,577.43 623.02,585.55 617.3,593.47 611.34,601.18 605.15,608.78 598.74,616.07 592.09,623.26 585.24,630.13 578.17,636.8 570.9,643.26 563.43,649.41 555.78,655.34 547.93,661.07 539.9,666.49 531.7,671.7 523.34,676.59 514.81,681.28 506.12,685.55 504.36,686.39 502.62,687.22 500.89,688.05 499.16,688.89 497.44,689.61 495.72,690.34 494.01,691.18 492.3,691.91 490.59,692.63 488.87,693.26 487.16,693.99 485.44,694.72 483.72,695.34 482.01,696.07 480.28,696.7 478.54,697.32 476.79,697.95 475.04,698.57 473.27,699.2 471.48,699.82 469.69,700.45 467.89,701.07 466.07,701.7 464.22,702.32 462.37,702.84 460.5,703.47 458.6,703.99 456.69,704.61 454.75,705.24 452.78,705.76 450.79,706.39 448.78,706.91 444.8,708.05 440.77,708.99 436.67,710.03 432.53,710.87 428.33,711.7 424.09,712.53 419.8,713.16 415.46,713.89 411.1,714.41 406.69,714.93 402.26,715.45 397.8,715.76 393.31,716.07 388.79,716.39 384.27,716.59 379.72,716.7 375.16,716.8 370.6,716.8 366.03,716.7 361.45,716.59 356.88,716.39 352.31,716.07 347.75,715.76 343.19,715.45 338.65,714.93 334.13,714.41 329.63,713.89 325.15,713.26 320.7,712.53 316.28,711.7 311.88,710.87 307.53,709.93 302.26,708.78 297.07,707.53 291.95,706.18 286.93,704.72 281.98,703.26 277.09,701.7 272.29,700.13 267.55,698.47 262.89,696.7 258.29,694.82 253.76,692.95 249.29,690.97 244.88,688.99 240.54,686.91 236.25,684.72 232.02,682.53 227.83,680.24 223.7,677.95 219.63,675.55 215.6,673.05 211.63,670.55 207.69,667.95 203.8,665.34 199.95,662.53 196.14,659.82 192.37,657.01 188.63,654.09 184.93,651.18 181.26,648.16 177.62,645.03 174.01,641.91 170.43,638.78 169.76,638.16 169.1,637.53 168.43,636.91 167.77,636.39 167.1,635.76 166.43,635.13 165.78,634.51 165.11,633.89 164.45,633.26 163.8,632.63 163.14,631.91 162.51,631.28 161.86,630.66 161.24,630.03 160.61,629.41 160,628.89 159.06,627.84 158.08,626.91 157.06,625.76 156,624.61 154.9,623.47 153.78,622.22 152.63,620.86 151.45,619.61 150.27,618.16 149.05,616.8 147.83,615.34 146.59,613.89 145.35,612.43 144.1,610.86 142.85,609.41 141.6,607.84 140.37,606.28 139.14,604.82 137.93,603.26 136.72,601.7 135.55,600.24 134.39,598.68 133.27,597.22 132.16,595.76 131.1,594.41 130.07,592.95 129.08,591.59 128.14,590.34 127.24,589.09 126.39,587.84 125.59,586.7 124.85,585.55 124.4,584.82 123.95,584.09 123.51,583.47 123.07,582.74 122.63,582.01 122.2,581.28 121.77,580.66 121.32,579.93 120.87,579.2 120.41,578.57 119.94,577.84 119.46,577.22 118.96,576.59 118.44,575.87 117.9,575.24 117.33,574.61 113.27,570.76 111.87,568.89 110.55,567.11 109.29,565.55 108.07,563.99 106.89,562.43 105.75,560.97 104.62,559.51 103.51,557.95 102.39,556.49 101.27,554.93 100.12,553.37 98.95,551.8 97.74,550.03 96.48,548.16 95.16,546.18 93.77,544.09 74.12,510.87 85.13,545.34 86.03,547.53 86.9,549.51 87.74,551.49 88.55,553.47 89.33,555.34 90.09,557.11 90.83,558.89 91.55,560.66 92.27,562.32 92.96,563.99 93.66,565.66 94.36,567.22 95.06,568.89 95.76,570.45 96.46,572.01 97.19,573.57 97.91,575.13 98.66,576.7 99.43,578.36 100.24,579.93 101.06,581.59 101.91,583.16 102.8,584.93 103.72,586.59 104.69,588.36 105.69,590.13 106.76,592.01 107.86,593.89 109.03,595.87 110.25,597.84 111.53,599.93 112.87,602.11 113.26,602.74 113.67,603.47 114.11,604.2 114.56,604.93 115.03,605.76 115.5,606.59 115.98,607.43 116.48,608.26 116.96,608.99 117.45,609.82 117.94,610.55 118.43,611.28 118.89,612.01 119.34,612.53 119.78,613.05 120.19,613.57 120.69,613.68 121.44,614.2 122.44,615.03 123.66,616.07 125.04,617.43 126.55,618.89 128.14,620.45 129.78,622.11 131.43,623.78 133.06,625.55 134.61,627.11 136.06,628.68 137.36,630.03 138.48,631.18 139.37,632.01 140,632.63 141.33,633.89 142.66,635.13 144.01,636.39 145.34,637.63 146.69,638.89 148.05,640.13 149.41,641.39 150.79,642.53 152.16,643.78 153.57,645.03 154.98,646.18 156.4,647.43 157.84,648.57 159.3,649.82 160.78,650.97 162.27,652.22 167.22,655.97 172.2,659.72 177.24,663.37 182.31,666.91 187.44,670.34 192.62,673.68 197.85,676.91 203.12,680.13 208.45,683.16 213.83,686.18 219.26,689.09 224.74,691.8 230.28,694.51 235.86,697.11 241.51,699.61 247.22,702.01 252.96,704.3 258.78,706.49 264.65,708.57 270.58,710.55 276.57,712.53 282.61,714.3 288.72,715.97 294.89,717.53 301.12,718.99 307.41,720.34 313.77,721.59 320.19,722.74 326.67,723.78 333.22,724.61 339.84,725.45 346.53,726.18 352.83,726.7 359.16,727.11 365.52,727.32 371.91,727.53 378.32,727.63 384.76,727.53 391.19,727.32 397.64,727.11 404.1,726.7 410.56,726.18 417.02,725.55 423.45,724.82 429.88,723.99 436.31,722.95 442.69,721.91 449.06,720.76 455.4,719.41 461.7,718.05 467.96,716.59 474.19,714.93 480.36,713.26 486.48,711.39 492.55,709.51 498.56,707.43 504.5,705.34 510.37,703.05 516.16,700.76 521.89,698.26 527.53,695.76 533.08,693.05 538.54,690.34 543.9,687.53 546.07,686.39 548.22,685.13 550.35,683.99 552.45,682.74 554.55,681.59 556.62,680.45 558.67,679.2 560.72,678.05 562.74,676.8 564.75,675.66 566.74,674.41 568.72,673.26 570.67,672.01 572.63,670.76 574.57,669.61 576.5,668.37 578.41,667.11 580.33,665.87 582.22,664.51 584.11,663.26 585.98,662.01 587.86,660.66 589.72,659.3 591.58,658.05 593.43,656.7 595.28,655.24 597.12,653.89 598.95,652.53 600.79,651.07 602.62,649.61 604.44,648.16 606.28,646.7 608.65,644.72 611.05,642.74 613.45,640.66 615.87,638.57 618.29,636.39 620.72,634.2 623.14,632.01 625.57,629.72 628,627.43 630.41,625.13 632.83,622.74 635.22,620.34 637.62,617.95 640,615.45 642.35,613.05 644.69,610.55 647.01,608.05 649.3,605.45 651.57,602.95 653.8,600.34 656.01,597.74 658.17,595.13 660.31,592.53 662.4,589.93 664.46,587.32 666.48,584.72 668.43,582.11 670.36,579.41 672.22,576.8 674.04,574.2 675.8,571.59 677.5,568.99 679.74,565.45 681.93,561.91 684.09,558.47 686.22,554.93 688.32,551.39 690.38,547.95 692.4,544.41 694.39,540.87 696.35,537.32 698.27,533.68 700.14,530.13 701.98,526.49 703.79,522.84 705.56,519.2 707.29,515.55 708.98,511.8 710.63,508.05 712.25,504.2 713.81,500.45 715.35,496.49 716.84,492.63 718.3,488.57 719.7,484.61 721.08,480.55 722.43,476.39 723.7,472.22 724.95,467.95 726.16,463.57 727.33,459.2 728.45,454.72 729.53,450.24 730.57,445.66 731.58,440.87 732.53,436.07 733.4,431.28 734.2,426.49 734.95,421.7 735.63,417.01 736.24,412.22 736.78,407.53 737.26,402.74 737.67,398.05 738.02,393.26 738.31,388.57 738.53,383.89 738.69,379.2 738.78,374.51 738.81,369.82 738.78,365.13 738.69,360.45 738.53,355.87 738.32,351.18 738.05,346.59 737.7,342.01 737.31,337.43 736.86,332.84 736.35,328.26 735.78,323.68 735.14,319.09 734.45,314.61 733.72,310.13 732.91,305.66 732.05,301.18 731.14,296.7 730.38,293.16 729.59,289.72 728.77,286.28 727.93,282.84 727.05,279.51 726.15,276.18 725.22,272.95 724.27,269.72 723.28,266.49 722.27,263.26 721.22,260.13 720.15,256.91 719.06,253.78 717.93,250.76 716.77,247.63 715.58,244.61 714.36,241.59 713.12,238.57 711.84,235.55 710.54,232.53 709.2,229.51 707.84,226.49 706.43,223.57 705.02,220.55 703.56,217.53 702.07,214.61 700.55,211.59 699,208.68 697.43,205.66 695.81,202.63 694.16,199.61 692.5,196.59 692.12,195.97 691.66,195.24 691.15,194.51 690.6,193.57 690.01,192.74 689.4,191.8 688.81,190.87 688.22,189.93 687.66,188.99 687.15,188.16 686.69,187.32 686.32,186.49 686.03,185.76 685.84,185.13 685.77,184.61 685.83,184.09 656.24,153.47 655.55,152.84 654.79,152.11 653.96,151.39 653.08,150.55 652.14,149.72 651.16,148.89 650.13,147.95 649.06,147.01 647.94,146.07 646.81,145.13 645.63,144.2 644.43,143.26 643.22,142.22 641.98,141.28 640.74,140.24 639.48,139.2 638.22,138.26 636.96,137.22 635.72,136.28 634.46,135.34 633.22,134.41 632.02,133.47 630.82,132.53 629.65,131.7 628.51,130.86 627.4,130.03 626.32,129.2 625.3,128.47 624.31,127.84 623.38,127.11 622.5,126.59 621.67,125.97 619.27,124.41 616.85,122.84 614.43,121.28 611.98,119.72 609.53,118.26 607.07,116.7 604.59,115.13 602.1,113.68 599.59,112.11 597.08,110.66 594.55,109.2 592.01,107.74 589.45,106.39 586.88,104.93 584.31,103.57 581.72,102.22 579.12,100.87 576.51,99.51 573.88,98.16 571.25,96.91 568.59,95.66 565.93,94.41 563.25,93.26 560.56,92.01 557.86,90.87 555.15,89.82 552.43,88.68 549.69,87.63 546.93,86.59 544.17,85.66 541.4,84.72 538.62,83.78 536.03,82.95 533.45,82.11 530.89,81.39 528.34,80.55 525.79,79.82 523.25,79.09 520.72,78.36 518.19,77.63 515.66,76.91 513.14,76.28 510.63,75.66 508.13,74.93 505.63,74.3 503.13,73.78 500.63,73.16 498.13,72.63 495.64,72.01 493.15,71.49 490.66,70.97 488.17,70.45 485.69,70.03 483.19,69.51 480.7,69.09 478.22,68.68 475.72,68.26 473.22,67.84 470.72,67.53 468.22,67.11 465.72,66.8 463.19,66.49 460.67,66.18 458.15,65.97 442.16,64.72 440.95,64.61 439.72,64.51 438.51,64.51 437.29,64.41 436.06,64.41 434.83,64.41 433.6,64.3 432.37,64.3 431.13,64.3 429.89,64.2 428.65,64.2 427.41,64.2 426.16,64.2 424.93,64.2 423.67,64.2 422.41,64.2 421.16,64.2 419.89,64.2 418.63,64.2 417.37,64.3 416.1,64.3 414.83,64.3 413.55,64.41 412.28,64.41 410.98,64.51 409.7,64.51 408.41,64.61 407.12,64.61 405.83,64.72 404.53,64.72 403.22,64.82 401.91,64.93 400.33,65.03 398.75,65.13 397.14,65.24 395.54,65.34 393.93,65.45 392.31,65.66 390.69,65.76 389.05,65.97 387.41,66.07 385.78,66.18 384.13,66.39 382.48,66.59 380.84,66.7 379.19,66.91 377.55,67.11 375.9,67.32 374.27,67.53 372.62,67.74 370.98,67.95 369.35,68.16 367.72,68.36 366.1,68.68 364.5,68.89 362.88,69.2 361.29,69.41 359.7,69.72 358.12,70.03 356.55,70.24 355,70.55 353.45,70.87 351.93,71.18 350.4,71.59 349.57,71.7 348.48,71.91 347.15,72.22 345.64,72.53 343.98,72.84 342.22,73.26 340.37,73.68 338.51,74.09 336.65,74.51 334.83,75.03 333.11,75.55 331.51,76.07 330.07,76.59 328.83,77.22 327.84,77.74 "/>
    <polygon id="Vector_87" class="fil3" points="120.19,613.57 122.19,616.7 124.29,619.93 126.46,623.05 128.72,626.28 131.04,629.41 133.43,632.63 135.9,635.76 138.43,638.89 141.03,642.11 143.67,645.24 146.37,648.37 149.12,651.39 151.93,654.51 154.78,657.53 157.66,660.55 160.59,663.57 163.56,666.59 166.55,669.51 169.58,672.43 172.62,675.24 175.69,678.05 178.79,680.86 181.89,683.57 185.01,686.28 188.13,688.89 191.27,691.49 194.4,693.99 197.54,696.39 200.67,698.78 203.79,701.07 206.9,703.36 210.01,705.55 213.39,707.84 216.83,710.13 220.32,712.43 223.85,714.72 227.43,717.01 231.07,719.2 234.75,721.39 238.48,723.47 242.26,725.66 246.09,727.74 249.98,729.72 253.93,731.8 257.91,733.78 261.95,735.66 266.06,737.53 270.2,739.41 274.41,741.18 278.69,742.95 283.01,744.72 287.38,746.39 291.82,747.95 296.31,749.51 300.86,751.07 305.46,752.43 310.13,753.89 314.86,755.24 319.65,756.49 324.5,757.63 329.4,758.78 334.37,759.93 339.41,760.87 344.51,761.8 345.95,762.11 347.41,762.32 348.89,762.63 350.38,762.84 351.87,763.16 353.38,763.47 354.91,763.68 356.44,763.99 357.98,764.2 359.54,764.51 361.1,764.82 362.69,765.03 364.27,765.24 365.86,765.55 367.46,765.76 369.07,765.97 388.08,767.84 393.45,768.05 398.77,768.16 404.03,768.26 409.22,768.26 414.38,768.16 419.48,768.05 424.55,767.84 429.57,767.63 434.56,767.32 439.51,766.91 444.43,766.49 449.31,765.97 454.17,765.34 459.02,764.72 463.83,763.99 468.64,763.16 473.43,762.32 478.22,761.39 483,760.45 487.76,759.41 492.54,758.26 497.31,757.11 502.09,755.86 506.88,754.51 511.69,753.16 516.5,751.7 521.33,750.13 526.19,748.57 531.08,746.91 535.98,745.13 540.93,743.36 545.9,741.49 550.3,739.72 554.69,737.95 559.08,735.97 563.46,733.99 567.86,731.91 572.24,729.72 576.61,727.43 580.96,725.13 585.31,722.74 589.63,720.24 593.93,717.63 598.22,715.03 602.46,712.32 606.69,709.51 610.88,706.7 615.04,703.78 619.16,700.87 623.25,697.84 627.29,694.82 631.28,691.7 635.22,688.57 639.13,685.45 642.96,682.22 646.76,678.89 650.5,675.66 654.16,672.32 657.77,668.99 661.31,665.55 664.78,662.22 668.17,658.78 671.5,655.34 674.75,651.91 675.46,651.18 676.19,650.34 676.88,649.61 677.57,648.89 678.25,648.16 678.93,647.43 679.59,646.7 680.26,645.97 680.91,645.24 681.57,644.41 682.24,643.68 682.89,642.95 683.56,642.22 684.22,641.39 684.89,640.55 685.58,639.82 686.83,638.26 688.03,636.8 689.19,635.34 690.31,633.99 691.38,632.63 692.43,631.39 693.43,630.13 694.41,628.89 695.36,627.63 696.29,626.49 697.19,625.34 698.07,624.09 698.93,622.95 699.79,621.8 700.63,620.66 701.46,619.51 702.3,618.36 703.12,617.22 703.95,616.07 704.79,614.82 705.62,613.68 706.48,612.43 707.33,611.18 708.2,609.82 709.1,608.47 710.02,607.11 710.95,605.66 711.91,604.2 712.91,602.63 713.93,601.07 715,599.41 716.09,597.74 720.67,590.34 725.05,582.95 729.22,575.34 733.19,567.63 736.96,559.93 740.53,552.01 743.89,543.99 747.05,535.97 750.01,527.84 752.76,519.61 755.31,511.39 757.65,503.05 759.79,494.61 761.72,486.18 763.45,477.63 764.98,469.2 766.31,460.55 767.43,452.01 768.33,443.36 769.04,434.82 769.54,426.18 769.83,417.53 769.91,408.89 769.8,400.24 769.48,391.7 768.94,383.05 768.22,374.51 767.28,365.97 766.12,357.53 764.77,349.09 763.2,340.66 761.44,332.32 760.48,328.16 759.46,324.09 758.4,319.93 757.28,315.87 756.1,311.8 754.88,307.74 753.6,303.78 752.27,299.72 750.89,295.76 749.46,291.8 747.98,287.84 746.45,283.89 744.88,279.93 743.26,276.07 741.58,272.11 739.86,268.26 738.1,264.51 736.29,260.66 734.43,256.91 732.54,253.05 730.59,249.3 728.61,245.66 726.59,241.91 724.52,238.26 722.41,234.61 720.26,230.97 718.07,227.32 715.84,223.78 713.57,220.24 711.26,216.7 708.93,213.16 706.54,209.72 705.91,208.89 705.29,208.05 704.66,207.32 704.06,206.59 703.44,205.97 702.84,205.24 702.24,204.41 701.63,203.57 685.82,184.09 685.76,184.61 685.83,185.13 686.02,185.76 686.31,186.49 686.69,187.32 687.14,188.16 687.65,188.99 688.2,189.93 688.8,190.87 689.39,191.8 690,192.74 690.59,193.57 691.14,194.51 691.65,195.24 692.11,195.97 692.48,196.59 694.15,199.61 695.8,202.63 697.41,205.66 698.98,208.68 700.54,211.59 702.06,214.61 703.55,217.63 705,220.55 706.43,223.57 707.83,226.49 709.19,229.51 710.53,232.53 711.83,235.55 713.11,238.57 714.35,241.59 715.57,244.61 716.76,247.63 717.91,250.76 719.05,253.89 720.14,257.01 721.22,260.13 722.26,263.26 723.27,266.49 724.26,269.72 725.22,272.95 726.14,276.18 727.04,279.51 727.91,282.84 728.76,286.28 729.58,289.72 730.37,293.16 731.13,296.7 732.04,301.18 732.9,305.66 733.7,310.13 734.44,314.61 735.13,319.2 735.77,323.68 736.34,328.26 736.85,332.84 737.3,337.43 737.69,342.01 738.04,346.59 738.31,351.18 738.52,355.87 738.67,360.45 738.77,365.13 738.8,369.82 738.77,374.51 738.67,379.2 738.52,383.89 738.3,388.57 738.01,393.26 737.66,398.05 737.25,402.74 736.77,407.53 736.22,412.22 735.61,417.01 734.94,421.8 734.19,426.49 733.39,431.28 732.52,436.07 731.57,440.87 730.56,445.66 729.52,450.24 728.44,454.72 727.32,459.2 726.15,463.57 724.94,467.95 723.69,472.22 722.41,476.39 721.07,480.55 719.69,484.61 718.29,488.68 716.83,492.63 715.34,496.49 713.8,500.45 712.24,504.3 710.62,508.05 708.96,511.8 707.28,515.55 705.55,519.2 703.78,522.84 701.98,526.49 700.13,530.13 698.26,533.68 696.34,537.32 694.38,540.87 692.39,544.41 690.37,547.95 688.31,551.39 686.22,554.93 684.08,558.47 681.93,561.91 679.72,565.45 677.48,568.99 675.79,571.59 674.03,574.2 672.22,576.8 670.35,579.41 668.43,582.11 666.46,584.72 664.45,587.32 662.39,589.93 660.3,592.53 658.16,595.13 656,597.74 653.79,600.34 651.56,602.95 649.29,605.45 647,608.05 644.69,610.55 642.34,613.05 639.98,615.55 637.61,617.95 635.22,620.34 632.82,622.74 630.4,625.13 627.98,627.43 625.56,629.72 623.13,632.01 620.7,634.2 618.28,636.39 615.85,638.57 613.44,640.66 611.04,642.74 608.64,644.72 606.27,646.7 604.43,648.16 602.61,649.61 600.78,651.07 598.94,652.53 597.11,653.89 595.27,655.34 593.43,656.7 591.57,658.05 589.7,659.41 587.85,660.66 585.98,662.01 584.1,663.26 582.22,664.51 580.32,665.87 578.4,667.11 576.48,668.37 574.56,669.61 572.62,670.86 570.66,672.01 568.7,673.26 566.72,674.51 564.74,675.66 562.72,676.91 560.7,678.05 558.66,679.2 556.61,680.45 554.54,681.59 552.44,682.84 550.34,683.99 548.2,685.13 546.06,686.39 543.89,687.53 538.53,690.34 533.07,693.16 527.52,695.76 521.88,698.26 516.15,700.76 510.36,703.05 504.48,705.34 498.55,707.43 492.54,709.51 486.48,711.39 480.35,713.26 474.17,714.93 467.95,716.59 461.69,718.05 455.39,719.41 449.05,720.76 442.69,721.91 436.29,722.95 429.87,723.99 423.44,724.82 417.01,725.55 410.55,726.18 404.09,726.7 397.63,727.11 391.19,727.43 384.74,727.53 378.31,727.63 371.9,727.53 365.51,727.43 359.15,727.11 352.82,726.7 346.52,726.18 339.83,725.45 333.22,724.61 326.66,723.78 320.17,722.74 313.76,721.59 307.4,720.34 301.11,718.99 294.88,717.53 288.72,715.97 282.6,714.3 276.56,712.53 270.57,710.66 264.64,708.57 258.77,706.49 252.95,704.3 247.2,702.01 241.5,699.61 235.85,697.11 230.27,694.51 224.72,691.8 219.25,689.09 213.82,686.18 208.44,683.16 203.11,680.13 197.84,676.91 192.61,673.68 187.43,670.34 182.3,666.91 177.22,663.37 172.19,659.72 167.2,655.97 162.26,652.22 160.77,650.97 159.29,649.82 157.83,648.68 156.39,647.43 154.96,646.18 153.56,645.03 152.15,643.78 150.77,642.63 149.4,641.39 148.04,640.13 146.69,638.89 145.33,637.63 144,636.39 142.65,635.13 141.32,633.99 139.98,632.63 139.36,632.11 138.46,631.18 137.35,630.03 136.05,628.68 134.6,627.11 133.05,625.55 131.43,623.78 129.77,622.11 128.13,620.45 126.54,618.89 125.03,617.43 123.65,616.07 122.43,615.03 121.43,614.2 120.67,613.68 "/>
    <polygon id="Vector_88" class="fil3" points="327.12,78.36 326.31,78.26 325.27,78.26 324.03,78.47 322.59,78.68 320.98,79.09 319.19,79.51 317.27,80.03 315.2,80.66 313.02,81.39 310.74,82.11 308.36,82.95 305.91,83.89 303.41,84.82 300.86,85.76 298.29,86.8 295.69,87.74 293.1,88.78 290.54,89.82 288,90.87 285.51,91.91 283.07,92.95 280.72,93.89 278.45,94.93 276.29,95.76 274.26,96.7 272.36,97.53 270.62,98.26 269.04,98.99 267.63,99.61 266.43,100.24 265.44,100.66 264.67,101.07 263.09,101.8 261.46,102.63 259.81,103.57 258.12,104.41 256.39,105.34 254.65,106.28 252.88,107.22 251.09,108.16 249.28,109.2 247.45,110.24 245.62,111.28 243.79,112.32 241.93,113.37 240.09,114.41 238.25,115.55 236.4,116.59 234.57,117.74 232.75,118.78 230.93,119.93 229.14,121.07 227.36,122.22 225.61,123.37 223.88,124.51 222.19,125.55 220.52,126.7 218.88,127.84 217.29,128.99 215.74,130.13 214.22,131.18 212.76,132.32 211.34,133.37 209.98,134.51 168.25,169.93 164.6,173.47 160.96,177.11 157.35,180.86 153.75,184.82 150.17,188.89 146.62,193.05 143.1,197.43 139.62,201.8 136.17,206.39 132.78,210.97 129.43,215.76 126.12,220.55 122.88,225.45 119.7,230.34 116.59,235.34 113.55,240.34 110.58,245.45 107.69,250.55 104.88,255.66 102.16,260.76 99.54,265.97 97.01,271.07 94.58,276.18 92.25,281.28 90.03,286.39 87.93,291.39 85.93,296.39 84.08,301.28 82.34,306.18 80.72,310.97 79.26,315.66 77.93,320.24 68.54,358.57 68.41,359.2 68.3,359.82 68.2,360.45 68.12,360.97 68.05,361.59 67.98,362.22 67.93,362.84 67.86,363.37 67.8,363.99 67.72,364.61 67.65,365.24 67.57,365.76 67.48,366.39 67.37,367.01 67.25,367.63 67.11,368.26 67.01,368.68 66.91,369.09 66.81,369.61 66.7,370.03 66.6,370.55 66.5,371.07 66.39,371.7 66.29,372.22 66.19,372.84 66.08,373.47 65.98,374.09 65.86,374.72 65.76,375.45 65.65,376.07 65.55,376.8 65.44,377.53 63.48,395.76 63.44,396.39 63.41,397.11 63.39,397.63 63.38,398.26 63.37,398.78 63.36,399.3 63.37,399.72 63.39,400.24 63.43,401.39 63.44,402.63 63.44,403.89 63.43,405.13 63.4,406.49 63.36,407.84 63.31,409.2 63.25,410.55 63.17,411.91 63.1,413.26 63.03,414.61 62.94,415.87 62.86,417.22 62.78,418.47 62.7,419.72 62.63,420.86 62.57,422.01 62.55,423.16 62.54,424.41 62.55,425.55 62.57,426.8 62.62,428.05 62.67,429.41 62.72,430.66 62.8,431.91 62.86,433.16 62.93,434.51 63.01,435.76 63.07,436.91 63.13,438.16 63.19,439.3 63.22,440.45 63.27,442.11 63.35,443.89 63.45,445.76 63.59,447.74 63.75,449.72 63.93,451.91 64.12,454.09 64.34,456.28 64.58,458.68 64.84,460.97 65.12,463.36 65.43,465.87 65.74,468.26 66.07,470.76 66.43,473.26 66.79,475.76 67.16,478.26 67.56,480.76 67.96,483.26 68.38,485.66 68.82,488.05 69.26,490.45 69.72,492.84 70.17,495.13 70.64,497.32 71.12,499.51 71.61,501.7 72.1,503.68 72.6,505.66 73.11,507.53 73.61,509.2 74.12,510.87 93.77,544.09 95.15,546.18 96.48,548.16 97.74,550.03 98.94,551.7 100.12,553.37 101.27,554.93 102.39,556.49 103.51,557.95 104.62,559.41 105.75,560.97 106.89,562.43 108.07,563.89 109.28,565.55 110.55,567.11 111.87,568.89 113.27,570.76 117.33,574.61 116.98,573.68 116.58,572.84 116.14,571.8 115.69,570.87 115.19,569.82 114.66,568.78 114.11,567.63 113.53,566.49 112.93,565.34 112.3,564.09 111.65,562.84 110.98,561.59 110.29,560.24 109.59,558.89 108.87,557.53 108.13,556.18 107.38,554.72 106.63,553.26 105.87,551.7 105.1,550.24 104.32,548.68 103.54,547.01 102.76,545.45 101.98,543.78 101.19,542.11 100.4,540.45 99.63,538.78 98.85,537.01 98.09,535.24 97.33,533.47 96.59,531.59 95.85,529.82 92.13,519.82 88.8,509.72 85.85,499.51 83.29,489.3 81.1,478.89 79.3,468.47 77.87,458.05 76.82,447.53 76.14,437.01 75.83,426.39 75.88,415.87 76.31,405.34 77.1,394.82 78.25,384.3 79.75,373.89 81.62,363.47 83.84,353.05 86.41,342.84 89.34,332.63 92.6,322.63 96.22,312.63 100.19,302.84 104.51,293.16 109.15,283.57 114.14,274.2 119.48,265.03 125.14,255.97 131.14,247.11 137.46,238.57 144.12,230.13 151.12,222.01 158.43,214.09 159.57,212.84 160.69,211.7 161.79,210.55 162.87,209.51 163.95,208.37 165.03,207.32 166.1,206.28 167.16,205.13 168.22,204.09 169.29,203.05 170.35,202.01 171.41,200.97 172.48,199.93 173.57,198.89 174.66,197.84 175.77,196.7 176.86,195.66 178.04,194.72 179.26,193.68 180.53,192.63 181.79,191.59 183.04,190.66 184.25,189.72 185.39,188.68 186.63,187.63 187.78,186.7 188.85,185.87 189.93,184.93 191.03,184.09 192.22,183.05 193.54,182.01 195.04,180.76 195.93,179.93 196.89,179.2 197.93,178.37 199.01,177.53 200.15,176.7 201.35,175.87 202.6,174.93 203.88,173.99 205.22,173.05 206.57,172.11 207.96,171.18 209.38,170.24 210.82,169.3 212.28,168.37 213.75,167.43 215.22,166.49 216.69,165.55 218.17,164.61 219.65,163.68 221.11,162.74 222.56,161.91 223.98,160.97 225.39,160.13 226.77,159.3 228.12,158.57 229.43,157.74 230.69,157.01 231.91,156.28 233.09,155.66 234.22,155.03 235.27,154.41 236.27,153.89 240.87,151.39 245.52,149.09 250.19,146.7 254.91,144.51 259.66,142.43 264.44,140.34 269.27,138.37 274.12,136.39 279.01,134.61 283.93,132.84 288.87,131.18 293.85,129.61 298.87,128.16 303.91,126.8 308.98,125.45 314.09,124.2 319.22,123.05 324.38,122.01 329.58,121.07 334.79,120.24 340.04,119.41 345.31,118.78 350.61,118.16 355.93,117.63 361.29,117.22 366.66,116.91 372.06,116.7 377.48,116.59 382.94,116.49 388.41,116.59 393.9,116.8 399.43,117.01 406.19,117.43 412.9,118.05 419.58,118.78 426.22,119.72 432.82,120.76 439.37,121.91 445.87,123.26 452.33,124.72 458.72,126.28 465.08,128.05 471.37,129.93 477.61,131.91 483.8,134.09 489.93,136.39 495.98,138.78 501.98,141.28 507.93,143.99 513.79,146.7 519.59,149.72 525.32,152.74 530.98,155.87 536.57,159.2 542.08,162.53 547.52,166.07 552.87,169.72 558.14,173.57 563.34,177.43 568.44,181.39 573.48,185.55 578.4,189.82 583.26,194.09 588.01,198.57 588.63,199.2 589.22,199.72 589.8,200.34 590.36,200.87 590.91,201.49 591.45,202.01 592,202.53 592.54,203.05 593.08,203.68 593.63,204.2 594.2,204.72 594.8,205.24 595.4,205.76 596.04,206.39 596.7,206.91 597.4,207.53 595.36,203.47 595.04,203.05 594.74,202.53 594.43,202.01 594.13,201.59 593.82,201.07 593.51,200.66 593.17,200.13 592.83,199.72 591.52,197.84 590.25,196.18 589,194.51 587.79,192.84 586.6,191.28 585.43,189.82 584.29,188.37 583.16,186.91 582.05,185.45 580.94,184.09 579.85,182.74 578.76,181.49 577.66,180.13 576.56,178.89 575.45,177.53 574.35,176.28 573.22,175.03 572.08,173.78 570.91,172.53 569.72,171.28 568.52,169.93 567.27,168.68 566,167.43 564.69,166.07 563.33,164.72 561.93,163.37 560.48,161.91 559,160.45 557.44,158.99 555.85,157.43 554.19,155.87 552.45,154.3 550.93,152.84 549.39,151.49 547.83,150.03 546.25,148.68 544.63,147.32 543.01,145.87 541.35,144.51 539.67,143.16 537.98,141.8 536.27,140.45 534.53,139.09 532.77,137.74 530.98,136.39 529.19,135.03 527.37,133.78 525.54,132.43 523.69,131.18 521.81,129.82 519.9,128.57 518,127.22 516.06,125.97 514.11,124.72 512.14,123.47 510.15,122.22 508.14,120.97 506.12,119.72 504.09,118.47 502.03,117.32 499.95,116.07 497.86,114.82 495.76,113.68 493.63,112.53 489.53,110.24 485.29,108.16 480.91,105.97 476.41,103.89 471.8,101.91 467.07,99.93 462.24,98.05 457.3,96.18 452.28,94.3 447.17,92.63 441.98,90.97 436.72,89.41 431.4,87.84 426.03,86.49 420.6,85.13 415.13,83.89 409.61,82.63 404.08,81.59 398.52,80.66 392.93,79.72 387.34,78.99 381.75,78.36 376.16,77.74 370.58,77.32 365.03,77.01 359.48,76.8 353.98,76.7 348.51,76.8 343.07,77.01 337.69,77.32 332.37,77.74 "/>
    <polygon id="Vector_89" class="fil2" points="114.48,429.93 114.98,433.05 115.77,435.76 116.84,438.05 118.17,440.13 119.75,441.8 121.54,443.26 123.54,444.41 125.74,445.24 128.09,445.87 130.61,446.28 133.26,446.49 136.03,446.49 138.89,446.28 141.84,445.97 144.86,445.45 147.93,444.82 151.02,444.09 154.11,443.26 157.22,442.32 160.29,441.39 163.32,440.34 166.29,439.3 169.19,438.16 171.98,437.11 174.67,435.97 177.22,434.93 179.63,433.99 181.87,433.05 183.93,432.11 185.79,431.39 187.43,430.76 188.82,430.24 188.86,431.8 188.87,433.78 188.87,435.87 188.85,438.26 188.8,440.76 188.74,443.57 188.65,446.39 188.55,449.51 188.43,452.63 188.29,455.97 188.13,459.41 187.96,462.84 187.79,466.39 187.58,470.03 187.37,473.57 187.15,477.22 186.93,480.87 186.69,484.51 186.43,488.05 186.17,491.59 185.9,495.03 185.62,498.37 185.35,501.7 185.06,504.82 184.77,507.84 184.46,510.66 184.17,513.37 183.87,515.86 183.57,518.05 183.27,520.13 182.96,522.01 182.66,523.57 182.35,524.93 182.04,526.28 181.7,527.63 181.34,528.89 180.98,530.13 180.6,531.39 180.19,532.63 179.79,533.78 179.36,534.93 178.93,536.07 178.46,537.22 178.01,538.26 177.53,539.41 177.04,540.45 176.54,541.49 176.03,542.53 175.51,543.57 174.96,544.61 174.43,545.55 173.87,546.59 173.31,547.53 172.72,548.57 172.15,549.51 171.56,550.55 170.95,551.49 170.35,552.43 169.74,553.47 169.11,554.41 168.48,555.45 167.85,556.49 167.2,557.43 166.56,558.47 166.01,559.41 165.44,560.34 164.89,561.28 164.32,562.32 163.76,563.47 163.19,564.51 162.64,565.76 162.09,566.91 161.54,568.16 161.01,569.41 160.48,570.76 159.98,572.01 159.51,573.37 159.04,574.72 158.59,576.07 158.17,577.43 157.79,578.89 157.43,580.24 157.1,581.59 156.8,583.05 156.55,584.41 156.33,585.76 156.14,587.22 156.01,588.57 155.93,589.93 155.88,591.18 155.89,592.53 155.95,593.78 156.07,595.03 156.24,596.28 156.46,597.43 156.77,598.57 157.54,599.41 158.35,600.13 159.22,600.97 160.13,601.7 161.1,602.53 162.1,603.26 163.15,603.99 164.25,604.82 165.38,605.45 166.55,606.18 167.76,606.91 168.98,607.53 170.26,608.26 171.56,608.89 172.88,609.41 174.24,610.03 175.61,610.55 177.01,611.07 178.43,611.59 179.86,612.01 181.31,612.43 182.78,612.84 184.26,613.26 185.75,613.57 187.25,613.78 188.75,614.09 190.26,614.3 191.78,614.41 193.29,614.51 194.8,614.61 196.31,614.61 197.82,614.61 201.15,614.41 204.01,613.99 206.43,613.37 208.43,612.53 210.04,611.59 211.3,610.34 212.25,608.99 212.9,607.53 213.29,605.76 213.45,603.99 213.41,602.01 213.19,599.82 212.85,597.53 212.39,595.13 211.85,592.53 211.27,589.93 210.66,587.11 210.07,584.2 209.53,581.18 209.05,578.05 208.69,574.82 208.44,571.49 208.37,568.16 208.5,564.72 208.84,561.18 209.44,557.53 210.33,553.89 211.54,550.13 213.09,546.39 215.02,542.53 217.35,538.68 220.13,534.72 220.89,533.78 221.65,532.74 222.43,531.8 223.19,530.87 223.98,530.03 224.76,529.09 225.54,528.16 226.33,527.32 227.13,526.39 227.93,525.55 228.75,524.72 229.56,523.78 230.38,522.95 231.2,522.01 232.04,521.18 232.87,520.24 233.72,519.41 234.56,518.47 235.43,517.63 236.29,516.7 237.15,515.76 238.03,514.82 238.91,513.89 239.8,512.84 240.7,511.91 241.61,510.87 242.52,509.82 243.43,508.78 244.36,507.74 245.3,506.59 246.24,505.45 247.19,504.3 248.36,504.3 249.6,504.3 250.91,504.41 252.3,504.41 253.74,504.51 255.22,504.61 256.77,504.61 258.35,504.72 259.98,504.82 261.62,504.93 263.3,505.03 265.01,505.13 266.72,505.24 268.45,505.34 270.19,505.45 271.91,505.45 273.63,505.55 275.35,505.66 277.04,505.76 278.72,505.76 280.36,505.86 281.96,505.86 283.54,505.86 285.07,505.97 286.54,505.97 287.95,505.86 289.32,505.86 290.61,505.86 291.83,505.76 292.96,505.66 294.03,505.55 295,505.45 296.22,505.24 297.45,505.03 298.69,504.82 299.93,504.61 301.17,504.3 302.41,504.09 303.66,503.78 304.91,503.47 306.16,503.26 307.41,502.95 308.66,502.63 309.93,502.32 311.17,502.01 312.43,501.7 313.69,501.39 314.93,501.07 316.19,500.76 317.44,500.45 318.69,500.13 319.94,499.82 321.19,499.61 322.43,499.3 323.66,498.99 324.9,498.78 326.13,498.47 327.36,498.26 328.59,498.05 329.8,497.84 331.02,497.63 332.22,497.43 333.43,497.32 334.62,497.11 334.76,497.53 334.93,498.26 335.15,499.09 335.39,500.24 335.67,501.59 335.98,503.16 336.31,504.82 336.66,506.7 337.04,508.68 337.43,510.87 337.83,513.05 338.25,515.45 338.67,517.84 339.1,520.34 339.54,522.84 339.96,525.34 340.39,527.95 340.82,530.45 341.24,532.95 341.64,535.45 342.03,537.84 342.4,540.13 342.75,542.43 343.08,544.51 343.39,546.49 343.66,548.36 343.9,550.13 344.12,551.59 344.3,552.95 344.43,554.09 344.52,554.93 344.57,555.66 344.62,557.74 344.61,559.93 344.51,562.11 344.35,564.2 344.12,566.18 343.84,568.26 343.5,570.34 343.11,572.32 342.67,574.3 342.19,576.28 341.67,578.26 341.13,580.13 340.55,582.11 339.95,584.09 339.33,585.97 338.69,587.95 338.05,589.93 337.39,591.8 336.75,593.78 336.09,595.76 335.44,597.74 334.82,599.72 334.2,601.7 333.61,603.68 333.04,605.76 332.5,607.84 332,609.93 331.53,612.01 331.1,614.2 330.72,616.39 330.4,618.57 330.13,620.76 332.37,621.8 334.48,622.74 336.48,623.78 338.36,624.72 340.15,625.55 341.86,626.49 343.48,627.32 345.05,628.05 346.56,628.89 348.03,629.51 349.45,630.24 350.87,630.76 352.27,631.28 353.66,631.8 355.08,632.22 356.52,632.53 357.98,632.74 359.48,632.95 361.04,633.05 362.66,633.05 364.36,632.95 366.14,632.74 368.02,632.53 370.01,632.11 372.11,631.59 374.34,630.97 376.7,630.24 379.22,629.41 381.91,628.47 384.76,627.43 387.79,626.18 391.02,624.82 391.08,624.2 391.11,623.37 391.11,622.43 391.07,621.28 391.01,620.03 390.91,618.57 390.8,617.11 390.65,615.45 390.48,613.68 390.31,611.8 390.1,609.93 389.89,607.95 389.66,605.87 389.43,603.68 389.17,601.59 388.93,599.3 388.66,597.11 388.4,594.82 388.14,592.63 387.88,590.34 387.62,588.16 387.37,585.87 387.13,583.68 386.9,581.59 386.69,579.51 386.48,577.43 386.3,575.45 386.13,573.57 385.98,571.8 385.86,570.13 385.76,568.57 385.69,567.11 385.61,565.03 385.55,563.05 385.5,560.97 385.45,558.99 385.43,556.91 385.41,554.93 385.41,552.84 385.43,550.87 385.44,548.78 385.48,546.8 385.53,544.72 385.59,542.63 385.66,540.66 385.75,538.57 385.84,536.49 385.94,534.41 386.06,532.43 386.19,530.34 386.33,528.26 386.48,526.28 386.65,524.2 386.83,522.11 387.01,520.03 387.2,518.05 387.41,515.97 387.63,513.89 387.87,511.91 388.11,509.82 388.36,507.84 388.63,505.76 388.9,503.68 389.19,501.7 390.46,502.11 391.8,502.63 393.16,503.26 394.57,503.89 396,504.61 397.44,505.45 398.9,506.28 400.38,507.22 401.85,508.16 403.32,509.2 404.77,510.34 406.22,511.49 407.62,512.63 409.01,513.89 410.36,515.13 411.66,516.49 412.91,517.84 414.11,519.2 415.25,520.55 416.31,521.91 417.3,523.37 418.22,524.82 419.03,526.28 419.76,527.74 420.38,529.2 420.89,530.66 421.3,532.11 421.58,533.57 421.74,535.03 421.77,536.49 421.65,537.84 421.39,539.3 420.8,539.3 419.85,539.3 418.59,539.3 417.08,539.3 415.36,539.3 413.48,539.3 411.52,539.3 409.5,539.41 407.48,539.41 405.55,539.51 403.7,539.61 402.03,539.82 400.57,539.93 399.38,540.24 398.52,540.45 398.03,540.76 397.85,541.07 397.65,541.7 397.41,542.53 397.16,543.57 396.9,544.82 396.64,546.28 396.39,547.95 396.15,549.72 395.93,551.59 395.76,553.68 395.61,555.86 395.53,558.05 395.5,560.34 395.53,562.63 395.64,564.93 395.84,567.32 396.13,569.61 396.52,571.91 397.03,574.2 397.64,576.39 398.39,578.36 399.28,580.34 400.3,582.22 401.48,583.89 402.83,585.45 404.34,586.7 406.04,587.84 407.91,588.78 410,589.41 412.28,589.82 414.77,589.93 417.48,589.72 420.09,589.3 422.67,588.57 425.25,587.74 427.78,586.59 430.29,585.24 432.76,583.68 435.19,582.01 437.57,580.13 439.9,578.16 442.19,575.97 444.4,573.68 446.55,571.39 448.63,568.89 450.63,566.39 452.56,563.78 454.39,561.18 456.14,558.47 457.8,555.76 459.35,553.16 460.79,550.45 462.13,547.74 463.35,545.13 464.45,542.53 465.43,540.03 466.28,537.63 466.98,535.34 467.56,533.16 467.98,530.97 468.27,529.09 468.39,527.22 468.36,525.66 468.16,524.2 467.84,523.05 467.37,521.91 466.77,520.76 466.03,519.61 465.17,518.47 464.22,517.32 463.17,516.18 462.04,515.03 460.84,513.89 459.58,512.74 458.28,511.49 456.93,510.34 455.57,509.09 454.19,507.84 452.81,506.59 451.44,505.24 450.1,503.99 448.79,502.53 447.52,501.18 446.31,499.72 445.17,498.26 444.11,496.7 443.14,495.13 442.28,493.57 441.53,491.91 440.9,490.13 440.41,488.37 440.08,486.59 439.9,484.61 439.9,482.74 440.08,480.66 440.45,478.57 440.66,477.63 440.9,476.8 441.16,475.87 441.43,475.03 441.74,474.09 442.05,473.26 442.37,472.32 442.7,471.49 443.07,470.66 443.43,469.72 443.8,468.89 444.19,467.95 444.57,467.11 444.95,466.18 445.35,465.34 445.74,464.41 446.13,463.57 446.53,462.63 446.91,461.8 447.29,460.87 447.66,459.93 448.03,458.99 448.39,458.16 448.74,457.22 449.06,456.28 449.38,455.34 449.69,454.3 449.96,453.36 450.22,452.43 450.46,451.39 450.69,450.45 450.88,449.41 448.64,449.09 446.4,448.78 444.14,448.57 441.88,448.37 439.61,448.16 437.35,448.05 435.08,447.95 432.81,447.84 430.53,447.74 428.27,447.63 426,447.53 423.74,447.53 421.48,447.43 419.24,447.32 417,447.22 414.78,447.01 412.56,446.91 410.36,446.7 408.19,446.39 406.02,446.18 403.87,445.87 401.75,445.45 399.63,444.93 397.55,444.41 395.5,443.89 393.46,443.16 391.45,442.43 389.48,441.59 387.54,440.66 385.62,439.61 383.75,438.47 381.89,437.22 380.58,436.18 379.31,435.13 378.1,434.09 376.93,432.95 375.81,431.7 374.72,430.45 373.69,429.2 372.69,427.84 371.72,426.49 370.79,425.03 369.89,423.68 369.02,422.22 368.17,420.66 367.35,419.09 366.55,417.53 365.77,415.97 365,414.41 364.25,412.84 363.5,411.18 362.78,409.51 362.05,407.84 361.33,406.18 360.61,404.61 359.89,402.95 359.17,401.28 358.44,399.61 357.72,397.95 356.96,396.28 356.22,394.61 355.44,392.95 354.65,391.39 353.85,389.72 353.17,388.47 352.41,387.11 351.59,385.66 350.72,384.09 349.82,382.43 348.93,380.76 348.06,378.99 347.22,377.22 346.45,375.45 345.77,373.68 345.19,371.8 344.72,370.03 344.43,368.26 344.28,366.49 344.32,364.82 344.57,363.16 345.48,359.41 346.39,355.97 347.32,352.74 348.25,349.72 349.15,346.91 350.04,344.41 350.9,342.01 351.7,339.93 352.45,337.95 353.14,336.18 353.76,334.51 354.27,333.05 354.69,331.7 355.01,330.45 355.19,329.41 355.25,328.47 355.16,327.53 354.93,326.8 354.54,326.07 353.95,325.34 353.2,324.82 352.25,324.2 351.09,323.68 349.72,323.16 348.1,322.74 346.26,322.22 344.16,321.7 341.81,321.18 339.19,320.66 336.29,320.03 333.09,319.41 329.59,318.68 326.11,317.95 322.7,317.32 319.35,316.7 316.05,316.18 312.8,315.76 309.59,315.34 306.43,315.03 303.32,314.82 300.26,314.61 297.22,314.51 294.22,314.41 291.27,314.41 288.34,314.51 285.44,314.72 282.57,315.03 279.72,315.34 276.91,315.76 274.11,316.28 271.33,316.8 268.56,317.53 265.81,318.26 263.06,319.09 260.33,320.03 257.6,321.07 254.88,322.22 252.16,323.37 249.44,324.72 246.72,326.07 243.98,327.63 241.26,329.2 238.51,330.87 235.75,332.74 234.52,333.57 233.29,334.51 232.05,335.55 230.82,336.59 229.59,337.74 228.36,338.99 227.14,340.24 225.93,341.59 224.72,342.95 223.52,344.41 222.33,345.87 221.15,347.43 219.98,348.89 218.85,350.55 217.72,352.11 216.6,353.68 215.52,355.34 214.44,357.01 213.4,358.68 212.38,360.34 211.38,362.01 210.41,363.68 209.48,365.34 208.57,367.01 207.69,368.57 206.85,370.24 206.04,371.8 205.27,373.37 204.54,374.93 203.84,376.39 203.19,377.84 202.57,379.3 201.69,381.49 200.87,383.57 200.08,385.66 199.35,387.74 198.65,389.82 197.98,391.8 197.34,393.78 196.72,395.66 196.12,397.53 195.52,399.41 194.93,401.18 194.33,403.05 193.74,404.72 193.11,406.49 192.48,408.16 191.81,409.82 191.12,411.39 190.38,412.95 189.61,414.41 188.79,415.87 187.91,417.32 186.98,418.78 185.96,420.03 184.89,421.39 183.74,422.63 182.5,423.89 181.17,425.03 179.76,426.18 178.22,427.22 176.6,428.26 174.86,429.3 173.01,430.24 169.96,431.59 167.12,432.95 164.5,434.09 162.06,435.03 159.8,435.87 157.72,436.59 155.82,437.22 154.06,437.74 152.44,438.16 150.95,438.37 149.61,438.57 148.37,438.68 147.24,438.68 146.2,438.68 145.26,438.47 144.38,438.26 143.57,438.05 142.82,437.74 142.12,437.32 141.46,437.01 140.83,436.49 140.2,436.07 139.6,435.55 138.98,435.13 138.36,434.61 137.72,434.09 137.05,433.57 136.34,433.16 135.57,432.63 134.75,432.22 133.86,431.8 132.88,431.39 131.78,430.97 130.65,430.66 129.51,430.45 128.36,430.24 127.19,430.13 126.03,430.03 124.86,429.93 123.69,429.82 122.51,429.82 121.33,429.82 120.16,429.82 119.01,429.93 117.86,429.93 116.72,429.93 115.59,429.93 "/>
    <polygon id="Vector_90" class="fil2" points="491.08,234.93 489.65,234.3 488.27,233.68 486.9,233.05 485.57,232.43 484.26,231.8 482.96,231.07 481.69,230.34 480.43,229.72 479.19,228.99 477.95,228.26 476.72,227.53 475.48,226.8 474.26,226.07 473.02,225.45 471.78,224.72 470.53,223.99 469.26,223.36 467.98,222.74 466.67,222.01 465.35,221.39 464.01,220.87 462.62,220.24 461.22,219.72 459.78,219.2 458.29,218.78 456.77,218.26 455.2,217.84 453.59,217.53 451.93,217.22 450.2,216.91 448.43,216.7 446.6,216.49 447.51,217.01 448.56,217.43 449.72,217.95 451.03,218.37 452.43,218.78 453.93,219.2 455.51,219.72 457.15,220.24 458.88,220.76 460.65,221.39 462.48,222.01 464.33,222.84 466.2,223.57 468.09,224.51 469.98,225.55 471.87,226.7 471.96,227.43 472.13,227.63 472.32,227.43 472.44,227.01 472.46,226.59 472.31,226.39 471.93,226.7 471.24,227.53 470.64,228.26 470.2,228.47 469.93,228.37 469.81,228.05 469.83,227.74 469.98,227.63 470.27,227.95 470.66,228.68 471.52,228.78 472.39,228.99 473.31,229.2 474.26,229.41 475.22,229.72 476.2,230.03 477.2,230.45 478.22,230.87 479.25,231.28 480.29,231.7 481.33,232.11 482.37,232.63 483.43,233.16 484.45,233.57 485.5,234.2 486.52,234.72 487.53,235.24 488.52,235.76 489.5,236.39 490.45,236.91 491.38,237.53 492.27,238.05 493.14,238.57 493.98,239.2 494.77,239.72 495.53,240.24 496.24,240.76 496.89,241.28 497.51,241.8 498.07,242.32 498.57,242.74 499.02,243.26 517.1,252.74 517.09,256.49 517.34,259.93 517.83,262.95 518.55,265.66 519.48,268.05 520.63,270.13 521.96,272.01 523.5,273.57 525.19,274.93 527.06,276.07 529.07,277.01 531.22,277.74 533.51,278.37 535.9,278.78 538.41,279.2 541.02,279.41 543.7,279.61 546.45,279.72 549.28,279.72 552.15,279.82 555.06,279.82 558,279.93 560.94,279.93 563.91,280.13 566.86,280.34 569.8,280.66 572.7,281.07 575.57,281.59 578.38,282.32 581.13,283.26 583.81,284.3 586.4,285.55 587.33,286.07 588.25,286.7 589.13,287.32 590.02,287.95 590.86,288.68 591.69,289.41 592.51,290.13 593.3,290.97 594.05,291.8 594.78,292.74 595.48,293.68 596.14,294.61 596.77,295.66 597.36,296.59 597.93,297.63 598.43,298.78 598.91,299.93 599.34,300.97 599.72,302.22 600.07,303.37 600.36,304.61 600.6,305.86 600.79,307.11 600.91,308.36 601,309.72 601.02,310.97 600.98,312.32 600.87,313.68 600.7,315.03 600.48,316.49 600.17,317.84 599.81,319.3 599.06,321.59 598.13,323.89 597.05,326.07 595.82,328.16 594.45,330.13 592.96,332.01 591.37,333.78 589.69,335.45 587.91,337.01 586.07,338.47 584.16,339.82 582.2,340.97 580.22,342.11 578.22,343.05 576.19,343.78 574.19,344.41 572.54,344.82 570.95,345.24 569.41,345.45 567.91,345.66 566.46,345.87 565.05,345.97 563.69,345.97 562.35,345.87 561.06,345.76 559.8,345.66 558.58,345.45 557.38,345.13 556.22,344.82 555.1,344.51 554,344.09 552.93,343.68 551.87,343.16 550.85,342.63 549.84,342.01 548.86,341.49 547.89,340.87 546.94,340.24 546.01,339.51 545.09,338.78 544.19,338.05 543.29,337.32 542.4,336.59 541.52,335.76 540.65,335.03 539.79,334.2 538.91,333.37 538.05,332.53 537.38,331.91 536.69,331.28 535.95,330.55 535.2,329.93 534.43,329.2 533.64,328.47 532.82,327.74 531.98,327.01 531.14,326.28 530.28,325.45 529.39,324.72 528.5,323.89 527.59,323.16 526.67,322.32 525.76,321.59 524.83,320.87 523.88,320.03 522.94,319.3 522.01,318.57 521.06,317.74 520.12,317.01 519.17,316.28 518.24,315.66 517.3,314.93 516.37,314.2 515.44,313.57 514.54,312.95 513.63,312.32 512.75,311.7 511.87,311.18 511.01,310.66 510.15,310.13 507.55,308.68 504.96,307.22 502.4,305.97 499.86,304.82 497.33,303.78 494.82,302.84 492.33,301.91 489.85,301.18 487.38,300.55 484.93,299.93 482.48,299.51 480.04,299.09 477.6,298.78 475.17,298.57 472.76,298.47 470.34,298.47 467.91,298.47 465.51,298.68 463.08,298.89 460.66,299.2 458.24,299.51 455.81,299.93 453.37,300.45 450.93,301.07 448.48,301.7 446.01,302.43 443.54,303.26 441.04,304.09 438.54,305.03 436.02,305.97 433.48,307.01 430.93,308.05 428.63,309.09 426.52,310.13 424.58,311.07 422.8,312.01 421.17,312.84 419.69,313.68 418.33,314.51 417.1,315.24 415.98,315.97 414.95,316.59 414.02,317.22 413.16,317.84 412.38,318.36 411.65,318.89 410.98,319.3 410.35,319.72 409.75,320.13 409.15,320.45 408.58,320.76 408,320.97 407.4,321.18 406.79,321.28 406.14,321.39 405.45,321.39 404.72,321.39 403.91,321.39 403.04,321.28 402.08,321.07 401.04,320.87 399.88,320.66 398.62,320.34 397.22,320.03 393.52,319.09 389.98,318.57 386.6,318.16 383.39,318.05 380.35,318.26 377.48,318.57 374.75,319.2 372.17,319.93 369.76,320.87 367.5,322.01 365.37,323.37 363.39,324.82 361.56,326.39 359.86,328.16 358.29,330.03 356.85,332.01 355.55,334.09 354.38,336.28 353.32,338.47 352.38,340.76 351.56,343.16 350.86,345.55 350.27,348.05 349.79,350.55 349.41,353.05 349.13,355.45 348.96,357.95 348.88,360.45 348.9,362.84 349.02,365.24 349.22,367.53 349.5,369.82 349.69,370.97 349.9,372.11 350.16,373.26 350.44,374.41 350.75,375.55 351.08,376.7 351.43,377.74 351.81,378.89 352.2,379.93 352.62,380.97 353.05,382.01 353.5,383.16 353.96,384.2 354.44,385.24 354.93,386.28 355.43,387.22 355.93,388.26 356.44,389.3 356.95,390.34 357.48,391.39 358.01,392.32 358.53,393.37 359.05,394.41 359.57,395.45 360.08,396.39 360.59,397.43 361.09,398.47 361.58,399.51 362.06,400.45 362.53,401.49 362.98,402.53 363.43,403.57 364.48,406.07 365.5,408.47 366.46,410.76 367.43,412.84 368.38,414.82 369.35,416.59 370.36,418.37 371.41,420.13 372.53,421.7 373.72,423.26 375.03,424.82 376.44,426.28 377.98,427.74 379.69,429.2 381.55,430.76 383.59,432.22 384.58,432.95 385.58,433.57 386.59,434.2 387.61,434.93 388.65,435.55 389.69,436.18 390.76,436.8 391.82,437.32 392.9,437.95 394,438.47 395.11,438.99 396.22,439.51 397.36,440.03 398.5,440.55 399.65,441.07 400.82,441.49 402.01,442.01 403.19,442.43 404.4,442.84 405.62,443.16 406.86,443.57 408.1,443.99 409.36,444.3 410.63,444.61 411.91,444.93 413.22,445.24 414.52,445.45 415.85,445.76 417.19,445.97 418.53,446.18 419.89,446.39 421.27,446.49 423.94,446.8 426.6,446.91 429.24,446.91 431.84,446.8 434.43,446.59 436.98,446.28 439.5,445.97 441.98,445.45 444.43,444.82 446.83,444.09 449.19,443.36 451.51,442.53 453.77,441.49 455.98,440.45 458.15,439.41 460.26,438.16 462.31,436.91 464.29,435.55 466.22,434.2 468.07,432.74 469.86,431.18 471.58,429.61 473.22,427.95 474.78,426.28 476.26,424.51 477.66,422.74 478.98,420.86 480.2,418.99 481.34,417.11 482.39,415.13 483.34,413.16 484.19,411.07 482.61,410.03 481.13,409.2 479.76,408.47 478.48,407.84 477.28,407.22 476.16,406.59 475.11,406.07 474.13,405.45 473.2,404.72 472.33,403.99 471.5,403.16 470.7,402.22 469.93,401.07 469.19,399.72 468.45,398.26 467.72,396.49 468.69,396.91 469.63,397.32 470.55,397.74 471.44,398.26 472.34,398.68 473.22,399.2 474.08,399.72 474.93,400.13 475.78,400.66 476.62,401.18 477.45,401.7 478.3,402.22 479.13,402.74 479.96,403.16 480.81,403.68 481.65,404.2 482.51,404.72 483.37,405.13 484.25,405.66 485.14,406.18 486.04,406.59 486.95,407.11 487.9,407.53 488.85,407.95 489.83,408.47 490.84,408.89 491.88,409.3 492.93,409.61 494.03,410.03 495.14,410.45 496.3,410.76 497.5,411.07 498.4,411.28 499.37,411.49 500.4,411.7 501.48,411.91 502.6,412.01 503.76,412.11 504.96,412.22 506.19,412.32 507.46,412.43 508.76,412.43 510.06,412.43 511.39,412.53 512.72,412.43 514.06,412.43 515.4,412.43 516.75,412.32 518.07,412.22 519.4,412.11 520.7,412.01 521.98,411.8 523.25,411.7 524.46,411.49 525.66,411.28 526.82,410.97 527.93,410.76 528.98,410.45 530.01,410.13 530.95,409.82 531.84,409.51 532.67,409.09 533.43,408.78 534.11,408.37 533.55,407.74 533,407.22 532.44,406.7 531.89,406.18 531.37,405.66 530.86,405.13 530.38,404.61 529.93,404.09 529.51,403.47 529.14,402.84 528.82,402.22 528.55,401.39 528.34,400.66 528.19,399.72 528.12,398.78 528.12,397.74 528.2,396.7 528.35,395.66 528.57,394.61 528.84,393.68 529.19,392.74 529.58,391.91 530.02,391.07 530.52,390.24 531.05,389.61 531.63,388.89 532.26,388.37 532.9,387.84 533.59,387.43 534.3,387.11 535.03,386.8 535.79,386.7 536.98,386.7 538.31,386.8 539.75,387.22 541.27,387.74 542.86,388.37 544.51,389.2 546.19,390.03 547.89,390.97 549.59,391.91 551.27,392.84 552.9,393.78 554.48,394.72 556,395.45 557.41,396.28 558.72,396.8 559.88,397.32 561.58,397.84 563.33,398.37 565.13,398.78 567,399.09 568.89,399.41 570.83,399.72 572.81,399.93 574.82,400.03 576.85,400.13 578.89,400.13 580.96,400.13 583.04,400.13 585.11,400.03 587.19,399.82 589.27,399.72 591.33,399.41 593.37,399.2 595.4,398.89 597.4,398.47 599.37,398.05 601.31,397.63 603.19,397.22 605.04,396.7 606.84,396.18 608.58,395.55 610.26,395.03 611.86,394.41 613.4,393.68 614.87,393.05 616.25,392.32 617.55,391.59 618.75,390.86 616.91,390.97 615.14,391.07 613.44,391.28 611.79,391.49 610.15,391.7 608.54,391.91 606.93,392.11 605.31,392.32 603.66,392.53 601.98,392.74 600.24,392.84 598.43,392.95 596.53,392.95 594.54,392.84 592.44,392.74 590.22,392.53 591.34,390.45 592.34,388.68 593.22,387.11 594.04,385.66 594.79,384.51 595.51,383.47 596.22,382.43 596.96,381.59 597.75,380.76 598.6,380.03 599.55,379.3 600.61,378.47 601.82,377.63 603.2,376.7 604.79,375.66 606.58,374.51 607.78,373.78 609,372.95 610.24,372.11 611.5,371.28 612.77,370.34 614.03,369.41 615.3,368.47 616.56,367.53 617.8,366.49 619.03,365.55 620.22,364.51 621.39,363.47 622.52,362.43 623.6,361.39 624.63,360.34 625.6,359.3 628.14,356.18 630.37,353.16 632.3,349.93 633.91,346.7 635.26,343.47 636.32,340.24 637.12,336.91 637.67,333.57 637.98,330.34 638.07,327.01 637.93,323.68 637.59,320.45 637.06,317.11 636.35,313.89 635.46,310.76 634.41,307.63 633.22,304.61 631.89,301.59 630.43,298.68 628.86,295.76 627.19,293.05 625.43,290.45 623.58,287.84 621.67,285.45 619.69,283.16 617.69,280.97 615.63,278.89 613.56,277.01 611.48,275.24 609.39,273.68 607.32,272.32 605.27,271.07 603.28,269.93 601.31,268.99 599.36,268.05 597.43,267.32 595.53,266.59 593.64,265.97 591.77,265.45 589.91,264.93 588.06,264.51 586.22,264.09 584.38,263.89 582.55,263.57 580.72,263.37 578.89,263.16 577.06,263.05 575.22,262.95 573.38,262.95 571.54,262.84 569.67,262.84 567.81,262.84 565.93,262.84 564.02,262.84 562.1,262.84 560.16,262.84 558.2,262.74 556.22,262.74 554.2,262.74 552.16,262.63 550.09,262.53 547.98,262.43 545.85,262.22 543.67,262.01 542.65,261.49 541.85,260.87 541.22,260.13 540.72,259.3 540.32,258.37 539.94,257.43 539.56,256.39 539.13,255.34 538.62,254.2 537.96,253.16 537.13,252.01 536.06,250.97 534.72,249.82 533.08,248.78 531.08,247.74 528.66,246.8 527.91,246.59 527.35,246.39 526.91,246.18 526.53,246.07 526.14,246.07 525.69,245.97 525.12,245.97 524.36,245.97 523.65,245.97 523.24,246.07 523.01,246.07 522.88,246.07 522.78,246.07 522.6,246.18 522.26,246.28 521.66,246.28 521.26,246.39 521.16,246.49 521.24,246.59 521.34,246.7 521.31,246.7 521.01,246.8 520.28,246.8 518.98,246.8 519.12,245.24 519.4,243.89 519.79,242.63 520.26,241.49 520.77,240.45 521.3,239.41 521.82,238.37 522.3,237.22 522.69,236.18 523,234.93 523.16,233.57 523.16,232.11 522.98,230.55 522.56,228.68 521.88,226.59 520.93,224.3 520.44,223.26 519.91,222.22 519.34,221.28 518.69,220.24 518.01,219.3 517.25,218.37 516.44,217.43 515.57,216.49 514.62,215.76 513.61,214.93 512.54,214.2 511.39,213.57 510.17,213.05 508.89,212.53 507.52,212.11 506.08,211.91 506.24,213.78 506.36,215.66 506.46,217.43 506.54,219.09 506.6,220.76 506.64,222.32 506.69,223.78 506.72,225.24 506.76,226.59 506.8,227.95 506.85,229.2 506.91,230.45 507.01,231.59 507.12,232.63 507.26,233.68 507.44,234.61 507.65,235.55 507.91,236.49 508.22,237.22 508.58,238.05 509,238.78 509.48,239.51 510.02,240.13 510.63,240.66 511.33,241.28 512.11,241.8 512.96,242.22 513.91,242.74 514.96,243.16 516.1,243.47 517.35,243.78 518.72,244.09 518.69,249.93 517.63,249.61 516.53,249.3 515.39,248.89 514.22,248.37 513.02,247.84 511.8,247.22 510.57,246.59 509.34,245.97 508.12,245.34 506.93,244.61 505.76,243.99 504.61,243.36 503.52,242.74 502.46,242.11 501.48,241.59 500.56,241.07 498.89,240.03 497.41,239.09 496.1,238.16 494.98,237.11 493.98,236.18 493.15,235.13 492.45,234.2 491.88,233.16 491.43,232.11 491.07,231.07 490.81,230.03 490.63,228.99 490.53,227.95 490.48,226.91 490.51,225.76 490.55,224.72 490.64,223.57 490.75,222.43 490.86,221.18 490.98,220.03 491.09,218.89 491.17,217.63 491.22,216.39 491.24,215.03 491.2,213.78 491.11,212.43 490.93,211.07 490.69,209.72 490.34,208.26 489.89,206.8 489.33,205.34 488.64,203.78 488.09,202.74 487.5,201.7 486.85,200.66 486.15,199.72 485.4,198.78 484.59,197.84 483.72,197.01 482.78,196.28 481.77,195.45 480.67,194.82 479.51,194.2 478.26,193.57 476.93,193.05 475.5,192.63 473.98,192.32 472.37,192.01 472.75,196.07 473.19,199.72 473.7,203.05 474.28,206.07 474.91,208.78 475.58,211.18 476.3,213.36 477.06,215.24 477.84,217.01 478.66,218.47 479.48,219.72 480.33,220.87 481.19,221.8 482.04,222.63 482.88,223.36 483.72,223.89 484.55,224.41 485.35,224.93 486.13,225.34 486.87,225.66 487.58,226.07 488.24,226.39 488.84,226.8 489.39,227.32 489.88,227.84 490.31,228.47 490.65,229.2 490.93,230.03 491.1,230.97 491.19,232.11 491.19,233.47 "/>
    <polygon id="Vector_91" class="fil2" points="266.34,507.74 266.31,508.89 266.29,509.93 266.28,511.07 266.29,512.11 266.29,513.26 266.31,514.3 266.34,515.34 266.36,516.49 266.39,517.53 266.43,518.57 266.45,519.61 266.48,520.66 266.5,521.8 266.52,522.84 266.53,523.89 266.52,524.93 266.51,525.97 266.48,527.01 266.44,528.16 266.38,529.2 266.31,530.24 266.22,531.28 266.1,532.43 265.96,533.47 265.8,534.51 265.61,535.66 265.39,536.7 265.15,537.84 264.88,538.99 264.57,540.03 264.22,541.18 263.84,542.32 263.24,543.89 262.51,545.45 261.67,547.01 260.75,548.47 259.74,550.03 258.65,551.59 257.54,553.16 256.38,554.61 255.2,556.18 254.02,557.74 252.84,559.3 251.69,560.76 250.59,562.32 249.54,563.89 248.56,565.34 247.66,566.91 246.87,568.36 246.19,569.93 245.64,571.39 245.25,572.84 245,574.3 244.93,575.87 245.06,577.32 245.38,578.78 245.93,580.24 246.72,581.7 247.75,583.16 249.05,584.51 250.62,585.97 252.5,587.32 254.69,588.78 257.19,590.13 257.91,590.55 258.7,590.87 259.56,591.28 260.48,591.59 261.43,591.91 262.45,592.22 263.51,592.53 264.61,592.84 265.74,593.16 266.9,593.47 268.09,593.78 269.31,593.99 270.54,594.2 271.78,594.41 273.04,594.61 274.29,594.82 275.54,594.93 276.79,595.13 278.03,595.24 279.26,595.24 280.46,595.34 281.64,595.34 282.8,595.34 283.93,595.34 285.01,595.24 286.06,595.13 287.06,594.93 288,594.82 288.89,594.51 289.72,594.3 290.5,593.99 291.19,593.68 291.59,592.84 291.93,592.11 292.2,591.18 292.43,590.13 292.59,588.99 292.72,587.84 292.81,586.59 292.86,585.34 292.9,583.89 292.9,582.43 292.88,580.97 292.86,579.41 292.83,577.84 292.8,576.18 292.76,574.51 292.74,572.84 292.72,571.07 292.72,569.3 292.76,567.53 292.82,565.66 292.91,563.89 293.04,562.11 293.22,560.24 293.43,558.36 293.7,556.59 294.05,554.82 294.44,553.05 294.91,551.28 295.46,549.51 296.08,547.74 296.8,546.07 297.59,544.41 298.29,543.16 299,541.91 299.72,540.66 300.43,539.41 301.16,538.26 301.89,537.11 302.63,535.97 303.37,534.93 304.11,533.78 304.84,532.74 305.58,531.7 306.32,530.55 307.05,529.51 307.78,528.47 308.5,527.43 309.22,526.39 309.91,525.24 310.62,524.09 311.31,523.05 311.98,521.91 312.65,520.66 313.3,519.51 313.94,518.26 314.56,517.01 315.17,515.66 315.76,514.3 316.33,512.84 316.88,511.39 317.41,509.93 317.91,508.37 318.39,506.7 318.85,504.93 317.24,504.93 315.63,505.03 314.03,505.03 312.44,505.13 310.87,505.34 309.3,505.45 307.75,505.66 306.19,505.86 304.65,506.07 303.12,506.28 301.6,506.49 300.08,506.7 298.58,507.01 297.08,507.22 295.59,507.43 294.11,507.63 292.3,507.95 290.52,508.16 288.78,508.37 287.05,508.47 285.34,508.57 283.65,508.57 281.96,508.68 280.29,508.68 278.6,508.57 276.91,508.57 275.22,508.47 273.5,508.37 271.76,508.26 269.98,508.05 268.19,507.95 "/>
    <polygon id="Vector_92" class="fil2" points="623.7,403.37 621.22,403.47 618.77,403.68 616.36,403.89 614.01,403.99 611.69,404.2 609.38,404.41 607.11,404.61 604.87,404.82 602.65,405.03 600.44,405.24 598.26,405.34 596.06,405.45 593.88,405.55 591.7,405.55 589.52,405.55 587.32,405.45 585.11,405.34 582.89,405.24 580.65,404.93 578.39,404.61 576.1,404.2 573.78,403.68 571.43,403.05 569.03,402.32 566.59,401.59 564.1,400.66 561.57,399.61 558.98,398.47 556.33,397.11 553.61,395.76 550.84,394.2 547.98,392.43 546.57,391.59 545.12,390.86 543.65,390.24 542.17,389.72 540.72,389.41 539.3,389.2 537.93,389.09 536.62,389.2 535.4,389.51 534.3,390.13 533.32,390.86 532.48,391.91 531.79,393.26 531.29,394.82 530.98,396.8 530.88,398.99 530.98,400.24 531.26,401.49 531.7,402.74 532.31,403.78 533.07,404.82 533.96,405.87 535,406.7 536.15,407.53 537.43,408.37 538.79,409.09 540.27,409.82 541.83,410.45 543.46,410.97 545.16,411.49 546.93,412.01 548.76,412.43 550.62,412.84 552.52,413.16 554.43,413.47 556.37,413.68 558.32,413.99 560.27,414.2 562.19,414.3 564.11,414.41 565.98,414.51 567.83,414.61 569.63,414.72 571.37,414.72 573.05,414.72 574.65,414.72 576.17,414.72 577.6,414.61 579.02,414.61 580.48,414.51 581.96,414.41 583.48,414.3 585.03,414.09 586.59,413.99 588.17,413.78 589.77,413.57 591.37,413.37 592.98,413.16 594.61,412.95 596.24,412.63 597.86,412.43 599.48,412.11 601.08,411.8 602.67,411.49 604.25,411.07 605.81,410.76 607.34,410.34 608.85,409.93 610.33,409.51 611.78,408.99 613.19,408.57 614.56,408.05 615.89,407.53 617.17,407.01 618.41,406.49 619.59,405.87 620.72,405.24 621.78,404.72 622.78,403.99 "/>
    <polygon id="Vector_93" class="fil2" points="452.89,253.78 454.82,254.09 456.69,254.3 458.54,254.61 460.33,254.82 462.09,255.03 463.8,255.13 465.48,255.34 467.1,255.45 468.69,255.55 470.26,255.66 471.79,255.76 473.27,255.76 474.72,255.76 476.14,255.66 477.54,255.55 478.89,255.45 480.22,255.24 481.52,254.93 482.8,254.61 484.04,254.3 485.26,253.89 486.45,253.37 487.63,252.84 488.78,252.32 489.9,251.59 491.02,250.87 492.1,250.03 493.17,249.2 494.22,248.16 495.26,247.11 496.28,246.07 497.29,244.82 495.54,244.09 493.88,243.47 492.3,242.84 490.78,242.22 489.29,241.59 487.84,241.07 486.39,240.66 484.93,240.24 483.45,240.03 481.94,239.82 480.37,239.72 478.72,239.82 477,239.93 475.16,240.24 473.2,240.76 471.11,241.39 469.7,241.91 468.31,242.43 466.93,242.95 465.55,243.57 464.2,244.3 462.89,244.93 461.61,245.66 460.38,246.49 459.2,247.32 458.08,248.16 457.02,248.99 456.02,249.93 455.11,250.87 454.28,251.8 453.54,252.84 "/>
    <polygon id="Vector_94" class="fil2" points="423.74,236.59 424.46,237.53 425.24,238.37 426.07,239.09 426.93,239.82 427.85,240.34 428.8,240.87 429.8,241.39 430.82,241.7 431.87,242.01 432.95,242.32 434.06,242.53 435.19,242.63 436.34,242.74 437.51,242.74 438.69,242.63 439.88,242.53 441.08,242.43 442.28,242.22 443.48,242.01 444.69,241.7 445.89,241.39 447.08,241.07 448.26,240.66 449.43,240.13 450.59,239.72 451.72,239.2 452.84,238.68 453.93,238.16 454.98,237.53 456.02,236.91 457.02,236.28 457.98,235.66 466.57,228.47 466.63,228.47 466.72,228.37 466.8,228.26 466.88,228.26 466.98,228.16 467.06,228.05 467.15,227.95 467.24,227.84 465.27,227.43 463.48,226.91 461.87,226.59 460.39,226.18 459.03,225.97 457.74,225.66 456.51,225.55 455.29,225.45 454.08,225.45 452.84,225.55 451.54,225.66 450.15,225.97 448.65,226.28 447.02,226.7 445.2,227.22 443.2,227.84 442.31,228.16 441.24,228.57 440.03,228.99 438.69,229.51 437.29,230.03 435.81,230.66 434.3,231.28 432.79,231.91 431.3,232.53 429.85,233.26 428.48,233.89 427.22,234.51 426.08,235.13 425.11,235.66 424.31,236.18 "/>
    <polygon id="Vector_95" class="fil2" points="458.38,214.72 458.16,213.26 457.93,211.91 457.69,210.45 457.41,208.99 457.12,207.53 456.81,206.07 456.46,204.61 456.09,203.16 455.69,201.7 455.27,200.24 454.8,198.89 454.3,197.53 453.76,196.18 453.17,194.82 452.55,193.57 451.87,192.32 451.15,191.18 450.39,190.03 449.58,188.89 448.7,187.95 447.79,187.01 446.81,186.07 445.76,185.34 444.66,184.61 443.5,183.99 442.27,183.47 440.98,183.05 439.61,182.74 438.17,182.53 436.66,182.43 435.08,182.43 433.41,182.53 433.64,183.68 433.93,184.82 434.26,186.07 434.64,187.43 435.07,188.78 435.53,190.13 436.03,191.59 436.55,192.95 437.09,194.3 437.64,195.66 438.22,197.01 438.78,198.26 439.35,199.51 439.9,200.55 440.44,201.59 440.98,202.43 441.81,203.68 442.62,204.93 443.43,205.97 444.25,206.91 445.08,207.84 445.93,208.68 446.83,209.41 447.77,210.13 448.77,210.76 449.84,211.39 450.98,211.91 452.24,212.53 453.59,213.05 455.06,213.57 456.65,214.09 "/>
    <polygon id="Vector_96" class="fil2" points="400.54,218.68 401.11,219.51 401.75,220.24 402.44,220.97 403.19,221.59 404.01,222.11 404.87,222.63 405.78,223.05 406.75,223.47 407.76,223.89 408.81,224.09 409.9,224.41 411.03,224.51 412.19,224.61 413.39,224.72 414.61,224.72 415.86,224.72 417.14,224.61 418.43,224.51 419.76,224.3 421.08,223.99 422.43,223.68 423.78,223.36 425.14,222.95 426.52,222.53 427.88,222.01 429.25,221.49 430.61,220.87 431.98,220.24 433.32,219.51 434.66,218.78 435.98,218.05 437.3,217.11 437.38,217.11 437.48,217.01 437.56,217.01 437.65,216.91 437.75,216.91 437.83,216.8 437.93,216.7 438.01,216.7 439.45,215.66 438.06,215.13 436.77,214.61 435.55,213.99 434.38,213.47 433.26,212.95 432.15,212.32 431.05,211.8 429.91,211.39 428.75,210.97 427.52,210.55 426.19,210.34 424.79,210.13 423.26,210.03 421.58,210.03 419.76,210.24 417.75,210.55 416.6,210.76 415.43,210.97 414.24,211.39 413.02,211.8 411.79,212.22 410.57,212.63 409.36,213.16 408.17,213.78 407.02,214.3 405.89,214.93 404.82,215.55 403.81,216.18 402.87,216.8 402,217.43 401.22,218.05 "/>
    <polygon id="Vector_97" class="fil4" points="486.17,353.57 485.78,355.34 485.7,357.01 485.93,358.36 486.39,359.61 487.07,360.76 487.94,361.59 488.95,362.32 490.07,362.95 491.27,363.37 492.51,363.68 493.75,363.78 494.95,363.68 496.1,363.57 497.14,363.16 498.05,362.74 498.78,362.11 499.55,361.07 499.98,360.03 500.08,358.99 499.89,357.95 499.44,356.91 498.78,355.97 497.9,355.13 496.87,354.41 495.69,353.78 494.41,353.26 493.06,352.84 491.65,352.63 490.22,352.53 488.82,352.74 487.45,353.05 "/>
   </g>
  </g>
 </g>
</svg>
