<?xml version="1.0" encoding="UTF-8"?>
<!DOCTYPE svg PUBLIC "-//W3C//DTD SVG 1.1//EN" "http://www.w3.org/Graphics/SVG/1.1/DTD/svg11.dtd">
<!-- Creator: CorelDRAW 2019 (64-Bit) -->
<svg xmlns="http://www.w3.org/2000/svg" xml:space="preserve" width="0.989583in" height="0.439583in" version="1.1" style="shape-rendering:geometricPrecision; text-rendering:geometricPrecision; image-rendering:optimizeQuality; fill-rule:evenodd; clip-rule:evenodd"
viewBox="0 0 989.58 439.58"
 xmlns:xlink="http://www.w3.org/1999/xlink"
 xmlns:xodm="http://www.corel.com/coreldraw/odm/2003">
 <defs>
  <style type="text/css">
   <![CDATA[
    .fil1 {fill:none}
    .fil0 {fill:#9C9C9C;fill-opacity:0.850980}
   ]]>
  </style>
 </defs>
 <g id="Layer_x0020_1">
  <metadata id="CorelCorpID_0Corel-Layer"/>
  <g id="_2426321934720">
   <path id="Vector_10" class="fil0" d="M-0 92.46l80.06 0c17.69,0 39.09,16.56 49.34,25.73l139.63 153.13 0 -178.85 47.48 0 0 243.96 -83.79 0c-13.96,0 -28.85,-3.65 -45.61,-20.21l-139.64 -153.12 0 173.33 -47.48 0 0 -243.96zm989.58 245.83c-56.79,7.29 -114.51,8.23 -172.22,3.65 -33.52,-2.71 -67.03,-10.11 -96.82,-25.73 -38.18,-19.17 -50.27,-63.23 -50.27,-103.54 0.94,-36.77 12.09,-75.21 44.68,-97.29 22.35,-13.75 45.63,-18.33 69.82,-22.92 67.96,-11.87 135.93,-9.17 202.01,-1.77l0 34.79c-78.19,-14.69 -160.11,-10.94 -188.04,23.85 -17.69,21.98 -19.56,44.06 -19.56,62.4 0,33.02 11.18,82.5 79.13,92.6 44.69,6.46 88.45,1.87 131.27,-6.46l0 40.42zm-485.95 -38.54c6.52,0.94 113.57,0.94 150.8,0l0 36.67c-74.47,2.81 -145.22,4.59 -220.63,0.94 -63.3,-2.7 -74.47,-33.96 -75.39,-64.17l0 -180.73 292.3 0 0 34.89 -188.97 0 0 62.3 172.21 0 0 33.96 -172.22 0c0,18.33 0,38.54 0.93,42.19 0.94,23.85 12.1,33.02 40.97,33.96z"/>
   <rect class="fil1" x="0" width="986.39" height="439.58"/>
  </g>
 </g>
</svg>
