<?xml version="1.0" encoding="UTF-8"?>
<!DOCTYPE svg PUBLIC "-//W3C//DTD SVG 1.1//EN" "http://www.w3.org/Graphics/SVG/1.1/DTD/svg11.dtd">
<!-- Creator: CorelDRAW 2019 (64-Bit) -->
<svg xmlns="http://www.w3.org/2000/svg" xml:space="preserve" width="1.56635in" height="3.08126in" version="1.1" style="shape-rendering:geometricPrecision; text-rendering:geometricPrecision; image-rendering:optimizeQuality; fill-rule:evenodd; clip-rule:evenodd"
viewBox="0 0 1566.35 3081.26"
 xmlns:xlink="http://www.w3.org/1999/xlink"
 xmlns:xodm="http://www.corel.com/coreldraw/odm/2003">
 <defs>
  <style type="text/css">
   <![CDATA[
    .fil0 {fill:#E9B194}
   ]]>
  </style>
 </defs>
 <g id="Layer_x0020_1">
  <metadata id="CorelCorpID_0Corel-Layer"/>
  <path id="Union_2" class="fil0" d="M25.73 0l-25.73 0 0 25.68c14.17,0 25.73,-11.56 25.73,-25.68zm231.04 25.68c14.17,0 25.73,-11.56 25.73,-25.68l-51.35 0c0,14.11 11.56,25.68 25.62,25.68zm282.5 -25.68c0,14.11 -11.56,25.68 -25.73,25.68 -14.06,0 -25.63,-11.56 -25.63,-25.68l51.35 0zm231.04 25.68c14.17,0 25.73,-11.56 25.73,-25.68l-51.35 0c0,14.11 11.56,25.68 25.63,25.68zm282.5 -25.68c0,14.11 -11.56,25.68 -25.73,25.68 -14.06,0 -25.63,-11.56 -25.63,-25.68l51.35 0zm231.04 25.68c14.17,0 25.73,-11.56 25.73,-25.68l-51.35 0c0,14.11 11.56,25.68 25.63,25.68zm282.5 -25.68c0,14.11 -11.56,25.68 -25.73,25.68 -14.06,0 -25.62,-11.56 -25.62,-25.68l51.35 0zm-1540.63 256.77c0,-14.13 -11.56,-25.68 -25.73,-25.68l0 51.35c14.17,0 25.73,-11.56 25.73,-25.68zm256.77 0c0,14.19 -11.56,25.68 -25.73,25.68 -14.17,0 -25.62,-11.49 -25.62,-25.68 0,-14.18 11.46,-25.68 25.62,-25.68 14.17,0 25.73,11.5 25.73,25.68zm231.04 25.68c14.17,0 25.73,-11.49 25.73,-25.68 0,-14.18 -11.56,-25.68 -25.73,-25.68 -14.17,0 -25.63,11.5 -25.63,25.68 0,14.19 11.46,25.68 25.63,25.68zm282.5 -25.68c0,14.19 -11.56,25.68 -25.73,25.68 -14.17,0 -25.63,-11.49 -25.63,-25.68 0,-14.18 11.46,-25.68 25.63,-25.68 14.17,0 25.73,11.5 25.73,25.68zm231.04 25.68c14.17,0 25.73,-11.49 25.73,-25.68 0,-14.18 -11.56,-25.68 -25.73,-25.68 -14.17,0 -25.63,11.5 -25.63,25.68 0,14.19 11.46,25.68 25.63,25.68zm282.5 -25.68c0,14.19 -11.56,25.68 -25.73,25.68 -14.17,0 -25.63,-11.49 -25.63,-25.68 0,-14.18 11.46,-25.68 25.63,-25.68 14.17,0 25.73,11.5 25.73,25.68zm231.04 25.68c14.17,0 25.73,-11.49 25.73,-25.68 0,-14.18 -11.56,-25.68 -25.73,-25.68 -14.17,0 -25.62,11.5 -25.62,25.68 0,14.19 11.46,25.68 25.62,25.68zm-1540.62 205.43c14.17,0 25.73,11.55 25.73,25.68 0,14.11 -11.56,25.68 -25.73,25.68l0 -51.35zm256.77 51.35c14.17,0 25.73,-11.5 25.73,-25.68 0,-14.19 -11.56,-25.68 -25.73,-25.68 -14.17,0 -25.62,11.49 -25.62,25.68 0,14.18 11.46,25.68 25.62,25.68zm282.5 -25.68c0,14.18 -11.56,25.68 -25.73,25.68 -14.17,0 -25.63,-11.5 -25.63,-25.68 0,-14.19 11.46,-25.68 25.63,-25.68 14.17,0 25.73,11.49 25.73,25.68zm231.04 25.68c14.17,0 25.73,-11.5 25.73,-25.68 0,-14.19 -11.56,-25.68 -25.73,-25.68 -14.17,0 -25.63,11.49 -25.63,25.68 0,14.18 11.46,25.68 25.63,25.68zm282.5 -25.68c0,14.18 -11.56,25.68 -25.73,25.68 -14.17,0 -25.63,-11.5 -25.63,-25.68 0,-14.19 11.46,-25.68 25.63,-25.68 14.17,0 25.73,11.49 25.73,25.68zm231.04 25.68c14.17,0 25.73,-11.5 25.73,-25.68 0,-14.19 -11.56,-25.68 -25.73,-25.68 -14.17,0 -25.63,11.49 -25.63,25.68 0,14.18 11.46,25.68 25.63,25.68zm282.5 -25.68c0,14.18 -11.56,25.68 -25.73,25.68 -14.17,0 -25.62,-11.5 -25.62,-25.68 0,-14.19 11.46,-25.68 25.62,-25.68 14.17,0 25.73,11.49 25.73,25.68zm-1540.63 256.77c0,-14.11 -11.56,-25.68 -25.73,-25.68l0 51.35c14.17,0 25.73,-11.55 25.73,-25.68zm256.77 0c0,14.19 -11.56,25.68 -25.73,25.68 -14.17,0 -25.62,-11.49 -25.62,-25.68 0,-14.18 11.46,-25.68 25.62,-25.68 14.17,0 25.73,11.5 25.73,25.68zm231.04 25.68c14.17,0 25.73,-11.49 25.73,-25.68 0,-14.18 -11.56,-25.68 -25.73,-25.68 -14.17,0 -25.63,11.5 -25.63,25.68 0,14.19 11.46,25.68 25.63,25.68zm282.5 -25.68c0,14.19 -11.56,25.68 -25.73,25.68 -14.17,0 -25.63,-11.49 -25.63,-25.68 0,-14.18 11.46,-25.68 25.63,-25.68 14.17,0 25.73,11.5 25.73,25.68zm231.04 25.68c14.17,0 25.73,-11.49 25.73,-25.68 0,-14.18 -11.56,-25.68 -25.73,-25.68 -14.17,0 -25.63,11.5 -25.63,25.68 0,14.19 11.46,25.68 25.63,25.68zm282.5 -25.68c0,14.19 -11.56,25.68 -25.73,25.68 -14.17,0 -25.63,-11.49 -25.63,-25.68 0,-14.18 11.46,-25.68 25.63,-25.68 14.17,0 25.73,11.5 25.73,25.68zm231.04 25.68c14.17,0 25.73,-11.49 25.73,-25.68 0,-14.18 -11.56,-25.68 -25.73,-25.68 -14.17,0 -25.62,11.5 -25.62,25.68 0,14.19 11.46,25.68 25.62,25.68zm-1540.62 205.47c14.17,0 25.73,11.46 25.73,25.63 0,14.17 -11.56,25.73 -25.73,25.73l0 -51.35zm256.77 51.35c14.17,0 25.73,-11.56 25.73,-25.73 0,-14.17 -11.56,-25.63 -25.73,-25.63 -14.17,0 -25.62,11.46 -25.62,25.63 0,14.17 11.46,25.73 25.62,25.73zm282.5 -25.73c0,14.17 -11.56,25.73 -25.73,25.73 -14.17,0 -25.63,-11.56 -25.63,-25.73 0,-14.17 11.46,-25.63 25.63,-25.63 14.17,0 25.73,11.46 25.73,25.63zm231.04 25.73c14.17,0 25.73,-11.56 25.73,-25.73 0,-14.17 -11.56,-25.63 -25.73,-25.63 -14.17,0 -25.63,11.46 -25.63,25.63 0,14.17 11.46,25.73 25.63,25.73zm282.5 -25.73c0,14.17 -11.56,25.73 -25.73,25.73 -14.17,0 -25.63,-11.56 -25.63,-25.73 0,-14.17 11.46,-25.63 25.63,-25.63 14.17,0 25.73,11.46 25.73,25.63zm231.04 25.73c14.17,0 25.73,-11.56 25.73,-25.73 0,-14.17 -11.56,-25.63 -25.73,-25.63 -14.17,0 -25.63,11.46 -25.63,25.63 0,14.17 11.46,25.73 25.63,25.73zm282.5 -25.73c0,14.17 -11.56,25.73 -25.73,25.73 -14.17,0 -25.62,-11.56 -25.62,-25.73 0,-14.17 11.46,-25.63 25.62,-25.63 14.17,0 25.73,11.46 25.73,25.63zm-1540.63 256.77c0,-14.06 -11.56,-25.62 -25.73,-25.62l0 51.35c14.17,0 25.73,-11.56 25.73,-25.73zm256.77 0c0,14.17 -11.56,25.73 -25.73,25.73 -14.17,0 -25.62,-11.56 -25.62,-25.73 0,-14.17 11.46,-25.62 25.62,-25.62 14.17,0 25.73,11.46 25.73,25.62zm231.04 25.73c14.17,0 25.73,-11.56 25.73,-25.73 0,-14.17 -11.56,-25.62 -25.73,-25.62 -14.17,0 -25.63,11.46 -25.63,25.62 0,14.17 11.46,25.73 25.63,25.73zm282.5 -25.73c0,14.17 -11.56,25.73 -25.73,25.73 -14.17,0 -25.63,-11.56 -25.63,-25.73 0,-14.17 11.46,-25.62 25.63,-25.62 14.17,0 25.73,11.46 25.73,25.62zm231.04 25.73c14.17,0 25.73,-11.56 25.73,-25.73 0,-14.17 -11.56,-25.62 -25.73,-25.62 -14.17,0 -25.63,11.46 -25.63,25.62 0,14.17 11.46,25.73 25.63,25.73zm282.5 -25.73c0,14.17 -11.56,25.73 -25.73,25.73 -14.17,0 -25.63,-11.56 -25.63,-25.73 0,-14.17 11.46,-25.62 25.63,-25.62 14.17,0 25.73,11.46 25.73,25.62zm231.04 25.73c14.17,0 25.73,-11.56 25.73,-25.73 0,-14.17 -11.56,-25.62 -25.73,-25.62 -14.17,0 -25.62,11.46 -25.62,25.62 0,14.17 11.46,25.73 25.62,25.73zm-1540.62 205.41c14.17,0 25.73,11.56 25.73,25.63 0,14.17 -11.56,25.73 -25.73,25.73l0 -51.35zm256.77 51.35c14.17,0 25.73,-11.56 25.73,-25.73 0,-14.17 -11.56,-25.63 -25.73,-25.63 -14.17,0 -25.62,11.46 -25.62,25.63 0,14.17 11.46,25.73 25.62,25.73zm282.5 -25.73c0,14.17 -11.56,25.73 -25.73,25.73 -14.17,0 -25.63,-11.56 -25.63,-25.73 0,-14.17 11.46,-25.63 25.63,-25.63 14.17,0 25.73,11.46 25.73,25.63zm231.04 25.73c14.17,0 25.73,-11.56 25.73,-25.73 0,-14.17 -11.56,-25.63 -25.73,-25.63 -14.17,0 -25.63,11.46 -25.63,25.63 0,14.17 11.46,25.73 25.63,25.73zm282.5 -25.73c0,14.17 -11.56,25.73 -25.73,25.73 -14.17,0 -25.63,-11.56 -25.63,-25.73 0,-14.17 11.46,-25.63 25.63,-25.63 14.17,0 25.73,11.46 25.73,25.63zm231.04 25.73c14.17,0 25.73,-11.56 25.73,-25.73 0,-14.17 -11.56,-25.63 -25.73,-25.63 -14.17,0 -25.63,11.46 -25.63,25.63 0,14.17 11.46,25.73 25.63,25.73zm282.5 -25.73c0,14.17 -11.56,25.73 -25.73,25.73 -14.17,0 -25.62,-11.56 -25.62,-25.73 0,-14.17 11.46,-25.63 25.62,-25.63 14.17,0 25.73,11.46 25.73,25.63zm-1540.63 256.77c0,-14.06 -11.56,-25.63 -25.73,-25.63l0 51.35c14.17,0 25.73,-11.56 25.73,-25.73zm256.77 0c0,14.17 -11.56,25.73 -25.73,25.73 -14.17,0 -25.62,-11.56 -25.62,-25.73 0,-14.17 11.46,-25.63 25.62,-25.63 14.17,0 25.73,11.46 25.73,25.63zm231.04 25.73c14.17,0 25.73,-11.56 25.73,-25.73 0,-14.17 -11.56,-25.63 -25.73,-25.63 -14.17,0 -25.63,11.46 -25.63,25.63 0,14.17 11.46,25.73 25.63,25.73zm282.5 -25.73c0,14.17 -11.56,25.73 -25.73,25.73 -14.17,0 -25.63,-11.56 -25.63,-25.73 0,-14.17 11.46,-25.63 25.63,-25.63 14.17,0 25.73,11.46 25.73,25.63zm231.04 25.73c14.17,0 25.73,-11.56 25.73,-25.73 0,-14.17 -11.56,-25.63 -25.73,-25.63 -14.17,0 -25.63,11.46 -25.63,25.63 0,14.17 11.46,25.73 25.63,25.73zm282.5 -25.73c0,14.17 -11.56,25.73 -25.73,25.73 -14.17,0 -25.63,-11.56 -25.63,-25.73 0,-14.17 11.46,-25.63 25.63,-25.63 14.17,0 25.73,11.46 25.73,25.63zm231.04 25.73c14.17,0 25.73,-11.56 25.73,-25.73 0,-14.17 -11.56,-25.63 -25.73,-25.63 -14.17,0 -25.62,11.46 -25.62,25.63 0,14.17 11.46,25.73 25.62,25.73zm-1540.62 205.42c14.17,0 25.73,11.56 25.73,25.63 0,14.17 -11.56,25.73 -25.73,25.73l0 -51.35zm256.77 51.35c14.17,0 25.73,-11.56 25.73,-25.73 0,-14.17 -11.56,-25.63 -25.73,-25.63 -14.17,0 -25.62,11.46 -25.62,25.63 0,14.17 11.46,25.73 25.62,25.73zm282.5 -25.73c0,14.17 -11.56,25.73 -25.73,25.73 -14.17,0 -25.63,-11.56 -25.63,-25.73 0,-14.17 11.46,-25.63 25.63,-25.63 14.17,0 25.73,11.46 25.73,25.63zm231.04 25.73c14.17,0 25.73,-11.56 25.73,-25.73 0,-14.17 -11.56,-25.63 -25.73,-25.63 -14.17,0 -25.63,11.46 -25.63,25.63 0,14.17 11.46,25.73 25.63,25.73zm282.5 -25.73c0,14.17 -11.56,25.73 -25.73,25.73 -14.17,0 -25.63,-11.56 -25.63,-25.73 0,-14.17 11.46,-25.63 25.63,-25.63 14.17,0 25.73,11.46 25.73,25.63zm231.04 25.73c14.17,0 25.73,-11.56 25.73,-25.73 0,-14.17 -11.56,-25.63 -25.73,-25.63 -14.17,0 -25.63,11.46 -25.63,25.63 0,14.17 11.46,25.73 25.63,25.73zm282.5 -25.73c0,14.17 -11.56,25.73 -25.73,25.73 -14.17,0 -25.62,-11.56 -25.62,-25.73 0,-14.17 11.46,-25.63 25.62,-25.63 14.17,0 25.73,11.46 25.73,25.63zm-1540.63 256.77c0,-14.06 -11.56,-25.63 -25.73,-25.63l0 51.35c14.17,0 25.73,-11.56 25.73,-25.73zm256.77 0c0,14.17 -11.56,25.73 -25.73,25.73 -14.17,0 -25.62,-11.56 -25.62,-25.73 0,-14.17 11.46,-25.63 25.62,-25.63 14.17,0 25.73,11.46 25.73,25.63zm231.04 25.73c14.17,0 25.73,-11.56 25.73,-25.73 0,-14.17 -11.56,-25.63 -25.73,-25.63 -14.17,0 -25.63,11.46 -25.63,25.63 0,14.17 11.46,25.73 25.63,25.73zm282.5 -25.73c0,14.17 -11.56,25.73 -25.73,25.73 -14.17,0 -25.63,-11.56 -25.63,-25.73 0,-14.17 11.46,-25.63 25.63,-25.63 14.17,0 25.73,11.46 25.73,25.63zm231.04 25.73c14.17,0 25.73,-11.56 25.73,-25.73 0,-14.17 -11.56,-25.63 -25.73,-25.63 -14.17,0 -25.63,11.46 -25.63,25.63 0,14.17 11.46,25.73 25.63,25.73zm282.5 -25.73c0,14.17 -11.56,25.73 -25.73,25.73 -14.17,0 -25.63,-11.56 -25.63,-25.73 0,-14.17 11.46,-25.63 25.63,-25.63 14.17,0 25.73,11.46 25.73,25.63zm231.04 25.73c14.17,0 25.73,-11.56 25.73,-25.73 0,-14.17 -11.56,-25.63 -25.73,-25.63 -14.17,0 -25.62,11.46 -25.62,25.63 0,14.17 11.46,25.73 25.62,25.73zm-1540.62 205.42c14.17,0 25.73,11.56 25.73,25.62 0,14.17 -11.56,25.73 -25.73,25.73l0 -51.35zm256.77 51.35c14.17,0 25.73,-11.46 25.73,-25.73 0,-14.17 -11.56,-25.62 -25.73,-25.62 -14.17,0 -25.62,11.46 -25.62,25.62 0,14.27 11.46,25.73 25.62,25.73zm282.5 -25.73c0,14.27 -11.56,25.73 -25.73,25.73 -14.17,0 -25.63,-11.46 -25.63,-25.73 0,-14.17 11.46,-25.62 25.63,-25.62 14.17,0 25.73,11.46 25.73,25.62zm231.04 25.73c14.17,0 25.73,-11.46 25.73,-25.73 0,-14.17 -11.56,-25.62 -25.73,-25.62 -14.17,0 -25.63,11.46 -25.63,25.62 0,14.27 11.46,25.73 25.63,25.73zm282.5 -25.73c0,14.27 -11.56,25.73 -25.73,25.73 -14.17,0 -25.63,-11.46 -25.63,-25.73 0,-14.17 11.46,-25.62 25.63,-25.62 14.17,0 25.73,11.46 25.73,25.62zm231.04 25.73c14.17,0 25.73,-11.46 25.73,-25.73 0,-14.17 -11.56,-25.62 -25.73,-25.62 -14.17,0 -25.63,11.46 -25.63,25.62 0,14.27 11.46,25.73 25.63,25.73zm282.5 -25.73c0,14.27 -11.56,25.73 -25.73,25.73 -14.17,0 -25.62,-11.46 -25.62,-25.73 0,-14.17 11.46,-25.62 25.62,-25.62 14.17,0 25.73,11.46 25.73,25.62zm-1540.63 256.77c0,-14.06 -11.56,-25.63 -25.73,-25.63l0 51.35c14.17,0 25.73,-11.56 25.73,-25.73zm256.77 0c0,14.27 -11.56,25.73 -25.73,25.73 -14.17,0 -25.62,-11.46 -25.62,-25.73 0,-14.17 11.46,-25.63 25.62,-25.63 14.17,0 25.73,11.46 25.73,25.63zm231.04 25.73c14.17,0 25.73,-11.46 25.73,-25.73 0,-14.17 -11.56,-25.63 -25.73,-25.63 -14.17,0 -25.63,11.46 -25.63,25.63 0,14.27 11.46,25.73 25.63,25.73zm282.5 -25.73c0,14.27 -11.56,25.73 -25.73,25.73 -14.17,0 -25.63,-11.46 -25.63,-25.73 0,-14.17 11.46,-25.63 25.63,-25.63 14.17,0 25.73,11.46 25.73,25.63zm231.04 25.73c14.17,0 25.73,-11.46 25.73,-25.73 0,-14.17 -11.56,-25.63 -25.73,-25.63 -14.17,0 -25.63,11.46 -25.63,25.63 0,14.27 11.46,25.73 25.63,25.73zm282.5 -25.73c0,14.27 -11.56,25.73 -25.73,25.73 -14.17,0 -25.63,-11.46 -25.63,-25.73 0,-14.17 11.46,-25.63 25.63,-25.63 14.17,0 25.73,11.46 25.73,25.63zm231.04 25.73c14.17,0 25.73,-11.46 25.73,-25.73 0,-14.17 -11.56,-25.63 -25.73,-25.63 -14.17,0 -25.62,11.46 -25.62,25.63 0,14.27 11.46,25.73 25.62,25.73zm-1540.62 231.04l0 -25.63c14.17,0 25.73,11.56 25.73,25.63l-25.73 0zm256.77 -25.63c-14.06,0 -25.62,11.56 -25.62,25.63l51.35 0c0,-14.06 -11.56,-25.63 -25.73,-25.63zm231.15 25.63c0,-14.06 11.56,-25.63 25.63,-25.63 14.17,0 25.73,11.56 25.73,25.63l-51.35 0zm282.4 -25.63c-14.06,0 -25.63,11.56 -25.63,25.63l51.35 0c0,-14.06 -11.56,-25.63 -25.73,-25.63zm231.15 25.63c0,-14.06 11.56,-25.63 25.63,-25.63 14.17,0 25.73,11.56 25.73,25.63l-51.35 0zm282.4 -25.63c-14.06,0 -25.63,11.56 -25.63,25.63l51.35 0c0,-14.06 -11.56,-25.63 -25.73,-25.63zm231.15 25.63c0,-14.06 11.56,-25.63 25.62,-25.63 14.17,0 25.73,11.56 25.73,25.63l-51.35 0z"/>
 </g>
</svg>
