<?xml version="1.0" encoding="UTF-8"?>
<!DOCTYPE svg PUBLIC "-//W3C//DTD SVG 1.1//EN" "http://www.w3.org/Graphics/SVG/1.1/DTD/svg11.dtd">
<!-- Creator: CorelDRAW 2019 (64-Bit) -->
<svg xmlns="http://www.w3.org/2000/svg" xml:space="preserve" width="1.69792in" height="4.42578in" version="1.1" style="shape-rendering:geometricPrecision; text-rendering:geometricPrecision; image-rendering:optimizeQuality; fill-rule:evenodd; clip-rule:evenodd"
viewBox="0 0 1697.91 4425.77"
 xmlns:xlink="http://www.w3.org/1999/xlink"
 xmlns:xodm="http://www.corel.com/coreldraw/odm/2003">
 <defs>
  <style type="text/css">
   <![CDATA[
    .fil1 {fill:#55BC7E;fill-rule:nonzero}
    .fil0 {fill:#55BC7E}
   ]]>
  </style>
 </defs>
 <g id="Layer_x0020_1">
  <metadata id="CorelCorpID_0Corel-Layer"/>
  <g id="_2462109052912">
   <path id="Union_4" class="fil0" d="M124.13 1750.36c12.36,0 22.48,-10.1 22.48,-22.5l-44.96 0c0,12.4 10.12,22.5 22.48,22.5zm247.31 -22.5c0,12.4 -10.12,22.5 -22.48,22.5 -12.36,0 -22.48,-10.1 -22.48,-22.5l44.96 0zm202.34 22.5c12.37,0 22.48,-10.1 22.48,-22.5l-44.96 0c0,12.4 10.11,22.5 22.48,22.5zm247.31 -22.5c0,12.4 -10.12,22.5 -22.48,22.5 -12.37,0 -22.48,-10.1 -22.48,-22.5l44.96 0zm202.34 22.5c12.37,0 22.48,-10.1 22.48,-22.5l-44.96 0c0,12.4 10.11,22.5 22.48,22.5zm247.31 -22.5c0,12.4 -10.12,22.5 -22.49,22.5 -12.36,0 -22.48,-10.1 -22.48,-22.5l44.97 0zm202.35 22.5c12.36,0 22.48,-10.1 22.48,-22.5l-44.97 0c0,12.4 10.13,22.5 22.49,22.5zm224.82 -22.5l0 22.5c-12.37,0 -22.48,-10.1 -22.48,-22.5l22.48 0zm-1551.3 224.79c0,12.5 -10.07,22.5 -22.48,22.5 -12.42,0 -22.48,-10 -22.48,-22.5 0,-12.39 10.07,-22.5 22.48,-22.5 12.41,0 22.48,10.11 22.48,22.5zm202.34 22.5c12.42,0 22.48,-10 22.48,-22.5 0,-12.39 -10.07,-22.5 -22.48,-22.5 -12.41,0 -22.48,10.11 -22.48,22.5 0,12.5 10.07,22.5 22.48,22.5zm247.31 -22.5c0,12.5 -10.07,22.5 -22.48,22.5 -12.42,0 -22.48,-10 -22.48,-22.5 0,-12.39 10.06,-22.5 22.48,-22.5 12.42,0 22.48,10.11 22.48,22.5zm202.34 22.5c12.42,0 22.48,-10 22.48,-22.5 0,-12.39 -10.07,-22.5 -22.48,-22.5 -12.42,0 -22.48,10.11 -22.48,22.5 0,12.5 10.06,22.5 22.48,22.5zm247.31 -22.5c0,12.5 -10.06,22.5 -22.48,22.5 -12.42,0 -22.48,-10 -22.48,-22.5 0,-12.39 10.06,-22.5 22.48,-22.5 12.42,0 22.48,10.11 22.48,22.5zm202.34 22.5c12.42,0 22.49,-10 22.49,-22.5 0,-12.39 -10.07,-22.5 -22.49,-22.5 -12.42,0 -22.48,10.11 -22.48,22.5 0,12.5 10.06,22.5 22.48,22.5zm247.31 -22.5c0,12.5 -10.06,22.5 -22.48,22.5 -12.42,0 -22.49,-10 -22.49,-22.5 0,-12.39 10.07,-22.5 22.49,-22.5 12.42,0 22.48,10.11 22.48,22.5zm179.86 0c0,12.4 10.11,22.5 22.48,22.5l0 -45c-12.37,0 -22.48,10.21 -22.48,22.5zm-1551.3 247.29c12.41,0 22.48,-10 22.48,-22.39 0,-12.5 -10.07,-22.5 -22.48,-22.5 -12.42,0 -22.48,10 -22.48,22.5 0,12.39 10.07,22.39 22.48,22.39zm247.31 -22.39c0,12.39 -10.07,22.39 -22.48,22.39 -12.41,0 -22.48,-10 -22.48,-22.39 0,-12.5 10.07,-22.5 22.48,-22.5 12.42,0 22.48,10 22.48,22.5zm202.34 22.39c12.42,0 22.48,-10 22.48,-22.39 0,-12.5 -10.07,-22.5 -22.48,-22.5 -12.42,0 -22.48,10 -22.48,22.5 0,12.39 10.06,22.39 22.48,22.39zm247.31 -22.39c0,12.39 -10.07,22.39 -22.48,22.39 -12.42,0 -22.48,-10 -22.48,-22.39 0,-12.5 10.06,-22.5 22.48,-22.5 12.42,0 22.48,10 22.48,22.5zm202.34 22.39c12.42,0 22.48,-10 22.48,-22.39 0,-12.5 -10.06,-22.5 -22.48,-22.5 -12.42,0 -22.48,10 -22.48,22.5 0,12.39 10.06,22.39 22.48,22.39zm247.31 -22.39c0,12.39 -10.07,22.39 -22.49,22.39 -12.42,0 -22.48,-10 -22.48,-22.39 0,-12.5 10.06,-22.5 22.48,-22.5 12.42,0 22.49,10 22.49,22.5zm202.35 22.39c12.42,0 22.48,-10 22.48,-22.39 0,-12.5 -10.06,-22.5 -22.48,-22.5 -12.42,0 -22.49,10 -22.49,22.5 0,12.39 10.07,22.39 22.49,22.39zm224.82 0c-12.37,0 -22.48,-10.1 -22.48,-22.39 0,-12.4 10.11,-22.5 22.48,-22.5l0 44.89zm-1551.3 202.4c0,12.39 -10.07,22.5 -22.48,22.5 -12.42,0 -22.48,-10.11 -22.48,-22.5 0,-12.4 10.07,-22.5 22.48,-22.5 12.41,0 22.48,10.1 22.48,22.5zm202.34 22.5c12.42,0 22.48,-10.11 22.48,-22.5 0,-12.4 -10.07,-22.5 -22.48,-22.5 -12.41,0 -22.48,10.1 -22.48,22.5 0,12.39 10.07,22.5 22.48,22.5zm247.31 -22.5c0,12.39 -10.07,22.5 -22.48,22.5 -12.42,0 -22.48,-10.11 -22.48,-22.5 0,-12.4 10.06,-22.5 22.48,-22.5 12.42,0 22.48,10.1 22.48,22.5zm202.34 22.5c12.42,0 22.48,-10.11 22.48,-22.5 0,-12.4 -10.07,-22.5 -22.48,-22.5 -12.42,0 -22.48,10.1 -22.48,22.5 0,12.39 10.06,22.5 22.48,22.5zm247.31 -22.5c0,12.39 -10.06,22.5 -22.48,22.5 -12.42,0 -22.48,-10.11 -22.48,-22.5 0,-12.4 10.06,-22.5 22.48,-22.5 12.42,0 22.48,10.1 22.48,22.5zm202.34 22.5c12.42,0 22.49,-10.11 22.49,-22.5 0,-12.4 -10.07,-22.5 -22.49,-22.5 -12.42,0 -22.48,10.1 -22.48,22.5 0,12.39 10.06,22.5 22.48,22.5zm247.31 -22.5c0,12.39 -10.06,22.5 -22.48,22.5 -12.42,0 -22.49,-10.11 -22.49,-22.5 0,-12.4 10.07,-22.5 22.49,-22.5 12.42,0 22.48,10.1 22.48,22.5zm179.86 0c0,12.39 10.11,22.5 22.48,22.5l0 -45c-12.37,0 -22.48,10.1 -22.48,22.5zm-1551.3 247.29c12.41,0 22.48,-10 22.48,-22.5 0,-12.4 -10.07,-22.5 -22.48,-22.5 -12.42,0 -22.48,10.1 -22.48,22.5 0,12.5 10.07,22.5 22.48,22.5zm247.31 -22.5c0,12.5 -10.07,22.5 -22.48,22.5 -12.41,0 -22.48,-10 -22.48,-22.5 0,-12.4 10.07,-22.5 22.48,-22.5 12.42,0 22.48,10.1 22.48,22.5zm202.34 22.5c12.42,0 22.48,-10 22.48,-22.5 0,-12.4 -10.07,-22.5 -22.48,-22.5 -12.42,0 -22.48,10.1 -22.48,22.5 0,12.5 10.06,22.5 22.48,22.5zm247.31 -22.5c0,12.5 -10.07,22.5 -22.48,22.5 -12.42,0 -22.48,-10 -22.48,-22.5 0,-12.4 10.06,-22.5 22.48,-22.5 12.42,0 22.48,10.1 22.48,22.5zm202.34 22.5c12.42,0 22.48,-10 22.48,-22.5 0,-12.4 -10.06,-22.5 -22.48,-22.5 -12.42,0 -22.48,10.1 -22.48,22.5 0,12.5 10.06,22.5 22.48,22.5zm247.31 -22.5c0,12.5 -10.07,22.5 -22.49,22.5 -12.42,0 -22.48,-10 -22.48,-22.5 0,-12.4 10.06,-22.5 22.48,-22.5 12.42,0 22.49,10.1 22.49,22.5zm202.35 22.5c12.42,0 22.48,-10 22.48,-22.5 0,-12.4 -10.06,-22.5 -22.48,-22.5 -12.42,0 -22.49,10.1 -22.49,22.5 0,12.5 10.07,22.5 22.49,22.5zm224.82 0c-12.37,0 -22.48,-10.11 -22.48,-22.5 0,-12.29 10.11,-22.5 22.48,-22.5l0 45zm-1551.3 202.39c0,12.4 -10.07,22.4 -22.48,22.4 -12.42,0 -22.48,-10 -22.48,-22.4 0,-12.5 10.07,-22.5 22.48,-22.5 12.41,0 22.48,10 22.48,22.5zm202.34 22.4c12.42,0 22.48,-10 22.48,-22.4 0,-12.5 -10.07,-22.5 -22.48,-22.5 -12.41,0 -22.48,10 -22.48,22.5 0,12.4 10.07,22.4 22.48,22.4zm247.31 -22.4c0,12.4 -10.07,22.4 -22.48,22.4 -12.42,0 -22.48,-10 -22.48,-22.4 0,-12.5 10.06,-22.5 22.48,-22.5 12.42,0 22.48,10 22.48,22.5zm202.34 22.4c12.42,0 22.48,-10 22.48,-22.4 0,-12.5 -10.07,-22.5 -22.48,-22.5 -12.42,0 -22.48,10 -22.48,22.5 0,12.4 10.06,22.4 22.48,22.4zm247.31 -22.4c0,12.4 -10.06,22.4 -22.48,22.4 -12.42,0 -22.48,-10 -22.48,-22.4 0,-12.5 10.06,-22.5 22.48,-22.5 12.42,0 22.48,10 22.48,22.5zm202.34 22.4c12.42,0 22.49,-10 22.49,-22.4 0,-12.5 -10.07,-22.5 -22.49,-22.5 -12.42,0 -22.48,10 -22.48,22.5 0,12.4 10.06,22.4 22.48,22.4zm247.31 -22.4c0,12.4 -10.06,22.4 -22.48,22.4 -12.42,0 -22.49,-10 -22.49,-22.4 0,-12.5 10.07,-22.5 22.49,-22.5 12.42,0 22.48,10 22.48,22.5zm179.86 0c0,12.29 10.11,22.4 22.48,22.4l0 -44.9c-12.37,0 -22.48,10.11 -22.48,22.5zm-1551.3 247.29c12.41,0 22.48,-10.1 22.48,-22.5 0,-12.39 -10.07,-22.5 -22.48,-22.5 -12.42,0 -22.48,10.11 -22.48,22.5 0,12.4 10.07,22.5 22.48,22.5zm247.31 -22.5c0,12.4 -10.07,22.5 -22.48,22.5 -12.41,0 -22.48,-10.1 -22.48,-22.5 0,-12.39 10.07,-22.5 22.48,-22.5 12.42,0 22.48,10.11 22.48,22.5zm202.34 22.5c12.42,0 22.48,-10.1 22.48,-22.5 0,-12.39 -10.07,-22.5 -22.48,-22.5 -12.42,0 -22.48,10.11 -22.48,22.5 0,12.4 10.06,22.5 22.48,22.5zm247.31 -22.5c0,12.4 -10.07,22.5 -22.48,22.5 -12.42,0 -22.48,-10.1 -22.48,-22.5 0,-12.39 10.06,-22.5 22.48,-22.5 12.42,0 22.48,10.11 22.48,22.5zm202.34 22.5c12.42,0 22.48,-10.1 22.48,-22.5 0,-12.39 -10.06,-22.5 -22.48,-22.5 -12.42,0 -22.48,10.11 -22.48,22.5 0,12.4 10.06,22.5 22.48,22.5zm247.31 -22.5c0,12.4 -10.07,22.5 -22.49,22.5 -12.42,0 -22.48,-10.1 -22.48,-22.5 0,-12.39 10.06,-22.5 22.48,-22.5 12.42,0 22.49,10.11 22.49,22.5zm202.35 22.5c12.42,0 22.48,-10.1 22.48,-22.5 0,-12.39 -10.06,-22.5 -22.48,-22.5 -12.42,0 -22.49,10.11 -22.49,22.5 0,12.4 10.07,22.5 22.49,22.5zm224.82 0c-12.37,0 -22.48,-10.1 -22.48,-22.5 0,-12.39 10.11,-22.5 22.48,-22.5l0 45zm-1551.3 202.29c0,12.5 -10.07,22.5 -22.48,22.5 -12.42,0 -22.48,-10 -22.48,-22.5 0,-12.39 10.07,-22.5 22.48,-22.5 12.41,0 22.48,10.11 22.48,22.5zm202.34 22.5c12.42,0 22.48,-10 22.48,-22.5 0,-12.39 -10.07,-22.5 -22.48,-22.5 -12.41,0 -22.48,10.11 -22.48,22.5 0,12.5 10.07,22.5 22.48,22.5zm247.31 -22.5c0,12.5 -10.07,22.5 -22.48,22.5 -12.42,0 -22.48,-10 -22.48,-22.5 0,-12.39 10.06,-22.5 22.48,-22.5 12.42,0 22.48,10.11 22.48,22.5zm202.34 22.5c12.42,0 22.48,-10 22.48,-22.5 0,-12.39 -10.07,-22.5 -22.48,-22.5 -12.42,0 -22.48,10.11 -22.48,22.5 0,12.5 10.06,22.5 22.48,22.5zm247.31 -22.5c0,12.5 -10.06,22.5 -22.48,22.5 -12.42,0 -22.48,-10 -22.48,-22.5 0,-12.39 10.06,-22.5 22.48,-22.5 12.42,0 22.48,10.11 22.48,22.5zm202.34 22.5c12.42,0 22.49,-10 22.49,-22.5 0,-12.39 -10.07,-22.5 -22.49,-22.5 -12.42,0 -22.48,10.11 -22.48,22.5 0,12.5 10.06,22.5 22.48,22.5zm247.31 -22.5c0,12.5 -10.06,22.5 -22.48,22.5 -12.42,0 -22.49,-10 -22.49,-22.5 0,-12.39 10.07,-22.5 22.49,-22.5 12.42,0 22.48,10.11 22.48,22.5zm179.86 0c0,12.4 10.11,22.5 22.48,22.5l0 -45c-12.37,0 -22.48,10.21 -22.48,22.5zm-1551.3 247.29c12.41,0 22.48,-10 22.48,-22.4 0,-12.5 -10.07,-22.5 -22.48,-22.5 -12.42,0 -22.48,10 -22.48,22.5 0,12.4 10.07,22.4 22.48,22.4zm247.31 -22.4c0,12.4 -10.07,22.4 -22.48,22.4 -12.41,0 -22.48,-10 -22.48,-22.4 0,-12.5 10.07,-22.5 22.48,-22.5 12.42,0 22.48,10 22.48,22.5zm202.34 22.4c12.42,0 22.48,-10 22.48,-22.4 0,-12.5 -10.07,-22.5 -22.48,-22.5 -12.42,0 -22.48,10 -22.48,22.5 0,12.4 10.06,22.4 22.48,22.4zm247.31 -22.4c0,12.4 -10.07,22.4 -22.48,22.4 -12.42,0 -22.48,-10 -22.48,-22.4 0,-12.5 10.06,-22.5 22.48,-22.5 12.42,0 22.48,10 22.48,22.5zm202.34 22.4c12.42,0 22.48,-10 22.48,-22.4 0,-12.5 -10.06,-22.5 -22.48,-22.5 -12.42,0 -22.48,10 -22.48,22.5 0,12.4 10.06,22.4 22.48,22.4zm247.31 -22.4c0,12.4 -10.07,22.4 -22.49,22.4 -12.42,0 -22.48,-10 -22.48,-22.4 0,-12.5 10.06,-22.5 22.48,-22.5 12.42,0 22.49,10 22.49,22.5zm202.35 22.4c12.42,0 22.48,-10 22.48,-22.4 0,-12.5 -10.06,-22.5 -22.48,-22.5 -12.42,0 -22.49,10 -22.49,22.5 0,12.4 10.07,22.4 22.49,22.4zm224.82 0c-12.37,0 -22.48,-10.11 -22.48,-22.4 0,-12.4 10.11,-22.5 22.48,-22.5l0 44.9zm-1551.3 202.39c0,12.4 -10.07,22.5 -22.48,22.5 -12.42,0 -22.48,-10.1 -22.48,-22.5 0,-12.39 10.07,-22.5 22.48,-22.5 12.41,0 22.48,10.11 22.48,22.5zm202.34 22.5c12.42,0 22.48,-10.1 22.48,-22.5 0,-12.39 -10.07,-22.5 -22.48,-22.5 -12.41,0 -22.48,10.11 -22.48,22.5 0,12.4 10.07,22.5 22.48,22.5zm247.31 -22.5c0,12.4 -10.07,22.5 -22.48,22.5 -12.42,0 -22.48,-10.1 -22.48,-22.5 0,-12.39 10.06,-22.5 22.48,-22.5 12.42,0 22.48,10.11 22.48,22.5zm202.34 22.5c12.42,0 22.48,-10.1 22.48,-22.5 0,-12.39 -10.07,-22.5 -22.48,-22.5 -12.42,0 -22.48,10.11 -22.48,22.5 0,12.4 10.06,22.5 22.48,22.5zm247.31 -22.5c0,12.4 -10.06,22.5 -22.48,22.5 -12.42,0 -22.48,-10.1 -22.48,-22.5 0,-12.39 10.06,-22.5 22.48,-22.5 12.42,0 22.48,10.11 22.48,22.5zm202.34 22.5c12.42,0 22.49,-10.1 22.49,-22.5 0,-12.39 -10.07,-22.5 -22.49,-22.5 -12.42,0 -22.48,10.11 -22.48,22.5 0,12.4 10.06,22.5 22.48,22.5zm247.31 -22.5c0,12.4 -10.06,22.5 -22.48,22.5 -12.42,0 -22.49,-10.1 -22.49,-22.5 0,-12.39 10.07,-22.5 22.49,-22.5 12.42,0 22.48,10.11 22.48,22.5zm179.86 0c0,12.4 10.11,22.5 22.48,22.5l0 -45c-12.37,0 -22.48,10.11 -22.48,22.5zm-1551.3 247.29c12.41,0 22.48,-10 22.48,-22.5 0,-12.39 -10.07,-22.5 -22.48,-22.5 -12.42,0 -22.48,10.11 -22.48,22.5 0,12.5 10.07,22.5 22.48,22.5zm247.31 -22.5c0,12.5 -10.07,22.5 -22.48,22.5 -12.41,0 -22.48,-10 -22.48,-22.5 0,-12.39 10.07,-22.5 22.48,-22.5 12.42,0 22.48,10.11 22.48,22.5zm202.34 22.5c12.42,0 22.48,-10 22.48,-22.5 0,-12.39 -10.07,-22.5 -22.48,-22.5 -12.42,0 -22.48,10.11 -22.48,22.5 0,12.5 10.06,22.5 22.48,22.5zm247.31 -22.5c0,12.5 -10.07,22.5 -22.48,22.5 -12.42,0 -22.48,-10 -22.48,-22.5 0,-12.39 10.06,-22.5 22.48,-22.5 12.42,0 22.48,10.11 22.48,22.5zm202.34 22.5c12.42,0 22.48,-10 22.48,-22.5 0,-12.39 -10.06,-22.5 -22.48,-22.5 -12.42,0 -22.48,10.11 -22.48,22.5 0,12.5 10.06,22.5 22.48,22.5zm247.31 -22.5c0,12.5 -10.07,22.5 -22.49,22.5 -12.42,0 -22.48,-10 -22.48,-22.5 0,-12.39 10.06,-22.5 22.48,-22.5 12.42,0 22.49,10.11 22.49,22.5zm202.35 22.5c12.42,0 22.48,-10 22.48,-22.5 0,-12.39 -10.06,-22.5 -22.48,-22.5 -12.42,0 -22.49,10.11 -22.49,22.5 0,12.5 10.07,22.5 22.49,22.5zm224.82 0c-12.37,0 -22.48,-10.1 -22.48,-22.5 0,-12.29 10.11,-22.5 22.48,-22.5l0 45zm-1551.3 202.4c0,12.39 -10.07,22.39 -22.48,22.39 -12.42,0 -22.48,-10 -22.48,-22.39 0,-12.5 10.07,-22.5 22.48,-22.5 12.41,0 22.48,10 22.48,22.5zm202.34 22.39c12.42,0 22.48,-10 22.48,-22.39 0,-12.5 -10.07,-22.5 -22.48,-22.5 -12.41,0 -22.48,10 -22.48,22.5 0,12.39 10.07,22.39 22.48,22.39zm247.31 -22.39c0,12.39 -10.07,22.39 -22.48,22.39 -12.42,0 -22.48,-10 -22.48,-22.39 0,-12.5 10.06,-22.5 22.48,-22.5 12.42,0 22.48,10 22.48,22.5zm202.34 22.39c12.42,0 22.48,-10 22.48,-22.39 0,-12.5 -10.07,-22.5 -22.48,-22.5 -12.42,0 -22.48,10 -22.48,22.5 0,12.39 10.06,22.39 22.48,22.39zm247.31 -22.39c0,12.39 -10.06,22.39 -22.48,22.39 -12.42,0 -22.48,-10 -22.48,-22.39 0,-12.5 10.06,-22.5 22.48,-22.5 12.42,0 22.48,10 22.48,22.5zm202.34 22.39c12.42,0 22.49,-10 22.49,-22.39 0,-12.5 -10.07,-22.5 -22.49,-22.5 -12.42,0 -22.48,10 -22.48,22.5 0,12.39 10.06,22.39 22.48,22.39zm247.31 -22.39c0,12.39 -10.06,22.39 -22.48,22.39 -12.42,0 -22.49,-10 -22.49,-22.39 0,-12.5 10.07,-22.5 22.49,-22.5 12.42,0 22.48,10 22.48,22.5zm179.86 0c0,12.29 10.11,22.39 22.48,22.39l0 -44.89c-12.37,0 -22.48,10.1 -22.48,22.5zm-1551.3 202.29c-12.37,0 -22.48,10.1 -22.48,22.5l44.96 0c0,-12.4 -10.12,-22.5 -22.48,-22.5zm202.34 22.5c0,-12.4 10.12,-22.5 22.48,-22.5 12.37,0 22.48,10.1 22.48,22.5l-44.96 0zm247.31 -22.5c-12.37,0 -22.48,10.1 -22.48,22.5l44.96 0c0,-12.4 -10.12,-22.5 -22.48,-22.5zm202.35 22.5c0,-12.4 10.11,-22.5 22.48,-22.5 12.37,0 22.48,10.1 22.48,22.5l-44.96 0zm247.31 -22.5c-12.37,0 -22.48,10.1 -22.48,22.5l44.96 0c0,-12.4 -10.11,-22.5 -22.48,-22.5zm202.34 22.5c0,-12.4 10.12,-22.5 22.48,-22.5 12.37,0 22.49,10.1 22.49,22.5l-44.97 0zm247.31 -22.5c-12.37,0 -22.49,10.1 -22.49,22.5l44.97 0c0,-12.4 -10.12,-22.5 -22.48,-22.5zm202.34 22.5c0,-12.4 10.11,-22.5 22.48,-22.5l0 22.5 -22.48 0z"/>
   <path id="Vector_6" class="fil1" d="M-0 9.07c474.87,-49.3 772.25,113.76 938.4,215.98 551.99,339.89 793.81,944.79 397.78,1487.71 -357.83,490.41 -611.71,140.94 -1106.96,455.41 -14.75,9.38 -28.84,19.27 -42.52,29.27 -75.84,55.67 -136.2,120.84 -186.71,191.66l0 -2380.04z"/>
  </g>
 </g>
</svg>
