<?xml version="1.0" encoding="UTF-8"?>
<!DOCTYPE svg PUBLIC "-//W3C//DTD SVG 1.1//EN" "http://www.w3.org/Graphics/SVG/1.1/DTD/svg11.dtd">
<!-- Creator: CorelDRAW 2019 (64-Bit) -->
<svg xmlns="http://www.w3.org/2000/svg" xml:space="preserve" width="1.70626in" height="0.439583in" version="1.1" style="shape-rendering:geometricPrecision; text-rendering:geometricPrecision; image-rendering:optimizeQuality; fill-rule:evenodd; clip-rule:evenodd"
viewBox="0 0 1706.26 439.58"
 xmlns:xlink="http://www.w3.org/1999/xlink"
 xmlns:xodm="http://www.corel.com/coreldraw/odm/2003">
 <defs>
  <style type="text/css">
   <![CDATA[
    .fil1 {fill:none}
    .fil0 {fill:#9C9C9C;fill-rule:nonzero;fill-opacity:0.850980}
   ]]>
  </style>
 </defs>
 <g id="Layer_x0020_1">
  <metadata id="CorelCorpID_0Corel-Layer"/>
  <g id="_2462104849168">
   <g>
    <path id="Vector_7" class="fil0" d="M377.7 48.19c-22.3,0 -53.18,9.48 -75.68,40.42 -4.26,6.04 -7.51,12.81 -9.47,20 -6.82,24.37 -2.02,50.63 12.98,70.94 11.56,15.63 26.3,27.4 39.26,37.71 6.41,5 19.86,17.81 24.2,23.23 6.48,8.13 11.42,12.92 17.29,30.83 3.52,10.94 4.06,25.21 2.37,33.33 40.68,-41.35 85.15,-95 85.15,-153.33 0,-67.08 -47.92,-103.13 -96.09,-103.13z"/>
    <path id="Vector_8" class="fil0" d="M292.76 272.88c-16.89,-23.54 -36.49,-37.81 -52.57,-52.92 -7.03,-6.46 -14.74,-11.46 -20.42,-17.19 -27.37,-27.81 -40.13,-62.08 -33.72,-104.17 5.07,-33.13 21.22,-54.79 40.56,-70.83 -23.19,-17.39 -50.63,-26.77 -81.71,-26.77 -77.11,0 -141.57,63.33 -139.55,141.35 3.52,141.04 176.11,261.15 247.27,285.73 38.11,-20 58.32,-57.29 58.32,-95.42 -0.06,-27.81 -11.76,-50.83 -18.18,-59.79z"/>
    <path id="Vector_9" class="fil0" d="M594.22 265.59c13.37,9.48 39.8,21.67 58.52,21.67 14.4,0 26.76,-5.42 26.76,-21.04 0,-15.2 -19.39,-20.73 -39.13,-28.44 -22.7,-8.85 -45.48,-22.71 -45.48,-59.37 0,-48.75 35.75,-74.48 87.57,-74.48 34.06,0 64.48,17.29 80.22,35.52l-34.06 35.94c-15.41,-13.23 -32.44,-23.02 -48.85,-23.02 -13.39,0 -23.39,5.42 -23.39,17.61 0,16.56 14.4,20.63 38.73,30.83 23.38,9.79 47.5,23.96 47.5,58.96 0,47.29 -38.11,77.92 -92.24,77.92 -38.11,0 -70.22,-16.04 -82.91,-26.15l26.76 -45.94zm269.23 -16.25c2.03,-10.94 2.63,-20.73 2.63,-28.23 0,-16.15 -5,-26.04 -16.69,-26.04 -15.68,0 -26.09,15.52 -31.09,43.65 -2.02,10.94 -3.04,22.4 -3.04,31.15 0,14.9 4.06,27.19 16.43,27.19 16.35,0 26.08,-14.58 31.76,-47.71zm-4.67 -94.89c23.73,0 65.49,9.17 65.49,65.31 0.06,8.54 -0.48,16.98 -1.69,25.42 -10.34,66.46 -51.77,93.13 -99.28,93.13 -41.42,0 -64.87,-24.38 -64.87,-67.71 0,-8.13 0.34,-17.92 2.03,-27.5 12.36,-70.94 59.81,-88.65 98.32,-88.65zm130.77 178.54l-55.82 0 24.4 -140.63 1.35 -32.81 44.8 0 1.01 24.06c12.38,-21.46 29.74,-29.27 43.79,-29.27 9.74,0 20.07,2.5 26.76,6.87l-16.09 47.09c-6.96,-3.85 -14.79,-5.94 -22.7,-6.04 -14.39,0 -25.75,8.75 -28.73,24.69l-18.78 106.04zm74.27 0l30.07 -173.44 55.81 0 -30.07 173.44 -55.81 0zm71.16 -247.39c15.75,0 25.41,10.83 25.41,24.06 0,17.91 -15.41,32.18 -35.07,32.18 -16.01,0 -25.07,-9.79 -25.07,-23.44 0,-17.5 14.74,-32.81 34.74,-32.81zm134.82 111.25c-4.8,-1.87 -9.94,-2.92 -15.07,-2.71 -30.41,0 -41.43,46.35 -41.43,74.17 0,16.25 3.65,29.48 19.73,29.48 11.35,0 19.4,-7.5 22.71,-19.27l14.06 -81.67zm37.44 99.58l-2.37 36.56 -47.18 0 0 -15.94 -1.69 -0.31c-11.69,13.96 -26.76,21.35 -46.83,21.35 -35.75,0 -51.83,-26.77 -51.83,-63.33 0,-69.37 38.11,-120.21 107.99,-120.21 14.06,0 39.13,3.44 64.21,13.54l-22.3 128.33zm28.78 36.56l24.06 -138.54 2.03 -34.9 46.16 0 0.67 18.65c13.04,-14.58 30.42,-23.65 52.85,-23.65 27.77,0 44.46,12.81 44.8,41.98 0,5.42 -0.68,12.19 -1.69,18.65l-20.75 117.81 -55.82 0 17.37 -101.25c1.01,-5.42 2.64,-13.23 2.64,-19.69 0,-6.77 -2.64,-14.27 -12.71,-14.27 -14.32,0 -22.71,10.94 -25.07,25.11l-19.05 110.1 -55.49 0zm296.94 -136.15c-4.8,-1.87 -9.87,-2.92 -15.01,-2.71 -30.41,0 -41.43,46.35 -41.43,74.17 0,16.25 3.66,29.48 19.74,29.48 11.35,0 19.4,-7.5 22.71,-19.27l13.99 -81.67zm37.44 99.58l-2.36 36.56 -47.18 0 0 -15.94 -1.69 -0.31c-11.69,13.96 -26.76,21.35 -46.83,21.35 -35.75,0 -51.76,-26.77 -51.76,-63.33 0,-69.37 38.11,-120.21 107.99,-120.21 13.99,0 39.06,3.44 64.12,13.54l-22.29 128.33z"/>
   </g>
   <rect class="fil1" x="-0" width="1706.26" height="439.58"/>
  </g>
 </g>
</svg>
