<?xml version="1.0" encoding="UTF-8"?>
<!DOCTYPE svg PUBLIC "-//W3C//DTD SVG 1.1//EN" "http://www.w3.org/Graphics/SVG/1.1/DTD/svg11.dtd">
<!-- Creator: CorelDRAW 2019 (64-Bit) -->
<svg xmlns="http://www.w3.org/2000/svg" xml:space="preserve" width="0.84376in" height="0.906248in" version="1.1" style="shape-rendering:geometricPrecision; text-rendering:geometricPrecision; image-rendering:optimizeQuality; fill-rule:evenodd; clip-rule:evenodd"
viewBox="0 0 843.76 906.24"
 xmlns:xlink="http://www.w3.org/1999/xlink"
 xmlns:xodm="http://www.corel.com/coreldraw/odm/2003">
 <defs>
  <style type="text/css">
   <![CDATA[
    .fil1 {fill:#E4A788;fill-rule:nonzero}
    .fil0 {fill:#FFECE2;fill-rule:nonzero;fill-opacity:0.701961}
   ]]>
  </style>
 </defs>
 <g id="Layer_x0020_1">
  <metadata id="CorelCorpID_0Corel-Layer"/>
  <g id="_2426402769248">
   <path id="Ellipse_x0020_10" class="fil0" d="M604.16 302.08c0,-166.83 -135.25,-302.08 -302.08,-302.08 -166.83,0 -302.08,135.25 -302.08,302.08 0,166.83 135.25,302.08 302.08,302.08 166.83,0 302.08,-135.25 302.08,-302.08z"/>
   <path id="Vector_56" class="fil1" d="M796.52 656.24l-3.28 0c-10.04,0 -19.65,3.13 -27.78,9.06l-14.24 10.31c-8.81,-11.98 -22.92,-19.37 -38.03,-19.37l-3.28 0c-10.04,0 -19.66,3.13 -27.78,9.06l-102.16 74.27 -17.45 0c-5.76,0 -10.42,4.69 -10.42,10.42 0,5.73 4.66,10.41 10.42,10.41l104.16 0c2.2,0 4.35,-0.73 6.13,-1.98l104.9 -76.25c4.55,-3.33 9.91,-5.1 15.53,-5.1l3.28 0c14.56,0 26.42,11.87 26.42,26.46 0,6.98 -2.75,13.65 -7.73,18.65l-100.23 100.21c-13.78,13.75 -32.07,21.35 -51.55,21.35l-205.07 0c-2.06,0 -4.07,0.63 -5.78,1.77l-62.5 41.67c-4.79,3.13 -6.08,9.69 -2.89,14.48 2,2.92 5.31,4.58 8.68,4.58 1.98,0 3.99,-0.52 5.77,-1.77l59.87 -39.89 201.92 0c25.04,0 48.58,-9.79 66.28,-27.5l100.23 -100.21c8.92,-8.85 13.83,-20.73 13.83,-33.33 0,-26.15 -21.18,-47.29 -47.24,-47.29zm-133.23 83.33l-47.91 0 78.99 -57.4c4.55,-3.33 9.92,-5.1 15.53,-5.1l3.28 0c8.43,0 16.15,4.27 21.07,10.83l-70.96 51.67z"/>
   <path id="Vector_57" class="fil1" d="M484.38 708.33c14.36,0 26.04,11.67 26.04,26.04 0,14.37 -11.68,26.04 -26.04,26.04l-78.13 0c-5.76,0 -10.42,4.69 -10.42,10.42 0,5.73 4.66,10.42 10.42,10.42l78.13 0c25.84,0 46.87,-21.04 46.87,-46.87 0,-25.83 -21.03,-46.87 -46.87,-46.87l-98.96 0c-1.94,0 -3.81,0.52 -5.46,1.56l-135.42 83.33c-4.9,3.02 -6.42,9.37 -3.41,14.27 1.96,3.23 5.37,5 8.87,5 1.87,0 3.74,-0.52 5.45,-1.56l132.9 -81.77 96.01 0z"/>
   <path id="Vector_58" class="fil1" d="M541.67 385.41l41.67 0c17.23,0 31.25,14.06 31.25,31.25 0,5.73 4.66,10.42 10.42,10.42 5.76,0 10.42,-4.69 10.42,-10.42 0,-28.75 -23.36,-52.08 -52.08,-52.08l-10.42 0 0 -31.25c0,-5.73 -4.66,-10.42 -10.42,-10.42 -5.76,0 -10.42,4.69 -10.42,10.42l0 31.25 -10.41 0c-28.72,0 -52.09,23.33 -52.09,52.08 0,28.75 23.37,52.08 52.09,52.08l41.67 0c17.23,0 31.25,14.06 31.25,31.25 0,17.18 -14.02,31.25 -31.25,31.25l-41.67 0c-17.23,0 -31.25,-14.06 -31.25,-31.25 0,-5.73 -4.66,-10.42 -10.42,-10.42 -5.76,0 -10.42,4.69 -10.42,10.42 0,28.75 23.37,52.08 52.09,52.08l10.41 0 0 31.25c0,5.73 4.66,10.42 10.42,10.42 5.76,0 10.42,-4.69 10.42,-10.42l0 -31.25 10.42 0c28.72,0 52.08,-23.33 52.08,-52.08 0,-28.75 -23.36,-52.09 -52.08,-52.09l-41.67 0c-17.23,0 -31.25,-14.06 -31.25,-31.25 0,-17.19 14.02,-31.25 31.25,-31.25z"/>
   <path id="Vector_59" class="fil1" d="M562.5 656.24c45.3,0 87.99,-15 123.47,-43.33 4.49,-3.65 5.22,-10.2 1.63,-14.68 -3.6,-4.48 -10.15,-5.21 -14.65,-1.56 -31.74,25.31 -69.92,38.75 -110.45,38.75 -97.65,0 -177.08,-79.48 -177.08,-177.08 0,-97.6 79.44,-177.08 177.08,-177.08 97.65,0 177.08,79.48 177.08,177.08 0,40.52 -13.41,78.75 -38.81,110.42 -3.59,4.48 -2.85,11.04 1.63,14.69 4.51,3.54 11.06,2.81 14.65,-1.67 28.39,-35.41 43.37,-78.12 43.37,-123.44 0,-109.16 -88.78,-197.92 -197.92,-197.92 -109.13,0 -197.92,88.75 -197.92,197.92 0,109.17 88.78,197.92 197.92,197.92z"/>
  </g>
 </g>
</svg>
