<?xml version="1.0" encoding="UTF-8"?>
<!DOCTYPE svg PUBLIC "-//W3C//DTD SVG 1.1//EN" "http://www.w3.org/Graphics/SVG/1.1/DTD/svg11.dtd">
<!-- Creator: CorelDRAW 2019 (64-Bit) -->
<svg xmlns="http://www.w3.org/2000/svg" xml:space="preserve" width="0.832457in" height="0.832457in" version="1.1" style="shape-rendering:geometricPrecision; text-rendering:geometricPrecision; image-rendering:optimizeQuality; fill-rule:evenodd; clip-rule:evenodd"
viewBox="0 0 832.46 832.46"
 xmlns:xlink="http://www.w3.org/1999/xlink"
 xmlns:xodm="http://www.corel.com/coreldraw/odm/2003">
 <defs>
  <style type="text/css">
   <![CDATA[
    .fil16 {fill:black}
    .fil1 {fill:black}
    .fil14 {fill:#2BCE6C}
    .fil4 {fill:#2CC268}
    .fil11 {fill:#32B566}
    .fil2 {fill:#33DC76}
    .fil7 {fill:#33E57A}
    .fil9 {fill:#33E67A}
    .fil10 {fill:#35D775}
    .fil13 {fill:#36AB65}
    .fil15 {fill:#36BD6C}
    .fil12 {fill:#37975D}
    .fil3 {fill:#3A9960}
    .fil6 {fill:#53F19C}
    .fil5 {fill:#7CFFB0}
    .fil8 {fill:#FBFFD3}
    .fil0 {fill:white}
    .fil22 {fill:#2CC268;fill-rule:nonzero}
    .fil18 {fill:#32B566;fill-rule:nonzero}
    .fil17 {fill:#33DC76;fill-rule:nonzero}
    .fil21 {fill:#37975D;fill-rule:nonzero}
    .fil20 {fill:#3A9960;fill-rule:nonzero}
    .fil19 {fill:#53F19C;fill-rule:nonzero}
   ]]>
  </style>
 </defs>
 <g id="Layer_x0020_1">
  <metadata id="CorelCorpID_0Corel-Layer"/>
  <g id="_2463886574656">
   <g>
    <circle class="fil0" cx="416.23" cy="416.23" r="416.23"/>
    <circle class="fil1" cx="416.23" cy="416.23" r="344.87"/>
   </g>
   <g>
    <g>
     <polygon id="Vector_99" class="fil2" points="327.01,76.33 332.28,75.71 337.61,75.19 342.99,74.88 348.43,74.77 353.9,74.67 359.42,74.77 364.97,74.98 370.54,75.3 376.13,75.71 381.72,76.33 387.33,76.96 392.92,77.69 398.51,78.63 404.07,79.56 409.63,80.71 415.15,81.85 420.63,83.11 426.07,84.46 431.44,85.92 436.78,87.38 442.04,89.04 447.23,90.71 452.35,92.38 457.38,94.25 462.31,96.13 467.16,98 471.89,99.98 476.51,102.06 481.02,104.15 485.4,106.23 489.65,108.42 493.76,110.71 495.89,111.85 497.99,113 500.1,114.25 502.17,115.5 504.23,116.75 506.28,117.9 508.3,119.15 510.3,120.4 512.3,121.65 514.26,123 516.22,124.25 518.15,125.5 520.07,126.85 521.97,128.11 523.85,129.46 525.71,130.71 527.54,132.06 529.37,133.42 531.17,134.77 532.95,136.13 534.71,137.48 536.45,138.83 538.17,140.19 539.87,141.54 541.54,142.9 543.2,144.25 544.83,145.71 546.44,147.06 548.04,148.42 549.6,149.88 551.15,151.33 552.67,152.69 554.4,154.35 556.06,155.92 557.67,157.48 559.21,158.94 560.71,160.4 562.15,161.85 563.56,163.21 564.91,164.56 566.22,165.92 567.5,167.17 568.74,168.52 569.96,169.77 571.15,171.02 572.31,172.38 573.46,173.63 574.59,174.88 575.7,176.13 576.8,177.48 577.91,178.73 579,180.09 580.1,181.33 581.2,182.69 582.3,184.15 583.42,185.5 584.54,186.96 585.69,188.42 586.86,189.98 588.04,191.54 589.26,193.21 590.5,194.88 591.78,196.54 593.1,198.42 593.44,198.83 593.78,199.35 594.09,199.77 594.4,200.3 594.7,200.81 595,201.23 595.31,201.75 595.63,202.27 597.67,206.23 602.78,211.96 607.75,217.9 612.57,223.83 617.28,229.88 621.83,236.13 626.22,242.38 630.47,248.73 634.57,255.3 638.51,261.85 642.3,268.52 645.91,275.3 649.36,282.17 652.63,289.15 655.73,296.23 658.65,303.31 661.39,310.61 663.94,317.9 666.3,325.3 668.48,332.8 670.45,340.4 672.23,348 673.8,355.81 675.17,363.63 676.33,371.54 677.28,379.46 677.99,387.48 678.5,395.61 678.78,403.83 678.83,412.06 678.66,420.4 678.25,428.73 677.61,437.17 676.5,447.48 675.07,457.69 673.31,467.69 671.23,477.69 668.83,487.59 666.13,497.27 663.12,506.85 659.8,516.33 656.21,525.71 652.33,534.88 648.16,543.94 643.72,552.8 639,561.54 634.04,570.09 628.8,578.42 623.33,586.65 617.6,594.56 611.63,602.38 605.43,609.98 599,617.38 592.36,624.56 585.49,631.44 578.42,638.21 571.14,644.67 563.66,650.92 555.99,656.85 548.14,662.59 540.1,668.11 531.89,673.31 523.5,678.21 514.96,682.9 506.26,687.27 504.5,688.11 502.76,688.94 501.02,689.77 499.3,690.61 497.57,691.33 495.85,692.06 494.14,692.9 492.42,693.63 490.71,694.35 488.99,695.09 487.28,695.71 485.57,696.44 483.83,697.06 482.11,697.8 480.38,698.42 478.64,699.15 476.89,699.77 475.14,700.4 473.37,701.02 471.59,701.65 469.78,702.27 467.98,702.9 466.16,703.42 464.31,704.04 462.45,704.67 460.57,705.3 458.68,705.81 456.75,706.44 454.81,707.06 452.85,707.59 450.86,708.21 448.83,708.73 444.86,709.88 440.81,710.92 436.71,711.85 432.57,712.8 428.37,713.63 424.12,714.35 419.81,715.09 415.48,715.71 411.11,716.33 406.69,716.85 402.25,717.27 397.78,717.69 393.3,718 388.78,718.21 384.23,718.42 379.68,718.63 375.13,718.63 370.54,718.63 365.97,718.63 361.39,718.42 356.81,718.21 352.23,718 347.67,717.69 343.11,717.27 338.57,716.85 334.04,716.33 329.52,715.71 325.04,715.09 320.59,714.35 316.15,713.52 311.75,712.69 307.39,711.75 302.12,710.61 296.91,709.35 291.8,708 286.76,706.54 281.8,705.09 276.92,703.52 272.11,701.85 267.36,700.19 262.69,698.42 258.09,696.65 253.54,694.67 249.07,692.69 244.66,690.71 240.3,688.63 236.01,686.44 231.78,684.25 227.59,681.96 223.45,679.56 219.38,677.17 215.33,674.67 211.36,672.17 207.42,669.56 203.52,666.85 199.67,664.15 195.85,661.33 192.07,658.52 188.33,655.61 184.63,652.59 180.95,649.56 177.3,646.54 173.68,643.31 170.1,640.19 169.43,639.56 168.76,638.94 168.11,638.31 167.43,637.69 166.76,637.06 166.11,636.44 165.44,635.81 164.78,635.19 164.12,634.56 163.46,633.94 162.8,633.31 162.16,632.69 161.52,632.06 160.9,631.44 160.26,630.81 159.65,630.19 158.71,629.25 157.73,628.21 156.71,627.06 155.65,625.92 154.56,624.77 153.43,623.52 152.28,622.17 151.1,620.81 149.91,619.46 148.69,618 147.46,616.65 146.22,615.09 144.98,613.63 143.73,612.17 142.48,610.61 141.23,609.04 139.99,607.48 138.76,606.02 137.56,604.46 136.35,602.9 135.17,601.33 134.01,599.88 132.88,598.42 131.78,596.96 130.72,595.5 129.68,594.15 128.69,592.8 127.75,591.44 126.85,590.19 126,588.94 125.2,587.8 124.46,586.65 124,585.92 123.56,585.19 123.11,584.46 122.68,583.83 122.24,583.11 121.8,582.38 121.37,581.65 120.93,580.92 120.47,580.3 120.01,579.56 119.54,578.94 119.07,578.21 118.57,577.59 118.04,576.96 117.5,576.23 116.93,575.61 112.86,571.75 111.46,569.88 110.14,568.11 108.87,566.44 107.65,564.88 106.47,563.31 105.33,561.85 104.2,560.4 103.09,558.94 101.97,557.38 100.85,555.81 99.7,554.25 98.52,552.59 97.3,550.92 96.04,549.04 94.72,547.06 93.33,544.88 73.66,511.54 84.68,546.23 85.59,548.31 86.45,550.4 87.3,552.38 88.11,554.35 88.89,556.23 89.65,558 90.39,559.88 91.11,561.54 91.83,563.31 92.54,564.98 93.23,566.65 93.92,568.21 94.62,569.88 95.31,571.44 96.04,573 96.75,574.56 97.48,576.13 98.23,577.8 99,579.35 99.8,580.92 100.63,582.59 101.48,584.25 102.38,585.92 103.3,587.69 104.26,589.46 105.28,591.23 106.33,593.11 107.45,594.98 108.62,596.96 109.83,599.04 111.12,601.13 112.46,603.31 112.86,603.94 113.28,604.67 113.7,605.4 114.15,606.13 114.62,606.96 115.1,607.8 115.57,608.63 116.07,609.46 116.57,610.3 117.06,611.02 117.54,611.85 118.02,612.48 118.49,613.21 118.94,613.83 119.38,614.35 119.8,614.77 120.28,614.98 121.04,615.5 122.06,616.33 123.26,617.38 124.65,618.73 126.16,620.19 127.75,621.75 129.4,623.42 131.04,625.09 132.67,626.85 134.23,628.42 135.68,629.98 136.98,631.33 138.11,632.48 139,633.42 139.63,634.04 140.96,635.3 142.3,636.54 143.64,637.8 144.98,639.04 146.33,640.3 147.69,641.54 149.06,642.8 150.43,644.04 151.81,645.19 153.21,646.44 154.62,647.69 156.06,648.83 157.49,650.09 158.95,651.33 160.43,652.48 161.93,653.63 166.88,657.48 171.88,661.23 176.91,664.88 182,668.42 187.14,671.85 192.33,675.3 197.56,678.52 202.83,681.75 208.18,684.88 213.56,687.9 219,690.71 224.48,693.52 230.04,696.23 235.63,698.94 241.28,701.44 246.99,703.83 252.75,706.13 258.57,708.31 264.45,710.4 270.39,712.48 276.39,714.35 282.44,716.13 288.57,717.8 294.73,719.35 300.98,720.92 307.28,722.27 313.64,723.52 320.07,724.67 326.57,725.71 333.13,726.54 339.75,727.38 346.44,728.11 352.75,728.63 359.1,729.04 365.46,729.35 371.87,729.46 378.28,729.56 384.72,729.46 391.18,729.35 397.64,729.04 404.1,728.63 410.57,728.11 417.04,727.48 423.48,726.75 429.92,725.92 436.35,724.88 442.75,723.83 449.13,722.69 455.47,721.33 461.78,719.98 468.06,718.42 474.28,716.85 480.47,715.09 486.6,713.21 492.68,711.33 498.69,709.25 504.64,707.17 510.52,704.88 516.33,702.48 522.06,700.09 527.7,697.48 533.26,694.88 538.72,692.06 544.1,689.25 546.28,688 548.42,686.85 550.56,685.61 552.66,684.46 554.75,683.31 556.83,682.06 558.89,680.92 560.93,679.67 562.96,678.52 564.97,677.27 566.96,676.13 568.94,674.88 570.91,673.63 572.87,672.38 574.8,671.13 576.74,669.88 578.66,668.63 580.57,667.38 582.47,666.13 584.36,664.88 586.24,663.52 588.12,662.17 589.98,660.92 591.83,659.56 593.69,658.21 595.54,656.75 597.39,655.4 599.22,653.94 601.07,652.59 602.9,651.13 604.72,649.67 606.56,648.11 608.94,646.13 611.33,644.15 613.75,642.06 616.16,639.98 618.59,637.8 621.02,635.61 623.45,633.42 625.88,631.13 628.31,628.83 630.73,626.44 633.15,624.04 635.56,621.65 637.94,619.25 640.33,616.75 642.68,614.25 645.02,611.75 647.35,609.25 649.64,606.65 651.91,604.15 654.15,601.54 656.36,598.94 658.54,596.33 660.67,593.73 662.76,591.02 664.83,588.42 666.85,585.81 668.8,583.11 670.73,580.5 672.6,577.8 674.42,575.19 676.18,572.59 677.88,569.98 680.12,566.44 682.33,562.9 684.48,559.35 686.62,555.81 688.72,552.27 690.78,548.73 692.8,545.19 694.8,541.65 696.76,538.11 698.68,534.46 700.56,530.81 702.4,527.27 704.21,523.52 705.98,519.88 707.71,516.13 709.4,512.38 711.06,508.63 712.67,504.77 714.24,500.92 715.78,497.06 717.28,493.11 718.74,489.15 720.15,485.09 721.52,480.92 722.87,476.75 724.15,472.59 725.41,468.31 726.62,463.94 727.78,459.56 728.91,454.98 729.98,450.5 731.02,445.81 732.04,441.02 732.98,436.23 733.86,431.44 734.67,426.65 735.41,421.85 736.09,417.06 736.7,412.27 737.24,407.48 737.72,402.69 738.14,397.9 738.49,393.21 738.78,388.42 738.99,383.73 739.15,378.94 739.24,374.25 739.28,369.56 739.25,364.88 739.16,360.19 739,355.5 738.78,350.81 738.51,346.23 738.18,341.54 737.78,336.96 737.33,332.27 736.81,327.69 736.24,323.11 735.61,318.52 734.92,314.04 734.17,309.46 733.37,304.98 732.5,300.5 731.6,296.02 730.83,292.48 730.04,288.94 729.22,285.5 728.38,282.06 727.5,278.73 726.61,275.4 725.68,272.06 724.71,268.83 723.72,265.61 722.71,262.38 721.67,259.15 720.6,256.02 719.49,252.9 718.37,249.77 717.2,246.65 716.02,243.63 714.8,240.5 713.56,237.48 712.28,234.46 710.96,231.44 709.63,228.42 708.26,225.4 706.86,222.38 705.43,219.35 703.97,216.44 702.48,213.42 700.96,210.4 699.41,207.38 697.83,204.35 696.22,201.33 694.57,198.31 692.9,195.3 692.52,194.67 692.07,193.94 691.56,193.11 691,192.27 690.41,191.33 689.8,190.5 689.2,189.56 688.62,188.63 688.07,187.69 687.54,186.75 687.1,185.92 686.71,185.09 686.42,184.35 686.23,183.73 686.16,183.21 686.23,182.69 656.59,151.85 655.9,151.23 655.14,150.5 654.31,149.77 653.43,148.94 652.49,148.11 651.5,147.27 650.47,146.33 649.4,145.4 648.28,144.46 647.15,143.52 645.97,142.59 644.78,141.54 643.56,140.61 642.31,139.56 641.07,138.52 639.81,137.59 638.56,136.54 637.3,135.61 636.04,134.56 634.78,133.63 633.56,132.69 632.33,131.75 631.14,130.81 629.96,129.98 628.81,129.15 627.71,128.31 626.64,127.48 625.61,126.75 624.62,126.02 623.68,125.4 622.8,124.77 621.98,124.25 619.57,122.69 617.15,121.13 614.72,119.56 612.28,118 609.81,116.44 607.35,114.88 604.87,113.31 602.37,111.85 599.87,110.3 597.35,108.83 594.81,107.38 592.28,105.92 589.71,104.46 587.14,103 584.57,101.65 581.97,100.3 579.37,98.94 576.74,97.59 574.12,96.23 571.47,94.98 568.81,93.73 566.15,92.48 563.47,91.23 560.78,90.09 558.07,88.94 555.36,87.8 552.63,86.75 549.89,85.61 547.14,84.67 544.37,83.63 541.6,82.69 538.8,81.75 536.21,80.92 533.64,80.09 531.07,79.35 528.51,78.52 525.96,77.8 523.41,77.06 520.88,76.33 518.35,75.61 515.81,74.88 513.3,74.25 510.78,73.52 508.28,72.9 505.78,72.27 503.26,71.65 500.76,71.13 498.26,70.5 495.78,69.98 493.28,69.46 490.78,68.94 488.3,68.42 485.8,67.9 483.3,67.48 480.81,66.96 478.31,66.54 475.81,66.13 473.31,65.81 470.81,65.4 468.3,65.09 465.8,64.67 463.28,64.35 460.75,64.15 458.23,63.83 442.22,62.59 441,62.48 439.78,62.38 438.56,62.38 437.33,62.27 436.11,62.27 434.88,62.27 433.64,62.17 432.41,62.17 431.17,62.17 429.93,62.06 428.69,62.06 427.45,62.06 426.2,62.06 424.95,62.06 423.69,62.06 422.44,62.06 421.18,62.06 419.92,62.06 418.65,62.06 417.39,62.17 416.12,62.17 414.83,62.17 413.57,62.27 412.28,62.27 411,62.38 409.71,62.38 408.42,62.48 407.13,62.48 405.83,62.59 404.52,62.69 403.22,62.69 401.91,62.8 400.33,62.9 398.74,63 397.14,63.11 395.52,63.21 393.91,63.42 392.3,63.52 390.66,63.63 389.02,63.83 387.39,63.94 385.75,64.15 384.11,64.25 382.46,64.46 380.8,64.67 379.16,64.77 377.51,64.98 375.87,65.19 374.22,65.4 372.57,65.61 370.94,65.81 369.3,66.02 367.68,66.33 366.06,66.54 364.44,66.85 362.83,67.06 361.23,67.38 359.64,67.59 358.06,67.9 356.48,68.21 354.93,68.52 353.38,68.83 351.85,69.15 350.33,69.46 349.49,69.67 348.4,69.88 347.07,70.09 345.56,70.4 343.9,70.81 342.13,71.13 340.28,71.54 338.42,71.96 336.56,72.48 334.73,73 333,73.52 331.4,74.04 329.96,74.56 328.72,75.09 327.73,75.71 "/>
     <polygon id="Vector_100" class="fil3" points="119.78,614.67 121.8,617.9 123.9,621.13 126.07,624.25 128.33,627.48 130.66,630.71 133.06,633.83 135.52,637.06 138.06,640.19 140.65,643.42 143.3,646.54 146,649.67 148.76,652.8 151.57,655.92 154.42,658.94 157.31,662.06 160.25,665.09 163.21,668 166.21,671.02 169.24,673.94 172.3,676.75 175.37,679.67 178.46,682.38 181.57,685.19 184.7,687.9 187.83,690.5 190.96,693.11 194.11,695.61 197.24,698.11 200.38,700.5 203.5,702.8 206.63,705.09 209.72,707.27 213.13,709.56 216.57,711.96 220.06,714.25 223.6,716.54 227.18,718.73 230.81,720.92 234.5,723.21 238.24,725.3 242.02,727.48 245.87,729.56 249.76,731.65 253.7,733.63 257.7,735.61 261.75,737.59 265.86,739.46 270.01,741.33 274.23,743.21 278.5,744.98 282.83,746.65 287.21,748.31 291.66,749.98 296.15,751.54 300.71,753 305.33,754.46 309.99,755.92 314.73,757.17 319.52,758.52 324.38,759.67 329.3,760.81 334.28,761.96 339.31,763 344.42,763.94 345.87,764.15 347.33,764.46 348.8,764.67 350.3,764.98 351.8,765.19 353.31,765.5 354.83,765.81 356.38,766.02 357.92,766.33 359.47,766.54 361.04,766.85 362.62,767.06 364.2,767.38 365.8,767.59 367.41,767.9 369.02,768.11 388.06,769.98 393.44,770.19 398.76,770.3 404.02,770.4 409.23,770.4 414.4,770.3 419.5,770.19 424.57,769.98 429.61,769.67 434.6,769.35 439.56,769.04 444.47,768.52 449.37,768 454.24,767.48 459.09,766.75 463.91,766.02 468.72,765.3 473.52,764.46 478.31,763.52 483.1,762.48 487.88,761.44 492.65,760.3 497.43,759.15 502.22,757.9 507.02,756.54 511.83,755.09 516.65,753.63 521.49,752.06 526.36,750.5 531.25,748.83 536.16,747.06 541.11,745.3 546.1,743.42 550.49,741.65 554.89,739.88 559.3,737.9 563.69,735.92 568.09,733.83 572.47,731.65 576.85,729.35 581.21,726.96 585.56,724.56 589.89,722.06 594.19,719.46 598.48,716.75 602.74,714.04 606.96,711.23 611.17,708.42 615.33,705.5 619.46,702.59 623.54,699.56 627.6,696.44 631.6,693.31 635.54,690.19 639.45,686.96 643.3,683.73 647.1,680.5 650.83,677.17 654.5,673.83 658.12,670.5 661.66,667.06 665.14,663.63 668.54,660.19 671.87,656.75 675.13,653.31 675.85,652.48 676.56,651.75 677.25,651.02 677.95,650.3 678.63,649.46 679.3,648.73 679.97,648 680.64,647.27 681.3,646.54 681.96,645.81 682.62,644.98 683.28,644.25 683.95,643.52 684.61,642.69 685.28,641.85 685.96,641.13 687.22,639.56 688.42,638.11 689.59,636.65 690.7,635.3 691.78,633.94 692.83,632.59 693.83,631.33 694.81,630.09 695.76,628.94 696.69,627.69 697.6,626.54 698.48,625.4 699.35,624.15 700.2,623 701.04,621.85 701.88,620.71 702.71,619.56 703.54,618.42 704.37,617.27 705.2,616.02 706.04,614.77 706.89,613.52 707.75,612.27 708.63,610.92 709.52,609.56 710.44,608.21 711.38,606.75 712.35,605.3 713.33,603.73 714.37,602.17 715.43,600.5 716.52,598.83 721.11,591.44 725.49,583.94 729.67,576.23 733.65,568.52 737.43,560.71 740.99,552.8 744.36,544.77 747.52,536.65 750.48,528.42 753.24,520.19 755.8,511.85 758.15,503.52 760.28,494.98 762.22,486.54 763.95,478 765.48,469.46 766.8,460.81 767.93,452.17 768.83,443.52 769.54,434.88 770.04,426.13 770.33,417.48 770.42,408.83 770.3,400.09 769.99,391.44 769.45,382.8 768.72,374.25 767.78,365.61 766.63,357.06 765.28,348.63 763.71,340.19 761.94,331.75 760.98,327.59 759.96,323.42 758.89,319.35 757.78,315.19 756.6,311.13 755.37,307.06 754.09,303 752.75,298.94 751.38,294.88 749.94,290.92 748.46,286.96 746.93,283 745.35,279.04 743.72,275.09 742.04,271.23 740.33,267.38 738.57,263.52 736.75,259.67 734.9,255.81 732.99,252.06 731.04,248.21 729.07,244.46 727.04,240.81 724.96,237.06 722.85,233.42 720.7,229.77 718.5,226.13 716.28,222.48 713.99,218.94 711.69,215.4 709.33,211.85 706.95,208.42 706.33,207.48 705.7,206.75 705.09,206.02 704.47,205.3 703.86,204.56 703.25,203.83 702.65,203 702.04,202.17 686.21,182.69 686.15,183.11 686.22,183.63 686.41,184.25 686.7,184.98 687.07,185.81 687.54,186.65 688.04,187.59 688.61,188.52 689.19,189.46 689.8,190.4 690.4,191.33 690.98,192.17 691.54,193 692.06,193.83 692.5,194.56 692.88,195.19 694.56,198.21 696.2,201.23 697.81,204.25 699.4,207.27 700.95,210.3 702.47,213.31 703.96,216.33 705.42,219.25 706.85,222.27 708.25,225.3 709.62,228.31 710.95,231.33 712.26,234.35 713.54,237.38 714.78,240.4 716,243.52 717.19,246.54 718.35,249.67 719.48,252.8 720.59,255.92 721.66,259.04 722.7,262.27 723.71,265.5 724.7,268.73 725.66,271.96 726.59,275.3 727.49,278.63 728.37,281.96 729.21,285.4 730.02,288.83 730.81,292.38 731.59,295.92 732.49,300.4 733.36,304.88 734.16,309.35 734.9,313.94 735.6,318.52 736.22,323 736.8,327.59 737.31,332.27 737.76,336.85 738.16,341.44 738.5,346.13 738.78,350.71 738.98,355.4 739.14,360.09 739.23,364.77 739.26,369.46 739.23,374.15 739.14,378.83 738.98,383.63 738.75,388.31 738.47,393.11 738.13,397.9 737.71,402.59 737.23,407.38 736.69,412.17 736.07,416.96 735.4,421.75 734.66,426.54 733.85,431.33 732.97,436.13 732.02,440.92 731.01,445.71 729.97,450.4 728.89,454.98 727.76,459.46 726.6,463.83 725.39,468.21 724.14,472.48 722.85,476.65 721.51,480.81 720.14,484.98 718.72,489.04 717.26,493 715.78,496.96 714.23,500.92 712.66,504.77 711.04,508.52 709.39,512.38 707.7,516.13 705.97,519.77 704.19,523.52 702.39,527.17 700.54,530.81 698.66,534.35 696.74,538 694.78,541.54 692.8,545.09 690.76,548.63 688.7,552.17 686.61,555.71 684.47,559.25 682.3,562.8 680.11,566.33 677.87,569.88 676.16,572.48 674.4,575.09 672.59,577.8 670.71,580.4 668.8,583 666.83,585.71 664.8,588.31 662.75,590.92 660.66,593.63 658.51,596.23 656.35,598.83 654.14,601.44 651.9,604.04 649.63,606.54 647.33,609.15 645.01,611.65 642.67,614.15 640.3,616.65 637.93,619.15 635.54,621.54 633.14,623.94 630.72,626.33 628.3,628.73 625.87,631.02 623.44,633.31 621,635.5 618.57,637.69 616.15,639.88 613.73,641.96 611.33,644.04 608.93,646.13 606.54,648.11 604.71,649.56 602.88,651.02 601.04,652.48 599.21,653.94 597.38,655.3 595.54,656.75 593.68,658.11 591.83,659.46 589.96,660.81 588.1,662.17 586.23,663.42 584.35,664.77 582.46,666.02 580.56,667.27 578.65,668.52 576.72,669.88 574.8,671.13 572.86,672.27 570.9,673.52 568.93,674.77 566.95,676.02 564.96,677.17 562.94,678.42 560.92,679.56 558.88,680.81 556.81,681.96 554.74,683.21 552.65,684.35 550.54,685.61 548.41,686.75 546.25,687.9 544.09,689.15 538.71,691.96 533.24,694.77 527.69,697.38 522.04,699.98 516.3,702.38 510.5,704.77 504.63,707.06 498.67,709.15 492.66,711.23 486.59,713.21 480.46,714.98 474.28,716.75 468.04,718.31 461.76,719.88 455.45,721.23 449.11,722.59 442.73,723.73 436.33,724.77 429.91,725.81 423.47,726.65 417.01,727.38 410.56,728 404.09,728.52 397.62,728.94 391.16,729.25 384.71,729.35 378.28,729.46 371.86,729.35 365.45,729.25 359.09,728.94 352.74,728.52 346.43,728 339.74,727.27 333.12,726.54 326.56,725.61 320.06,724.56 313.63,723.42 307.26,722.17 300.96,720.81 294.72,719.35 288.54,717.69 282.43,716.02 276.38,714.25 270.38,712.38 264.44,710.4 258.57,708.21 252.74,706.02 246.98,703.73 241.28,701.33 235.62,698.83 230.01,696.23 224.47,693.52 218.98,690.71 213.54,687.8 208.16,684.77 202.83,681.65 197.54,678.52 192.31,675.19 187.13,671.85 181.98,668.31 176.9,664.77 171.86,661.13 166.87,657.38 161.92,653.63 160.42,652.38 158.94,651.23 157.48,649.98 156.04,648.83 154.61,647.59 153.2,646.33 151.8,645.19 150.41,643.94 149.04,642.69 147.67,641.44 146.31,640.19 144.96,638.94 143.63,637.69 142.28,636.44 140.95,635.19 139.62,633.94 138.98,633.31 138.1,632.38 136.97,631.23 135.67,629.88 134.22,628.42 132.66,626.75 131.04,625.09 129.38,623.31 127.73,621.65 126.14,620.09 124.64,618.63 123.25,617.27 122.04,616.23 121.04,615.4 120.26,614.88 "/>
     <polygon id="Vector_101" class="fil3" points="326.98,76.23 326.17,76.13 325.14,76.13 323.89,76.33 322.45,76.54 320.83,76.96 319.06,77.38 317.12,78 315.06,78.63 312.87,79.35 310.57,80.09 308.2,80.92 305.75,81.85 303.24,82.8 300.69,83.73 298.11,84.67 295.51,85.71 292.92,86.75 290.35,87.8 287.8,88.83 285.31,89.88 282.88,90.92 280.51,91.96 278.25,92.9 276.09,93.83 274.06,94.67 272.15,95.5 270.41,96.33 268.81,97.06 267.42,97.69 266.21,98.21 265.22,98.73 264.46,99.04 262.87,99.88 261.24,100.71 259.57,101.65 257.89,102.48 256.16,103.42 254.41,104.35 252.64,105.3 250.85,106.23 249.04,107.27 247.21,108.31 245.38,109.35 243.54,110.4 241.68,111.44 239.83,112.59 237.98,113.63 236.15,114.77 234.3,115.81 232.48,116.96 230.67,118.11 228.87,119.25 227.09,120.4 225.33,121.54 223.61,122.69 221.9,123.83 220.23,124.88 218.6,126.02 217,127.17 215.45,128.31 213.93,129.46 212.46,130.5 211.04,131.65 209.68,132.69 167.89,168.42 164.24,171.96 160.61,175.61 156.98,179.35 153.38,183.31 149.8,187.48 146.23,191.65 142.71,196.02 139.22,200.5 135.78,205.09 132.37,209.77 129.01,214.46 125.71,219.35 122.46,224.25 119.28,229.15 116.16,234.25 113.12,239.25 110.15,244.35 107.25,249.46 104.44,254.67 101.72,259.88 99.09,264.98 96.56,270.19 94.12,275.3 91.78,280.4 89.57,285.5 87.46,290.61 85.47,295.61 83.6,300.61 81.86,305.4 80.25,310.3 78.78,314.98 77.44,319.67 68.04,358.21 67.91,358.83 67.8,359.46 67.71,360.09 67.63,360.71 67.56,361.23 67.48,361.85 67.42,362.48 67.36,363.11 67.3,363.63 67.23,364.25 67.15,364.88 67.07,365.5 66.98,366.13 66.88,366.75 66.75,367.38 66.61,367.9 66.51,368.31 66.41,368.83 66.3,369.25 66.21,369.77 66.11,370.3 66,370.81 65.9,371.33 65.78,371.96 65.68,372.59 65.57,373.21 65.47,373.83 65.37,374.46 65.26,375.19 65.15,375.81 65.04,376.54 64.94,377.27 62.97,395.61 62.94,396.33 62.91,396.96 62.89,397.59 62.88,398.11 62.87,398.63 62.87,399.15 62.87,399.67 62.89,400.09 62.92,401.23 62.94,402.48 62.95,403.73 62.93,405.09 62.9,406.44 62.86,407.8 62.8,409.15 62.74,410.5 62.67,411.85 62.61,413.21 62.52,414.56 62.44,415.92 62.36,417.17 62.28,418.42 62.2,419.67 62.13,420.92 62.07,422.06 62.04,423.21 62.04,424.35 62.04,425.61 62.07,426.85 62.12,428.11 62.17,429.46 62.22,430.71 62.3,431.96 62.37,433.31 62.43,434.56 62.5,435.81 62.57,437.06 62.63,438.31 62.68,439.46 62.71,440.61 62.76,442.27 62.85,444.04 62.95,445.92 63.09,447.9 63.24,449.98 63.42,452.06 63.62,454.25 63.83,456.54 64.07,458.83 64.33,461.23 64.62,463.63 64.92,466.13 65.23,468.63 65.57,471.02 65.92,473.63 66.28,476.13 66.67,478.63 67.07,481.13 67.47,483.63 67.89,486.13 68.33,488.52 68.76,490.92 69.22,493.31 69.68,495.61 70.15,497.9 70.63,500.09 71.12,502.17 71.62,504.25 72.12,506.13 72.62,508 73.13,509.77 73.64,511.44 93.3,544.88 94.7,546.96 96.01,548.94 97.28,550.81 98.49,552.59 99.67,554.25 100.81,555.81 101.94,557.38 103.06,558.83 104.18,560.3 105.3,561.75 106.45,563.31 107.63,564.88 108.85,566.44 110.11,568.11 111.44,569.77 112.83,571.65 116.91,575.61 116.54,574.67 116.15,573.73 115.71,572.8 115.25,571.75 114.75,570.71 114.23,569.67 113.68,568.52 113.1,567.38 112.49,566.23 111.86,564.98 111.21,563.73 110.54,562.48 109.85,561.13 109.15,559.77 108.43,558.42 107.69,556.96 106.95,555.5 106.19,554.04 105.43,552.59 104.65,551.02 103.88,549.46 103.09,547.8 102.3,546.23 101.52,544.56 100.74,542.9 99.95,541.23 99.18,539.46 98.4,537.69 97.64,535.92 96.88,534.15 96.14,532.38 95.4,530.5 91.67,520.4 88.33,510.3 85.38,500.09 82.81,489.67 80.63,479.25 78.83,468.83 77.39,458.31 76.33,447.69 75.66,437.06 75.35,426.44 75.4,415.81 75.83,405.3 76.62,394.67 77.76,384.04 79.28,373.52 81.14,363.11 83.36,352.69 85.94,342.38 88.87,332.17 92.14,322.06 95.78,311.96 99.74,302.17 104.06,292.38 108.72,282.8 113.71,273.31 119.06,264.04 124.72,254.98 130.73,246.13 137.07,237.48 143.73,228.94 150.73,220.81 158.07,212.8 159.2,211.65 160.31,210.5 161.42,209.35 162.51,208.21 163.6,207.06 164.67,206.02 165.74,204.98 166.8,203.83 167.87,202.8 168.93,201.75 170,200.71 171.07,199.67 172.14,198.63 173.22,197.48 174.31,196.44 175.42,195.4 176.51,194.35 177.69,193.31 178.92,192.27 180.18,191.23 181.45,190.3 182.7,189.25 183.92,188.31 185.07,187.27 186.3,186.23 187.45,185.3 188.52,184.46 189.6,183.52 190.71,182.59 191.9,181.65 193.22,180.5 194.72,179.25 195.61,178.52 196.57,177.69 197.61,176.85 198.7,176.02 199.85,175.19 201.04,174.35 202.28,173.42 203.57,172.48 204.91,171.54 206.28,170.61 207.67,169.67 209.09,168.73 210.52,167.8 211.98,166.85 213.45,165.92 214.93,164.88 216.41,163.94 217.89,163 219.37,162.06 220.83,161.23 222.28,160.3 223.71,159.46 225.12,158.63 226.49,157.8 227.85,156.96 229.16,156.13 230.42,155.4 231.65,154.67 232.83,154.04 233.95,153.42 235,152.8 236,152.27 240.62,149.77 245.28,147.38 249.96,145.09 254.68,142.8 259.44,140.71 264.23,138.63 269.06,136.65 273.92,134.67 278.8,132.9 283.73,131.13 288.69,129.46 293.67,127.9 298.7,126.33 303.74,124.98 308.83,123.63 313.93,122.38 319.07,121.23 324.24,120.19 329.45,119.25 334.67,118.42 339.93,117.59 345.2,116.85 350.51,116.33 355.83,115.81 361.2,115.4 366.59,115.09 371.99,114.88 377.43,114.67 382.89,114.67 388.37,114.77 393.87,114.88 399.4,115.19 406.16,115.61 412.89,116.23 419.59,116.96 426.23,117.9 432.83,118.94 439.39,120.09 445.9,121.44 452.37,122.9 458.78,124.56 465.14,126.23 471.44,128.11 477.69,130.19 483.89,132.27 490.02,134.56 496.09,137.06 502.1,139.56 508.04,142.27 513.92,145.09 519.73,148 525.47,151.02 531.14,154.25 536.73,157.59 542.24,161.02 547.69,164.56 553.06,168.21 558.33,172.06 563.54,175.92 568.65,179.98 573.69,184.15 578.63,188.42 583.48,192.69 588.24,197.27 588.86,197.8 589.46,198.42 590.04,198.94 590.6,199.56 591.15,200.09 591.69,200.71 592.23,201.23 592.78,201.75 593.33,202.27 593.88,202.9 594.45,203.42 595.04,203.94 595.65,204.46 596.28,205.09 596.95,205.61 597.65,206.23 595.6,202.17 595.28,201.65 594.98,201.23 594.68,200.71 594.37,200.19 594.07,199.77 593.74,199.25 593.42,198.83 593.07,198.31 591.75,196.54 590.48,194.77 589.23,193.11 588.01,191.54 586.83,189.98 585.66,188.42 584.51,186.96 583.39,185.5 582.28,184.04 581.17,182.69 580.07,181.33 578.97,179.98 577.88,178.63 576.78,177.38 575.67,176.13 574.57,174.77 573.43,173.52 572.28,172.27 571.13,171.02 569.93,169.77 568.72,168.42 567.47,167.17 566.2,165.81 564.88,164.46 563.52,163.11 562.13,161.75 560.68,160.3 559.19,158.83 557.64,157.38 556.04,155.81 554.37,154.25 552.64,152.69 551.12,151.23 549.57,149.77 548,148.42 546.42,146.96 544.8,145.61 543.17,144.25 541.51,142.8 539.83,141.44 538.14,140.09 536.42,138.73 534.69,137.38 532.92,136.02 531.14,134.67 529.35,133.31 527.52,131.96 525.68,130.71 523.83,129.35 521.94,128.11 520.04,126.75 518.13,125.5 516.19,124.15 514.24,122.9 512.26,121.65 510.28,120.4 508.26,119.15 506.24,117.9 504.2,116.65 502.14,115.4 500.07,114.25 497.97,113 495.86,111.75 493.73,110.61 489.62,108.42 485.38,106.23 480.99,104.04 476.49,101.96 471.87,99.98 467.13,98 462.28,96.02 457.35,94.15 452.31,92.38 447.2,90.61 442.01,88.94 436.75,87.38 431.42,85.81 426.04,84.35 420.6,83 415.12,81.75 409.6,80.61 404.06,79.56 398.48,78.52 392.9,77.69 387.3,76.85 381.69,76.23 376.1,75.71 370.51,75.19 364.94,74.88 359.4,74.67 353.88,74.67 348.4,74.67 342.96,74.88 337.57,75.19 332.25,75.61 "/>
     <polygon id="Vector_102" class="fil2" points="163.96,231.85 215.64,302.59 197.83,368.94 253.54,462.06 309.23,534.15 393.64,530.81 343.12,442.17 349.23,391.54 387.9,436.23 411.44,376.33 482.92,378.94 439.28,351.13 539.33,384.04 590.68,321.75 613.69,314.25 614.26,293.21 580.68,212.27 520.1,189.25 506.61,214.56 551.68,235.81 571.2,287.8 531.59,317.9 458.87,233.73 362.92,201.23 332.48,208.31 267.89,183 "/>
     <polygon id="Vector_103" class="fil4" points="531.59,317.8 488.67,265.61 479.63,296.54 438.71,307.27 371.54,315.19 411.44,376.23 482.93,378.83 439.28,351.02 539.33,383.94 "/>
     <polygon id="Vector_104" class="fil5" points="520.09,189.25 506.6,214.46 551.67,235.81 580.67,212.27 "/>
     <polygon id="Vector_105" class="fil6" points="571.25,287.9 551.73,235.92 579.73,213.21 614.31,293.31 "/>
     <polygon id="Vector_106" class="fil7" points="531.61,317.9 539.36,384.04 614.3,293.21 571.23,287.8 "/>
     <polygon id="Vector_107" class="fil8" points="613.71,314.25 512.65,329.25 496,318.83 471.6,341.23 509.5,348.63 "/>
     <polygon id="Vector_108" class="fil6" points="479.61,296.65 495.97,318.83 469.99,343.11 435.54,336.44 438.7,307.48 "/>
     <polygon id="Vector_109" class="fil9" points="459.97,233.11 413.75,265.71 438.72,307.48 479.64,296.65 488.68,265.71 "/>
     <polygon id="Vector_110" class="fil10" points="405.74,215.71 374.45,233 350.62,252.27 413.78,265.61 458.92,233.73 "/>
     <polygon id="Vector_111" class="fil4" points="335.67,289.98 371.56,315.3 438.73,307.27 413.75,265.61 350.6,252.27 "/>
     <polygon id="Vector_112" class="fil7" points="374.4,233 278.5,216.23 350.57,252.38 "/>
     <polygon id="Vector_113" class="fil11" points="405.65,215.71 362.87,201.23 332.44,208.31 342.57,227.48 375.57,232.27 "/>
     <polygon id="Vector_114" class="fil11" points="278.48,216.23 259.54,287.8 335.62,290.09 350.54,252.38 "/>
     <polygon id="Vector_115" class="fil12" points="411.48,376.44 355.21,326.75 371.57,315.4 "/>
     <polygon id="Vector_116" class="fil13" points="335.67,290.09 355.19,326.75 371.56,315.4 "/>
     <polygon id="Vector_117" class="fil14" points="411.41,376.33 387.87,436.23 259.54,287.8 335.62,290.09 355.14,326.65 "/>
     <polygon id="Vector_118" class="fil3" points="267.9,183 295.85,219.25 278.51,216.23 271.16,244.04 163.96,231.85 "/>
     <polygon id="Vector_119" class="fil13" points="332.54,208.31 267.95,183 295.9,219.25 342.67,227.48 "/>
     <polygon id="Vector_120" class="fil11" points="288.33,321.13 215.64,302.59 163.96,231.96 271.16,244.04 259.57,287.8 "/>
     <polygon id="Vector_121" class="fil13" points="349.26,391.44 197.87,368.94 215.67,302.48 288.37,321.02 "/>
     <polygon id="Vector_122" class="fil12" points="253.57,462.06 197.87,368.94 349.26,391.54 "/>
     <polygon id="Vector_123" class="fil15" points="343.15,442.27 253.57,462.06 349.26,391.54 "/>
     <polygon id="Vector_124" class="fil7" points="309.26,534.15 253.57,462.06 343.15,442.17 "/>
     <polygon id="Vector_125" class="fil11" points="393.68,530.71 309.28,534.15 343.15,442.17 "/>
     <polygon id="Vector_126" class="fil16" points="454.49,271.33 435.54,265.4 438.12,275.3 446.45,277.59 "/>
     <polygon id="Vector_127" class="fil17" points="198.28,293.21 171.59,293.21 171.59,319.56 198.28,319.56 "/>
     <polygon id="Vector_128" class="fil18" points="143.43,280.4 126.63,280.4 126.63,297.06 143.43,297.06 "/>
     <polygon id="Vector_129" class="fil17" points="163.78,253.73 150.57,253.73 150.57,266.85 163.78,266.85 "/>
     <polygon id="Vector_130" class="fil18" points="128.47,313.11 111.68,313.11 111.68,329.67 128.47,329.67 "/>
     <polygon id="Vector_131" class="fil18" points="168.26,336.44 155.07,336.44 155.07,349.56 168.26,349.56 "/>
     <polygon id="Vector_132" class="fil17" points="156.74,314.46 150.28,314.46 150.28,320.81 156.74,320.81 "/>
     <polygon id="Vector_133" class="fil17" points="188.41,341.75 181.95,341.75 181.95,348.11 188.41,348.11 "/>
     <polygon id="Vector_134" class="fil19" points="143.17,349.25 116.47,349.25 116.47,375.61 143.17,375.61 "/>
     <polygon id="Vector_135" class="fil20" points="109.24,376.65 102.78,376.65 102.78,383.11 109.24,383.11 "/>
     <polygon id="Vector_136" class="fil18" points="187.73,375.92 174.52,375.92 174.52,388.94 187.73,388.94 "/>
     <polygon id="Vector_137" class="fil17" points="160.75,395.61 147.54,395.61 147.54,408.73 160.75,408.73 "/>
     <polygon id="Vector_138" class="fil18" points="166.51,423.42 153.31,423.42 153.31,436.54 166.51,436.54 "/>
     <polygon id="Vector_139" class="fil18" points="214.31,412.69 187.62,412.69 187.62,439.04 214.31,439.04 "/>
     <polygon id="Vector_140" class="fil17" points="123.8,410.92 117.35,410.92 117.35,417.27 123.8,417.27 "/>
     <polygon id="Vector_141" class="fil21" points="160.16,458.42 146.95,458.42 146.95,471.54 160.16,471.54 "/>
     <polygon id="Vector_142" class="fil18" points="206.39,452.27 193.18,452.27 193.18,465.3 206.39,465.3 "/>
     <polygon id="Vector_143" class="fil20" points="238.63,465.81 232.17,465.81 232.17,472.17 238.63,472.17 "/>
     <polygon id="Vector_144" class="fil20" points="208.33,484.56 201.88,484.56 201.88,490.92 208.33,490.92 "/>
     <polygon id="Vector_145" class="fil20" points="175.89,492.06 169.44,492.06 169.44,498.42 175.89,498.42 "/>
     <polygon id="Vector_146" class="fil21" points="207.28,500.71 194.07,500.71 194.07,513.83 207.28,513.83 "/>
     <polygon id="Vector_147" class="fil21" points="246.07,497.06 232.86,497.06 232.86,510.19 246.07,510.19 "/>
     <polygon id="Vector_148" class="fil21" points="233.16,520.3 219.95,520.3 219.95,533.31 233.16,533.31 "/>
     <polygon id="Vector_149" class="fil17" points="197.49,522.59 184.28,522.59 184.28,535.61 197.49,535.61 "/>
     <polygon id="Vector_150" class="fil17" points="247.23,548.63 240.78,548.63 240.78,555.09 247.23,555.09 "/>
     <polygon id="Vector_151" class="fil17" points="234.14,555.61 220.93,555.61 220.93,568.73 234.14,568.73 "/>
     <polygon id="Vector_152" class="fil17" points="262.47,586.02 256.01,586.02 256.01,592.38 262.47,592.38 "/>
     <polygon id="Vector_153" class="fil21" points="273.21,518.31 256.41,518.31 256.41,534.98 273.21,534.98 "/>
     <polygon id="Vector_154" class="fil21" points="314.48,547.59 287.78,547.59 287.78,573.94 314.48,573.94 "/>
     <polygon id="Vector_155" class="fil17" points="276.94,560.5 263.73,560.5 263.73,573.52 276.94,573.52 "/>
     <polygon id="Vector_156" class="fil17" points="287.49,576.13 281.04,576.13 281.04,582.48 287.49,582.48 "/>
     <polygon id="Vector_157" class="fil17" points="287.8,593.94 274.59,593.94 274.59,606.96 287.8,606.96 "/>
     <polygon id="Vector_158" class="fil17" points="325.12,610.5 311.91,610.5 311.91,623.52 325.12,623.52 "/>
     <polygon id="Vector_159" class="fil17" points="350.8,593.73 333.99,593.73 333.99,610.3 350.8,610.3 "/>
     <polygon id="Vector_160" class="fil21" points="342.33,548.52 329.13,548.52 329.13,561.54 342.33,561.54 "/>
     <polygon id="Vector_161" class="fil22" points="413.96,551.75 387.26,551.75 387.26,578.21 413.96,578.21 "/>
     <polygon id="Vector_162" class="fil17" points="349.36,579.04 342.9,579.04 342.9,585.4 349.36,585.4 "/>
     <polygon id="Vector_163" class="fil17" points="371.54,559.15 365.09,559.15 365.09,565.5 371.54,565.5 "/>
     <polygon id="Vector_164" class="fil17" points="377.41,602.59 364.2,602.59 364.2,615.61 377.41,615.61 "/>
     <polygon id="Vector_165" class="fil17" points="307.54,600.09 301.07,600.09 301.07,606.44 307.54,606.44 "/>
     <polygon id="Vector_166" class="fil20" points="364.4,625.61 357.94,625.61 357.94,631.96 364.4,631.96 "/>
     <polygon id="Vector_167" class="fil17" points="428.7,571.13 422.24,571.13 422.24,577.48 428.7,577.48 "/>
     <polygon id="Vector_168" class="fil17" points="472.59,643 466.13,643 466.13,649.35 472.59,649.35 "/>
     <polygon id="Vector_169" class="fil17" points="488.41,609.77 481.95,609.77 481.95,616.13 488.41,616.13 "/>
     <polygon id="Vector_170" class="fil19" points="509.63,615.19 503.18,615.19 503.18,621.54 509.63,621.54 "/>
     <polygon id="Vector_171" class="fil21" points="532.89,631.44 526.43,631.44 526.43,637.8 532.89,637.8 "/>
     <polygon id="Vector_172" class="fil19" points="602.65,587.27 596.19,587.27 596.19,593.73 602.65,593.73 "/>
     <polygon id="Vector_173" class="fil21" points="555.85,622.27 549.39,622.27 549.39,628.73 555.85,628.73 "/>
     <polygon id="Vector_174" class="fil17" points="422.13,603.73 405.33,603.73 405.33,620.4 422.13,620.4 "/>
     <polygon id="Vector_175" class="fil17" points="462.6,620.19 445.8,620.19 445.8,636.75 462.6,636.75 "/>
     <polygon id="Vector_176" class="fil17" points="459.1,591.96 445.9,591.96 445.9,604.98 459.1,604.98 "/>
     <polygon id="Vector_177" class="fil17" points="437.8,635.4 424.6,635.4 424.6,648.52 437.8,648.52 "/>
     <polygon id="Vector_178" class="fil17" points="411.7,627.69 398.5,627.69 398.5,640.81 411.7,640.81 "/>
     <polygon id="Vector_179" class="fil17" points="503.57,633.11 490.36,633.11 490.36,646.13 503.57,646.13 "/>
     <polygon id="Vector_180" class="fil19" points="539.44,608.94 526.23,608.94 526.23,622.06 539.44,622.06 "/>
     <polygon id="Vector_181" class="fil19" points="581.36,600.09 568.15,600.09 568.15,613.11 581.36,613.11 "/>
    </g>
   </g>
  </g>
 </g>
</svg>
