<?xml version="1.0" encoding="UTF-8"?>
<!DOCTYPE svg PUBLIC "-//W3C//DTD SVG 1.1//EN" "http://www.w3.org/Graphics/SVG/1.1/DTD/svg11.dtd">
<!-- Creator: CorelDRAW 2019 (64-Bit) -->
<svg xmlns="http://www.w3.org/2000/svg" xml:space="preserve" width="1.84771in" height="3.635in" version="1.1" style="shape-rendering:geometricPrecision; text-rendering:geometricPrecision; image-rendering:optimizeQuality; fill-rule:evenodd; clip-rule:evenodd"
viewBox="0 0 1847.71 3635"
 xmlns:xlink="http://www.w3.org/1999/xlink"
 xmlns:xodm="http://www.corel.com/coreldraw/odm/2003">
 <defs>
  <style type="text/css">
   <![CDATA[
    .fil0 {fill:#55BC7E}
   ]]>
  </style>
 </defs>
 <g id="Layer_x0020_1">
  <metadata id="CorelCorpID_0Corel-Layer"/>
  <path id="Union_5" class="fil0" d="M30.21 0l-30.21 0 0 30.31c16.67,0 30.21,-13.65 30.21,-30.31zm272.71 30.31c16.56,0 30.21,-13.65 30.21,-30.31l-60.52 0c0,16.67 13.65,30.31 30.31,30.31zm333.13 -30.31c0,16.67 -13.65,30.31 -30.21,30.31 -16.67,0 -30.31,-13.65 -30.31,-30.31l60.52 0zm272.71 30.31c16.56,0 30.21,-13.65 30.21,-30.31l-60.52 0c0,16.67 13.65,30.31 30.31,30.31zm333.12 -30.31c0,16.67 -13.65,30.31 -30.31,30.31 -16.56,0 -30.21,-13.65 -30.21,-30.31l60.52 0zm272.61 30.31c16.67,0 30.31,-13.65 30.31,-30.31l-60.52 0c0,16.67 13.65,30.31 30.21,30.31zm333.23 -30.31c0,16.67 -13.65,30.31 -30.31,30.31 -16.56,0 -30.21,-13.65 -30.21,-30.31l60.52 0zm-1817.5 302.92c0,-16.56 -13.54,-30.21 -30.21,-30.21l0 60.52c16.67,0 30.21,-13.65 30.21,-30.31zm302.92 0c0,16.77 -13.54,30.31 -30.21,30.31 -16.77,0 -30.31,-13.54 -30.31,-30.31 0,-16.67 13.54,-30.21 30.31,-30.21 16.67,0 30.21,13.54 30.21,30.21zm272.71 30.31c16.67,0 30.21,-13.54 30.21,-30.31 0,-16.67 -13.54,-30.21 -30.21,-30.21 -16.77,0 -30.31,13.54 -30.31,30.21 0,16.77 13.54,30.31 30.31,30.31zm333.13 -30.31c0,16.77 -13.54,30.31 -30.21,30.31 -16.77,0 -30.31,-13.54 -30.31,-30.31 0,-16.67 13.54,-30.21 30.31,-30.21 16.67,0 30.21,13.54 30.21,30.21zm272.6 30.31c16.77,0 30.31,-13.54 30.31,-30.31 0,-16.67 -13.54,-30.21 -30.31,-30.21 -16.67,0 -30.21,13.54 -30.21,30.21 0,16.77 13.54,30.31 30.21,30.31zm333.23 -30.31c0,16.77 -13.54,30.31 -30.31,30.31 -16.67,0 -30.21,-13.54 -30.21,-30.31 0,-16.67 13.54,-30.21 30.21,-30.21 16.77,0 30.31,13.54 30.31,30.21zm272.61 30.31c16.77,0 30.31,-13.54 30.31,-30.31 0,-16.67 -13.54,-30.21 -30.31,-30.21 -16.67,0 -30.21,13.54 -30.21,30.21 0,16.77 13.54,30.31 30.21,30.31zm-1817.4 242.39c16.67,0 30.21,13.65 30.21,30.21 0,16.67 -13.54,30.31 -30.21,30.31l0 -60.52zm302.92 60.52c16.67,0 30.21,-13.54 30.21,-30.31 0,-16.67 -13.54,-30.21 -30.21,-30.21 -16.77,0 -30.31,13.54 -30.31,30.21 0,16.77 13.54,30.31 30.31,30.31zm333.13 -30.31c0,16.77 -13.54,30.31 -30.21,30.31 -16.77,0 -30.31,-13.54 -30.31,-30.31 0,-16.67 13.54,-30.21 30.31,-30.21 16.67,0 30.21,13.54 30.21,30.21zm272.71 30.31c16.67,0 30.21,-13.54 30.21,-30.31 0,-16.67 -13.54,-30.21 -30.21,-30.21 -16.77,0 -30.31,13.54 -30.31,30.21 0,16.77 13.54,30.31 30.31,30.31zm333.12 -30.31c0,16.77 -13.54,30.31 -30.31,30.31 -16.67,0 -30.21,-13.54 -30.21,-30.31 0,-16.67 13.54,-30.21 30.21,-30.21 16.77,0 30.31,13.54 30.31,30.21zm272.61 30.31c16.77,0 30.31,-13.54 30.31,-30.31 0,-16.67 -13.54,-30.21 -30.31,-30.21 -16.67,0 -30.21,13.54 -30.21,30.21 0,16.77 13.54,30.31 30.21,30.31zm333.23 -30.31c0,16.77 -13.54,30.31 -30.31,30.31 -16.67,0 -30.21,-13.54 -30.21,-30.31 0,-16.67 13.54,-30.21 30.21,-30.21 16.77,0 30.31,13.54 30.31,30.21zm-1817.5 302.92c0,-16.67 -13.54,-30.21 -30.21,-30.21l0 60.52c16.67,0 30.21,-13.65 30.21,-30.31zm302.92 0c0,16.77 -13.54,30.31 -30.21,30.31 -16.77,0 -30.31,-13.54 -30.31,-30.31 0,-16.67 13.54,-30.21 30.31,-30.21 16.67,0 30.21,13.54 30.21,30.21zm272.71 30.31c16.67,0 30.21,-13.54 30.21,-30.31 0,-16.67 -13.54,-30.21 -30.21,-30.21 -16.77,0 -30.31,13.54 -30.31,30.21 0,16.77 13.54,30.31 30.31,30.31zm333.13 -30.31c0,16.77 -13.54,30.31 -30.21,30.31 -16.77,0 -30.31,-13.54 -30.31,-30.31 0,-16.67 13.54,-30.21 30.31,-30.21 16.67,0 30.21,13.54 30.21,30.21zm272.6 30.31c16.77,0 30.31,-13.54 30.31,-30.31 0,-16.67 -13.54,-30.21 -30.31,-30.21 -16.67,0 -30.21,13.54 -30.21,30.21 0,16.77 13.54,30.31 30.21,30.31zm333.23 -30.31c0,16.77 -13.54,30.31 -30.31,30.31 -16.67,0 -30.21,-13.54 -30.21,-30.31 0,-16.67 13.54,-30.21 30.21,-30.21 16.77,0 30.31,13.54 30.31,30.21zm272.61 30.31c16.77,0 30.31,-13.54 30.31,-30.31 0,-16.67 -13.54,-30.21 -30.31,-30.21 -16.67,0 -30.21,13.54 -30.21,30.21 0,16.77 13.54,30.31 30.21,30.31zm-1817.4 242.4c16.67,0 30.21,13.54 30.21,30.21 0,16.67 -13.54,30.31 -30.21,30.31l0 -60.52zm302.92 60.52c16.67,0 30.21,-13.54 30.21,-30.31 0,-16.67 -13.54,-30.21 -30.21,-30.21 -16.77,0 -30.31,13.54 -30.31,30.21 0,16.77 13.54,30.31 30.31,30.31zm333.13 -30.31c0,16.77 -13.54,30.31 -30.21,30.31 -16.77,0 -30.31,-13.54 -30.31,-30.31 0,-16.67 13.54,-30.21 30.31,-30.21 16.67,0 30.21,13.54 30.21,30.21zm272.71 30.31c16.67,0 30.21,-13.54 30.21,-30.31 0,-16.67 -13.54,-30.21 -30.21,-30.21 -16.77,0 -30.31,13.54 -30.31,30.21 0,16.77 13.54,30.31 30.31,30.31zm333.12 -30.31c0,16.77 -13.54,30.31 -30.31,30.31 -16.67,0 -30.21,-13.54 -30.21,-30.31 0,-16.67 13.54,-30.21 30.21,-30.21 16.77,0 30.31,13.54 30.31,30.21zm272.61 30.31c16.77,0 30.31,-13.54 30.31,-30.31 0,-16.67 -13.54,-30.21 -30.31,-30.21 -16.67,0 -30.21,13.54 -30.21,30.21 0,16.77 13.54,30.31 30.21,30.31zm333.23 -30.31c0,16.77 -13.54,30.31 -30.31,30.31 -16.67,0 -30.21,-13.54 -30.21,-30.31 0,-16.67 13.54,-30.21 30.21,-30.21 16.77,0 30.31,13.54 30.31,30.21zm-1817.5 302.91c0,-16.67 -13.54,-30.2 -30.21,-30.2l0 60.52c16.67,0 30.21,-13.65 30.21,-30.31zm302.92 0c0,16.77 -13.54,30.31 -30.21,30.31 -16.77,0 -30.31,-13.54 -30.31,-30.31 0,-16.67 13.54,-30.2 30.31,-30.2 16.67,0 30.21,13.54 30.21,30.2zm272.71 30.31c16.67,0 30.21,-13.54 30.21,-30.31 0,-16.67 -13.54,-30.2 -30.21,-30.2 -16.77,0 -30.31,13.54 -30.31,30.2 0,16.77 13.54,30.31 30.31,30.31zm333.13 -30.31c0,16.77 -13.54,30.31 -30.21,30.31 -16.77,0 -30.31,-13.54 -30.31,-30.31 0,-16.67 13.54,-30.2 30.31,-30.2 16.67,0 30.21,13.54 30.21,30.2zm272.6 30.31c16.77,0 30.31,-13.54 30.31,-30.31 0,-16.67 -13.54,-30.2 -30.31,-30.2 -16.67,0 -30.21,13.54 -30.21,30.2 0,16.77 13.54,30.31 30.21,30.31zm333.23 -30.31c0,16.77 -13.54,30.31 -30.31,30.31 -16.67,0 -30.21,-13.54 -30.21,-30.31 0,-16.67 13.54,-30.2 30.21,-30.2 16.77,0 30.31,13.54 30.31,30.2zm272.61 30.31c16.77,0 30.31,-13.54 30.31,-30.31 0,-16.67 -13.54,-30.2 -30.31,-30.2 -16.67,0 -30.21,13.54 -30.21,30.2 0,16.77 13.54,30.31 30.21,30.31zm-1817.4 242.39c16.67,0 30.21,13.54 30.21,30.21 0,16.67 -13.54,30.31 -30.21,30.31l0 -60.52zm302.92 60.52c16.67,0 30.21,-13.54 30.21,-30.31 0,-16.67 -13.54,-30.21 -30.21,-30.21 -16.77,0 -30.31,13.54 -30.31,30.21 0,16.77 13.54,30.31 30.31,30.31zm333.13 -30.31c0,16.77 -13.54,30.31 -30.21,30.31 -16.77,0 -30.31,-13.54 -30.31,-30.31 0,-16.67 13.54,-30.21 30.31,-30.21 16.67,0 30.21,13.54 30.21,30.21zm272.71 30.31c16.67,0 30.21,-13.54 30.21,-30.31 0,-16.67 -13.54,-30.21 -30.21,-30.21 -16.77,0 -30.31,13.54 -30.31,30.21 0,16.77 13.54,30.31 30.31,30.31zm333.12 -30.31c0,16.77 -13.54,30.31 -30.31,30.31 -16.67,0 -30.21,-13.54 -30.21,-30.31 0,-16.67 13.54,-30.21 30.21,-30.21 16.77,0 30.31,13.54 30.31,30.21zm272.61 30.31c16.77,0 30.31,-13.54 30.31,-30.31 0,-16.67 -13.54,-30.21 -30.31,-30.21 -16.67,0 -30.21,13.54 -30.21,30.21 0,16.77 13.54,30.31 30.21,30.31zm333.23 -30.31c0,16.77 -13.54,30.31 -30.31,30.31 -16.67,0 -30.21,-13.54 -30.21,-30.31 0,-16.67 13.54,-30.21 30.21,-30.21 16.77,0 30.31,13.54 30.31,30.21zm-1817.5 302.92c0,-16.67 -13.54,-30.21 -30.21,-30.21l0 60.52c16.67,0 30.21,-13.65 30.21,-30.31zm302.92 0c0,16.77 -13.54,30.31 -30.21,30.31 -16.77,0 -30.31,-13.54 -30.31,-30.31 0,-16.67 13.54,-30.21 30.31,-30.21 16.67,0 30.21,13.54 30.21,30.21zm272.71 30.31c16.67,0 30.21,-13.54 30.21,-30.31 0,-16.67 -13.54,-30.21 -30.21,-30.21 -16.77,0 -30.31,13.54 -30.31,30.21 0,16.77 13.54,30.31 30.31,30.31zm333.13 -30.31c0,16.77 -13.54,30.31 -30.21,30.31 -16.77,0 -30.31,-13.54 -30.31,-30.31 0,-16.67 13.54,-30.21 30.31,-30.21 16.67,0 30.21,13.54 30.21,30.21zm272.6 30.31c16.77,0 30.31,-13.54 30.31,-30.31 0,-16.67 -13.54,-30.21 -30.31,-30.21 -16.67,0 -30.21,13.54 -30.21,30.21 0,16.77 13.54,30.31 30.21,30.31zm333.23 -30.31c0,16.77 -13.54,30.31 -30.31,30.31 -16.67,0 -30.21,-13.54 -30.21,-30.31 0,-16.67 13.54,-30.21 30.21,-30.21 16.77,0 30.31,13.54 30.31,30.21zm272.61 30.31c16.77,0 30.31,-13.54 30.31,-30.31 0,-16.67 -13.54,-30.21 -30.31,-30.21 -16.67,0 -30.21,13.54 -30.21,30.21 0,16.77 13.54,30.31 30.21,30.31zm-1817.4 242.39c16.67,0 30.21,13.54 30.21,30.21 0,16.67 -13.54,30.31 -30.21,30.31l0 -60.52zm302.92 60.52c16.67,0 30.21,-13.54 30.21,-30.31 0,-16.67 -13.54,-30.21 -30.21,-30.21 -16.77,0 -30.31,13.54 -30.31,30.21 0,16.77 13.54,30.31 30.31,30.31zm333.13 -30.31c0,16.77 -13.54,30.31 -30.21,30.31 -16.77,0 -30.31,-13.54 -30.31,-30.31 0,-16.67 13.54,-30.21 30.31,-30.21 16.67,0 30.21,13.54 30.21,30.21zm272.71 30.31c16.67,0 30.21,-13.54 30.21,-30.31 0,-16.67 -13.54,-30.21 -30.21,-30.21 -16.77,0 -30.31,13.54 -30.31,30.21 0,16.77 13.54,30.31 30.31,30.31zm333.12 -30.31c0,16.77 -13.54,30.31 -30.31,30.31 -16.67,0 -30.21,-13.54 -30.21,-30.31 0,-16.67 13.54,-30.21 30.21,-30.21 16.77,0 30.31,13.54 30.31,30.21zm272.61 30.31c16.77,0 30.31,-13.54 30.31,-30.31 0,-16.67 -13.54,-30.21 -30.31,-30.21 -16.67,0 -30.21,13.54 -30.21,30.21 0,16.77 13.54,30.31 30.21,30.31zm333.23 -30.31c0,16.77 -13.54,30.31 -30.31,30.31 -16.67,0 -30.21,-13.54 -30.21,-30.31 0,-16.67 13.54,-30.21 30.21,-30.21 16.77,0 30.31,13.54 30.31,30.21zm-1817.5 302.92c0,-16.67 -13.54,-30.21 -30.21,-30.21l0 60.52c16.67,0 30.21,-13.65 30.21,-30.31zm302.92 0c0,16.77 -13.54,30.31 -30.21,30.31 -16.77,0 -30.31,-13.54 -30.31,-30.31 0,-16.67 13.54,-30.21 30.31,-30.21 16.67,0 30.21,13.54 30.21,30.21zm272.71 30.31c16.67,0 30.21,-13.54 30.21,-30.31 0,-16.67 -13.54,-30.21 -30.21,-30.21 -16.77,0 -30.31,13.54 -30.31,30.21 0,16.77 13.54,30.31 30.31,30.31zm333.13 -30.31c0,16.77 -13.54,30.31 -30.21,30.31 -16.77,0 -30.31,-13.54 -30.31,-30.31 0,-16.67 13.54,-30.21 30.31,-30.21 16.67,0 30.21,13.54 30.21,30.21zm272.6 30.31c16.77,0 30.31,-13.54 30.31,-30.31 0,-16.67 -13.54,-30.21 -30.31,-30.21 -16.67,0 -30.21,13.54 -30.21,30.21 0,16.77 13.54,30.31 30.21,30.31zm333.23 -30.31c0,16.77 -13.54,30.31 -30.31,30.31 -16.67,0 -30.21,-13.54 -30.21,-30.31 0,-16.67 13.54,-30.21 30.21,-30.21 16.77,0 30.31,13.54 30.31,30.21zm272.61 30.31c16.77,0 30.31,-13.54 30.31,-30.31 0,-16.67 -13.54,-30.21 -30.31,-30.21 -16.67,0 -30.21,13.54 -30.21,30.21 0,16.77 13.54,30.31 30.21,30.31zm-1817.4 242.4c16.67,0 30.21,13.54 30.21,30.21 0,16.67 -13.54,30.31 -30.21,30.31l0 -60.52zm302.92 60.52c16.67,0 30.21,-13.54 30.21,-30.31 0,-16.67 -13.54,-30.21 -30.21,-30.21 -16.77,0 -30.31,13.54 -30.31,30.21 0,16.77 13.54,30.31 30.31,30.31zm333.13 -30.31c0,16.77 -13.54,30.31 -30.21,30.31 -16.77,0 -30.31,-13.54 -30.31,-30.31 0,-16.67 13.54,-30.21 30.31,-30.21 16.67,0 30.21,13.54 30.21,30.21zm272.71 30.31c16.67,0 30.21,-13.54 30.21,-30.31 0,-16.67 -13.54,-30.21 -30.21,-30.21 -16.77,0 -30.31,13.54 -30.31,30.21 0,16.77 13.54,30.31 30.31,30.31zm333.12 -30.31c0,16.77 -13.54,30.31 -30.31,30.31 -16.67,0 -30.21,-13.54 -30.21,-30.31 0,-16.67 13.54,-30.21 30.21,-30.21 16.77,0 30.31,13.54 30.31,30.21zm272.61 30.31c16.77,0 30.31,-13.54 30.31,-30.31 0,-16.67 -13.54,-30.21 -30.31,-30.21 -16.67,0 -30.21,13.54 -30.21,30.21 0,16.77 13.54,30.31 30.21,30.31zm333.23 -30.31c0,16.77 -13.54,30.31 -30.31,30.31 -16.67,0 -30.21,-13.54 -30.21,-30.31 0,-16.67 13.54,-30.21 30.21,-30.21 16.77,0 30.31,13.54 30.31,30.21zm-1817.5 302.91c0,-16.67 -13.54,-30.31 -30.21,-30.31l0 60.63c16.67,0 30.21,-13.65 30.21,-30.31zm302.92 0c0,16.77 -13.54,30.31 -30.21,30.31 -16.77,0 -30.31,-13.54 -30.31,-30.31 0,-16.67 13.54,-30.31 30.31,-30.31 16.67,0 30.21,13.65 30.21,30.31zm272.71 30.31c16.67,0 30.21,-13.54 30.21,-30.31 0,-16.67 -13.54,-30.31 -30.21,-30.31 -16.77,0 -30.31,13.65 -30.31,30.31 0,16.77 13.54,30.31 30.31,30.31zm333.13 -30.31c0,16.77 -13.54,30.31 -30.21,30.31 -16.77,0 -30.31,-13.54 -30.31,-30.31 0,-16.67 13.54,-30.31 30.31,-30.31 16.67,0 30.21,13.65 30.21,30.31zm272.6 30.31c16.77,0 30.31,-13.54 30.31,-30.31 0,-16.67 -13.54,-30.31 -30.31,-30.31 -16.67,0 -30.21,13.65 -30.21,30.31 0,16.77 13.54,30.31 30.21,30.31zm333.23 -30.31c0,16.77 -13.54,30.31 -30.31,30.31 -16.67,0 -30.21,-13.54 -30.21,-30.31 0,-16.67 13.54,-30.31 30.21,-30.31 16.77,0 30.31,13.65 30.31,30.31zm272.61 30.31c16.77,0 30.31,-13.54 30.31,-30.31 0,-16.67 -13.54,-30.31 -30.31,-30.31 -16.67,0 -30.21,13.65 -30.21,30.31 0,16.77 13.54,30.31 30.21,30.31zm-1817.4 272.6l0 -30.31c16.67,0 30.21,13.65 30.21,30.31l-30.21 0zm302.92 -30.31c-16.67,0 -30.31,13.65 -30.31,30.31l60.52 0c0,-16.67 -13.65,-30.31 -30.21,-30.31zm272.6 30.31c0,-16.67 13.65,-30.31 30.31,-30.31 16.56,0 30.21,13.65 30.21,30.31l-60.52 0zm333.23 -30.31c-16.67,0 -30.31,13.65 -30.31,30.31l60.52 0c0,-16.67 -13.65,-30.31 -30.21,-30.31zm272.6 30.31c0,-16.67 13.65,-30.31 30.21,-30.31 16.67,0 30.31,13.65 30.31,30.31l-60.52 0zm333.13 -30.31c-16.56,0 -30.21,13.65 -30.21,30.31l60.52 0c0,-16.67 -13.65,-30.31 -30.31,-30.31zm272.71 30.31c0,-16.67 13.65,-30.31 30.21,-30.31 16.67,0 30.31,13.65 30.31,30.31l-60.52 0z"/>
 </g>
</svg>
