<?xml version="1.0" encoding="UTF-8"?>
<!DOCTYPE svg PUBLIC "-//W3C//DTD SVG 1.1//EN" "http://www.w3.org/Graphics/SVG/1.1/DTD/svg11.dtd">
<!-- Creator: CorelDRAW 2019 (64-Bit) -->
<svg xmlns="http://www.w3.org/2000/svg" xml:space="preserve" width="2.69792in" height="2.69792in" version="1.1" style="shape-rendering:geometricPrecision; text-rendering:geometricPrecision; image-rendering:optimizeQuality; fill-rule:evenodd; clip-rule:evenodd"
viewBox="0 0 2697.91 2697.91"
 xmlns:xlink="http://www.w3.org/1999/xlink"
 xmlns:xodm="http://www.corel.com/coreldraw/odm/2003">
 <defs>
  <style type="text/css">
   <![CDATA[
    .fil0 {fill:#55BC7E}
   ]]>
  </style>
 </defs>
 <g id="Layer_x0020_1">
  <metadata id="CorelCorpID_0Corel-Layer"/>
  <path id="Union_3" class="fil0" d="M22.48 0l-22.48 0 0 22.5c12.36,0 22.48,-10.1 22.48,-22.5zm202.34 22.5c12.36,0 22.49,-10.1 22.49,-22.5l-44.97 0c0,12.4 10.11,22.5 22.48,22.5zm247.31 -22.5c0,12.4 -10.11,22.5 -22.48,22.5 -12.37,0 -22.49,-10.1 -22.49,-22.5l44.97 0zm202.35 22.5c12.36,0 22.48,-10.1 22.48,-22.5l-44.96 0c0,12.4 10.11,22.5 22.48,22.5zm247.31 -22.5c0,12.4 -10.13,22.5 -22.49,22.5 -12.37,0 -22.48,-10.1 -22.48,-22.5l44.97 0zm202.34 22.5c12.37,0 22.48,-10.1 22.48,-22.5l-44.97 0c0,12.4 10.13,22.5 22.49,22.5zm247.3 -22.5c0,12.4 -10.11,22.5 -22.48,22.5 -12.36,0 -22.48,-10.1 -22.48,-22.5l44.96 0zm202.34 22.5c12.37,0 22.49,-10.1 22.49,-22.5l-44.97 0c0,12.4 10.11,22.5 22.48,22.5zm247.31 -22.5c0,12.4 -10.11,22.5 -22.48,22.5 -12.37,0 -22.49,-10.1 -22.49,-22.5l44.97 0zm202.34 22.5c12.37,0 22.48,-10.1 22.48,-22.5l-44.96 0c0,12.4 10.11,22.5 22.48,22.5zm247.31 -22.5c0,12.4 -10.12,22.5 -22.49,22.5 -12.37,0 -22.48,-10.1 -22.48,-22.5l44.97 0zm202.35 22.5c12.36,0 22.48,-10.1 22.48,-22.5l-44.97 0c0,12.4 10.13,22.5 22.49,22.5zm224.82 -22.5l0 22.5c-12.37,0 -22.48,-10.1 -22.48,-22.5l22.48 0zm-2675.43 224.79c0,-12.29 -10.12,-22.5 -22.48,-22.5l0 45c12.36,0 22.48,-10.1 22.48,-22.5zm224.83 0c0,12.5 -10.07,22.5 -22.49,22.5 -12.42,0 -22.48,-10 -22.48,-22.5 0,-12.39 10.06,-22.5 22.48,-22.5 12.42,0 22.49,10.11 22.49,22.5zm202.35 22.5c12.41,0 22.48,-10 22.48,-22.5 0,-12.39 -10.06,-22.5 -22.48,-22.5 -12.42,0 -22.49,10.11 -22.49,22.5 0,12.5 10.07,22.5 22.49,22.5zm247.3 -22.5c0,12.5 -10.06,22.5 -22.48,22.5 -12.42,0 -22.48,-10 -22.48,-22.5 0,-12.39 10.06,-22.5 22.48,-22.5 12.41,0 22.48,10.11 22.48,22.5zm202.35 22.5c12.41,0 22.49,-10 22.49,-22.5 0,-12.39 -10.07,-22.5 -22.49,-22.5 -12.42,0 -22.48,10.11 -22.48,22.5 0,12.5 10.06,22.5 22.48,22.5zm247.31 -22.5c0,12.5 -10.06,22.5 -22.48,22.5 -12.42,0 -22.49,-10 -22.49,-22.5 0,-12.39 10.07,-22.5 22.49,-22.5 12.42,0 22.48,10.11 22.48,22.5zm202.34 22.5c12.42,0 22.48,-10 22.48,-22.5 0,-12.39 -10.06,-22.5 -22.48,-22.5 -12.42,0 -22.48,10.11 -22.48,22.5 0,12.5 10.06,22.5 22.48,22.5zm247.31 -22.5c0,12.5 -10.07,22.5 -22.49,22.5 -12.42,0 -22.48,-10 -22.48,-22.5 0,-12.39 10.06,-22.5 22.48,-22.5 12.42,0 22.49,10.11 22.49,22.5zm202.34 22.5c12.42,0 22.48,-10 22.48,-22.5 0,-12.39 -10.06,-22.5 -22.48,-22.5 -12.42,0 -22.49,10.11 -22.49,22.5 0,12.5 10.07,22.5 22.49,22.5zm247.3 -22.5c0,12.5 -10.06,22.5 -22.48,22.5 -12.42,0 -22.48,-10 -22.48,-22.5 0,-12.39 10.06,-22.5 22.48,-22.5 12.42,0 22.48,10.11 22.48,22.5zm202.34 22.5c12.42,0 22.49,-10 22.49,-22.5 0,-12.39 -10.07,-22.5 -22.49,-22.5 -12.42,0 -22.48,10.11 -22.48,22.5 0,12.5 10.06,22.5 22.48,22.5zm247.31 -22.5c0,12.5 -10.06,22.5 -22.48,22.5 -12.42,0 -22.49,-10 -22.49,-22.5 0,-12.39 10.07,-22.5 22.49,-22.5 12.41,0 22.48,10.11 22.48,22.5zm179.87 0c0,12.4 10.11,22.5 22.48,22.5l0 -45c-12.37,0 -22.48,10.21 -22.48,22.5zm-2675.43 202.4c12.36,0 22.48,10.1 22.48,22.5 0,12.29 -10.12,22.39 -22.48,22.39l0 -44.89zm224.82 44.89c12.42,0 22.49,-10 22.49,-22.39 0,-12.5 -10.07,-22.5 -22.49,-22.5 -12.42,0 -22.48,10 -22.48,22.5 0,12.39 10.06,22.39 22.48,22.39zm247.31 -22.39c0,12.39 -10.06,22.39 -22.48,22.39 -12.42,0 -22.49,-10 -22.49,-22.39 0,-12.5 10.07,-22.5 22.49,-22.5 12.41,0 22.48,10 22.48,22.5zm202.35 22.39c12.41,0 22.48,-10 22.48,-22.39 0,-12.5 -10.06,-22.5 -22.48,-22.5 -12.42,0 -22.48,10 -22.48,22.5 0,12.39 10.06,22.39 22.48,22.39zm247.31 -22.39c0,12.39 -10.07,22.39 -22.49,22.39 -12.42,0 -22.48,-10 -22.48,-22.39 0,-12.5 10.06,-22.5 22.48,-22.5 12.41,0 22.49,10 22.49,22.5zm202.34 22.39c12.42,0 22.48,-10 22.48,-22.39 0,-12.5 -10.06,-22.5 -22.48,-22.5 -12.42,0 -22.49,10 -22.49,22.5 0,12.39 10.07,22.39 22.49,22.39zm247.3 -22.39c0,12.39 -10.06,22.39 -22.48,22.39 -12.42,0 -22.48,-10 -22.48,-22.39 0,-12.5 10.06,-22.5 22.48,-22.5 12.42,0 22.48,10 22.48,22.5zm202.34 22.39c12.42,0 22.49,-10 22.49,-22.39 0,-12.5 -10.07,-22.5 -22.49,-22.5 -12.42,0 -22.48,10 -22.48,22.5 0,12.39 10.06,22.39 22.48,22.39zm247.31 -22.39c0,12.39 -10.06,22.39 -22.48,22.39 -12.42,0 -22.49,-10 -22.49,-22.39 0,-12.5 10.07,-22.5 22.49,-22.5 12.42,0 22.48,10 22.48,22.5zm202.34 22.39c12.42,0 22.48,-10 22.48,-22.39 0,-12.5 -10.06,-22.5 -22.48,-22.5 -12.42,0 -22.48,10 -22.48,22.5 0,12.39 10.06,22.39 22.48,22.39zm247.31 -22.39c0,12.39 -10.07,22.39 -22.49,22.39 -12.42,0 -22.48,-10 -22.48,-22.39 0,-12.5 10.06,-22.5 22.48,-22.5 12.42,0 22.49,10 22.49,22.5zm202.35 22.39c12.41,0 22.48,-10 22.48,-22.39 0,-12.5 -10.06,-22.5 -22.48,-22.5 -12.42,0 -22.49,10 -22.49,22.5 0,12.39 10.07,22.39 22.49,22.39zm224.82 0c-12.37,0 -22.48,-10.1 -22.48,-22.39 0,-12.4 10.11,-22.5 22.48,-22.5l0 44.89zm-2675.43 202.4c0,-12.4 -10.12,-22.5 -22.48,-22.5l0 45c12.36,0 22.48,-10.11 22.48,-22.5zm224.83 0c0,12.39 -10.07,22.5 -22.49,22.5 -12.42,0 -22.48,-10.11 -22.48,-22.5 0,-12.4 10.06,-22.5 22.48,-22.5 12.42,0 22.49,10.1 22.49,22.5zm202.35 22.5c12.41,0 22.48,-10.11 22.48,-22.5 0,-12.4 -10.06,-22.5 -22.48,-22.5 -12.42,0 -22.49,10.1 -22.49,22.5 0,12.39 10.07,22.5 22.49,22.5zm247.3 -22.5c0,12.39 -10.06,22.5 -22.48,22.5 -12.42,0 -22.48,-10.11 -22.48,-22.5 0,-12.4 10.06,-22.5 22.48,-22.5 12.41,0 22.48,10.1 22.48,22.5zm202.35 22.5c12.41,0 22.49,-10.11 22.49,-22.5 0,-12.4 -10.07,-22.5 -22.49,-22.5 -12.42,0 -22.48,10.1 -22.48,22.5 0,12.39 10.06,22.5 22.48,22.5zm247.31 -22.5c0,12.39 -10.06,22.5 -22.48,22.5 -12.42,0 -22.49,-10.11 -22.49,-22.5 0,-12.4 10.07,-22.5 22.49,-22.5 12.42,0 22.48,10.1 22.48,22.5zm202.34 22.5c12.42,0 22.48,-10.11 22.48,-22.5 0,-12.4 -10.06,-22.5 -22.48,-22.5 -12.42,0 -22.48,10.1 -22.48,22.5 0,12.39 10.06,22.5 22.48,22.5zm247.31 -22.5c0,12.39 -10.07,22.5 -22.49,22.5 -12.42,0 -22.48,-10.11 -22.48,-22.5 0,-12.4 10.06,-22.5 22.48,-22.5 12.42,0 22.49,10.1 22.49,22.5zm202.34 22.5c12.42,0 22.48,-10.11 22.48,-22.5 0,-12.4 -10.06,-22.5 -22.48,-22.5 -12.42,0 -22.49,10.1 -22.49,22.5 0,12.39 10.07,22.5 22.49,22.5zm247.3 -22.5c0,12.39 -10.06,22.5 -22.48,22.5 -12.42,0 -22.48,-10.11 -22.48,-22.5 0,-12.4 10.06,-22.5 22.48,-22.5 12.42,0 22.48,10.1 22.48,22.5zm202.34 22.5c12.42,0 22.49,-10.11 22.49,-22.5 0,-12.4 -10.07,-22.5 -22.49,-22.5 -12.42,0 -22.48,10.1 -22.48,22.5 0,12.39 10.06,22.5 22.48,22.5zm247.31 -22.5c0,12.39 -10.06,22.5 -22.48,22.5 -12.42,0 -22.49,-10.11 -22.49,-22.5 0,-12.4 10.07,-22.5 22.49,-22.5 12.41,0 22.48,10.1 22.48,22.5zm179.87 0c0,12.39 10.11,22.5 22.48,22.5l0 -45c-12.37,0 -22.48,10.1 -22.48,22.5zm-2675.43 202.29c12.36,0 22.48,10.21 22.48,22.5 0,12.39 -10.12,22.5 -22.48,22.5l0 -45zm224.82 45c12.42,0 22.49,-10 22.49,-22.5 0,-12.4 -10.07,-22.5 -22.49,-22.5 -12.42,0 -22.48,10.1 -22.48,22.5 0,12.5 10.06,22.5 22.48,22.5zm247.31 -22.5c0,12.5 -10.06,22.5 -22.48,22.5 -12.42,0 -22.49,-10 -22.49,-22.5 0,-12.4 10.07,-22.5 22.49,-22.5 12.41,0 22.48,10.1 22.48,22.5zm202.35 22.5c12.41,0 22.48,-10 22.48,-22.5 0,-12.4 -10.06,-22.5 -22.48,-22.5 -12.42,0 -22.48,10.1 -22.48,22.5 0,12.5 10.06,22.5 22.48,22.5zm247.31 -22.5c0,12.5 -10.07,22.5 -22.49,22.5 -12.42,0 -22.48,-10 -22.48,-22.5 0,-12.4 10.06,-22.5 22.48,-22.5 12.41,0 22.49,10.1 22.49,22.5zm202.34 22.5c12.42,0 22.48,-10 22.48,-22.5 0,-12.4 -10.06,-22.5 -22.48,-22.5 -12.42,0 -22.49,10.1 -22.49,22.5 0,12.5 10.07,22.5 22.49,22.5zm247.3 -22.5c0,12.5 -10.06,22.5 -22.48,22.5 -12.42,0 -22.48,-10 -22.48,-22.5 0,-12.4 10.06,-22.5 22.48,-22.5 12.42,0 22.48,10.1 22.48,22.5zm202.34 22.5c12.42,0 22.49,-10 22.49,-22.5 0,-12.4 -10.07,-22.5 -22.49,-22.5 -12.42,0 -22.48,10.1 -22.48,22.5 0,12.5 10.06,22.5 22.48,22.5zm247.31 -22.5c0,12.5 -10.06,22.5 -22.48,22.5 -12.42,0 -22.49,-10 -22.49,-22.5 0,-12.4 10.07,-22.5 22.49,-22.5 12.42,0 22.48,10.1 22.48,22.5zm202.34 22.5c12.42,0 22.48,-10 22.48,-22.5 0,-12.4 -10.06,-22.5 -22.48,-22.5 -12.42,0 -22.48,10.1 -22.48,22.5 0,12.5 10.06,22.5 22.48,22.5zm247.31 -22.5c0,12.5 -10.07,22.5 -22.49,22.5 -12.42,0 -22.48,-10 -22.48,-22.5 0,-12.4 10.06,-22.5 22.48,-22.5 12.42,0 22.49,10.1 22.49,22.5zm202.35 22.5c12.41,0 22.48,-10 22.48,-22.5 0,-12.4 -10.06,-22.5 -22.48,-22.5 -12.42,0 -22.49,10.1 -22.49,22.5 0,12.5 10.07,22.5 22.49,22.5zm224.82 0c-12.37,0 -22.48,-10.11 -22.48,-22.5 0,-12.29 10.11,-22.5 22.48,-22.5l0 45zm-2675.43 202.39c0,-12.39 -10.12,-22.5 -22.48,-22.5l0 44.9c12.36,0 22.48,-10.11 22.48,-22.4zm224.83 0c0,12.4 -10.07,22.4 -22.49,22.4 -12.42,0 -22.48,-10 -22.48,-22.4 0,-12.5 10.06,-22.5 22.48,-22.5 12.42,0 22.49,10 22.49,22.5zm202.35 22.4c12.41,0 22.48,-10 22.48,-22.4 0,-12.5 -10.06,-22.5 -22.48,-22.5 -12.42,0 -22.49,10 -22.49,22.5 0,12.4 10.07,22.4 22.49,22.4zm247.3 -22.4c0,12.4 -10.06,22.4 -22.48,22.4 -12.42,0 -22.48,-10 -22.48,-22.4 0,-12.5 10.06,-22.5 22.48,-22.5 12.41,0 22.48,10 22.48,22.5zm202.35 22.4c12.41,0 22.49,-10 22.49,-22.4 0,-12.5 -10.07,-22.5 -22.49,-22.5 -12.42,0 -22.48,10 -22.48,22.5 0,12.4 10.06,22.4 22.48,22.4zm247.31 -22.4c0,12.4 -10.06,22.4 -22.48,22.4 -12.42,0 -22.49,-10 -22.49,-22.4 0,-12.5 10.07,-22.5 22.49,-22.5 12.42,0 22.48,10 22.48,22.5zm202.34 22.4c12.42,0 22.48,-10 22.48,-22.4 0,-12.5 -10.06,-22.5 -22.48,-22.5 -12.42,0 -22.48,10 -22.48,22.5 0,12.4 10.06,22.4 22.48,22.4zm247.31 -22.4c0,12.4 -10.07,22.4 -22.49,22.4 -12.42,0 -22.48,-10 -22.48,-22.4 0,-12.5 10.06,-22.5 22.48,-22.5 12.42,0 22.49,10 22.49,22.5zm202.34 22.4c12.42,0 22.48,-10 22.48,-22.4 0,-12.5 -10.06,-22.5 -22.48,-22.5 -12.42,0 -22.49,10 -22.49,22.5 0,12.4 10.07,22.4 22.49,22.4zm247.3 -22.4c0,12.4 -10.06,22.4 -22.48,22.4 -12.42,0 -22.48,-10 -22.48,-22.4 0,-12.5 10.06,-22.5 22.48,-22.5 12.42,0 22.48,10 22.48,22.5zm202.34 22.4c12.42,0 22.49,-10 22.49,-22.4 0,-12.5 -10.07,-22.5 -22.49,-22.5 -12.42,0 -22.48,10 -22.48,22.5 0,12.4 10.06,22.4 22.48,22.4zm247.31 -22.4c0,12.4 -10.06,22.4 -22.48,22.4 -12.42,0 -22.49,-10 -22.49,-22.4 0,-12.5 10.07,-22.5 22.49,-22.5 12.41,0 22.48,10 22.48,22.5zm179.87 0c0,12.29 10.11,22.4 22.48,22.4l0 -44.9c-12.37,0 -22.48,10.11 -22.48,22.5zm-2675.43 202.29c12.36,0 22.48,10.11 22.48,22.5 0,12.4 -10.12,22.5 -22.48,22.5l0 -45zm224.82 45c12.42,0 22.49,-10.1 22.49,-22.5 0,-12.39 -10.07,-22.5 -22.49,-22.5 -12.42,0 -22.48,10.11 -22.48,22.5 0,12.4 10.06,22.5 22.48,22.5zm247.31 -22.5c0,12.4 -10.06,22.5 -22.48,22.5 -12.42,0 -22.49,-10.1 -22.49,-22.5 0,-12.39 10.07,-22.5 22.49,-22.5 12.41,0 22.48,10.11 22.48,22.5zm202.35 22.5c12.41,0 22.48,-10.1 22.48,-22.5 0,-12.39 -10.06,-22.5 -22.48,-22.5 -12.42,0 -22.48,10.11 -22.48,22.5 0,12.4 10.06,22.5 22.48,22.5zm247.31 -22.5c0,12.4 -10.07,22.5 -22.49,22.5 -12.42,0 -22.48,-10.1 -22.48,-22.5 0,-12.39 10.06,-22.5 22.48,-22.5 12.41,0 22.49,10.11 22.49,22.5zm202.34 22.5c12.42,0 22.48,-10.1 22.48,-22.5 0,-12.39 -10.06,-22.5 -22.48,-22.5 -12.42,0 -22.49,10.11 -22.49,22.5 0,12.4 10.07,22.5 22.49,22.5zm247.3 -22.5c0,12.4 -10.06,22.5 -22.48,22.5 -12.42,0 -22.48,-10.1 -22.48,-22.5 0,-12.39 10.06,-22.5 22.48,-22.5 12.42,0 22.48,10.11 22.48,22.5zm202.34 22.5c12.42,0 22.49,-10.1 22.49,-22.5 0,-12.39 -10.07,-22.5 -22.49,-22.5 -12.42,0 -22.48,10.11 -22.48,22.5 0,12.4 10.06,22.5 22.48,22.5zm247.31 -22.5c0,12.4 -10.06,22.5 -22.48,22.5 -12.42,0 -22.49,-10.1 -22.49,-22.5 0,-12.39 10.07,-22.5 22.49,-22.5 12.42,0 22.48,10.11 22.48,22.5zm202.34 22.5c12.42,0 22.48,-10.1 22.48,-22.5 0,-12.39 -10.06,-22.5 -22.48,-22.5 -12.42,0 -22.48,10.11 -22.48,22.5 0,12.4 10.06,22.5 22.48,22.5zm247.31 -22.5c0,12.4 -10.07,22.5 -22.49,22.5 -12.42,0 -22.48,-10.1 -22.48,-22.5 0,-12.39 10.06,-22.5 22.48,-22.5 12.42,0 22.49,10.11 22.49,22.5zm202.35 22.5c12.41,0 22.48,-10.1 22.48,-22.5 0,-12.39 -10.06,-22.5 -22.48,-22.5 -12.42,0 -22.49,10.11 -22.49,22.5 0,12.4 10.07,22.5 22.49,22.5zm224.82 0c-12.37,0 -22.48,-10.1 -22.48,-22.5 0,-12.39 10.11,-22.5 22.48,-22.5l0 45zm-2675.43 202.29c0,-12.3 -10.12,-22.5 -22.48,-22.5l0 45c12.36,0 22.48,-10.1 22.48,-22.5zm224.83 0c0,12.5 -10.07,22.5 -22.49,22.5 -12.42,0 -22.48,-10 -22.48,-22.5 0,-12.4 10.06,-22.5 22.48,-22.5 12.42,0 22.49,10.1 22.49,22.5zm202.35 22.5c12.41,0 22.48,-10 22.48,-22.5 0,-12.4 -10.06,-22.5 -22.48,-22.5 -12.42,0 -22.49,10.1 -22.49,22.5 0,12.5 10.07,22.5 22.49,22.5zm247.3 -22.5c0,12.5 -10.06,22.5 -22.48,22.5 -12.42,0 -22.48,-10 -22.48,-22.5 0,-12.4 10.06,-22.5 22.48,-22.5 12.41,0 22.48,10.1 22.48,22.5zm202.35 22.5c12.41,0 22.49,-10 22.49,-22.5 0,-12.4 -10.07,-22.5 -22.49,-22.5 -12.42,0 -22.48,10.1 -22.48,22.5 0,12.5 10.06,22.5 22.48,22.5zm247.31 -22.5c0,12.5 -10.06,22.5 -22.48,22.5 -12.42,0 -22.49,-10 -22.49,-22.5 0,-12.4 10.07,-22.5 22.49,-22.5 12.42,0 22.48,10.1 22.48,22.5zm202.34 22.5c12.42,0 22.48,-10 22.48,-22.5 0,-12.4 -10.06,-22.5 -22.48,-22.5 -12.42,0 -22.48,10.1 -22.48,22.5 0,12.5 10.06,22.5 22.48,22.5zm247.31 -22.5c0,12.5 -10.07,22.5 -22.49,22.5 -12.42,0 -22.48,-10 -22.48,-22.5 0,-12.4 10.06,-22.5 22.48,-22.5 12.42,0 22.49,10.1 22.49,22.5zm202.34 22.5c12.42,0 22.48,-10 22.48,-22.5 0,-12.4 -10.06,-22.5 -22.48,-22.5 -12.42,0 -22.49,10.1 -22.49,22.5 0,12.5 10.07,22.5 22.49,22.5zm247.3 -22.5c0,12.5 -10.06,22.5 -22.48,22.5 -12.42,0 -22.48,-10 -22.48,-22.5 0,-12.4 10.06,-22.5 22.48,-22.5 12.42,0 22.48,10.1 22.48,22.5zm202.34 22.5c12.42,0 22.49,-10 22.49,-22.5 0,-12.4 -10.07,-22.5 -22.49,-22.5 -12.42,0 -22.48,10.1 -22.48,22.5 0,12.5 10.06,22.5 22.48,22.5zm247.31 -22.5c0,12.5 -10.06,22.5 -22.48,22.5 -12.42,0 -22.49,-10 -22.49,-22.5 0,-12.4 10.07,-22.5 22.49,-22.5 12.41,0 22.48,10.1 22.48,22.5zm179.87 0c0,12.39 10.11,22.5 22.48,22.5l0 -45c-12.37,0 -22.48,10.2 -22.48,22.5zm-2675.43 202.39c12.36,0 22.48,10.1 22.48,22.5 0,12.29 -10.12,22.4 -22.48,22.4l0 -44.9zm224.82 44.9c12.42,0 22.49,-10 22.49,-22.4 0,-12.5 -10.07,-22.5 -22.49,-22.5 -12.42,0 -22.48,10 -22.48,22.5 0,12.4 10.06,22.4 22.48,22.4zm247.31 -22.4c0,12.4 -10.06,22.4 -22.48,22.4 -12.42,0 -22.49,-10 -22.49,-22.4 0,-12.5 10.07,-22.5 22.49,-22.5 12.41,0 22.48,10 22.48,22.5zm202.35 22.4c12.41,0 22.48,-10 22.48,-22.4 0,-12.5 -10.06,-22.5 -22.48,-22.5 -12.42,0 -22.48,10 -22.48,22.5 0,12.4 10.06,22.4 22.48,22.4zm247.31 -22.4c0,12.4 -10.07,22.4 -22.49,22.4 -12.42,0 -22.48,-10 -22.48,-22.4 0,-12.5 10.06,-22.5 22.48,-22.5 12.41,0 22.49,10 22.49,22.5zm202.34 22.4c12.42,0 22.48,-10 22.48,-22.4 0,-12.5 -10.06,-22.5 -22.48,-22.5 -12.42,0 -22.49,10 -22.49,22.5 0,12.4 10.07,22.4 22.49,22.4zm247.3 -22.4c0,12.4 -10.06,22.4 -22.48,22.4 -12.42,0 -22.48,-10 -22.48,-22.4 0,-12.5 10.06,-22.5 22.48,-22.5 12.42,0 22.48,10 22.48,22.5zm202.34 22.4c12.42,0 22.49,-10 22.49,-22.4 0,-12.5 -10.07,-22.5 -22.49,-22.5 -12.42,0 -22.48,10 -22.48,22.5 0,12.4 10.06,22.4 22.48,22.4zm247.31 -22.4c0,12.4 -10.06,22.4 -22.48,22.4 -12.42,0 -22.49,-10 -22.49,-22.4 0,-12.5 10.07,-22.5 22.49,-22.5 12.42,0 22.48,10 22.48,22.5zm202.34 22.4c12.42,0 22.48,-10 22.48,-22.4 0,-12.5 -10.06,-22.5 -22.48,-22.5 -12.42,0 -22.48,10 -22.48,22.5 0,12.4 10.06,22.4 22.48,22.4zm247.31 -22.4c0,12.4 -10.07,22.4 -22.49,22.4 -12.42,0 -22.48,-10 -22.48,-22.4 0,-12.5 10.06,-22.5 22.48,-22.5 12.42,0 22.49,10 22.49,22.5zm202.35 22.4c12.41,0 22.48,-10 22.48,-22.4 0,-12.5 -10.06,-22.5 -22.48,-22.5 -12.42,0 -22.49,10 -22.49,22.5 0,12.4 10.07,22.4 22.49,22.4zm224.82 0c-12.37,0 -22.48,-10.11 -22.48,-22.4 0,-12.4 10.11,-22.5 22.48,-22.5l0 44.9zm-2675.43 202.39c0,-12.39 -10.12,-22.5 -22.48,-22.5l0 45c12.36,0 22.48,-10.1 22.48,-22.5zm224.83 0c0,12.4 -10.07,22.5 -22.49,22.5 -12.42,0 -22.48,-10.1 -22.48,-22.5 0,-12.39 10.06,-22.5 22.48,-22.5 12.42,0 22.49,10.11 22.49,22.5zm202.35 22.5c12.41,0 22.48,-10.1 22.48,-22.5 0,-12.39 -10.06,-22.5 -22.48,-22.5 -12.42,0 -22.49,10.11 -22.49,22.5 0,12.4 10.07,22.5 22.49,22.5zm247.3 -22.5c0,12.4 -10.06,22.5 -22.48,22.5 -12.42,0 -22.48,-10.1 -22.48,-22.5 0,-12.39 10.06,-22.5 22.48,-22.5 12.41,0 22.48,10.11 22.48,22.5zm202.35 22.5c12.41,0 22.49,-10.1 22.49,-22.5 0,-12.39 -10.07,-22.5 -22.49,-22.5 -12.42,0 -22.48,10.11 -22.48,22.5 0,12.4 10.06,22.5 22.48,22.5zm247.31 -22.5c0,12.4 -10.06,22.5 -22.48,22.5 -12.42,0 -22.49,-10.1 -22.49,-22.5 0,-12.39 10.07,-22.5 22.49,-22.5 12.42,0 22.48,10.11 22.48,22.5zm202.34 22.5c12.42,0 22.48,-10.1 22.48,-22.5 0,-12.39 -10.06,-22.5 -22.48,-22.5 -12.42,0 -22.48,10.11 -22.48,22.5 0,12.4 10.06,22.5 22.48,22.5zm247.31 -22.5c0,12.4 -10.07,22.5 -22.49,22.5 -12.42,0 -22.48,-10.1 -22.48,-22.5 0,-12.39 10.06,-22.5 22.48,-22.5 12.42,0 22.49,10.11 22.49,22.5zm202.34 22.5c12.42,0 22.48,-10.1 22.48,-22.5 0,-12.39 -10.06,-22.5 -22.48,-22.5 -12.42,0 -22.49,10.11 -22.49,22.5 0,12.4 10.07,22.5 22.49,22.5zm247.3 -22.5c0,12.4 -10.06,22.5 -22.48,22.5 -12.42,0 -22.48,-10.1 -22.48,-22.5 0,-12.39 10.06,-22.5 22.48,-22.5 12.42,0 22.48,10.11 22.48,22.5zm202.34 22.5c12.42,0 22.49,-10.1 22.49,-22.5 0,-12.39 -10.07,-22.5 -22.49,-22.5 -12.42,0 -22.48,10.11 -22.48,22.5 0,12.4 10.06,22.5 22.48,22.5zm247.31 -22.5c0,12.4 -10.06,22.5 -22.48,22.5 -12.42,0 -22.49,-10.1 -22.49,-22.5 0,-12.39 10.07,-22.5 22.49,-22.5 12.41,0 22.48,10.11 22.48,22.5zm179.87 0c0,12.4 10.11,22.5 22.48,22.5l0 -45c-12.37,0 -22.48,10.11 -22.48,22.5zm-2675.43 202.29c12.36,0 22.48,10.21 22.48,22.5 0,12.4 -10.12,22.5 -22.48,22.5l0 -45zm224.82 45c12.42,0 22.49,-10 22.49,-22.5 0,-12.39 -10.07,-22.5 -22.49,-22.5 -12.42,0 -22.48,10.11 -22.48,22.5 0,12.5 10.06,22.5 22.48,22.5zm247.31 -22.5c0,12.5 -10.06,22.5 -22.48,22.5 -12.42,0 -22.49,-10 -22.49,-22.5 0,-12.39 10.07,-22.5 22.49,-22.5 12.41,0 22.48,10.11 22.48,22.5zm202.35 22.5c12.41,0 22.48,-10 22.48,-22.5 0,-12.39 -10.06,-22.5 -22.48,-22.5 -12.42,0 -22.48,10.11 -22.48,22.5 0,12.5 10.06,22.5 22.48,22.5zm247.31 -22.5c0,12.5 -10.07,22.5 -22.49,22.5 -12.42,0 -22.48,-10 -22.48,-22.5 0,-12.39 10.06,-22.5 22.48,-22.5 12.41,0 22.49,10.11 22.49,22.5zm202.34 22.5c12.42,0 22.48,-10 22.48,-22.5 0,-12.39 -10.06,-22.5 -22.48,-22.5 -12.42,0 -22.49,10.11 -22.49,22.5 0,12.5 10.07,22.5 22.49,22.5zm247.3 -22.5c0,12.5 -10.06,22.5 -22.48,22.5 -12.42,0 -22.48,-10 -22.48,-22.5 0,-12.39 10.06,-22.5 22.48,-22.5 12.42,0 22.48,10.11 22.48,22.5zm202.34 22.5c12.42,0 22.49,-10 22.49,-22.5 0,-12.39 -10.07,-22.5 -22.49,-22.5 -12.42,0 -22.48,10.11 -22.48,22.5 0,12.5 10.06,22.5 22.48,22.5zm247.31 -22.5c0,12.5 -10.06,22.5 -22.48,22.5 -12.42,0 -22.49,-10 -22.49,-22.5 0,-12.39 10.07,-22.5 22.49,-22.5 12.42,0 22.48,10.11 22.48,22.5zm202.34 22.5c12.42,0 22.48,-10 22.48,-22.5 0,-12.39 -10.06,-22.5 -22.48,-22.5 -12.42,0 -22.48,10.11 -22.48,22.5 0,12.5 10.06,22.5 22.48,22.5zm247.31 -22.5c0,12.5 -10.07,22.5 -22.49,22.5 -12.42,0 -22.48,-10 -22.48,-22.5 0,-12.39 10.06,-22.5 22.48,-22.5 12.42,0 22.49,10.11 22.49,22.5zm202.35 22.5c12.41,0 22.48,-10 22.48,-22.5 0,-12.39 -10.06,-22.5 -22.48,-22.5 -12.42,0 -22.49,10.11 -22.49,22.5 0,12.5 10.07,22.5 22.49,22.5zm224.82 0c-12.37,0 -22.48,-10.1 -22.48,-22.5 0,-12.29 10.11,-22.5 22.48,-22.5l0 45zm-2675.43 202.4c0,-12.4 -10.12,-22.5 -22.48,-22.5l0 44.89c12.36,0 22.48,-10.1 22.48,-22.39zm224.83 0c0,12.39 -10.07,22.39 -22.49,22.39 -12.42,0 -22.48,-10 -22.48,-22.39 0,-12.5 10.06,-22.5 22.48,-22.5 12.42,0 22.49,10 22.49,22.5zm202.35 22.39c12.41,0 22.48,-10 22.48,-22.39 0,-12.5 -10.06,-22.5 -22.48,-22.5 -12.42,0 -22.49,10 -22.49,22.5 0,12.39 10.07,22.39 22.49,22.39zm247.3 -22.39c0,12.39 -10.06,22.39 -22.48,22.39 -12.42,0 -22.48,-10 -22.48,-22.39 0,-12.5 10.06,-22.5 22.48,-22.5 12.41,0 22.48,10 22.48,22.5zm202.35 22.39c12.41,0 22.49,-10 22.49,-22.39 0,-12.5 -10.07,-22.5 -22.49,-22.5 -12.42,0 -22.48,10 -22.48,22.5 0,12.39 10.06,22.39 22.48,22.39zm247.31 -22.39c0,12.39 -10.06,22.39 -22.48,22.39 -12.42,0 -22.49,-10 -22.49,-22.39 0,-12.5 10.07,-22.5 22.49,-22.5 12.42,0 22.48,10 22.48,22.5zm202.34 22.39c12.42,0 22.48,-10 22.48,-22.39 0,-12.5 -10.06,-22.5 -22.48,-22.5 -12.42,0 -22.48,10 -22.48,22.5 0,12.39 10.06,22.39 22.48,22.39zm247.31 -22.39c0,12.39 -10.07,22.39 -22.49,22.39 -12.42,0 -22.48,-10 -22.48,-22.39 0,-12.5 10.06,-22.5 22.48,-22.5 12.42,0 22.49,10 22.49,22.5zm202.34 22.39c12.42,0 22.48,-10 22.48,-22.39 0,-12.5 -10.06,-22.5 -22.48,-22.5 -12.42,0 -22.49,10 -22.49,22.5 0,12.39 10.07,22.39 22.49,22.39zm247.3 -22.39c0,12.39 -10.06,22.39 -22.48,22.39 -12.42,0 -22.48,-10 -22.48,-22.39 0,-12.5 10.06,-22.5 22.48,-22.5 12.42,0 22.48,10 22.48,22.5zm202.34 22.39c12.42,0 22.49,-10 22.49,-22.39 0,-12.5 -10.07,-22.5 -22.49,-22.5 -12.42,0 -22.48,10 -22.48,22.5 0,12.39 10.06,22.39 22.48,22.39zm247.31 -22.39c0,12.39 -10.06,22.39 -22.48,22.39 -12.42,0 -22.49,-10 -22.49,-22.39 0,-12.5 10.07,-22.5 22.49,-22.5 12.41,0 22.48,10 22.48,22.5zm179.87 0c0,12.29 10.11,22.39 22.48,22.39l0 -44.89c-12.37,0 -22.48,10.1 -22.48,22.5zm-2675.43 224.79l0 -22.5c12.36,0 22.48,10.1 22.48,22.5l-22.48 0zm224.82 -22.5c-12.37,0 -22.48,10.1 -22.48,22.5l44.97 0c0,-12.4 -10.13,-22.5 -22.49,-22.5zm202.34 22.5c0,-12.4 10.13,-22.5 22.49,-22.5 12.36,0 22.48,10.1 22.48,22.5l-44.97 0zm247.31 -22.5c-12.37,0 -22.48,10.1 -22.48,22.5l44.96 0c0,-12.4 -10.11,-22.5 -22.48,-22.5zm202.34 22.5c0,-12.4 10.11,-22.5 22.48,-22.5 12.36,0 22.49,10.1 22.49,22.5l-44.97 0zm247.31 -22.5c-12.36,0 -22.49,10.1 -22.49,22.5l44.97 0c0,-12.4 -10.11,-22.5 -22.48,-22.5zm202.35 22.5c0,-12.4 10.11,-22.5 22.48,-22.5 12.37,0 22.48,10.1 22.48,22.5l-44.96 0zm247.3 -22.5c-12.36,0 -22.48,10.1 -22.48,22.5l44.97 0c0,-12.4 -10.13,-22.5 -22.49,-22.5zm202.35 22.5c0,-12.4 10.12,-22.5 22.49,-22.5 12.37,0 22.48,10.1 22.48,22.5l-44.97 0zm247.31 -22.5c-12.37,0 -22.48,10.1 -22.48,22.5l44.96 0c0,-12.4 -10.11,-22.5 -22.48,-22.5zm202.34 22.5c0,-12.4 10.11,-22.5 22.48,-22.5 12.37,0 22.49,10.1 22.49,22.5l-44.97 0zm247.31 -22.5c-12.37,0 -22.49,10.1 -22.49,22.5l44.97 0c0,-12.4 -10.11,-22.5 -22.48,-22.5zm202.34 22.5c0,-12.4 10.11,-22.5 22.48,-22.5l0 22.5 -22.48 0z"/>
 </g>
</svg>
