<?xml version="1.0" encoding="UTF-8"?>
<!DOCTYPE svg PUBLIC "-//W3C//DTD SVG 1.1//EN" "http://www.w3.org/Graphics/SVG/1.1/DTD/svg11.dtd">
<!-- Creator: CorelDRAW 2019 (64-Bit) -->
<svg xmlns="http://www.w3.org/2000/svg" xml:space="preserve" width="0.190563in" height="0.190563in" version="1.1" style="shape-rendering:geometricPrecision; text-rendering:geometricPrecision; image-rendering:optimizeQuality; fill-rule:evenodd; clip-rule:evenodd"
viewBox="0 0 190.56 190.56"
 xmlns:xlink="http://www.w3.org/1999/xlink"
 xmlns:xodm="http://www.corel.com/coreldraw/odm/2003">
 <defs>
  <style type="text/css">
   <![CDATA[
    .fil0 {fill:#E4A788;fill-rule:nonzero}
   ]]>
  </style>
 </defs>
 <g id="Layer_x0020_1">
  <metadata id="CorelCorpID_0Corel-Layer"/>
  <g id="_2426319650000">
   <path class="fil0" d="M185.59 158.34c6.3,5.87 6.66,15.73 0.79,22.03 -5.87,6.3 -15.73,6.66 -22.03,0.79l-159.37 -148.95c-6.3,-5.87 -6.66,-15.73 -0.79,-22.03 5.87,-6.3 15.73,-6.66 22.03,-0.79l159.37 148.95z"/>
   <path class="fil0" d="M32.22 185.59c-5.87,6.3 -15.73,6.66 -22.03,0.79 -6.3,-5.87 -6.66,-15.73 -0.79,-22.03l148.95 -159.37c5.87,-6.3 15.73,-6.66 22.03,-0.79 6.3,5.87 6.66,15.73 0.79,22.03l-148.95 159.37z"/>
  </g>
 </g>
</svg>
