<?xml version="1.0" encoding="UTF-8"?>
<!DOCTYPE svg PUBLIC "-//W3C//DTD SVG 1.1//EN" "http://www.w3.org/Graphics/SVG/1.1/DTD/svg11.dtd">
<!-- Creator: CorelDRAW 2019 (64-Bit) -->
<svg xmlns="http://www.w3.org/2000/svg" xml:space="preserve" width="0.552087in" height="0.513732in" version="1.1" style="shape-rendering:geometricPrecision; text-rendering:geometricPrecision; image-rendering:optimizeQuality; fill-rule:evenodd; clip-rule:evenodd"
viewBox="0 0 552.09 513.73"
 xmlns:xlink="http://www.w3.org/1999/xlink"
 xmlns:xodm="http://www.corel.com/coreldraw/odm/2003">
 <defs>
  <style type="text/css">
   <![CDATA[
    .fil1 {fill:#55BC7E;fill-rule:nonzero}
    .fil0 {fill:#D3EEDF;fill-rule:nonzero;fill-opacity:0.878431}
   ]]>
  </style>
 </defs>
 <g id="Layer_x0020_1">
  <metadata id="CorelCorpID_0Corel-Layer"/>
  <g id="_2312938878448">
   <path id="Ellipse_x0020_24_6" class="fil0" d="M383.3 191.65c0,-105.85 -85.8,-191.65 -191.65,-191.65 -105.85,0 -191.65,85.8 -191.65,191.65 0,105.85 85.8,191.65 191.65,191.65 105.85,0 191.65,-85.8 191.65,-191.65z"/>
   <path id="Vector_44" class="fil1" d="M487.78 135.4c-7.49,0 -14.8,2.19 -21.02,6.35 -6.23,4.17 -11.07,10.11 -13.94,16.98 -2.87,6.98 -3.62,14.58 -2.16,21.87 1.46,7.4 5.06,14.06 10.35,19.38 5.29,5.31 12.03,8.85 19.37,10.31 7.33,1.46 14.95,0.73 21.85,-2.08 6.92,-2.92 12.82,-7.71 16.99,-13.96 4.16,-6.25 6.38,-13.54 6.38,-21.04 0,-10 -3.99,-19.69 -11.09,-26.77 -7.09,-7.08 -16.72,-11.04 -26.75,-11.04zm0 60.52c-4.5,0 -8.89,-1.35 -12.61,-3.85 -3.74,-2.5 -6.65,-6.04 -8.37,-10.11 -1.72,-4.17 -2.17,-8.75 -1.29,-13.13 0.87,-4.48 3.04,-8.44 6.22,-11.67 3.17,-3.13 7.22,-5.31 11.61,-6.25 4.41,-0.83 8.97,-0.42 13.11,1.35 4.16,1.67 7.7,4.58 10.2,8.33 2.49,3.75 3.82,8.13 3.82,12.61 0,6.04 -2.39,11.77 -6.65,16.04 -4.26,4.27 -10.04,6.67 -16.05,6.67z"/>
   <path id="Vector_45" class="fil1" d="M423.44 283l0 33.96c0,2.08 0.8,3.96 2.22,5.42 1.42,1.35 3.34,2.19 5.35,2.19l113.5 0c2.01,0 3.94,-0.83 5.35,-2.19 1.42,-1.46 2.22,-3.33 2.22,-5.42l0 -33.96c0,-17.08 -6.78,-33.44 -18.84,-45.52 -12.06,-12.09 -28.42,-18.85 -45.48,-18.85 -17.06,0 -33.42,6.77 -45.48,18.85 -12.06,12.08 -18.85,28.44 -18.85,45.52zm113.51 0l0 26.46 -98.37 0 0 -26.46c0,-13.13 5.19,-25.63 14.41,-34.79 9.23,-9.27 21.74,-14.48 34.78,-14.48 13.04,0 25.56,5.21 34.78,14.48 9.22,9.17 14.41,21.67 14.41,34.79z"/>
   <path id="Vector_46" class="fil1" d="M215.36 362.38c0,7.5 2.22,14.79 6.37,21.04 4.16,6.25 10.06,11.04 16.98,13.96 6.92,2.81 14.52,3.65 21.87,2.19 7.33,-1.46 14.07,-5.11 19.36,-10.42 5.29,-5.31 8.9,-11.98 10.35,-19.37 1.46,-7.29 0.72,-14.9 -2.15,-21.88 -2.86,-6.87 -7.72,-12.81 -13.94,-16.98 -6.22,-4.17 -13.54,-6.35 -21.02,-6.35 -10.03,0 -19.66,3.96 -26.75,11.04 -7.09,7.19 -11.08,16.77 -11.08,26.77zm60.53 0c0,4.48 -1.33,8.96 -3.82,12.61 -2.49,3.75 -6.04,6.67 -10.19,8.44 -4.15,1.67 -8.71,2.08 -13.11,1.25 -4.41,-0.83 -8.44,-3.02 -11.62,-6.25 -3.18,-3.13 -5.33,-7.19 -6.21,-11.56 -0.89,-4.37 -0.43,-8.96 1.29,-13.13 1.72,-4.17 4.62,-7.71 8.35,-10.21 3.74,-2.5 8.12,-3.85 12.61,-3.85 6.02,0 11.79,2.4 16.05,6.67 4.26,4.27 6.65,10 6.65,16.04z"/>
   <path id="Vector_47" class="fil1" d="M196.43 513.73l113.51 0c2,0 3.93,-0.83 5.35,-2.19 1.43,-1.46 2.22,-3.33 2.22,-5.41l0 -33.96c0,-17.08 -6.77,-33.44 -18.83,-45.52 -12.06,-12.08 -28.43,-18.85 -45.48,-18.85 -17.06,0 -33.43,6.77 -45.49,18.85 -12.06,12.08 -18.83,28.44 -18.83,45.52l0 33.96c0,2.08 0.79,3.96 2.22,5.41 1.42,1.35 3.35,2.19 5.35,2.19zm7.57 -41.56c0,-13.13 5.18,-25.63 14.41,-34.79 9.22,-9.27 21.73,-14.48 34.78,-14.48 13.04,0 25.55,5.21 34.77,14.48 9.23,9.17 14.41,21.67 14.41,34.79l0 26.46 -98.37 0 0 -26.46z"/>
   <path id="Vector_48" class="fil1" d="M483.96 453.21l0 -95.31 -24.9 25c-0.71,0.73 -1.54,1.25 -2.46,1.67 -0.93,0.42 -1.92,0.62 -2.92,0.62 -0.99,0 -1.98,-0.2 -2.91,-0.62 -0.92,-0.42 -1.76,-0.94 -2.46,-1.67 -0.71,-0.73 -1.27,-1.56 -1.65,-2.5 -0.39,-0.83 -0.58,-1.87 -0.58,-2.81 0,-1.04 0.2,-2.08 0.58,-2.92 0.37,-0.94 0.94,-1.77 1.65,-2.5l37.83 -37.81c0.7,-0.73 1.54,-1.25 2.46,-1.67 0.93,-0.41 1.92,-0.62 2.92,-0.62 0.99,0 1.98,0.21 2.91,0.62 0.92,0.42 1.76,0.94 2.46,1.67l37.83 37.81c0.72,0.73 1.28,1.56 1.66,2.5 0.39,0.83 0.58,1.87 0.58,2.92 0,0.94 -0.2,1.98 -0.58,2.81 -0.37,0.94 -0.94,1.77 -1.66,2.5 -0.7,0.73 -1.53,1.25 -2.46,1.67 -0.92,0.42 -1.91,0.62 -2.91,0.62 -1,0 -1.99,-0.2 -2.92,-0.62 -0.92,-0.42 -1.76,-0.94 -2.46,-1.67l-24.9 -25 0 102.92c0,1.98 -0.8,3.85 -2.22,5.31 -1.41,1.46 -3.34,2.19 -5.34,2.19l-158.91 0c-2.01,0 -3.94,-0.73 -5.35,-2.19 -1.42,-1.46 -2.22,-3.33 -2.22,-5.31 0,-2.08 0.8,-3.96 2.22,-5.42 1.42,-1.35 3.34,-2.19 5.35,-2.19l151.33 0z"/>
   <path id="Vector_49" class="fil1" d="M206.19 254.25c-1.43,-1.35 -2.23,-3.33 -2.23,-5.31 0,-2.08 0.8,-3.96 2.23,-5.42 1.43,-1.46 3.35,-2.19 5.36,-2.19 2.02,0 3.95,0.73 5.38,2.19l24.89 25 0 -102.81c0,-2.08 0.8,-3.96 2.22,-5.42 1.42,-1.35 3.34,-2.19 5.35,-2.19l158.91 0c2,0 3.93,0.83 5.34,2.19 1.43,1.46 2.22,3.33 2.22,5.42 0,1.98 -0.79,3.85 -2.22,5.31 -1.42,1.46 -3.34,2.19 -5.34,2.19l-151.34 0 0 95.31 24.89 -25c1.43,-1.46 3.35,-2.19 5.37,-2.19 2.01,0 3.95,0.73 5.38,2.19 1.41,1.46 2.22,3.33 2.22,5.42 0,1.98 -0.8,3.96 -2.22,5.31l-37.85 37.81c-0.7,0.73 -1.53,1.35 -2.46,1.67 -0.93,0.42 -1.91,0.63 -2.91,0.63 -1,0 -1.99,-0.21 -2.92,-0.63 -0.92,-0.31 -1.76,-0.94 -2.46,-1.67l-37.83 -37.81z"/>
  </g>
 </g>
</svg>
