<?xml version="1.0" encoding="UTF-8"?>
<!DOCTYPE svg PUBLIC "-//W3C//DTD SVG 1.1//EN" "http://www.w3.org/Graphics/SVG/1.1/DTD/svg11.dtd">
<!-- Creator: CorelDRAW 2019 (64-Bit) -->
<svg xmlns="http://www.w3.org/2000/svg" xml:space="preserve" width="0.574524in" height="0.490358in" version="1.1" style="shape-rendering:geometricPrecision; text-rendering:geometricPrecision; image-rendering:optimizeQuality; fill-rule:evenodd; clip-rule:evenodd"
viewBox="0 0 574.52 490.35"
 xmlns:xlink="http://www.w3.org/1999/xlink"
 xmlns:xodm="http://www.corel.com/coreldraw/odm/2003">
 <defs>
  <style type="text/css">
   <![CDATA[
    .fil1 {fill:#55BC7E;fill-rule:nonzero}
    .fil0 {fill:#D3EEDF;fill-rule:nonzero;fill-opacity:0.878431}
   ]]>
  </style>
 </defs>
 <g id="Layer_x0020_1">
  <metadata id="CorelCorpID_0Corel-Layer"/>
  <g id="_2312950616544">
   <path id="Ellipse_x0020_24_4" class="fil0" d="M391.97 195.98c0,-108.24 -87.74,-195.98 -195.98,-195.98 -108.24,0 -195.98,87.74 -195.98,195.98 0,108.24 87.74,195.98 195.98,195.98 108.24,0 195.98,-87.74 195.98,-195.98z"/>
   <path id="Vector_39" class="fil1" d="M365.71 399l-182.7 0c-1.73,0 -3.4,-0.73 -4.61,-1.98 -1.23,-1.15 -1.92,-2.81 -1.92,-4.58l0 -123.96 326.26 0 0 52.19c0,1.77 0.69,3.44 1.91,4.58 1.23,1.25 2.89,1.98 4.61,1.98 1.73,0 3.4,-0.73 4.61,-1.98 1.22,-1.15 1.91,-2.81 1.91,-4.58l0 -123.96c0,-5.21 -2.06,-10.21 -5.73,-13.85 -3.67,-3.65 -8.65,-5.73 -13.84,-5.73l-313.19 0c-5.2,0 -10.18,2.08 -13.85,5.73 -3.67,3.65 -5.74,8.65 -5.74,13.85l0 195.73c0,5.2 2.06,10.2 5.74,13.85 3.67,3.65 8.65,5.73 13.85,5.73l182.7 0c1.73,0 3.4,-0.73 4.61,-1.88 1.22,-1.25 1.91,-2.91 1.91,-4.69 0,-1.67 -0.69,-3.33 -1.91,-4.58 -1.22,-1.25 -2.89,-1.88 -4.61,-1.88zm53.18 -143.54l21.73 -26.15 28.65 0 -21.73 26.15 -28.65 0zm-17.03 0l-28.71 0 21.73 -26.15 28.65 0 -21.67 26.15zm-45.67 0l-28.72 0 21.73 -26.15 28.65 0 -21.65 26.15zm-45.68 0l-28.72 0 21.73 -26.15 28.65 0 -21.65 26.15zm-45.68 0l-28.71 0 21.73 -26.15 28.64 0 -21.66 26.15zm-45.68 0l-28.71 0 21.73 -26.15 28.65 0 -21.67 26.15zm-42.68 -26.15l18.67 0 -18.67 22.5 0 -22.5zm288.02 26.15l21.73 -26.15 16.51 0 0 26.15 -38.24 0zm-281.49 -65.31l313.19 0c1.73,0 3.4,0.73 4.61,1.98 1.23,1.15 1.92,2.81 1.92,4.58l0 19.58 -326.26 0 0 -19.58c0,-1.77 0.69,-3.44 1.92,-4.58 1.22,-1.25 2.89,-1.98 4.61,-1.98z"/>
   <path id="Vector_40" class="fil1" d="M522.32 333.69c-26.09,0 -52.2,8.96 -52.2,26.15l0 27.81c-12.22,-5.73 -25.62,-8.65 -39.15,-8.23 -26.1,0 -52.21,8.96 -52.21,26.04l0 52.29c0,17.08 26.11,26.04 52.21,26.04 14.73,0.52 29.33,-2.91 42.21,-10.1 7.71,10.94 28.46,16.67 49.14,16.67 26.1,0 52.2,-8.96 52.2,-26.15l0 -104.37c0,-17.19 -26.1,-26.15 -52.2,-26.15zm39.15 104.48c0,4.58 -14.87,13.02 -39.15,13.02 -24.27,0 -39.15,-8.44 -39.15,-13.02l0 -8.33c12.22,5.83 25.63,8.65 39.15,8.33 13.52,0.31 26.94,-2.5 39.15,-8.33l0 8.33zm-169.65 -14.9c12.22,5.83 25.63,8.65 39.15,8.33 13.52,0.31 26.93,-2.5 39.15,-8.33l0 8.33c0,4.58 -14.87,13.02 -39.15,13.02 -24.28,0 -39.15,-8.44 -39.15,-13.02l0 -8.33zm169.65 -11.25c0,4.69 -14.87,13.02 -39.15,13.02 -24.27,0 -39.15,-8.33 -39.15,-13.02l0 -8.23c12.22,5.73 25.63,8.65 39.15,8.23 13.52,0.42 26.94,-2.5 39.15,-8.23l0 8.23zm0 -26.15c0,4.69 -14.87,13.12 -39.15,13.12 -24.27,0 -39.15,-8.44 -39.15,-13.12l0 -8.23c12.22,5.83 25.63,8.65 39.15,8.23 13.52,0.41 26.94,-2.4 39.15,-8.23l0 8.23zm-39.15 -39.06c24.28,0 39.15,8.33 39.15,13.02 0,4.58 -14.87,13.02 -39.15,13.02 -24.27,0 -39.15,-8.44 -39.15,-13.02 0,-4.69 14.88,-13.02 39.15,-13.02zm-91.35 45.63c24.27,0 39.15,8.44 39.15,13.02 0,4.69 -14.87,13.13 -39.15,13.13 -24.28,0 -39.15,-8.44 -39.15,-13.13 0,-4.58 14.87,-13.02 39.15,-13.02zm0 78.33c-24.28,0 -39.15,-8.44 -39.15,-13.02l0 -8.33c12.22,5.83 25.63,8.65 39.15,8.33 13.52,0.31 26.93,-2.5 39.15,-8.33l0 8.33c0,4.58 -14.87,13.02 -39.15,13.02zm91.35 6.46c-24.27,0 -39.15,-8.33 -39.15,-13.02l0 -8.23c12.22,5.73 25.63,8.65 39.15,8.23 13.52,0.42 26.94,-2.5 39.15,-8.23l0 8.23c0,4.69 -14.87,13.02 -39.15,13.02z"/>
  </g>
 </g>
</svg>
